,channel,control,data,name,note,pitch,program,tempo,text,time,type,value,velocity,note_midi_value,note_velocity,note_time,note_seconds,tpb
0,,,,,,,,,Copyright (C) 2001 David Butterfield,0,copyright,,,,,0,0.0,192
1,,,"[65, 16, 66, 18, 64, 0, 127, 0, 65]",,,,,,,0,sysex,,,,,11,0.028645833333333332,192
2,,,"(74, 65, 90, 50, 1, 0, 0, 0, 0, 0, 0, 0, 0, 0, 0, 0, 0, 0, 0, 0)",,,,,,,0,sequencer_specific,,,,,0,0.0,192
3,,,,,,,,571428.0,,0,set_tempo,,,,,11,0.028645833333333332,192
4,,,"[65, 16, 66, 18, 64, 1, 51, 64, 76]",,,,,,,0,sysex,,,,,0,0.0,192
5,,,"[65, 16, 66, 18, 64, 1, 50, 0, 13]",,,,,,,0,sysex,,,,,0,0.0,192
6,,,"[65, 16, 66, 18, 64, 1, 54, 0, 9]",,,,,,,0,sysex,,,,,0,0.0,192
7,,,"[65, 16, 66, 18, 64, 1, 53, 0, 10]",,,,,,,0,sysex,,,,,0,0.0,192
8,,,"[65, 16, 66, 18, 64, 1, 57, 0, 6]",,,,,,,0,sysex,,,,,0,0.0,192
9,,,"[65, 16, 66, 18, 64, 1, 49, 4, 10]",,,,,,,0,sysex,,,,,0,0.0,192
10,,,"[65, 16, 66, 18, 64, 1, 52, 64, 75]",,,,,,,0,sysex,,,,,0,0.0,192
11,,,"[65, 16, 66, 18, 64, 1, 58, 64, 69]",,,,,,,0,sysex,,,,,0,0.0,192
12,,,"[65, 16, 66, 18, 64, 1, 59, 8, 124]",,,,,,,0,sysex,,,,,0,0.0,192
13,,,"[65, 16, 66, 18, 64, 1, 60, 80, 51]",,,,,,,0,sysex,,,,,0,0.0,192
14,,,"[65, 16, 66, 18, 64, 1, 61, 3, 127]",,,,,,,0,sysex,,,,,0,0.0,192
15,,,"[65, 16, 66, 18, 64, 1, 62, 18, 111]",,,,,,,0,sysex,,,,,0,0.0,192
16,,,"[65, 16, 66, 18, 64, 1, 63, 0, 0]",,,,,,,0,sysex,,,,,0,0.0,192
17,,,"[65, 16, 66, 18, 64, 1, 48, 4, 11]",,,,,,,0,sysex,,,,,0,0.0,192
18,,,"[65, 16, 66, 18, 64, 1, 56, 2, 5]",,,,,,,0,sysex,,,,,0,0.0,192
19,,,,,,,,,,0,end_of_track,,,,,0,0.0,192
20,9.0,0.0,,,,,,,,0,control_change,0.0,,,,0,0.0,192
21,9.0,,,,,,0.0,,,0,program_change,,,,,0,0.0,192
22,,,"(74, 65, 90, 50, 1, 0, 0, 0, 0, 0, 0, 0, 0, 0, 0, 0, 0, 0, 0, 0)",,,,,,,0,sequencer_specific,,,,,0,0.0,192
23,9.0,7.0,,,,,,,,0,control_change,127.0,,,,0,0.0,192
24,,,,Drums,,,,,,0,track_name,,,,,0,0.0,192
25,9.0,10.0,,,,,,,,0,control_change,64.0,,,,0,0.0,192
26,9.0,93.0,,,,,,,,0,control_change,0.0,,,,0,0.0,192
27,9.0,91.0,,,,,,,,0,control_change,40.0,,,,0,0.0,192
28,9.0,,,,42.0,,,,,192,note_on,,112.0,42.0,112.0,192,0.5,192
29,9.0,,,,42.0,,,,,44,note_on,,0.0,42.0,0.0,236,0.6145833333333333,192
30,9.0,,,,42.0,,,,,52,note_on,,112.0,42.0,112.0,288,0.75,192
31,9.0,,,,42.0,,,,,44,note_on,,0.0,42.0,0.0,332,0.8645833333333333,192
32,9.0,,,,42.0,,,,,52,note_on,,112.0,42.0,112.0,384,1.0,192
33,9.0,,,,42.0,,,,,44,note_on,,0.0,42.0,0.0,428,1.1145833333333333,192
34,9.0,,,,42.0,,,,,52,note_on,,112.0,42.0,112.0,480,1.25,192
35,9.0,,,,42.0,,,,,44,note_on,,0.0,42.0,0.0,524,1.3645833333333333,192
36,9.0,,,,42.0,,,,,52,note_on,,112.0,42.0,112.0,576,1.5,192
37,9.0,,,,42.0,,,,,44,note_on,,0.0,42.0,0.0,620,1.6145833333333333,192
38,9.0,,,,42.0,,,,,52,note_on,,112.0,42.0,112.0,672,1.75,192
39,9.0,,,,42.0,,,,,44,note_on,,0.0,42.0,0.0,716,1.8645833333333333,192
40,9.0,,,,42.0,,,,,3124,note_on,,88.0,42.0,88.0,3840,10.0,192
41,9.0,,,,35.0,,,,,0,note_on,,112.0,35.0,112.0,3840,10.0,192
42,9.0,,,,42.0,,,,,44,note_on,,0.0,42.0,0.0,3884,10.114583333333332,192
43,9.0,,,,35.0,,,,,0,note_on,,0.0,35.0,0.0,3884,10.114583333333332,192
44,9.0,,,,42.0,,,,,52,note_on,,88.0,42.0,88.0,3936,10.25,192
45,9.0,,,,42.0,,,,,44,note_on,,0.0,42.0,0.0,3980,10.364583333333332,192
46,9.0,,,,42.0,,,,,52,note_on,,88.0,42.0,88.0,4032,10.5,192
47,9.0,,,,51.0,,,,,0,note_on,,112.0,51.0,112.0,4032,10.5,192
48,9.0,,,,40.0,,,,,0,note_on,,112.0,40.0,112.0,4032,10.5,192
49,9.0,,,,40.0,,,,,44,note_on,,0.0,40.0,0.0,4076,10.614583333333332,192
50,9.0,,,,51.0,,,,,0,note_on,,0.0,51.0,0.0,4076,10.614583333333332,192
51,9.0,,,,42.0,,,,,0,note_on,,0.0,42.0,0.0,4076,10.614583333333332,192
52,9.0,,,,42.0,,,,,52,note_on,,88.0,42.0,88.0,4128,10.75,192
53,9.0,,,,42.0,,,,,44,note_on,,0.0,42.0,0.0,4172,10.864583333333332,192
54,9.0,,,,42.0,,,,,52,note_on,,88.0,42.0,88.0,4224,11.0,192
55,9.0,,,,35.0,,,,,0,note_on,,112.0,35.0,112.0,4224,11.0,192
56,9.0,,,,35.0,,,,,44,note_on,,0.0,35.0,0.0,4268,11.114583333333332,192
57,9.0,,,,42.0,,,,,0,note_on,,0.0,42.0,0.0,4268,11.114583333333332,192
58,9.0,,,,35.0,,,,,52,note_on,,112.0,35.0,112.0,4320,11.25,192
59,9.0,,,,42.0,,,,,0,note_on,,88.0,42.0,88.0,4320,11.25,192
60,9.0,,,,42.0,,,,,44,note_on,,0.0,42.0,0.0,4364,11.364583333333332,192
61,9.0,,,,35.0,,,,,0,note_on,,0.0,35.0,0.0,4364,11.364583333333332,192
62,9.0,,,,42.0,,,,,52,note_on,,88.0,42.0,88.0,4416,11.5,192
63,9.0,,,,51.0,,,,,0,note_on,,112.0,51.0,112.0,4416,11.5,192
64,9.0,,,,40.0,,,,,0,note_on,,112.0,40.0,112.0,4416,11.5,192
65,9.0,,,,40.0,,,,,44,note_on,,0.0,40.0,0.0,4460,11.614583333333332,192
66,9.0,,,,42.0,,,,,0,note_on,,0.0,42.0,0.0,4460,11.614583333333332,192
67,9.0,,,,51.0,,,,,0,note_on,,0.0,51.0,0.0,4460,11.614583333333332,192
68,9.0,,,,51.0,,,,,52,note_on,,112.0,51.0,112.0,4512,11.75,192
69,9.0,,,,42.0,,,,,0,note_on,,88.0,42.0,88.0,4512,11.75,192
70,9.0,,,,42.0,,,,,44,note_on,,0.0,42.0,0.0,4556,11.864583333333332,192
71,9.0,,,,51.0,,,,,0,note_on,,0.0,51.0,0.0,4556,11.864583333333332,192
72,9.0,,,,35.0,,,,,4,note_on,,112.0,35.0,112.0,4560,11.875,192
73,9.0,,,,35.0,,,,,44,note_on,,0.0,35.0,0.0,4604,11.989583333333332,192
74,9.0,,,,35.0,,,,,4,note_on,,112.0,35.0,112.0,4608,12.0,192
75,9.0,,,,42.0,,,,,0,note_on,,88.0,42.0,88.0,4608,12.0,192
76,9.0,,,,35.0,,,,,44,note_on,,0.0,35.0,0.0,4652,12.114583333333332,192
77,9.0,,,,42.0,,,,,0,note_on,,0.0,42.0,0.0,4652,12.114583333333332,192
78,9.0,,,,42.0,,,,,52,note_on,,88.0,42.0,88.0,4704,12.25,192
79,9.0,,,,42.0,,,,,44,note_on,,0.0,42.0,0.0,4748,12.364583333333332,192
80,9.0,,,,42.0,,,,,52,note_on,,88.0,42.0,88.0,4800,12.5,192
81,9.0,,,,51.0,,,,,0,note_on,,112.0,51.0,112.0,4800,12.5,192
82,9.0,,,,40.0,,,,,0,note_on,,112.0,40.0,112.0,4800,12.5,192
83,9.0,,,,42.0,,,,,44,note_on,,0.0,42.0,0.0,4844,12.614583333333332,192
84,9.0,,,,40.0,,,,,0,note_on,,0.0,40.0,0.0,4844,12.614583333333332,192
85,9.0,,,,51.0,,,,,0,note_on,,0.0,51.0,0.0,4844,12.614583333333332,192
86,9.0,,,,42.0,,,,,52,note_on,,88.0,42.0,88.0,4896,12.75,192
87,9.0,,,,42.0,,,,,44,note_on,,0.0,42.0,0.0,4940,12.864583333333332,192
88,9.0,,,,42.0,,,,,52,note_on,,88.0,42.0,88.0,4992,13.0,192
89,9.0,,,,35.0,,,,,0,note_on,,112.0,35.0,112.0,4992,13.0,192
90,9.0,,,,42.0,,,,,44,note_on,,0.0,42.0,0.0,5036,13.114583333333332,192
91,9.0,,,,35.0,,,,,0,note_on,,0.0,35.0,0.0,5036,13.114583333333332,192
92,9.0,,,,35.0,,,,,52,note_on,,112.0,35.0,112.0,5088,13.25,192
93,9.0,,,,42.0,,,,,0,note_on,,88.0,42.0,88.0,5088,13.25,192
94,9.0,,,,35.0,,,,,44,note_on,,0.0,35.0,0.0,5132,13.364583333333332,192
95,9.0,,,,42.0,,,,,0,note_on,,0.0,42.0,0.0,5132,13.364583333333332,192
96,9.0,,,,51.0,,,,,52,note_on,,112.0,51.0,112.0,5184,13.5,192
97,9.0,,,,42.0,,,,,0,note_on,,88.0,42.0,88.0,5184,13.5,192
98,9.0,,,,40.0,,,,,0,note_on,,112.0,40.0,112.0,5184,13.5,192
99,9.0,,,,40.0,,,,,44,note_on,,0.0,40.0,0.0,5228,13.614583333333332,192
100,9.0,,,,42.0,,,,,0,note_on,,0.0,42.0,0.0,5228,13.614583333333332,192
101,9.0,,,,51.0,,,,,0,note_on,,0.0,51.0,0.0,5228,13.614583333333332,192
102,9.0,,,,42.0,,,,,52,note_on,,88.0,42.0,88.0,5280,13.75,192
103,9.0,,,,51.0,,,,,0,note_on,,112.0,51.0,112.0,5280,13.75,192
104,9.0,,,,42.0,,,,,44,note_on,,0.0,42.0,0.0,5324,13.864583333333332,192
105,9.0,,,,51.0,,,,,0,note_on,,0.0,51.0,0.0,5324,13.864583333333332,192
106,9.0,,,,35.0,,,,,4,note_on,,112.0,35.0,112.0,5328,13.875,192
107,9.0,,,,35.0,,,,,44,note_on,,0.0,35.0,0.0,5372,13.989583333333332,192
108,9.0,,,,42.0,,,,,4,note_on,,88.0,42.0,88.0,5376,14.0,192
109,9.0,,,,35.0,,,,,0,note_on,,112.0,35.0,112.0,5376,14.0,192
110,9.0,,,,42.0,,,,,44,note_on,,0.0,42.0,0.0,5420,14.114583333333332,192
111,9.0,,,,35.0,,,,,0,note_on,,0.0,35.0,0.0,5420,14.114583333333332,192
112,9.0,,,,42.0,,,,,52,note_on,,88.0,42.0,88.0,5472,14.25,192
113,9.0,,,,42.0,,,,,44,note_on,,0.0,42.0,0.0,5516,14.364583333333332,192
114,9.0,,,,42.0,,,,,52,note_on,,88.0,42.0,88.0,5568,14.5,192
115,9.0,,,,40.0,,,,,0,note_on,,112.0,40.0,112.0,5568,14.5,192
116,9.0,,,,51.0,,,,,0,note_on,,112.0,51.0,112.0,5568,14.5,192
117,9.0,,,,40.0,,,,,44,note_on,,0.0,40.0,0.0,5612,14.614583333333332,192
118,9.0,,,,51.0,,,,,0,note_on,,0.0,51.0,0.0,5612,14.614583333333332,192
119,9.0,,,,42.0,,,,,0,note_on,,0.0,42.0,0.0,5612,14.614583333333332,192
120,9.0,,,,42.0,,,,,52,note_on,,88.0,42.0,88.0,5664,14.75,192
121,9.0,,,,42.0,,,,,44,note_on,,0.0,42.0,0.0,5708,14.864583333333332,192
122,9.0,,,,42.0,,,,,52,note_on,,88.0,42.0,88.0,5760,15.0,192
123,9.0,,,,35.0,,,,,0,note_on,,112.0,35.0,112.0,5760,15.0,192
124,9.0,,,,42.0,,,,,44,note_on,,0.0,42.0,0.0,5804,15.114583333333332,192
125,9.0,,,,35.0,,,,,0,note_on,,0.0,35.0,0.0,5804,15.114583333333332,192
126,9.0,,,,42.0,,,,,52,note_on,,88.0,42.0,88.0,5856,15.25,192
127,9.0,,,,35.0,,,,,0,note_on,,112.0,35.0,112.0,5856,15.25,192
128,9.0,,,,35.0,,,,,44,note_on,,0.0,35.0,0.0,5900,15.364583333333332,192
129,9.0,,,,42.0,,,,,0,note_on,,0.0,42.0,0.0,5900,15.364583333333332,192
130,9.0,,,,42.0,,,,,52,note_on,,88.0,42.0,88.0,5952,15.5,192
131,9.0,,,,40.0,,,,,0,note_on,,112.0,40.0,112.0,5952,15.5,192
132,9.0,,,,51.0,,,,,0,note_on,,112.0,51.0,112.0,5952,15.5,192
133,9.0,,,,40.0,,,,,44,note_on,,0.0,40.0,0.0,5996,15.614583333333332,192
134,9.0,,,,51.0,,,,,0,note_on,,0.0,51.0,0.0,5996,15.614583333333332,192
135,9.0,,,,42.0,,,,,0,note_on,,0.0,42.0,0.0,5996,15.614583333333332,192
136,9.0,,,,42.0,,,,,52,note_on,,88.0,42.0,88.0,6048,15.75,192
137,9.0,,,,51.0,,,,,0,note_on,,112.0,51.0,112.0,6048,15.75,192
138,9.0,,,,51.0,,,,,44,note_on,,0.0,51.0,0.0,6092,15.864583333333332,192
139,9.0,,,,42.0,,,,,0,note_on,,0.0,42.0,0.0,6092,15.864583333333332,192
140,9.0,,,,40.0,,,,,436,note_on,,112.0,40.0,112.0,6528,17.0,192
141,9.0,,,,40.0,,,,,44,note_on,,0.0,40.0,0.0,6572,17.114583333333332,192
142,9.0,,,,48.0,,,,,4,note_on,,112.0,48.0,112.0,6576,17.125,192
143,9.0,,,,48.0,,,,,44,note_on,,0.0,48.0,0.0,6620,17.239583333333332,192
144,9.0,,,,40.0,,,,,52,note_on,,112.0,40.0,112.0,6672,17.375,192
145,9.0,,,,40.0,,,,,44,note_on,,0.0,40.0,0.0,6716,17.489583333333332,192
146,9.0,,,,40.0,,,,,4,note_on,,112.0,40.0,112.0,6720,17.5,192
147,9.0,,,,40.0,,,,,44,note_on,,0.0,40.0,0.0,6764,17.614583333333332,192
148,9.0,,,,36.0,,,,,52,note_on,,112.0,36.0,112.0,6816,17.75,192
149,9.0,,,,36.0,,,,,44,note_on,,0.0,36.0,0.0,6860,17.864583333333332,192
150,9.0,,,,42.0,,,,,52,note_on,,88.0,42.0,88.0,6912,18.0,192
151,9.0,,,,35.0,,,,,0,note_on,,112.0,35.0,112.0,6912,18.0,192
152,9.0,,,,35.0,,,,,44,note_on,,0.0,35.0,0.0,6956,18.114583333333332,192
153,9.0,,,,42.0,,,,,0,note_on,,0.0,42.0,0.0,6956,18.114583333333332,192
154,9.0,,,,42.0,,,,,52,note_on,,88.0,42.0,88.0,7008,18.25,192
155,9.0,,,,42.0,,,,,44,note_on,,0.0,42.0,0.0,7052,18.364583333333332,192
156,9.0,,,,51.0,,,,,52,note_on,,112.0,51.0,112.0,7104,18.5,192
157,9.0,,,,42.0,,,,,0,note_on,,88.0,42.0,88.0,7104,18.5,192
158,9.0,,,,40.0,,,,,0,note_on,,112.0,40.0,112.0,7104,18.5,192
159,9.0,,,,42.0,,,,,44,note_on,,0.0,42.0,0.0,7148,18.614583333333332,192
160,9.0,,,,40.0,,,,,0,note_on,,0.0,40.0,0.0,7148,18.614583333333332,192
161,9.0,,,,51.0,,,,,0,note_on,,0.0,51.0,0.0,7148,18.614583333333332,192
162,9.0,,,,42.0,,,,,52,note_on,,88.0,42.0,88.0,7200,18.75,192
163,9.0,,,,42.0,,,,,44,note_on,,0.0,42.0,0.0,7244,18.864583333333332,192
164,9.0,,,,35.0,,,,,52,note_on,,112.0,35.0,112.0,7296,19.0,192
165,9.0,,,,42.0,,,,,0,note_on,,88.0,42.0,88.0,7296,19.0,192
166,9.0,,,,42.0,,,,,44,note_on,,0.0,42.0,0.0,7340,19.114583333333332,192
167,9.0,,,,35.0,,,,,0,note_on,,0.0,35.0,0.0,7340,19.114583333333332,192
168,9.0,,,,42.0,,,,,52,note_on,,88.0,42.0,88.0,7392,19.25,192
169,9.0,,,,35.0,,,,,0,note_on,,112.0,35.0,112.0,7392,19.25,192
170,9.0,,,,42.0,,,,,44,note_on,,0.0,42.0,0.0,7436,19.364583333333332,192
171,9.0,,,,35.0,,,,,0,note_on,,0.0,35.0,0.0,7436,19.364583333333332,192
172,9.0,,,,40.0,,,,,52,note_on,,112.0,40.0,112.0,7488,19.5,192
173,9.0,,,,51.0,,,,,0,note_on,,112.0,51.0,112.0,7488,19.5,192
174,9.0,,,,42.0,,,,,0,note_on,,88.0,42.0,88.0,7488,19.5,192
175,9.0,,,,40.0,,,,,44,note_on,,0.0,40.0,0.0,7532,19.614583333333332,192
176,9.0,,,,42.0,,,,,0,note_on,,0.0,42.0,0.0,7532,19.614583333333332,192
177,9.0,,,,51.0,,,,,0,note_on,,0.0,51.0,0.0,7532,19.614583333333332,192
178,9.0,,,,42.0,,,,,52,note_on,,88.0,42.0,88.0,7584,19.75,192
179,9.0,,,,51.0,,,,,0,note_on,,112.0,51.0,112.0,7584,19.75,192
180,9.0,,,,51.0,,,,,44,note_on,,0.0,51.0,0.0,7628,19.864583333333332,192
181,9.0,,,,42.0,,,,,0,note_on,,0.0,42.0,0.0,7628,19.864583333333332,192
182,9.0,,,,35.0,,,,,4,note_on,,112.0,35.0,112.0,7632,19.875,192
183,9.0,,,,35.0,,,,,44,note_on,,0.0,35.0,0.0,7676,19.989583333333332,192
184,9.0,,,,35.0,,,,,4,note_on,,112.0,35.0,112.0,7680,20.0,192
185,9.0,,,,42.0,,,,,0,note_on,,88.0,42.0,88.0,7680,20.0,192
186,9.0,,,,35.0,,,,,44,note_on,,0.0,35.0,0.0,7724,20.114583333333332,192
187,9.0,,,,42.0,,,,,0,note_on,,0.0,42.0,0.0,7724,20.114583333333332,192
188,9.0,,,,42.0,,,,,52,note_on,,88.0,42.0,88.0,7776,20.25,192
189,9.0,,,,42.0,,,,,44,note_on,,0.0,42.0,0.0,7820,20.364583333333332,192
190,9.0,,,,40.0,,,,,52,note_on,,112.0,40.0,112.0,7872,20.5,192
191,9.0,,,,42.0,,,,,0,note_on,,88.0,42.0,88.0,7872,20.5,192
192,9.0,,,,51.0,,,,,0,note_on,,112.0,51.0,112.0,7872,20.5,192
193,9.0,,,,40.0,,,,,44,note_on,,0.0,40.0,0.0,7916,20.614583333333332,192
194,9.0,,,,42.0,,,,,0,note_on,,0.0,42.0,0.0,7916,20.614583333333332,192
195,9.0,,,,51.0,,,,,0,note_on,,0.0,51.0,0.0,7916,20.614583333333332,192
196,9.0,,,,42.0,,,,,52,note_on,,88.0,42.0,88.0,7968,20.75,192
197,9.0,,,,42.0,,,,,44,note_on,,0.0,42.0,0.0,8012,20.864583333333332,192
198,9.0,,,,42.0,,,,,52,note_on,,88.0,42.0,88.0,8064,21.0,192
199,9.0,,,,35.0,,,,,0,note_on,,112.0,35.0,112.0,8064,21.0,192
200,9.0,,,,42.0,,,,,44,note_on,,0.0,42.0,0.0,8108,21.114583333333332,192
201,9.0,,,,35.0,,,,,0,note_on,,0.0,35.0,0.0,8108,21.114583333333332,192
202,9.0,,,,42.0,,,,,52,note_on,,88.0,42.0,88.0,8160,21.25,192
203,9.0,,,,35.0,,,,,0,note_on,,112.0,35.0,112.0,8160,21.25,192
204,9.0,,,,42.0,,,,,44,note_on,,0.0,42.0,0.0,8204,21.364583333333332,192
205,9.0,,,,35.0,,,,,0,note_on,,0.0,35.0,0.0,8204,21.364583333333332,192
206,9.0,,,,51.0,,,,,52,note_on,,112.0,51.0,112.0,8256,21.5,192
207,9.0,,,,40.0,,,,,0,note_on,,112.0,40.0,112.0,8256,21.5,192
208,9.0,,,,42.0,,,,,0,note_on,,88.0,42.0,88.0,8256,21.5,192
209,9.0,,,,40.0,,,,,44,note_on,,0.0,40.0,0.0,8300,21.614583333333332,192
210,9.0,,,,51.0,,,,,0,note_on,,0.0,51.0,0.0,8300,21.614583333333332,192
211,9.0,,,,42.0,,,,,0,note_on,,0.0,42.0,0.0,8300,21.614583333333332,192
212,9.0,,,,42.0,,,,,52,note_on,,88.0,42.0,88.0,8352,21.75,192
213,9.0,,,,51.0,,,,,0,note_on,,112.0,51.0,112.0,8352,21.75,192
214,9.0,,,,42.0,,,,,44,note_on,,0.0,42.0,0.0,8396,21.864583333333332,192
215,9.0,,,,51.0,,,,,0,note_on,,0.0,51.0,0.0,8396,21.864583333333332,192
216,9.0,,,,35.0,,,,,4,note_on,,112.0,35.0,112.0,8400,21.875,192
217,9.0,,,,35.0,,,,,44,note_on,,0.0,35.0,0.0,8444,21.989583333333332,192
218,9.0,,,,35.0,,,,,4,note_on,,112.0,35.0,112.0,8448,22.0,192
219,9.0,,,,42.0,,,,,0,note_on,,88.0,42.0,88.0,8448,22.0,192
220,9.0,,,,35.0,,,,,44,note_on,,0.0,35.0,0.0,8492,22.114583333333332,192
221,9.0,,,,42.0,,,,,0,note_on,,0.0,42.0,0.0,8492,22.114583333333332,192
222,9.0,,,,42.0,,,,,52,note_on,,88.0,42.0,88.0,8544,22.25,192
223,9.0,,,,42.0,,,,,44,note_on,,0.0,42.0,0.0,8588,22.364583333333332,192
224,9.0,,,,42.0,,,,,52,note_on,,88.0,42.0,88.0,8640,22.5,192
225,9.0,,,,40.0,,,,,0,note_on,,112.0,40.0,112.0,8640,22.5,192
226,9.0,,,,51.0,,,,,0,note_on,,112.0,51.0,112.0,8640,22.5,192
227,9.0,,,,51.0,,,,,44,note_on,,0.0,51.0,0.0,8684,22.614583333333332,192
228,9.0,,,,42.0,,,,,0,note_on,,0.0,42.0,0.0,8684,22.614583333333332,192
229,9.0,,,,40.0,,,,,0,note_on,,0.0,40.0,0.0,8684,22.614583333333332,192
230,9.0,,,,42.0,,,,,52,note_on,,88.0,42.0,88.0,8736,22.75,192
231,9.0,,,,42.0,,,,,44,note_on,,0.0,42.0,0.0,8780,22.864583333333332,192
232,9.0,,,,42.0,,,,,52,note_on,,88.0,42.0,88.0,8832,23.0,192
233,9.0,,,,35.0,,,,,0,note_on,,112.0,35.0,112.0,8832,23.0,192
234,9.0,,,,42.0,,,,,44,note_on,,0.0,42.0,0.0,8876,23.114583333333332,192
235,9.0,,,,35.0,,,,,0,note_on,,0.0,35.0,0.0,8876,23.114583333333332,192
236,9.0,,,,42.0,,,,,52,note_on,,88.0,42.0,88.0,8928,23.25,192
237,9.0,,,,35.0,,,,,0,note_on,,112.0,35.0,112.0,8928,23.25,192
238,9.0,,,,35.0,,,,,44,note_on,,0.0,35.0,0.0,8972,23.364583333333332,192
239,9.0,,,,42.0,,,,,0,note_on,,0.0,42.0,0.0,8972,23.364583333333332,192
240,9.0,,,,42.0,,,,,52,note_on,,88.0,42.0,88.0,9024,23.5,192
241,9.0,,,,51.0,,,,,0,note_on,,112.0,51.0,112.0,9024,23.5,192
242,9.0,,,,40.0,,,,,0,note_on,,112.0,40.0,112.0,9024,23.5,192
243,9.0,,,,40.0,,,,,44,note_on,,0.0,40.0,0.0,9068,23.614583333333332,192
244,9.0,,,,51.0,,,,,0,note_on,,0.0,51.0,0.0,9068,23.614583333333332,192
245,9.0,,,,42.0,,,,,0,note_on,,0.0,42.0,0.0,9068,23.614583333333332,192
246,9.0,,,,42.0,,,,,52,note_on,,88.0,42.0,88.0,9120,23.75,192
247,9.0,,,,51.0,,,,,0,note_on,,112.0,51.0,112.0,9120,23.75,192
248,9.0,,,,51.0,,,,,44,note_on,,0.0,51.0,0.0,9164,23.864583333333332,192
249,9.0,,,,42.0,,,,,0,note_on,,0.0,42.0,0.0,9164,23.864583333333332,192
250,9.0,,,,35.0,,,,,4,note_on,,112.0,35.0,112.0,9168,23.875,192
251,9.0,,,,35.0,,,,,44,note_on,,0.0,35.0,0.0,9212,23.989583333333332,192
252,9.0,,,,35.0,,,,,4,note_on,,112.0,35.0,112.0,9216,24.0,192
253,9.0,,,,42.0,,,,,0,note_on,,88.0,42.0,88.0,9216,24.0,192
254,9.0,,,,42.0,,,,,44,note_on,,0.0,42.0,0.0,9260,24.114583333333332,192
255,9.0,,,,35.0,,,,,0,note_on,,0.0,35.0,0.0,9260,24.114583333333332,192
256,9.0,,,,42.0,,,,,52,note_on,,88.0,42.0,88.0,9312,24.25,192
257,9.0,,,,42.0,,,,,44,note_on,,0.0,42.0,0.0,9356,24.364583333333332,192
258,9.0,,,,51.0,,,,,52,note_on,,112.0,51.0,112.0,9408,24.5,192
259,9.0,,,,42.0,,,,,0,note_on,,88.0,42.0,88.0,9408,24.5,192
260,9.0,,,,40.0,,,,,0,note_on,,112.0,40.0,112.0,9408,24.5,192
261,9.0,,,,51.0,,,,,44,note_on,,0.0,51.0,0.0,9452,24.614583333333332,192
262,9.0,,,,40.0,,,,,0,note_on,,0.0,40.0,0.0,9452,24.614583333333332,192
263,9.0,,,,42.0,,,,,0,note_on,,0.0,42.0,0.0,9452,24.614583333333332,192
264,9.0,,,,42.0,,,,,52,note_on,,88.0,42.0,88.0,9504,24.75,192
265,9.0,,,,42.0,,,,,44,note_on,,0.0,42.0,0.0,9548,24.864583333333332,192
266,9.0,,,,42.0,,,,,52,note_on,,88.0,42.0,88.0,9600,25.0,192
267,9.0,,,,35.0,,,,,0,note_on,,112.0,35.0,112.0,9600,25.0,192
268,9.0,,,,42.0,,,,,44,note_on,,0.0,42.0,0.0,9644,25.114583333333332,192
269,9.0,,,,35.0,,,,,0,note_on,,0.0,35.0,0.0,9644,25.114583333333332,192
270,9.0,,,,42.0,,,,,52,note_on,,88.0,42.0,88.0,9696,25.25,192
271,9.0,,,,35.0,,,,,0,note_on,,112.0,35.0,112.0,9696,25.25,192
272,9.0,,,,42.0,,,,,44,note_on,,0.0,42.0,0.0,9740,25.364583333333332,192
273,9.0,,,,35.0,,,,,0,note_on,,0.0,35.0,0.0,9740,25.364583333333332,192
274,9.0,,,,42.0,,,,,52,note_on,,88.0,42.0,88.0,9792,25.5,192
275,9.0,,,,51.0,,,,,0,note_on,,112.0,51.0,112.0,9792,25.5,192
276,9.0,,,,40.0,,,,,0,note_on,,112.0,40.0,112.0,9792,25.5,192
277,9.0,,,,40.0,,,,,44,note_on,,0.0,40.0,0.0,9836,25.614583333333332,192
278,9.0,,,,51.0,,,,,0,note_on,,0.0,51.0,0.0,9836,25.614583333333332,192
279,9.0,,,,42.0,,,,,0,note_on,,0.0,42.0,0.0,9836,25.614583333333332,192
280,9.0,,,,51.0,,,,,52,note_on,,112.0,51.0,112.0,9888,25.75,192
281,9.0,,,,42.0,,,,,0,note_on,,88.0,42.0,88.0,9888,25.75,192
282,9.0,,,,42.0,,,,,44,note_on,,0.0,42.0,0.0,9932,25.864583333333332,192
283,9.0,,,,51.0,,,,,0,note_on,,0.0,51.0,0.0,9932,25.864583333333332,192
284,9.0,,,,35.0,,,,,4,note_on,,112.0,35.0,112.0,9936,25.875,192
285,9.0,,,,35.0,,,,,44,note_on,,0.0,35.0,0.0,9980,25.989583333333332,192
286,9.0,,,,35.0,,,,,4,note_on,,112.0,35.0,112.0,9984,26.0,192
287,9.0,,,,42.0,,,,,0,note_on,,88.0,42.0,88.0,9984,26.0,192
288,9.0,,,,35.0,,,,,44,note_on,,0.0,35.0,0.0,10028,26.114583333333332,192
289,9.0,,,,42.0,,,,,0,note_on,,0.0,42.0,0.0,10028,26.114583333333332,192
290,9.0,,,,42.0,,,,,52,note_on,,88.0,42.0,88.0,10080,26.25,192
291,9.0,,,,42.0,,,,,44,note_on,,0.0,42.0,0.0,10124,26.364583333333332,192
292,9.0,,,,40.0,,,,,52,note_on,,112.0,40.0,112.0,10176,26.5,192
293,9.0,,,,51.0,,,,,0,note_on,,112.0,51.0,112.0,10176,26.5,192
294,9.0,,,,42.0,,,,,0,note_on,,88.0,42.0,88.0,10176,26.5,192
295,9.0,,,,40.0,,,,,44,note_on,,0.0,40.0,0.0,10220,26.614583333333332,192
296,9.0,,,,51.0,,,,,0,note_on,,0.0,51.0,0.0,10220,26.614583333333332,192
297,9.0,,,,42.0,,,,,0,note_on,,0.0,42.0,0.0,10220,26.614583333333332,192
298,9.0,,,,42.0,,,,,52,note_on,,88.0,42.0,88.0,10272,26.75,192
299,9.0,,,,42.0,,,,,44,note_on,,0.0,42.0,0.0,10316,26.864583333333332,192
300,9.0,,,,35.0,,,,,52,note_on,,112.0,35.0,112.0,10368,27.0,192
301,9.0,,,,42.0,,,,,0,note_on,,88.0,42.0,88.0,10368,27.0,192
302,9.0,,,,42.0,,,,,44,note_on,,0.0,42.0,0.0,10412,27.114583333333332,192
303,9.0,,,,35.0,,,,,0,note_on,,0.0,35.0,0.0,10412,27.114583333333332,192
304,9.0,,,,42.0,,,,,52,note_on,,88.0,42.0,88.0,10464,27.25,192
305,9.0,,,,35.0,,,,,0,note_on,,112.0,35.0,112.0,10464,27.25,192
306,9.0,,,,42.0,,,,,44,note_on,,0.0,42.0,0.0,10508,27.364583333333332,192
307,9.0,,,,35.0,,,,,0,note_on,,0.0,35.0,0.0,10508,27.364583333333332,192
308,9.0,,,,40.0,,,,,52,note_on,,112.0,40.0,112.0,10560,27.5,192
309,9.0,,,,51.0,,,,,0,note_on,,112.0,51.0,112.0,10560,27.5,192
310,9.0,,,,42.0,,,,,0,note_on,,88.0,42.0,88.0,10560,27.5,192
311,9.0,,,,42.0,,,,,44,note_on,,0.0,42.0,0.0,10604,27.614583333333332,192
312,9.0,,,,51.0,,,,,0,note_on,,0.0,51.0,0.0,10604,27.614583333333332,192
313,9.0,,,,40.0,,,,,0,note_on,,0.0,40.0,0.0,10604,27.614583333333332,192
314,9.0,,,,51.0,,,,,52,note_on,,112.0,51.0,112.0,10656,27.75,192
315,9.0,,,,42.0,,,,,0,note_on,,88.0,42.0,88.0,10656,27.75,192
316,9.0,,,,42.0,,,,,44,note_on,,0.0,42.0,0.0,10700,27.864583333333332,192
317,9.0,,,,51.0,,,,,0,note_on,,0.0,51.0,0.0,10700,27.864583333333332,192
318,9.0,,,,35.0,,,,,4,note_on,,112.0,35.0,112.0,10704,27.875,192
319,9.0,,,,35.0,,,,,44,note_on,,0.0,35.0,0.0,10748,27.989583333333332,192
320,9.0,,,,35.0,,,,,4,note_on,,112.0,35.0,112.0,10752,28.0,192
321,9.0,,,,42.0,,,,,0,note_on,,88.0,42.0,88.0,10752,28.0,192
322,9.0,,,,42.0,,,,,44,note_on,,0.0,42.0,0.0,10796,28.114583333333332,192
323,9.0,,,,35.0,,,,,0,note_on,,0.0,35.0,0.0,10796,28.114583333333332,192
324,9.0,,,,42.0,,,,,52,note_on,,88.0,42.0,88.0,10848,28.25,192
325,9.0,,,,42.0,,,,,44,note_on,,0.0,42.0,0.0,10892,28.364583333333332,192
326,9.0,,,,51.0,,,,,52,note_on,,112.0,51.0,112.0,10944,28.5,192
327,9.0,,,,42.0,,,,,0,note_on,,88.0,42.0,88.0,10944,28.5,192
328,9.0,,,,40.0,,,,,0,note_on,,112.0,40.0,112.0,10944,28.5,192
329,9.0,,,,40.0,,,,,44,note_on,,0.0,40.0,0.0,10988,28.614583333333332,192
330,9.0,,,,42.0,,,,,0,note_on,,0.0,42.0,0.0,10988,28.614583333333332,192
331,9.0,,,,51.0,,,,,0,note_on,,0.0,51.0,0.0,10988,28.614583333333332,192
332,9.0,,,,42.0,,,,,52,note_on,,88.0,42.0,88.0,11040,28.75,192
333,9.0,,,,42.0,,,,,44,note_on,,0.0,42.0,0.0,11084,28.864583333333332,192
334,9.0,,,,35.0,,,,,52,note_on,,112.0,35.0,112.0,11136,29.0,192
335,9.0,,,,42.0,,,,,0,note_on,,88.0,42.0,88.0,11136,29.0,192
336,9.0,,,,35.0,,,,,44,note_on,,0.0,35.0,0.0,11180,29.114583333333332,192
337,9.0,,,,42.0,,,,,0,note_on,,0.0,42.0,0.0,11180,29.114583333333332,192
338,9.0,,,,42.0,,,,,52,note_on,,88.0,42.0,88.0,11232,29.25,192
339,9.0,,,,35.0,,,,,0,note_on,,112.0,35.0,112.0,11232,29.25,192
340,9.0,,,,35.0,,,,,44,note_on,,0.0,35.0,0.0,11276,29.364583333333332,192
341,9.0,,,,42.0,,,,,0,note_on,,0.0,42.0,0.0,11276,29.364583333333332,192
342,9.0,,,,40.0,,,,,52,note_on,,112.0,40.0,112.0,11328,29.5,192
343,9.0,,,,42.0,,,,,0,note_on,,88.0,42.0,88.0,11328,29.5,192
344,9.0,,,,51.0,,,,,0,note_on,,112.0,51.0,112.0,11328,29.5,192
345,9.0,,,,51.0,,,,,44,note_on,,0.0,51.0,0.0,11372,29.614583333333332,192
346,9.0,,,,40.0,,,,,0,note_on,,0.0,40.0,0.0,11372,29.614583333333332,192
347,9.0,,,,42.0,,,,,0,note_on,,0.0,42.0,0.0,11372,29.614583333333332,192
348,9.0,,,,51.0,,,,,52,note_on,,112.0,51.0,112.0,11424,29.75,192
349,9.0,,,,42.0,,,,,0,note_on,,88.0,42.0,88.0,11424,29.75,192
350,9.0,,,,51.0,,,,,44,note_on,,0.0,51.0,0.0,11468,29.864583333333332,192
351,9.0,,,,42.0,,,,,0,note_on,,0.0,42.0,0.0,11468,29.864583333333332,192
352,9.0,,,,35.0,,,,,4,note_on,,112.0,35.0,112.0,11472,29.875,192
353,9.0,,,,35.0,,,,,44,note_on,,0.0,35.0,0.0,11516,29.989583333333332,192
354,9.0,,,,42.0,,,,,4,note_on,,88.0,42.0,88.0,11520,30.0,192
355,9.0,,,,35.0,,,,,0,note_on,,112.0,35.0,112.0,11520,30.0,192
356,9.0,,,,35.0,,,,,44,note_on,,0.0,35.0,0.0,11564,30.114583333333332,192
357,9.0,,,,42.0,,,,,0,note_on,,0.0,42.0,0.0,11564,30.114583333333332,192
358,9.0,,,,42.0,,,,,52,note_on,,88.0,42.0,88.0,11616,30.25,192
359,9.0,,,,42.0,,,,,44,note_on,,0.0,42.0,0.0,11660,30.364583333333332,192
360,9.0,,,,40.0,,,,,52,note_on,,112.0,40.0,112.0,11712,30.5,192
361,9.0,,,,42.0,,,,,0,note_on,,88.0,42.0,88.0,11712,30.5,192
362,9.0,,,,51.0,,,,,0,note_on,,112.0,51.0,112.0,11712,30.5,192
363,9.0,,,,40.0,,,,,44,note_on,,0.0,40.0,0.0,11756,30.614583333333332,192
364,9.0,,,,42.0,,,,,0,note_on,,0.0,42.0,0.0,11756,30.614583333333332,192
365,9.0,,,,51.0,,,,,0,note_on,,0.0,51.0,0.0,11756,30.614583333333332,192
366,9.0,,,,42.0,,,,,52,note_on,,88.0,42.0,88.0,11808,30.75,192
367,9.0,,,,42.0,,,,,44,note_on,,0.0,42.0,0.0,11852,30.864583333333332,192
368,9.0,,,,42.0,,,,,52,note_on,,88.0,42.0,88.0,11904,31.0,192
369,9.0,,,,35.0,,,,,0,note_on,,112.0,35.0,112.0,11904,31.0,192
370,9.0,,,,42.0,,,,,44,note_on,,0.0,42.0,0.0,11948,31.114583333333332,192
371,9.0,,,,35.0,,,,,0,note_on,,0.0,35.0,0.0,11948,31.114583333333332,192
372,9.0,,,,35.0,,,,,52,note_on,,112.0,35.0,112.0,12000,31.25,192
373,9.0,,,,42.0,,,,,0,note_on,,88.0,42.0,88.0,12000,31.25,192
374,9.0,,,,42.0,,,,,44,note_on,,0.0,42.0,0.0,12044,31.364583333333332,192
375,9.0,,,,35.0,,,,,0,note_on,,0.0,35.0,0.0,12044,31.364583333333332,192
376,9.0,,,,51.0,,,,,52,note_on,,112.0,51.0,112.0,12096,31.5,192
377,9.0,,,,42.0,,,,,0,note_on,,88.0,42.0,88.0,12096,31.5,192
378,9.0,,,,40.0,,,,,0,note_on,,112.0,40.0,112.0,12096,31.5,192
379,9.0,,,,42.0,,,,,44,note_on,,0.0,42.0,0.0,12140,31.614583333333332,192
380,9.0,,,,40.0,,,,,0,note_on,,0.0,40.0,0.0,12140,31.614583333333332,192
381,9.0,,,,51.0,,,,,0,note_on,,0.0,51.0,0.0,12140,31.614583333333332,192
382,9.0,,,,42.0,,,,,52,note_on,,88.0,42.0,88.0,12192,31.75,192
383,9.0,,,,51.0,,,,,0,note_on,,112.0,51.0,112.0,12192,31.75,192
384,9.0,,,,42.0,,,,,44,note_on,,0.0,42.0,0.0,12236,31.864583333333332,192
385,9.0,,,,51.0,,,,,0,note_on,,0.0,51.0,0.0,12236,31.864583333333332,192
386,9.0,,,,35.0,,,,,4,note_on,,112.0,35.0,112.0,12240,31.875,192
387,9.0,,,,35.0,,,,,44,note_on,,0.0,35.0,0.0,12284,31.989583333333332,192
388,9.0,,,,42.0,,,,,4,note_on,,88.0,42.0,88.0,12288,32.0,192
389,9.0,,,,35.0,,,,,0,note_on,,112.0,35.0,112.0,12288,32.0,192
390,9.0,,,,35.0,,,,,44,note_on,,0.0,35.0,0.0,12332,32.11458333333333,192
391,9.0,,,,42.0,,,,,0,note_on,,0.0,42.0,0.0,12332,32.11458333333333,192
392,9.0,,,,42.0,,,,,52,note_on,,88.0,42.0,88.0,12384,32.25,192
393,9.0,,,,42.0,,,,,44,note_on,,0.0,42.0,0.0,12428,32.36458333333333,192
394,9.0,,,,40.0,,,,,52,note_on,,112.0,40.0,112.0,12480,32.5,192
395,9.0,,,,42.0,,,,,0,note_on,,88.0,42.0,88.0,12480,32.5,192
396,9.0,,,,51.0,,,,,0,note_on,,112.0,51.0,112.0,12480,32.5,192
397,9.0,,,,42.0,,,,,44,note_on,,0.0,42.0,0.0,12524,32.61458333333333,192
398,9.0,,,,40.0,,,,,0,note_on,,0.0,40.0,0.0,12524,32.61458333333333,192
399,9.0,,,,51.0,,,,,0,note_on,,0.0,51.0,0.0,12524,32.61458333333333,192
400,9.0,,,,42.0,,,,,52,note_on,,88.0,42.0,88.0,12576,32.75,192
401,9.0,,,,42.0,,,,,44,note_on,,0.0,42.0,0.0,12620,32.86458333333333,192
402,9.0,,,,42.0,,,,,52,note_on,,88.0,42.0,88.0,12672,33.0,192
403,9.0,,,,35.0,,,,,0,note_on,,112.0,35.0,112.0,12672,33.0,192
404,9.0,,,,42.0,,,,,44,note_on,,0.0,42.0,0.0,12716,33.11458333333333,192
405,9.0,,,,35.0,,,,,0,note_on,,0.0,35.0,0.0,12716,33.11458333333333,192
406,9.0,,,,42.0,,,,,52,note_on,,88.0,42.0,88.0,12768,33.25,192
407,9.0,,,,35.0,,,,,0,note_on,,112.0,35.0,112.0,12768,33.25,192
408,9.0,,,,42.0,,,,,44,note_on,,0.0,42.0,0.0,12812,33.36458333333333,192
409,9.0,,,,35.0,,,,,0,note_on,,0.0,35.0,0.0,12812,33.36458333333333,192
410,9.0,,,,42.0,,,,,52,note_on,,88.0,42.0,88.0,12864,33.5,192
411,9.0,,,,40.0,,,,,0,note_on,,112.0,40.0,112.0,12864,33.5,192
412,9.0,,,,51.0,,,,,0,note_on,,112.0,51.0,112.0,12864,33.5,192
413,9.0,,,,42.0,,,,,44,note_on,,0.0,42.0,0.0,12908,33.61458333333333,192
414,9.0,,,,40.0,,,,,0,note_on,,0.0,40.0,0.0,12908,33.61458333333333,192
415,9.0,,,,51.0,,,,,0,note_on,,0.0,51.0,0.0,12908,33.61458333333333,192
416,9.0,,,,42.0,,,,,52,note_on,,88.0,42.0,88.0,12960,33.75,192
417,9.0,,,,51.0,,,,,0,note_on,,112.0,51.0,112.0,12960,33.75,192
418,9.0,,,,51.0,,,,,44,note_on,,0.0,51.0,0.0,13004,33.86458333333333,192
419,9.0,,,,42.0,,,,,0,note_on,,0.0,42.0,0.0,13004,33.86458333333333,192
420,9.0,,,,35.0,,,,,4,note_on,,112.0,35.0,112.0,13008,33.875,192
421,9.0,,,,35.0,,,,,44,note_on,,0.0,35.0,0.0,13052,33.98958333333333,192
422,9.0,,,,35.0,,,,,4,note_on,,112.0,35.0,112.0,13056,34.0,192
423,9.0,,,,42.0,,,,,0,note_on,,88.0,42.0,88.0,13056,34.0,192
424,9.0,,,,49.0,,,,,0,note_on,,112.0,49.0,112.0,13056,34.0,192
425,9.0,,,,42.0,,,,,44,note_on,,0.0,42.0,0.0,13100,34.11458333333333,192
426,9.0,,,,35.0,,,,,0,note_on,,0.0,35.0,0.0,13100,34.11458333333333,192
427,9.0,,,,49.0,,,,,0,note_on,,0.0,49.0,0.0,13100,34.11458333333333,192
428,9.0,,,,35.0,,,,,52,note_on,,112.0,35.0,112.0,13152,34.25,192
429,9.0,,,,42.0,,,,,0,note_on,,88.0,42.0,88.0,13152,34.25,192
430,9.0,,,,35.0,,,,,44,note_on,,0.0,35.0,0.0,13196,34.36458333333333,192
431,9.0,,,,42.0,,,,,0,note_on,,0.0,42.0,0.0,13196,34.36458333333333,192
432,9.0,,,,40.0,,,,,52,note_on,,112.0,40.0,112.0,13248,34.5,192
433,9.0,,,,35.0,,,,,0,note_on,,112.0,35.0,112.0,13248,34.5,192
434,9.0,,,,42.0,,,,,0,note_on,,88.0,42.0,88.0,13248,34.5,192
435,9.0,,,,51.0,,,,,0,note_on,,112.0,51.0,112.0,13248,34.5,192
436,9.0,,,,42.0,,,,,44,note_on,,0.0,42.0,0.0,13292,34.61458333333333,192
437,9.0,,,,40.0,,,,,0,note_on,,0.0,40.0,0.0,13292,34.61458333333333,192
438,9.0,,,,35.0,,,,,0,note_on,,0.0,35.0,0.0,13292,34.61458333333333,192
439,9.0,,,,51.0,,,,,0,note_on,,0.0,51.0,0.0,13292,34.61458333333333,192
440,9.0,,,,42.0,,,,,52,note_on,,88.0,42.0,88.0,13344,34.75,192
441,9.0,,,,42.0,,,,,44,note_on,,0.0,42.0,0.0,13388,34.86458333333333,192
442,9.0,,,,35.0,,,,,52,note_on,,112.0,35.0,112.0,13440,35.0,192
443,9.0,,,,42.0,,,,,0,note_on,,88.0,42.0,88.0,13440,35.0,192
444,9.0,,,,42.0,,,,,44,note_on,,0.0,42.0,0.0,13484,35.11458333333333,192
445,9.0,,,,35.0,,,,,0,note_on,,0.0,35.0,0.0,13484,35.11458333333333,192
446,9.0,,,,42.0,,,,,52,note_on,,88.0,42.0,88.0,13536,35.25,192
447,9.0,,,,35.0,,,,,0,note_on,,112.0,35.0,112.0,13536,35.25,192
448,9.0,,,,35.0,,,,,44,note_on,,0.0,35.0,0.0,13580,35.36458333333333,192
449,9.0,,,,42.0,,,,,0,note_on,,0.0,42.0,0.0,13580,35.36458333333333,192
450,9.0,,,,35.0,,,,,52,note_on,,112.0,35.0,112.0,13632,35.5,192
451,9.0,,,,40.0,,,,,0,note_on,,112.0,40.0,112.0,13632,35.5,192
452,9.0,,,,42.0,,,,,0,note_on,,88.0,42.0,88.0,13632,35.5,192
453,9.0,,,,51.0,,,,,0,note_on,,112.0,51.0,112.0,13632,35.5,192
454,9.0,,,,42.0,,,,,44,note_on,,0.0,42.0,0.0,13676,35.61458333333333,192
455,9.0,,,,40.0,,,,,0,note_on,,0.0,40.0,0.0,13676,35.61458333333333,192
456,9.0,,,,51.0,,,,,0,note_on,,0.0,51.0,0.0,13676,35.61458333333333,192
457,9.0,,,,35.0,,,,,0,note_on,,0.0,35.0,0.0,13676,35.61458333333333,192
458,9.0,,,,51.0,,,,,52,note_on,,112.0,51.0,112.0,13728,35.75,192
459,9.0,,,,42.0,,,,,0,note_on,,88.0,42.0,88.0,13728,35.75,192
460,9.0,,,,42.0,,,,,44,note_on,,0.0,42.0,0.0,13772,35.86458333333333,192
461,9.0,,,,51.0,,,,,0,note_on,,0.0,51.0,0.0,13772,35.86458333333333,192
462,9.0,,,,35.0,,,,,4,note_on,,112.0,35.0,112.0,13776,35.875,192
463,9.0,,,,35.0,,,,,44,note_on,,0.0,35.0,0.0,13820,35.98958333333333,192
464,9.0,,,,42.0,,,,,4,note_on,,88.0,42.0,88.0,13824,36.0,192
465,9.0,,,,35.0,,,,,0,note_on,,112.0,35.0,112.0,13824,36.0,192
466,9.0,,,,42.0,,,,,44,note_on,,0.0,42.0,0.0,13868,36.11458333333333,192
467,9.0,,,,35.0,,,,,0,note_on,,0.0,35.0,0.0,13868,36.11458333333333,192
468,9.0,,,,42.0,,,,,52,note_on,,88.0,42.0,88.0,13920,36.25,192
469,9.0,,,,35.0,,,,,0,note_on,,112.0,35.0,112.0,13920,36.25,192
470,9.0,,,,42.0,,,,,44,note_on,,0.0,42.0,0.0,13964,36.36458333333333,192
471,9.0,,,,35.0,,,,,0,note_on,,0.0,35.0,0.0,13964,36.36458333333333,192
472,9.0,,,,42.0,,,,,52,note_on,,88.0,42.0,88.0,14016,36.5,192
473,9.0,,,,51.0,,,,,0,note_on,,112.0,51.0,112.0,14016,36.5,192
474,9.0,,,,35.0,,,,,0,note_on,,112.0,35.0,112.0,14016,36.5,192
475,9.0,,,,40.0,,,,,0,note_on,,112.0,40.0,112.0,14016,36.5,192
476,9.0,,,,40.0,,,,,44,note_on,,0.0,40.0,0.0,14060,36.61458333333333,192
477,9.0,,,,51.0,,,,,0,note_on,,0.0,51.0,0.0,14060,36.61458333333333,192
478,9.0,,,,42.0,,,,,0,note_on,,0.0,42.0,0.0,14060,36.61458333333333,192
479,9.0,,,,35.0,,,,,0,note_on,,0.0,35.0,0.0,14060,36.61458333333333,192
480,9.0,,,,42.0,,,,,52,note_on,,88.0,42.0,88.0,14112,36.75,192
481,9.0,,,,42.0,,,,,44,note_on,,0.0,42.0,0.0,14156,36.86458333333333,192
482,9.0,,,,42.0,,,,,52,note_on,,88.0,42.0,88.0,14208,37.0,192
483,9.0,,,,35.0,,,,,0,note_on,,112.0,35.0,112.0,14208,37.0,192
484,9.0,,,,35.0,,,,,44,note_on,,0.0,35.0,0.0,14252,37.11458333333333,192
485,9.0,,,,42.0,,,,,0,note_on,,0.0,42.0,0.0,14252,37.11458333333333,192
486,9.0,,,,42.0,,,,,52,note_on,,88.0,42.0,88.0,14304,37.25,192
487,9.0,,,,35.0,,,,,0,note_on,,112.0,35.0,112.0,14304,37.25,192
488,9.0,,,,35.0,,,,,44,note_on,,0.0,35.0,0.0,14348,37.36458333333333,192
489,9.0,,,,42.0,,,,,0,note_on,,0.0,42.0,0.0,14348,37.36458333333333,192
490,9.0,,,,42.0,,,,,52,note_on,,88.0,42.0,88.0,14400,37.5,192
491,9.0,,,,40.0,,,,,0,note_on,,112.0,40.0,112.0,14400,37.5,192
492,9.0,,,,51.0,,,,,0,note_on,,112.0,51.0,112.0,14400,37.5,192
493,9.0,,,,35.0,,,,,0,note_on,,112.0,35.0,112.0,14400,37.5,192
494,9.0,,,,35.0,,,,,44,note_on,,0.0,35.0,0.0,14444,37.61458333333333,192
495,9.0,,,,42.0,,,,,0,note_on,,0.0,42.0,0.0,14444,37.61458333333333,192
496,9.0,,,,40.0,,,,,0,note_on,,0.0,40.0,0.0,14444,37.61458333333333,192
497,9.0,,,,51.0,,,,,0,note_on,,0.0,51.0,0.0,14444,37.61458333333333,192
498,9.0,,,,42.0,,,,,52,note_on,,88.0,42.0,88.0,14496,37.75,192
499,9.0,,,,51.0,,,,,0,note_on,,112.0,51.0,112.0,14496,37.75,192
500,9.0,,,,42.0,,,,,44,note_on,,0.0,42.0,0.0,14540,37.86458333333333,192
501,9.0,,,,51.0,,,,,0,note_on,,0.0,51.0,0.0,14540,37.86458333333333,192
502,9.0,,,,35.0,,,,,4,note_on,,112.0,35.0,112.0,14544,37.875,192
503,9.0,,,,35.0,,,,,44,note_on,,0.0,35.0,0.0,14588,37.98958333333333,192
504,9.0,,,,42.0,,,,,4,note_on,,88.0,42.0,88.0,14592,38.0,192
505,9.0,,,,35.0,,,,,0,note_on,,112.0,35.0,112.0,14592,38.0,192
506,9.0,,,,35.0,,,,,44,note_on,,0.0,35.0,0.0,14636,38.11458333333333,192
507,9.0,,,,42.0,,,,,0,note_on,,0.0,42.0,0.0,14636,38.11458333333333,192
508,9.0,,,,42.0,,,,,52,note_on,,88.0,42.0,88.0,14688,38.25,192
509,9.0,,,,35.0,,,,,0,note_on,,112.0,35.0,112.0,14688,38.25,192
510,9.0,,,,35.0,,,,,44,note_on,,0.0,35.0,0.0,14732,38.36458333333333,192
511,9.0,,,,42.0,,,,,0,note_on,,0.0,42.0,0.0,14732,38.36458333333333,192
512,9.0,,,,40.0,,,,,52,note_on,,112.0,40.0,112.0,14784,38.5,192
513,9.0,,,,51.0,,,,,0,note_on,,112.0,51.0,112.0,14784,38.5,192
514,9.0,,,,35.0,,,,,0,note_on,,112.0,35.0,112.0,14784,38.5,192
515,9.0,,,,42.0,,,,,0,note_on,,88.0,42.0,88.0,14784,38.5,192
516,9.0,,,,35.0,,,,,44,note_on,,0.0,35.0,0.0,14828,38.61458333333333,192
517,9.0,,,,42.0,,,,,0,note_on,,0.0,42.0,0.0,14828,38.61458333333333,192
518,9.0,,,,51.0,,,,,0,note_on,,0.0,51.0,0.0,14828,38.61458333333333,192
519,9.0,,,,40.0,,,,,0,note_on,,0.0,40.0,0.0,14828,38.61458333333333,192
520,9.0,,,,42.0,,,,,52,note_on,,88.0,42.0,88.0,14880,38.75,192
521,9.0,,,,42.0,,,,,44,note_on,,0.0,42.0,0.0,14924,38.86458333333333,192
522,9.0,,,,42.0,,,,,52,note_on,,88.0,42.0,88.0,14976,39.0,192
523,9.0,,,,35.0,,,,,0,note_on,,112.0,35.0,112.0,14976,39.0,192
524,9.0,,,,35.0,,,,,44,note_on,,0.0,35.0,0.0,15020,39.11458333333333,192
525,9.0,,,,42.0,,,,,0,note_on,,0.0,42.0,0.0,15020,39.11458333333333,192
526,9.0,,,,35.0,,,,,52,note_on,,112.0,35.0,112.0,15072,39.25,192
527,9.0,,,,42.0,,,,,0,note_on,,88.0,42.0,88.0,15072,39.25,192
528,9.0,,,,35.0,,,,,44,note_on,,0.0,35.0,0.0,15116,39.36458333333333,192
529,9.0,,,,42.0,,,,,0,note_on,,0.0,42.0,0.0,15116,39.36458333333333,192
530,9.0,,,,40.0,,,,,52,note_on,,112.0,40.0,112.0,15168,39.5,192
531,9.0,,,,51.0,,,,,0,note_on,,112.0,51.0,112.0,15168,39.5,192
532,9.0,,,,42.0,,,,,0,note_on,,88.0,42.0,88.0,15168,39.5,192
533,9.0,,,,35.0,,,,,0,note_on,,112.0,35.0,112.0,15168,39.5,192
534,9.0,,,,51.0,,,,,44,note_on,,0.0,51.0,0.0,15212,39.61458333333333,192
535,9.0,,,,40.0,,,,,0,note_on,,0.0,40.0,0.0,15212,39.61458333333333,192
536,9.0,,,,35.0,,,,,0,note_on,,0.0,35.0,0.0,15212,39.61458333333333,192
537,9.0,,,,42.0,,,,,0,note_on,,0.0,42.0,0.0,15212,39.61458333333333,192
538,9.0,,,,51.0,,,,,52,note_on,,112.0,51.0,112.0,15264,39.75,192
539,9.0,,,,42.0,,,,,0,note_on,,88.0,42.0,88.0,15264,39.75,192
540,9.0,,,,51.0,,,,,44,note_on,,0.0,51.0,0.0,15308,39.86458333333333,192
541,9.0,,,,42.0,,,,,0,note_on,,0.0,42.0,0.0,15308,39.86458333333333,192
542,9.0,,,,35.0,,,,,4,note_on,,112.0,35.0,112.0,15312,39.875,192
543,9.0,,,,35.0,,,,,44,note_on,,0.0,35.0,0.0,15356,39.98958333333333,192
544,9.0,,,,42.0,,,,,4,note_on,,88.0,42.0,88.0,15360,40.0,192
545,9.0,,,,35.0,,,,,0,note_on,,112.0,35.0,112.0,15360,40.0,192
546,9.0,,,,42.0,,,,,44,note_on,,0.0,42.0,0.0,15404,40.11458333333333,192
547,9.0,,,,35.0,,,,,0,note_on,,0.0,35.0,0.0,15404,40.11458333333333,192
548,9.0,,,,42.0,,,,,52,note_on,,88.0,42.0,88.0,15456,40.25,192
549,9.0,,,,35.0,,,,,0,note_on,,112.0,35.0,112.0,15456,40.25,192
550,9.0,,,,35.0,,,,,44,note_on,,0.0,35.0,0.0,15500,40.36458333333333,192
551,9.0,,,,42.0,,,,,0,note_on,,0.0,42.0,0.0,15500,40.36458333333333,192
552,9.0,,,,35.0,,,,,52,note_on,,112.0,35.0,112.0,15552,40.5,192
553,9.0,,,,40.0,,,,,0,note_on,,112.0,40.0,112.0,15552,40.5,192
554,9.0,,,,51.0,,,,,0,note_on,,112.0,51.0,112.0,15552,40.5,192
555,9.0,,,,42.0,,,,,0,note_on,,88.0,42.0,88.0,15552,40.5,192
556,9.0,,,,51.0,,,,,44,note_on,,0.0,51.0,0.0,15596,40.61458333333333,192
557,9.0,,,,35.0,,,,,0,note_on,,0.0,35.0,0.0,15596,40.61458333333333,192
558,9.0,,,,42.0,,,,,0,note_on,,0.0,42.0,0.0,15596,40.61458333333333,192
559,9.0,,,,40.0,,,,,0,note_on,,0.0,40.0,0.0,15596,40.61458333333333,192
560,9.0,,,,42.0,,,,,52,note_on,,88.0,42.0,88.0,15648,40.75,192
561,9.0,,,,42.0,,,,,44,note_on,,0.0,42.0,0.0,15692,40.86458333333333,192
562,9.0,,,,42.0,,,,,52,note_on,,88.0,42.0,88.0,15744,41.0,192
563,9.0,,,,35.0,,,,,0,note_on,,112.0,35.0,112.0,15744,41.0,192
564,9.0,,,,35.0,,,,,44,note_on,,0.0,35.0,0.0,15788,41.11458333333333,192
565,9.0,,,,42.0,,,,,0,note_on,,0.0,42.0,0.0,15788,41.11458333333333,192
566,9.0,,,,42.0,,,,,52,note_on,,88.0,42.0,88.0,15840,41.25,192
567,9.0,,,,35.0,,,,,0,note_on,,112.0,35.0,112.0,15840,41.25,192
568,9.0,,,,35.0,,,,,44,note_on,,0.0,35.0,0.0,15884,41.36458333333333,192
569,9.0,,,,42.0,,,,,0,note_on,,0.0,42.0,0.0,15884,41.36458333333333,192
570,9.0,,,,35.0,,,,,52,note_on,,112.0,35.0,112.0,15936,41.5,192
571,9.0,,,,40.0,,,,,0,note_on,,112.0,40.0,112.0,15936,41.5,192
572,9.0,,,,42.0,,,,,0,note_on,,88.0,42.0,88.0,15936,41.5,192
573,9.0,,,,51.0,,,,,0,note_on,,112.0,51.0,112.0,15936,41.5,192
574,9.0,,,,40.0,,,,,44,note_on,,0.0,40.0,0.0,15980,41.61458333333333,192
575,9.0,,,,42.0,,,,,0,note_on,,0.0,42.0,0.0,15980,41.61458333333333,192
576,9.0,,,,51.0,,,,,0,note_on,,0.0,51.0,0.0,15980,41.61458333333333,192
577,9.0,,,,35.0,,,,,0,note_on,,0.0,35.0,0.0,15980,41.61458333333333,192
578,9.0,,,,51.0,,,,,52,note_on,,112.0,51.0,112.0,16032,41.75,192
579,9.0,,,,42.0,,,,,0,note_on,,88.0,42.0,88.0,16032,41.75,192
580,9.0,,,,51.0,,,,,44,note_on,,0.0,51.0,0.0,16076,41.86458333333333,192
581,9.0,,,,42.0,,,,,0,note_on,,0.0,42.0,0.0,16076,41.86458333333333,192
582,9.0,,,,35.0,,,,,4,note_on,,112.0,35.0,112.0,16080,41.875,192
583,9.0,,,,35.0,,,,,44,note_on,,0.0,35.0,0.0,16124,41.98958333333333,192
584,9.0,,,,35.0,,,,,4,note_on,,112.0,35.0,112.0,16128,42.0,192
585,9.0,,,,42.0,,,,,0,note_on,,88.0,42.0,88.0,16128,42.0,192
586,9.0,,,,42.0,,,,,44,note_on,,0.0,42.0,0.0,16172,42.11458333333333,192
587,9.0,,,,35.0,,,,,0,note_on,,0.0,35.0,0.0,16172,42.11458333333333,192
588,9.0,,,,42.0,,,,,52,note_on,,88.0,42.0,88.0,16224,42.25,192
589,9.0,,,,35.0,,,,,0,note_on,,112.0,35.0,112.0,16224,42.25,192
590,9.0,,,,42.0,,,,,44,note_on,,0.0,42.0,0.0,16268,42.36458333333333,192
591,9.0,,,,35.0,,,,,0,note_on,,0.0,35.0,0.0,16268,42.36458333333333,192
592,9.0,,,,42.0,,,,,52,note_on,,88.0,42.0,88.0,16320,42.5,192
593,9.0,,,,35.0,,,,,0,note_on,,112.0,35.0,112.0,16320,42.5,192
594,9.0,,,,51.0,,,,,0,note_on,,112.0,51.0,112.0,16320,42.5,192
595,9.0,,,,40.0,,,,,0,note_on,,112.0,40.0,112.0,16320,42.5,192
596,9.0,,,,35.0,,,,,44,note_on,,0.0,35.0,0.0,16364,42.61458333333333,192
597,9.0,,,,40.0,,,,,0,note_on,,0.0,40.0,0.0,16364,42.61458333333333,192
598,9.0,,,,51.0,,,,,0,note_on,,0.0,51.0,0.0,16364,42.61458333333333,192
599,9.0,,,,42.0,,,,,0,note_on,,0.0,42.0,0.0,16364,42.61458333333333,192
600,9.0,,,,42.0,,,,,52,note_on,,88.0,42.0,88.0,16416,42.75,192
601,9.0,,,,42.0,,,,,44,note_on,,0.0,42.0,0.0,16460,42.86458333333333,192
602,9.0,,,,42.0,,,,,52,note_on,,88.0,42.0,88.0,16512,43.0,192
603,9.0,,,,35.0,,,,,0,note_on,,112.0,35.0,112.0,16512,43.0,192
604,9.0,,,,42.0,,,,,44,note_on,,0.0,42.0,0.0,16556,43.11458333333333,192
605,9.0,,,,35.0,,,,,0,note_on,,0.0,35.0,0.0,16556,43.11458333333333,192
606,9.0,,,,35.0,,,,,52,note_on,,112.0,35.0,112.0,16608,43.25,192
607,9.0,,,,42.0,,,,,0,note_on,,88.0,42.0,88.0,16608,43.25,192
608,9.0,,,,42.0,,,,,44,note_on,,0.0,42.0,0.0,16652,43.36458333333333,192
609,9.0,,,,35.0,,,,,0,note_on,,0.0,35.0,0.0,16652,43.36458333333333,192
610,9.0,,,,35.0,,,,,52,note_on,,112.0,35.0,112.0,16704,43.5,192
611,9.0,,,,51.0,,,,,0,note_on,,112.0,51.0,112.0,16704,43.5,192
612,9.0,,,,40.0,,,,,0,note_on,,112.0,40.0,112.0,16704,43.5,192
613,9.0,,,,42.0,,,,,0,note_on,,88.0,42.0,88.0,16704,43.5,192
614,9.0,,,,51.0,,,,,44,note_on,,0.0,51.0,0.0,16748,43.61458333333333,192
615,9.0,,,,42.0,,,,,0,note_on,,0.0,42.0,0.0,16748,43.61458333333333,192
616,9.0,,,,35.0,,,,,0,note_on,,0.0,35.0,0.0,16748,43.61458333333333,192
617,9.0,,,,40.0,,,,,0,note_on,,0.0,40.0,0.0,16748,43.61458333333333,192
618,9.0,,,,51.0,,,,,52,note_on,,112.0,51.0,112.0,16800,43.75,192
619,9.0,,,,42.0,,,,,0,note_on,,88.0,42.0,88.0,16800,43.75,192
620,9.0,,,,42.0,,,,,44,note_on,,0.0,42.0,0.0,16844,43.86458333333333,192
621,9.0,,,,51.0,,,,,0,note_on,,0.0,51.0,0.0,16844,43.86458333333333,192
622,9.0,,,,35.0,,,,,4,note_on,,112.0,35.0,112.0,16848,43.875,192
623,9.0,,,,35.0,,,,,44,note_on,,0.0,35.0,0.0,16892,43.98958333333333,192
624,9.0,,,,35.0,,,,,4,note_on,,112.0,35.0,112.0,16896,44.0,192
625,9.0,,,,42.0,,,,,0,note_on,,88.0,42.0,88.0,16896,44.0,192
626,9.0,,,,42.0,,,,,44,note_on,,0.0,42.0,0.0,16940,44.11458333333333,192
627,9.0,,,,35.0,,,,,0,note_on,,0.0,35.0,0.0,16940,44.11458333333333,192
628,9.0,,,,42.0,,,,,52,note_on,,88.0,42.0,88.0,16992,44.25,192
629,9.0,,,,35.0,,,,,0,note_on,,112.0,35.0,112.0,16992,44.25,192
630,9.0,,,,42.0,,,,,44,note_on,,0.0,42.0,0.0,17036,44.36458333333333,192
631,9.0,,,,35.0,,,,,0,note_on,,0.0,35.0,0.0,17036,44.36458333333333,192
632,9.0,,,,40.0,,,,,52,note_on,,112.0,40.0,112.0,17088,44.5,192
633,9.0,,,,42.0,,,,,0,note_on,,88.0,42.0,88.0,17088,44.5,192
634,9.0,,,,35.0,,,,,0,note_on,,112.0,35.0,112.0,17088,44.5,192
635,9.0,,,,51.0,,,,,0,note_on,,112.0,51.0,112.0,17088,44.5,192
636,9.0,,,,40.0,,,,,44,note_on,,0.0,40.0,0.0,17132,44.61458333333333,192
637,9.0,,,,42.0,,,,,0,note_on,,0.0,42.0,0.0,17132,44.61458333333333,192
638,9.0,,,,51.0,,,,,0,note_on,,0.0,51.0,0.0,17132,44.61458333333333,192
639,9.0,,,,35.0,,,,,0,note_on,,0.0,35.0,0.0,17132,44.61458333333333,192
640,9.0,,,,42.0,,,,,52,note_on,,88.0,42.0,88.0,17184,44.75,192
641,9.0,,,,42.0,,,,,44,note_on,,0.0,42.0,0.0,17228,44.86458333333333,192
642,9.0,,,,42.0,,,,,52,note_on,,88.0,42.0,88.0,17280,45.0,192
643,9.0,,,,35.0,,,,,0,note_on,,112.0,35.0,112.0,17280,45.0,192
644,9.0,,,,35.0,,,,,44,note_on,,0.0,35.0,0.0,17324,45.11458333333333,192
645,9.0,,,,42.0,,,,,0,note_on,,0.0,42.0,0.0,17324,45.11458333333333,192
646,9.0,,,,42.0,,,,,52,note_on,,88.0,42.0,88.0,17376,45.25,192
647,9.0,,,,35.0,,,,,0,note_on,,112.0,35.0,112.0,17376,45.25,192
648,9.0,,,,35.0,,,,,44,note_on,,0.0,35.0,0.0,17420,45.36458333333333,192
649,9.0,,,,42.0,,,,,0,note_on,,0.0,42.0,0.0,17420,45.36458333333333,192
650,9.0,,,,35.0,,,,,52,note_on,,112.0,35.0,112.0,17472,45.5,192
651,9.0,,,,51.0,,,,,0,note_on,,112.0,51.0,112.0,17472,45.5,192
652,9.0,,,,40.0,,,,,0,note_on,,112.0,40.0,112.0,17472,45.5,192
653,9.0,,,,42.0,,,,,0,note_on,,88.0,42.0,88.0,17472,45.5,192
654,9.0,,,,35.0,,,,,44,note_on,,0.0,35.0,0.0,17516,45.61458333333333,192
655,9.0,,,,51.0,,,,,0,note_on,,0.0,51.0,0.0,17516,45.61458333333333,192
656,9.0,,,,42.0,,,,,0,note_on,,0.0,42.0,0.0,17516,45.61458333333333,192
657,9.0,,,,40.0,,,,,0,note_on,,0.0,40.0,0.0,17516,45.61458333333333,192
658,9.0,,,,42.0,,,,,52,note_on,,88.0,42.0,88.0,17568,45.75,192
659,9.0,,,,51.0,,,,,0,note_on,,112.0,51.0,112.0,17568,45.75,192
660,9.0,,,,51.0,,,,,44,note_on,,0.0,51.0,0.0,17612,45.86458333333333,192
661,9.0,,,,42.0,,,,,0,note_on,,0.0,42.0,0.0,17612,45.86458333333333,192
662,9.0,,,,35.0,,,,,4,note_on,,112.0,35.0,112.0,17616,45.875,192
663,9.0,,,,35.0,,,,,44,note_on,,0.0,35.0,0.0,17660,45.98958333333333,192
664,9.0,,,,42.0,,,,,4,note_on,,88.0,42.0,88.0,17664,46.0,192
665,9.0,,,,35.0,,,,,0,note_on,,112.0,35.0,112.0,17664,46.0,192
666,9.0,,,,42.0,,,,,44,note_on,,0.0,42.0,0.0,17708,46.11458333333333,192
667,9.0,,,,35.0,,,,,0,note_on,,0.0,35.0,0.0,17708,46.11458333333333,192
668,9.0,,,,42.0,,,,,52,note_on,,88.0,42.0,88.0,17760,46.25,192
669,9.0,,,,35.0,,,,,0,note_on,,112.0,35.0,112.0,17760,46.25,192
670,9.0,,,,42.0,,,,,44,note_on,,0.0,42.0,0.0,17804,46.36458333333333,192
671,9.0,,,,35.0,,,,,0,note_on,,0.0,35.0,0.0,17804,46.36458333333333,192
672,9.0,,,,40.0,,,,,52,note_on,,112.0,40.0,112.0,17856,46.5,192
673,9.0,,,,51.0,,,,,0,note_on,,112.0,51.0,112.0,17856,46.5,192
674,9.0,,,,42.0,,,,,0,note_on,,88.0,42.0,88.0,17856,46.5,192
675,9.0,,,,35.0,,,,,0,note_on,,112.0,35.0,112.0,17856,46.5,192
676,9.0,,,,51.0,,,,,44,note_on,,0.0,51.0,0.0,17900,46.61458333333333,192
677,9.0,,,,40.0,,,,,0,note_on,,0.0,40.0,0.0,17900,46.61458333333333,192
678,9.0,,,,35.0,,,,,0,note_on,,0.0,35.0,0.0,17900,46.61458333333333,192
679,9.0,,,,42.0,,,,,0,note_on,,0.0,42.0,0.0,17900,46.61458333333333,192
680,9.0,,,,42.0,,,,,52,note_on,,88.0,42.0,88.0,17952,46.75,192
681,9.0,,,,42.0,,,,,44,note_on,,0.0,42.0,0.0,17996,46.86458333333333,192
682,9.0,,,,42.0,,,,,52,note_on,,88.0,42.0,88.0,18048,47.0,192
683,9.0,,,,35.0,,,,,0,note_on,,112.0,35.0,112.0,18048,47.0,192
684,9.0,,,,35.0,,,,,44,note_on,,0.0,35.0,0.0,18092,47.11458333333333,192
685,9.0,,,,42.0,,,,,0,note_on,,0.0,42.0,0.0,18092,47.11458333333333,192
686,9.0,,,,35.0,,,,,52,note_on,,112.0,35.0,112.0,18144,47.25,192
687,9.0,,,,42.0,,,,,0,note_on,,88.0,42.0,88.0,18144,47.25,192
688,9.0,,,,35.0,,,,,44,note_on,,0.0,35.0,0.0,18188,47.36458333333333,192
689,9.0,,,,42.0,,,,,0,note_on,,0.0,42.0,0.0,18188,47.36458333333333,192
690,9.0,,,,42.0,,,,,52,note_on,,88.0,42.0,88.0,18240,47.5,192
691,9.0,,,,40.0,,,,,0,note_on,,112.0,40.0,112.0,18240,47.5,192
692,9.0,,,,35.0,,,,,0,note_on,,112.0,35.0,112.0,18240,47.5,192
693,9.0,,,,51.0,,,,,0,note_on,,112.0,51.0,112.0,18240,47.5,192
694,9.0,,,,42.0,,,,,44,note_on,,0.0,42.0,0.0,18284,47.61458333333333,192
695,9.0,,,,40.0,,,,,0,note_on,,0.0,40.0,0.0,18284,47.61458333333333,192
696,9.0,,,,35.0,,,,,0,note_on,,0.0,35.0,0.0,18284,47.61458333333333,192
697,9.0,,,,51.0,,,,,0,note_on,,0.0,51.0,0.0,18284,47.61458333333333,192
698,9.0,,,,51.0,,,,,52,note_on,,112.0,51.0,112.0,18336,47.75,192
699,9.0,,,,42.0,,,,,0,note_on,,88.0,42.0,88.0,18336,47.75,192
700,9.0,,,,51.0,,,,,44,note_on,,0.0,51.0,0.0,18380,47.86458333333333,192
701,9.0,,,,42.0,,,,,0,note_on,,0.0,42.0,0.0,18380,47.86458333333333,192
702,9.0,,,,35.0,,,,,4,note_on,,112.0,35.0,112.0,18384,47.875,192
703,9.0,,,,35.0,,,,,44,note_on,,0.0,35.0,0.0,18428,47.98958333333333,192
704,9.0,,,,42.0,,,,,4,note_on,,88.0,42.0,88.0,18432,48.0,192
705,9.0,,,,35.0,,,,,0,note_on,,112.0,35.0,112.0,18432,48.0,192
706,9.0,,,,42.0,,,,,44,note_on,,0.0,42.0,0.0,18476,48.11458333333333,192
707,9.0,,,,35.0,,,,,0,note_on,,0.0,35.0,0.0,18476,48.11458333333333,192
708,9.0,,,,42.0,,,,,52,note_on,,88.0,42.0,88.0,18528,48.25,192
709,9.0,,,,35.0,,,,,0,note_on,,112.0,35.0,112.0,18528,48.25,192
710,9.0,,,,35.0,,,,,44,note_on,,0.0,35.0,0.0,18572,48.36458333333333,192
711,9.0,,,,42.0,,,,,0,note_on,,0.0,42.0,0.0,18572,48.36458333333333,192
712,9.0,,,,42.0,,,,,52,note_on,,88.0,42.0,88.0,18624,48.5,192
713,9.0,,,,40.0,,,,,0,note_on,,112.0,40.0,112.0,18624,48.5,192
714,9.0,,,,35.0,,,,,0,note_on,,112.0,35.0,112.0,18624,48.5,192
715,9.0,,,,51.0,,,,,0,note_on,,112.0,51.0,112.0,18624,48.5,192
716,9.0,,,,35.0,,,,,44,note_on,,0.0,35.0,0.0,18668,48.61458333333333,192
717,9.0,,,,42.0,,,,,0,note_on,,0.0,42.0,0.0,18668,48.61458333333333,192
718,9.0,,,,51.0,,,,,0,note_on,,0.0,51.0,0.0,18668,48.61458333333333,192
719,9.0,,,,40.0,,,,,0,note_on,,0.0,40.0,0.0,18668,48.61458333333333,192
720,9.0,,,,42.0,,,,,52,note_on,,88.0,42.0,88.0,18720,48.75,192
721,9.0,,,,42.0,,,,,44,note_on,,0.0,42.0,0.0,18764,48.86458333333333,192
722,9.0,,,,40.0,,,,,52,note_on,,112.0,40.0,112.0,18816,49.0,192
723,9.0,,,,40.0,,,,,44,note_on,,0.0,40.0,0.0,18860,49.11458333333333,192
724,9.0,,,,48.0,,,,,4,note_on,,112.0,48.0,112.0,18864,49.125,192
725,9.0,,,,48.0,,,,,44,note_on,,0.0,48.0,0.0,18908,49.23958333333333,192
726,9.0,,,,40.0,,,,,52,note_on,,112.0,40.0,112.0,18960,49.375,192
727,9.0,,,,40.0,,,,,44,note_on,,0.0,40.0,0.0,19004,49.48958333333333,192
728,9.0,,,,40.0,,,,,4,note_on,,112.0,40.0,112.0,19008,49.5,192
729,9.0,,,,40.0,,,,,44,note_on,,0.0,40.0,0.0,19052,49.61458333333333,192
730,9.0,,,,36.0,,,,,52,note_on,,112.0,36.0,112.0,19104,49.75,192
731,9.0,,,,36.0,,,,,44,note_on,,0.0,36.0,0.0,19148,49.86458333333333,192
732,9.0,,,,42.0,,,,,52,note_on,,88.0,42.0,88.0,19200,50.0,192
733,9.0,,,,49.0,,,,,0,note_on,,112.0,49.0,112.0,19200,50.0,192
734,9.0,,,,35.0,,,,,0,note_on,,112.0,35.0,112.0,19200,50.0,192
735,9.0,,,,35.0,,,,,44,note_on,,0.0,35.0,0.0,19244,50.11458333333333,192
736,9.0,,,,49.0,,,,,0,note_on,,0.0,49.0,0.0,19244,50.11458333333333,192
737,9.0,,,,42.0,,,,,0,note_on,,0.0,42.0,0.0,19244,50.11458333333333,192
738,9.0,,,,42.0,,,,,52,note_on,,88.0,42.0,88.0,19296,50.25,192
739,9.0,,,,35.0,,,,,0,note_on,,112.0,35.0,112.0,19296,50.25,192
740,9.0,,,,42.0,,,,,44,note_on,,0.0,42.0,0.0,19340,50.36458333333333,192
741,9.0,,,,35.0,,,,,0,note_on,,0.0,35.0,0.0,19340,50.36458333333333,192
742,9.0,,,,51.0,,,,,52,note_on,,112.0,51.0,112.0,19392,50.5,192
743,9.0,,,,40.0,,,,,0,note_on,,112.0,40.0,112.0,19392,50.5,192
744,9.0,,,,35.0,,,,,0,note_on,,112.0,35.0,112.0,19392,50.5,192
745,9.0,,,,42.0,,,,,0,note_on,,88.0,42.0,88.0,19392,50.5,192
746,9.0,,,,35.0,,,,,44,note_on,,0.0,35.0,0.0,19436,50.61458333333333,192
747,9.0,,,,51.0,,,,,0,note_on,,0.0,51.0,0.0,19436,50.61458333333333,192
748,9.0,,,,42.0,,,,,0,note_on,,0.0,42.0,0.0,19436,50.61458333333333,192
749,9.0,,,,40.0,,,,,0,note_on,,0.0,40.0,0.0,19436,50.61458333333333,192
750,9.0,,,,42.0,,,,,52,note_on,,88.0,42.0,88.0,19488,50.75,192
751,9.0,,,,42.0,,,,,44,note_on,,0.0,42.0,0.0,19532,50.86458333333333,192
752,9.0,,,,42.0,,,,,52,note_on,,88.0,42.0,88.0,19584,51.0,192
753,9.0,,,,35.0,,,,,0,note_on,,112.0,35.0,112.0,19584,51.0,192
754,9.0,,,,35.0,,,,,44,note_on,,0.0,35.0,0.0,19628,51.11458333333333,192
755,9.0,,,,42.0,,,,,0,note_on,,0.0,42.0,0.0,19628,51.11458333333333,192
756,9.0,,,,42.0,,,,,52,note_on,,88.0,42.0,88.0,19680,51.25,192
757,9.0,,,,35.0,,,,,0,note_on,,112.0,35.0,112.0,19680,51.25,192
758,9.0,,,,42.0,,,,,44,note_on,,0.0,42.0,0.0,19724,51.36458333333333,192
759,9.0,,,,35.0,,,,,0,note_on,,0.0,35.0,0.0,19724,51.36458333333333,192
760,9.0,,,,42.0,,,,,52,note_on,,88.0,42.0,88.0,19776,51.5,192
761,9.0,,,,51.0,,,,,0,note_on,,112.0,51.0,112.0,19776,51.5,192
762,9.0,,,,40.0,,,,,0,note_on,,112.0,40.0,112.0,19776,51.5,192
763,9.0,,,,35.0,,,,,0,note_on,,112.0,35.0,112.0,19776,51.5,192
764,9.0,,,,35.0,,,,,44,note_on,,0.0,35.0,0.0,19820,51.61458333333333,192
765,9.0,,,,40.0,,,,,0,note_on,,0.0,40.0,0.0,19820,51.61458333333333,192
766,9.0,,,,51.0,,,,,0,note_on,,0.0,51.0,0.0,19820,51.61458333333333,192
767,9.0,,,,42.0,,,,,0,note_on,,0.0,42.0,0.0,19820,51.61458333333333,192
768,9.0,,,,42.0,,,,,52,note_on,,88.0,42.0,88.0,19872,51.75,192
769,9.0,,,,51.0,,,,,0,note_on,,112.0,51.0,112.0,19872,51.75,192
770,9.0,,,,51.0,,,,,44,note_on,,0.0,51.0,0.0,19916,51.86458333333333,192
771,9.0,,,,42.0,,,,,0,note_on,,0.0,42.0,0.0,19916,51.86458333333333,192
772,9.0,,,,35.0,,,,,4,note_on,,112.0,35.0,112.0,19920,51.875,192
773,9.0,,,,35.0,,,,,44,note_on,,0.0,35.0,0.0,19964,51.98958333333333,192
774,9.0,,,,42.0,,,,,4,note_on,,88.0,42.0,88.0,19968,52.0,192
775,9.0,,,,35.0,,,,,0,note_on,,112.0,35.0,112.0,19968,52.0,192
776,9.0,,,,42.0,,,,,44,note_on,,0.0,42.0,0.0,20012,52.11458333333333,192
777,9.0,,,,35.0,,,,,0,note_on,,0.0,35.0,0.0,20012,52.11458333333333,192
778,9.0,,,,35.0,,,,,52,note_on,,112.0,35.0,112.0,20064,52.25,192
779,9.0,,,,42.0,,,,,0,note_on,,88.0,42.0,88.0,20064,52.25,192
780,9.0,,,,42.0,,,,,44,note_on,,0.0,42.0,0.0,20108,52.36458333333333,192
781,9.0,,,,35.0,,,,,0,note_on,,0.0,35.0,0.0,20108,52.36458333333333,192
782,9.0,,,,35.0,,,,,52,note_on,,112.0,35.0,112.0,20160,52.5,192
783,9.0,,,,42.0,,,,,0,note_on,,88.0,42.0,88.0,20160,52.5,192
784,9.0,,,,40.0,,,,,0,note_on,,112.0,40.0,112.0,20160,52.5,192
785,9.0,,,,51.0,,,,,0,note_on,,112.0,51.0,112.0,20160,52.5,192
786,9.0,,,,40.0,,,,,44,note_on,,0.0,40.0,0.0,20204,52.61458333333333,192
787,9.0,,,,51.0,,,,,0,note_on,,0.0,51.0,0.0,20204,52.61458333333333,192
788,9.0,,,,35.0,,,,,0,note_on,,0.0,35.0,0.0,20204,52.61458333333333,192
789,9.0,,,,42.0,,,,,0,note_on,,0.0,42.0,0.0,20204,52.61458333333333,192
790,9.0,,,,42.0,,,,,52,note_on,,88.0,42.0,88.0,20256,52.75,192
791,9.0,,,,42.0,,,,,44,note_on,,0.0,42.0,0.0,20300,52.86458333333333,192
792,9.0,,,,42.0,,,,,52,note_on,,88.0,42.0,88.0,20352,53.0,192
793,9.0,,,,35.0,,,,,0,note_on,,112.0,35.0,112.0,20352,53.0,192
794,9.0,,,,35.0,,,,,44,note_on,,0.0,35.0,0.0,20396,53.11458333333333,192
795,9.0,,,,42.0,,,,,0,note_on,,0.0,42.0,0.0,20396,53.11458333333333,192
796,9.0,,,,35.0,,,,,52,note_on,,112.0,35.0,112.0,20448,53.25,192
797,9.0,,,,42.0,,,,,0,note_on,,88.0,42.0,88.0,20448,53.25,192
798,9.0,,,,42.0,,,,,44,note_on,,0.0,42.0,0.0,20492,53.36458333333333,192
799,9.0,,,,35.0,,,,,0,note_on,,0.0,35.0,0.0,20492,53.36458333333333,192
800,9.0,,,,42.0,,,,,52,note_on,,88.0,42.0,88.0,20544,53.5,192
801,9.0,,,,51.0,,,,,0,note_on,,112.0,51.0,112.0,20544,53.5,192
802,9.0,,,,35.0,,,,,0,note_on,,112.0,35.0,112.0,20544,53.5,192
803,9.0,,,,40.0,,,,,0,note_on,,112.0,40.0,112.0,20544,53.5,192
804,9.0,,,,40.0,,,,,44,note_on,,0.0,40.0,0.0,20588,53.61458333333333,192
805,9.0,,,,42.0,,,,,0,note_on,,0.0,42.0,0.0,20588,53.61458333333333,192
806,9.0,,,,51.0,,,,,0,note_on,,0.0,51.0,0.0,20588,53.61458333333333,192
807,9.0,,,,35.0,,,,,0,note_on,,0.0,35.0,0.0,20588,53.61458333333333,192
808,9.0,,,,42.0,,,,,52,note_on,,88.0,42.0,88.0,20640,53.75,192
809,9.0,,,,51.0,,,,,0,note_on,,112.0,51.0,112.0,20640,53.75,192
810,9.0,,,,51.0,,,,,44,note_on,,0.0,51.0,0.0,20684,53.86458333333333,192
811,9.0,,,,42.0,,,,,0,note_on,,0.0,42.0,0.0,20684,53.86458333333333,192
812,9.0,,,,35.0,,,,,4,note_on,,112.0,35.0,112.0,20688,53.875,192
813,9.0,,,,35.0,,,,,44,note_on,,0.0,35.0,0.0,20732,53.98958333333333,192
814,9.0,,,,42.0,,,,,4,note_on,,88.0,42.0,88.0,20736,54.0,192
815,9.0,,,,35.0,,,,,0,note_on,,112.0,35.0,112.0,20736,54.0,192
816,9.0,,,,35.0,,,,,44,note_on,,0.0,35.0,0.0,20780,54.11458333333333,192
817,9.0,,,,42.0,,,,,0,note_on,,0.0,42.0,0.0,20780,54.11458333333333,192
818,9.0,,,,42.0,,,,,52,note_on,,88.0,42.0,88.0,20832,54.25,192
819,9.0,,,,35.0,,,,,0,note_on,,112.0,35.0,112.0,20832,54.25,192
820,9.0,,,,42.0,,,,,44,note_on,,0.0,42.0,0.0,20876,54.36458333333333,192
821,9.0,,,,35.0,,,,,0,note_on,,0.0,35.0,0.0,20876,54.36458333333333,192
822,9.0,,,,40.0,,,,,52,note_on,,112.0,40.0,112.0,20928,54.5,192
823,9.0,,,,35.0,,,,,0,note_on,,112.0,35.0,112.0,20928,54.5,192
824,9.0,,,,42.0,,,,,0,note_on,,88.0,42.0,88.0,20928,54.5,192
825,9.0,,,,51.0,,,,,0,note_on,,112.0,51.0,112.0,20928,54.5,192
826,9.0,,,,42.0,,,,,44,note_on,,0.0,42.0,0.0,20972,54.61458333333333,192
827,9.0,,,,40.0,,,,,0,note_on,,0.0,40.0,0.0,20972,54.61458333333333,192
828,9.0,,,,35.0,,,,,0,note_on,,0.0,35.0,0.0,20972,54.61458333333333,192
829,9.0,,,,51.0,,,,,0,note_on,,0.0,51.0,0.0,20972,54.61458333333333,192
830,9.0,,,,42.0,,,,,52,note_on,,88.0,42.0,88.0,21024,54.75,192
831,9.0,,,,42.0,,,,,44,note_on,,0.0,42.0,0.0,21068,54.86458333333333,192
832,9.0,,,,42.0,,,,,52,note_on,,88.0,42.0,88.0,21120,55.0,192
833,9.0,,,,35.0,,,,,0,note_on,,112.0,35.0,112.0,21120,55.0,192
834,9.0,,,,42.0,,,,,44,note_on,,0.0,42.0,0.0,21164,55.11458333333333,192
835,9.0,,,,35.0,,,,,0,note_on,,0.0,35.0,0.0,21164,55.11458333333333,192
836,9.0,,,,35.0,,,,,52,note_on,,112.0,35.0,112.0,21216,55.25,192
837,9.0,,,,42.0,,,,,0,note_on,,88.0,42.0,88.0,21216,55.25,192
838,9.0,,,,42.0,,,,,44,note_on,,0.0,42.0,0.0,21260,55.36458333333333,192
839,9.0,,,,35.0,,,,,0,note_on,,0.0,35.0,0.0,21260,55.36458333333333,192
840,9.0,,,,35.0,,,,,52,note_on,,112.0,35.0,112.0,21312,55.5,192
841,9.0,,,,40.0,,,,,0,note_on,,112.0,40.0,112.0,21312,55.5,192
842,9.0,,,,42.0,,,,,0,note_on,,88.0,42.0,88.0,21312,55.5,192
843,9.0,,,,51.0,,,,,0,note_on,,112.0,51.0,112.0,21312,55.5,192
844,9.0,,,,51.0,,,,,44,note_on,,0.0,51.0,0.0,21356,55.61458333333333,192
845,9.0,,,,42.0,,,,,0,note_on,,0.0,42.0,0.0,21356,55.61458333333333,192
846,9.0,,,,40.0,,,,,0,note_on,,0.0,40.0,0.0,21356,55.61458333333333,192
847,9.0,,,,35.0,,,,,0,note_on,,0.0,35.0,0.0,21356,55.61458333333333,192
848,9.0,,,,51.0,,,,,52,note_on,,112.0,51.0,112.0,21408,55.75,192
849,9.0,,,,42.0,,,,,0,note_on,,88.0,42.0,88.0,21408,55.75,192
850,9.0,,,,42.0,,,,,44,note_on,,0.0,42.0,0.0,21452,55.86458333333333,192
851,9.0,,,,51.0,,,,,0,note_on,,0.0,51.0,0.0,21452,55.86458333333333,192
852,9.0,,,,35.0,,,,,4,note_on,,112.0,35.0,112.0,21456,55.875,192
853,9.0,,,,35.0,,,,,44,note_on,,0.0,35.0,0.0,21500,55.98958333333333,192
854,9.0,,,,35.0,,,,,4,note_on,,112.0,35.0,112.0,21504,56.0,192
855,9.0,,,,42.0,,,,,0,note_on,,88.0,42.0,88.0,21504,56.0,192
856,9.0,,,,42.0,,,,,44,note_on,,0.0,42.0,0.0,21548,56.11458333333333,192
857,9.0,,,,35.0,,,,,0,note_on,,0.0,35.0,0.0,21548,56.11458333333333,192
858,9.0,,,,35.0,,,,,52,note_on,,112.0,35.0,112.0,21600,56.25,192
859,9.0,,,,42.0,,,,,0,note_on,,88.0,42.0,88.0,21600,56.25,192
860,9.0,,,,35.0,,,,,44,note_on,,0.0,35.0,0.0,21644,56.36458333333333,192
861,9.0,,,,42.0,,,,,0,note_on,,0.0,42.0,0.0,21644,56.36458333333333,192
862,9.0,,,,35.0,,,,,52,note_on,,112.0,35.0,112.0,21696,56.5,192
863,9.0,,,,51.0,,,,,0,note_on,,112.0,51.0,112.0,21696,56.5,192
864,9.0,,,,42.0,,,,,0,note_on,,88.0,42.0,88.0,21696,56.5,192
865,9.0,,,,40.0,,,,,0,note_on,,112.0,40.0,112.0,21696,56.5,192
866,9.0,,,,42.0,,,,,44,note_on,,0.0,42.0,0.0,21740,56.61458333333333,192
867,9.0,,,,51.0,,,,,0,note_on,,0.0,51.0,0.0,21740,56.61458333333333,192
868,9.0,,,,35.0,,,,,0,note_on,,0.0,35.0,0.0,21740,56.61458333333333,192
869,9.0,,,,40.0,,,,,0,note_on,,0.0,40.0,0.0,21740,56.61458333333333,192
870,9.0,,,,42.0,,,,,52,note_on,,88.0,42.0,88.0,21792,56.75,192
871,9.0,,,,42.0,,,,,44,note_on,,0.0,42.0,0.0,21836,56.86458333333333,192
872,9.0,,,,42.0,,,,,52,note_on,,88.0,42.0,88.0,21888,57.0,192
873,9.0,,,,35.0,,,,,0,note_on,,112.0,35.0,112.0,21888,57.0,192
874,9.0,,,,42.0,,,,,44,note_on,,0.0,42.0,0.0,21932,57.11458333333333,192
875,9.0,,,,35.0,,,,,0,note_on,,0.0,35.0,0.0,21932,57.11458333333333,192
876,9.0,,,,35.0,,,,,52,note_on,,112.0,35.0,112.0,21984,57.25,192
877,9.0,,,,42.0,,,,,0,note_on,,88.0,42.0,88.0,21984,57.25,192
878,9.0,,,,35.0,,,,,44,note_on,,0.0,35.0,0.0,22028,57.36458333333333,192
879,9.0,,,,42.0,,,,,0,note_on,,0.0,42.0,0.0,22028,57.36458333333333,192
880,9.0,,,,42.0,,,,,52,note_on,,88.0,42.0,88.0,22080,57.5,192
881,9.0,,,,40.0,,,,,0,note_on,,112.0,40.0,112.0,22080,57.5,192
882,9.0,,,,51.0,,,,,0,note_on,,112.0,51.0,112.0,22080,57.5,192
883,9.0,,,,35.0,,,,,0,note_on,,112.0,35.0,112.0,22080,57.5,192
884,9.0,,,,35.0,,,,,44,note_on,,0.0,35.0,0.0,22124,57.61458333333333,192
885,9.0,,,,42.0,,,,,0,note_on,,0.0,42.0,0.0,22124,57.61458333333333,192
886,9.0,,,,40.0,,,,,0,note_on,,0.0,40.0,0.0,22124,57.61458333333333,192
887,9.0,,,,51.0,,,,,0,note_on,,0.0,51.0,0.0,22124,57.61458333333333,192
888,9.0,,,,51.0,,,,,52,note_on,,112.0,51.0,112.0,22176,57.75,192
889,9.0,,,,42.0,,,,,0,note_on,,88.0,42.0,88.0,22176,57.75,192
890,9.0,,,,51.0,,,,,44,note_on,,0.0,51.0,0.0,22220,57.86458333333333,192
891,9.0,,,,42.0,,,,,0,note_on,,0.0,42.0,0.0,22220,57.86458333333333,192
892,9.0,,,,35.0,,,,,4,note_on,,112.0,35.0,112.0,22224,57.875,192
893,9.0,,,,35.0,,,,,44,note_on,,0.0,35.0,0.0,22268,57.98958333333333,192
894,9.0,,,,35.0,,,,,4,note_on,,112.0,35.0,112.0,22272,58.0,192
895,9.0,,,,42.0,,,,,0,note_on,,88.0,42.0,88.0,22272,58.0,192
896,9.0,,,,35.0,,,,,44,note_on,,0.0,35.0,0.0,22316,58.11458333333333,192
897,9.0,,,,42.0,,,,,0,note_on,,0.0,42.0,0.0,22316,58.11458333333333,192
898,9.0,,,,42.0,,,,,52,note_on,,88.0,42.0,88.0,22368,58.25,192
899,9.0,,,,35.0,,,,,0,note_on,,112.0,35.0,112.0,22368,58.25,192
900,9.0,,,,42.0,,,,,44,note_on,,0.0,42.0,0.0,22412,58.36458333333333,192
901,9.0,,,,35.0,,,,,0,note_on,,0.0,35.0,0.0,22412,58.36458333333333,192
902,9.0,,,,51.0,,,,,52,note_on,,112.0,51.0,112.0,22464,58.5,192
903,9.0,,,,42.0,,,,,0,note_on,,88.0,42.0,88.0,22464,58.5,192
904,9.0,,,,35.0,,,,,0,note_on,,112.0,35.0,112.0,22464,58.5,192
905,9.0,,,,40.0,,,,,0,note_on,,112.0,40.0,112.0,22464,58.5,192
906,9.0,,,,51.0,,,,,44,note_on,,0.0,51.0,0.0,22508,58.61458333333333,192
907,9.0,,,,42.0,,,,,0,note_on,,0.0,42.0,0.0,22508,58.61458333333333,192
908,9.0,,,,40.0,,,,,0,note_on,,0.0,40.0,0.0,22508,58.61458333333333,192
909,9.0,,,,35.0,,,,,0,note_on,,0.0,35.0,0.0,22508,58.61458333333333,192
910,9.0,,,,42.0,,,,,52,note_on,,88.0,42.0,88.0,22560,58.75,192
911,9.0,,,,42.0,,,,,44,note_on,,0.0,42.0,0.0,22604,58.86458333333333,192
912,9.0,,,,35.0,,,,,52,note_on,,112.0,35.0,112.0,22656,59.0,192
913,9.0,,,,42.0,,,,,0,note_on,,88.0,42.0,88.0,22656,59.0,192
914,9.0,,,,35.0,,,,,44,note_on,,0.0,35.0,0.0,22700,59.11458333333333,192
915,9.0,,,,42.0,,,,,0,note_on,,0.0,42.0,0.0,22700,59.11458333333333,192
916,9.0,,,,42.0,,,,,52,note_on,,88.0,42.0,88.0,22752,59.25,192
917,9.0,,,,35.0,,,,,0,note_on,,112.0,35.0,112.0,22752,59.25,192
918,9.0,,,,42.0,,,,,44,note_on,,0.0,42.0,0.0,22796,59.36458333333333,192
919,9.0,,,,35.0,,,,,0,note_on,,0.0,35.0,0.0,22796,59.36458333333333,192
920,9.0,,,,42.0,,,,,52,note_on,,88.0,42.0,88.0,22848,59.5,192
921,9.0,,,,35.0,,,,,0,note_on,,112.0,35.0,112.0,22848,59.5,192
922,9.0,,,,40.0,,,,,0,note_on,,112.0,40.0,112.0,22848,59.5,192
923,9.0,,,,51.0,,,,,0,note_on,,112.0,51.0,112.0,22848,59.5,192
924,9.0,,,,35.0,,,,,44,note_on,,0.0,35.0,0.0,22892,59.61458333333333,192
925,9.0,,,,51.0,,,,,0,note_on,,0.0,51.0,0.0,22892,59.61458333333333,192
926,9.0,,,,40.0,,,,,0,note_on,,0.0,40.0,0.0,22892,59.61458333333333,192
927,9.0,,,,42.0,,,,,0,note_on,,0.0,42.0,0.0,22892,59.61458333333333,192
928,9.0,,,,42.0,,,,,52,note_on,,88.0,42.0,88.0,22944,59.75,192
929,9.0,,,,51.0,,,,,0,note_on,,112.0,51.0,112.0,22944,59.75,192
930,9.0,,,,51.0,,,,,44,note_on,,0.0,51.0,0.0,22988,59.86458333333333,192
931,9.0,,,,42.0,,,,,0,note_on,,0.0,42.0,0.0,22988,59.86458333333333,192
932,9.0,,,,35.0,,,,,4,note_on,,112.0,35.0,112.0,22992,59.875,192
933,9.0,,,,35.0,,,,,44,note_on,,0.0,35.0,0.0,23036,59.98958333333333,192
934,9.0,,,,42.0,,,,,4,note_on,,88.0,42.0,88.0,23040,60.0,192
935,9.0,,,,35.0,,,,,0,note_on,,112.0,35.0,112.0,23040,60.0,192
936,9.0,,,,42.0,,,,,44,note_on,,0.0,42.0,0.0,23084,60.11458333333333,192
937,9.0,,,,35.0,,,,,0,note_on,,0.0,35.0,0.0,23084,60.11458333333333,192
938,9.0,,,,42.0,,,,,52,note_on,,88.0,42.0,88.0,23136,60.25,192
939,9.0,,,,35.0,,,,,0,note_on,,112.0,35.0,112.0,23136,60.25,192
940,9.0,,,,42.0,,,,,44,note_on,,0.0,42.0,0.0,23180,60.36458333333333,192
941,9.0,,,,35.0,,,,,0,note_on,,0.0,35.0,0.0,23180,60.36458333333333,192
942,9.0,,,,40.0,,,,,52,note_on,,112.0,40.0,112.0,23232,60.5,192
943,9.0,,,,35.0,,,,,0,note_on,,112.0,35.0,112.0,23232,60.5,192
944,9.0,,,,51.0,,,,,0,note_on,,112.0,51.0,112.0,23232,60.5,192
945,9.0,,,,42.0,,,,,0,note_on,,88.0,42.0,88.0,23232,60.5,192
946,9.0,,,,35.0,,,,,44,note_on,,0.0,35.0,0.0,23276,60.61458333333333,192
947,9.0,,,,51.0,,,,,0,note_on,,0.0,51.0,0.0,23276,60.61458333333333,192
948,9.0,,,,40.0,,,,,0,note_on,,0.0,40.0,0.0,23276,60.61458333333333,192
949,9.0,,,,42.0,,,,,0,note_on,,0.0,42.0,0.0,23276,60.61458333333333,192
950,9.0,,,,42.0,,,,,52,note_on,,88.0,42.0,88.0,23328,60.75,192
951,9.0,,,,42.0,,,,,44,note_on,,0.0,42.0,0.0,23372,60.86458333333333,192
952,9.0,,,,35.0,,,,,52,note_on,,112.0,35.0,112.0,23424,61.0,192
953,9.0,,,,42.0,,,,,0,note_on,,88.0,42.0,88.0,23424,61.0,192
954,9.0,,,,42.0,,,,,44,note_on,,0.0,42.0,0.0,23468,61.11458333333333,192
955,9.0,,,,35.0,,,,,0,note_on,,0.0,35.0,0.0,23468,61.11458333333333,192
956,9.0,,,,35.0,,,,,52,note_on,,112.0,35.0,112.0,23520,61.25,192
957,9.0,,,,42.0,,,,,0,note_on,,88.0,42.0,88.0,23520,61.25,192
958,9.0,,,,42.0,,,,,44,note_on,,0.0,42.0,0.0,23564,61.36458333333333,192
959,9.0,,,,35.0,,,,,0,note_on,,0.0,35.0,0.0,23564,61.36458333333333,192
960,9.0,,,,40.0,,,,,52,note_on,,112.0,40.0,112.0,23616,61.5,192
961,9.0,,,,42.0,,,,,0,note_on,,88.0,42.0,88.0,23616,61.5,192
962,9.0,,,,51.0,,,,,0,note_on,,112.0,51.0,112.0,23616,61.5,192
963,9.0,,,,35.0,,,,,0,note_on,,112.0,35.0,112.0,23616,61.5,192
964,9.0,,,,35.0,,,,,44,note_on,,0.0,35.0,0.0,23660,61.61458333333333,192
965,9.0,,,,40.0,,,,,0,note_on,,0.0,40.0,0.0,23660,61.61458333333333,192
966,9.0,,,,51.0,,,,,0,note_on,,0.0,51.0,0.0,23660,61.61458333333333,192
967,9.0,,,,42.0,,,,,0,note_on,,0.0,42.0,0.0,23660,61.61458333333333,192
968,9.0,,,,51.0,,,,,52,note_on,,112.0,51.0,112.0,23712,61.75,192
969,9.0,,,,42.0,,,,,0,note_on,,88.0,42.0,88.0,23712,61.75,192
970,9.0,,,,51.0,,,,,44,note_on,,0.0,51.0,0.0,23756,61.86458333333333,192
971,9.0,,,,42.0,,,,,0,note_on,,0.0,42.0,0.0,23756,61.86458333333333,192
972,9.0,,,,35.0,,,,,4,note_on,,112.0,35.0,112.0,23760,61.875,192
973,9.0,,,,35.0,,,,,44,note_on,,0.0,35.0,0.0,23804,61.98958333333333,192
974,9.0,,,,35.0,,,,,4,note_on,,112.0,35.0,112.0,23808,62.0,192
975,9.0,,,,42.0,,,,,0,note_on,,88.0,42.0,88.0,23808,62.0,192
976,9.0,,,,35.0,,,,,44,note_on,,0.0,35.0,0.0,23852,62.11458333333333,192
977,9.0,,,,42.0,,,,,0,note_on,,0.0,42.0,0.0,23852,62.11458333333333,192
978,9.0,,,,35.0,,,,,52,note_on,,112.0,35.0,112.0,23904,62.25,192
979,9.0,,,,42.0,,,,,0,note_on,,88.0,42.0,88.0,23904,62.25,192
980,9.0,,,,35.0,,,,,44,note_on,,0.0,35.0,0.0,23948,62.36458333333333,192
981,9.0,,,,42.0,,,,,0,note_on,,0.0,42.0,0.0,23948,62.36458333333333,192
982,9.0,,,,51.0,,,,,52,note_on,,112.0,51.0,112.0,24000,62.5,192
983,9.0,,,,35.0,,,,,0,note_on,,112.0,35.0,112.0,24000,62.5,192
984,9.0,,,,40.0,,,,,0,note_on,,112.0,40.0,112.0,24000,62.5,192
985,9.0,,,,42.0,,,,,0,note_on,,88.0,42.0,88.0,24000,62.5,192
986,9.0,,,,40.0,,,,,44,note_on,,0.0,40.0,0.0,24044,62.61458333333333,192
987,9.0,,,,51.0,,,,,0,note_on,,0.0,51.0,0.0,24044,62.61458333333333,192
988,9.0,,,,35.0,,,,,0,note_on,,0.0,35.0,0.0,24044,62.61458333333333,192
989,9.0,,,,42.0,,,,,0,note_on,,0.0,42.0,0.0,24044,62.61458333333333,192
990,9.0,,,,42.0,,,,,52,note_on,,88.0,42.0,88.0,24096,62.75,192
991,9.0,,,,42.0,,,,,44,note_on,,0.0,42.0,0.0,24140,62.86458333333333,192
992,9.0,,,,35.0,,,,,52,note_on,,112.0,35.0,112.0,24192,63.0,192
993,9.0,,,,42.0,,,,,0,note_on,,88.0,42.0,88.0,24192,63.0,192
994,9.0,,,,42.0,,,,,44,note_on,,0.0,42.0,0.0,24236,63.11458333333333,192
995,9.0,,,,35.0,,,,,0,note_on,,0.0,35.0,0.0,24236,63.11458333333333,192
996,9.0,,,,42.0,,,,,52,note_on,,88.0,42.0,88.0,24288,63.25,192
997,9.0,,,,35.0,,,,,0,note_on,,112.0,35.0,112.0,24288,63.25,192
998,9.0,,,,42.0,,,,,44,note_on,,0.0,42.0,0.0,24332,63.36458333333333,192
999,9.0,,,,35.0,,,,,0,note_on,,0.0,35.0,0.0,24332,63.36458333333333,192
1000,9.0,,,,40.0,,,,,52,note_on,,112.0,40.0,112.0,24384,63.5,192
1001,9.0,,,,35.0,,,,,0,note_on,,112.0,35.0,112.0,24384,63.5,192
1002,9.0,,,,51.0,,,,,0,note_on,,112.0,51.0,112.0,24384,63.5,192
1003,9.0,,,,42.0,,,,,0,note_on,,88.0,42.0,88.0,24384,63.5,192
1004,9.0,,,,42.0,,,,,44,note_on,,0.0,42.0,0.0,24428,63.61458333333333,192
1005,9.0,,,,51.0,,,,,0,note_on,,0.0,51.0,0.0,24428,63.61458333333333,192
1006,9.0,,,,35.0,,,,,0,note_on,,0.0,35.0,0.0,24428,63.61458333333333,192
1007,9.0,,,,40.0,,,,,0,note_on,,0.0,40.0,0.0,24428,63.61458333333333,192
1008,9.0,,,,42.0,,,,,52,note_on,,88.0,42.0,88.0,24480,63.75,192
1009,9.0,,,,51.0,,,,,0,note_on,,112.0,51.0,112.0,24480,63.75,192
1010,9.0,,,,42.0,,,,,44,note_on,,0.0,42.0,0.0,24524,63.86458333333333,192
1011,9.0,,,,51.0,,,,,0,note_on,,0.0,51.0,0.0,24524,63.86458333333333,192
1012,9.0,,,,35.0,,,,,4,note_on,,112.0,35.0,112.0,24528,63.875,192
1013,9.0,,,,35.0,,,,,44,note_on,,0.0,35.0,0.0,24572,63.98958333333333,192
1014,9.0,,,,35.0,,,,,4,note_on,,112.0,35.0,112.0,24576,64.0,192
1015,9.0,,,,42.0,,,,,0,note_on,,88.0,42.0,88.0,24576,64.0,192
1016,9.0,,,,35.0,,,,,44,note_on,,0.0,35.0,0.0,24620,64.11458333333333,192
1017,9.0,,,,42.0,,,,,0,note_on,,0.0,42.0,0.0,24620,64.11458333333333,192
1018,9.0,,,,35.0,,,,,52,note_on,,112.0,35.0,112.0,24672,64.25,192
1019,9.0,,,,42.0,,,,,0,note_on,,88.0,42.0,88.0,24672,64.25,192
1020,9.0,,,,42.0,,,,,44,note_on,,0.0,42.0,0.0,24716,64.36458333333333,192
1021,9.0,,,,35.0,,,,,0,note_on,,0.0,35.0,0.0,24716,64.36458333333333,192
1022,9.0,,,,42.0,,,,,52,note_on,,88.0,42.0,88.0,24768,64.5,192
1023,9.0,,,,35.0,,,,,0,note_on,,112.0,35.0,112.0,24768,64.5,192
1024,9.0,,,,40.0,,,,,0,note_on,,112.0,40.0,112.0,24768,64.5,192
1025,9.0,,,,51.0,,,,,0,note_on,,112.0,51.0,112.0,24768,64.5,192
1026,9.0,,,,40.0,,,,,44,note_on,,0.0,40.0,0.0,24812,64.61458333333333,192
1027,9.0,,,,51.0,,,,,0,note_on,,0.0,51.0,0.0,24812,64.61458333333333,192
1028,9.0,,,,42.0,,,,,0,note_on,,0.0,42.0,0.0,24812,64.61458333333333,192
1029,9.0,,,,35.0,,,,,0,note_on,,0.0,35.0,0.0,24812,64.61458333333333,192
1030,9.0,,,,42.0,,,,,52,note_on,,88.0,42.0,88.0,24864,64.75,192
1031,9.0,,,,42.0,,,,,44,note_on,,0.0,42.0,0.0,24908,64.86458333333333,192
1032,9.0,,,,35.0,,,,,52,note_on,,112.0,35.0,112.0,24960,65.0,192
1033,9.0,,,,42.0,,,,,0,note_on,,88.0,42.0,88.0,24960,65.0,192
1034,9.0,,,,42.0,,,,,44,note_on,,0.0,42.0,0.0,25004,65.11458333333333,192
1035,9.0,,,,35.0,,,,,0,note_on,,0.0,35.0,0.0,25004,65.11458333333333,192
1036,9.0,,,,35.0,,,,,52,note_on,,112.0,35.0,112.0,25056,65.25,192
1037,9.0,,,,42.0,,,,,0,note_on,,88.0,42.0,88.0,25056,65.25,192
1038,9.0,,,,42.0,,,,,44,note_on,,0.0,42.0,0.0,25100,65.36458333333333,192
1039,9.0,,,,35.0,,,,,0,note_on,,0.0,35.0,0.0,25100,65.36458333333333,192
1040,9.0,,,,42.0,,,,,52,note_on,,88.0,42.0,88.0,25152,65.5,192
1041,9.0,,,,40.0,,,,,0,note_on,,112.0,40.0,112.0,25152,65.5,192
1042,9.0,,,,51.0,,,,,0,note_on,,112.0,51.0,112.0,25152,65.5,192
1043,9.0,,,,35.0,,,,,0,note_on,,112.0,35.0,112.0,25152,65.5,192
1044,9.0,,,,42.0,,,,,44,note_on,,0.0,42.0,0.0,25196,65.61458333333333,192
1045,9.0,,,,35.0,,,,,0,note_on,,0.0,35.0,0.0,25196,65.61458333333333,192
1046,9.0,,,,51.0,,,,,0,note_on,,0.0,51.0,0.0,25196,65.61458333333333,192
1047,9.0,,,,40.0,,,,,0,note_on,,0.0,40.0,0.0,25196,65.61458333333333,192
1048,9.0,,,,42.0,,,,,52,note_on,,88.0,42.0,88.0,25248,65.75,192
1049,9.0,,,,51.0,,,,,0,note_on,,112.0,51.0,112.0,25248,65.75,192
1050,9.0,,,,42.0,,,,,44,note_on,,0.0,42.0,0.0,25292,65.86458333333333,192
1051,9.0,,,,51.0,,,,,0,note_on,,0.0,51.0,0.0,25292,65.86458333333333,192
1052,9.0,,,,35.0,,,,,4,note_on,,112.0,35.0,112.0,25296,65.875,192
1053,9.0,,,,35.0,,,,,44,note_on,,0.0,35.0,0.0,25340,65.98958333333333,192
1054,9.0,,,,42.0,,,,,4,note_on,,88.0,42.0,88.0,25344,66.0,192
1055,9.0,,,,35.0,,,,,0,note_on,,112.0,35.0,112.0,25344,66.0,192
1056,9.0,,,,35.0,,,,,44,note_on,,0.0,35.0,0.0,25388,66.11458333333333,192
1057,9.0,,,,42.0,,,,,0,note_on,,0.0,42.0,0.0,25388,66.11458333333333,192
1058,9.0,,,,42.0,,,,,52,note_on,,88.0,42.0,88.0,25440,66.25,192
1059,9.0,,,,42.0,,,,,44,note_on,,0.0,42.0,0.0,25484,66.36458333333333,192
1060,9.0,,,,42.0,,,,,52,note_on,,88.0,42.0,88.0,25536,66.5,192
1061,9.0,,,,51.0,,,,,0,note_on,,112.0,51.0,112.0,25536,66.5,192
1062,9.0,,,,40.0,,,,,0,note_on,,112.0,40.0,112.0,25536,66.5,192
1063,9.0,,,,51.0,,,,,44,note_on,,0.0,51.0,0.0,25580,66.61458333333333,192
1064,9.0,,,,40.0,,,,,0,note_on,,0.0,40.0,0.0,25580,66.61458333333333,192
1065,9.0,,,,42.0,,,,,0,note_on,,0.0,42.0,0.0,25580,66.61458333333333,192
1066,9.0,,,,42.0,,,,,52,note_on,,88.0,42.0,88.0,25632,66.75,192
1067,9.0,,,,42.0,,,,,44,note_on,,0.0,42.0,0.0,25676,66.86458333333333,192
1068,9.0,,,,42.0,,,,,52,note_on,,88.0,42.0,88.0,25728,67.0,192
1069,9.0,,,,35.0,,,,,0,note_on,,112.0,35.0,112.0,25728,67.0,192
1070,9.0,,,,35.0,,,,,44,note_on,,0.0,35.0,0.0,25772,67.11458333333333,192
1071,9.0,,,,42.0,,,,,0,note_on,,0.0,42.0,0.0,25772,67.11458333333333,192
1072,9.0,,,,42.0,,,,,52,note_on,,88.0,42.0,88.0,25824,67.25,192
1073,9.0,,,,35.0,,,,,0,note_on,,112.0,35.0,112.0,25824,67.25,192
1074,9.0,,,,42.0,,,,,44,note_on,,0.0,42.0,0.0,25868,67.36458333333333,192
1075,9.0,,,,35.0,,,,,0,note_on,,0.0,35.0,0.0,25868,67.36458333333333,192
1076,9.0,,,,40.0,,,,,52,note_on,,112.0,40.0,112.0,25920,67.5,192
1077,9.0,,,,42.0,,,,,0,note_on,,88.0,42.0,88.0,25920,67.5,192
1078,9.0,,,,51.0,,,,,0,note_on,,112.0,51.0,112.0,25920,67.5,192
1079,9.0,,,,51.0,,,,,44,note_on,,0.0,51.0,0.0,25964,67.61458333333333,192
1080,9.0,,,,42.0,,,,,0,note_on,,0.0,42.0,0.0,25964,67.61458333333333,192
1081,9.0,,,,40.0,,,,,0,note_on,,0.0,40.0,0.0,25964,67.61458333333333,192
1082,9.0,,,,42.0,,,,,52,note_on,,88.0,42.0,88.0,26016,67.75,192
1083,9.0,,,,51.0,,,,,0,note_on,,112.0,51.0,112.0,26016,67.75,192
1084,9.0,,,,42.0,,,,,44,note_on,,0.0,42.0,0.0,26060,67.86458333333333,192
1085,9.0,,,,51.0,,,,,0,note_on,,0.0,51.0,0.0,26060,67.86458333333333,192
1086,9.0,,,,35.0,,,,,4,note_on,,112.0,35.0,112.0,26064,67.875,192
1087,9.0,,,,35.0,,,,,44,note_on,,0.0,35.0,0.0,26108,67.98958333333333,192
1088,9.0,,,,35.0,,,,,4,note_on,,112.0,35.0,112.0,26112,68.0,192
1089,9.0,,,,42.0,,,,,0,note_on,,88.0,42.0,88.0,26112,68.0,192
1090,9.0,,,,42.0,,,,,44,note_on,,0.0,42.0,0.0,26156,68.11458333333333,192
1091,9.0,,,,35.0,,,,,0,note_on,,0.0,35.0,0.0,26156,68.11458333333333,192
1092,9.0,,,,42.0,,,,,52,note_on,,88.0,42.0,88.0,26208,68.25,192
1093,9.0,,,,42.0,,,,,44,note_on,,0.0,42.0,0.0,26252,68.36458333333333,192
1094,9.0,,,,51.0,,,,,52,note_on,,112.0,51.0,112.0,26304,68.5,192
1095,9.0,,,,40.0,,,,,0,note_on,,112.0,40.0,112.0,26304,68.5,192
1096,9.0,,,,42.0,,,,,0,note_on,,88.0,42.0,88.0,26304,68.5,192
1097,9.0,,,,40.0,,,,,44,note_on,,0.0,40.0,0.0,26348,68.61458333333333,192
1098,9.0,,,,42.0,,,,,0,note_on,,0.0,42.0,0.0,26348,68.61458333333333,192
1099,9.0,,,,51.0,,,,,0,note_on,,0.0,51.0,0.0,26348,68.61458333333333,192
1100,9.0,,,,42.0,,,,,52,note_on,,88.0,42.0,88.0,26400,68.75,192
1101,9.0,,,,42.0,,,,,44,note_on,,0.0,42.0,0.0,26444,68.86458333333333,192
1102,9.0,,,,42.0,,,,,52,note_on,,88.0,42.0,88.0,26496,69.0,192
1103,9.0,,,,35.0,,,,,0,note_on,,112.0,35.0,112.0,26496,69.0,192
1104,9.0,,,,35.0,,,,,44,note_on,,0.0,35.0,0.0,26540,69.11458333333333,192
1105,9.0,,,,42.0,,,,,0,note_on,,0.0,42.0,0.0,26540,69.11458333333333,192
1106,9.0,,,,35.0,,,,,52,note_on,,112.0,35.0,112.0,26592,69.25,192
1107,9.0,,,,42.0,,,,,0,note_on,,88.0,42.0,88.0,26592,69.25,192
1108,9.0,,,,35.0,,,,,44,note_on,,0.0,35.0,0.0,26636,69.36458333333333,192
1109,9.0,,,,42.0,,,,,0,note_on,,0.0,42.0,0.0,26636,69.36458333333333,192
1110,9.0,,,,40.0,,,,,52,note_on,,112.0,40.0,112.0,26688,69.5,192
1111,9.0,,,,42.0,,,,,0,note_on,,88.0,42.0,88.0,26688,69.5,192
1112,9.0,,,,51.0,,,,,0,note_on,,112.0,51.0,112.0,26688,69.5,192
1113,9.0,,,,40.0,,,,,44,note_on,,0.0,40.0,0.0,26732,69.61458333333333,192
1114,9.0,,,,51.0,,,,,0,note_on,,0.0,51.0,0.0,26732,69.61458333333333,192
1115,9.0,,,,42.0,,,,,0,note_on,,0.0,42.0,0.0,26732,69.61458333333333,192
1116,9.0,,,,42.0,,,,,52,note_on,,88.0,42.0,88.0,26784,69.75,192
1117,9.0,,,,51.0,,,,,0,note_on,,112.0,51.0,112.0,26784,69.75,192
1118,9.0,,,,51.0,,,,,44,note_on,,0.0,51.0,0.0,26828,69.86458333333333,192
1119,9.0,,,,42.0,,,,,0,note_on,,0.0,42.0,0.0,26828,69.86458333333333,192
1120,9.0,,,,35.0,,,,,4,note_on,,112.0,35.0,112.0,26832,69.875,192
1121,9.0,,,,35.0,,,,,44,note_on,,0.0,35.0,0.0,26876,69.98958333333333,192
1122,9.0,,,,42.0,,,,,4,note_on,,88.0,42.0,88.0,26880,70.0,192
1123,9.0,,,,35.0,,,,,0,note_on,,112.0,35.0,112.0,26880,70.0,192
1124,9.0,,,,35.0,,,,,44,note_on,,0.0,35.0,0.0,26924,70.11458333333333,192
1125,9.0,,,,42.0,,,,,0,note_on,,0.0,42.0,0.0,26924,70.11458333333333,192
1126,9.0,,,,42.0,,,,,52,note_on,,88.0,42.0,88.0,26976,70.25,192
1127,9.0,,,,42.0,,,,,44,note_on,,0.0,42.0,0.0,27020,70.36458333333333,192
1128,9.0,,,,40.0,,,,,52,note_on,,112.0,40.0,112.0,27072,70.5,192
1129,9.0,,,,42.0,,,,,0,note_on,,88.0,42.0,88.0,27072,70.5,192
1130,9.0,,,,51.0,,,,,0,note_on,,112.0,51.0,112.0,27072,70.5,192
1131,9.0,,,,42.0,,,,,44,note_on,,0.0,42.0,0.0,27116,70.61458333333333,192
1132,9.0,,,,40.0,,,,,0,note_on,,0.0,40.0,0.0,27116,70.61458333333333,192
1133,9.0,,,,51.0,,,,,0,note_on,,0.0,51.0,0.0,27116,70.61458333333333,192
1134,9.0,,,,42.0,,,,,52,note_on,,88.0,42.0,88.0,27168,70.75,192
1135,9.0,,,,42.0,,,,,44,note_on,,0.0,42.0,0.0,27212,70.86458333333333,192
1136,9.0,,,,35.0,,,,,52,note_on,,112.0,35.0,112.0,27264,71.0,192
1137,9.0,,,,42.0,,,,,0,note_on,,88.0,42.0,88.0,27264,71.0,192
1138,9.0,,,,35.0,,,,,44,note_on,,0.0,35.0,0.0,27308,71.11458333333333,192
1139,9.0,,,,42.0,,,,,0,note_on,,0.0,42.0,0.0,27308,71.11458333333333,192
1140,9.0,,,,35.0,,,,,52,note_on,,112.0,35.0,112.0,27360,71.25,192
1141,9.0,,,,42.0,,,,,0,note_on,,88.0,42.0,88.0,27360,71.25,192
1142,9.0,,,,42.0,,,,,44,note_on,,0.0,42.0,0.0,27404,71.36458333333333,192
1143,9.0,,,,35.0,,,,,0,note_on,,0.0,35.0,0.0,27404,71.36458333333333,192
1144,9.0,,,,40.0,,,,,52,note_on,,112.0,40.0,112.0,27456,71.5,192
1145,9.0,,,,51.0,,,,,0,note_on,,112.0,51.0,112.0,27456,71.5,192
1146,9.0,,,,42.0,,,,,0,note_on,,88.0,42.0,88.0,27456,71.5,192
1147,9.0,,,,42.0,,,,,44,note_on,,0.0,42.0,0.0,27500,71.61458333333333,192
1148,9.0,,,,51.0,,,,,0,note_on,,0.0,51.0,0.0,27500,71.61458333333333,192
1149,9.0,,,,40.0,,,,,0,note_on,,0.0,40.0,0.0,27500,71.61458333333333,192
1150,9.0,,,,51.0,,,,,52,note_on,,112.0,51.0,112.0,27552,71.75,192
1151,9.0,,,,42.0,,,,,0,note_on,,88.0,42.0,88.0,27552,71.75,192
1152,9.0,,,,42.0,,,,,44,note_on,,0.0,42.0,0.0,27596,71.86458333333333,192
1153,9.0,,,,51.0,,,,,0,note_on,,0.0,51.0,0.0,27596,71.86458333333333,192
1154,9.0,,,,35.0,,,,,4,note_on,,112.0,35.0,112.0,27600,71.875,192
1155,9.0,,,,35.0,,,,,44,note_on,,0.0,35.0,0.0,27644,71.98958333333333,192
1156,9.0,,,,42.0,,,,,4,note_on,,88.0,42.0,88.0,27648,72.0,192
1157,9.0,,,,35.0,,,,,0,note_on,,112.0,35.0,112.0,27648,72.0,192
1158,9.0,,,,42.0,,,,,44,note_on,,0.0,42.0,0.0,27692,72.11458333333333,192
1159,9.0,,,,35.0,,,,,0,note_on,,0.0,35.0,0.0,27692,72.11458333333333,192
1160,9.0,,,,42.0,,,,,52,note_on,,88.0,42.0,88.0,27744,72.25,192
1161,9.0,,,,42.0,,,,,44,note_on,,0.0,42.0,0.0,27788,72.36458333333333,192
1162,9.0,,,,40.0,,,,,52,note_on,,112.0,40.0,112.0,27840,72.5,192
1163,9.0,,,,51.0,,,,,0,note_on,,112.0,51.0,112.0,27840,72.5,192
1164,9.0,,,,42.0,,,,,0,note_on,,88.0,42.0,88.0,27840,72.5,192
1165,9.0,,,,42.0,,,,,44,note_on,,0.0,42.0,0.0,27884,72.61458333333333,192
1166,9.0,,,,40.0,,,,,0,note_on,,0.0,40.0,0.0,27884,72.61458333333333,192
1167,9.0,,,,51.0,,,,,0,note_on,,0.0,51.0,0.0,27884,72.61458333333333,192
1168,9.0,,,,42.0,,,,,52,note_on,,88.0,42.0,88.0,27936,72.75,192
1169,9.0,,,,42.0,,,,,44,note_on,,0.0,42.0,0.0,27980,72.86458333333333,192
1170,9.0,,,,42.0,,,,,52,note_on,,88.0,42.0,88.0,28032,73.0,192
1171,9.0,,,,35.0,,,,,0,note_on,,112.0,35.0,112.0,28032,73.0,192
1172,9.0,,,,42.0,,,,,44,note_on,,0.0,42.0,0.0,28076,73.11458333333333,192
1173,9.0,,,,35.0,,,,,0,note_on,,0.0,35.0,0.0,28076,73.11458333333333,192
1174,9.0,,,,35.0,,,,,52,note_on,,112.0,35.0,112.0,28128,73.25,192
1175,9.0,,,,42.0,,,,,0,note_on,,88.0,42.0,88.0,28128,73.25,192
1176,9.0,,,,42.0,,,,,44,note_on,,0.0,42.0,0.0,28172,73.36458333333333,192
1177,9.0,,,,35.0,,,,,0,note_on,,0.0,35.0,0.0,28172,73.36458333333333,192
1178,9.0,,,,42.0,,,,,52,note_on,,88.0,42.0,88.0,28224,73.5,192
1179,9.0,,,,40.0,,,,,0,note_on,,112.0,40.0,112.0,28224,73.5,192
1180,9.0,,,,51.0,,,,,0,note_on,,112.0,51.0,112.0,28224,73.5,192
1181,9.0,,,,42.0,,,,,44,note_on,,0.0,42.0,0.0,28268,73.61458333333333,192
1182,9.0,,,,51.0,,,,,0,note_on,,0.0,51.0,0.0,28268,73.61458333333333,192
1183,9.0,,,,40.0,,,,,0,note_on,,0.0,40.0,0.0,28268,73.61458333333333,192
1184,9.0,,,,51.0,,,,,52,note_on,,112.0,51.0,112.0,28320,73.75,192
1185,9.0,,,,42.0,,,,,0,note_on,,88.0,42.0,88.0,28320,73.75,192
1186,9.0,,,,51.0,,,,,44,note_on,,0.0,51.0,0.0,28364,73.86458333333333,192
1187,9.0,,,,42.0,,,,,0,note_on,,0.0,42.0,0.0,28364,73.86458333333333,192
1188,9.0,,,,35.0,,,,,4,note_on,,112.0,35.0,112.0,28368,73.875,192
1189,9.0,,,,35.0,,,,,44,note_on,,0.0,35.0,0.0,28412,73.98958333333333,192
1190,9.0,,,,42.0,,,,,4,note_on,,88.0,42.0,88.0,28416,74.0,192
1191,9.0,,,,35.0,,,,,0,note_on,,112.0,35.0,112.0,28416,74.0,192
1192,9.0,,,,35.0,,,,,44,note_on,,0.0,35.0,0.0,28460,74.11458333333333,192
1193,9.0,,,,42.0,,,,,0,note_on,,0.0,42.0,0.0,28460,74.11458333333333,192
1194,9.0,,,,35.0,,,,,52,note_on,,112.0,35.0,112.0,28512,74.25,192
1195,9.0,,,,42.0,,,,,0,note_on,,88.0,42.0,88.0,28512,74.25,192
1196,9.0,,,,42.0,,,,,44,note_on,,0.0,42.0,0.0,28556,74.36458333333333,192
1197,9.0,,,,35.0,,,,,0,note_on,,0.0,35.0,0.0,28556,74.36458333333333,192
1198,9.0,,,,51.0,,,,,52,note_on,,112.0,51.0,112.0,28608,74.5,192
1199,9.0,,,,35.0,,,,,0,note_on,,112.0,35.0,112.0,28608,74.5,192
1200,9.0,,,,40.0,,,,,0,note_on,,112.0,40.0,112.0,28608,74.5,192
1201,9.0,,,,42.0,,,,,0,note_on,,88.0,42.0,88.0,28608,74.5,192
1202,9.0,,,,35.0,,,,,44,note_on,,0.0,35.0,0.0,28652,74.61458333333333,192
1203,9.0,,,,51.0,,,,,0,note_on,,0.0,51.0,0.0,28652,74.61458333333333,192
1204,9.0,,,,42.0,,,,,0,note_on,,0.0,42.0,0.0,28652,74.61458333333333,192
1205,9.0,,,,40.0,,,,,0,note_on,,0.0,40.0,0.0,28652,74.61458333333333,192
1206,9.0,,,,42.0,,,,,52,note_on,,88.0,42.0,88.0,28704,74.75,192
1207,9.0,,,,42.0,,,,,44,note_on,,0.0,42.0,0.0,28748,74.86458333333333,192
1208,9.0,,,,42.0,,,,,52,note_on,,88.0,42.0,88.0,28800,75.0,192
1209,9.0,,,,35.0,,,,,0,note_on,,112.0,35.0,112.0,28800,75.0,192
1210,9.0,,,,42.0,,,,,44,note_on,,0.0,42.0,0.0,28844,75.11458333333333,192
1211,9.0,,,,35.0,,,,,0,note_on,,0.0,35.0,0.0,28844,75.11458333333333,192
1212,9.0,,,,42.0,,,,,52,note_on,,88.0,42.0,88.0,28896,75.25,192
1213,9.0,,,,35.0,,,,,0,note_on,,112.0,35.0,112.0,28896,75.25,192
1214,9.0,,,,35.0,,,,,44,note_on,,0.0,35.0,0.0,28940,75.36458333333333,192
1215,9.0,,,,42.0,,,,,0,note_on,,0.0,42.0,0.0,28940,75.36458333333333,192
1216,9.0,,,,40.0,,,,,52,note_on,,112.0,40.0,112.0,28992,75.5,192
1217,9.0,,,,35.0,,,,,0,note_on,,112.0,35.0,112.0,28992,75.5,192
1218,9.0,,,,42.0,,,,,0,note_on,,88.0,42.0,88.0,28992,75.5,192
1219,9.0,,,,51.0,,,,,0,note_on,,112.0,51.0,112.0,28992,75.5,192
1220,9.0,,,,35.0,,,,,44,note_on,,0.0,35.0,0.0,29036,75.61458333333333,192
1221,9.0,,,,40.0,,,,,0,note_on,,0.0,40.0,0.0,29036,75.61458333333333,192
1222,9.0,,,,51.0,,,,,0,note_on,,0.0,51.0,0.0,29036,75.61458333333333,192
1223,9.0,,,,42.0,,,,,0,note_on,,0.0,42.0,0.0,29036,75.61458333333333,192
1224,9.0,,,,42.0,,,,,52,note_on,,88.0,42.0,88.0,29088,75.75,192
1225,9.0,,,,51.0,,,,,0,note_on,,112.0,51.0,112.0,29088,75.75,192
1226,9.0,,,,51.0,,,,,44,note_on,,0.0,51.0,0.0,29132,75.86458333333333,192
1227,9.0,,,,42.0,,,,,0,note_on,,0.0,42.0,0.0,29132,75.86458333333333,192
1228,9.0,,,,35.0,,,,,4,note_on,,112.0,35.0,112.0,29136,75.875,192
1229,9.0,,,,35.0,,,,,44,note_on,,0.0,35.0,0.0,29180,75.98958333333333,192
1230,9.0,,,,42.0,,,,,4,note_on,,88.0,42.0,88.0,29184,76.0,192
1231,9.0,,,,35.0,,,,,0,note_on,,112.0,35.0,112.0,29184,76.0,192
1232,9.0,,,,42.0,,,,,44,note_on,,0.0,42.0,0.0,29228,76.11458333333333,192
1233,9.0,,,,35.0,,,,,0,note_on,,0.0,35.0,0.0,29228,76.11458333333333,192
1234,9.0,,,,35.0,,,,,52,note_on,,112.0,35.0,112.0,29280,76.25,192
1235,9.0,,,,42.0,,,,,0,note_on,,88.0,42.0,88.0,29280,76.25,192
1236,9.0,,,,42.0,,,,,44,note_on,,0.0,42.0,0.0,29324,76.36458333333333,192
1237,9.0,,,,35.0,,,,,0,note_on,,0.0,35.0,0.0,29324,76.36458333333333,192
1238,9.0,,,,51.0,,,,,52,note_on,,112.0,51.0,112.0,29376,76.5,192
1239,9.0,,,,35.0,,,,,0,note_on,,112.0,35.0,112.0,29376,76.5,192
1240,9.0,,,,40.0,,,,,0,note_on,,112.0,40.0,112.0,29376,76.5,192
1241,9.0,,,,42.0,,,,,0,note_on,,88.0,42.0,88.0,29376,76.5,192
1242,9.0,,,,42.0,,,,,44,note_on,,0.0,42.0,0.0,29420,76.61458333333333,192
1243,9.0,,,,40.0,,,,,0,note_on,,0.0,40.0,0.0,29420,76.61458333333333,192
1244,9.0,,,,35.0,,,,,0,note_on,,0.0,35.0,0.0,29420,76.61458333333333,192
1245,9.0,,,,51.0,,,,,0,note_on,,0.0,51.0,0.0,29420,76.61458333333333,192
1246,9.0,,,,42.0,,,,,52,note_on,,88.0,42.0,88.0,29472,76.75,192
1247,9.0,,,,42.0,,,,,44,note_on,,0.0,42.0,0.0,29516,76.86458333333333,192
1248,9.0,,,,35.0,,,,,52,note_on,,112.0,35.0,112.0,29568,77.0,192
1249,9.0,,,,42.0,,,,,0,note_on,,88.0,42.0,88.0,29568,77.0,192
1250,9.0,,,,42.0,,,,,44,note_on,,0.0,42.0,0.0,29612,77.11458333333333,192
1251,9.0,,,,35.0,,,,,0,note_on,,0.0,35.0,0.0,29612,77.11458333333333,192
1252,9.0,,,,42.0,,,,,52,note_on,,88.0,42.0,88.0,29664,77.25,192
1253,9.0,,,,35.0,,,,,0,note_on,,112.0,35.0,112.0,29664,77.25,192
1254,9.0,,,,35.0,,,,,44,note_on,,0.0,35.0,0.0,29708,77.36458333333333,192
1255,9.0,,,,42.0,,,,,0,note_on,,0.0,42.0,0.0,29708,77.36458333333333,192
1256,9.0,,,,51.0,,,,,52,note_on,,112.0,51.0,112.0,29760,77.5,192
1257,9.0,,,,40.0,,,,,0,note_on,,112.0,40.0,112.0,29760,77.5,192
1258,9.0,,,,42.0,,,,,0,note_on,,88.0,42.0,88.0,29760,77.5,192
1259,9.0,,,,35.0,,,,,0,note_on,,112.0,35.0,112.0,29760,77.5,192
1260,9.0,,,,40.0,,,,,44,note_on,,0.0,40.0,0.0,29804,77.61458333333333,192
1261,9.0,,,,51.0,,,,,0,note_on,,0.0,51.0,0.0,29804,77.61458333333333,192
1262,9.0,,,,35.0,,,,,0,note_on,,0.0,35.0,0.0,29804,77.61458333333333,192
1263,9.0,,,,42.0,,,,,0,note_on,,0.0,42.0,0.0,29804,77.61458333333333,192
1264,9.0,,,,42.0,,,,,52,note_on,,88.0,42.0,88.0,29856,77.75,192
1265,9.0,,,,51.0,,,,,0,note_on,,112.0,51.0,112.0,29856,77.75,192
1266,9.0,,,,42.0,,,,,44,note_on,,0.0,42.0,0.0,29900,77.86458333333333,192
1267,9.0,,,,51.0,,,,,0,note_on,,0.0,51.0,0.0,29900,77.86458333333333,192
1268,9.0,,,,35.0,,,,,4,note_on,,112.0,35.0,112.0,29904,77.875,192
1269,9.0,,,,35.0,,,,,44,note_on,,0.0,35.0,0.0,29948,77.98958333333333,192
1270,9.0,,,,35.0,,,,,4,note_on,,112.0,35.0,112.0,29952,78.0,192
1271,9.0,,,,42.0,,,,,0,note_on,,88.0,42.0,88.0,29952,78.0,192
1272,9.0,,,,35.0,,,,,44,note_on,,0.0,35.0,0.0,29996,78.11458333333333,192
1273,9.0,,,,42.0,,,,,0,note_on,,0.0,42.0,0.0,29996,78.11458333333333,192
1274,9.0,,,,42.0,,,,,52,note_on,,88.0,42.0,88.0,30048,78.25,192
1275,9.0,,,,35.0,,,,,0,note_on,,112.0,35.0,112.0,30048,78.25,192
1276,9.0,,,,35.0,,,,,44,note_on,,0.0,35.0,0.0,30092,78.36458333333333,192
1277,9.0,,,,42.0,,,,,0,note_on,,0.0,42.0,0.0,30092,78.36458333333333,192
1278,9.0,,,,42.0,,,,,52,note_on,,88.0,42.0,88.0,30144,78.5,192
1279,9.0,,,,40.0,,,,,0,note_on,,112.0,40.0,112.0,30144,78.5,192
1280,9.0,,,,35.0,,,,,0,note_on,,112.0,35.0,112.0,30144,78.5,192
1281,9.0,,,,51.0,,,,,0,note_on,,112.0,51.0,112.0,30144,78.5,192
1282,9.0,,,,40.0,,,,,44,note_on,,0.0,40.0,0.0,30188,78.61458333333333,192
1283,9.0,,,,42.0,,,,,0,note_on,,0.0,42.0,0.0,30188,78.61458333333333,192
1284,9.0,,,,51.0,,,,,0,note_on,,0.0,51.0,0.0,30188,78.61458333333333,192
1285,9.0,,,,35.0,,,,,0,note_on,,0.0,35.0,0.0,30188,78.61458333333333,192
1286,9.0,,,,42.0,,,,,52,note_on,,88.0,42.0,88.0,30240,78.75,192
1287,9.0,,,,42.0,,,,,44,note_on,,0.0,42.0,0.0,30284,78.86458333333333,192
1288,9.0,,,,42.0,,,,,52,note_on,,88.0,42.0,88.0,30336,79.0,192
1289,9.0,,,,35.0,,,,,0,note_on,,112.0,35.0,112.0,30336,79.0,192
1290,9.0,,,,42.0,,,,,44,note_on,,0.0,42.0,0.0,30380,79.11458333333333,192
1291,9.0,,,,35.0,,,,,0,note_on,,0.0,35.0,0.0,30380,79.11458333333333,192
1292,9.0,,,,42.0,,,,,52,note_on,,88.0,42.0,88.0,30432,79.25,192
1293,9.0,,,,35.0,,,,,0,note_on,,112.0,35.0,112.0,30432,79.25,192
1294,9.0,,,,35.0,,,,,44,note_on,,0.0,35.0,0.0,30476,79.36458333333333,192
1295,9.0,,,,42.0,,,,,0,note_on,,0.0,42.0,0.0,30476,79.36458333333333,192
1296,9.0,,,,42.0,,,,,52,note_on,,88.0,42.0,88.0,30528,79.5,192
1297,9.0,,,,40.0,,,,,0,note_on,,112.0,40.0,112.0,30528,79.5,192
1298,9.0,,,,35.0,,,,,0,note_on,,112.0,35.0,112.0,30528,79.5,192
1299,9.0,,,,51.0,,,,,0,note_on,,112.0,51.0,112.0,30528,79.5,192
1300,9.0,,,,51.0,,,,,44,note_on,,0.0,51.0,0.0,30572,79.61458333333333,192
1301,9.0,,,,35.0,,,,,0,note_on,,0.0,35.0,0.0,30572,79.61458333333333,192
1302,9.0,,,,40.0,,,,,0,note_on,,0.0,40.0,0.0,30572,79.61458333333333,192
1303,9.0,,,,42.0,,,,,0,note_on,,0.0,42.0,0.0,30572,79.61458333333333,192
1304,9.0,,,,51.0,,,,,52,note_on,,112.0,51.0,112.0,30624,79.75,192
1305,9.0,,,,42.0,,,,,0,note_on,,88.0,42.0,88.0,30624,79.75,192
1306,9.0,,,,51.0,,,,,44,note_on,,0.0,51.0,0.0,30668,79.86458333333333,192
1307,9.0,,,,42.0,,,,,0,note_on,,0.0,42.0,0.0,30668,79.86458333333333,192
1308,9.0,,,,35.0,,,,,4,note_on,,112.0,35.0,112.0,30672,79.875,192
1309,9.0,,,,35.0,,,,,44,note_on,,0.0,35.0,0.0,30716,79.98958333333333,192
1310,9.0,,,,35.0,,,,,4,note_on,,112.0,35.0,112.0,30720,80.0,192
1311,9.0,,,,42.0,,,,,0,note_on,,88.0,42.0,88.0,30720,80.0,192
1312,9.0,,,,35.0,,,,,44,note_on,,0.0,35.0,0.0,30764,80.11458333333333,192
1313,9.0,,,,42.0,,,,,0,note_on,,0.0,42.0,0.0,30764,80.11458333333333,192
1314,9.0,,,,35.0,,,,,52,note_on,,112.0,35.0,112.0,30816,80.25,192
1315,9.0,,,,42.0,,,,,0,note_on,,88.0,42.0,88.0,30816,80.25,192
1316,9.0,,,,42.0,,,,,44,note_on,,0.0,42.0,0.0,30860,80.36458333333333,192
1317,9.0,,,,35.0,,,,,0,note_on,,0.0,35.0,0.0,30860,80.36458333333333,192
1318,9.0,,,,42.0,,,,,52,note_on,,88.0,42.0,88.0,30912,80.5,192
1319,9.0,,,,51.0,,,,,0,note_on,,112.0,51.0,112.0,30912,80.5,192
1320,9.0,,,,40.0,,,,,0,note_on,,112.0,40.0,112.0,30912,80.5,192
1321,9.0,,,,35.0,,,,,0,note_on,,112.0,35.0,112.0,30912,80.5,192
1322,9.0,,,,51.0,,,,,44,note_on,,0.0,51.0,0.0,30956,80.61458333333333,192
1323,9.0,,,,42.0,,,,,0,note_on,,0.0,42.0,0.0,30956,80.61458333333333,192
1324,9.0,,,,35.0,,,,,0,note_on,,0.0,35.0,0.0,30956,80.61458333333333,192
1325,9.0,,,,40.0,,,,,0,note_on,,0.0,40.0,0.0,30956,80.61458333333333,192
1326,9.0,,,,42.0,,,,,52,note_on,,88.0,42.0,88.0,31008,80.75,192
1327,9.0,,,,42.0,,,,,44,note_on,,0.0,42.0,0.0,31052,80.86458333333333,192
1328,9.0,,,,40.0,,,,,52,note_on,,112.0,40.0,112.0,31104,81.0,192
1329,9.0,,,,40.0,,,,,44,note_on,,0.0,40.0,0.0,31148,81.11458333333333,192
1330,9.0,,,,48.0,,,,,4,note_on,,112.0,48.0,112.0,31152,81.125,192
1331,9.0,,,,48.0,,,,,44,note_on,,0.0,48.0,0.0,31196,81.23958333333333,192
1332,9.0,,,,40.0,,,,,52,note_on,,112.0,40.0,112.0,31248,81.375,192
1333,9.0,,,,40.0,,,,,44,note_on,,0.0,40.0,0.0,31292,81.48958333333333,192
1334,9.0,,,,40.0,,,,,4,note_on,,112.0,40.0,112.0,31296,81.5,192
1335,9.0,,,,40.0,,,,,44,note_on,,0.0,40.0,0.0,31340,81.61458333333333,192
1336,9.0,,,,36.0,,,,,52,note_on,,112.0,36.0,112.0,31392,81.75,192
1337,9.0,,,,36.0,,,,,44,note_on,,0.0,36.0,0.0,31436,81.86458333333333,192
1338,9.0,,,,42.0,,,,,52,note_on,,88.0,42.0,88.0,31488,82.0,192
1339,9.0,,,,35.0,,,,,0,note_on,,112.0,35.0,112.0,31488,82.0,192
1340,9.0,,,,49.0,,,,,0,note_on,,112.0,49.0,112.0,31488,82.0,192
1341,9.0,,,,49.0,,,,,44,note_on,,0.0,49.0,0.0,31532,82.11458333333333,192
1342,9.0,,,,35.0,,,,,0,note_on,,0.0,35.0,0.0,31532,82.11458333333333,192
1343,9.0,,,,42.0,,,,,0,note_on,,0.0,42.0,0.0,31532,82.11458333333333,192
1344,9.0,,,,35.0,,,,,52,note_on,,112.0,35.0,112.0,31584,82.25,192
1345,9.0,,,,42.0,,,,,0,note_on,,88.0,42.0,88.0,31584,82.25,192
1346,9.0,,,,42.0,,,,,44,note_on,,0.0,42.0,0.0,31628,82.36458333333333,192
1347,9.0,,,,35.0,,,,,0,note_on,,0.0,35.0,0.0,31628,82.36458333333333,192
1348,9.0,,,,42.0,,,,,52,note_on,,88.0,42.0,88.0,31680,82.5,192
1349,9.0,,,,40.0,,,,,0,note_on,,112.0,40.0,112.0,31680,82.5,192
1350,9.0,,,,35.0,,,,,0,note_on,,112.0,35.0,112.0,31680,82.5,192
1351,9.0,,,,51.0,,,,,0,note_on,,112.0,51.0,112.0,31680,82.5,192
1352,9.0,,,,35.0,,,,,44,note_on,,0.0,35.0,0.0,31724,82.61458333333333,192
1353,9.0,,,,51.0,,,,,0,note_on,,0.0,51.0,0.0,31724,82.61458333333333,192
1354,9.0,,,,40.0,,,,,0,note_on,,0.0,40.0,0.0,31724,82.61458333333333,192
1355,9.0,,,,42.0,,,,,0,note_on,,0.0,42.0,0.0,31724,82.61458333333333,192
1356,9.0,,,,42.0,,,,,52,note_on,,88.0,42.0,88.0,31776,82.75,192
1357,9.0,,,,42.0,,,,,44,note_on,,0.0,42.0,0.0,31820,82.86458333333333,192
1358,9.0,,,,35.0,,,,,52,note_on,,112.0,35.0,112.0,31872,83.0,192
1359,9.0,,,,42.0,,,,,0,note_on,,88.0,42.0,88.0,31872,83.0,192
1360,9.0,,,,35.0,,,,,44,note_on,,0.0,35.0,0.0,31916,83.11458333333333,192
1361,9.0,,,,42.0,,,,,0,note_on,,0.0,42.0,0.0,31916,83.11458333333333,192
1362,9.0,,,,35.0,,,,,52,note_on,,112.0,35.0,112.0,31968,83.25,192
1363,9.0,,,,42.0,,,,,0,note_on,,88.0,42.0,88.0,31968,83.25,192
1364,9.0,,,,42.0,,,,,44,note_on,,0.0,42.0,0.0,32012,83.36458333333333,192
1365,9.0,,,,35.0,,,,,0,note_on,,0.0,35.0,0.0,32012,83.36458333333333,192
1366,9.0,,,,40.0,,,,,52,note_on,,112.0,40.0,112.0,32064,83.5,192
1367,9.0,,,,51.0,,,,,0,note_on,,112.0,51.0,112.0,32064,83.5,192
1368,9.0,,,,35.0,,,,,0,note_on,,112.0,35.0,112.0,32064,83.5,192
1369,9.0,,,,42.0,,,,,0,note_on,,88.0,42.0,88.0,32064,83.5,192
1370,9.0,,,,42.0,,,,,44,note_on,,0.0,42.0,0.0,32108,83.61458333333333,192
1371,9.0,,,,51.0,,,,,0,note_on,,0.0,51.0,0.0,32108,83.61458333333333,192
1372,9.0,,,,35.0,,,,,0,note_on,,0.0,35.0,0.0,32108,83.61458333333333,192
1373,9.0,,,,40.0,,,,,0,note_on,,0.0,40.0,0.0,32108,83.61458333333333,192
1374,9.0,,,,51.0,,,,,52,note_on,,112.0,51.0,112.0,32160,83.75,192
1375,9.0,,,,42.0,,,,,0,note_on,,88.0,42.0,88.0,32160,83.75,192
1376,9.0,,,,51.0,,,,,44,note_on,,0.0,51.0,0.0,32204,83.86458333333333,192
1377,9.0,,,,42.0,,,,,0,note_on,,0.0,42.0,0.0,32204,83.86458333333333,192
1378,9.0,,,,35.0,,,,,4,note_on,,112.0,35.0,112.0,32208,83.875,192
1379,9.0,,,,35.0,,,,,44,note_on,,0.0,35.0,0.0,32252,83.98958333333333,192
1380,9.0,,,,42.0,,,,,4,note_on,,88.0,42.0,88.0,32256,84.0,192
1381,9.0,,,,35.0,,,,,0,note_on,,112.0,35.0,112.0,32256,84.0,192
1382,9.0,,,,42.0,,,,,44,note_on,,0.0,42.0,0.0,32300,84.11458333333333,192
1383,9.0,,,,35.0,,,,,0,note_on,,0.0,35.0,0.0,32300,84.11458333333333,192
1384,9.0,,,,42.0,,,,,52,note_on,,88.0,42.0,88.0,32352,84.25,192
1385,9.0,,,,35.0,,,,,0,note_on,,112.0,35.0,112.0,32352,84.25,192
1386,9.0,,,,42.0,,,,,44,note_on,,0.0,42.0,0.0,32396,84.36458333333333,192
1387,9.0,,,,35.0,,,,,0,note_on,,0.0,35.0,0.0,32396,84.36458333333333,192
1388,9.0,,,,35.0,,,,,52,note_on,,112.0,35.0,112.0,32448,84.5,192
1389,9.0,,,,51.0,,,,,0,note_on,,112.0,51.0,112.0,32448,84.5,192
1390,9.0,,,,40.0,,,,,0,note_on,,112.0,40.0,112.0,32448,84.5,192
1391,9.0,,,,42.0,,,,,0,note_on,,88.0,42.0,88.0,32448,84.5,192
1392,9.0,,,,35.0,,,,,44,note_on,,0.0,35.0,0.0,32492,84.61458333333333,192
1393,9.0,,,,40.0,,,,,0,note_on,,0.0,40.0,0.0,32492,84.61458333333333,192
1394,9.0,,,,42.0,,,,,0,note_on,,0.0,42.0,0.0,32492,84.61458333333333,192
1395,9.0,,,,51.0,,,,,0,note_on,,0.0,51.0,0.0,32492,84.61458333333333,192
1396,9.0,,,,42.0,,,,,52,note_on,,88.0,42.0,88.0,32544,84.75,192
1397,9.0,,,,42.0,,,,,44,note_on,,0.0,42.0,0.0,32588,84.86458333333333,192
1398,9.0,,,,42.0,,,,,52,note_on,,88.0,42.0,88.0,32640,85.0,192
1399,9.0,,,,35.0,,,,,0,note_on,,112.0,35.0,112.0,32640,85.0,192
1400,9.0,,,,42.0,,,,,44,note_on,,0.0,42.0,0.0,32684,85.11458333333333,192
1401,9.0,,,,35.0,,,,,0,note_on,,0.0,35.0,0.0,32684,85.11458333333333,192
1402,9.0,,,,42.0,,,,,52,note_on,,88.0,42.0,88.0,32736,85.25,192
1403,9.0,,,,35.0,,,,,0,note_on,,112.0,35.0,112.0,32736,85.25,192
1404,9.0,,,,42.0,,,,,44,note_on,,0.0,42.0,0.0,32780,85.36458333333333,192
1405,9.0,,,,35.0,,,,,0,note_on,,0.0,35.0,0.0,32780,85.36458333333333,192
1406,9.0,,,,40.0,,,,,52,note_on,,112.0,40.0,112.0,32832,85.5,192
1407,9.0,,,,51.0,,,,,0,note_on,,112.0,51.0,112.0,32832,85.5,192
1408,9.0,,,,42.0,,,,,0,note_on,,88.0,42.0,88.0,32832,85.5,192
1409,9.0,,,,35.0,,,,,0,note_on,,112.0,35.0,112.0,32832,85.5,192
1410,9.0,,,,42.0,,,,,44,note_on,,0.0,42.0,0.0,32876,85.61458333333333,192
1411,9.0,,,,51.0,,,,,0,note_on,,0.0,51.0,0.0,32876,85.61458333333333,192
1412,9.0,,,,40.0,,,,,0,note_on,,0.0,40.0,0.0,32876,85.61458333333333,192
1413,9.0,,,,35.0,,,,,0,note_on,,0.0,35.0,0.0,32876,85.61458333333333,192
1414,9.0,,,,42.0,,,,,52,note_on,,88.0,42.0,88.0,32928,85.75,192
1415,9.0,,,,51.0,,,,,0,note_on,,112.0,51.0,112.0,32928,85.75,192
1416,9.0,,,,51.0,,,,,44,note_on,,0.0,51.0,0.0,32972,85.86458333333333,192
1417,9.0,,,,42.0,,,,,0,note_on,,0.0,42.0,0.0,32972,85.86458333333333,192
1418,9.0,,,,35.0,,,,,4,note_on,,112.0,35.0,112.0,32976,85.875,192
1419,9.0,,,,35.0,,,,,44,note_on,,0.0,35.0,0.0,33020,85.98958333333333,192
1420,9.0,,,,35.0,,,,,4,note_on,,112.0,35.0,112.0,33024,86.0,192
1421,9.0,,,,42.0,,,,,0,note_on,,88.0,42.0,88.0,33024,86.0,192
1422,9.0,,,,42.0,,,,,44,note_on,,0.0,42.0,0.0,33068,86.11458333333333,192
1423,9.0,,,,35.0,,,,,0,note_on,,0.0,35.0,0.0,33068,86.11458333333333,192
1424,9.0,,,,35.0,,,,,52,note_on,,112.0,35.0,112.0,33120,86.25,192
1425,9.0,,,,42.0,,,,,0,note_on,,88.0,42.0,88.0,33120,86.25,192
1426,9.0,,,,42.0,,,,,44,note_on,,0.0,42.0,0.0,33164,86.36458333333333,192
1427,9.0,,,,35.0,,,,,0,note_on,,0.0,35.0,0.0,33164,86.36458333333333,192
1428,9.0,,,,42.0,,,,,52,note_on,,88.0,42.0,88.0,33216,86.5,192
1429,9.0,,,,35.0,,,,,0,note_on,,112.0,35.0,112.0,33216,86.5,192
1430,9.0,,,,40.0,,,,,0,note_on,,112.0,40.0,112.0,33216,86.5,192
1431,9.0,,,,51.0,,,,,0,note_on,,112.0,51.0,112.0,33216,86.5,192
1432,9.0,,,,40.0,,,,,44,note_on,,0.0,40.0,0.0,33260,86.61458333333333,192
1433,9.0,,,,51.0,,,,,0,note_on,,0.0,51.0,0.0,33260,86.61458333333333,192
1434,9.0,,,,35.0,,,,,0,note_on,,0.0,35.0,0.0,33260,86.61458333333333,192
1435,9.0,,,,42.0,,,,,0,note_on,,0.0,42.0,0.0,33260,86.61458333333333,192
1436,9.0,,,,42.0,,,,,52,note_on,,88.0,42.0,88.0,33312,86.75,192
1437,9.0,,,,42.0,,,,,44,note_on,,0.0,42.0,0.0,33356,86.86458333333333,192
1438,9.0,,,,42.0,,,,,52,note_on,,88.0,42.0,88.0,33408,87.0,192
1439,9.0,,,,35.0,,,,,0,note_on,,112.0,35.0,112.0,33408,87.0,192
1440,9.0,,,,42.0,,,,,44,note_on,,0.0,42.0,0.0,33452,87.11458333333333,192
1441,9.0,,,,35.0,,,,,0,note_on,,0.0,35.0,0.0,33452,87.11458333333333,192
1442,9.0,,,,42.0,,,,,52,note_on,,88.0,42.0,88.0,33504,87.25,192
1443,9.0,,,,35.0,,,,,0,note_on,,112.0,35.0,112.0,33504,87.25,192
1444,9.0,,,,35.0,,,,,44,note_on,,0.0,35.0,0.0,33548,87.36458333333333,192
1445,9.0,,,,42.0,,,,,0,note_on,,0.0,42.0,0.0,33548,87.36458333333333,192
1446,9.0,,,,51.0,,,,,52,note_on,,112.0,51.0,112.0,33600,87.5,192
1447,9.0,,,,42.0,,,,,0,note_on,,88.0,42.0,88.0,33600,87.5,192
1448,9.0,,,,35.0,,,,,0,note_on,,112.0,35.0,112.0,33600,87.5,192
1449,9.0,,,,40.0,,,,,0,note_on,,112.0,40.0,112.0,33600,87.5,192
1450,9.0,,,,51.0,,,,,44,note_on,,0.0,51.0,0.0,33644,87.61458333333333,192
1451,9.0,,,,40.0,,,,,0,note_on,,0.0,40.0,0.0,33644,87.61458333333333,192
1452,9.0,,,,35.0,,,,,0,note_on,,0.0,35.0,0.0,33644,87.61458333333333,192
1453,9.0,,,,42.0,,,,,0,note_on,,0.0,42.0,0.0,33644,87.61458333333333,192
1454,9.0,,,,51.0,,,,,52,note_on,,112.0,51.0,112.0,33696,87.75,192
1455,9.0,,,,42.0,,,,,0,note_on,,88.0,42.0,88.0,33696,87.75,192
1456,9.0,,,,51.0,,,,,44,note_on,,0.0,51.0,0.0,33740,87.86458333333333,192
1457,9.0,,,,42.0,,,,,0,note_on,,0.0,42.0,0.0,33740,87.86458333333333,192
1458,9.0,,,,35.0,,,,,4,note_on,,112.0,35.0,112.0,33744,87.875,192
1459,9.0,,,,35.0,,,,,44,note_on,,0.0,35.0,0.0,33788,87.98958333333333,192
1460,9.0,,,,42.0,,,,,4,note_on,,88.0,42.0,88.0,33792,88.0,192
1461,9.0,,,,35.0,,,,,0,note_on,,112.0,35.0,112.0,33792,88.0,192
1462,9.0,,,,42.0,,,,,44,note_on,,0.0,42.0,0.0,33836,88.11458333333333,192
1463,9.0,,,,35.0,,,,,0,note_on,,0.0,35.0,0.0,33836,88.11458333333333,192
1464,9.0,,,,42.0,,,,,52,note_on,,88.0,42.0,88.0,33888,88.25,192
1465,9.0,,,,35.0,,,,,0,note_on,,112.0,35.0,112.0,33888,88.25,192
1466,9.0,,,,35.0,,,,,44,note_on,,0.0,35.0,0.0,33932,88.36458333333333,192
1467,9.0,,,,42.0,,,,,0,note_on,,0.0,42.0,0.0,33932,88.36458333333333,192
1468,9.0,,,,51.0,,,,,52,note_on,,112.0,51.0,112.0,33984,88.5,192
1469,9.0,,,,42.0,,,,,0,note_on,,88.0,42.0,88.0,33984,88.5,192
1470,9.0,,,,40.0,,,,,0,note_on,,112.0,40.0,112.0,33984,88.5,192
1471,9.0,,,,35.0,,,,,0,note_on,,112.0,35.0,112.0,33984,88.5,192
1472,9.0,,,,51.0,,,,,44,note_on,,0.0,51.0,0.0,34028,88.61458333333333,192
1473,9.0,,,,40.0,,,,,0,note_on,,0.0,40.0,0.0,34028,88.61458333333333,192
1474,9.0,,,,35.0,,,,,0,note_on,,0.0,35.0,0.0,34028,88.61458333333333,192
1475,9.0,,,,42.0,,,,,0,note_on,,0.0,42.0,0.0,34028,88.61458333333333,192
1476,9.0,,,,42.0,,,,,52,note_on,,88.0,42.0,88.0,34080,88.75,192
1477,9.0,,,,42.0,,,,,44,note_on,,0.0,42.0,0.0,34124,88.86458333333333,192
1478,9.0,,,,35.0,,,,,52,note_on,,112.0,35.0,112.0,34176,89.0,192
1479,9.0,,,,42.0,,,,,0,note_on,,88.0,42.0,88.0,34176,89.0,192
1480,9.0,,,,42.0,,,,,44,note_on,,0.0,42.0,0.0,34220,89.11458333333333,192
1481,9.0,,,,35.0,,,,,0,note_on,,0.0,35.0,0.0,34220,89.11458333333333,192
1482,9.0,,,,42.0,,,,,52,note_on,,88.0,42.0,88.0,34272,89.25,192
1483,9.0,,,,35.0,,,,,0,note_on,,112.0,35.0,112.0,34272,89.25,192
1484,9.0,,,,35.0,,,,,44,note_on,,0.0,35.0,0.0,34316,89.36458333333333,192
1485,9.0,,,,42.0,,,,,0,note_on,,0.0,42.0,0.0,34316,89.36458333333333,192
1486,9.0,,,,40.0,,,,,52,note_on,,112.0,40.0,112.0,34368,89.5,192
1487,9.0,,,,42.0,,,,,0,note_on,,88.0,42.0,88.0,34368,89.5,192
1488,9.0,,,,51.0,,,,,0,note_on,,112.0,51.0,112.0,34368,89.5,192
1489,9.0,,,,35.0,,,,,0,note_on,,112.0,35.0,112.0,34368,89.5,192
1490,9.0,,,,51.0,,,,,44,note_on,,0.0,51.0,0.0,34412,89.61458333333333,192
1491,9.0,,,,42.0,,,,,0,note_on,,0.0,42.0,0.0,34412,89.61458333333333,192
1492,9.0,,,,40.0,,,,,0,note_on,,0.0,40.0,0.0,34412,89.61458333333333,192
1493,9.0,,,,35.0,,,,,0,note_on,,0.0,35.0,0.0,34412,89.61458333333333,192
1494,9.0,,,,42.0,,,,,52,note_on,,88.0,42.0,88.0,34464,89.75,192
1495,9.0,,,,51.0,,,,,0,note_on,,112.0,51.0,112.0,34464,89.75,192
1496,9.0,,,,51.0,,,,,44,note_on,,0.0,51.0,0.0,34508,89.86458333333333,192
1497,9.0,,,,42.0,,,,,0,note_on,,0.0,42.0,0.0,34508,89.86458333333333,192
1498,9.0,,,,35.0,,,,,4,note_on,,112.0,35.0,112.0,34512,89.875,192
1499,9.0,,,,35.0,,,,,44,note_on,,0.0,35.0,0.0,34556,89.98958333333333,192
1500,9.0,,,,35.0,,,,,4,note_on,,112.0,35.0,112.0,34560,90.0,192
1501,9.0,,,,42.0,,,,,0,note_on,,88.0,42.0,88.0,34560,90.0,192
1502,9.0,,,,42.0,,,,,44,note_on,,0.0,42.0,0.0,34604,90.11458333333333,192
1503,9.0,,,,35.0,,,,,0,note_on,,0.0,35.0,0.0,34604,90.11458333333333,192
1504,9.0,,,,35.0,,,,,52,note_on,,112.0,35.0,112.0,34656,90.25,192
1505,9.0,,,,42.0,,,,,0,note_on,,88.0,42.0,88.0,34656,90.25,192
1506,9.0,,,,42.0,,,,,44,note_on,,0.0,42.0,0.0,34700,90.36458333333333,192
1507,9.0,,,,35.0,,,,,0,note_on,,0.0,35.0,0.0,34700,90.36458333333333,192
1508,9.0,,,,42.0,,,,,52,note_on,,88.0,42.0,88.0,34752,90.5,192
1509,9.0,,,,35.0,,,,,0,note_on,,112.0,35.0,112.0,34752,90.5,192
1510,9.0,,,,51.0,,,,,0,note_on,,112.0,51.0,112.0,34752,90.5,192
1511,9.0,,,,40.0,,,,,0,note_on,,112.0,40.0,112.0,34752,90.5,192
1512,9.0,,,,51.0,,,,,44,note_on,,0.0,51.0,0.0,34796,90.61458333333333,192
1513,9.0,,,,40.0,,,,,0,note_on,,0.0,40.0,0.0,34796,90.61458333333333,192
1514,9.0,,,,35.0,,,,,0,note_on,,0.0,35.0,0.0,34796,90.61458333333333,192
1515,9.0,,,,42.0,,,,,0,note_on,,0.0,42.0,0.0,34796,90.61458333333333,192
1516,9.0,,,,42.0,,,,,52,note_on,,88.0,42.0,88.0,34848,90.75,192
1517,9.0,,,,42.0,,,,,44,note_on,,0.0,42.0,0.0,34892,90.86458333333333,192
1518,9.0,,,,35.0,,,,,52,note_on,,112.0,35.0,112.0,34944,91.0,192
1519,9.0,,,,42.0,,,,,0,note_on,,88.0,42.0,88.0,34944,91.0,192
1520,9.0,,,,35.0,,,,,44,note_on,,0.0,35.0,0.0,34988,91.11458333333333,192
1521,9.0,,,,42.0,,,,,0,note_on,,0.0,42.0,0.0,34988,91.11458333333333,192
1522,9.0,,,,42.0,,,,,52,note_on,,88.0,42.0,88.0,35040,91.25,192
1523,9.0,,,,35.0,,,,,0,note_on,,112.0,35.0,112.0,35040,91.25,192
1524,9.0,,,,35.0,,,,,44,note_on,,0.0,35.0,0.0,35084,91.36458333333333,192
1525,9.0,,,,42.0,,,,,0,note_on,,0.0,42.0,0.0,35084,91.36458333333333,192
1526,9.0,,,,42.0,,,,,52,note_on,,88.0,42.0,88.0,35136,91.5,192
1527,9.0,,,,35.0,,,,,0,note_on,,112.0,35.0,112.0,35136,91.5,192
1528,9.0,,,,51.0,,,,,0,note_on,,112.0,51.0,112.0,35136,91.5,192
1529,9.0,,,,40.0,,,,,0,note_on,,112.0,40.0,112.0,35136,91.5,192
1530,9.0,,,,42.0,,,,,44,note_on,,0.0,42.0,0.0,35180,91.61458333333333,192
1531,9.0,,,,40.0,,,,,0,note_on,,0.0,40.0,0.0,35180,91.61458333333333,192
1532,9.0,,,,51.0,,,,,0,note_on,,0.0,51.0,0.0,35180,91.61458333333333,192
1533,9.0,,,,35.0,,,,,0,note_on,,0.0,35.0,0.0,35180,91.61458333333333,192
1534,9.0,,,,51.0,,,,,52,note_on,,112.0,51.0,112.0,35232,91.75,192
1535,9.0,,,,42.0,,,,,0,note_on,,88.0,42.0,88.0,35232,91.75,192
1536,9.0,,,,51.0,,,,,44,note_on,,0.0,51.0,0.0,35276,91.86458333333333,192
1537,9.0,,,,42.0,,,,,0,note_on,,0.0,42.0,0.0,35276,91.86458333333333,192
1538,9.0,,,,35.0,,,,,4,note_on,,112.0,35.0,112.0,35280,91.875,192
1539,9.0,,,,35.0,,,,,44,note_on,,0.0,35.0,0.0,35324,91.98958333333333,192
1540,9.0,,,,35.0,,,,,4,note_on,,112.0,35.0,112.0,35328,92.0,192
1541,9.0,,,,42.0,,,,,0,note_on,,88.0,42.0,88.0,35328,92.0,192
1542,9.0,,,,35.0,,,,,44,note_on,,0.0,35.0,0.0,35372,92.11458333333333,192
1543,9.0,,,,42.0,,,,,0,note_on,,0.0,42.0,0.0,35372,92.11458333333333,192
1544,9.0,,,,42.0,,,,,52,note_on,,88.0,42.0,88.0,35424,92.25,192
1545,9.0,,,,35.0,,,,,0,note_on,,112.0,35.0,112.0,35424,92.25,192
1546,9.0,,,,42.0,,,,,44,note_on,,0.0,42.0,0.0,35468,92.36458333333333,192
1547,9.0,,,,35.0,,,,,0,note_on,,0.0,35.0,0.0,35468,92.36458333333333,192
1548,9.0,,,,42.0,,,,,52,note_on,,88.0,42.0,88.0,35520,92.5,192
1549,9.0,,,,51.0,,,,,0,note_on,,112.0,51.0,112.0,35520,92.5,192
1550,9.0,,,,40.0,,,,,0,note_on,,112.0,40.0,112.0,35520,92.5,192
1551,9.0,,,,35.0,,,,,0,note_on,,112.0,35.0,112.0,35520,92.5,192
1552,9.0,,,,42.0,,,,,44,note_on,,0.0,42.0,0.0,35564,92.61458333333333,192
1553,9.0,,,,40.0,,,,,0,note_on,,0.0,40.0,0.0,35564,92.61458333333333,192
1554,9.0,,,,35.0,,,,,0,note_on,,0.0,35.0,0.0,35564,92.61458333333333,192
1555,9.0,,,,51.0,,,,,0,note_on,,0.0,51.0,0.0,35564,92.61458333333333,192
1556,9.0,,,,42.0,,,,,52,note_on,,88.0,42.0,88.0,35616,92.75,192
1557,9.0,,,,42.0,,,,,44,note_on,,0.0,42.0,0.0,35660,92.86458333333333,192
1558,9.0,,,,42.0,,,,,52,note_on,,88.0,42.0,88.0,35712,93.0,192
1559,9.0,,,,35.0,,,,,0,note_on,,112.0,35.0,112.0,35712,93.0,192
1560,9.0,,,,42.0,,,,,44,note_on,,0.0,42.0,0.0,35756,93.11458333333333,192
1561,9.0,,,,35.0,,,,,0,note_on,,0.0,35.0,0.0,35756,93.11458333333333,192
1562,9.0,,,,35.0,,,,,52,note_on,,112.0,35.0,112.0,35808,93.25,192
1563,9.0,,,,42.0,,,,,0,note_on,,88.0,42.0,88.0,35808,93.25,192
1564,9.0,,,,42.0,,,,,44,note_on,,0.0,42.0,0.0,35852,93.36458333333333,192
1565,9.0,,,,35.0,,,,,0,note_on,,0.0,35.0,0.0,35852,93.36458333333333,192
1566,9.0,,,,51.0,,,,,52,note_on,,112.0,51.0,112.0,35904,93.5,192
1567,9.0,,,,35.0,,,,,0,note_on,,112.0,35.0,112.0,35904,93.5,192
1568,9.0,,,,40.0,,,,,0,note_on,,112.0,40.0,112.0,35904,93.5,192
1569,9.0,,,,42.0,,,,,0,note_on,,88.0,42.0,88.0,35904,93.5,192
1570,9.0,,,,40.0,,,,,44,note_on,,0.0,40.0,0.0,35948,93.61458333333333,192
1571,9.0,,,,35.0,,,,,0,note_on,,0.0,35.0,0.0,35948,93.61458333333333,192
1572,9.0,,,,51.0,,,,,0,note_on,,0.0,51.0,0.0,35948,93.61458333333333,192
1573,9.0,,,,42.0,,,,,0,note_on,,0.0,42.0,0.0,35948,93.61458333333333,192
1574,9.0,,,,42.0,,,,,52,note_on,,88.0,42.0,88.0,36000,93.75,192
1575,9.0,,,,51.0,,,,,0,note_on,,112.0,51.0,112.0,36000,93.75,192
1576,9.0,,,,51.0,,,,,44,note_on,,0.0,51.0,0.0,36044,93.86458333333333,192
1577,9.0,,,,42.0,,,,,0,note_on,,0.0,42.0,0.0,36044,93.86458333333333,192
1578,9.0,,,,35.0,,,,,4,note_on,,112.0,35.0,112.0,36048,93.875,192
1579,9.0,,,,35.0,,,,,44,note_on,,0.0,35.0,0.0,36092,93.98958333333333,192
1580,9.0,,,,42.0,,,,,4,note_on,,88.0,42.0,88.0,36096,94.0,192
1581,9.0,,,,35.0,,,,,0,note_on,,112.0,35.0,112.0,36096,94.0,192
1582,9.0,,,,35.0,,,,,44,note_on,,0.0,35.0,0.0,36140,94.11458333333333,192
1583,9.0,,,,42.0,,,,,0,note_on,,0.0,42.0,0.0,36140,94.11458333333333,192
1584,9.0,,,,35.0,,,,,52,note_on,,112.0,35.0,112.0,36192,94.25,192
1585,9.0,,,,42.0,,,,,0,note_on,,88.0,42.0,88.0,36192,94.25,192
1586,9.0,,,,42.0,,,,,44,note_on,,0.0,42.0,0.0,36236,94.36458333333333,192
1587,9.0,,,,35.0,,,,,0,note_on,,0.0,35.0,0.0,36236,94.36458333333333,192
1588,9.0,,,,35.0,,,,,52,note_on,,112.0,35.0,112.0,36288,94.5,192
1589,9.0,,,,51.0,,,,,0,note_on,,112.0,51.0,112.0,36288,94.5,192
1590,9.0,,,,42.0,,,,,0,note_on,,88.0,42.0,88.0,36288,94.5,192
1591,9.0,,,,40.0,,,,,0,note_on,,112.0,40.0,112.0,36288,94.5,192
1592,9.0,,,,42.0,,,,,44,note_on,,0.0,42.0,0.0,36332,94.61458333333333,192
1593,9.0,,,,40.0,,,,,0,note_on,,0.0,40.0,0.0,36332,94.61458333333333,192
1594,9.0,,,,51.0,,,,,0,note_on,,0.0,51.0,0.0,36332,94.61458333333333,192
1595,9.0,,,,35.0,,,,,0,note_on,,0.0,35.0,0.0,36332,94.61458333333333,192
1596,9.0,,,,42.0,,,,,52,note_on,,88.0,42.0,88.0,36384,94.75,192
1597,9.0,,,,42.0,,,,,44,note_on,,0.0,42.0,0.0,36428,94.86458333333333,192
1598,9.0,,,,42.0,,,,,52,note_on,,88.0,42.0,88.0,36480,95.0,192
1599,9.0,,,,35.0,,,,,0,note_on,,112.0,35.0,112.0,36480,95.0,192
1600,9.0,,,,42.0,,,,,44,note_on,,0.0,42.0,0.0,36524,95.11458333333333,192
1601,9.0,,,,35.0,,,,,0,note_on,,0.0,35.0,0.0,36524,95.11458333333333,192
1602,9.0,,,,35.0,,,,,52,note_on,,112.0,35.0,112.0,36576,95.25,192
1603,9.0,,,,42.0,,,,,0,note_on,,88.0,42.0,88.0,36576,95.25,192
1604,9.0,,,,42.0,,,,,44,note_on,,0.0,42.0,0.0,36620,95.36458333333333,192
1605,9.0,,,,35.0,,,,,0,note_on,,0.0,35.0,0.0,36620,95.36458333333333,192
1606,9.0,,,,35.0,,,,,52,note_on,,112.0,35.0,112.0,36672,95.5,192
1607,9.0,,,,42.0,,,,,0,note_on,,88.0,42.0,88.0,36672,95.5,192
1608,9.0,,,,40.0,,,,,0,note_on,,112.0,40.0,112.0,36672,95.5,192
1609,9.0,,,,51.0,,,,,0,note_on,,112.0,51.0,112.0,36672,95.5,192
1610,9.0,,,,35.0,,,,,44,note_on,,0.0,35.0,0.0,36716,95.61458333333333,192
1611,9.0,,,,51.0,,,,,0,note_on,,0.0,51.0,0.0,36716,95.61458333333333,192
1612,9.0,,,,40.0,,,,,0,note_on,,0.0,40.0,0.0,36716,95.61458333333333,192
1613,9.0,,,,42.0,,,,,0,note_on,,0.0,42.0,0.0,36716,95.61458333333333,192
1614,9.0,,,,51.0,,,,,52,note_on,,112.0,51.0,112.0,36768,95.75,192
1615,9.0,,,,42.0,,,,,0,note_on,,88.0,42.0,88.0,36768,95.75,192
1616,9.0,,,,51.0,,,,,44,note_on,,0.0,51.0,0.0,36812,95.86458333333333,192
1617,9.0,,,,42.0,,,,,0,note_on,,0.0,42.0,0.0,36812,95.86458333333333,192
1618,9.0,,,,35.0,,,,,820,note_on,,112.0,35.0,112.0,37632,98.0,192
1619,9.0,,,,42.0,,,,,0,note_on,,88.0,42.0,88.0,37632,98.0,192
1620,9.0,,,,49.0,,,,,0,note_on,,112.0,49.0,112.0,37632,98.0,192
1621,9.0,,,,49.0,,,,,44,note_on,,0.0,49.0,0.0,37676,98.11458333333333,192
1622,9.0,,,,42.0,,,,,0,note_on,,0.0,42.0,0.0,37676,98.11458333333333,192
1623,9.0,,,,35.0,,,,,0,note_on,,0.0,35.0,0.0,37676,98.11458333333333,192
1624,9.0,,,,42.0,,,,,52,note_on,,88.0,42.0,88.0,37728,98.25,192
1625,9.0,,,,35.0,,,,,0,note_on,,112.0,35.0,112.0,37728,98.25,192
1626,9.0,,,,42.0,,,,,44,note_on,,0.0,42.0,0.0,37772,98.36458333333333,192
1627,9.0,,,,35.0,,,,,0,note_on,,0.0,35.0,0.0,37772,98.36458333333333,192
1628,9.0,,,,40.0,,,,,52,note_on,,112.0,40.0,112.0,37824,98.5,192
1629,9.0,,,,51.0,,,,,0,note_on,,112.0,51.0,112.0,37824,98.5,192
1630,9.0,,,,35.0,,,,,0,note_on,,112.0,35.0,112.0,37824,98.5,192
1631,9.0,,,,42.0,,,,,0,note_on,,88.0,42.0,88.0,37824,98.5,192
1632,9.0,,,,40.0,,,,,44,note_on,,0.0,40.0,0.0,37868,98.61458333333333,192
1633,9.0,,,,35.0,,,,,0,note_on,,0.0,35.0,0.0,37868,98.61458333333333,192
1634,9.0,,,,42.0,,,,,0,note_on,,0.0,42.0,0.0,37868,98.61458333333333,192
1635,9.0,,,,51.0,,,,,0,note_on,,0.0,51.0,0.0,37868,98.61458333333333,192
1636,9.0,,,,42.0,,,,,52,note_on,,88.0,42.0,88.0,37920,98.75,192
1637,9.0,,,,42.0,,,,,44,note_on,,0.0,42.0,0.0,37964,98.86458333333333,192
1638,9.0,,,,42.0,,,,,52,note_on,,88.0,42.0,88.0,38016,99.0,192
1639,9.0,,,,35.0,,,,,0,note_on,,112.0,35.0,112.0,38016,99.0,192
1640,9.0,,,,42.0,,,,,44,note_on,,0.0,42.0,0.0,38060,99.11458333333333,192
1641,9.0,,,,35.0,,,,,0,note_on,,0.0,35.0,0.0,38060,99.11458333333333,192
1642,9.0,,,,35.0,,,,,52,note_on,,112.0,35.0,112.0,38112,99.25,192
1643,9.0,,,,42.0,,,,,0,note_on,,88.0,42.0,88.0,38112,99.25,192
1644,9.0,,,,42.0,,,,,44,note_on,,0.0,42.0,0.0,38156,99.36458333333333,192
1645,9.0,,,,35.0,,,,,0,note_on,,0.0,35.0,0.0,38156,99.36458333333333,192
1646,9.0,,,,40.0,,,,,52,note_on,,112.0,40.0,112.0,38208,99.5,192
1647,9.0,,,,35.0,,,,,0,note_on,,112.0,35.0,112.0,38208,99.5,192
1648,9.0,,,,42.0,,,,,0,note_on,,88.0,42.0,88.0,38208,99.5,192
1649,9.0,,,,51.0,,,,,0,note_on,,112.0,51.0,112.0,38208,99.5,192
1650,9.0,,,,42.0,,,,,44,note_on,,0.0,42.0,0.0,38252,99.61458333333333,192
1651,9.0,,,,35.0,,,,,0,note_on,,0.0,35.0,0.0,38252,99.61458333333333,192
1652,9.0,,,,40.0,,,,,0,note_on,,0.0,40.0,0.0,38252,99.61458333333333,192
1653,9.0,,,,51.0,,,,,0,note_on,,0.0,51.0,0.0,38252,99.61458333333333,192
1654,9.0,,,,51.0,,,,,52,note_on,,112.0,51.0,112.0,38304,99.75,192
1655,9.0,,,,42.0,,,,,0,note_on,,88.0,42.0,88.0,38304,99.75,192
1656,9.0,,,,42.0,,,,,44,note_on,,0.0,42.0,0.0,38348,99.86458333333333,192
1657,9.0,,,,51.0,,,,,0,note_on,,0.0,51.0,0.0,38348,99.86458333333333,192
1658,9.0,,,,35.0,,,,,4,note_on,,112.0,35.0,112.0,38352,99.875,192
1659,9.0,,,,35.0,,,,,44,note_on,,0.0,35.0,0.0,38396,99.98958333333333,192
1660,9.0,,,,42.0,,,,,4,note_on,,88.0,42.0,88.0,38400,100.0,192
1661,9.0,,,,35.0,,,,,0,note_on,,112.0,35.0,112.0,38400,100.0,192
1662,9.0,,,,42.0,,,,,44,note_on,,0.0,42.0,0.0,38444,100.11458333333333,192
1663,9.0,,,,35.0,,,,,0,note_on,,0.0,35.0,0.0,38444,100.11458333333333,192
1664,9.0,,,,42.0,,,,,52,note_on,,88.0,42.0,88.0,38496,100.25,192
1665,9.0,,,,35.0,,,,,0,note_on,,112.0,35.0,112.0,38496,100.25,192
1666,9.0,,,,35.0,,,,,44,note_on,,0.0,35.0,0.0,38540,100.36458333333333,192
1667,9.0,,,,42.0,,,,,0,note_on,,0.0,42.0,0.0,38540,100.36458333333333,192
1668,9.0,,,,51.0,,,,,52,note_on,,112.0,51.0,112.0,38592,100.5,192
1669,9.0,,,,35.0,,,,,0,note_on,,112.0,35.0,112.0,38592,100.5,192
1670,9.0,,,,40.0,,,,,0,note_on,,112.0,40.0,112.0,38592,100.5,192
1671,9.0,,,,42.0,,,,,0,note_on,,88.0,42.0,88.0,38592,100.5,192
1672,9.0,,,,35.0,,,,,44,note_on,,0.0,35.0,0.0,38636,100.61458333333333,192
1673,9.0,,,,40.0,,,,,0,note_on,,0.0,40.0,0.0,38636,100.61458333333333,192
1674,9.0,,,,51.0,,,,,0,note_on,,0.0,51.0,0.0,38636,100.61458333333333,192
1675,9.0,,,,42.0,,,,,0,note_on,,0.0,42.0,0.0,38636,100.61458333333333,192
1676,9.0,,,,42.0,,,,,52,note_on,,88.0,42.0,88.0,38688,100.75,192
1677,9.0,,,,42.0,,,,,44,note_on,,0.0,42.0,0.0,38732,100.86458333333333,192
1678,9.0,,,,42.0,,,,,52,note_on,,88.0,42.0,88.0,38784,101.0,192
1679,9.0,,,,35.0,,,,,0,note_on,,112.0,35.0,112.0,38784,101.0,192
1680,9.0,,,,42.0,,,,,44,note_on,,0.0,42.0,0.0,38828,101.11458333333333,192
1681,9.0,,,,35.0,,,,,0,note_on,,0.0,35.0,0.0,38828,101.11458333333333,192
1682,9.0,,,,42.0,,,,,52,note_on,,88.0,42.0,88.0,38880,101.25,192
1683,9.0,,,,35.0,,,,,0,note_on,,112.0,35.0,112.0,38880,101.25,192
1684,9.0,,,,35.0,,,,,44,note_on,,0.0,35.0,0.0,38924,101.36458333333333,192
1685,9.0,,,,42.0,,,,,0,note_on,,0.0,42.0,0.0,38924,101.36458333333333,192
1686,9.0,,,,51.0,,,,,52,note_on,,112.0,51.0,112.0,38976,101.5,192
1687,9.0,,,,42.0,,,,,0,note_on,,88.0,42.0,88.0,38976,101.5,192
1688,9.0,,,,40.0,,,,,0,note_on,,112.0,40.0,112.0,38976,101.5,192
1689,9.0,,,,35.0,,,,,0,note_on,,112.0,35.0,112.0,38976,101.5,192
1690,9.0,,,,51.0,,,,,44,note_on,,0.0,51.0,0.0,39020,101.61458333333333,192
1691,9.0,,,,35.0,,,,,0,note_on,,0.0,35.0,0.0,39020,101.61458333333333,192
1692,9.0,,,,40.0,,,,,0,note_on,,0.0,40.0,0.0,39020,101.61458333333333,192
1693,9.0,,,,42.0,,,,,0,note_on,,0.0,42.0,0.0,39020,101.61458333333333,192
1694,9.0,,,,51.0,,,,,52,note_on,,112.0,51.0,112.0,39072,101.75,192
1695,9.0,,,,42.0,,,,,0,note_on,,88.0,42.0,88.0,39072,101.75,192
1696,9.0,,,,42.0,,,,,44,note_on,,0.0,42.0,0.0,39116,101.86458333333333,192
1697,9.0,,,,51.0,,,,,0,note_on,,0.0,51.0,0.0,39116,101.86458333333333,192
1698,9.0,,,,35.0,,,,,4,note_on,,112.0,35.0,112.0,39120,101.875,192
1699,9.0,,,,35.0,,,,,44,note_on,,0.0,35.0,0.0,39164,101.98958333333333,192
1700,9.0,,,,35.0,,,,,4,note_on,,112.0,35.0,112.0,39168,102.0,192
1701,9.0,,,,42.0,,,,,0,note_on,,88.0,42.0,88.0,39168,102.0,192
1702,9.0,,,,42.0,,,,,44,note_on,,0.0,42.0,0.0,39212,102.11458333333333,192
1703,9.0,,,,35.0,,,,,0,note_on,,0.0,35.0,0.0,39212,102.11458333333333,192
1704,9.0,,,,35.0,,,,,52,note_on,,112.0,35.0,112.0,39264,102.25,192
1705,9.0,,,,42.0,,,,,0,note_on,,88.0,42.0,88.0,39264,102.25,192
1706,9.0,,,,42.0,,,,,44,note_on,,0.0,42.0,0.0,39308,102.36458333333333,192
1707,9.0,,,,35.0,,,,,0,note_on,,0.0,35.0,0.0,39308,102.36458333333333,192
1708,9.0,,,,35.0,,,,,52,note_on,,112.0,35.0,112.0,39360,102.5,192
1709,9.0,,,,51.0,,,,,0,note_on,,112.0,51.0,112.0,39360,102.5,192
1710,9.0,,,,42.0,,,,,0,note_on,,88.0,42.0,88.0,39360,102.5,192
1711,9.0,,,,40.0,,,,,0,note_on,,112.0,40.0,112.0,39360,102.5,192
1712,9.0,,,,42.0,,,,,44,note_on,,0.0,42.0,0.0,39404,102.61458333333333,192
1713,9.0,,,,40.0,,,,,0,note_on,,0.0,40.0,0.0,39404,102.61458333333333,192
1714,9.0,,,,51.0,,,,,0,note_on,,0.0,51.0,0.0,39404,102.61458333333333,192
1715,9.0,,,,35.0,,,,,0,note_on,,0.0,35.0,0.0,39404,102.61458333333333,192
1716,9.0,,,,42.0,,,,,52,note_on,,88.0,42.0,88.0,39456,102.75,192
1717,9.0,,,,42.0,,,,,44,note_on,,0.0,42.0,0.0,39500,102.86458333333333,192
1718,9.0,,,,35.0,,,,,52,note_on,,112.0,35.0,112.0,39552,103.0,192
1719,9.0,,,,42.0,,,,,0,note_on,,88.0,42.0,88.0,39552,103.0,192
1720,9.0,,,,35.0,,,,,44,note_on,,0.0,35.0,0.0,39596,103.11458333333333,192
1721,9.0,,,,42.0,,,,,0,note_on,,0.0,42.0,0.0,39596,103.11458333333333,192
1722,9.0,,,,42.0,,,,,52,note_on,,88.0,42.0,88.0,39648,103.25,192
1723,9.0,,,,35.0,,,,,0,note_on,,112.0,35.0,112.0,39648,103.25,192
1724,9.0,,,,35.0,,,,,44,note_on,,0.0,35.0,0.0,39692,103.36458333333333,192
1725,9.0,,,,42.0,,,,,0,note_on,,0.0,42.0,0.0,39692,103.36458333333333,192
1726,9.0,,,,51.0,,,,,52,note_on,,112.0,51.0,112.0,39744,103.5,192
1727,9.0,,,,42.0,,,,,0,note_on,,88.0,42.0,88.0,39744,103.5,192
1728,9.0,,,,35.0,,,,,0,note_on,,112.0,35.0,112.0,39744,103.5,192
1729,9.0,,,,40.0,,,,,0,note_on,,112.0,40.0,112.0,39744,103.5,192
1730,9.0,,,,51.0,,,,,44,note_on,,0.0,51.0,0.0,39788,103.61458333333333,192
1731,9.0,,,,40.0,,,,,0,note_on,,0.0,40.0,0.0,39788,103.61458333333333,192
1732,9.0,,,,35.0,,,,,0,note_on,,0.0,35.0,0.0,39788,103.61458333333333,192
1733,9.0,,,,42.0,,,,,0,note_on,,0.0,42.0,0.0,39788,103.61458333333333,192
1734,9.0,,,,42.0,,,,,52,note_on,,88.0,42.0,88.0,39840,103.75,192
1735,9.0,,,,51.0,,,,,0,note_on,,112.0,51.0,112.0,39840,103.75,192
1736,9.0,,,,51.0,,,,,44,note_on,,0.0,51.0,0.0,39884,103.86458333333333,192
1737,9.0,,,,42.0,,,,,0,note_on,,0.0,42.0,0.0,39884,103.86458333333333,192
1738,9.0,,,,35.0,,,,,4,note_on,,112.0,35.0,112.0,39888,103.875,192
1739,9.0,,,,35.0,,,,,44,note_on,,0.0,35.0,0.0,39932,103.98958333333333,192
1740,9.0,,,,42.0,,,,,4,note_on,,88.0,42.0,88.0,39936,104.0,192
1741,9.0,,,,35.0,,,,,0,note_on,,112.0,35.0,112.0,39936,104.0,192
1742,9.0,,,,42.0,,,,,44,note_on,,0.0,42.0,0.0,39980,104.11458333333333,192
1743,9.0,,,,35.0,,,,,0,note_on,,0.0,35.0,0.0,39980,104.11458333333333,192
1744,9.0,,,,35.0,,,,,52,note_on,,112.0,35.0,112.0,40032,104.25,192
1745,9.0,,,,42.0,,,,,0,note_on,,88.0,42.0,88.0,40032,104.25,192
1746,9.0,,,,35.0,,,,,44,note_on,,0.0,35.0,0.0,40076,104.36458333333333,192
1747,9.0,,,,42.0,,,,,0,note_on,,0.0,42.0,0.0,40076,104.36458333333333,192
1748,9.0,,,,51.0,,,,,52,note_on,,112.0,51.0,112.0,40128,104.5,192
1749,9.0,,,,42.0,,,,,0,note_on,,88.0,42.0,88.0,40128,104.5,192
1750,9.0,,,,35.0,,,,,0,note_on,,112.0,35.0,112.0,40128,104.5,192
1751,9.0,,,,40.0,,,,,0,note_on,,112.0,40.0,112.0,40128,104.5,192
1752,9.0,,,,35.0,,,,,44,note_on,,0.0,35.0,0.0,40172,104.61458333333333,192
1753,9.0,,,,42.0,,,,,0,note_on,,0.0,42.0,0.0,40172,104.61458333333333,192
1754,9.0,,,,51.0,,,,,0,note_on,,0.0,51.0,0.0,40172,104.61458333333333,192
1755,9.0,,,,40.0,,,,,0,note_on,,0.0,40.0,0.0,40172,104.61458333333333,192
1756,9.0,,,,42.0,,,,,52,note_on,,88.0,42.0,88.0,40224,104.75,192
1757,9.0,,,,42.0,,,,,44,note_on,,0.0,42.0,0.0,40268,104.86458333333333,192
1758,9.0,,,,42.0,,,,,52,note_on,,88.0,42.0,88.0,40320,105.0,192
1759,9.0,,,,35.0,,,,,0,note_on,,112.0,35.0,112.0,40320,105.0,192
1760,9.0,,,,42.0,,,,,44,note_on,,0.0,42.0,0.0,40364,105.11458333333333,192
1761,9.0,,,,35.0,,,,,0,note_on,,0.0,35.0,0.0,40364,105.11458333333333,192
1762,9.0,,,,42.0,,,,,52,note_on,,88.0,42.0,88.0,40416,105.25,192
1763,9.0,,,,35.0,,,,,0,note_on,,112.0,35.0,112.0,40416,105.25,192
1764,9.0,,,,35.0,,,,,44,note_on,,0.0,35.0,0.0,40460,105.36458333333333,192
1765,9.0,,,,42.0,,,,,0,note_on,,0.0,42.0,0.0,40460,105.36458333333333,192
1766,9.0,,,,40.0,,,,,52,note_on,,112.0,40.0,112.0,40512,105.5,192
1767,9.0,,,,51.0,,,,,0,note_on,,112.0,51.0,112.0,40512,105.5,192
1768,9.0,,,,35.0,,,,,0,note_on,,112.0,35.0,112.0,40512,105.5,192
1769,9.0,,,,42.0,,,,,0,note_on,,88.0,42.0,88.0,40512,105.5,192
1770,9.0,,,,40.0,,,,,44,note_on,,0.0,40.0,0.0,40556,105.61458333333333,192
1771,9.0,,,,42.0,,,,,0,note_on,,0.0,42.0,0.0,40556,105.61458333333333,192
1772,9.0,,,,35.0,,,,,0,note_on,,0.0,35.0,0.0,40556,105.61458333333333,192
1773,9.0,,,,51.0,,,,,0,note_on,,0.0,51.0,0.0,40556,105.61458333333333,192
1774,9.0,,,,51.0,,,,,52,note_on,,112.0,51.0,112.0,40608,105.75,192
1775,9.0,,,,42.0,,,,,0,note_on,,88.0,42.0,88.0,40608,105.75,192
1776,9.0,,,,42.0,,,,,44,note_on,,0.0,42.0,0.0,40652,105.86458333333333,192
1777,9.0,,,,51.0,,,,,0,note_on,,0.0,51.0,0.0,40652,105.86458333333333,192
1778,9.0,,,,35.0,,,,,4,note_on,,112.0,35.0,112.0,40656,105.875,192
1779,9.0,,,,35.0,,,,,44,note_on,,0.0,35.0,0.0,40700,105.98958333333333,192
1780,9.0,,,,35.0,,,,,4,note_on,,112.0,35.0,112.0,40704,106.0,192
1781,9.0,,,,42.0,,,,,0,note_on,,88.0,42.0,88.0,40704,106.0,192
1782,9.0,,,,42.0,,,,,44,note_on,,0.0,42.0,0.0,40748,106.11458333333333,192
1783,9.0,,,,35.0,,,,,0,note_on,,0.0,35.0,0.0,40748,106.11458333333333,192
1784,9.0,,,,35.0,,,,,52,note_on,,112.0,35.0,112.0,40800,106.25,192
1785,9.0,,,,42.0,,,,,0,note_on,,88.0,42.0,88.0,40800,106.25,192
1786,9.0,,,,42.0,,,,,44,note_on,,0.0,42.0,0.0,40844,106.36458333333333,192
1787,9.0,,,,35.0,,,,,0,note_on,,0.0,35.0,0.0,40844,106.36458333333333,192
1788,9.0,,,,35.0,,,,,52,note_on,,112.0,35.0,112.0,40896,106.5,192
1789,9.0,,,,40.0,,,,,0,note_on,,112.0,40.0,112.0,40896,106.5,192
1790,9.0,,,,51.0,,,,,0,note_on,,112.0,51.0,112.0,40896,106.5,192
1791,9.0,,,,42.0,,,,,0,note_on,,88.0,42.0,88.0,40896,106.5,192
1792,9.0,,,,51.0,,,,,44,note_on,,0.0,51.0,0.0,40940,106.61458333333333,192
1793,9.0,,,,42.0,,,,,0,note_on,,0.0,42.0,0.0,40940,106.61458333333333,192
1794,9.0,,,,40.0,,,,,0,note_on,,0.0,40.0,0.0,40940,106.61458333333333,192
1795,9.0,,,,35.0,,,,,0,note_on,,0.0,35.0,0.0,40940,106.61458333333333,192
1796,9.0,,,,42.0,,,,,52,note_on,,88.0,42.0,88.0,40992,106.75,192
1797,9.0,,,,42.0,,,,,44,note_on,,0.0,42.0,0.0,41036,106.86458333333333,192
1798,9.0,,,,42.0,,,,,52,note_on,,88.0,42.0,88.0,41088,107.0,192
1799,9.0,,,,35.0,,,,,0,note_on,,112.0,35.0,112.0,41088,107.0,192
1800,9.0,,,,42.0,,,,,44,note_on,,0.0,42.0,0.0,41132,107.11458333333333,192
1801,9.0,,,,35.0,,,,,0,note_on,,0.0,35.0,0.0,41132,107.11458333333333,192
1802,9.0,,,,42.0,,,,,52,note_on,,88.0,42.0,88.0,41184,107.25,192
1803,9.0,,,,35.0,,,,,0,note_on,,112.0,35.0,112.0,41184,107.25,192
1804,9.0,,,,35.0,,,,,44,note_on,,0.0,35.0,0.0,41228,107.36458333333333,192
1805,9.0,,,,42.0,,,,,0,note_on,,0.0,42.0,0.0,41228,107.36458333333333,192
1806,9.0,,,,51.0,,,,,52,note_on,,112.0,51.0,112.0,41280,107.5,192
1807,9.0,,,,40.0,,,,,0,note_on,,112.0,40.0,112.0,41280,107.5,192
1808,9.0,,,,35.0,,,,,0,note_on,,112.0,35.0,112.0,41280,107.5,192
1809,9.0,,,,42.0,,,,,0,note_on,,88.0,42.0,88.0,41280,107.5,192
1810,9.0,,,,51.0,,,,,44,note_on,,0.0,51.0,0.0,41324,107.61458333333333,192
1811,9.0,,,,42.0,,,,,0,note_on,,0.0,42.0,0.0,41324,107.61458333333333,192
1812,9.0,,,,35.0,,,,,0,note_on,,0.0,35.0,0.0,41324,107.61458333333333,192
1813,9.0,,,,40.0,,,,,0,note_on,,0.0,40.0,0.0,41324,107.61458333333333,192
1814,9.0,,,,42.0,,,,,52,note_on,,88.0,42.0,88.0,41376,107.75,192
1815,9.0,,,,51.0,,,,,0,note_on,,112.0,51.0,112.0,41376,107.75,192
1816,9.0,,,,51.0,,,,,44,note_on,,0.0,51.0,0.0,41420,107.86458333333333,192
1817,9.0,,,,42.0,,,,,0,note_on,,0.0,42.0,0.0,41420,107.86458333333333,192
1818,9.0,,,,35.0,,,,,4,note_on,,112.0,35.0,112.0,41424,107.875,192
1819,9.0,,,,35.0,,,,,44,note_on,,0.0,35.0,0.0,41468,107.98958333333333,192
1820,9.0,,,,42.0,,,,,4,note_on,,88.0,42.0,88.0,41472,108.0,192
1821,9.0,,,,35.0,,,,,0,note_on,,112.0,35.0,112.0,41472,108.0,192
1822,9.0,,,,42.0,,,,,44,note_on,,0.0,42.0,0.0,41516,108.11458333333333,192
1823,9.0,,,,35.0,,,,,0,note_on,,0.0,35.0,0.0,41516,108.11458333333333,192
1824,9.0,,,,42.0,,,,,52,note_on,,88.0,42.0,88.0,41568,108.25,192
1825,9.0,,,,35.0,,,,,0,note_on,,112.0,35.0,112.0,41568,108.25,192
1826,9.0,,,,42.0,,,,,44,note_on,,0.0,42.0,0.0,41612,108.36458333333333,192
1827,9.0,,,,35.0,,,,,0,note_on,,0.0,35.0,0.0,41612,108.36458333333333,192
1828,9.0,,,,40.0,,,,,52,note_on,,112.0,40.0,112.0,41664,108.5,192
1829,9.0,,,,51.0,,,,,0,note_on,,112.0,51.0,112.0,41664,108.5,192
1830,9.0,,,,35.0,,,,,0,note_on,,112.0,35.0,112.0,41664,108.5,192
1831,9.0,,,,42.0,,,,,0,note_on,,88.0,42.0,88.0,41664,108.5,192
1832,9.0,,,,51.0,,,,,44,note_on,,0.0,51.0,0.0,41708,108.61458333333333,192
1833,9.0,,,,35.0,,,,,0,note_on,,0.0,35.0,0.0,41708,108.61458333333333,192
1834,9.0,,,,40.0,,,,,0,note_on,,0.0,40.0,0.0,41708,108.61458333333333,192
1835,9.0,,,,42.0,,,,,0,note_on,,0.0,42.0,0.0,41708,108.61458333333333,192
1836,9.0,,,,42.0,,,,,52,note_on,,88.0,42.0,88.0,41760,108.75,192
1837,9.0,,,,42.0,,,,,44,note_on,,0.0,42.0,0.0,41804,108.86458333333333,192
1838,9.0,,,,35.0,,,,,52,note_on,,112.0,35.0,112.0,41856,109.0,192
1839,9.0,,,,42.0,,,,,0,note_on,,88.0,42.0,88.0,41856,109.0,192
1840,9.0,,,,35.0,,,,,44,note_on,,0.0,35.0,0.0,41900,109.11458333333333,192
1841,9.0,,,,42.0,,,,,0,note_on,,0.0,42.0,0.0,41900,109.11458333333333,192
1842,9.0,,,,35.0,,,,,52,note_on,,112.0,35.0,112.0,41952,109.25,192
1843,9.0,,,,42.0,,,,,0,note_on,,88.0,42.0,88.0,41952,109.25,192
1844,9.0,,,,42.0,,,,,44,note_on,,0.0,42.0,0.0,41996,109.36458333333333,192
1845,9.0,,,,35.0,,,,,0,note_on,,0.0,35.0,0.0,41996,109.36458333333333,192
1846,9.0,,,,40.0,,,,,52,note_on,,112.0,40.0,112.0,42048,109.5,192
1847,9.0,,,,35.0,,,,,0,note_on,,112.0,35.0,112.0,42048,109.5,192
1848,9.0,,,,42.0,,,,,0,note_on,,88.0,42.0,88.0,42048,109.5,192
1849,9.0,,,,51.0,,,,,0,note_on,,112.0,51.0,112.0,42048,109.5,192
1850,9.0,,,,40.0,,,,,44,note_on,,0.0,40.0,0.0,42092,109.61458333333333,192
1851,9.0,,,,51.0,,,,,0,note_on,,0.0,51.0,0.0,42092,109.61458333333333,192
1852,9.0,,,,42.0,,,,,0,note_on,,0.0,42.0,0.0,42092,109.61458333333333,192
1853,9.0,,,,35.0,,,,,0,note_on,,0.0,35.0,0.0,42092,109.61458333333333,192
1854,9.0,,,,42.0,,,,,52,note_on,,88.0,42.0,88.0,42144,109.75,192
1855,9.0,,,,51.0,,,,,0,note_on,,112.0,51.0,112.0,42144,109.75,192
1856,9.0,,,,51.0,,,,,44,note_on,,0.0,51.0,0.0,42188,109.86458333333333,192
1857,9.0,,,,42.0,,,,,0,note_on,,0.0,42.0,0.0,42188,109.86458333333333,192
1858,9.0,,,,35.0,,,,,4,note_on,,112.0,35.0,112.0,42192,109.875,192
1859,9.0,,,,35.0,,,,,44,note_on,,0.0,35.0,0.0,42236,109.98958333333333,192
1860,9.0,,,,42.0,,,,,4,note_on,,88.0,42.0,88.0,42240,110.0,192
1861,9.0,,,,35.0,,,,,0,note_on,,112.0,35.0,112.0,42240,110.0,192
1862,9.0,,,,35.0,,,,,44,note_on,,0.0,35.0,0.0,42284,110.11458333333333,192
1863,9.0,,,,42.0,,,,,0,note_on,,0.0,42.0,0.0,42284,110.11458333333333,192
1864,9.0,,,,35.0,,,,,52,note_on,,112.0,35.0,112.0,42336,110.25,192
1865,9.0,,,,42.0,,,,,0,note_on,,88.0,42.0,88.0,42336,110.25,192
1866,9.0,,,,42.0,,,,,44,note_on,,0.0,42.0,0.0,42380,110.36458333333333,192
1867,9.0,,,,35.0,,,,,0,note_on,,0.0,35.0,0.0,42380,110.36458333333333,192
1868,9.0,,,,42.0,,,,,52,note_on,,88.0,42.0,88.0,42432,110.5,192
1869,9.0,,,,40.0,,,,,0,note_on,,112.0,40.0,112.0,42432,110.5,192
1870,9.0,,,,35.0,,,,,0,note_on,,112.0,35.0,112.0,42432,110.5,192
1871,9.0,,,,51.0,,,,,0,note_on,,112.0,51.0,112.0,42432,110.5,192
1872,9.0,,,,35.0,,,,,44,note_on,,0.0,35.0,0.0,42476,110.61458333333333,192
1873,9.0,,,,51.0,,,,,0,note_on,,0.0,51.0,0.0,42476,110.61458333333333,192
1874,9.0,,,,40.0,,,,,0,note_on,,0.0,40.0,0.0,42476,110.61458333333333,192
1875,9.0,,,,42.0,,,,,0,note_on,,0.0,42.0,0.0,42476,110.61458333333333,192
1876,9.0,,,,42.0,,,,,52,note_on,,88.0,42.0,88.0,42528,110.75,192
1877,9.0,,,,42.0,,,,,44,note_on,,0.0,42.0,0.0,42572,110.86458333333333,192
1878,9.0,,,,42.0,,,,,52,note_on,,88.0,42.0,88.0,42624,111.0,192
1879,9.0,,,,35.0,,,,,0,note_on,,112.0,35.0,112.0,42624,111.0,192
1880,9.0,,,,42.0,,,,,44,note_on,,0.0,42.0,0.0,42668,111.11458333333333,192
1881,9.0,,,,35.0,,,,,0,note_on,,0.0,35.0,0.0,42668,111.11458333333333,192
1882,9.0,,,,35.0,,,,,52,note_on,,112.0,35.0,112.0,42720,111.25,192
1883,9.0,,,,42.0,,,,,0,note_on,,88.0,42.0,88.0,42720,111.25,192
1884,9.0,,,,42.0,,,,,44,note_on,,0.0,42.0,0.0,42764,111.36458333333333,192
1885,9.0,,,,35.0,,,,,0,note_on,,0.0,35.0,0.0,42764,111.36458333333333,192
1886,9.0,,,,35.0,,,,,52,note_on,,112.0,35.0,112.0,42816,111.5,192
1887,9.0,,,,51.0,,,,,0,note_on,,112.0,51.0,112.0,42816,111.5,192
1888,9.0,,,,42.0,,,,,0,note_on,,88.0,42.0,88.0,42816,111.5,192
1889,9.0,,,,40.0,,,,,0,note_on,,112.0,40.0,112.0,42816,111.5,192
1890,9.0,,,,35.0,,,,,44,note_on,,0.0,35.0,0.0,42860,111.61458333333333,192
1891,9.0,,,,40.0,,,,,0,note_on,,0.0,40.0,0.0,42860,111.61458333333333,192
1892,9.0,,,,42.0,,,,,0,note_on,,0.0,42.0,0.0,42860,111.61458333333333,192
1893,9.0,,,,51.0,,,,,0,note_on,,0.0,51.0,0.0,42860,111.61458333333333,192
1894,9.0,,,,42.0,,,,,52,note_on,,88.0,42.0,88.0,42912,111.75,192
1895,9.0,,,,51.0,,,,,0,note_on,,112.0,51.0,112.0,42912,111.75,192
1896,9.0,,,,51.0,,,,,44,note_on,,0.0,51.0,0.0,42956,111.86458333333333,192
1897,9.0,,,,42.0,,,,,0,note_on,,0.0,42.0,0.0,42956,111.86458333333333,192
1898,9.0,,,,35.0,,,,,4,note_on,,112.0,35.0,112.0,42960,111.875,192
1899,9.0,,,,35.0,,,,,44,note_on,,0.0,35.0,0.0,43004,111.98958333333333,192
1900,9.0,,,,42.0,,,,,4,note_on,,88.0,42.0,88.0,43008,112.0,192
1901,9.0,,,,35.0,,,,,0,note_on,,112.0,35.0,112.0,43008,112.0,192
1902,9.0,,,,42.0,,,,,44,note_on,,0.0,42.0,0.0,43052,112.11458333333333,192
1903,9.0,,,,35.0,,,,,0,note_on,,0.0,35.0,0.0,43052,112.11458333333333,192
1904,9.0,,,,42.0,,,,,52,note_on,,88.0,42.0,88.0,43104,112.25,192
1905,9.0,,,,35.0,,,,,0,note_on,,112.0,35.0,112.0,43104,112.25,192
1906,9.0,,,,42.0,,,,,44,note_on,,0.0,42.0,0.0,43148,112.36458333333333,192
1907,9.0,,,,35.0,,,,,0,note_on,,0.0,35.0,0.0,43148,112.36458333333333,192
1908,9.0,,,,42.0,,,,,52,note_on,,88.0,42.0,88.0,43200,112.5,192
1909,9.0,,,,35.0,,,,,0,note_on,,112.0,35.0,112.0,43200,112.5,192
1910,9.0,,,,51.0,,,,,0,note_on,,112.0,51.0,112.0,43200,112.5,192
1911,9.0,,,,40.0,,,,,0,note_on,,112.0,40.0,112.0,43200,112.5,192
1912,9.0,,,,51.0,,,,,44,note_on,,0.0,51.0,0.0,43244,112.61458333333333,192
1913,9.0,,,,35.0,,,,,0,note_on,,0.0,35.0,0.0,43244,112.61458333333333,192
1914,9.0,,,,42.0,,,,,0,note_on,,0.0,42.0,0.0,43244,112.61458333333333,192
1915,9.0,,,,40.0,,,,,0,note_on,,0.0,40.0,0.0,43244,112.61458333333333,192
1916,9.0,,,,42.0,,,,,52,note_on,,88.0,42.0,88.0,43296,112.75,192
1917,9.0,,,,42.0,,,,,44,note_on,,0.0,42.0,0.0,43340,112.86458333333333,192
1918,9.0,,,,42.0,,,,,52,note_on,,88.0,42.0,88.0,43392,113.0,192
1919,9.0,,,,35.0,,,,,0,note_on,,112.0,35.0,112.0,43392,113.0,192
1920,9.0,,,,42.0,,,,,44,note_on,,0.0,42.0,0.0,43436,113.11458333333333,192
1921,9.0,,,,35.0,,,,,0,note_on,,0.0,35.0,0.0,43436,113.11458333333333,192
1922,9.0,,,,35.0,,,,,52,note_on,,112.0,35.0,112.0,43488,113.25,192
1923,9.0,,,,42.0,,,,,0,note_on,,88.0,42.0,88.0,43488,113.25,192
1924,9.0,,,,42.0,,,,,44,note_on,,0.0,42.0,0.0,43532,113.36458333333333,192
1925,9.0,,,,35.0,,,,,0,note_on,,0.0,35.0,0.0,43532,113.36458333333333,192
1926,9.0,,,,42.0,,,,,52,note_on,,88.0,42.0,88.0,43584,113.5,192
1927,9.0,,,,35.0,,,,,0,note_on,,112.0,35.0,112.0,43584,113.5,192
1928,9.0,,,,40.0,,,,,0,note_on,,112.0,40.0,112.0,43584,113.5,192
1929,9.0,,,,51.0,,,,,0,note_on,,112.0,51.0,112.0,43584,113.5,192
1930,9.0,,,,42.0,,,,,44,note_on,,0.0,42.0,0.0,43628,113.61458333333333,192
1931,9.0,,,,51.0,,,,,0,note_on,,0.0,51.0,0.0,43628,113.61458333333333,192
1932,9.0,,,,40.0,,,,,0,note_on,,0.0,40.0,0.0,43628,113.61458333333333,192
1933,9.0,,,,35.0,,,,,0,note_on,,0.0,35.0,0.0,43628,113.61458333333333,192
1934,9.0,,,,42.0,,,,,52,note_on,,88.0,42.0,88.0,43680,113.75,192
1935,9.0,,,,51.0,,,,,0,note_on,,112.0,51.0,112.0,43680,113.75,192
1936,9.0,,,,51.0,,,,,44,note_on,,0.0,51.0,0.0,43724,113.86458333333333,192
1937,9.0,,,,42.0,,,,,0,note_on,,0.0,42.0,0.0,43724,113.86458333333333,192
1938,9.0,,,,37.0,,,,,532,note_on,,112.0,37.0,112.0,44256,115.25,192
1939,9.0,,,,37.0,,,,,44,note_on,,0.0,37.0,0.0,44300,115.36458333333333,192
1940,9.0,,,,37.0,,,,,148,note_on,,112.0,37.0,112.0,44448,115.75,192
1941,9.0,,,,37.0,,,,,44,note_on,,0.0,37.0,0.0,44492,115.86458333333333,192
1942,9.0,,,,37.0,,,,,532,note_on,,112.0,37.0,112.0,45024,117.25,192
1943,9.0,,,,37.0,,,,,44,note_on,,0.0,37.0,0.0,45068,117.36458333333333,192
1944,9.0,,,,37.0,,,,,148,note_on,,112.0,37.0,112.0,45216,117.75,192
1945,9.0,,,,37.0,,,,,44,note_on,,0.0,37.0,0.0,45260,117.86458333333333,192
1946,9.0,,,,37.0,,,,,532,note_on,,112.0,37.0,112.0,45792,119.25,192
1947,9.0,,,,37.0,,,,,44,note_on,,0.0,37.0,0.0,45836,119.36458333333333,192
1948,9.0,,,,37.0,,,,,148,note_on,,112.0,37.0,112.0,45984,119.75,192
1949,9.0,,,,37.0,,,,,44,note_on,,0.0,37.0,0.0,46028,119.86458333333333,192
1950,9.0,,,,37.0,,,,,532,note_on,,112.0,37.0,112.0,46560,121.25,192
1951,9.0,,,,37.0,,,,,44,note_on,,0.0,37.0,0.0,46604,121.36458333333333,192
1952,9.0,,,,37.0,,,,,148,note_on,,112.0,37.0,112.0,46752,121.75,192
1953,9.0,,,,37.0,,,,,44,note_on,,0.0,37.0,0.0,46796,121.86458333333333,192
1954,9.0,,,,37.0,,,,,532,note_on,,112.0,37.0,112.0,47328,123.25,192
1955,9.0,,,,37.0,,,,,44,note_on,,0.0,37.0,0.0,47372,123.36458333333333,192
1956,9.0,,,,37.0,,,,,148,note_on,,112.0,37.0,112.0,47520,123.75,192
1957,9.0,,,,37.0,,,,,44,note_on,,0.0,37.0,0.0,47564,123.86458333333333,192
1958,9.0,,,,37.0,,,,,532,note_on,,112.0,37.0,112.0,48096,125.25,192
1959,9.0,,,,37.0,,,,,44,note_on,,0.0,37.0,0.0,48140,125.36458333333333,192
1960,9.0,,,,37.0,,,,,148,note_on,,112.0,37.0,112.0,48288,125.75,192
1961,9.0,,,,37.0,,,,,44,note_on,,0.0,37.0,0.0,48332,125.86458333333333,192
1962,9.0,,,,37.0,,,,,532,note_on,,112.0,37.0,112.0,48864,127.25,192
1963,9.0,,,,37.0,,,,,44,note_on,,0.0,37.0,0.0,48908,127.36458333333333,192
1964,9.0,,,,37.0,,,,,148,note_on,,112.0,37.0,112.0,49056,127.75,192
1965,9.0,,,,37.0,,,,,44,note_on,,0.0,37.0,0.0,49100,127.86458333333333,192
1966,9.0,,,,40.0,,,,,436,note_on,,112.0,40.0,112.0,49536,129.0,192
1967,9.0,,,,40.0,,,,,44,note_on,,0.0,40.0,0.0,49580,129.11458333333331,192
1968,9.0,,,,48.0,,,,,4,note_on,,112.0,48.0,112.0,49584,129.125,192
1969,9.0,,,,48.0,,,,,44,note_on,,0.0,48.0,0.0,49628,129.23958333333331,192
1970,9.0,,,,40.0,,,,,52,note_on,,112.0,40.0,112.0,49680,129.375,192
1971,9.0,,,,40.0,,,,,44,note_on,,0.0,40.0,0.0,49724,129.48958333333331,192
1972,9.0,,,,40.0,,,,,4,note_on,,112.0,40.0,112.0,49728,129.5,192
1973,9.0,,,,40.0,,,,,44,note_on,,0.0,40.0,0.0,49772,129.61458333333331,192
1974,9.0,,,,36.0,,,,,52,note_on,,112.0,36.0,112.0,49824,129.75,192
1975,9.0,,,,36.0,,,,,44,note_on,,0.0,36.0,0.0,49868,129.86458333333331,192
1976,9.0,,,,35.0,,,,,52,note_on,,112.0,35.0,112.0,49920,130.0,192
1977,9.0,,,,49.0,,,,,0,note_on,,112.0,49.0,112.0,49920,130.0,192
1978,9.0,,,,42.0,,,,,0,note_on,,88.0,42.0,88.0,49920,130.0,192
1979,9.0,,,,42.0,,,,,44,note_on,,0.0,42.0,0.0,49964,130.11458333333331,192
1980,9.0,,,,49.0,,,,,0,note_on,,0.0,49.0,0.0,49964,130.11458333333331,192
1981,9.0,,,,35.0,,,,,0,note_on,,0.0,35.0,0.0,49964,130.11458333333331,192
1982,9.0,,,,42.0,,,,,52,note_on,,88.0,42.0,88.0,50016,130.25,192
1983,9.0,,,,35.0,,,,,0,note_on,,112.0,35.0,112.0,50016,130.25,192
1984,9.0,,,,35.0,,,,,44,note_on,,0.0,35.0,0.0,50060,130.36458333333331,192
1985,9.0,,,,42.0,,,,,0,note_on,,0.0,42.0,0.0,50060,130.36458333333331,192
1986,9.0,,,,51.0,,,,,52,note_on,,112.0,51.0,112.0,50112,130.5,192
1987,9.0,,,,35.0,,,,,0,note_on,,112.0,35.0,112.0,50112,130.5,192
1988,9.0,,,,40.0,,,,,0,note_on,,112.0,40.0,112.0,50112,130.5,192
1989,9.0,,,,42.0,,,,,0,note_on,,88.0,42.0,88.0,50112,130.5,192
1990,9.0,,,,35.0,,,,,44,note_on,,0.0,35.0,0.0,50156,130.61458333333331,192
1991,9.0,,,,51.0,,,,,0,note_on,,0.0,51.0,0.0,50156,130.61458333333331,192
1992,9.0,,,,40.0,,,,,0,note_on,,0.0,40.0,0.0,50156,130.61458333333331,192
1993,9.0,,,,42.0,,,,,0,note_on,,0.0,42.0,0.0,50156,130.61458333333331,192
1994,9.0,,,,42.0,,,,,52,note_on,,88.0,42.0,88.0,50208,130.75,192
1995,9.0,,,,42.0,,,,,44,note_on,,0.0,42.0,0.0,50252,130.86458333333331,192
1996,9.0,,,,35.0,,,,,52,note_on,,112.0,35.0,112.0,50304,131.0,192
1997,9.0,,,,42.0,,,,,0,note_on,,88.0,42.0,88.0,50304,131.0,192
1998,9.0,,,,35.0,,,,,44,note_on,,0.0,35.0,0.0,50348,131.11458333333331,192
1999,9.0,,,,42.0,,,,,0,note_on,,0.0,42.0,0.0,50348,131.11458333333331,192
2000,9.0,,,,42.0,,,,,52,note_on,,88.0,42.0,88.0,50400,131.25,192
2001,9.0,,,,35.0,,,,,0,note_on,,112.0,35.0,112.0,50400,131.25,192
2002,9.0,,,,35.0,,,,,44,note_on,,0.0,35.0,0.0,50444,131.36458333333331,192
2003,9.0,,,,42.0,,,,,0,note_on,,0.0,42.0,0.0,50444,131.36458333333331,192
2004,9.0,,,,40.0,,,,,52,note_on,,112.0,40.0,112.0,50496,131.5,192
2005,9.0,,,,51.0,,,,,0,note_on,,112.0,51.0,112.0,50496,131.5,192
2006,9.0,,,,42.0,,,,,0,note_on,,88.0,42.0,88.0,50496,131.5,192
2007,9.0,,,,35.0,,,,,0,note_on,,112.0,35.0,112.0,50496,131.5,192
2008,9.0,,,,35.0,,,,,44,note_on,,0.0,35.0,0.0,50540,131.61458333333331,192
2009,9.0,,,,42.0,,,,,0,note_on,,0.0,42.0,0.0,50540,131.61458333333331,192
2010,9.0,,,,51.0,,,,,0,note_on,,0.0,51.0,0.0,50540,131.61458333333331,192
2011,9.0,,,,40.0,,,,,0,note_on,,0.0,40.0,0.0,50540,131.61458333333331,192
2012,9.0,,,,51.0,,,,,52,note_on,,112.0,51.0,112.0,50592,131.75,192
2013,9.0,,,,42.0,,,,,0,note_on,,88.0,42.0,88.0,50592,131.75,192
2014,9.0,,,,42.0,,,,,44,note_on,,0.0,42.0,0.0,50636,131.86458333333331,192
2015,9.0,,,,51.0,,,,,0,note_on,,0.0,51.0,0.0,50636,131.86458333333331,192
2016,9.0,,,,35.0,,,,,4,note_on,,112.0,35.0,112.0,50640,131.875,192
2017,9.0,,,,35.0,,,,,44,note_on,,0.0,35.0,0.0,50684,131.98958333333331,192
2018,9.0,,,,35.0,,,,,4,note_on,,112.0,35.0,112.0,50688,132.0,192
2019,9.0,,,,42.0,,,,,0,note_on,,88.0,42.0,88.0,50688,132.0,192
2020,9.0,,,,35.0,,,,,44,note_on,,0.0,35.0,0.0,50732,132.11458333333331,192
2021,9.0,,,,42.0,,,,,0,note_on,,0.0,42.0,0.0,50732,132.11458333333331,192
2022,9.0,,,,42.0,,,,,52,note_on,,88.0,42.0,88.0,50784,132.25,192
2023,9.0,,,,35.0,,,,,0,note_on,,112.0,35.0,112.0,50784,132.25,192
2024,9.0,,,,35.0,,,,,44,note_on,,0.0,35.0,0.0,50828,132.36458333333331,192
2025,9.0,,,,42.0,,,,,0,note_on,,0.0,42.0,0.0,50828,132.36458333333331,192
2026,9.0,,,,51.0,,,,,52,note_on,,112.0,51.0,112.0,50880,132.5,192
2027,9.0,,,,42.0,,,,,0,note_on,,88.0,42.0,88.0,50880,132.5,192
2028,9.0,,,,40.0,,,,,0,note_on,,112.0,40.0,112.0,50880,132.5,192
2029,9.0,,,,35.0,,,,,0,note_on,,112.0,35.0,112.0,50880,132.5,192
2030,9.0,,,,35.0,,,,,44,note_on,,0.0,35.0,0.0,50924,132.61458333333331,192
2031,9.0,,,,51.0,,,,,0,note_on,,0.0,51.0,0.0,50924,132.61458333333331,192
2032,9.0,,,,42.0,,,,,0,note_on,,0.0,42.0,0.0,50924,132.61458333333331,192
2033,9.0,,,,40.0,,,,,0,note_on,,0.0,40.0,0.0,50924,132.61458333333331,192
2034,9.0,,,,42.0,,,,,52,note_on,,88.0,42.0,88.0,50976,132.75,192
2035,9.0,,,,42.0,,,,,44,note_on,,0.0,42.0,0.0,51020,132.86458333333331,192
2036,9.0,,,,35.0,,,,,52,note_on,,112.0,35.0,112.0,51072,133.0,192
2037,9.0,,,,42.0,,,,,0,note_on,,88.0,42.0,88.0,51072,133.0,192
2038,9.0,,,,35.0,,,,,44,note_on,,0.0,35.0,0.0,51116,133.11458333333331,192
2039,9.0,,,,42.0,,,,,0,note_on,,0.0,42.0,0.0,51116,133.11458333333331,192
2040,9.0,,,,35.0,,,,,52,note_on,,112.0,35.0,112.0,51168,133.25,192
2041,9.0,,,,42.0,,,,,0,note_on,,88.0,42.0,88.0,51168,133.25,192
2042,9.0,,,,35.0,,,,,44,note_on,,0.0,35.0,0.0,51212,133.36458333333331,192
2043,9.0,,,,42.0,,,,,0,note_on,,0.0,42.0,0.0,51212,133.36458333333331,192
2044,9.0,,,,35.0,,,,,52,note_on,,112.0,35.0,112.0,51264,133.5,192
2045,9.0,,,,51.0,,,,,0,note_on,,112.0,51.0,112.0,51264,133.5,192
2046,9.0,,,,40.0,,,,,0,note_on,,112.0,40.0,112.0,51264,133.5,192
2047,9.0,,,,42.0,,,,,0,note_on,,88.0,42.0,88.0,51264,133.5,192
2048,9.0,,,,35.0,,,,,44,note_on,,0.0,35.0,0.0,51308,133.61458333333331,192
2049,9.0,,,,42.0,,,,,0,note_on,,0.0,42.0,0.0,51308,133.61458333333331,192
2050,9.0,,,,40.0,,,,,0,note_on,,0.0,40.0,0.0,51308,133.61458333333331,192
2051,9.0,,,,51.0,,,,,0,note_on,,0.0,51.0,0.0,51308,133.61458333333331,192
2052,9.0,,,,51.0,,,,,52,note_on,,112.0,51.0,112.0,51360,133.75,192
2053,9.0,,,,42.0,,,,,0,note_on,,88.0,42.0,88.0,51360,133.75,192
2054,9.0,,,,51.0,,,,,44,note_on,,0.0,51.0,0.0,51404,133.86458333333331,192
2055,9.0,,,,42.0,,,,,0,note_on,,0.0,42.0,0.0,51404,133.86458333333331,192
2056,9.0,,,,35.0,,,,,4,note_on,,112.0,35.0,112.0,51408,133.875,192
2057,9.0,,,,35.0,,,,,44,note_on,,0.0,35.0,0.0,51452,133.98958333333331,192
2058,9.0,,,,35.0,,,,,4,note_on,,112.0,35.0,112.0,51456,134.0,192
2059,9.0,,,,42.0,,,,,0,note_on,,88.0,42.0,88.0,51456,134.0,192
2060,9.0,,,,35.0,,,,,44,note_on,,0.0,35.0,0.0,51500,134.11458333333331,192
2061,9.0,,,,42.0,,,,,0,note_on,,0.0,42.0,0.0,51500,134.11458333333331,192
2062,9.0,,,,35.0,,,,,52,note_on,,112.0,35.0,112.0,51552,134.25,192
2063,9.0,,,,42.0,,,,,0,note_on,,88.0,42.0,88.0,51552,134.25,192
2064,9.0,,,,42.0,,,,,44,note_on,,0.0,42.0,0.0,51596,134.36458333333331,192
2065,9.0,,,,35.0,,,,,0,note_on,,0.0,35.0,0.0,51596,134.36458333333331,192
2066,9.0,,,,40.0,,,,,52,note_on,,112.0,40.0,112.0,51648,134.5,192
2067,9.0,,,,42.0,,,,,0,note_on,,88.0,42.0,88.0,51648,134.5,192
2068,9.0,,,,35.0,,,,,0,note_on,,112.0,35.0,112.0,51648,134.5,192
2069,9.0,,,,51.0,,,,,0,note_on,,112.0,51.0,112.0,51648,134.5,192
2070,9.0,,,,51.0,,,,,44,note_on,,0.0,51.0,0.0,51692,134.61458333333331,192
2071,9.0,,,,40.0,,,,,0,note_on,,0.0,40.0,0.0,51692,134.61458333333331,192
2072,9.0,,,,35.0,,,,,0,note_on,,0.0,35.0,0.0,51692,134.61458333333331,192
2073,9.0,,,,42.0,,,,,0,note_on,,0.0,42.0,0.0,51692,134.61458333333331,192
2074,9.0,,,,42.0,,,,,52,note_on,,88.0,42.0,88.0,51744,134.75,192
2075,9.0,,,,42.0,,,,,44,note_on,,0.0,42.0,0.0,51788,134.86458333333331,192
2076,9.0,,,,35.0,,,,,52,note_on,,112.0,35.0,112.0,51840,135.0,192
2077,9.0,,,,42.0,,,,,0,note_on,,88.0,42.0,88.0,51840,135.0,192
2078,9.0,,,,35.0,,,,,44,note_on,,0.0,35.0,0.0,51884,135.11458333333331,192
2079,9.0,,,,42.0,,,,,0,note_on,,0.0,42.0,0.0,51884,135.11458333333331,192
2080,9.0,,,,42.0,,,,,52,note_on,,88.0,42.0,88.0,51936,135.25,192
2081,9.0,,,,35.0,,,,,0,note_on,,112.0,35.0,112.0,51936,135.25,192
2082,9.0,,,,35.0,,,,,44,note_on,,0.0,35.0,0.0,51980,135.36458333333331,192
2083,9.0,,,,42.0,,,,,0,note_on,,0.0,42.0,0.0,51980,135.36458333333331,192
2084,9.0,,,,35.0,,,,,52,note_on,,112.0,35.0,112.0,52032,135.5,192
2085,9.0,,,,51.0,,,,,0,note_on,,112.0,51.0,112.0,52032,135.5,192
2086,9.0,,,,40.0,,,,,0,note_on,,112.0,40.0,112.0,52032,135.5,192
2087,9.0,,,,42.0,,,,,0,note_on,,88.0,42.0,88.0,52032,135.5,192
2088,9.0,,,,42.0,,,,,44,note_on,,0.0,42.0,0.0,52076,135.61458333333331,192
2089,9.0,,,,40.0,,,,,0,note_on,,0.0,40.0,0.0,52076,135.61458333333331,192
2090,9.0,,,,51.0,,,,,0,note_on,,0.0,51.0,0.0,52076,135.61458333333331,192
2091,9.0,,,,35.0,,,,,0,note_on,,0.0,35.0,0.0,52076,135.61458333333331,192
2092,9.0,,,,51.0,,,,,52,note_on,,112.0,51.0,112.0,52128,135.75,192
2093,9.0,,,,42.0,,,,,0,note_on,,88.0,42.0,88.0,52128,135.75,192
2094,9.0,,,,42.0,,,,,44,note_on,,0.0,42.0,0.0,52172,135.86458333333331,192
2095,9.0,,,,51.0,,,,,0,note_on,,0.0,51.0,0.0,52172,135.86458333333331,192
2096,9.0,,,,35.0,,,,,4,note_on,,112.0,35.0,112.0,52176,135.875,192
2097,9.0,,,,35.0,,,,,44,note_on,,0.0,35.0,0.0,52220,135.98958333333331,192
2098,9.0,,,,42.0,,,,,4,note_on,,88.0,42.0,88.0,52224,136.0,192
2099,9.0,,,,35.0,,,,,0,note_on,,112.0,35.0,112.0,52224,136.0,192
2100,9.0,,,,42.0,,,,,44,note_on,,0.0,42.0,0.0,52268,136.11458333333331,192
2101,9.0,,,,35.0,,,,,0,note_on,,0.0,35.0,0.0,52268,136.11458333333331,192
2102,9.0,,,,35.0,,,,,52,note_on,,112.0,35.0,112.0,52320,136.25,192
2103,9.0,,,,42.0,,,,,0,note_on,,88.0,42.0,88.0,52320,136.25,192
2104,9.0,,,,42.0,,,,,44,note_on,,0.0,42.0,0.0,52364,136.36458333333331,192
2105,9.0,,,,35.0,,,,,0,note_on,,0.0,35.0,0.0,52364,136.36458333333331,192
2106,9.0,,,,35.0,,,,,52,note_on,,112.0,35.0,112.0,52416,136.5,192
2107,9.0,,,,51.0,,,,,0,note_on,,112.0,51.0,112.0,52416,136.5,192
2108,9.0,,,,42.0,,,,,0,note_on,,88.0,42.0,88.0,52416,136.5,192
2109,9.0,,,,40.0,,,,,0,note_on,,112.0,40.0,112.0,52416,136.5,192
2110,9.0,,,,40.0,,,,,44,note_on,,0.0,40.0,0.0,52460,136.61458333333331,192
2111,9.0,,,,35.0,,,,,0,note_on,,0.0,35.0,0.0,52460,136.61458333333331,192
2112,9.0,,,,51.0,,,,,0,note_on,,0.0,51.0,0.0,52460,136.61458333333331,192
2113,9.0,,,,42.0,,,,,0,note_on,,0.0,42.0,0.0,52460,136.61458333333331,192
2114,9.0,,,,42.0,,,,,52,note_on,,88.0,42.0,88.0,52512,136.75,192
2115,9.0,,,,42.0,,,,,44,note_on,,0.0,42.0,0.0,52556,136.86458333333331,192
2116,9.0,,,,35.0,,,,,52,note_on,,112.0,35.0,112.0,52608,137.0,192
2117,9.0,,,,42.0,,,,,0,note_on,,88.0,42.0,88.0,52608,137.0,192
2118,9.0,,,,35.0,,,,,44,note_on,,0.0,35.0,0.0,52652,137.11458333333331,192
2119,9.0,,,,42.0,,,,,0,note_on,,0.0,42.0,0.0,52652,137.11458333333331,192
2120,9.0,,,,42.0,,,,,52,note_on,,88.0,42.0,88.0,52704,137.25,192
2121,9.0,,,,35.0,,,,,0,note_on,,112.0,35.0,112.0,52704,137.25,192
2122,9.0,,,,42.0,,,,,44,note_on,,0.0,42.0,0.0,52748,137.36458333333331,192
2123,9.0,,,,35.0,,,,,0,note_on,,0.0,35.0,0.0,52748,137.36458333333331,192
2124,9.0,,,,35.0,,,,,52,note_on,,112.0,35.0,112.0,52800,137.5,192
2125,9.0,,,,51.0,,,,,0,note_on,,112.0,51.0,112.0,52800,137.5,192
2126,9.0,,,,40.0,,,,,0,note_on,,112.0,40.0,112.0,52800,137.5,192
2127,9.0,,,,42.0,,,,,0,note_on,,88.0,42.0,88.0,52800,137.5,192
2128,9.0,,,,35.0,,,,,44,note_on,,0.0,35.0,0.0,52844,137.61458333333331,192
2129,9.0,,,,42.0,,,,,0,note_on,,0.0,42.0,0.0,52844,137.61458333333331,192
2130,9.0,,,,40.0,,,,,0,note_on,,0.0,40.0,0.0,52844,137.61458333333331,192
2131,9.0,,,,51.0,,,,,0,note_on,,0.0,51.0,0.0,52844,137.61458333333331,192
2132,9.0,,,,51.0,,,,,52,note_on,,112.0,51.0,112.0,52896,137.75,192
2133,9.0,,,,42.0,,,,,0,note_on,,88.0,42.0,88.0,52896,137.75,192
2134,9.0,,,,51.0,,,,,44,note_on,,0.0,51.0,0.0,52940,137.86458333333331,192
2135,9.0,,,,42.0,,,,,0,note_on,,0.0,42.0,0.0,52940,137.86458333333331,192
2136,9.0,,,,35.0,,,,,4,note_on,,112.0,35.0,112.0,52944,137.875,192
2137,9.0,,,,35.0,,,,,44,note_on,,0.0,35.0,0.0,52988,137.98958333333331,192
2138,9.0,,,,42.0,,,,,4,note_on,,88.0,42.0,88.0,52992,138.0,192
2139,9.0,,,,35.0,,,,,0,note_on,,112.0,35.0,112.0,52992,138.0,192
2140,9.0,,,,42.0,,,,,44,note_on,,0.0,42.0,0.0,53036,138.11458333333331,192
2141,9.0,,,,35.0,,,,,0,note_on,,0.0,35.0,0.0,53036,138.11458333333331,192
2142,9.0,,,,35.0,,,,,52,note_on,,112.0,35.0,112.0,53088,138.25,192
2143,9.0,,,,42.0,,,,,0,note_on,,88.0,42.0,88.0,53088,138.25,192
2144,9.0,,,,42.0,,,,,44,note_on,,0.0,42.0,0.0,53132,138.36458333333331,192
2145,9.0,,,,35.0,,,,,0,note_on,,0.0,35.0,0.0,53132,138.36458333333331,192
2146,9.0,,,,35.0,,,,,52,note_on,,112.0,35.0,112.0,53184,138.5,192
2147,9.0,,,,40.0,,,,,0,note_on,,112.0,40.0,112.0,53184,138.5,192
2148,9.0,,,,51.0,,,,,0,note_on,,112.0,51.0,112.0,53184,138.5,192
2149,9.0,,,,42.0,,,,,0,note_on,,88.0,42.0,88.0,53184,138.5,192
2150,9.0,,,,40.0,,,,,44,note_on,,0.0,40.0,0.0,53228,138.61458333333331,192
2151,9.0,,,,35.0,,,,,0,note_on,,0.0,35.0,0.0,53228,138.61458333333331,192
2152,9.0,,,,51.0,,,,,0,note_on,,0.0,51.0,0.0,53228,138.61458333333331,192
2153,9.0,,,,42.0,,,,,0,note_on,,0.0,42.0,0.0,53228,138.61458333333331,192
2154,9.0,,,,42.0,,,,,52,note_on,,88.0,42.0,88.0,53280,138.75,192
2155,9.0,,,,42.0,,,,,44,note_on,,0.0,42.0,0.0,53324,138.86458333333331,192
2156,9.0,,,,42.0,,,,,52,note_on,,88.0,42.0,88.0,53376,139.0,192
2157,9.0,,,,35.0,,,,,0,note_on,,112.0,35.0,112.0,53376,139.0,192
2158,9.0,,,,42.0,,,,,44,note_on,,0.0,42.0,0.0,53420,139.11458333333331,192
2159,9.0,,,,35.0,,,,,0,note_on,,0.0,35.0,0.0,53420,139.11458333333331,192
2160,9.0,,,,35.0,,,,,52,note_on,,112.0,35.0,112.0,53472,139.25,192
2161,9.0,,,,42.0,,,,,0,note_on,,88.0,42.0,88.0,53472,139.25,192
2162,9.0,,,,42.0,,,,,44,note_on,,0.0,42.0,0.0,53516,139.36458333333331,192
2163,9.0,,,,35.0,,,,,0,note_on,,0.0,35.0,0.0,53516,139.36458333333331,192
2164,9.0,,,,40.0,,,,,52,note_on,,112.0,40.0,112.0,53568,139.5,192
2165,9.0,,,,35.0,,,,,0,note_on,,112.0,35.0,112.0,53568,139.5,192
2166,9.0,,,,42.0,,,,,0,note_on,,88.0,42.0,88.0,53568,139.5,192
2167,9.0,,,,51.0,,,,,0,note_on,,112.0,51.0,112.0,53568,139.5,192
2168,9.0,,,,51.0,,,,,44,note_on,,0.0,51.0,0.0,53612,139.61458333333331,192
2169,9.0,,,,42.0,,,,,0,note_on,,0.0,42.0,0.0,53612,139.61458333333331,192
2170,9.0,,,,35.0,,,,,0,note_on,,0.0,35.0,0.0,53612,139.61458333333331,192
2171,9.0,,,,40.0,,,,,0,note_on,,0.0,40.0,0.0,53612,139.61458333333331,192
2172,9.0,,,,51.0,,,,,52,note_on,,112.0,51.0,112.0,53664,139.75,192
2173,9.0,,,,42.0,,,,,0,note_on,,88.0,42.0,88.0,53664,139.75,192
2174,9.0,,,,42.0,,,,,44,note_on,,0.0,42.0,0.0,53708,139.86458333333331,192
2175,9.0,,,,51.0,,,,,0,note_on,,0.0,51.0,0.0,53708,139.86458333333331,192
2176,9.0,,,,35.0,,,,,4,note_on,,112.0,35.0,112.0,53712,139.875,192
2177,9.0,,,,35.0,,,,,44,note_on,,0.0,35.0,0.0,53756,139.98958333333331,192
2178,9.0,,,,42.0,,,,,4,note_on,,88.0,42.0,88.0,53760,140.0,192
2179,9.0,,,,35.0,,,,,0,note_on,,112.0,35.0,112.0,53760,140.0,192
2180,9.0,,,,42.0,,,,,44,note_on,,0.0,42.0,0.0,53804,140.11458333333331,192
2181,9.0,,,,35.0,,,,,0,note_on,,0.0,35.0,0.0,53804,140.11458333333331,192
2182,9.0,,,,35.0,,,,,52,note_on,,112.0,35.0,112.0,53856,140.25,192
2183,9.0,,,,42.0,,,,,0,note_on,,88.0,42.0,88.0,53856,140.25,192
2184,9.0,,,,42.0,,,,,44,note_on,,0.0,42.0,0.0,53900,140.36458333333331,192
2185,9.0,,,,35.0,,,,,0,note_on,,0.0,35.0,0.0,53900,140.36458333333331,192
2186,9.0,,,,51.0,,,,,52,note_on,,112.0,51.0,112.0,53952,140.5,192
2187,9.0,,,,35.0,,,,,0,note_on,,112.0,35.0,112.0,53952,140.5,192
2188,9.0,,,,42.0,,,,,0,note_on,,88.0,42.0,88.0,53952,140.5,192
2189,9.0,,,,40.0,,,,,0,note_on,,112.0,40.0,112.0,53952,140.5,192
2190,9.0,,,,40.0,,,,,44,note_on,,0.0,40.0,0.0,53996,140.61458333333331,192
2191,9.0,,,,51.0,,,,,0,note_on,,0.0,51.0,0.0,53996,140.61458333333331,192
2192,9.0,,,,35.0,,,,,0,note_on,,0.0,35.0,0.0,53996,140.61458333333331,192
2193,9.0,,,,42.0,,,,,0,note_on,,0.0,42.0,0.0,53996,140.61458333333331,192
2194,9.0,,,,42.0,,,,,52,note_on,,88.0,42.0,88.0,54048,140.75,192
2195,9.0,,,,42.0,,,,,44,note_on,,0.0,42.0,0.0,54092,140.86458333333331,192
2196,9.0,,,,35.0,,,,,52,note_on,,112.0,35.0,112.0,54144,141.0,192
2197,9.0,,,,42.0,,,,,0,note_on,,88.0,42.0,88.0,54144,141.0,192
2198,9.0,,,,35.0,,,,,44,note_on,,0.0,35.0,0.0,54188,141.11458333333331,192
2199,9.0,,,,42.0,,,,,0,note_on,,0.0,42.0,0.0,54188,141.11458333333331,192
2200,9.0,,,,42.0,,,,,52,note_on,,88.0,42.0,88.0,54240,141.25,192
2201,9.0,,,,35.0,,,,,0,note_on,,112.0,35.0,112.0,54240,141.25,192
2202,9.0,,,,42.0,,,,,44,note_on,,0.0,42.0,0.0,54284,141.36458333333331,192
2203,9.0,,,,35.0,,,,,0,note_on,,0.0,35.0,0.0,54284,141.36458333333331,192
2204,9.0,,,,42.0,,,,,52,note_on,,88.0,42.0,88.0,54336,141.5,192
2205,9.0,,,,35.0,,,,,0,note_on,,112.0,35.0,112.0,54336,141.5,192
2206,9.0,,,,40.0,,,,,0,note_on,,112.0,40.0,112.0,54336,141.5,192
2207,9.0,,,,51.0,,,,,0,note_on,,112.0,51.0,112.0,54336,141.5,192
2208,9.0,,,,42.0,,,,,44,note_on,,0.0,42.0,0.0,54380,141.61458333333331,192
2209,9.0,,,,51.0,,,,,0,note_on,,0.0,51.0,0.0,54380,141.61458333333331,192
2210,9.0,,,,40.0,,,,,0,note_on,,0.0,40.0,0.0,54380,141.61458333333331,192
2211,9.0,,,,35.0,,,,,0,note_on,,0.0,35.0,0.0,54380,141.61458333333331,192
2212,9.0,,,,51.0,,,,,52,note_on,,112.0,51.0,112.0,54432,141.75,192
2213,9.0,,,,42.0,,,,,0,note_on,,88.0,42.0,88.0,54432,141.75,192
2214,9.0,,,,51.0,,,,,44,note_on,,0.0,51.0,0.0,54476,141.86458333333331,192
2215,9.0,,,,42.0,,,,,0,note_on,,0.0,42.0,0.0,54476,141.86458333333331,192
2216,9.0,,,,35.0,,,,,4,note_on,,112.0,35.0,112.0,54480,141.875,192
2217,9.0,,,,35.0,,,,,44,note_on,,0.0,35.0,0.0,54524,141.98958333333331,192
2218,9.0,,,,35.0,,,,,4,note_on,,112.0,35.0,112.0,54528,142.0,192
2219,9.0,,,,42.0,,,,,0,note_on,,88.0,42.0,88.0,54528,142.0,192
2220,9.0,,,,35.0,,,,,44,note_on,,0.0,35.0,0.0,54572,142.11458333333331,192
2221,9.0,,,,42.0,,,,,0,note_on,,0.0,42.0,0.0,54572,142.11458333333331,192
2222,9.0,,,,35.0,,,,,52,note_on,,112.0,35.0,112.0,54624,142.25,192
2223,9.0,,,,42.0,,,,,0,note_on,,88.0,42.0,88.0,54624,142.25,192
2224,9.0,,,,42.0,,,,,44,note_on,,0.0,42.0,0.0,54668,142.36458333333331,192
2225,9.0,,,,35.0,,,,,0,note_on,,0.0,35.0,0.0,54668,142.36458333333331,192
2226,9.0,,,,51.0,,,,,52,note_on,,112.0,51.0,112.0,54720,142.5,192
2227,9.0,,,,42.0,,,,,0,note_on,,88.0,42.0,88.0,54720,142.5,192
2228,9.0,,,,35.0,,,,,0,note_on,,112.0,35.0,112.0,54720,142.5,192
2229,9.0,,,,40.0,,,,,0,note_on,,112.0,40.0,112.0,54720,142.5,192
2230,9.0,,,,40.0,,,,,44,note_on,,0.0,40.0,0.0,54764,142.61458333333331,192
2231,9.0,,,,51.0,,,,,0,note_on,,0.0,51.0,0.0,54764,142.61458333333331,192
2232,9.0,,,,35.0,,,,,0,note_on,,0.0,35.0,0.0,54764,142.61458333333331,192
2233,9.0,,,,42.0,,,,,0,note_on,,0.0,42.0,0.0,54764,142.61458333333331,192
2234,9.0,,,,42.0,,,,,52,note_on,,88.0,42.0,88.0,54816,142.75,192
2235,9.0,,,,42.0,,,,,44,note_on,,0.0,42.0,0.0,54860,142.86458333333331,192
2236,9.0,,,,35.0,,,,,52,note_on,,112.0,35.0,112.0,54912,143.0,192
2237,9.0,,,,42.0,,,,,0,note_on,,88.0,42.0,88.0,54912,143.0,192
2238,9.0,,,,35.0,,,,,44,note_on,,0.0,35.0,0.0,54956,143.11458333333331,192
2239,9.0,,,,42.0,,,,,0,note_on,,0.0,42.0,0.0,54956,143.11458333333331,192
2240,9.0,,,,35.0,,,,,52,note_on,,112.0,35.0,112.0,55008,143.25,192
2241,9.0,,,,42.0,,,,,0,note_on,,88.0,42.0,88.0,55008,143.25,192
2242,9.0,,,,42.0,,,,,44,note_on,,0.0,42.0,0.0,55052,143.36458333333331,192
2243,9.0,,,,35.0,,,,,0,note_on,,0.0,35.0,0.0,55052,143.36458333333331,192
2244,9.0,,,,42.0,,,,,52,note_on,,88.0,42.0,88.0,55104,143.5,192
2245,9.0,,,,40.0,,,,,0,note_on,,112.0,40.0,112.0,55104,143.5,192
2246,9.0,,,,51.0,,,,,0,note_on,,112.0,51.0,112.0,55104,143.5,192
2247,9.0,,,,35.0,,,,,0,note_on,,112.0,35.0,112.0,55104,143.5,192
2248,9.0,,,,35.0,,,,,44,note_on,,0.0,35.0,0.0,55148,143.61458333333331,192
2249,9.0,,,,51.0,,,,,0,note_on,,0.0,51.0,0.0,55148,143.61458333333331,192
2250,9.0,,,,40.0,,,,,0,note_on,,0.0,40.0,0.0,55148,143.61458333333331,192
2251,9.0,,,,42.0,,,,,0,note_on,,0.0,42.0,0.0,55148,143.61458333333331,192
2252,9.0,,,,42.0,,,,,52,note_on,,88.0,42.0,88.0,55200,143.75,192
2253,9.0,,,,51.0,,,,,0,note_on,,112.0,51.0,112.0,55200,143.75,192
2254,9.0,,,,51.0,,,,,44,note_on,,0.0,51.0,0.0,55244,143.86458333333331,192
2255,9.0,,,,42.0,,,,,0,note_on,,0.0,42.0,0.0,55244,143.86458333333331,192
2256,9.0,,,,35.0,,,,,4,note_on,,112.0,35.0,112.0,55248,143.875,192
2257,9.0,,,,35.0,,,,,44,note_on,,0.0,35.0,0.0,55292,143.98958333333331,192
2258,9.0,,,,42.0,,,,,4,note_on,,88.0,42.0,88.0,55296,144.0,192
2259,9.0,,,,35.0,,,,,0,note_on,,112.0,35.0,112.0,55296,144.0,192
2260,9.0,,,,42.0,,,,,44,note_on,,0.0,42.0,0.0,55340,144.11458333333331,192
2261,9.0,,,,35.0,,,,,0,note_on,,0.0,35.0,0.0,55340,144.11458333333331,192
2262,9.0,,,,42.0,,,,,52,note_on,,88.0,42.0,88.0,55392,144.25,192
2263,9.0,,,,35.0,,,,,0,note_on,,112.0,35.0,112.0,55392,144.25,192
2264,9.0,,,,35.0,,,,,44,note_on,,0.0,35.0,0.0,55436,144.36458333333331,192
2265,9.0,,,,42.0,,,,,0,note_on,,0.0,42.0,0.0,55436,144.36458333333331,192
2266,9.0,,,,40.0,,,,,52,note_on,,112.0,40.0,112.0,55488,144.5,192
2267,9.0,,,,42.0,,,,,0,note_on,,88.0,42.0,88.0,55488,144.5,192
2268,9.0,,,,51.0,,,,,0,note_on,,112.0,51.0,112.0,55488,144.5,192
2269,9.0,,,,35.0,,,,,0,note_on,,112.0,35.0,112.0,55488,144.5,192
2270,9.0,,,,35.0,,,,,44,note_on,,0.0,35.0,0.0,55532,144.61458333333331,192
2271,9.0,,,,40.0,,,,,0,note_on,,0.0,40.0,0.0,55532,144.61458333333331,192
2272,9.0,,,,42.0,,,,,0,note_on,,0.0,42.0,0.0,55532,144.61458333333331,192
2273,9.0,,,,51.0,,,,,0,note_on,,0.0,51.0,0.0,55532,144.61458333333331,192
2274,9.0,,,,42.0,,,,,52,note_on,,88.0,42.0,88.0,55584,144.75,192
2275,9.0,,,,42.0,,,,,44,note_on,,0.0,42.0,0.0,55628,144.86458333333331,192
2276,9.0,,,,42.0,,,,,52,note_on,,88.0,42.0,88.0,55680,145.0,192
2277,9.0,,,,35.0,,,,,0,note_on,,112.0,35.0,112.0,55680,145.0,192
2278,9.0,,,,42.0,,,,,44,note_on,,0.0,42.0,0.0,55724,145.11458333333331,192
2279,9.0,,,,35.0,,,,,0,note_on,,0.0,35.0,0.0,55724,145.11458333333331,192
2280,9.0,,,,35.0,,,,,52,note_on,,112.0,35.0,112.0,55776,145.25,192
2281,9.0,,,,42.0,,,,,0,note_on,,88.0,42.0,88.0,55776,145.25,192
2282,9.0,,,,35.0,,,,,44,note_on,,0.0,35.0,0.0,55820,145.36458333333331,192
2283,9.0,,,,42.0,,,,,0,note_on,,0.0,42.0,0.0,55820,145.36458333333331,192
2284,9.0,,,,40.0,,,,,52,note_on,,112.0,40.0,112.0,55872,145.5,192
2285,9.0,,,,51.0,,,,,0,note_on,,112.0,51.0,112.0,55872,145.5,192
2286,9.0,,,,35.0,,,,,0,note_on,,112.0,35.0,112.0,55872,145.5,192
2287,9.0,,,,42.0,,,,,0,note_on,,88.0,42.0,88.0,55872,145.5,192
2288,9.0,,,,40.0,,,,,44,note_on,,0.0,40.0,0.0,55916,145.61458333333331,192
2289,9.0,,,,42.0,,,,,0,note_on,,0.0,42.0,0.0,55916,145.61458333333331,192
2290,9.0,,,,35.0,,,,,0,note_on,,0.0,35.0,0.0,55916,145.61458333333331,192
2291,9.0,,,,51.0,,,,,0,note_on,,0.0,51.0,0.0,55916,145.61458333333331,192
2292,9.0,,,,42.0,,,,,52,note_on,,88.0,42.0,88.0,55968,145.75,192
2293,9.0,,,,51.0,,,,,0,note_on,,112.0,51.0,112.0,55968,145.75,192
2294,9.0,,,,42.0,,,,,44,note_on,,0.0,42.0,0.0,56012,145.86458333333331,192
2295,9.0,,,,51.0,,,,,0,note_on,,0.0,51.0,0.0,56012,145.86458333333331,192
2296,9.0,,,,35.0,,,,,4,note_on,,112.0,35.0,112.0,56016,145.875,192
2297,9.0,,,,35.0,,,,,44,note_on,,0.0,35.0,0.0,56060,145.98958333333331,192
2298,9.0,,,,35.0,,,,,4,note_on,,112.0,35.0,112.0,56064,146.0,192
2299,9.0,,,,49.0,,,,,0,note_on,,112.0,49.0,112.0,56064,146.0,192
2300,9.0,,,,42.0,,,,,0,note_on,,88.0,42.0,88.0,56064,146.0,192
2301,9.0,,,,42.0,,,,,44,note_on,,0.0,42.0,0.0,56108,146.11458333333331,192
2302,9.0,,,,49.0,,,,,0,note_on,,0.0,49.0,0.0,56108,146.11458333333331,192
2303,9.0,,,,35.0,,,,,0,note_on,,0.0,35.0,0.0,56108,146.11458333333331,192
2304,9.0,,,,42.0,,,,,52,note_on,,88.0,42.0,88.0,56160,146.25,192
2305,9.0,,,,35.0,,,,,0,note_on,,112.0,35.0,112.0,56160,146.25,192
2306,9.0,,,,42.0,,,,,44,note_on,,0.0,42.0,0.0,56204,146.36458333333331,192
2307,9.0,,,,35.0,,,,,0,note_on,,0.0,35.0,0.0,56204,146.36458333333331,192
2308,9.0,,,,40.0,,,,,52,note_on,,112.0,40.0,112.0,56256,146.5,192
2309,9.0,,,,35.0,,,,,0,note_on,,112.0,35.0,112.0,56256,146.5,192
2310,9.0,,,,42.0,,,,,0,note_on,,88.0,42.0,88.0,56256,146.5,192
2311,9.0,,,,51.0,,,,,0,note_on,,112.0,51.0,112.0,56256,146.5,192
2312,9.0,,,,35.0,,,,,44,note_on,,0.0,35.0,0.0,56300,146.61458333333331,192
2313,9.0,,,,42.0,,,,,0,note_on,,0.0,42.0,0.0,56300,146.61458333333331,192
2314,9.0,,,,40.0,,,,,0,note_on,,0.0,40.0,0.0,56300,146.61458333333331,192
2315,9.0,,,,51.0,,,,,0,note_on,,0.0,51.0,0.0,56300,146.61458333333331,192
2316,9.0,,,,42.0,,,,,52,note_on,,88.0,42.0,88.0,56352,146.75,192
2317,9.0,,,,42.0,,,,,44,note_on,,0.0,42.0,0.0,56396,146.86458333333331,192
2318,9.0,,,,42.0,,,,,52,note_on,,88.0,42.0,88.0,56448,147.0,192
2319,9.0,,,,35.0,,,,,0,note_on,,112.0,35.0,112.0,56448,147.0,192
2320,9.0,,,,42.0,,,,,44,note_on,,0.0,42.0,0.0,56492,147.11458333333331,192
2321,9.0,,,,35.0,,,,,0,note_on,,0.0,35.0,0.0,56492,147.11458333333331,192
2322,9.0,,,,42.0,,,,,52,note_on,,88.0,42.0,88.0,56544,147.25,192
2323,9.0,,,,35.0,,,,,0,note_on,,112.0,35.0,112.0,56544,147.25,192
2324,9.0,,,,35.0,,,,,44,note_on,,0.0,35.0,0.0,56588,147.36458333333331,192
2325,9.0,,,,42.0,,,,,0,note_on,,0.0,42.0,0.0,56588,147.36458333333331,192
2326,9.0,,,,51.0,,,,,52,note_on,,112.0,51.0,112.0,56640,147.5,192
2327,9.0,,,,40.0,,,,,0,note_on,,112.0,40.0,112.0,56640,147.5,192
2328,9.0,,,,35.0,,,,,0,note_on,,112.0,35.0,112.0,56640,147.5,192
2329,9.0,,,,42.0,,,,,0,note_on,,88.0,42.0,88.0,56640,147.5,192
2330,9.0,,,,51.0,,,,,44,note_on,,0.0,51.0,0.0,56684,147.61458333333331,192
2331,9.0,,,,42.0,,,,,0,note_on,,0.0,42.0,0.0,56684,147.61458333333331,192
2332,9.0,,,,35.0,,,,,0,note_on,,0.0,35.0,0.0,56684,147.61458333333331,192
2333,9.0,,,,40.0,,,,,0,note_on,,0.0,40.0,0.0,56684,147.61458333333331,192
2334,9.0,,,,42.0,,,,,52,note_on,,88.0,42.0,88.0,56736,147.75,192
2335,9.0,,,,51.0,,,,,0,note_on,,112.0,51.0,112.0,56736,147.75,192
2336,9.0,,,,51.0,,,,,44,note_on,,0.0,51.0,0.0,56780,147.86458333333331,192
2337,9.0,,,,42.0,,,,,0,note_on,,0.0,42.0,0.0,56780,147.86458333333331,192
2338,9.0,,,,35.0,,,,,4,note_on,,112.0,35.0,112.0,56784,147.875,192
2339,9.0,,,,35.0,,,,,44,note_on,,0.0,35.0,0.0,56828,147.98958333333331,192
2340,9.0,,,,35.0,,,,,4,note_on,,112.0,35.0,112.0,56832,148.0,192
2341,9.0,,,,42.0,,,,,0,note_on,,88.0,42.0,88.0,56832,148.0,192
2342,9.0,,,,42.0,,,,,44,note_on,,0.0,42.0,0.0,56876,148.11458333333331,192
2343,9.0,,,,35.0,,,,,0,note_on,,0.0,35.0,0.0,56876,148.11458333333331,192
2344,9.0,,,,35.0,,,,,52,note_on,,112.0,35.0,112.0,56928,148.25,192
2345,9.0,,,,42.0,,,,,0,note_on,,88.0,42.0,88.0,56928,148.25,192
2346,9.0,,,,42.0,,,,,44,note_on,,0.0,42.0,0.0,56972,148.36458333333331,192
2347,9.0,,,,35.0,,,,,0,note_on,,0.0,35.0,0.0,56972,148.36458333333331,192
2348,9.0,,,,51.0,,,,,52,note_on,,112.0,51.0,112.0,57024,148.5,192
2349,9.0,,,,35.0,,,,,0,note_on,,112.0,35.0,112.0,57024,148.5,192
2350,9.0,,,,40.0,,,,,0,note_on,,112.0,40.0,112.0,57024,148.5,192
2351,9.0,,,,42.0,,,,,0,note_on,,88.0,42.0,88.0,57024,148.5,192
2352,9.0,,,,40.0,,,,,44,note_on,,0.0,40.0,0.0,57068,148.61458333333331,192
2353,9.0,,,,42.0,,,,,0,note_on,,0.0,42.0,0.0,57068,148.61458333333331,192
2354,9.0,,,,35.0,,,,,0,note_on,,0.0,35.0,0.0,57068,148.61458333333331,192
2355,9.0,,,,51.0,,,,,0,note_on,,0.0,51.0,0.0,57068,148.61458333333331,192
2356,9.0,,,,42.0,,,,,52,note_on,,88.0,42.0,88.0,57120,148.75,192
2357,9.0,,,,42.0,,,,,44,note_on,,0.0,42.0,0.0,57164,148.86458333333331,192
2358,9.0,,,,42.0,,,,,52,note_on,,88.0,42.0,88.0,57216,149.0,192
2359,9.0,,,,35.0,,,,,0,note_on,,112.0,35.0,112.0,57216,149.0,192
2360,9.0,,,,42.0,,,,,44,note_on,,0.0,42.0,0.0,57260,149.11458333333331,192
2361,9.0,,,,35.0,,,,,0,note_on,,0.0,35.0,0.0,57260,149.11458333333331,192
2362,9.0,,,,35.0,,,,,52,note_on,,112.0,35.0,112.0,57312,149.25,192
2363,9.0,,,,42.0,,,,,0,note_on,,88.0,42.0,88.0,57312,149.25,192
2364,9.0,,,,42.0,,,,,44,note_on,,0.0,42.0,0.0,57356,149.36458333333331,192
2365,9.0,,,,35.0,,,,,0,note_on,,0.0,35.0,0.0,57356,149.36458333333331,192
2366,9.0,,,,42.0,,,,,52,note_on,,88.0,42.0,88.0,57408,149.5,192
2367,9.0,,,,40.0,,,,,0,note_on,,112.0,40.0,112.0,57408,149.5,192
2368,9.0,,,,51.0,,,,,0,note_on,,112.0,51.0,112.0,57408,149.5,192
2369,9.0,,,,35.0,,,,,0,note_on,,112.0,35.0,112.0,57408,149.5,192
2370,9.0,,,,42.0,,,,,44,note_on,,0.0,42.0,0.0,57452,149.61458333333331,192
2371,9.0,,,,35.0,,,,,0,note_on,,0.0,35.0,0.0,57452,149.61458333333331,192
2372,9.0,,,,51.0,,,,,0,note_on,,0.0,51.0,0.0,57452,149.61458333333331,192
2373,9.0,,,,40.0,,,,,0,note_on,,0.0,40.0,0.0,57452,149.61458333333331,192
2374,9.0,,,,51.0,,,,,52,note_on,,112.0,51.0,112.0,57504,149.75,192
2375,9.0,,,,42.0,,,,,0,note_on,,88.0,42.0,88.0,57504,149.75,192
2376,9.0,,,,42.0,,,,,44,note_on,,0.0,42.0,0.0,57548,149.86458333333331,192
2377,9.0,,,,51.0,,,,,0,note_on,,0.0,51.0,0.0,57548,149.86458333333331,192
2378,9.0,,,,35.0,,,,,4,note_on,,112.0,35.0,112.0,57552,149.875,192
2379,9.0,,,,35.0,,,,,44,note_on,,0.0,35.0,0.0,57596,149.98958333333331,192
2380,9.0,,,,35.0,,,,,4,note_on,,112.0,35.0,112.0,57600,150.0,192
2381,9.0,,,,42.0,,,,,0,note_on,,88.0,42.0,88.0,57600,150.0,192
2382,9.0,,,,35.0,,,,,44,note_on,,0.0,35.0,0.0,57644,150.11458333333331,192
2383,9.0,,,,42.0,,,,,0,note_on,,0.0,42.0,0.0,57644,150.11458333333331,192
2384,9.0,,,,42.0,,,,,52,note_on,,88.0,42.0,88.0,57696,150.25,192
2385,9.0,,,,35.0,,,,,0,note_on,,112.0,35.0,112.0,57696,150.25,192
2386,9.0,,,,42.0,,,,,44,note_on,,0.0,42.0,0.0,57740,150.36458333333331,192
2387,9.0,,,,35.0,,,,,0,note_on,,0.0,35.0,0.0,57740,150.36458333333331,192
2388,9.0,,,,35.0,,,,,52,note_on,,112.0,35.0,112.0,57792,150.5,192
2389,9.0,,,,40.0,,,,,0,note_on,,112.0,40.0,112.0,57792,150.5,192
2390,9.0,,,,42.0,,,,,0,note_on,,88.0,42.0,88.0,57792,150.5,192
2391,9.0,,,,51.0,,,,,0,note_on,,112.0,51.0,112.0,57792,150.5,192
2392,9.0,,,,42.0,,,,,44,note_on,,0.0,42.0,0.0,57836,150.61458333333331,192
2393,9.0,,,,40.0,,,,,0,note_on,,0.0,40.0,0.0,57836,150.61458333333331,192
2394,9.0,,,,35.0,,,,,0,note_on,,0.0,35.0,0.0,57836,150.61458333333331,192
2395,9.0,,,,51.0,,,,,0,note_on,,0.0,51.0,0.0,57836,150.61458333333331,192
2396,9.0,,,,42.0,,,,,52,note_on,,88.0,42.0,88.0,57888,150.75,192
2397,9.0,,,,42.0,,,,,44,note_on,,0.0,42.0,0.0,57932,150.86458333333331,192
2398,9.0,,,,42.0,,,,,52,note_on,,88.0,42.0,88.0,57984,151.0,192
2399,9.0,,,,35.0,,,,,0,note_on,,112.0,35.0,112.0,57984,151.0,192
2400,9.0,,,,42.0,,,,,44,note_on,,0.0,42.0,0.0,58028,151.11458333333331,192
2401,9.0,,,,35.0,,,,,0,note_on,,0.0,35.0,0.0,58028,151.11458333333331,192
2402,9.0,,,,35.0,,,,,52,note_on,,112.0,35.0,112.0,58080,151.25,192
2403,9.0,,,,42.0,,,,,0,note_on,,88.0,42.0,88.0,58080,151.25,192
2404,9.0,,,,42.0,,,,,44,note_on,,0.0,42.0,0.0,58124,151.36458333333331,192
2405,9.0,,,,35.0,,,,,0,note_on,,0.0,35.0,0.0,58124,151.36458333333331,192
2406,9.0,,,,51.0,,,,,52,note_on,,112.0,51.0,112.0,58176,151.5,192
2407,9.0,,,,40.0,,,,,0,note_on,,112.0,40.0,112.0,58176,151.5,192
2408,9.0,,,,35.0,,,,,0,note_on,,112.0,35.0,112.0,58176,151.5,192
2409,9.0,,,,42.0,,,,,0,note_on,,88.0,42.0,88.0,58176,151.5,192
2410,9.0,,,,51.0,,,,,44,note_on,,0.0,51.0,0.0,58220,151.61458333333331,192
2411,9.0,,,,42.0,,,,,0,note_on,,0.0,42.0,0.0,58220,151.61458333333331,192
2412,9.0,,,,35.0,,,,,0,note_on,,0.0,35.0,0.0,58220,151.61458333333331,192
2413,9.0,,,,40.0,,,,,0,note_on,,0.0,40.0,0.0,58220,151.61458333333331,192
2414,9.0,,,,51.0,,,,,52,note_on,,112.0,51.0,112.0,58272,151.75,192
2415,9.0,,,,42.0,,,,,0,note_on,,88.0,42.0,88.0,58272,151.75,192
2416,9.0,,,,42.0,,,,,44,note_on,,0.0,42.0,0.0,58316,151.86458333333331,192
2417,9.0,,,,51.0,,,,,0,note_on,,0.0,51.0,0.0,58316,151.86458333333331,192
2418,9.0,,,,35.0,,,,,4,note_on,,112.0,35.0,112.0,58320,151.875,192
2419,9.0,,,,35.0,,,,,44,note_on,,0.0,35.0,0.0,58364,151.98958333333331,192
2420,9.0,,,,42.0,,,,,4,note_on,,88.0,42.0,88.0,58368,152.0,192
2421,9.0,,,,35.0,,,,,0,note_on,,112.0,35.0,112.0,58368,152.0,192
2422,9.0,,,,35.0,,,,,44,note_on,,0.0,35.0,0.0,58412,152.11458333333331,192
2423,9.0,,,,42.0,,,,,0,note_on,,0.0,42.0,0.0,58412,152.11458333333331,192
2424,9.0,,,,42.0,,,,,52,note_on,,88.0,42.0,88.0,58464,152.25,192
2425,9.0,,,,35.0,,,,,0,note_on,,112.0,35.0,112.0,58464,152.25,192
2426,9.0,,,,35.0,,,,,44,note_on,,0.0,35.0,0.0,58508,152.36458333333331,192
2427,9.0,,,,42.0,,,,,0,note_on,,0.0,42.0,0.0,58508,152.36458333333331,192
2428,9.0,,,,42.0,,,,,52,note_on,,88.0,42.0,88.0,58560,152.5,192
2429,9.0,,,,40.0,,,,,0,note_on,,112.0,40.0,112.0,58560,152.5,192
2430,9.0,,,,51.0,,,,,0,note_on,,112.0,51.0,112.0,58560,152.5,192
2431,9.0,,,,35.0,,,,,0,note_on,,112.0,35.0,112.0,58560,152.5,192
2432,9.0,,,,51.0,,,,,44,note_on,,0.0,51.0,0.0,58604,152.61458333333331,192
2433,9.0,,,,35.0,,,,,0,note_on,,0.0,35.0,0.0,58604,152.61458333333331,192
2434,9.0,,,,40.0,,,,,0,note_on,,0.0,40.0,0.0,58604,152.61458333333331,192
2435,9.0,,,,42.0,,,,,0,note_on,,0.0,42.0,0.0,58604,152.61458333333331,192
2436,9.0,,,,42.0,,,,,52,note_on,,88.0,42.0,88.0,58656,152.75,192
2437,9.0,,,,42.0,,,,,44,note_on,,0.0,42.0,0.0,58700,152.86458333333331,192
2438,9.0,,,,42.0,,,,,52,note_on,,88.0,42.0,88.0,58752,153.0,192
2439,9.0,,,,35.0,,,,,0,note_on,,112.0,35.0,112.0,58752,153.0,192
2440,9.0,,,,42.0,,,,,44,note_on,,0.0,42.0,0.0,58796,153.11458333333331,192
2441,9.0,,,,35.0,,,,,0,note_on,,0.0,35.0,0.0,58796,153.11458333333331,192
2442,9.0,,,,42.0,,,,,52,note_on,,88.0,42.0,88.0,58848,153.25,192
2443,9.0,,,,35.0,,,,,0,note_on,,112.0,35.0,112.0,58848,153.25,192
2444,9.0,,,,35.0,,,,,44,note_on,,0.0,35.0,0.0,58892,153.36458333333331,192
2445,9.0,,,,42.0,,,,,0,note_on,,0.0,42.0,0.0,58892,153.36458333333331,192
2446,9.0,,,,40.0,,,,,52,note_on,,112.0,40.0,112.0,58944,153.5,192
2447,9.0,,,,35.0,,,,,0,note_on,,112.0,35.0,112.0,58944,153.5,192
2448,9.0,,,,51.0,,,,,0,note_on,,112.0,51.0,112.0,58944,153.5,192
2449,9.0,,,,42.0,,,,,0,note_on,,88.0,42.0,88.0,58944,153.5,192
2450,9.0,,,,40.0,,,,,44,note_on,,0.0,40.0,0.0,58988,153.61458333333331,192
2451,9.0,,,,42.0,,,,,0,note_on,,0.0,42.0,0.0,58988,153.61458333333331,192
2452,9.0,,,,51.0,,,,,0,note_on,,0.0,51.0,0.0,58988,153.61458333333331,192
2453,9.0,,,,35.0,,,,,0,note_on,,0.0,35.0,0.0,58988,153.61458333333331,192
2454,9.0,,,,42.0,,,,,52,note_on,,88.0,42.0,88.0,59040,153.75,192
2455,9.0,,,,51.0,,,,,0,note_on,,112.0,51.0,112.0,59040,153.75,192
2456,9.0,,,,51.0,,,,,44,note_on,,0.0,51.0,0.0,59084,153.86458333333331,192
2457,9.0,,,,42.0,,,,,0,note_on,,0.0,42.0,0.0,59084,153.86458333333331,192
2458,9.0,,,,35.0,,,,,4,note_on,,112.0,35.0,112.0,59088,153.875,192
2459,9.0,,,,35.0,,,,,44,note_on,,0.0,35.0,0.0,59132,153.98958333333331,192
2460,9.0,,,,35.0,,,,,4,note_on,,112.0,35.0,112.0,59136,154.0,192
2461,9.0,,,,42.0,,,,,0,note_on,,88.0,42.0,88.0,59136,154.0,192
2462,9.0,,,,35.0,,,,,44,note_on,,0.0,35.0,0.0,59180,154.11458333333331,192
2463,9.0,,,,42.0,,,,,0,note_on,,0.0,42.0,0.0,59180,154.11458333333331,192
2464,9.0,,,,35.0,,,,,52,note_on,,112.0,35.0,112.0,59232,154.25,192
2465,9.0,,,,42.0,,,,,0,note_on,,88.0,42.0,88.0,59232,154.25,192
2466,9.0,,,,35.0,,,,,44,note_on,,0.0,35.0,0.0,59276,154.36458333333331,192
2467,9.0,,,,42.0,,,,,0,note_on,,0.0,42.0,0.0,59276,154.36458333333331,192
2468,9.0,,,,51.0,,,,,52,note_on,,112.0,51.0,112.0,59328,154.5,192
2469,9.0,,,,40.0,,,,,0,note_on,,112.0,40.0,112.0,59328,154.5,192
2470,9.0,,,,35.0,,,,,0,note_on,,112.0,35.0,112.0,59328,154.5,192
2471,9.0,,,,42.0,,,,,0,note_on,,88.0,42.0,88.0,59328,154.5,192
2472,9.0,,,,40.0,,,,,44,note_on,,0.0,40.0,0.0,59372,154.61458333333331,192
2473,9.0,,,,35.0,,,,,0,note_on,,0.0,35.0,0.0,59372,154.61458333333331,192
2474,9.0,,,,51.0,,,,,0,note_on,,0.0,51.0,0.0,59372,154.61458333333331,192
2475,9.0,,,,42.0,,,,,0,note_on,,0.0,42.0,0.0,59372,154.61458333333331,192
2476,9.0,,,,42.0,,,,,52,note_on,,88.0,42.0,88.0,59424,154.75,192
2477,9.0,,,,42.0,,,,,44,note_on,,0.0,42.0,0.0,59468,154.86458333333331,192
2478,9.0,,,,35.0,,,,,52,note_on,,112.0,35.0,112.0,59520,155.0,192
2479,9.0,,,,42.0,,,,,0,note_on,,88.0,42.0,88.0,59520,155.0,192
2480,9.0,,,,35.0,,,,,44,note_on,,0.0,35.0,0.0,59564,155.11458333333331,192
2481,9.0,,,,42.0,,,,,0,note_on,,0.0,42.0,0.0,59564,155.11458333333331,192
2482,9.0,,,,42.0,,,,,52,note_on,,88.0,42.0,88.0,59616,155.25,192
2483,9.0,,,,35.0,,,,,0,note_on,,112.0,35.0,112.0,59616,155.25,192
2484,9.0,,,,35.0,,,,,44,note_on,,0.0,35.0,0.0,59660,155.36458333333331,192
2485,9.0,,,,42.0,,,,,0,note_on,,0.0,42.0,0.0,59660,155.36458333333331,192
2486,9.0,,,,51.0,,,,,52,note_on,,112.0,51.0,112.0,59712,155.5,192
2487,9.0,,,,40.0,,,,,0,note_on,,112.0,40.0,112.0,59712,155.5,192
2488,9.0,,,,35.0,,,,,0,note_on,,112.0,35.0,112.0,59712,155.5,192
2489,9.0,,,,42.0,,,,,0,note_on,,88.0,42.0,88.0,59712,155.5,192
2490,9.0,,,,51.0,,,,,44,note_on,,0.0,51.0,0.0,59756,155.61458333333331,192
2491,9.0,,,,42.0,,,,,0,note_on,,0.0,42.0,0.0,59756,155.61458333333331,192
2492,9.0,,,,35.0,,,,,0,note_on,,0.0,35.0,0.0,59756,155.61458333333331,192
2493,9.0,,,,40.0,,,,,0,note_on,,0.0,40.0,0.0,59756,155.61458333333331,192
2494,9.0,,,,51.0,,,,,52,note_on,,112.0,51.0,112.0,59808,155.75,192
2495,9.0,,,,42.0,,,,,0,note_on,,88.0,42.0,88.0,59808,155.75,192
2496,9.0,,,,42.0,,,,,44,note_on,,0.0,42.0,0.0,59852,155.86458333333331,192
2497,9.0,,,,51.0,,,,,0,note_on,,0.0,51.0,0.0,59852,155.86458333333331,192
2498,9.0,,,,35.0,,,,,4,note_on,,112.0,35.0,112.0,59856,155.875,192
2499,9.0,,,,35.0,,,,,44,note_on,,0.0,35.0,0.0,59900,155.98958333333331,192
2500,9.0,,,,42.0,,,,,4,note_on,,88.0,42.0,88.0,59904,156.0,192
2501,9.0,,,,35.0,,,,,0,note_on,,112.0,35.0,112.0,59904,156.0,192
2502,9.0,,,,35.0,,,,,44,note_on,,0.0,35.0,0.0,59948,156.11458333333331,192
2503,9.0,,,,42.0,,,,,0,note_on,,0.0,42.0,0.0,59948,156.11458333333331,192
2504,9.0,,,,42.0,,,,,52,note_on,,88.0,42.0,88.0,60000,156.25,192
2505,9.0,,,,35.0,,,,,0,note_on,,112.0,35.0,112.0,60000,156.25,192
2506,9.0,,,,35.0,,,,,44,note_on,,0.0,35.0,0.0,60044,156.36458333333331,192
2507,9.0,,,,42.0,,,,,0,note_on,,0.0,42.0,0.0,60044,156.36458333333331,192
2508,9.0,,,,51.0,,,,,52,note_on,,112.0,51.0,112.0,60096,156.5,192
2509,9.0,,,,42.0,,,,,0,note_on,,88.0,42.0,88.0,60096,156.5,192
2510,9.0,,,,40.0,,,,,0,note_on,,112.0,40.0,112.0,60096,156.5,192
2511,9.0,,,,35.0,,,,,0,note_on,,112.0,35.0,112.0,60096,156.5,192
2512,9.0,,,,40.0,,,,,44,note_on,,0.0,40.0,0.0,60140,156.61458333333331,192
2513,9.0,,,,35.0,,,,,0,note_on,,0.0,35.0,0.0,60140,156.61458333333331,192
2514,9.0,,,,42.0,,,,,0,note_on,,0.0,42.0,0.0,60140,156.61458333333331,192
2515,9.0,,,,51.0,,,,,0,note_on,,0.0,51.0,0.0,60140,156.61458333333331,192
2516,9.0,,,,42.0,,,,,52,note_on,,88.0,42.0,88.0,60192,156.75,192
2517,9.0,,,,42.0,,,,,44,note_on,,0.0,42.0,0.0,60236,156.86458333333331,192
2518,9.0,,,,42.0,,,,,52,note_on,,88.0,42.0,88.0,60288,157.0,192
2519,9.0,,,,35.0,,,,,0,note_on,,112.0,35.0,112.0,60288,157.0,192
2520,9.0,,,,42.0,,,,,44,note_on,,0.0,42.0,0.0,60332,157.11458333333331,192
2521,9.0,,,,35.0,,,,,0,note_on,,0.0,35.0,0.0,60332,157.11458333333331,192
2522,9.0,,,,35.0,,,,,52,note_on,,112.0,35.0,112.0,60384,157.25,192
2523,9.0,,,,42.0,,,,,0,note_on,,88.0,42.0,88.0,60384,157.25,192
2524,9.0,,,,42.0,,,,,44,note_on,,0.0,42.0,0.0,60428,157.36458333333331,192
2525,9.0,,,,35.0,,,,,0,note_on,,0.0,35.0,0.0,60428,157.36458333333331,192
2526,9.0,,,,35.0,,,,,52,note_on,,112.0,35.0,112.0,60480,157.5,192
2527,9.0,,,,51.0,,,,,0,note_on,,112.0,51.0,112.0,60480,157.5,192
2528,9.0,,,,40.0,,,,,0,note_on,,112.0,40.0,112.0,60480,157.5,192
2529,9.0,,,,42.0,,,,,0,note_on,,88.0,42.0,88.0,60480,157.5,192
2530,9.0,,,,35.0,,,,,44,note_on,,0.0,35.0,0.0,60524,157.61458333333331,192
2531,9.0,,,,42.0,,,,,0,note_on,,0.0,42.0,0.0,60524,157.61458333333331,192
2532,9.0,,,,40.0,,,,,0,note_on,,0.0,40.0,0.0,60524,157.61458333333331,192
2533,9.0,,,,51.0,,,,,0,note_on,,0.0,51.0,0.0,60524,157.61458333333331,192
2534,9.0,,,,42.0,,,,,52,note_on,,88.0,42.0,88.0,60576,157.75,192
2535,9.0,,,,51.0,,,,,0,note_on,,112.0,51.0,112.0,60576,157.75,192
2536,9.0,,,,51.0,,,,,44,note_on,,0.0,51.0,0.0,60620,157.86458333333331,192
2537,9.0,,,,42.0,,,,,0,note_on,,0.0,42.0,0.0,60620,157.86458333333331,192
2538,9.0,,,,35.0,,,,,4,note_on,,112.0,35.0,112.0,60624,157.875,192
2539,9.0,,,,35.0,,,,,44,note_on,,0.0,35.0,0.0,60668,157.98958333333331,192
2540,9.0,,,,42.0,,,,,4,note_on,,88.0,42.0,88.0,60672,158.0,192
2541,9.0,,,,35.0,,,,,0,note_on,,112.0,35.0,112.0,60672,158.0,192
2542,9.0,,,,42.0,,,,,44,note_on,,0.0,42.0,0.0,60716,158.11458333333331,192
2543,9.0,,,,35.0,,,,,0,note_on,,0.0,35.0,0.0,60716,158.11458333333331,192
2544,9.0,,,,42.0,,,,,52,note_on,,88.0,42.0,88.0,60768,158.25,192
2545,9.0,,,,35.0,,,,,0,note_on,,112.0,35.0,112.0,60768,158.25,192
2546,9.0,,,,42.0,,,,,44,note_on,,0.0,42.0,0.0,60812,158.36458333333331,192
2547,9.0,,,,35.0,,,,,0,note_on,,0.0,35.0,0.0,60812,158.36458333333331,192
2548,9.0,,,,42.0,,,,,52,note_on,,88.0,42.0,88.0,60864,158.5,192
2549,9.0,,,,35.0,,,,,0,note_on,,112.0,35.0,112.0,60864,158.5,192
2550,9.0,,,,51.0,,,,,0,note_on,,112.0,51.0,112.0,60864,158.5,192
2551,9.0,,,,40.0,,,,,0,note_on,,112.0,40.0,112.0,60864,158.5,192
2552,9.0,,,,51.0,,,,,44,note_on,,0.0,51.0,0.0,60908,158.61458333333331,192
2553,9.0,,,,35.0,,,,,0,note_on,,0.0,35.0,0.0,60908,158.61458333333331,192
2554,9.0,,,,42.0,,,,,0,note_on,,0.0,42.0,0.0,60908,158.61458333333331,192
2555,9.0,,,,40.0,,,,,0,note_on,,0.0,40.0,0.0,60908,158.61458333333331,192
2556,9.0,,,,42.0,,,,,52,note_on,,88.0,42.0,88.0,60960,158.75,192
2557,9.0,,,,42.0,,,,,44,note_on,,0.0,42.0,0.0,61004,158.86458333333331,192
2558,9.0,,,,42.0,,,,,52,note_on,,88.0,42.0,88.0,61056,159.0,192
2559,9.0,,,,35.0,,,,,0,note_on,,112.0,35.0,112.0,61056,159.0,192
2560,9.0,,,,42.0,,,,,44,note_on,,0.0,42.0,0.0,61100,159.11458333333331,192
2561,9.0,,,,35.0,,,,,0,note_on,,0.0,35.0,0.0,61100,159.11458333333331,192
2562,9.0,,,,42.0,,,,,52,note_on,,88.0,42.0,88.0,61152,159.25,192
2563,9.0,,,,35.0,,,,,0,note_on,,112.0,35.0,112.0,61152,159.25,192
2564,9.0,,,,35.0,,,,,44,note_on,,0.0,35.0,0.0,61196,159.36458333333331,192
2565,9.0,,,,42.0,,,,,0,note_on,,0.0,42.0,0.0,61196,159.36458333333331,192
2566,9.0,,,,42.0,,,,,52,note_on,,88.0,42.0,88.0,61248,159.5,192
2567,9.0,,,,35.0,,,,,0,note_on,,112.0,35.0,112.0,61248,159.5,192
2568,9.0,,,,40.0,,,,,0,note_on,,112.0,40.0,112.0,61248,159.5,192
2569,9.0,,,,51.0,,,,,0,note_on,,112.0,51.0,112.0,61248,159.5,192
2570,9.0,,,,42.0,,,,,44,note_on,,0.0,42.0,0.0,61292,159.61458333333331,192
2571,9.0,,,,51.0,,,,,0,note_on,,0.0,51.0,0.0,61292,159.61458333333331,192
2572,9.0,,,,40.0,,,,,0,note_on,,0.0,40.0,0.0,61292,159.61458333333331,192
2573,9.0,,,,35.0,,,,,0,note_on,,0.0,35.0,0.0,61292,159.61458333333331,192
2574,9.0,,,,51.0,,,,,52,note_on,,112.0,51.0,112.0,61344,159.75,192
2575,9.0,,,,42.0,,,,,0,note_on,,88.0,42.0,88.0,61344,159.75,192
2576,9.0,,,,42.0,,,,,44,note_on,,0.0,42.0,0.0,61388,159.86458333333331,192
2577,9.0,,,,51.0,,,,,0,note_on,,0.0,51.0,0.0,61388,159.86458333333331,192
2578,9.0,,,,35.0,,,,,4,note_on,,112.0,35.0,112.0,61392,159.875,192
2579,9.0,,,,35.0,,,,,44,note_on,,0.0,35.0,0.0,61436,159.98958333333331,192
2580,9.0,,,,42.0,,,,,4,note_on,,88.0,42.0,88.0,61440,160.0,192
2581,9.0,,,,35.0,,,,,0,note_on,,112.0,35.0,112.0,61440,160.0,192
2582,9.0,,,,35.0,,,,,44,note_on,,0.0,35.0,0.0,61484,160.11458333333331,192
2583,9.0,,,,42.0,,,,,0,note_on,,0.0,42.0,0.0,61484,160.11458333333331,192
2584,9.0,,,,35.0,,,,,52,note_on,,112.0,35.0,112.0,61536,160.25,192
2585,9.0,,,,42.0,,,,,0,note_on,,88.0,42.0,88.0,61536,160.25,192
2586,9.0,,,,42.0,,,,,44,note_on,,0.0,42.0,0.0,61580,160.36458333333331,192
2587,9.0,,,,35.0,,,,,0,note_on,,0.0,35.0,0.0,61580,160.36458333333331,192
2588,9.0,,,,42.0,,,,,52,note_on,,88.0,42.0,88.0,61632,160.5,192
2589,9.0,,,,35.0,,,,,0,note_on,,112.0,35.0,112.0,61632,160.5,192
2590,9.0,,,,51.0,,,,,0,note_on,,112.0,51.0,112.0,61632,160.5,192
2591,9.0,,,,40.0,,,,,0,note_on,,112.0,40.0,112.0,61632,160.5,192
2592,9.0,,,,51.0,,,,,44,note_on,,0.0,51.0,0.0,61676,160.61458333333331,192
2593,9.0,,,,40.0,,,,,0,note_on,,0.0,40.0,0.0,61676,160.61458333333331,192
2594,9.0,,,,35.0,,,,,0,note_on,,0.0,35.0,0.0,61676,160.61458333333331,192
2595,9.0,,,,42.0,,,,,0,note_on,,0.0,42.0,0.0,61676,160.61458333333331,192
2596,9.0,,,,42.0,,,,,52,note_on,,88.0,42.0,88.0,61728,160.75,192
2597,9.0,,,,42.0,,,,,44,note_on,,0.0,42.0,0.0,61772,160.86458333333331,192
2598,9.0,,,,42.0,,,,,52,note_on,,88.0,42.0,88.0,61824,161.0,192
2599,9.0,,,,35.0,,,,,0,note_on,,112.0,35.0,112.0,61824,161.0,192
2600,9.0,,,,42.0,,,,,44,note_on,,0.0,42.0,0.0,61868,161.11458333333331,192
2601,9.0,,,,35.0,,,,,0,note_on,,0.0,35.0,0.0,61868,161.11458333333331,192
2602,9.0,,,,42.0,,,,,52,note_on,,88.0,42.0,88.0,61920,161.25,192
2603,9.0,,,,35.0,,,,,0,note_on,,112.0,35.0,112.0,61920,161.25,192
2604,9.0,,,,35.0,,,,,44,note_on,,0.0,35.0,0.0,61964,161.36458333333331,192
2605,9.0,,,,42.0,,,,,0,note_on,,0.0,42.0,0.0,61964,161.36458333333331,192
2606,9.0,,,,40.0,,,,,52,note_on,,112.0,40.0,112.0,62016,161.5,192
2607,9.0,,,,51.0,,,,,0,note_on,,112.0,51.0,112.0,62016,161.5,192
2608,9.0,,,,42.0,,,,,0,note_on,,88.0,42.0,88.0,62016,161.5,192
2609,9.0,,,,35.0,,,,,0,note_on,,112.0,35.0,112.0,62016,161.5,192
2610,9.0,,,,40.0,,,,,44,note_on,,0.0,40.0,0.0,62060,161.61458333333331,192
2611,9.0,,,,35.0,,,,,0,note_on,,0.0,35.0,0.0,62060,161.61458333333331,192
2612,9.0,,,,42.0,,,,,0,note_on,,0.0,42.0,0.0,62060,161.61458333333331,192
2613,9.0,,,,51.0,,,,,0,note_on,,0.0,51.0,0.0,62060,161.61458333333331,192
2614,9.0,,,,51.0,,,,,52,note_on,,112.0,51.0,112.0,62112,161.75,192
2615,9.0,,,,42.0,,,,,0,note_on,,88.0,42.0,88.0,62112,161.75,192
2616,9.0,,,,42.0,,,,,44,note_on,,0.0,42.0,0.0,62156,161.86458333333331,192
2617,9.0,,,,51.0,,,,,0,note_on,,0.0,51.0,0.0,62156,161.86458333333331,192
2618,9.0,,,,35.0,,,,,4,note_on,,112.0,35.0,112.0,62160,161.875,192
2619,9.0,,,,35.0,,,,,44,note_on,,0.0,35.0,0.0,62204,161.98958333333331,192
2620,9.0,,,,35.0,,,,,4,note_on,,112.0,35.0,112.0,62208,162.0,192
2621,9.0,,,,42.0,,,,,0,note_on,,88.0,42.0,88.0,62208,162.0,192
2622,9.0,,,,35.0,,,,,44,note_on,,0.0,35.0,0.0,62252,162.11458333333331,192
2623,9.0,,,,42.0,,,,,0,note_on,,0.0,42.0,0.0,62252,162.11458333333331,192
2624,9.0,,,,42.0,,,,,52,note_on,,88.0,42.0,88.0,62304,162.25,192
2625,9.0,,,,35.0,,,,,0,note_on,,112.0,35.0,112.0,62304,162.25,192
2626,9.0,,,,42.0,,,,,44,note_on,,0.0,42.0,0.0,62348,162.36458333333331,192
2627,9.0,,,,35.0,,,,,0,note_on,,0.0,35.0,0.0,62348,162.36458333333331,192
2628,9.0,,,,51.0,,,,,52,note_on,,112.0,51.0,112.0,62400,162.5,192
2629,9.0,,,,35.0,,,,,0,note_on,,112.0,35.0,112.0,62400,162.5,192
2630,9.0,,,,40.0,,,,,0,note_on,,112.0,40.0,112.0,62400,162.5,192
2631,9.0,,,,42.0,,,,,0,note_on,,88.0,42.0,88.0,62400,162.5,192
2632,9.0,,,,35.0,,,,,44,note_on,,0.0,35.0,0.0,62444,162.61458333333331,192
2633,9.0,,,,40.0,,,,,0,note_on,,0.0,40.0,0.0,62444,162.61458333333331,192
2634,9.0,,,,51.0,,,,,0,note_on,,0.0,51.0,0.0,62444,162.61458333333331,192
2635,9.0,,,,42.0,,,,,0,note_on,,0.0,42.0,0.0,62444,162.61458333333331,192
2636,9.0,,,,42.0,,,,,52,note_on,,88.0,42.0,88.0,62496,162.75,192
2637,9.0,,,,42.0,,,,,44,note_on,,0.0,42.0,0.0,62540,162.86458333333331,192
2638,9.0,,,,35.0,,,,,52,note_on,,112.0,35.0,112.0,62592,163.0,192
2639,9.0,,,,42.0,,,,,0,note_on,,88.0,42.0,88.0,62592,163.0,192
2640,9.0,,,,35.0,,,,,44,note_on,,0.0,35.0,0.0,62636,163.11458333333331,192
2641,9.0,,,,42.0,,,,,0,note_on,,0.0,42.0,0.0,62636,163.11458333333331,192
2642,9.0,,,,35.0,,,,,52,note_on,,112.0,35.0,112.0,62688,163.25,192
2643,9.0,,,,42.0,,,,,0,note_on,,88.0,42.0,88.0,62688,163.25,192
2644,9.0,,,,42.0,,,,,44,note_on,,0.0,42.0,0.0,62732,163.36458333333331,192
2645,9.0,,,,35.0,,,,,0,note_on,,0.0,35.0,0.0,62732,163.36458333333331,192
2646,9.0,,,,51.0,,,,,52,note_on,,112.0,51.0,112.0,62784,163.5,192
2647,9.0,,,,40.0,,,,,0,note_on,,112.0,40.0,112.0,62784,163.5,192
2648,9.0,,,,42.0,,,,,0,note_on,,88.0,42.0,88.0,62784,163.5,192
2649,9.0,,,,35.0,,,,,0,note_on,,112.0,35.0,112.0,62784,163.5,192
2650,9.0,,,,51.0,,,,,44,note_on,,0.0,51.0,0.0,62828,163.61458333333331,192
2651,9.0,,,,35.0,,,,,0,note_on,,0.0,35.0,0.0,62828,163.61458333333331,192
2652,9.0,,,,42.0,,,,,0,note_on,,0.0,42.0,0.0,62828,163.61458333333331,192
2653,9.0,,,,40.0,,,,,0,note_on,,0.0,40.0,0.0,62828,163.61458333333331,192
2654,9.0,,,,42.0,,,,,52,note_on,,88.0,42.0,88.0,62880,163.75,192
2655,9.0,,,,51.0,,,,,0,note_on,,112.0,51.0,112.0,62880,163.75,192
2656,9.0,,,,51.0,,,,,44,note_on,,0.0,51.0,0.0,62924,163.86458333333331,192
2657,9.0,,,,42.0,,,,,0,note_on,,0.0,42.0,0.0,62924,163.86458333333331,192
2658,9.0,,,,35.0,,,,,4,note_on,,112.0,35.0,112.0,62928,163.875,192
2659,9.0,,,,35.0,,,,,44,note_on,,0.0,35.0,0.0,62972,163.98958333333331,192
2660,9.0,,,,35.0,,,,,4,note_on,,112.0,35.0,112.0,62976,164.0,192
2661,9.0,,,,42.0,,,,,0,note_on,,88.0,42.0,88.0,62976,164.0,192
2662,9.0,,,,42.0,,,,,44,note_on,,0.0,42.0,0.0,63020,164.11458333333331,192
2663,9.0,,,,35.0,,,,,0,note_on,,0.0,35.0,0.0,63020,164.11458333333331,192
2664,9.0,,,,35.0,,,,,52,note_on,,112.0,35.0,112.0,63072,164.25,192
2665,9.0,,,,42.0,,,,,0,note_on,,88.0,42.0,88.0,63072,164.25,192
2666,9.0,,,,42.0,,,,,44,note_on,,0.0,42.0,0.0,63116,164.36458333333331,192
2667,9.0,,,,35.0,,,,,0,note_on,,0.0,35.0,0.0,63116,164.36458333333331,192
2668,9.0,,,,35.0,,,,,52,note_on,,112.0,35.0,112.0,63168,164.5,192
2669,9.0,,,,40.0,,,,,0,note_on,,112.0,40.0,112.0,63168,164.5,192
2670,9.0,,,,51.0,,,,,0,note_on,,112.0,51.0,112.0,63168,164.5,192
2671,9.0,,,,42.0,,,,,0,note_on,,88.0,42.0,88.0,63168,164.5,192
2672,9.0,,,,51.0,,,,,44,note_on,,0.0,51.0,0.0,63212,164.61458333333331,192
2673,9.0,,,,42.0,,,,,0,note_on,,0.0,42.0,0.0,63212,164.61458333333331,192
2674,9.0,,,,40.0,,,,,0,note_on,,0.0,40.0,0.0,63212,164.61458333333331,192
2675,9.0,,,,35.0,,,,,0,note_on,,0.0,35.0,0.0,63212,164.61458333333331,192
2676,9.0,,,,42.0,,,,,52,note_on,,88.0,42.0,88.0,63264,164.75,192
2677,9.0,,,,42.0,,,,,44,note_on,,0.0,42.0,0.0,63308,164.86458333333331,192
2678,9.0,,,,42.0,,,,,52,note_on,,88.0,42.0,88.0,63360,165.0,192
2679,9.0,,,,35.0,,,,,0,note_on,,112.0,35.0,112.0,63360,165.0,192
2680,9.0,,,,42.0,,,,,44,note_on,,0.0,42.0,0.0,63404,165.11458333333331,192
2681,9.0,,,,35.0,,,,,0,note_on,,0.0,35.0,0.0,63404,165.11458333333331,192
2682,9.0,,,,42.0,,,,,52,note_on,,88.0,42.0,88.0,63456,165.25,192
2683,9.0,,,,35.0,,,,,0,note_on,,112.0,35.0,112.0,63456,165.25,192
2684,9.0,,,,35.0,,,,,44,note_on,,0.0,35.0,0.0,63500,165.36458333333331,192
2685,9.0,,,,42.0,,,,,0,note_on,,0.0,42.0,0.0,63500,165.36458333333331,192
2686,9.0,,,,51.0,,,,,52,note_on,,112.0,51.0,112.0,63552,165.5,192
2687,9.0,,,,35.0,,,,,0,note_on,,112.0,35.0,112.0,63552,165.5,192
2688,9.0,,,,42.0,,,,,0,note_on,,88.0,42.0,88.0,63552,165.5,192
2689,9.0,,,,40.0,,,,,0,note_on,,112.0,40.0,112.0,63552,165.5,192
2690,9.0,,,,51.0,,,,,44,note_on,,0.0,51.0,0.0,63596,165.61458333333331,192
2691,9.0,,,,40.0,,,,,0,note_on,,0.0,40.0,0.0,63596,165.61458333333331,192
2692,9.0,,,,42.0,,,,,0,note_on,,0.0,42.0,0.0,63596,165.61458333333331,192
2693,9.0,,,,35.0,,,,,0,note_on,,0.0,35.0,0.0,63596,165.61458333333331,192
2694,9.0,,,,42.0,,,,,52,note_on,,88.0,42.0,88.0,63648,165.75,192
2695,9.0,,,,51.0,,,,,0,note_on,,112.0,51.0,112.0,63648,165.75,192
2696,9.0,,,,51.0,,,,,44,note_on,,0.0,51.0,0.0,63692,165.86458333333331,192
2697,9.0,,,,42.0,,,,,0,note_on,,0.0,42.0,0.0,63692,165.86458333333331,192
2698,9.0,,,,35.0,,,,,4,note_on,,112.0,35.0,112.0,63696,165.875,192
2699,9.0,,,,35.0,,,,,44,note_on,,0.0,35.0,0.0,63740,165.98958333333331,192
2700,9.0,,,,35.0,,,,,4,note_on,,112.0,35.0,112.0,63744,166.0,192
2701,9.0,,,,42.0,,,,,0,note_on,,88.0,42.0,88.0,63744,166.0,192
2702,9.0,,,,35.0,,,,,44,note_on,,0.0,35.0,0.0,63788,166.11458333333331,192
2703,9.0,,,,42.0,,,,,0,note_on,,0.0,42.0,0.0,63788,166.11458333333331,192
2704,9.0,,,,35.0,,,,,52,note_on,,112.0,35.0,112.0,63840,166.25,192
2705,9.0,,,,42.0,,,,,0,note_on,,88.0,42.0,88.0,63840,166.25,192
2706,9.0,,,,35.0,,,,,44,note_on,,0.0,35.0,0.0,63884,166.36458333333331,192
2707,9.0,,,,42.0,,,,,0,note_on,,0.0,42.0,0.0,63884,166.36458333333331,192
2708,9.0,,,,42.0,,,,,52,note_on,,88.0,42.0,88.0,63936,166.5,192
2709,9.0,,,,35.0,,,,,0,note_on,,112.0,35.0,112.0,63936,166.5,192
2710,9.0,,,,51.0,,,,,0,note_on,,112.0,51.0,112.0,63936,166.5,192
2711,9.0,,,,40.0,,,,,0,note_on,,112.0,40.0,112.0,63936,166.5,192
2712,9.0,,,,51.0,,,,,44,note_on,,0.0,51.0,0.0,63980,166.61458333333331,192
2713,9.0,,,,35.0,,,,,0,note_on,,0.0,35.0,0.0,63980,166.61458333333331,192
2714,9.0,,,,42.0,,,,,0,note_on,,0.0,42.0,0.0,63980,166.61458333333331,192
2715,9.0,,,,40.0,,,,,0,note_on,,0.0,40.0,0.0,63980,166.61458333333331,192
2716,9.0,,,,42.0,,,,,52,note_on,,88.0,42.0,88.0,64032,166.75,192
2717,9.0,,,,42.0,,,,,44,note_on,,0.0,42.0,0.0,64076,166.86458333333331,192
2718,9.0,,,,35.0,,,,,52,note_on,,112.0,35.0,112.0,64128,167.0,192
2719,9.0,,,,42.0,,,,,0,note_on,,88.0,42.0,88.0,64128,167.0,192
2720,9.0,,,,35.0,,,,,44,note_on,,0.0,35.0,0.0,64172,167.11458333333331,192
2721,9.0,,,,42.0,,,,,0,note_on,,0.0,42.0,0.0,64172,167.11458333333331,192
2722,9.0,,,,35.0,,,,,52,note_on,,112.0,35.0,112.0,64224,167.25,192
2723,9.0,,,,42.0,,,,,0,note_on,,88.0,42.0,88.0,64224,167.25,192
2724,9.0,,,,42.0,,,,,44,note_on,,0.0,42.0,0.0,64268,167.36458333333331,192
2725,9.0,,,,35.0,,,,,0,note_on,,0.0,35.0,0.0,64268,167.36458333333331,192
2726,9.0,,,,40.0,,,,,52,note_on,,112.0,40.0,112.0,64320,167.5,192
2727,9.0,,,,42.0,,,,,0,note_on,,88.0,42.0,88.0,64320,167.5,192
2728,9.0,,,,51.0,,,,,0,note_on,,112.0,51.0,112.0,64320,167.5,192
2729,9.0,,,,35.0,,,,,0,note_on,,112.0,35.0,112.0,64320,167.5,192
2730,9.0,,,,40.0,,,,,44,note_on,,0.0,40.0,0.0,64364,167.61458333333331,192
2731,9.0,,,,35.0,,,,,0,note_on,,0.0,35.0,0.0,64364,167.61458333333331,192
2732,9.0,,,,51.0,,,,,0,note_on,,0.0,51.0,0.0,64364,167.61458333333331,192
2733,9.0,,,,42.0,,,,,0,note_on,,0.0,42.0,0.0,64364,167.61458333333331,192
2734,9.0,,,,42.0,,,,,52,note_on,,88.0,42.0,88.0,64416,167.75,192
2735,9.0,,,,51.0,,,,,0,note_on,,112.0,51.0,112.0,64416,167.75,192
2736,9.0,,,,51.0,,,,,44,note_on,,0.0,51.0,0.0,64460,167.86458333333331,192
2737,9.0,,,,42.0,,,,,0,note_on,,0.0,42.0,0.0,64460,167.86458333333331,192
2738,9.0,,,,35.0,,,,,4,note_on,,112.0,35.0,112.0,64464,167.875,192
2739,9.0,,,,35.0,,,,,44,note_on,,0.0,35.0,0.0,64508,167.98958333333331,192
2740,9.0,,,,35.0,,,,,4,note_on,,112.0,35.0,112.0,64512,168.0,192
2741,9.0,,,,42.0,,,,,0,note_on,,88.0,42.0,88.0,64512,168.0,192
2742,9.0,,,,42.0,,,,,44,note_on,,0.0,42.0,0.0,64556,168.11458333333331,192
2743,9.0,,,,35.0,,,,,0,note_on,,0.0,35.0,0.0,64556,168.11458333333331,192
2744,9.0,,,,35.0,,,,,52,note_on,,112.0,35.0,112.0,64608,168.25,192
2745,9.0,,,,42.0,,,,,0,note_on,,88.0,42.0,88.0,64608,168.25,192
2746,9.0,,,,42.0,,,,,44,note_on,,0.0,42.0,0.0,64652,168.36458333333331,192
2747,9.0,,,,35.0,,,,,0,note_on,,0.0,35.0,0.0,64652,168.36458333333331,192
2748,9.0,,,,42.0,,,,,52,note_on,,88.0,42.0,88.0,64704,168.5,192
2749,9.0,,,,51.0,,,,,0,note_on,,112.0,51.0,112.0,64704,168.5,192
2750,9.0,,,,35.0,,,,,0,note_on,,112.0,35.0,112.0,64704,168.5,192
2751,9.0,,,,40.0,,,,,0,note_on,,112.0,40.0,112.0,64704,168.5,192
2752,9.0,,,,35.0,,,,,44,note_on,,0.0,35.0,0.0,64748,168.61458333333331,192
2753,9.0,,,,40.0,,,,,0,note_on,,0.0,40.0,0.0,64748,168.61458333333331,192
2754,9.0,,,,51.0,,,,,0,note_on,,0.0,51.0,0.0,64748,168.61458333333331,192
2755,9.0,,,,42.0,,,,,0,note_on,,0.0,42.0,0.0,64748,168.61458333333331,192
2756,9.0,,,,42.0,,,,,52,note_on,,88.0,42.0,88.0,64800,168.75,192
2757,9.0,,,,42.0,,,,,44,note_on,,0.0,42.0,0.0,64844,168.86458333333331,192
2758,9.0,,,,42.0,,,,,52,note_on,,88.0,42.0,88.0,64896,169.0,192
2759,9.0,,,,35.0,,,,,0,note_on,,112.0,35.0,112.0,64896,169.0,192
2760,9.0,,,,42.0,,,,,44,note_on,,0.0,42.0,0.0,64940,169.11458333333331,192
2761,9.0,,,,35.0,,,,,0,note_on,,0.0,35.0,0.0,64940,169.11458333333331,192
2762,9.0,,,,35.0,,,,,52,note_on,,112.0,35.0,112.0,64992,169.25,192
2763,9.0,,,,42.0,,,,,0,note_on,,88.0,42.0,88.0,64992,169.25,192
2764,9.0,,,,42.0,,,,,44,note_on,,0.0,42.0,0.0,65036,169.36458333333331,192
2765,9.0,,,,35.0,,,,,0,note_on,,0.0,35.0,0.0,65036,169.36458333333331,192
2766,9.0,,,,35.0,,,,,52,note_on,,112.0,35.0,112.0,65088,169.5,192
2767,9.0,,,,42.0,,,,,0,note_on,,88.0,42.0,88.0,65088,169.5,192
2768,9.0,,,,40.0,,,,,0,note_on,,112.0,40.0,112.0,65088,169.5,192
2769,9.0,,,,51.0,,,,,0,note_on,,112.0,51.0,112.0,65088,169.5,192
2770,9.0,,,,35.0,,,,,44,note_on,,0.0,35.0,0.0,65132,169.61458333333331,192
2771,9.0,,,,51.0,,,,,0,note_on,,0.0,51.0,0.0,65132,169.61458333333331,192
2772,9.0,,,,40.0,,,,,0,note_on,,0.0,40.0,0.0,65132,169.61458333333331,192
2773,9.0,,,,42.0,,,,,0,note_on,,0.0,42.0,0.0,65132,169.61458333333331,192
2774,9.0,,,,51.0,,,,,52,note_on,,112.0,51.0,112.0,65184,169.75,192
2775,9.0,,,,42.0,,,,,0,note_on,,88.0,42.0,88.0,65184,169.75,192
2776,9.0,,,,42.0,,,,,44,note_on,,0.0,42.0,0.0,65228,169.86458333333331,192
2777,9.0,,,,51.0,,,,,0,note_on,,0.0,51.0,0.0,65228,169.86458333333331,192
2778,9.0,,,,35.0,,,,,4,note_on,,112.0,35.0,112.0,65232,169.875,192
2779,9.0,,,,35.0,,,,,44,note_on,,0.0,35.0,0.0,65276,169.98958333333331,192
2780,9.0,,,,42.0,,,,,4,note_on,,112.0,42.0,112.0,65280,170.0,192
2781,9.0,,,,35.0,,,,,0,note_on,,112.0,35.0,112.0,65280,170.0,192
2782,9.0,,,,42.0,,,,,44,note_on,,0.0,42.0,0.0,65324,170.11458333333331,192
2783,9.0,,,,35.0,,,,,0,note_on,,0.0,35.0,0.0,65324,170.11458333333331,192
2784,9.0,,,,35.0,,,,,52,note_on,,112.0,35.0,112.0,65376,170.25,192
2785,9.0,,,,42.0,,,,,0,note_on,,107.0,42.0,107.0,65376,170.25,192
2786,9.0,,,,35.0,,,,,44,note_on,,0.0,35.0,0.0,65420,170.36458333333331,192
2787,9.0,,,,42.0,,,,,0,note_on,,0.0,42.0,0.0,65420,170.36458333333331,192
2788,9.0,,,,40.0,,,,,52,note_on,,103.0,40.0,103.0,65472,170.5,192
2789,9.0,,,,51.0,,,,,0,note_on,,103.0,51.0,103.0,65472,170.5,192
2790,9.0,,,,35.0,,,,,0,note_on,,103.0,35.0,103.0,65472,170.5,192
2791,9.0,,,,42.0,,,,,0,note_on,,103.0,42.0,103.0,65472,170.5,192
2792,9.0,,,,51.0,,,,,44,note_on,,0.0,51.0,0.0,65516,170.61458333333331,192
2793,9.0,,,,35.0,,,,,0,note_on,,0.0,35.0,0.0,65516,170.61458333333331,192
2794,9.0,,,,40.0,,,,,0,note_on,,0.0,40.0,0.0,65516,170.61458333333331,192
2795,9.0,,,,42.0,,,,,0,note_on,,0.0,42.0,0.0,65516,170.61458333333331,192
2796,9.0,,,,42.0,,,,,52,note_on,,100.0,42.0,100.0,65568,170.75,192
2797,9.0,,,,42.0,,,,,44,note_on,,0.0,42.0,0.0,65612,170.86458333333331,192
2798,9.0,,,,42.0,,,,,52,note_on,,97.0,42.0,97.0,65664,171.0,192
2799,9.0,,,,35.0,,,,,0,note_on,,97.0,35.0,97.0,65664,171.0,192
2800,9.0,,,,42.0,,,,,44,note_on,,0.0,42.0,0.0,65708,171.11458333333331,192
2801,9.0,,,,35.0,,,,,0,note_on,,0.0,35.0,0.0,65708,171.11458333333331,192
2802,9.0,,,,35.0,,,,,52,note_on,,95.0,35.0,95.0,65760,171.25,192
2803,9.0,,,,42.0,,,,,0,note_on,,95.0,42.0,95.0,65760,171.25,192
2804,9.0,,,,42.0,,,,,44,note_on,,0.0,42.0,0.0,65804,171.36458333333331,192
2805,9.0,,,,35.0,,,,,0,note_on,,0.0,35.0,0.0,65804,171.36458333333331,192
2806,9.0,,,,51.0,,,,,52,note_on,,92.0,51.0,92.0,65856,171.5,192
2807,9.0,,,,35.0,,,,,0,note_on,,92.0,35.0,92.0,65856,171.5,192
2808,9.0,,,,40.0,,,,,0,note_on,,92.0,40.0,92.0,65856,171.5,192
2809,9.0,,,,42.0,,,,,0,note_on,,92.0,42.0,92.0,65856,171.5,192
2810,9.0,,,,51.0,,,,,44,note_on,,0.0,51.0,0.0,65900,171.61458333333331,192
2811,9.0,,,,42.0,,,,,0,note_on,,0.0,42.0,0.0,65900,171.61458333333331,192
2812,9.0,,,,40.0,,,,,0,note_on,,0.0,40.0,0.0,65900,171.61458333333331,192
2813,9.0,,,,35.0,,,,,0,note_on,,0.0,35.0,0.0,65900,171.61458333333331,192
2814,9.0,,,,51.0,,,,,52,note_on,,89.0,51.0,89.0,65952,171.75,192
2815,9.0,,,,42.0,,,,,0,note_on,,89.0,42.0,89.0,65952,171.75,192
2816,9.0,,,,42.0,,,,,44,note_on,,0.0,42.0,0.0,65996,171.86458333333331,192
2817,9.0,,,,51.0,,,,,0,note_on,,0.0,51.0,0.0,65996,171.86458333333331,192
2818,9.0,,,,35.0,,,,,4,note_on,,88.0,35.0,88.0,66000,171.875,192
2819,9.0,,,,35.0,,,,,44,note_on,,0.0,35.0,0.0,66044,171.98958333333331,192
2820,9.0,,,,35.0,,,,,4,note_on,,88.0,35.0,88.0,66048,172.0,192
2821,9.0,,,,42.0,,,,,0,note_on,,87.0,42.0,87.0,66048,172.0,192
2822,9.0,,,,42.0,,,,,44,note_on,,0.0,42.0,0.0,66092,172.11458333333331,192
2823,9.0,,,,35.0,,,,,0,note_on,,0.0,35.0,0.0,66092,172.11458333333331,192
2824,9.0,,,,42.0,,,,,52,note_on,,83.0,42.0,83.0,66144,172.25,192
2825,9.0,,,,35.0,,,,,0,note_on,,87.0,35.0,87.0,66144,172.25,192
2826,9.0,,,,35.0,,,,,44,note_on,,0.0,35.0,0.0,66188,172.36458333333331,192
2827,9.0,,,,42.0,,,,,0,note_on,,0.0,42.0,0.0,66188,172.36458333333331,192
2828,9.0,,,,40.0,,,,,52,note_on,,78.0,40.0,78.0,66240,172.5,192
2829,9.0,,,,51.0,,,,,0,note_on,,78.0,51.0,78.0,66240,172.5,192
2830,9.0,,,,35.0,,,,,0,note_on,,78.0,35.0,78.0,66240,172.5,192
2831,9.0,,,,42.0,,,,,0,note_on,,78.0,42.0,78.0,66240,172.5,192
2832,9.0,,,,35.0,,,,,44,note_on,,0.0,35.0,0.0,66284,172.61458333333331,192
2833,9.0,,,,42.0,,,,,0,note_on,,0.0,42.0,0.0,66284,172.61458333333331,192
2834,9.0,,,,51.0,,,,,0,note_on,,0.0,51.0,0.0,66284,172.61458333333331,192
2835,9.0,,,,40.0,,,,,0,note_on,,0.0,40.0,0.0,66284,172.61458333333331,192
2836,9.0,,,,42.0,,,,,52,note_on,,75.0,42.0,75.0,66336,172.75,192
2837,9.0,,,,42.0,,,,,44,note_on,,0.0,42.0,0.0,66380,172.86458333333331,192
2838,9.0,,,,35.0,,,,,52,note_on,,72.0,35.0,72.0,66432,173.0,192
2839,9.0,,,,42.0,,,,,0,note_on,,72.0,42.0,72.0,66432,173.0,192
2840,9.0,,,,35.0,,,,,44,note_on,,0.0,35.0,0.0,66476,173.11458333333331,192
2841,9.0,,,,42.0,,,,,0,note_on,,0.0,42.0,0.0,66476,173.11458333333331,192
2842,9.0,,,,35.0,,,,,52,note_on,,69.0,35.0,69.0,66528,173.25,192
2843,9.0,,,,42.0,,,,,0,note_on,,69.0,42.0,69.0,66528,173.25,192
2844,9.0,,,,42.0,,,,,44,note_on,,0.0,42.0,0.0,66572,173.36458333333331,192
2845,9.0,,,,35.0,,,,,0,note_on,,0.0,35.0,0.0,66572,173.36458333333331,192
2846,9.0,,,,42.0,,,,,52,note_on,,67.0,42.0,67.0,66624,173.5,192
2847,9.0,,,,35.0,,,,,0,note_on,,67.0,35.0,67.0,66624,173.5,192
2848,9.0,,,,40.0,,,,,0,note_on,,67.0,40.0,67.0,66624,173.5,192
2849,9.0,,,,51.0,,,,,0,note_on,,67.0,51.0,67.0,66624,173.5,192
2850,9.0,,,,42.0,,,,,44,note_on,,0.0,42.0,0.0,66668,173.61458333333331,192
2851,9.0,,,,51.0,,,,,0,note_on,,0.0,51.0,0.0,66668,173.61458333333331,192
2852,9.0,,,,40.0,,,,,0,note_on,,0.0,40.0,0.0,66668,173.61458333333331,192
2853,9.0,,,,35.0,,,,,0,note_on,,0.0,35.0,0.0,66668,173.61458333333331,192
2854,9.0,,,,42.0,,,,,52,note_on,,65.0,42.0,65.0,66720,173.75,192
2855,9.0,,,,51.0,,,,,0,note_on,,65.0,51.0,65.0,66720,173.75,192
2856,9.0,,,,51.0,,,,,44,note_on,,0.0,51.0,0.0,66764,173.86458333333331,192
2857,9.0,,,,42.0,,,,,0,note_on,,0.0,42.0,0.0,66764,173.86458333333331,192
2858,9.0,,,,35.0,,,,,4,note_on,,63.0,35.0,63.0,66768,173.875,192
2859,9.0,,,,35.0,,,,,44,note_on,,0.0,35.0,0.0,66812,173.98958333333331,192
2860,9.0,,,,35.0,,,,,4,note_on,,63.0,35.0,63.0,66816,174.0,192
2861,9.0,,,,42.0,,,,,0,note_on,,61.0,42.0,61.0,66816,174.0,192
2862,9.0,,,,35.0,,,,,44,note_on,,0.0,35.0,0.0,66860,174.11458333333331,192
2863,9.0,,,,42.0,,,,,0,note_on,,0.0,42.0,0.0,66860,174.11458333333331,192
2864,9.0,,,,35.0,,,,,52,note_on,,61.0,35.0,61.0,66912,174.25,192
2865,9.0,,,,42.0,,,,,0,note_on,,56.0,42.0,56.0,66912,174.25,192
2866,9.0,,,,35.0,,,,,44,note_on,,0.0,35.0,0.0,66956,174.36458333333331,192
2867,9.0,,,,42.0,,,,,0,note_on,,0.0,42.0,0.0,66956,174.36458333333331,192
2868,9.0,,,,51.0,,,,,52,note_on,,52.0,51.0,52.0,67008,174.5,192
2869,9.0,,,,42.0,,,,,0,note_on,,52.0,42.0,52.0,67008,174.5,192
2870,9.0,,,,40.0,,,,,0,note_on,,52.0,40.0,52.0,67008,174.5,192
2871,9.0,,,,35.0,,,,,0,note_on,,52.0,35.0,52.0,67008,174.5,192
2872,9.0,,,,40.0,,,,,44,note_on,,0.0,40.0,0.0,67052,174.61458333333331,192
2873,9.0,,,,42.0,,,,,0,note_on,,0.0,42.0,0.0,67052,174.61458333333331,192
2874,9.0,,,,51.0,,,,,0,note_on,,0.0,51.0,0.0,67052,174.61458333333331,192
2875,9.0,,,,35.0,,,,,0,note_on,,0.0,35.0,0.0,67052,174.61458333333331,192
2876,9.0,,,,42.0,,,,,52,note_on,,48.0,42.0,48.0,67104,174.75,192
2877,9.0,,,,42.0,,,,,44,note_on,,0.0,42.0,0.0,67148,174.86458333333331,192
2878,9.0,,,,42.0,,,,,52,note_on,,43.0,42.0,43.0,67200,175.0,192
2879,9.0,,,,35.0,,,,,0,note_on,,43.0,35.0,43.0,67200,175.0,192
2880,9.0,,,,42.0,,,,,44,note_on,,0.0,42.0,0.0,67244,175.11458333333331,192
2881,9.0,,,,35.0,,,,,0,note_on,,0.0,35.0,0.0,67244,175.11458333333331,192
2882,9.0,,,,35.0,,,,,52,note_on,,40.0,35.0,40.0,67296,175.25,192
2883,9.0,,,,42.0,,,,,0,note_on,,40.0,42.0,40.0,67296,175.25,192
2884,9.0,,,,42.0,,,,,44,note_on,,0.0,42.0,0.0,67340,175.36458333333331,192
2885,9.0,,,,35.0,,,,,0,note_on,,0.0,35.0,0.0,67340,175.36458333333331,192
2886,9.0,,,,42.0,,,,,52,note_on,,36.0,42.0,36.0,67392,175.5,192
2887,9.0,,,,40.0,,,,,0,note_on,,36.0,40.0,36.0,67392,175.5,192
2888,9.0,,,,51.0,,,,,0,note_on,,36.0,51.0,36.0,67392,175.5,192
2889,9.0,,,,35.0,,,,,0,note_on,,36.0,35.0,36.0,67392,175.5,192
2890,9.0,,,,42.0,,,,,44,note_on,,0.0,42.0,0.0,67436,175.61458333333331,192
2891,9.0,,,,35.0,,,,,0,note_on,,0.0,35.0,0.0,67436,175.61458333333331,192
2892,9.0,,,,51.0,,,,,0,note_on,,0.0,51.0,0.0,67436,175.61458333333331,192
2893,9.0,,,,40.0,,,,,0,note_on,,0.0,40.0,0.0,67436,175.61458333333331,192
2894,9.0,,,,51.0,,,,,52,note_on,,32.0,51.0,32.0,67488,175.75,192
2895,9.0,,,,42.0,,,,,0,note_on,,32.0,42.0,32.0,67488,175.75,192
2896,9.0,,,,42.0,,,,,44,note_on,,0.0,42.0,0.0,67532,175.86458333333331,192
2897,9.0,,,,51.0,,,,,0,note_on,,0.0,51.0,0.0,67532,175.86458333333331,192
2898,9.0,,,,35.0,,,,,4,note_on,,31.0,35.0,31.0,67536,175.875,192
2899,9.0,,,,35.0,,,,,44,note_on,,0.0,35.0,0.0,67580,175.98958333333331,192
2900,9.0,,,,42.0,,,,,4,note_on,,29.0,42.0,29.0,67584,176.0,192
2901,9.0,,,,35.0,,,,,0,note_on,,31.0,35.0,31.0,67584,176.0,192
2902,9.0,,,,35.0,,,,,44,note_on,,0.0,35.0,0.0,67628,176.11458333333331,192
2903,9.0,,,,42.0,,,,,0,note_on,,0.0,42.0,0.0,67628,176.11458333333331,192
2904,9.0,,,,42.0,,,,,52,note_on,,26.0,42.0,26.0,67680,176.25,192
2905,9.0,,,,35.0,,,,,0,note_on,,29.0,35.0,29.0,67680,176.25,192
2906,9.0,,,,35.0,,,,,44,note_on,,0.0,35.0,0.0,67724,176.36458333333331,192
2907,9.0,,,,42.0,,,,,0,note_on,,0.0,42.0,0.0,67724,176.36458333333331,192
2908,9.0,,,,51.0,,,,,52,note_on,,20.0,51.0,20.0,67776,176.5,192
2909,9.0,,,,42.0,,,,,0,note_on,,20.0,42.0,20.0,67776,176.5,192
2910,9.0,,,,40.0,,,,,0,note_on,,20.0,40.0,20.0,67776,176.5,192
2911,9.0,,,,35.0,,,,,0,note_on,,20.0,35.0,20.0,67776,176.5,192
2912,9.0,,,,40.0,,,,,44,note_on,,0.0,40.0,0.0,67820,176.61458333333331,192
2913,9.0,,,,35.0,,,,,0,note_on,,0.0,35.0,0.0,67820,176.61458333333331,192
2914,9.0,,,,42.0,,,,,0,note_on,,0.0,42.0,0.0,67820,176.61458333333331,192
2915,9.0,,,,51.0,,,,,0,note_on,,0.0,51.0,0.0,67820,176.61458333333331,192
2916,9.0,,,,42.0,,,,,52,note_on,,18.0,42.0,18.0,67872,176.75,192
2917,9.0,,,,42.0,,,,,44,note_on,,0.0,42.0,0.0,67916,176.86458333333331,192
2918,9.0,,,,35.0,,,,,52,note_on,,14.0,35.0,14.0,67968,177.0,192
2919,9.0,,,,42.0,,,,,0,note_on,,14.0,42.0,14.0,67968,177.0,192
2920,9.0,,,,35.0,,,,,44,note_on,,0.0,35.0,0.0,68012,177.11458333333331,192
2921,9.0,,,,42.0,,,,,0,note_on,,0.0,42.0,0.0,68012,177.11458333333331,192
2922,9.0,,,,42.0,,,,,52,note_on,,11.0,42.0,11.0,68064,177.25,192
2923,9.0,,,,35.0,,,,,0,note_on,,11.0,35.0,11.0,68064,177.25,192
2924,9.0,,,,35.0,,,,,44,note_on,,0.0,35.0,0.0,68108,177.36458333333331,192
2925,9.0,,,,42.0,,,,,0,note_on,,0.0,42.0,0.0,68108,177.36458333333331,192
2926,9.0,,,,35.0,,,,,52,note_on,,7.0,35.0,7.0,68160,177.5,192
2927,9.0,,,,42.0,,,,,0,note_on,,7.0,42.0,7.0,68160,177.5,192
2928,9.0,,,,51.0,,,,,0,note_on,,7.0,51.0,7.0,68160,177.5,192
2929,9.0,,,,40.0,,,,,0,note_on,,7.0,40.0,7.0,68160,177.5,192
2930,9.0,,,,51.0,,,,,44,note_on,,0.0,51.0,0.0,68204,177.61458333333331,192
2931,9.0,,,,42.0,,,,,0,note_on,,0.0,42.0,0.0,68204,177.61458333333331,192
2932,9.0,,,,35.0,,,,,0,note_on,,0.0,35.0,0.0,68204,177.61458333333331,192
2933,9.0,,,,40.0,,,,,0,note_on,,0.0,40.0,0.0,68204,177.61458333333331,192
2934,9.0,,,,42.0,,,,,52,note_on,,4.0,42.0,4.0,68256,177.75,192
2935,9.0,,,,51.0,,,,,0,note_on,,4.0,51.0,4.0,68256,177.75,192
2936,9.0,,,,51.0,,,,,44,note_on,,0.0,51.0,0.0,68300,177.86458333333331,192
2937,9.0,,,,42.0,,,,,0,note_on,,0.0,42.0,0.0,68300,177.86458333333331,192
2938,,,,,,,,,,0,end_of_track,,,,,0,0.0,192
2939,4.0,0.0,,,,,,,,0,control_change,0.0,,,,0,0.0,192
2940,4.0,,,,,,119.0,,,0,program_change,,,,,0,0.0,192
2941,,,"(74, 65, 90, 50, 1, 0, 0, 0, 0, 0, 0, 0, 0, 0, 0, 0, 0, 0, 0, 0)",,,,,,,0,sequencer_specific,,,,,0,0.0,192
2942,4.0,7.0,,,,,,,,0,control_change,84.0,,,,0,0.0,192
2943,,,,Reverse Cymbal,,,,,,0,track_name,,,,,0,0.0,192
2944,4.0,10.0,,,,,,,,0,control_change,64.0,,,,0,0.0,192
2945,4.0,91.0,,,,,,,,0,control_change,40.0,,,,0,0.0,192
2946,4.0,93.0,,,,,,,,0,control_change,0.0,,,,0,0.0,192
2947,4.0,,,,43.0,,,,,18624,note_on,,127.0,43.0,127.0,18624,48.5,192
2948,4.0,,,,,360.0,,,,8,pitchwheel,,,,,18632,48.52083333333333,192
2949,4.0,,,,,540.0,,,,8,pitchwheel,,,,,18640,48.541666666666664,192
2950,4.0,,,,,630.0,,,,8,pitchwheel,,,,,18648,48.5625,192
2951,4.0,,,,,810.0,,,,8,pitchwheel,,,,,18656,48.58333333333333,192
2952,4.0,,,,,900.0,,,,8,pitchwheel,,,,,18664,48.604166666666664,192
2953,4.0,,,,,1080.0,,,,8,pitchwheel,,,,,18672,48.625,192
2954,4.0,,,,44.0,,,,,0,note_on,,127.0,44.0,127.0,18672,48.625,192
2955,4.0,,,,,1170.0,,,,8,pitchwheel,,,,,18680,48.64583333333333,192
2956,4.0,,,,,1260.0,,,,8,pitchwheel,,,,,18688,48.666666666666664,192
2957,4.0,,,,,1350.0,,,,8,pitchwheel,,,,,18696,48.6875,192
2958,4.0,,,,,1440.0,,,,8,pitchwheel,,,,,18704,48.70833333333333,192
2959,4.0,,,,,1530.0,,,,8,pitchwheel,,,,,18712,48.729166666666664,192
2960,4.0,,,,,1620.0,,,,8,pitchwheel,,,,,18720,48.75,192
2961,4.0,,,,45.0,,,,,0,note_on,,127.0,45.0,127.0,18720,48.75,192
2962,4.0,,,,,1710.0,,,,8,pitchwheel,,,,,18728,48.77083333333333,192
2963,4.0,,,,,1890.0,,,,8,pitchwheel,,,,,18736,48.791666666666664,192
2964,4.0,,,,,2070.0,,,,8,pitchwheel,,,,,18744,48.8125,192
2965,4.0,,,,,2160.0,,,,8,pitchwheel,,,,,18752,48.83333333333333,192
2966,4.0,,,,,2340.0,,,,8,pitchwheel,,,,,18760,48.854166666666664,192
2967,4.0,,,,,2430.0,,,,8,pitchwheel,,,,,18768,48.875,192
2968,4.0,,,,46.0,,,,,0,note_on,,127.0,46.0,127.0,18768,48.875,192
2969,4.0,,,,,2610.0,,,,8,pitchwheel,,,,,18776,48.89583333333333,192
2970,4.0,,,,,2700.0,,,,8,pitchwheel,,,,,18784,48.916666666666664,192
2971,4.0,,,,,2790.0,,,,8,pitchwheel,,,,,18792,48.9375,192
2972,4.0,,,,,2880.0,,,,8,pitchwheel,,,,,18800,48.95833333333333,192
2973,4.0,,,,,2970.0,,,,8,pitchwheel,,,,,18808,48.979166666666664,192
2974,4.0,,,,,3060.0,,,,8,pitchwheel,,,,,18816,49.0,192
2975,4.0,,,,47.0,,,,,0,note_on,,127.0,47.0,127.0,18816,49.0,192
2976,4.0,,,,,3150.0,,,,8,pitchwheel,,,,,18824,49.02083333333333,192
2977,4.0,,,,,3240.0,,,,8,pitchwheel,,,,,18832,49.041666666666664,192
2978,4.0,,,,,3330.0,,,,8,pitchwheel,,,,,18840,49.0625,192
2979,4.0,,,,,3420.0,,,,8,pitchwheel,,,,,18848,49.08333333333333,192
2980,4.0,,,,,3510.0,,,,8,pitchwheel,,,,,18856,49.104166666666664,192
2981,4.0,,,,48.0,,,,,8,note_on,,127.0,48.0,127.0,18864,49.125,192
2982,4.0,,,,,3690.0,,,,0,pitchwheel,,,,,18864,49.125,192
2983,4.0,,,,,3870.0,,,,8,pitchwheel,,,,,18872,49.14583333333333,192
2984,4.0,,,,,3960.0,,,,8,pitchwheel,,,,,18880,49.166666666666664,192
2985,4.0,,,,,4141.0,,,,8,pitchwheel,,,,,18888,49.1875,192
2986,4.0,,,,,4231.0,,,,8,pitchwheel,,,,,18896,49.20833333333333,192
2987,4.0,,,,,4321.0,,,,8,pitchwheel,,,,,18904,49.229166666666664,192
2988,4.0,,,,,4411.0,,,,8,pitchwheel,,,,,18912,49.25,192
2989,4.0,,,,49.0,,,,,0,note_on,,127.0,49.0,127.0,18912,49.25,192
2990,4.0,,,,,4501.0,,,,8,pitchwheel,,,,,18920,49.27083333333333,192
2991,4.0,,,,,4591.0,,,,16,pitchwheel,,,,,18936,49.3125,192
2992,4.0,,,,,4681.0,,,,8,pitchwheel,,,,,18944,49.33333333333333,192
2993,4.0,,,,,4771.0,,,,8,pitchwheel,,,,,18952,49.354166666666664,192
2994,4.0,,,,50.0,,,,,8,note_on,,127.0,50.0,127.0,18960,49.375,192
2995,4.0,,,,,4951.0,,,,0,pitchwheel,,,,,18960,49.375,192
2996,4.0,,,,,5131.0,,,,8,pitchwheel,,,,,18968,49.39583333333333,192
2997,4.0,,,,,5221.0,,,,8,pitchwheel,,,,,18976,49.416666666666664,192
2998,4.0,,,,,5401.0,,,,8,pitchwheel,,,,,18984,49.4375,192
2999,4.0,,,,,5491.0,,,,8,pitchwheel,,,,,18992,49.45833333333333,192
3000,4.0,,,,,5581.0,,,,8,pitchwheel,,,,,19000,49.479166666666664,192
3001,4.0,,,,,5671.0,,,,8,pitchwheel,,,,,19008,49.5,192
3002,4.0,,,,51.0,,,,,0,note_on,,127.0,51.0,127.0,19008,49.5,192
3003,4.0,,,,,5851.0,,,,8,pitchwheel,,,,,19016,49.52083333333333,192
3004,4.0,,,,,5941.0,,,,8,pitchwheel,,,,,19024,49.541666666666664,192
3005,4.0,,,,,6121.0,,,,8,pitchwheel,,,,,19032,49.5625,192
3006,4.0,,,,,6301.0,,,,8,pitchwheel,,,,,19040,49.58333333333333,192
3007,4.0,,,,,6391.0,,,,8,pitchwheel,,,,,19048,49.604166666666664,192
3008,4.0,,,,52.0,,,,,8,note_on,,127.0,52.0,127.0,19056,49.625,192
3009,4.0,,,,,6571.0,,,,0,pitchwheel,,,,,19056,49.625,192
3010,4.0,,,,,6751.0,,,,8,pitchwheel,,,,,19064,49.64583333333333,192
3011,4.0,,,,,6931.0,,,,8,pitchwheel,,,,,19072,49.666666666666664,192
3012,4.0,,,,,7021.0,,,,8,pitchwheel,,,,,19080,49.6875,192
3013,4.0,,,,,7111.0,,,,8,pitchwheel,,,,,19088,49.70833333333333,192
3014,4.0,,,,,7291.0,,,,8,pitchwheel,,,,,19096,49.729166666666664,192
3015,4.0,,,,53.0,,,,,8,note_on,,127.0,53.0,127.0,19104,49.75,192
3016,4.0,,,,,7381.0,,,,0,pitchwheel,,,,,19104,49.75,192
3017,4.0,,,,,7471.0,,,,8,pitchwheel,,,,,19112,49.77083333333333,192
3018,4.0,,,,,7651.0,,,,8,pitchwheel,,,,,19120,49.791666666666664,192
3019,4.0,,,,,7741.0,,,,8,pitchwheel,,,,,19128,49.8125,192
3020,4.0,,,,,7831.0,,,,8,pitchwheel,,,,,19136,49.83333333333333,192
3021,4.0,,,,,8011.0,,,,8,pitchwheel,,,,,19144,49.854166666666664,192
3022,4.0,,,,,8101.0,,,,8,pitchwheel,,,,,19152,49.875,192
3023,4.0,,,,54.0,,,,,0,note_on,,127.0,54.0,127.0,19152,49.875,192
3024,4.0,,,,,8191.0,,,,8,pitchwheel,,,,,19160,49.89583333333333,192
3025,4.0,,,,54.0,,,,,32,note_on,,0.0,54.0,0.0,19192,49.979166666666664,192
3026,4.0,,,,,0.0,,,,8,pitchwheel,,,,,19200,50.0,192
3027,4.0,,,,43.0,,,,,0,note_on,,0.0,43.0,0.0,19200,50.0,192
3028,4.0,,,,46.0,,,,,0,note_on,,0.0,46.0,0.0,19200,50.0,192
3029,4.0,,,,49.0,,,,,0,note_on,,0.0,49.0,0.0,19200,50.0,192
3030,4.0,,,,48.0,,,,,0,note_on,,0.0,48.0,0.0,19200,50.0,192
3031,4.0,,,,53.0,,,,,0,note_on,,0.0,53.0,0.0,19200,50.0,192
3032,4.0,,,,52.0,,,,,0,note_on,,0.0,52.0,0.0,19200,50.0,192
3033,4.0,,,,51.0,,,,,0,note_on,,0.0,51.0,0.0,19200,50.0,192
3034,4.0,,,,50.0,,,,,0,note_on,,0.0,50.0,0.0,19200,50.0,192
3035,4.0,,,,45.0,,,,,0,note_on,,0.0,45.0,0.0,19200,50.0,192
3036,4.0,,,,47.0,,,,,0,note_on,,0.0,47.0,0.0,19200,50.0,192
3037,4.0,,,,44.0,,,,,8,note_on,,0.0,44.0,0.0,19208,50.02083333333333,192
3038,4.0,,,,,90.0,,,,16888,pitchwheel,,,,,36096,94.0,192
3039,4.0,,,,,270.0,,,,16,pitchwheel,,,,,36112,94.04166666666666,192
3040,4.0,,,,,450.0,,,,16,pitchwheel,,,,,36128,94.08333333333333,192
3041,4.0,,,,,540.0,,,,16,pitchwheel,,,,,36144,94.125,192
3042,4.0,,,,,630.0,,,,16,pitchwheel,,,,,36160,94.16666666666666,192
3043,4.0,,,,,900.0,,,,16,pitchwheel,,,,,36176,94.20833333333333,192
3044,4.0,,,,,990.0,,,,16,pitchwheel,,,,,36192,94.25,192
3045,4.0,,,,,1170.0,,,,16,pitchwheel,,,,,36208,94.29166666666666,192
3046,4.0,,,,,1350.0,,,,16,pitchwheel,,,,,36224,94.33333333333333,192
3047,4.0,,,,,1530.0,,,,48,pitchwheel,,,,,36272,94.45833333333333,192
3048,4.0,,,,,1620.0,,,,16,pitchwheel,,,,,36288,94.5,192
3049,4.0,,,,43.0,,,,,0,note_on,,127.0,43.0,127.0,36288,94.5,192
3050,4.0,,,,,1710.0,,,,16,pitchwheel,,,,,36304,94.54166666666666,192
3051,4.0,,,,,1980.0,,,,16,pitchwheel,,,,,36320,94.58333333333333,192
3052,4.0,,,,44.0,,,,,16,note_on,,127.0,44.0,127.0,36336,94.625,192
3053,4.0,,,,,2070.0,,,,0,pitchwheel,,,,,36336,94.625,192
3054,4.0,,,,,2250.0,,,,16,pitchwheel,,,,,36352,94.66666666666666,192
3055,4.0,,,,,2340.0,,,,16,pitchwheel,,,,,36368,94.70833333333333,192
3056,4.0,,,,,2520.0,,,,16,pitchwheel,,,,,36384,94.75,192
3057,4.0,,,,45.0,,,,,0,note_on,,127.0,45.0,127.0,36384,94.75,192
3058,4.0,,,,,2610.0,,,,16,pitchwheel,,,,,36400,94.79166666666666,192
3059,4.0,,,,,2700.0,,,,16,pitchwheel,,,,,36416,94.83333333333333,192
3060,4.0,,,,,2880.0,,,,16,pitchwheel,,,,,36432,94.875,192
3061,4.0,,,,46.0,,,,,0,note_on,,127.0,46.0,127.0,36432,94.875,192
3062,4.0,,,,,2970.0,,,,16,pitchwheel,,,,,36448,94.91666666666666,192
3063,4.0,,,,,3060.0,,,,16,pitchwheel,,,,,36464,94.95833333333333,192
3064,4.0,,,,,3240.0,,,,16,pitchwheel,,,,,36480,95.0,192
3065,4.0,,,,47.0,,,,,0,note_on,,127.0,47.0,127.0,36480,95.0,192
3066,4.0,,,,,3330.0,,,,16,pitchwheel,,,,,36496,95.04166666666666,192
3067,4.0,,,,,3420.0,,,,16,pitchwheel,,,,,36512,95.08333333333333,192
3068,4.0,,,,48.0,,,,,16,note_on,,127.0,48.0,127.0,36528,95.125,192
3069,4.0,,,,,3600.0,,,,0,pitchwheel,,,,,36528,95.125,192
3070,4.0,,,,,3690.0,,,,16,pitchwheel,,,,,36544,95.16666666666666,192
3071,4.0,,,,,3780.0,,,,16,pitchwheel,,,,,36560,95.20833333333333,192
3072,4.0,,,,,3870.0,,,,16,pitchwheel,,,,,36576,95.25,192
3073,4.0,,,,49.0,,,,,0,note_on,,127.0,49.0,127.0,36576,95.25,192
3074,4.0,,,,,3960.0,,,,16,pitchwheel,,,,,36592,95.29166666666666,192
3075,4.0,,,,,4141.0,,,,16,pitchwheel,,,,,36608,95.33333333333333,192
3076,4.0,,,,50.0,,,,,16,note_on,,127.0,50.0,127.0,36624,95.375,192
3077,4.0,,,,,4231.0,,,,0,pitchwheel,,,,,36624,95.375,192
3078,4.0,,,,,4321.0,,,,16,pitchwheel,,,,,36640,95.41666666666666,192
3079,4.0,,,,,4411.0,,,,16,pitchwheel,,,,,36656,95.45833333333333,192
3080,4.0,,,,51.0,,,,,16,note_on,,127.0,51.0,127.0,36672,95.5,192
3081,4.0,,,,,4501.0,,,,0,pitchwheel,,,,,36672,95.5,192
3082,4.0,,,,,4681.0,,,,16,pitchwheel,,,,,36688,95.54166666666666,192
3083,4.0,,,,,4861.0,,,,16,pitchwheel,,,,,36704,95.58333333333333,192
3084,4.0,,,,,4951.0,,,,16,pitchwheel,,,,,36720,95.625,192
3085,4.0,,,,52.0,,,,,0,note_on,,127.0,52.0,127.0,36720,95.625,192
3086,4.0,,,,,5131.0,,,,16,pitchwheel,,,,,36736,95.66666666666666,192
3087,4.0,,,,,5221.0,,,,16,pitchwheel,,,,,36752,95.70833333333333,192
3088,4.0,,,,53.0,,,,,16,note_on,,127.0,53.0,127.0,36768,95.75,192
3089,4.0,,,,,5311.0,,,,0,pitchwheel,,,,,36768,95.75,192
3090,4.0,,,,,5491.0,,,,16,pitchwheel,,,,,36784,95.79166666666666,192
3091,4.0,,,,,5671.0,,,,16,pitchwheel,,,,,36800,95.83333333333333,192
3092,4.0,,,,,5761.0,,,,16,pitchwheel,,,,,36816,95.875,192
3093,4.0,,,,54.0,,,,,0,note_on,,127.0,54.0,127.0,36816,95.875,192
3094,4.0,,,,,5851.0,,,,16,pitchwheel,,,,,36832,95.91666666666666,192
3095,4.0,,,,,6031.0,,,,16,pitchwheel,,,,,36848,95.95833333333333,192
3096,4.0,,,,54.0,,,,,8,note_on,,0.0,54.0,0.0,36856,95.97916666666666,192
3097,4.0,,,,45.0,,,,,8,note_on,,0.0,45.0,0.0,36864,96.0,192
3098,4.0,,,,43.0,,,,,0,note_on,,0.0,43.0,0.0,36864,96.0,192
3099,4.0,,,,53.0,,,,,0,note_on,,0.0,53.0,0.0,36864,96.0,192
3100,4.0,,,,52.0,,,,,0,note_on,,0.0,52.0,0.0,36864,96.0,192
3101,4.0,,,,46.0,,,,,0,note_on,,0.0,46.0,0.0,36864,96.0,192
3102,4.0,,,,47.0,,,,,0,note_on,,0.0,47.0,0.0,36864,96.0,192
3103,4.0,,,,50.0,,,,,0,note_on,,0.0,50.0,0.0,36864,96.0,192
3104,4.0,,,,49.0,,,,,0,note_on,,0.0,49.0,0.0,36864,96.0,192
3105,4.0,,,,51.0,,,,,0,note_on,,0.0,51.0,0.0,36864,96.0,192
3106,4.0,,,,48.0,,,,,0,note_on,,0.0,48.0,0.0,36864,96.0,192
3107,4.0,,,,44.0,,,,,8,note_on,,0.0,44.0,0.0,36872,96.02083333333333,192
3108,4.0,,,,,450.0,,,,11512,pitchwheel,,,,,48384,126.0,192
3109,4.0,,,,31.0,,,,,0,note_on,,127.0,31.0,127.0,48384,126.0,192
3110,4.0,,,,,-8010.0,,,,16,pitchwheel,,,,,48400,126.04166666666666,192
3111,4.0,,,,,-7920.0,,,,16,pitchwheel,,,,,48416,126.08333333333333,192
3112,4.0,,,,32.0,,,,,16,note_on,,127.0,32.0,127.0,48432,126.125,192
3113,4.0,,,,,-7830.0,,,,0,pitchwheel,,,,,48432,126.125,192
3114,4.0,,,,,-7560.0,,,,16,pitchwheel,,,,,48448,126.16666666666666,192
3115,4.0,,,,,-7470.0,,,,16,pitchwheel,,,,,48464,126.20833333333333,192
3116,4.0,,,,33.0,,,,,16,note_on,,127.0,33.0,127.0,48480,126.25,192
3117,4.0,,,,,-7290.0,,,,0,pitchwheel,,,,,48480,126.25,192
3118,4.0,,,,,-7110.0,,,,16,pitchwheel,,,,,48496,126.29166666666666,192
3119,4.0,,,,,-7020.0,,,,16,pitchwheel,,,,,48512,126.33333333333333,192
3120,4.0,,,,,-6930.0,,,,16,pitchwheel,,,,,48528,126.375,192
3121,4.0,,,,34.0,,,,,0,note_on,,127.0,34.0,127.0,48528,126.375,192
3122,4.0,,,,,-6660.0,,,,16,pitchwheel,,,,,48544,126.41666666666666,192
3123,4.0,,,,35.0,,,,,32,note_on,,127.0,35.0,127.0,48576,126.5,192
3124,4.0,,,,,-6480.0,,,,16,pitchwheel,,,,,48592,126.54166666666666,192
3125,4.0,,,,,-6300.0,,,,16,pitchwheel,,,,,48608,126.58333333333333,192
3126,4.0,,,,36.0,,,,,16,note_on,,127.0,36.0,127.0,48624,126.625,192
3127,4.0,,,,,-6120.0,,,,32,pitchwheel,,,,,48656,126.70833333333333,192
3128,4.0,,,,37.0,,,,,16,note_on,,127.0,37.0,127.0,48672,126.75,192
3129,4.0,,,,,-5940.0,,,,32,pitchwheel,,,,,48704,126.83333333333333,192
3130,4.0,,,,,-5850.0,,,,16,pitchwheel,,,,,48720,126.875,192
3131,4.0,,,,38.0,,,,,0,note_on,,127.0,38.0,127.0,48720,126.875,192
3132,4.0,,,,,-5670.0,,,,16,pitchwheel,,,,,48736,126.91666666666666,192
3133,4.0,,,,,-5580.0,,,,16,pitchwheel,,,,,48752,126.95833333333333,192
3134,4.0,,,,39.0,,,,,16,note_on,,127.0,39.0,127.0,48768,127.0,192
3135,4.0,,,,,-5490.0,,,,0,pitchwheel,,,,,48768,127.0,192
3136,4.0,,,,,-5310.0,,,,16,pitchwheel,,,,,48784,127.04166666666666,192
3137,4.0,,,,,-5220.0,,,,16,pitchwheel,,,,,48800,127.08333333333333,192
3138,4.0,,,,40.0,,,,,16,note_on,,127.0,40.0,127.0,48816,127.125,192
3139,4.0,,,,,-5040.0,,,,0,pitchwheel,,,,,48816,127.125,192
3140,4.0,,,,,-4860.0,,,,16,pitchwheel,,,,,48832,127.16666666666666,192
3141,4.0,,,,,-4770.0,,,,16,pitchwheel,,,,,48848,127.20833333333333,192
3142,4.0,,,,,-4590.0,,,,16,pitchwheel,,,,,48864,127.25,192
3143,4.0,,,,41.0,,,,,0,note_on,,127.0,41.0,127.0,48864,127.25,192
3144,4.0,,,,,-4500.0,,,,16,pitchwheel,,,,,48880,127.29166666666666,192
3145,4.0,,,,,-4140.0,,,,16,pitchwheel,,,,,48896,127.33333333333333,192
3146,4.0,,,,42.0,,,,,16,note_on,,127.0,42.0,127.0,48912,127.375,192
3147,4.0,,,,,-4049.0,,,,0,pitchwheel,,,,,48912,127.375,192
3148,4.0,,,,,-3959.0,,,,16,pitchwheel,,,,,48928,127.41666666666666,192
3149,4.0,,,,,-3869.0,,,,16,pitchwheel,,,,,48944,127.45833333333333,192
3150,4.0,,,,31.0,,,,,14,note_on,,0.0,31.0,0.0,48958,127.49479166666666,192
3151,4.0,,,,43.0,,,,,2,note_on,,127.0,43.0,127.0,48960,127.5,192
3152,4.0,,,,,-3689.0,,,,0,pitchwheel,,,,,48960,127.5,192
3153,4.0,,,,,-3509.0,,,,16,pitchwheel,,,,,48976,127.54166666666666,192
3154,4.0,,,,,-3419.0,,,,16,pitchwheel,,,,,48992,127.58333333333333,192
3155,4.0,,,,32.0,,,,,14,note_on,,0.0,32.0,0.0,49006,127.61979166666666,192
3156,4.0,,,,,-3239.0,,,,2,pitchwheel,,,,,49008,127.625,192
3157,4.0,,,,44.0,,,,,0,note_on,,127.0,44.0,127.0,49008,127.625,192
3158,4.0,,,,,-3059.0,,,,16,pitchwheel,,,,,49024,127.66666666666666,192
3159,4.0,,,,,-2969.0,,,,16,pitchwheel,,,,,49040,127.70833333333333,192
3160,4.0,,,,33.0,,,,,14,note_on,,0.0,33.0,0.0,49054,127.74479166666666,192
3161,4.0,,,,,-2879.0,,,,2,pitchwheel,,,,,49056,127.75,192
3162,4.0,,,,45.0,,,,,0,note_on,,127.0,45.0,127.0,49056,127.75,192
3163,4.0,,,,,-2699.0,,,,16,pitchwheel,,,,,49072,127.79166666666666,192
3164,4.0,,,,,-2519.0,,,,16,pitchwheel,,,,,49088,127.83333333333333,192
3165,4.0,,,,34.0,,,,,14,note_on,,0.0,34.0,0.0,49102,127.86979166666666,192
3166,4.0,,,,46.0,,,,,2,note_on,,127.0,46.0,127.0,49104,127.875,192
3167,4.0,,,,,-2429.0,,,,0,pitchwheel,,,,,49104,127.875,192
3168,4.0,,,,,-2249.0,,,,16,pitchwheel,,,,,49120,127.91666666666666,192
3169,4.0,,,,,-2069.0,,,,16,pitchwheel,,,,,49136,127.95833333333333,192
3170,4.0,,,,35.0,,,,,14,note_on,,0.0,35.0,0.0,49150,127.99479166666666,192
3171,4.0,,,,47.0,,,,,2,note_on,,127.0,47.0,127.0,49152,128.0,192
3172,4.0,,,,,-1889.0,,,,0,pitchwheel,,,,,49152,128.0,192
3173,4.0,,,,,-1709.0,,,,16,pitchwheel,,,,,49168,128.04166666666666,192
3174,4.0,,,,,-1619.0,,,,16,pitchwheel,,,,,49184,128.08333333333331,192
3175,4.0,,,,36.0,,,,,14,note_on,,0.0,36.0,0.0,49198,128.11979166666666,192
3176,4.0,,,,,-1349.0,,,,2,pitchwheel,,,,,49200,128.125,192
3177,4.0,,,,48.0,,,,,0,note_on,,127.0,48.0,127.0,49200,128.125,192
3178,4.0,,,,,-1169.0,,,,16,pitchwheel,,,,,49216,128.16666666666666,192
3179,4.0,,,,,-899.0,,,,16,pitchwheel,,,,,49232,128.20833333333331,192
3180,4.0,,,,37.0,,,,,14,note_on,,0.0,37.0,0.0,49246,128.24479166666666,192
3181,4.0,,,,,-629.0,,,,2,pitchwheel,,,,,49248,128.25,192
3182,4.0,,,,49.0,,,,,0,note_on,,127.0,49.0,127.0,49248,128.25,192
3183,4.0,,,,,-359.0,,,,16,pitchwheel,,,,,49264,128.29166666666666,192
3184,4.0,,,,,0.0,,,,16,pitchwheel,,,,,49280,128.33333333333331,192
3185,4.0,,,,38.0,,,,,14,note_on,,0.0,38.0,0.0,49294,128.36979166666666,192
3186,4.0,,,,50.0,,,,,2,note_on,,127.0,50.0,127.0,49296,128.375,192
3187,4.0,,,,,180.0,,,,0,pitchwheel,,,,,49296,128.375,192
3188,4.0,,,,,540.0,,,,16,pitchwheel,,,,,49312,128.41666666666666,192
3189,4.0,,,,,810.0,,,,16,pitchwheel,,,,,49328,128.45833333333331,192
3190,4.0,,,,39.0,,,,,14,note_on,,0.0,39.0,0.0,49342,128.49479166666666,192
3191,4.0,,,,51.0,,,,,2,note_on,,127.0,51.0,127.0,49344,128.5,192
3192,4.0,,,,,1170.0,,,,0,pitchwheel,,,,,49344,128.5,192
3193,4.0,,,,,1350.0,,,,16,pitchwheel,,,,,49360,128.54166666666666,192
3194,4.0,,,,,1530.0,,,,16,pitchwheel,,,,,49376,128.58333333333331,192
3195,4.0,,,,40.0,,,,,14,note_on,,0.0,40.0,0.0,49390,128.61979166666666,192
3196,4.0,,,,52.0,,,,,2,note_on,,127.0,52.0,127.0,49392,128.625,192
3197,4.0,,,,,1710.0,,,,0,pitchwheel,,,,,49392,128.625,192
3198,4.0,,,,,1890.0,,,,16,pitchwheel,,,,,49408,128.66666666666666,192
3199,4.0,,,,,2160.0,,,,16,pitchwheel,,,,,49424,128.70833333333331,192
3200,4.0,,,,41.0,,,,,14,note_on,,0.0,41.0,0.0,49438,128.74479166666666,192
3201,4.0,,,,53.0,,,,,2,note_on,,127.0,53.0,127.0,49440,128.75,192
3202,4.0,,,,,2250.0,,,,0,pitchwheel,,,,,49440,128.75,192
3203,4.0,,,,,2430.0,,,,16,pitchwheel,,,,,49456,128.79166666666666,192
3204,4.0,,,,,2610.0,,,,16,pitchwheel,,,,,49472,128.83333333333331,192
3205,4.0,,,,42.0,,,,,14,note_on,,0.0,42.0,0.0,49486,128.86979166666666,192
3206,4.0,,,,,2700.0,,,,2,pitchwheel,,,,,49488,128.875,192
3207,4.0,,,,54.0,,,,,0,note_on,,127.0,54.0,127.0,49488,128.875,192
3208,4.0,,,,,2880.0,,,,16,pitchwheel,,,,,49504,128.91666666666666,192
3209,4.0,,,,,3060.0,,,,16,pitchwheel,,,,,49520,128.95833333333331,192
3210,4.0,,,,43.0,,,,,14,note_on,,0.0,43.0,0.0,49534,128.99479166666666,192
3211,4.0,,,,55.0,,,,,2,note_on,,127.0,55.0,127.0,49536,129.0,192
3212,4.0,,,,,3240.0,,,,0,pitchwheel,,,,,49536,129.0,192
3213,4.0,,,,,3330.0,,,,16,pitchwheel,,,,,49552,129.04166666666666,192
3214,4.0,,,,,3510.0,,,,16,pitchwheel,,,,,49568,129.08333333333331,192
3215,4.0,,,,44.0,,,,,14,note_on,,0.0,44.0,0.0,49582,129.11979166666666,192
3216,4.0,,,,56.0,,,,,2,note_on,,127.0,56.0,127.0,49584,129.125,192
3217,4.0,,,,,3690.0,,,,0,pitchwheel,,,,,49584,129.125,192
3218,4.0,,,,,3780.0,,,,16,pitchwheel,,,,,49600,129.16666666666666,192
3219,4.0,,,,,3960.0,,,,16,pitchwheel,,,,,49616,129.20833333333331,192
3220,4.0,,,,45.0,,,,,14,note_on,,0.0,45.0,0.0,49630,129.24479166666666,192
3221,4.0,,,,,4141.0,,,,2,pitchwheel,,,,,49632,129.25,192
3222,4.0,,,,57.0,,,,,0,note_on,,127.0,57.0,127.0,49632,129.25,192
3223,4.0,,,,,4321.0,,,,16,pitchwheel,,,,,49648,129.29166666666666,192
3224,4.0,,,,,4591.0,,,,16,pitchwheel,,,,,49664,129.33333333333331,192
3225,4.0,,,,46.0,,,,,14,note_on,,0.0,46.0,0.0,49678,129.36979166666666,192
3226,4.0,,,,,4861.0,,,,2,pitchwheel,,,,,49680,129.375,192
3227,4.0,,,,58.0,,,,,0,note_on,,127.0,58.0,127.0,49680,129.375,192
3228,4.0,,,,,5041.0,,,,16,pitchwheel,,,,,49696,129.41666666666666,192
3229,4.0,,,,,5311.0,,,,16,pitchwheel,,,,,49712,129.45833333333331,192
3230,4.0,,,,47.0,,,,,14,note_on,,0.0,47.0,0.0,49726,129.49479166666666,192
3231,4.0,,,,,5671.0,,,,2,pitchwheel,,,,,49728,129.5,192
3232,4.0,,,,59.0,,,,,0,note_on,,127.0,59.0,127.0,49728,129.5,192
3233,4.0,,,,,5941.0,,,,16,pitchwheel,,,,,49744,129.54166666666666,192
3234,4.0,,,,,6121.0,,,,16,pitchwheel,,,,,49760,129.58333333333331,192
3235,4.0,,,,48.0,,,,,14,note_on,,0.0,48.0,0.0,49774,129.61979166666666,192
3236,4.0,,,,,6391.0,,,,2,pitchwheel,,,,,49776,129.625,192
3237,4.0,,,,60.0,,,,,0,note_on,,127.0,60.0,127.0,49776,129.625,192
3238,4.0,,,,,6571.0,,,,16,pitchwheel,,,,,49792,129.66666666666666,192
3239,4.0,,,,,6751.0,,,,16,pitchwheel,,,,,49808,129.70833333333331,192
3240,4.0,,,,49.0,,,,,14,note_on,,0.0,49.0,0.0,49822,129.74479166666666,192
3241,4.0,,,,,6841.0,,,,2,pitchwheel,,,,,49824,129.75,192
3242,4.0,,,,61.0,,,,,0,note_on,,127.0,61.0,127.0,49824,129.75,192
3243,4.0,,,,,7021.0,,,,16,pitchwheel,,,,,49840,129.79166666666666,192
3244,4.0,,,,,7201.0,,,,16,pitchwheel,,,,,49856,129.83333333333331,192
3245,4.0,,,,50.0,,,,,14,note_on,,0.0,50.0,0.0,49870,129.86979166666666,192
3246,4.0,,,,,7381.0,,,,2,pitchwheel,,,,,49872,129.875,192
3247,4.0,,,,62.0,,,,,0,note_on,,127.0,62.0,127.0,49872,129.875,192
3248,4.0,,,,,8101.0,,,,16,pitchwheel,,,,,49888,129.91666666666666,192
3249,4.0,,,,54.0,,,,,24,note_on,,0.0,54.0,0.0,49912,129.97916666666666,192
3250,4.0,,,,53.0,,,,,0,note_on,,0.0,53.0,0.0,49912,129.97916666666666,192
3251,4.0,,,,62.0,,,,,4,note_on,,0.0,62.0,0.0,49916,129.98958333333331,192
3252,4.0,,,,51.0,,,,,2,note_on,,0.0,51.0,0.0,49918,129.99479166666666,192
3253,4.0,,,,61.0,,,,,0,note_on,,0.0,61.0,0.0,49918,129.99479166666666,192
3254,4.0,,,,60.0,,,,,0,note_on,,0.0,60.0,0.0,49918,129.99479166666666,192
3255,4.0,,,,56.0,,,,,2,note_on,,0.0,56.0,0.0,49920,130.0,192
3256,4.0,,,,52.0,,,,,0,note_on,,0.0,52.0,0.0,49920,130.0,192
3257,4.0,,,,,6031.0,,,,0,pitchwheel,,,,,49920,130.0,192
3258,4.0,,,,59.0,,,,,6,note_on,,0.0,59.0,0.0,49926,130.015625,192
3259,4.0,,,,58.0,,,,,0,note_on,,0.0,58.0,0.0,49926,130.015625,192
3260,4.0,,,,55.0,,,,,2,note_on,,0.0,55.0,0.0,49928,130.02083333333331,192
3261,4.0,,,,57.0,,,,,0,note_on,,0.0,57.0,0.0,49928,130.02083333333331,192
3262,,,,,,,,,,0,end_of_track,,,,,0,0.0,192
3263,0.0,0.0,,,,,,,,0,control_change,0.0,,,,0,0.0,192
3264,0.0,,,,,,2.0,,,0,program_change,,,,,0,0.0,192
3265,,,"(74, 65, 90, 50, 1, 0, 0, 0, 0, 0, 0, 0, 0, 0, 0, 0, 0, 0, 0, 0)",,,,,,,0,sequencer_specific,,,,,0,0.0,192
3266,,,,Piano,,,,,,0,track_name,,,,,0,0.0,192
3267,0.0,7.0,,,,,,,,0,control_change,74.0,,,,0,0.0,192
3268,0.0,64.0,,,,,,,,0,control_change,50.0,,,,0,0.0,192
3269,0.0,91.0,,,,,,,,0,control_change,40.0,,,,0,0.0,192
3270,0.0,93.0,,,,,,,,0,control_change,0.0,,,,0,0.0,192
3271,0.0,10.0,,,,,,,,0,control_change,64.0,,,,0,0.0,192
3272,0.0,,,,62.0,,,,,768,note_on,,100.0,62.0,100.0,768,2.0,192
3273,0.0,,,,59.0,,,,,0,note_on,,100.0,59.0,100.0,768,2.0,192
3274,0.0,,,,55.0,,,,,0,note_on,,100.0,55.0,100.0,768,2.0,192
3275,,,,Piano,,,,,,0,track_name,,,,,0,0.0,192
3276,0.0,,,,55.0,,,,,44,note_on,,0.0,55.0,0.0,812,2.114583333333333,192
3277,0.0,,,,59.0,,,,,0,note_on,,0.0,59.0,0.0,812,2.114583333333333,192
3278,0.0,,,,62.0,,,,,0,note_on,,0.0,62.0,0.0,812,2.114583333333333,192
3279,0.0,,,,62.0,,,,,52,note_on,,100.0,62.0,100.0,864,2.25,192
3280,0.0,,,,59.0,,,,,0,note_on,,100.0,59.0,100.0,864,2.25,192
3281,0.0,,,,55.0,,,,,0,note_on,,100.0,55.0,100.0,864,2.25,192
3282,0.0,,,,62.0,,,,,44,note_on,,0.0,62.0,0.0,908,2.364583333333333,192
3283,0.0,,,,59.0,,,,,0,note_on,,0.0,59.0,0.0,908,2.364583333333333,192
3284,0.0,,,,55.0,,,,,0,note_on,,0.0,55.0,0.0,908,2.364583333333333,192
3285,0.0,,,,59.0,,,,,52,note_on,,100.0,59.0,100.0,960,2.5,192
3286,0.0,,,,62.0,,,,,0,note_on,,100.0,62.0,100.0,960,2.5,192
3287,0.0,,,,55.0,,,,,0,note_on,,100.0,55.0,100.0,960,2.5,192
3288,0.0,,,,55.0,,,,,44,note_on,,0.0,55.0,0.0,1004,2.614583333333333,192
3289,0.0,,,,59.0,,,,,0,note_on,,0.0,59.0,0.0,1004,2.614583333333333,192
3290,0.0,,,,62.0,,,,,0,note_on,,0.0,62.0,0.0,1004,2.614583333333333,192
3291,0.0,,,,59.0,,,,,52,note_on,,100.0,59.0,100.0,1056,2.75,192
3292,0.0,,,,62.0,,,,,0,note_on,,100.0,62.0,100.0,1056,2.75,192
3293,0.0,,,,55.0,,,,,0,note_on,,100.0,55.0,100.0,1056,2.75,192
3294,0.0,,,,62.0,,,,,44,note_on,,0.0,62.0,0.0,1100,2.864583333333333,192
3295,0.0,,,,59.0,,,,,0,note_on,,0.0,59.0,0.0,1100,2.864583333333333,192
3296,0.0,,,,55.0,,,,,0,note_on,,0.0,55.0,0.0,1100,2.864583333333333,192
3297,0.0,,,,59.0,,,,,52,note_on,,100.0,59.0,100.0,1152,3.0,192
3298,0.0,,,,55.0,,,,,0,note_on,,100.0,55.0,100.0,1152,3.0,192
3299,0.0,,,,62.0,,,,,0,note_on,,100.0,62.0,100.0,1152,3.0,192
3300,0.0,,,,59.0,,,,,44,note_on,,0.0,59.0,0.0,1196,3.114583333333333,192
3301,0.0,,,,62.0,,,,,0,note_on,,0.0,62.0,0.0,1196,3.114583333333333,192
3302,0.0,,,,55.0,,,,,0,note_on,,0.0,55.0,0.0,1196,3.114583333333333,192
3303,0.0,,,,59.0,,,,,52,note_on,,100.0,59.0,100.0,1248,3.25,192
3304,0.0,,,,62.0,,,,,0,note_on,,100.0,62.0,100.0,1248,3.25,192
3305,0.0,,,,55.0,,,,,0,note_on,,100.0,55.0,100.0,1248,3.25,192
3306,0.0,,,,55.0,,,,,44,note_on,,0.0,55.0,0.0,1292,3.364583333333333,192
3307,0.0,,,,62.0,,,,,0,note_on,,0.0,62.0,0.0,1292,3.364583333333333,192
3308,0.0,,,,59.0,,,,,0,note_on,,0.0,59.0,0.0,1292,3.364583333333333,192
3309,0.0,,,,59.0,,,,,52,note_on,,100.0,59.0,100.0,1344,3.5,192
3310,0.0,,,,62.0,,,,,0,note_on,,100.0,62.0,100.0,1344,3.5,192
3311,0.0,,,,55.0,,,,,0,note_on,,100.0,55.0,100.0,1344,3.5,192
3312,0.0,,,,55.0,,,,,44,note_on,,0.0,55.0,0.0,1388,3.614583333333333,192
3313,0.0,,,,62.0,,,,,0,note_on,,0.0,62.0,0.0,1388,3.614583333333333,192
3314,0.0,,,,59.0,,,,,0,note_on,,0.0,59.0,0.0,1388,3.614583333333333,192
3315,0.0,,,,62.0,,,,,52,note_on,,100.0,62.0,100.0,1440,3.75,192
3316,0.0,,,,55.0,,,,,0,note_on,,100.0,55.0,100.0,1440,3.75,192
3317,0.0,,,,59.0,,,,,0,note_on,,100.0,59.0,100.0,1440,3.75,192
3318,0.0,,,,59.0,,,,,44,note_on,,0.0,59.0,0.0,1484,3.864583333333333,192
3319,0.0,,,,62.0,,,,,0,note_on,,0.0,62.0,0.0,1484,3.864583333333333,192
3320,0.0,,,,55.0,,,,,0,note_on,,0.0,55.0,0.0,1484,3.864583333333333,192
3321,0.0,,,,53.0,,,,,52,note_on,,100.0,53.0,100.0,1536,4.0,192
3322,0.0,,,,60.0,,,,,0,note_on,,100.0,60.0,100.0,1536,4.0,192
3323,0.0,,,,57.0,,,,,0,note_on,,100.0,57.0,100.0,1536,4.0,192
3324,0.0,,,,57.0,,,,,44,note_on,,0.0,57.0,0.0,1580,4.114583333333333,192
3325,0.0,,,,60.0,,,,,0,note_on,,0.0,60.0,0.0,1580,4.114583333333333,192
3326,0.0,,,,53.0,,,,,0,note_on,,0.0,53.0,0.0,1580,4.114583333333333,192
3327,0.0,,,,53.0,,,,,52,note_on,,100.0,53.0,100.0,1632,4.25,192
3328,0.0,,,,60.0,,,,,0,note_on,,100.0,60.0,100.0,1632,4.25,192
3329,0.0,,,,57.0,,,,,0,note_on,,100.0,57.0,100.0,1632,4.25,192
3330,0.0,,,,60.0,,,,,44,note_on,,0.0,60.0,0.0,1676,4.364583333333333,192
3331,0.0,,,,53.0,,,,,0,note_on,,0.0,53.0,0.0,1676,4.364583333333333,192
3332,0.0,,,,57.0,,,,,0,note_on,,0.0,57.0,0.0,1676,4.364583333333333,192
3333,0.0,,,,57.0,,,,,52,note_on,,100.0,57.0,100.0,1728,4.5,192
3334,0.0,,,,53.0,,,,,0,note_on,,100.0,53.0,100.0,1728,4.5,192
3335,0.0,,,,60.0,,,,,0,note_on,,100.0,60.0,100.0,1728,4.5,192
3336,0.0,,,,60.0,,,,,44,note_on,,0.0,60.0,0.0,1772,4.614583333333333,192
3337,0.0,,,,57.0,,,,,0,note_on,,0.0,57.0,0.0,1772,4.614583333333333,192
3338,0.0,,,,53.0,,,,,0,note_on,,0.0,53.0,0.0,1772,4.614583333333333,192
3339,0.0,,,,53.0,,,,,52,note_on,,100.0,53.0,100.0,1824,4.75,192
3340,0.0,,,,57.0,,,,,0,note_on,,100.0,57.0,100.0,1824,4.75,192
3341,0.0,,,,60.0,,,,,0,note_on,,100.0,60.0,100.0,1824,4.75,192
3342,0.0,,,,53.0,,,,,44,note_on,,0.0,53.0,0.0,1868,4.864583333333333,192
3343,0.0,,,,60.0,,,,,0,note_on,,0.0,60.0,0.0,1868,4.864583333333333,192
3344,0.0,,,,57.0,,,,,0,note_on,,0.0,57.0,0.0,1868,4.864583333333333,192
3345,0.0,,,,60.0,,,,,52,note_on,,100.0,60.0,100.0,1920,5.0,192
3346,0.0,,,,57.0,,,,,0,note_on,,100.0,57.0,100.0,1920,5.0,192
3347,0.0,,,,53.0,,,,,0,note_on,,100.0,53.0,100.0,1920,5.0,192
3348,0.0,,,,60.0,,,,,44,note_on,,0.0,60.0,0.0,1964,5.114583333333333,192
3349,0.0,,,,53.0,,,,,0,note_on,,0.0,53.0,0.0,1964,5.114583333333333,192
3350,0.0,,,,57.0,,,,,0,note_on,,0.0,57.0,0.0,1964,5.114583333333333,192
3351,0.0,,,,60.0,,,,,52,note_on,,100.0,60.0,100.0,2016,5.25,192
3352,0.0,,,,57.0,,,,,0,note_on,,100.0,57.0,100.0,2016,5.25,192
3353,0.0,,,,53.0,,,,,0,note_on,,100.0,53.0,100.0,2016,5.25,192
3354,0.0,,,,60.0,,,,,44,note_on,,0.0,60.0,0.0,2060,5.364583333333333,192
3355,0.0,,,,53.0,,,,,0,note_on,,0.0,53.0,0.0,2060,5.364583333333333,192
3356,0.0,,,,57.0,,,,,0,note_on,,0.0,57.0,0.0,2060,5.364583333333333,192
3357,0.0,,,,53.0,,,,,52,note_on,,100.0,53.0,100.0,2112,5.5,192
3358,0.0,,,,60.0,,,,,0,note_on,,100.0,60.0,100.0,2112,5.5,192
3359,0.0,,,,57.0,,,,,0,note_on,,100.0,57.0,100.0,2112,5.5,192
3360,0.0,,,,53.0,,,,,44,note_on,,0.0,53.0,0.0,2156,5.614583333333333,192
3361,0.0,,,,60.0,,,,,0,note_on,,0.0,60.0,0.0,2156,5.614583333333333,192
3362,0.0,,,,57.0,,,,,0,note_on,,0.0,57.0,0.0,2156,5.614583333333333,192
3363,0.0,,,,48.0,,,,,52,note_on,,100.0,48.0,100.0,2208,5.75,192
3364,0.0,,,,48.0,,,,,44,note_on,,0.0,48.0,0.0,2252,5.864583333333333,192
3365,0.0,,,,60.0,,,,,52,note_on,,100.0,60.0,100.0,2304,6.0,192
3366,0.0,,,,64.0,,,,,0,note_on,,100.0,64.0,100.0,2304,6.0,192
3367,0.0,,,,55.0,,,,,0,note_on,,100.0,55.0,100.0,2304,6.0,192
3368,0.0,,,,64.0,,,,,44,note_on,,0.0,64.0,0.0,2348,6.114583333333333,192
3369,0.0,,,,55.0,,,,,0,note_on,,0.0,55.0,0.0,2348,6.114583333333333,192
3370,0.0,,,,60.0,,,,,0,note_on,,0.0,60.0,0.0,2348,6.114583333333333,192
3371,0.0,,,,64.0,,,,,52,note_on,,100.0,64.0,100.0,2400,6.25,192
3372,0.0,,,,55.0,,,,,0,note_on,,100.0,55.0,100.0,2400,6.25,192
3373,0.0,,,,60.0,,,,,0,note_on,,100.0,60.0,100.0,2400,6.25,192
3374,0.0,,,,55.0,,,,,44,note_on,,0.0,55.0,0.0,2444,6.364583333333333,192
3375,0.0,,,,60.0,,,,,0,note_on,,0.0,60.0,0.0,2444,6.364583333333333,192
3376,0.0,,,,64.0,,,,,0,note_on,,0.0,64.0,0.0,2444,6.364583333333333,192
3377,0.0,,,,64.0,,,,,52,note_on,,100.0,64.0,100.0,2496,6.5,192
3378,0.0,,,,60.0,,,,,0,note_on,,100.0,60.0,100.0,2496,6.5,192
3379,0.0,,,,55.0,,,,,0,note_on,,100.0,55.0,100.0,2496,6.5,192
3380,0.0,,,,64.0,,,,,44,note_on,,0.0,64.0,0.0,2540,6.614583333333333,192
3381,0.0,,,,55.0,,,,,0,note_on,,0.0,55.0,0.0,2540,6.614583333333333,192
3382,0.0,,,,60.0,,,,,0,note_on,,0.0,60.0,0.0,2540,6.614583333333333,192
3383,0.0,,,,55.0,,,,,52,note_on,,100.0,55.0,100.0,2592,6.75,192
3384,0.0,,,,60.0,,,,,0,note_on,,100.0,60.0,100.0,2592,6.75,192
3385,0.0,,,,64.0,,,,,0,note_on,,100.0,64.0,100.0,2592,6.75,192
3386,0.0,,,,55.0,,,,,44,note_on,,0.0,55.0,0.0,2636,6.864583333333333,192
3387,0.0,,,,64.0,,,,,0,note_on,,0.0,64.0,0.0,2636,6.864583333333333,192
3388,0.0,,,,60.0,,,,,0,note_on,,0.0,60.0,0.0,2636,6.864583333333333,192
3389,0.0,,,,55.0,,,,,52,note_on,,100.0,55.0,100.0,2688,7.0,192
3390,0.0,,,,60.0,,,,,0,note_on,,100.0,60.0,100.0,2688,7.0,192
3391,0.0,,,,64.0,,,,,0,note_on,,100.0,64.0,100.0,2688,7.0,192
3392,0.0,,,,64.0,,,,,44,note_on,,0.0,64.0,0.0,2732,7.114583333333333,192
3393,0.0,,,,60.0,,,,,0,note_on,,0.0,60.0,0.0,2732,7.114583333333333,192
3394,0.0,,,,55.0,,,,,0,note_on,,0.0,55.0,0.0,2732,7.114583333333333,192
3395,0.0,,,,60.0,,,,,52,note_on,,100.0,60.0,100.0,2784,7.25,192
3396,0.0,,,,64.0,,,,,0,note_on,,100.0,64.0,100.0,2784,7.25,192
3397,0.0,,,,55.0,,,,,0,note_on,,100.0,55.0,100.0,2784,7.25,192
3398,0.0,,,,55.0,,,,,44,note_on,,0.0,55.0,0.0,2828,7.364583333333333,192
3399,0.0,,,,64.0,,,,,0,note_on,,0.0,64.0,0.0,2828,7.364583333333333,192
3400,0.0,,,,60.0,,,,,0,note_on,,0.0,60.0,0.0,2828,7.364583333333333,192
3401,0.0,,,,55.0,,,,,52,note_on,,100.0,55.0,100.0,2880,7.5,192
3402,0.0,,,,64.0,,,,,0,note_on,,100.0,64.0,100.0,2880,7.5,192
3403,0.0,,,,60.0,,,,,0,note_on,,100.0,60.0,100.0,2880,7.5,192
3404,0.0,,,,64.0,,,,,44,note_on,,0.0,64.0,0.0,2924,7.614583333333333,192
3405,0.0,,,,60.0,,,,,0,note_on,,0.0,60.0,0.0,2924,7.614583333333333,192
3406,0.0,,,,55.0,,,,,0,note_on,,0.0,55.0,0.0,2924,7.614583333333333,192
3407,0.0,,,,60.0,,,,,52,note_on,,100.0,60.0,100.0,2976,7.75,192
3408,0.0,,,,64.0,,,,,0,note_on,,100.0,64.0,100.0,2976,7.75,192
3409,0.0,,,,55.0,,,,,0,note_on,,100.0,55.0,100.0,2976,7.75,192
3410,0.0,,,,60.0,,,,,44,note_on,,0.0,60.0,0.0,3020,7.864583333333333,192
3411,0.0,,,,64.0,,,,,0,note_on,,0.0,64.0,0.0,3020,7.864583333333333,192
3412,0.0,,,,55.0,,,,,0,note_on,,0.0,55.0,0.0,3020,7.864583333333333,192
3413,0.0,,,,62.0,,,,,52,note_on,,100.0,62.0,100.0,3072,8.0,192
3414,0.0,,,,55.0,,,,,0,note_on,,100.0,55.0,100.0,3072,8.0,192
3415,0.0,,,,59.0,,,,,0,note_on,,100.0,59.0,100.0,3072,8.0,192
3416,0.0,,,,55.0,,,,,44,note_on,,0.0,55.0,0.0,3116,8.114583333333332,192
3417,0.0,,,,62.0,,,,,0,note_on,,0.0,62.0,0.0,3116,8.114583333333332,192
3418,0.0,,,,59.0,,,,,0,note_on,,0.0,59.0,0.0,3116,8.114583333333332,192
3419,0.0,,,,62.0,,,,,52,note_on,,100.0,62.0,100.0,3168,8.25,192
3420,0.0,,,,55.0,,,,,0,note_on,,100.0,55.0,100.0,3168,8.25,192
3421,0.0,,,,59.0,,,,,0,note_on,,100.0,59.0,100.0,3168,8.25,192
3422,0.0,,,,62.0,,,,,44,note_on,,0.0,62.0,0.0,3212,8.364583333333332,192
3423,0.0,,,,59.0,,,,,0,note_on,,0.0,59.0,0.0,3212,8.364583333333332,192
3424,0.0,,,,55.0,,,,,0,note_on,,0.0,55.0,0.0,3212,8.364583333333332,192
3425,0.0,,,,55.0,,,,,52,note_on,,100.0,55.0,100.0,3264,8.5,192
3426,0.0,,,,62.0,,,,,0,note_on,,100.0,62.0,100.0,3264,8.5,192
3427,0.0,,,,59.0,,,,,0,note_on,,100.0,59.0,100.0,3264,8.5,192
3428,0.0,,,,59.0,,,,,44,note_on,,0.0,59.0,0.0,3308,8.614583333333332,192
3429,0.0,,,,55.0,,,,,0,note_on,,0.0,55.0,0.0,3308,8.614583333333332,192
3430,0.0,,,,62.0,,,,,0,note_on,,0.0,62.0,0.0,3308,8.614583333333332,192
3431,0.0,,,,59.0,,,,,52,note_on,,100.0,59.0,100.0,3360,8.75,192
3432,0.0,,,,55.0,,,,,0,note_on,,100.0,55.0,100.0,3360,8.75,192
3433,0.0,,,,62.0,,,,,0,note_on,,100.0,62.0,100.0,3360,8.75,192
3434,0.0,,,,59.0,,,,,44,note_on,,0.0,59.0,0.0,3404,8.864583333333332,192
3435,0.0,,,,55.0,,,,,0,note_on,,0.0,55.0,0.0,3404,8.864583333333332,192
3436,0.0,,,,62.0,,,,,0,note_on,,0.0,62.0,0.0,3404,8.864583333333332,192
3437,0.0,,,,62.0,,,,,52,note_on,,100.0,62.0,100.0,3456,9.0,192
3438,0.0,,,,59.0,,,,,0,note_on,,100.0,59.0,100.0,3456,9.0,192
3439,0.0,,,,55.0,,,,,0,note_on,,100.0,55.0,100.0,3456,9.0,192
3440,0.0,,,,62.0,,,,,44,note_on,,0.0,62.0,0.0,3500,9.114583333333332,192
3441,0.0,,,,59.0,,,,,0,note_on,,0.0,59.0,0.0,3500,9.114583333333332,192
3442,0.0,,,,55.0,,,,,0,note_on,,0.0,55.0,0.0,3500,9.114583333333332,192
3443,0.0,,,,62.0,,,,,52,note_on,,100.0,62.0,100.0,3552,9.25,192
3444,0.0,,,,59.0,,,,,0,note_on,,100.0,59.0,100.0,3552,9.25,192
3445,0.0,,,,55.0,,,,,0,note_on,,100.0,55.0,100.0,3552,9.25,192
3446,0.0,,,,55.0,,,,,44,note_on,,0.0,55.0,0.0,3596,9.364583333333332,192
3447,0.0,,,,62.0,,,,,0,note_on,,0.0,62.0,0.0,3596,9.364583333333332,192
3448,0.0,,,,59.0,,,,,0,note_on,,0.0,59.0,0.0,3596,9.364583333333332,192
3449,0.0,,,,59.0,,,,,52,note_on,,100.0,59.0,100.0,3648,9.5,192
3450,0.0,,,,62.0,,,,,0,note_on,,100.0,62.0,100.0,3648,9.5,192
3451,0.0,,,,55.0,,,,,0,note_on,,100.0,55.0,100.0,3648,9.5,192
3452,0.0,,,,62.0,,,,,44,note_on,,0.0,62.0,0.0,3692,9.614583333333332,192
3453,0.0,,,,59.0,,,,,0,note_on,,0.0,59.0,0.0,3692,9.614583333333332,192
3454,0.0,,,,55.0,,,,,0,note_on,,0.0,55.0,0.0,3692,9.614583333333332,192
3455,0.0,,,,62.0,,,,,52,note_on,,100.0,62.0,100.0,3744,9.75,192
3456,0.0,,,,59.0,,,,,0,note_on,,100.0,59.0,100.0,3744,9.75,192
3457,0.0,,,,55.0,,,,,0,note_on,,100.0,55.0,100.0,3744,9.75,192
3458,0.0,,,,55.0,,,,,44,note_on,,0.0,55.0,0.0,3788,9.864583333333332,192
3459,0.0,,,,62.0,,,,,0,note_on,,0.0,62.0,0.0,3788,9.864583333333332,192
3460,0.0,,,,59.0,,,,,0,note_on,,0.0,59.0,0.0,3788,9.864583333333332,192
3461,0.0,,,,55.0,,,,,52,note_on,,100.0,55.0,100.0,3840,10.0,192
3462,0.0,,,,62.0,,,,,0,note_on,,100.0,62.0,100.0,3840,10.0,192
3463,0.0,,,,59.0,,,,,0,note_on,,100.0,59.0,100.0,3840,10.0,192
3464,0.0,,,,59.0,,,,,44,note_on,,0.0,59.0,0.0,3884,10.114583333333332,192
3465,0.0,,,,55.0,,,,,0,note_on,,0.0,55.0,0.0,3884,10.114583333333332,192
3466,0.0,,,,62.0,,,,,0,note_on,,0.0,62.0,0.0,3884,10.114583333333332,192
3467,0.0,,,,55.0,,,,,52,note_on,,100.0,55.0,100.0,3936,10.25,192
3468,0.0,,,,62.0,,,,,0,note_on,,100.0,62.0,100.0,3936,10.25,192
3469,0.0,,,,59.0,,,,,0,note_on,,100.0,59.0,100.0,3936,10.25,192
3470,0.0,,,,59.0,,,,,44,note_on,,0.0,59.0,0.0,3980,10.364583333333332,192
3471,0.0,,,,62.0,,,,,0,note_on,,0.0,62.0,0.0,3980,10.364583333333332,192
3472,0.0,,,,55.0,,,,,0,note_on,,0.0,55.0,0.0,3980,10.364583333333332,192
3473,0.0,,,,59.0,,,,,52,note_on,,100.0,59.0,100.0,4032,10.5,192
3474,0.0,,,,55.0,,,,,0,note_on,,100.0,55.0,100.0,4032,10.5,192
3475,0.0,,,,62.0,,,,,0,note_on,,100.0,62.0,100.0,4032,10.5,192
3476,0.0,,,,59.0,,,,,44,note_on,,0.0,59.0,0.0,4076,10.614583333333332,192
3477,0.0,,,,62.0,,,,,0,note_on,,0.0,62.0,0.0,4076,10.614583333333332,192
3478,0.0,,,,55.0,,,,,0,note_on,,0.0,55.0,0.0,4076,10.614583333333332,192
3479,0.0,,,,59.0,,,,,52,note_on,,100.0,59.0,100.0,4128,10.75,192
3480,0.0,,,,62.0,,,,,0,note_on,,100.0,62.0,100.0,4128,10.75,192
3481,0.0,,,,55.0,,,,,0,note_on,,100.0,55.0,100.0,4128,10.75,192
3482,0.0,,,,59.0,,,,,44,note_on,,0.0,59.0,0.0,4172,10.864583333333332,192
3483,0.0,,,,62.0,,,,,0,note_on,,0.0,62.0,0.0,4172,10.864583333333332,192
3484,0.0,,,,55.0,,,,,0,note_on,,0.0,55.0,0.0,4172,10.864583333333332,192
3485,0.0,,,,59.0,,,,,52,note_on,,100.0,59.0,100.0,4224,11.0,192
3486,0.0,,,,62.0,,,,,0,note_on,,100.0,62.0,100.0,4224,11.0,192
3487,0.0,,,,55.0,,,,,0,note_on,,100.0,55.0,100.0,4224,11.0,192
3488,0.0,,,,55.0,,,,,44,note_on,,0.0,55.0,0.0,4268,11.114583333333332,192
3489,0.0,,,,62.0,,,,,0,note_on,,0.0,62.0,0.0,4268,11.114583333333332,192
3490,0.0,,,,59.0,,,,,0,note_on,,0.0,59.0,0.0,4268,11.114583333333332,192
3491,0.0,,,,62.0,,,,,52,note_on,,100.0,62.0,100.0,4320,11.25,192
3492,0.0,,,,55.0,,,,,0,note_on,,100.0,55.0,100.0,4320,11.25,192
3493,0.0,,,,59.0,,,,,0,note_on,,100.0,59.0,100.0,4320,11.25,192
3494,0.0,,,,59.0,,,,,44,note_on,,0.0,59.0,0.0,4364,11.364583333333332,192
3495,0.0,,,,62.0,,,,,0,note_on,,0.0,62.0,0.0,4364,11.364583333333332,192
3496,0.0,,,,55.0,,,,,0,note_on,,0.0,55.0,0.0,4364,11.364583333333332,192
3497,0.0,,,,59.0,,,,,52,note_on,,100.0,59.0,100.0,4416,11.5,192
3498,0.0,,,,62.0,,,,,0,note_on,,100.0,62.0,100.0,4416,11.5,192
3499,0.0,,,,55.0,,,,,0,note_on,,100.0,55.0,100.0,4416,11.5,192
3500,0.0,,,,55.0,,,,,44,note_on,,0.0,55.0,0.0,4460,11.614583333333332,192
3501,0.0,,,,59.0,,,,,0,note_on,,0.0,59.0,0.0,4460,11.614583333333332,192
3502,0.0,,,,62.0,,,,,0,note_on,,0.0,62.0,0.0,4460,11.614583333333332,192
3503,0.0,,,,59.0,,,,,52,note_on,,100.0,59.0,100.0,4512,11.75,192
3504,0.0,,,,55.0,,,,,0,note_on,,100.0,55.0,100.0,4512,11.75,192
3505,0.0,,,,62.0,,,,,0,note_on,,100.0,62.0,100.0,4512,11.75,192
3506,0.0,,,,55.0,,,,,44,note_on,,0.0,55.0,0.0,4556,11.864583333333332,192
3507,0.0,,,,59.0,,,,,0,note_on,,0.0,59.0,0.0,4556,11.864583333333332,192
3508,0.0,,,,62.0,,,,,0,note_on,,0.0,62.0,0.0,4556,11.864583333333332,192
3509,0.0,,,,60.0,,,,,52,note_on,,100.0,60.0,100.0,4608,12.0,192
3510,0.0,,,,53.0,,,,,0,note_on,,100.0,53.0,100.0,4608,12.0,192
3511,0.0,,,,57.0,,,,,0,note_on,,100.0,57.0,100.0,4608,12.0,192
3512,0.0,,,,53.0,,,,,44,note_on,,0.0,53.0,0.0,4652,12.114583333333332,192
3513,0.0,,,,57.0,,,,,0,note_on,,0.0,57.0,0.0,4652,12.114583333333332,192
3514,0.0,,,,60.0,,,,,0,note_on,,0.0,60.0,0.0,4652,12.114583333333332,192
3515,0.0,,,,53.0,,,,,52,note_on,,100.0,53.0,100.0,4704,12.25,192
3516,0.0,,,,60.0,,,,,0,note_on,,100.0,60.0,100.0,4704,12.25,192
3517,0.0,,,,57.0,,,,,0,note_on,,100.0,57.0,100.0,4704,12.25,192
3518,0.0,,,,60.0,,,,,44,note_on,,0.0,60.0,0.0,4748,12.364583333333332,192
3519,0.0,,,,53.0,,,,,0,note_on,,0.0,53.0,0.0,4748,12.364583333333332,192
3520,0.0,,,,57.0,,,,,0,note_on,,0.0,57.0,0.0,4748,12.364583333333332,192
3521,0.0,,,,60.0,,,,,52,note_on,,100.0,60.0,100.0,4800,12.5,192
3522,0.0,,,,57.0,,,,,0,note_on,,100.0,57.0,100.0,4800,12.5,192
3523,0.0,,,,53.0,,,,,0,note_on,,100.0,53.0,100.0,4800,12.5,192
3524,0.0,,,,60.0,,,,,44,note_on,,0.0,60.0,0.0,4844,12.614583333333332,192
3525,0.0,,,,53.0,,,,,0,note_on,,0.0,53.0,0.0,4844,12.614583333333332,192
3526,0.0,,,,57.0,,,,,0,note_on,,0.0,57.0,0.0,4844,12.614583333333332,192
3527,0.0,,,,60.0,,,,,52,note_on,,100.0,60.0,100.0,4896,12.75,192
3528,0.0,,,,53.0,,,,,0,note_on,,100.0,53.0,100.0,4896,12.75,192
3529,0.0,,,,57.0,,,,,0,note_on,,100.0,57.0,100.0,4896,12.75,192
3530,0.0,,,,57.0,,,,,44,note_on,,0.0,57.0,0.0,4940,12.864583333333332,192
3531,0.0,,,,60.0,,,,,0,note_on,,0.0,60.0,0.0,4940,12.864583333333332,192
3532,0.0,,,,53.0,,,,,0,note_on,,0.0,53.0,0.0,4940,12.864583333333332,192
3533,0.0,,,,60.0,,,,,52,note_on,,100.0,60.0,100.0,4992,13.0,192
3534,0.0,,,,57.0,,,,,0,note_on,,100.0,57.0,100.0,4992,13.0,192
3535,0.0,,,,53.0,,,,,0,note_on,,100.0,53.0,100.0,4992,13.0,192
3536,0.0,,,,60.0,,,,,44,note_on,,0.0,60.0,0.0,5036,13.114583333333332,192
3537,0.0,,,,53.0,,,,,0,note_on,,0.0,53.0,0.0,5036,13.114583333333332,192
3538,0.0,,,,57.0,,,,,0,note_on,,0.0,57.0,0.0,5036,13.114583333333332,192
3539,0.0,,,,57.0,,,,,52,note_on,,100.0,57.0,100.0,5088,13.25,192
3540,0.0,,,,60.0,,,,,0,note_on,,100.0,60.0,100.0,5088,13.25,192
3541,0.0,,,,53.0,,,,,0,note_on,,100.0,53.0,100.0,5088,13.25,192
3542,0.0,,,,57.0,,,,,44,note_on,,0.0,57.0,0.0,5132,13.364583333333332,192
3543,0.0,,,,60.0,,,,,0,note_on,,0.0,60.0,0.0,5132,13.364583333333332,192
3544,0.0,,,,53.0,,,,,0,note_on,,0.0,53.0,0.0,5132,13.364583333333332,192
3545,0.0,,,,60.0,,,,,52,note_on,,100.0,60.0,100.0,5184,13.5,192
3546,0.0,,,,53.0,,,,,0,note_on,,100.0,53.0,100.0,5184,13.5,192
3547,0.0,,,,57.0,,,,,0,note_on,,100.0,57.0,100.0,5184,13.5,192
3548,0.0,,,,53.0,,,,,44,note_on,,0.0,53.0,0.0,5228,13.614583333333332,192
3549,0.0,,,,60.0,,,,,0,note_on,,0.0,60.0,0.0,5228,13.614583333333332,192
3550,0.0,,,,57.0,,,,,0,note_on,,0.0,57.0,0.0,5228,13.614583333333332,192
3551,0.0,,,,48.0,,,,,52,note_on,,100.0,48.0,100.0,5280,13.75,192
3552,0.0,,,,48.0,,,,,44,note_on,,0.0,48.0,0.0,5324,13.864583333333332,192
3553,0.0,,,,60.0,,,,,52,note_on,,100.0,60.0,100.0,5376,14.0,192
3554,0.0,,,,64.0,,,,,0,note_on,,100.0,64.0,100.0,5376,14.0,192
3555,0.0,,,,55.0,,,,,0,note_on,,100.0,55.0,100.0,5376,14.0,192
3556,0.0,,,,64.0,,,,,44,note_on,,0.0,64.0,0.0,5420,14.114583333333332,192
3557,0.0,,,,55.0,,,,,0,note_on,,0.0,55.0,0.0,5420,14.114583333333332,192
3558,0.0,,,,60.0,,,,,0,note_on,,0.0,60.0,0.0,5420,14.114583333333332,192
3559,0.0,,,,55.0,,,,,52,note_on,,100.0,55.0,100.0,5472,14.25,192
3560,0.0,,,,64.0,,,,,0,note_on,,100.0,64.0,100.0,5472,14.25,192
3561,0.0,,,,60.0,,,,,0,note_on,,100.0,60.0,100.0,5472,14.25,192
3562,0.0,,,,55.0,,,,,44,note_on,,0.0,55.0,0.0,5516,14.364583333333332,192
3563,0.0,,,,64.0,,,,,0,note_on,,0.0,64.0,0.0,5516,14.364583333333332,192
3564,0.0,,,,60.0,,,,,0,note_on,,0.0,60.0,0.0,5516,14.364583333333332,192
3565,0.0,,,,55.0,,,,,52,note_on,,100.0,55.0,100.0,5568,14.5,192
3566,0.0,,,,60.0,,,,,0,note_on,,100.0,60.0,100.0,5568,14.5,192
3567,0.0,,,,64.0,,,,,0,note_on,,100.0,64.0,100.0,5568,14.5,192
3568,0.0,,,,60.0,,,,,44,note_on,,0.0,60.0,0.0,5612,14.614583333333332,192
3569,0.0,,,,64.0,,,,,0,note_on,,0.0,64.0,0.0,5612,14.614583333333332,192
3570,0.0,,,,55.0,,,,,0,note_on,,0.0,55.0,0.0,5612,14.614583333333332,192
3571,0.0,,,,55.0,,,,,52,note_on,,100.0,55.0,100.0,5664,14.75,192
3572,0.0,,,,60.0,,,,,0,note_on,,100.0,60.0,100.0,5664,14.75,192
3573,0.0,,,,64.0,,,,,0,note_on,,100.0,64.0,100.0,5664,14.75,192
3574,0.0,,,,60.0,,,,,44,note_on,,0.0,60.0,0.0,5708,14.864583333333332,192
3575,0.0,,,,55.0,,,,,0,note_on,,0.0,55.0,0.0,5708,14.864583333333332,192
3576,0.0,,,,64.0,,,,,0,note_on,,0.0,64.0,0.0,5708,14.864583333333332,192
3577,0.0,,,,64.0,,,,,52,note_on,,100.0,64.0,100.0,5760,15.0,192
3578,0.0,,,,55.0,,,,,0,note_on,,100.0,55.0,100.0,5760,15.0,192
3579,0.0,,,,60.0,,,,,0,note_on,,100.0,60.0,100.0,5760,15.0,192
3580,0.0,,,,55.0,,,,,44,note_on,,0.0,55.0,0.0,5804,15.114583333333332,192
3581,0.0,,,,64.0,,,,,0,note_on,,0.0,64.0,0.0,5804,15.114583333333332,192
3582,0.0,,,,60.0,,,,,0,note_on,,0.0,60.0,0.0,5804,15.114583333333332,192
3583,0.0,,,,64.0,,,,,52,note_on,,100.0,64.0,100.0,5856,15.25,192
3584,0.0,,,,55.0,,,,,0,note_on,,100.0,55.0,100.0,5856,15.25,192
3585,0.0,,,,60.0,,,,,0,note_on,,100.0,60.0,100.0,5856,15.25,192
3586,0.0,,,,60.0,,,,,44,note_on,,0.0,60.0,0.0,5900,15.364583333333332,192
3587,0.0,,,,55.0,,,,,0,note_on,,0.0,55.0,0.0,5900,15.364583333333332,192
3588,0.0,,,,64.0,,,,,0,note_on,,0.0,64.0,0.0,5900,15.364583333333332,192
3589,0.0,,,,55.0,,,,,52,note_on,,100.0,55.0,100.0,5952,15.5,192
3590,0.0,,,,64.0,,,,,0,note_on,,100.0,64.0,100.0,5952,15.5,192
3591,0.0,,,,60.0,,,,,0,note_on,,100.0,60.0,100.0,5952,15.5,192
3592,0.0,,,,55.0,,,,,44,note_on,,0.0,55.0,0.0,5996,15.614583333333332,192
3593,0.0,,,,60.0,,,,,0,note_on,,0.0,60.0,0.0,5996,15.614583333333332,192
3594,0.0,,,,64.0,,,,,0,note_on,,0.0,64.0,0.0,5996,15.614583333333332,192
3595,0.0,,,,60.0,,,,,52,note_on,,100.0,60.0,100.0,6048,15.75,192
3596,0.0,,,,64.0,,,,,0,note_on,,100.0,64.0,100.0,6048,15.75,192
3597,0.0,,,,55.0,,,,,0,note_on,,100.0,55.0,100.0,6048,15.75,192
3598,0.0,,,,64.0,,,,,44,note_on,,0.0,64.0,0.0,6092,15.864583333333332,192
3599,0.0,,,,55.0,,,,,0,note_on,,0.0,55.0,0.0,6092,15.864583333333332,192
3600,0.0,,,,60.0,,,,,0,note_on,,0.0,60.0,0.0,6092,15.864583333333332,192
3601,0.0,,,,59.0,,,,,52,note_on,,100.0,59.0,100.0,6144,16.0,192
3602,0.0,,,,62.0,,,,,0,note_on,,100.0,62.0,100.0,6144,16.0,192
3603,0.0,,,,55.0,,,,,0,note_on,,100.0,55.0,100.0,6144,16.0,192
3604,0.0,,,,59.0,,,,,44,note_on,,0.0,59.0,0.0,6188,16.114583333333332,192
3605,0.0,,,,55.0,,,,,0,note_on,,0.0,55.0,0.0,6188,16.114583333333332,192
3606,0.0,,,,62.0,,,,,0,note_on,,0.0,62.0,0.0,6188,16.114583333333332,192
3607,0.0,,,,55.0,,,,,52,note_on,,100.0,55.0,100.0,6240,16.25,192
3608,0.0,,,,62.0,,,,,0,note_on,,100.0,62.0,100.0,6240,16.25,192
3609,0.0,,,,59.0,,,,,0,note_on,,100.0,59.0,100.0,6240,16.25,192
3610,0.0,,,,62.0,,,,,44,note_on,,0.0,62.0,0.0,6284,16.364583333333332,192
3611,0.0,,,,55.0,,,,,0,note_on,,0.0,55.0,0.0,6284,16.364583333333332,192
3612,0.0,,,,59.0,,,,,0,note_on,,0.0,59.0,0.0,6284,16.364583333333332,192
3613,0.0,,,,55.0,,,,,52,note_on,,100.0,55.0,100.0,6336,16.5,192
3614,0.0,,,,62.0,,,,,0,note_on,,100.0,62.0,100.0,6336,16.5,192
3615,0.0,,,,59.0,,,,,0,note_on,,100.0,59.0,100.0,6336,16.5,192
3616,0.0,,,,59.0,,,,,44,note_on,,0.0,59.0,0.0,6380,16.614583333333332,192
3617,0.0,,,,62.0,,,,,0,note_on,,0.0,62.0,0.0,6380,16.614583333333332,192
3618,0.0,,,,55.0,,,,,0,note_on,,0.0,55.0,0.0,6380,16.614583333333332,192
3619,0.0,,,,62.0,,,,,52,note_on,,100.0,62.0,100.0,6432,16.75,192
3620,0.0,,,,59.0,,,,,0,note_on,,100.0,59.0,100.0,6432,16.75,192
3621,0.0,,,,55.0,,,,,0,note_on,,100.0,55.0,100.0,6432,16.75,192
3622,0.0,,,,55.0,,,,,44,note_on,,0.0,55.0,0.0,6476,16.864583333333332,192
3623,0.0,,,,59.0,,,,,0,note_on,,0.0,59.0,0.0,6476,16.864583333333332,192
3624,0.0,,,,62.0,,,,,0,note_on,,0.0,62.0,0.0,6476,16.864583333333332,192
3625,0.0,,,,59.0,,,,,52,note_on,,100.0,59.0,100.0,6528,17.0,192
3626,0.0,,,,55.0,,,,,0,note_on,,100.0,55.0,100.0,6528,17.0,192
3627,0.0,,,,62.0,,,,,0,note_on,,100.0,62.0,100.0,6528,17.0,192
3628,0.0,,,,55.0,,,,,44,note_on,,0.0,55.0,0.0,6572,17.114583333333332,192
3629,0.0,,,,59.0,,,,,0,note_on,,0.0,59.0,0.0,6572,17.114583333333332,192
3630,0.0,,,,62.0,,,,,0,note_on,,0.0,62.0,0.0,6572,17.114583333333332,192
3631,0.0,,,,59.0,,,,,52,note_on,,100.0,59.0,100.0,6624,17.25,192
3632,0.0,,,,55.0,,,,,0,note_on,,100.0,55.0,100.0,6624,17.25,192
3633,0.0,,,,62.0,,,,,0,note_on,,100.0,62.0,100.0,6624,17.25,192
3634,0.0,,,,55.0,,,,,44,note_on,,0.0,55.0,0.0,6668,17.364583333333332,192
3635,0.0,,,,59.0,,,,,0,note_on,,0.0,59.0,0.0,6668,17.364583333333332,192
3636,0.0,,,,62.0,,,,,0,note_on,,0.0,62.0,0.0,6668,17.364583333333332,192
3637,0.0,,,,55.0,,,,,52,note_on,,100.0,55.0,100.0,6720,17.5,192
3638,0.0,,,,62.0,,,,,0,note_on,,100.0,62.0,100.0,6720,17.5,192
3639,0.0,,,,59.0,,,,,0,note_on,,100.0,59.0,100.0,6720,17.5,192
3640,0.0,,,,62.0,,,,,44,note_on,,0.0,62.0,0.0,6764,17.614583333333332,192
3641,0.0,,,,55.0,,,,,0,note_on,,0.0,55.0,0.0,6764,17.614583333333332,192
3642,0.0,,,,59.0,,,,,0,note_on,,0.0,59.0,0.0,6764,17.614583333333332,192
3643,0.0,,,,59.0,,,,,52,note_on,,100.0,59.0,100.0,6816,17.75,192
3644,0.0,,,,55.0,,,,,0,note_on,,100.0,55.0,100.0,6816,17.75,192
3645,0.0,,,,62.0,,,,,0,note_on,,100.0,62.0,100.0,6816,17.75,192
3646,0.0,,,,62.0,,,,,44,note_on,,0.0,62.0,0.0,6860,17.864583333333332,192
3647,0.0,,,,59.0,,,,,0,note_on,,0.0,59.0,0.0,6860,17.864583333333332,192
3648,0.0,,,,55.0,,,,,0,note_on,,0.0,55.0,0.0,6860,17.864583333333332,192
3649,0.0,,,,55.0,,,,,52,note_on,,100.0,55.0,100.0,6912,18.0,192
3650,0.0,,,,62.0,,,,,0,note_on,,100.0,62.0,100.0,6912,18.0,192
3651,0.0,,,,59.0,,,,,0,note_on,,100.0,59.0,100.0,6912,18.0,192
3652,0.0,,,,62.0,,,,,44,note_on,,0.0,62.0,0.0,6956,18.114583333333332,192
3653,0.0,,,,59.0,,,,,0,note_on,,0.0,59.0,0.0,6956,18.114583333333332,192
3654,0.0,,,,55.0,,,,,0,note_on,,0.0,55.0,0.0,6956,18.114583333333332,192
3655,0.0,,,,62.0,,,,,52,note_on,,100.0,62.0,100.0,7008,18.25,192
3656,0.0,,,,55.0,,,,,0,note_on,,100.0,55.0,100.0,7008,18.25,192
3657,0.0,,,,59.0,,,,,0,note_on,,100.0,59.0,100.0,7008,18.25,192
3658,0.0,,,,59.0,,,,,44,note_on,,0.0,59.0,0.0,7052,18.364583333333332,192
3659,0.0,,,,55.0,,,,,0,note_on,,0.0,55.0,0.0,7052,18.364583333333332,192
3660,0.0,,,,62.0,,,,,0,note_on,,0.0,62.0,0.0,7052,18.364583333333332,192
3661,0.0,,,,55.0,,,,,52,note_on,,100.0,55.0,100.0,7104,18.5,192
3662,0.0,,,,59.0,,,,,0,note_on,,100.0,59.0,100.0,7104,18.5,192
3663,0.0,,,,62.0,,,,,0,note_on,,100.0,62.0,100.0,7104,18.5,192
3664,0.0,,,,62.0,,,,,44,note_on,,0.0,62.0,0.0,7148,18.614583333333332,192
3665,0.0,,,,59.0,,,,,0,note_on,,0.0,59.0,0.0,7148,18.614583333333332,192
3666,0.0,,,,55.0,,,,,0,note_on,,0.0,55.0,0.0,7148,18.614583333333332,192
3667,0.0,,,,55.0,,,,,52,note_on,,100.0,55.0,100.0,7200,18.75,192
3668,0.0,,,,59.0,,,,,0,note_on,,100.0,59.0,100.0,7200,18.75,192
3669,0.0,,,,62.0,,,,,0,note_on,,100.0,62.0,100.0,7200,18.75,192
3670,0.0,,,,55.0,,,,,44,note_on,,0.0,55.0,0.0,7244,18.864583333333332,192
3671,0.0,,,,59.0,,,,,0,note_on,,0.0,59.0,0.0,7244,18.864583333333332,192
3672,0.0,,,,62.0,,,,,0,note_on,,0.0,62.0,0.0,7244,18.864583333333332,192
3673,0.0,,,,62.0,,,,,52,note_on,,100.0,62.0,100.0,7296,19.0,192
3674,0.0,,,,59.0,,,,,0,note_on,,100.0,59.0,100.0,7296,19.0,192
3675,0.0,,,,55.0,,,,,0,note_on,,100.0,55.0,100.0,7296,19.0,192
3676,0.0,,,,59.0,,,,,44,note_on,,0.0,59.0,0.0,7340,19.114583333333332,192
3677,0.0,,,,55.0,,,,,0,note_on,,0.0,55.0,0.0,7340,19.114583333333332,192
3678,0.0,,,,62.0,,,,,0,note_on,,0.0,62.0,0.0,7340,19.114583333333332,192
3679,0.0,,,,62.0,,,,,52,note_on,,100.0,62.0,100.0,7392,19.25,192
3680,0.0,,,,59.0,,,,,0,note_on,,100.0,59.0,100.0,7392,19.25,192
3681,0.0,,,,55.0,,,,,0,note_on,,100.0,55.0,100.0,7392,19.25,192
3682,0.0,,,,59.0,,,,,44,note_on,,0.0,59.0,0.0,7436,19.364583333333332,192
3683,0.0,,,,55.0,,,,,0,note_on,,0.0,55.0,0.0,7436,19.364583333333332,192
3684,0.0,,,,62.0,,,,,0,note_on,,0.0,62.0,0.0,7436,19.364583333333332,192
3685,0.0,,,,55.0,,,,,52,note_on,,100.0,55.0,100.0,7488,19.5,192
3686,0.0,,,,59.0,,,,,0,note_on,,100.0,59.0,100.0,7488,19.5,192
3687,0.0,,,,62.0,,,,,0,note_on,,100.0,62.0,100.0,7488,19.5,192
3688,0.0,,,,62.0,,,,,44,note_on,,0.0,62.0,0.0,7532,19.614583333333332,192
3689,0.0,,,,59.0,,,,,0,note_on,,0.0,59.0,0.0,7532,19.614583333333332,192
3690,0.0,,,,55.0,,,,,0,note_on,,0.0,55.0,0.0,7532,19.614583333333332,192
3691,0.0,,,,59.0,,,,,52,note_on,,100.0,59.0,100.0,7584,19.75,192
3692,0.0,,,,55.0,,,,,0,note_on,,100.0,55.0,100.0,7584,19.75,192
3693,0.0,,,,62.0,,,,,0,note_on,,100.0,62.0,100.0,7584,19.75,192
3694,0.0,,,,55.0,,,,,44,note_on,,0.0,55.0,0.0,7628,19.864583333333332,192
3695,0.0,,,,59.0,,,,,0,note_on,,0.0,59.0,0.0,7628,19.864583333333332,192
3696,0.0,,,,62.0,,,,,0,note_on,,0.0,62.0,0.0,7628,19.864583333333332,192
3697,0.0,,,,60.0,,,,,52,note_on,,100.0,60.0,100.0,7680,20.0,192
3698,0.0,,,,53.0,,,,,0,note_on,,100.0,53.0,100.0,7680,20.0,192
3699,0.0,,,,57.0,,,,,0,note_on,,100.0,57.0,100.0,7680,20.0,192
3700,0.0,,,,53.0,,,,,44,note_on,,0.0,53.0,0.0,7724,20.114583333333332,192
3701,0.0,,,,57.0,,,,,0,note_on,,0.0,57.0,0.0,7724,20.114583333333332,192
3702,0.0,,,,60.0,,,,,0,note_on,,0.0,60.0,0.0,7724,20.114583333333332,192
3703,0.0,,,,53.0,,,,,52,note_on,,100.0,53.0,100.0,7776,20.25,192
3704,0.0,,,,57.0,,,,,0,note_on,,100.0,57.0,100.0,7776,20.25,192
3705,0.0,,,,60.0,,,,,0,note_on,,100.0,60.0,100.0,7776,20.25,192
3706,0.0,,,,60.0,,,,,44,note_on,,0.0,60.0,0.0,7820,20.364583333333332,192
3707,0.0,,,,57.0,,,,,0,note_on,,0.0,57.0,0.0,7820,20.364583333333332,192
3708,0.0,,,,53.0,,,,,0,note_on,,0.0,53.0,0.0,7820,20.364583333333332,192
3709,0.0,,,,60.0,,,,,52,note_on,,100.0,60.0,100.0,7872,20.5,192
3710,0.0,,,,57.0,,,,,0,note_on,,100.0,57.0,100.0,7872,20.5,192
3711,0.0,,,,53.0,,,,,0,note_on,,100.0,53.0,100.0,7872,20.5,192
3712,0.0,,,,53.0,,,,,44,note_on,,0.0,53.0,0.0,7916,20.614583333333332,192
3713,0.0,,,,57.0,,,,,0,note_on,,0.0,57.0,0.0,7916,20.614583333333332,192
3714,0.0,,,,60.0,,,,,0,note_on,,0.0,60.0,0.0,7916,20.614583333333332,192
3715,0.0,,,,53.0,,,,,52,note_on,,100.0,53.0,100.0,7968,20.75,192
3716,0.0,,,,60.0,,,,,0,note_on,,100.0,60.0,100.0,7968,20.75,192
3717,0.0,,,,57.0,,,,,0,note_on,,100.0,57.0,100.0,7968,20.75,192
3718,0.0,,,,57.0,,,,,44,note_on,,0.0,57.0,0.0,8012,20.864583333333332,192
3719,0.0,,,,53.0,,,,,0,note_on,,0.0,53.0,0.0,8012,20.864583333333332,192
3720,0.0,,,,60.0,,,,,0,note_on,,0.0,60.0,0.0,8012,20.864583333333332,192
3721,0.0,,,,57.0,,,,,52,note_on,,100.0,57.0,100.0,8064,21.0,192
3722,0.0,,,,53.0,,,,,0,note_on,,100.0,53.0,100.0,8064,21.0,192
3723,0.0,,,,60.0,,,,,0,note_on,,100.0,60.0,100.0,8064,21.0,192
3724,0.0,,,,53.0,,,,,44,note_on,,0.0,53.0,0.0,8108,21.114583333333332,192
3725,0.0,,,,60.0,,,,,0,note_on,,0.0,60.0,0.0,8108,21.114583333333332,192
3726,0.0,,,,57.0,,,,,0,note_on,,0.0,57.0,0.0,8108,21.114583333333332,192
3727,0.0,,,,57.0,,,,,52,note_on,,100.0,57.0,100.0,8160,21.25,192
3728,0.0,,,,53.0,,,,,0,note_on,,100.0,53.0,100.0,8160,21.25,192
3729,0.0,,,,60.0,,,,,0,note_on,,100.0,60.0,100.0,8160,21.25,192
3730,0.0,,,,60.0,,,,,44,note_on,,0.0,60.0,0.0,8204,21.364583333333332,192
3731,0.0,,,,53.0,,,,,0,note_on,,0.0,53.0,0.0,8204,21.364583333333332,192
3732,0.0,,,,57.0,,,,,0,note_on,,0.0,57.0,0.0,8204,21.364583333333332,192
3733,0.0,,,,53.0,,,,,52,note_on,,100.0,53.0,100.0,8256,21.5,192
3734,0.0,,,,57.0,,,,,0,note_on,,100.0,57.0,100.0,8256,21.5,192
3735,0.0,,,,60.0,,,,,0,note_on,,100.0,60.0,100.0,8256,21.5,192
3736,0.0,,,,57.0,,,,,44,note_on,,0.0,57.0,0.0,8300,21.614583333333332,192
3737,0.0,,,,53.0,,,,,0,note_on,,0.0,53.0,0.0,8300,21.614583333333332,192
3738,0.0,,,,60.0,,,,,0,note_on,,0.0,60.0,0.0,8300,21.614583333333332,192
3739,0.0,,,,48.0,,,,,52,note_on,,100.0,48.0,100.0,8352,21.75,192
3740,0.0,,,,48.0,,,,,44,note_on,,0.0,48.0,0.0,8396,21.864583333333332,192
3741,0.0,,,,64.0,,,,,52,note_on,,100.0,64.0,100.0,8448,22.0,192
3742,0.0,,,,60.0,,,,,0,note_on,,100.0,60.0,100.0,8448,22.0,192
3743,0.0,,,,55.0,,,,,0,note_on,,100.0,55.0,100.0,8448,22.0,192
3744,0.0,,,,64.0,,,,,44,note_on,,0.0,64.0,0.0,8492,22.114583333333332,192
3745,0.0,,,,55.0,,,,,0,note_on,,0.0,55.0,0.0,8492,22.114583333333332,192
3746,0.0,,,,60.0,,,,,0,note_on,,0.0,60.0,0.0,8492,22.114583333333332,192
3747,0.0,,,,55.0,,,,,52,note_on,,100.0,55.0,100.0,8544,22.25,192
3748,0.0,,,,60.0,,,,,0,note_on,,100.0,60.0,100.0,8544,22.25,192
3749,0.0,,,,64.0,,,,,0,note_on,,100.0,64.0,100.0,8544,22.25,192
3750,0.0,,,,60.0,,,,,44,note_on,,0.0,60.0,0.0,8588,22.364583333333332,192
3751,0.0,,,,64.0,,,,,0,note_on,,0.0,64.0,0.0,8588,22.364583333333332,192
3752,0.0,,,,55.0,,,,,0,note_on,,0.0,55.0,0.0,8588,22.364583333333332,192
3753,0.0,,,,60.0,,,,,52,note_on,,100.0,60.0,100.0,8640,22.5,192
3754,0.0,,,,64.0,,,,,0,note_on,,100.0,64.0,100.0,8640,22.5,192
3755,0.0,,,,55.0,,,,,0,note_on,,100.0,55.0,100.0,8640,22.5,192
3756,0.0,,,,64.0,,,,,44,note_on,,0.0,64.0,0.0,8684,22.614583333333332,192
3757,0.0,,,,55.0,,,,,0,note_on,,0.0,55.0,0.0,8684,22.614583333333332,192
3758,0.0,,,,60.0,,,,,0,note_on,,0.0,60.0,0.0,8684,22.614583333333332,192
3759,0.0,,,,55.0,,,,,52,note_on,,100.0,55.0,100.0,8736,22.75,192
3760,0.0,,,,64.0,,,,,0,note_on,,100.0,64.0,100.0,8736,22.75,192
3761,0.0,,,,60.0,,,,,0,note_on,,100.0,60.0,100.0,8736,22.75,192
3762,0.0,,,,60.0,,,,,44,note_on,,0.0,60.0,0.0,8780,22.864583333333332,192
3763,0.0,,,,55.0,,,,,0,note_on,,0.0,55.0,0.0,8780,22.864583333333332,192
3764,0.0,,,,64.0,,,,,0,note_on,,0.0,64.0,0.0,8780,22.864583333333332,192
3765,0.0,,,,60.0,,,,,52,note_on,,100.0,60.0,100.0,8832,23.0,192
3766,0.0,,,,64.0,,,,,0,note_on,,100.0,64.0,100.0,8832,23.0,192
3767,0.0,,,,55.0,,,,,0,note_on,,100.0,55.0,100.0,8832,23.0,192
3768,0.0,,,,55.0,,,,,44,note_on,,0.0,55.0,0.0,8876,23.114583333333332,192
3769,0.0,,,,64.0,,,,,0,note_on,,0.0,64.0,0.0,8876,23.114583333333332,192
3770,0.0,,,,60.0,,,,,0,note_on,,0.0,60.0,0.0,8876,23.114583333333332,192
3771,0.0,,,,55.0,,,,,52,note_on,,100.0,55.0,100.0,8928,23.25,192
3772,0.0,,,,64.0,,,,,0,note_on,,100.0,64.0,100.0,8928,23.25,192
3773,0.0,,,,60.0,,,,,0,note_on,,100.0,60.0,100.0,8928,23.25,192
3774,0.0,,,,64.0,,,,,44,note_on,,0.0,64.0,0.0,8972,23.364583333333332,192
3775,0.0,,,,60.0,,,,,0,note_on,,0.0,60.0,0.0,8972,23.364583333333332,192
3776,0.0,,,,55.0,,,,,0,note_on,,0.0,55.0,0.0,8972,23.364583333333332,192
3777,0.0,,,,55.0,,,,,52,note_on,,100.0,55.0,100.0,9024,23.5,192
3778,0.0,,,,64.0,,,,,0,note_on,,100.0,64.0,100.0,9024,23.5,192
3779,0.0,,,,60.0,,,,,0,note_on,,100.0,60.0,100.0,9024,23.5,192
3780,0.0,,,,64.0,,,,,44,note_on,,0.0,64.0,0.0,9068,23.614583333333332,192
3781,0.0,,,,60.0,,,,,0,note_on,,0.0,60.0,0.0,9068,23.614583333333332,192
3782,0.0,,,,55.0,,,,,0,note_on,,0.0,55.0,0.0,9068,23.614583333333332,192
3783,0.0,,,,64.0,,,,,52,note_on,,100.0,64.0,100.0,9120,23.75,192
3784,0.0,,,,60.0,,,,,0,note_on,,100.0,60.0,100.0,9120,23.75,192
3785,0.0,,,,55.0,,,,,0,note_on,,100.0,55.0,100.0,9120,23.75,192
3786,0.0,,,,64.0,,,,,44,note_on,,0.0,64.0,0.0,9164,23.864583333333332,192
3787,0.0,,,,55.0,,,,,0,note_on,,0.0,55.0,0.0,9164,23.864583333333332,192
3788,0.0,,,,60.0,,,,,0,note_on,,0.0,60.0,0.0,9164,23.864583333333332,192
3789,0.0,,,,55.0,,,,,52,note_on,,100.0,55.0,100.0,9216,24.0,192
3790,0.0,,,,62.0,,,,,0,note_on,,100.0,62.0,100.0,9216,24.0,192
3791,0.0,,,,59.0,,,,,0,note_on,,100.0,59.0,100.0,9216,24.0,192
3792,0.0,,,,59.0,,,,,44,note_on,,0.0,59.0,0.0,9260,24.114583333333332,192
3793,0.0,,,,55.0,,,,,0,note_on,,0.0,55.0,0.0,9260,24.114583333333332,192
3794,0.0,,,,62.0,,,,,0,note_on,,0.0,62.0,0.0,9260,24.114583333333332,192
3795,0.0,,,,55.0,,,,,52,note_on,,100.0,55.0,100.0,9312,24.25,192
3796,0.0,,,,62.0,,,,,0,note_on,,100.0,62.0,100.0,9312,24.25,192
3797,0.0,,,,59.0,,,,,0,note_on,,100.0,59.0,100.0,9312,24.25,192
3798,0.0,,,,62.0,,,,,44,note_on,,0.0,62.0,0.0,9356,24.364583333333332,192
3799,0.0,,,,55.0,,,,,0,note_on,,0.0,55.0,0.0,9356,24.364583333333332,192
3800,0.0,,,,59.0,,,,,0,note_on,,0.0,59.0,0.0,9356,24.364583333333332,192
3801,0.0,,,,59.0,,,,,52,note_on,,100.0,59.0,100.0,9408,24.5,192
3802,0.0,,,,62.0,,,,,0,note_on,,100.0,62.0,100.0,9408,24.5,192
3803,0.0,,,,55.0,,,,,0,note_on,,100.0,55.0,100.0,9408,24.5,192
3804,0.0,,,,55.0,,,,,44,note_on,,0.0,55.0,0.0,9452,24.614583333333332,192
3805,0.0,,,,62.0,,,,,0,note_on,,0.0,62.0,0.0,9452,24.614583333333332,192
3806,0.0,,,,59.0,,,,,0,note_on,,0.0,59.0,0.0,9452,24.614583333333332,192
3807,0.0,,,,55.0,,,,,52,note_on,,100.0,55.0,100.0,9504,24.75,192
3808,0.0,,,,62.0,,,,,0,note_on,,100.0,62.0,100.0,9504,24.75,192
3809,0.0,,,,59.0,,,,,0,note_on,,100.0,59.0,100.0,9504,24.75,192
3810,0.0,,,,62.0,,,,,44,note_on,,0.0,62.0,0.0,9548,24.864583333333332,192
3811,0.0,,,,55.0,,,,,0,note_on,,0.0,55.0,0.0,9548,24.864583333333332,192
3812,0.0,,,,59.0,,,,,0,note_on,,0.0,59.0,0.0,9548,24.864583333333332,192
3813,0.0,,,,59.0,,,,,52,note_on,,100.0,59.0,100.0,9600,25.0,192
3814,0.0,,,,55.0,,,,,0,note_on,,100.0,55.0,100.0,9600,25.0,192
3815,0.0,,,,62.0,,,,,0,note_on,,100.0,62.0,100.0,9600,25.0,192
3816,0.0,,,,55.0,,,,,44,note_on,,0.0,55.0,0.0,9644,25.114583333333332,192
3817,0.0,,,,62.0,,,,,0,note_on,,0.0,62.0,0.0,9644,25.114583333333332,192
3818,0.0,,,,59.0,,,,,0,note_on,,0.0,59.0,0.0,9644,25.114583333333332,192
3819,0.0,,,,62.0,,,,,52,note_on,,100.0,62.0,100.0,9696,25.25,192
3820,0.0,,,,55.0,,,,,0,note_on,,100.0,55.0,100.0,9696,25.25,192
3821,0.0,,,,59.0,,,,,0,note_on,,100.0,59.0,100.0,9696,25.25,192
3822,0.0,,,,59.0,,,,,44,note_on,,0.0,59.0,0.0,9740,25.364583333333332,192
3823,0.0,,,,55.0,,,,,0,note_on,,0.0,55.0,0.0,9740,25.364583333333332,192
3824,0.0,,,,62.0,,,,,0,note_on,,0.0,62.0,0.0,9740,25.364583333333332,192
3825,0.0,,,,59.0,,,,,52,note_on,,100.0,59.0,100.0,9792,25.5,192
3826,0.0,,,,55.0,,,,,0,note_on,,100.0,55.0,100.0,9792,25.5,192
3827,0.0,,,,62.0,,,,,0,note_on,,100.0,62.0,100.0,9792,25.5,192
3828,0.0,,,,55.0,,,,,44,note_on,,0.0,55.0,0.0,9836,25.614583333333332,192
3829,0.0,,,,62.0,,,,,0,note_on,,0.0,62.0,0.0,9836,25.614583333333332,192
3830,0.0,,,,59.0,,,,,0,note_on,,0.0,59.0,0.0,9836,25.614583333333332,192
3831,0.0,,,,62.0,,,,,52,note_on,,100.0,62.0,100.0,9888,25.75,192
3832,0.0,,,,55.0,,,,,0,note_on,,100.0,55.0,100.0,9888,25.75,192
3833,0.0,,,,59.0,,,,,0,note_on,,100.0,59.0,100.0,9888,25.75,192
3834,0.0,,,,59.0,,,,,44,note_on,,0.0,59.0,0.0,9932,25.864583333333332,192
3835,0.0,,,,62.0,,,,,0,note_on,,0.0,62.0,0.0,9932,25.864583333333332,192
3836,0.0,,,,55.0,,,,,0,note_on,,0.0,55.0,0.0,9932,25.864583333333332,192
3837,0.0,,,,59.0,,,,,52,note_on,,100.0,59.0,100.0,9984,26.0,192
3838,0.0,,,,55.0,,,,,0,note_on,,100.0,55.0,100.0,9984,26.0,192
3839,0.0,,,,62.0,,,,,0,note_on,,100.0,62.0,100.0,9984,26.0,192
3840,0.0,,,,62.0,,,,,44,note_on,,0.0,62.0,0.0,10028,26.114583333333332,192
3841,0.0,,,,59.0,,,,,0,note_on,,0.0,59.0,0.0,10028,26.114583333333332,192
3842,0.0,,,,55.0,,,,,0,note_on,,0.0,55.0,0.0,10028,26.114583333333332,192
3843,0.0,,,,55.0,,,,,52,note_on,,100.0,55.0,100.0,10080,26.25,192
3844,0.0,,,,62.0,,,,,0,note_on,,100.0,62.0,100.0,10080,26.25,192
3845,0.0,,,,59.0,,,,,0,note_on,,100.0,59.0,100.0,10080,26.25,192
3846,0.0,,,,55.0,,,,,44,note_on,,0.0,55.0,0.0,10124,26.364583333333332,192
3847,0.0,,,,59.0,,,,,0,note_on,,0.0,59.0,0.0,10124,26.364583333333332,192
3848,0.0,,,,62.0,,,,,0,note_on,,0.0,62.0,0.0,10124,26.364583333333332,192
3849,0.0,,,,59.0,,,,,52,note_on,,100.0,59.0,100.0,10176,26.5,192
3850,0.0,,,,62.0,,,,,0,note_on,,100.0,62.0,100.0,10176,26.5,192
3851,0.0,,,,55.0,,,,,0,note_on,,100.0,55.0,100.0,10176,26.5,192
3852,0.0,,,,62.0,,,,,44,note_on,,0.0,62.0,0.0,10220,26.614583333333332,192
3853,0.0,,,,59.0,,,,,0,note_on,,0.0,59.0,0.0,10220,26.614583333333332,192
3854,0.0,,,,55.0,,,,,0,note_on,,0.0,55.0,0.0,10220,26.614583333333332,192
3855,0.0,,,,59.0,,,,,52,note_on,,100.0,59.0,100.0,10272,26.75,192
3856,0.0,,,,62.0,,,,,0,note_on,,100.0,62.0,100.0,10272,26.75,192
3857,0.0,,,,55.0,,,,,0,note_on,,100.0,55.0,100.0,10272,26.75,192
3858,0.0,,,,62.0,,,,,44,note_on,,0.0,62.0,0.0,10316,26.864583333333332,192
3859,0.0,,,,59.0,,,,,0,note_on,,0.0,59.0,0.0,10316,26.864583333333332,192
3860,0.0,,,,55.0,,,,,0,note_on,,0.0,55.0,0.0,10316,26.864583333333332,192
3861,0.0,,,,59.0,,,,,52,note_on,,100.0,59.0,100.0,10368,27.0,192
3862,0.0,,,,62.0,,,,,0,note_on,,100.0,62.0,100.0,10368,27.0,192
3863,0.0,,,,55.0,,,,,0,note_on,,100.0,55.0,100.0,10368,27.0,192
3864,0.0,,,,62.0,,,,,44,note_on,,0.0,62.0,0.0,10412,27.114583333333332,192
3865,0.0,,,,59.0,,,,,0,note_on,,0.0,59.0,0.0,10412,27.114583333333332,192
3866,0.0,,,,55.0,,,,,0,note_on,,0.0,55.0,0.0,10412,27.114583333333332,192
3867,0.0,,,,55.0,,,,,52,note_on,,100.0,55.0,100.0,10464,27.25,192
3868,0.0,,,,59.0,,,,,0,note_on,,100.0,59.0,100.0,10464,27.25,192
3869,0.0,,,,62.0,,,,,0,note_on,,100.0,62.0,100.0,10464,27.25,192
3870,0.0,,,,62.0,,,,,44,note_on,,0.0,62.0,0.0,10508,27.364583333333332,192
3871,0.0,,,,55.0,,,,,0,note_on,,0.0,55.0,0.0,10508,27.364583333333332,192
3872,0.0,,,,59.0,,,,,0,note_on,,0.0,59.0,0.0,10508,27.364583333333332,192
3873,0.0,,,,55.0,,,,,52,note_on,,100.0,55.0,100.0,10560,27.5,192
3874,0.0,,,,59.0,,,,,0,note_on,,100.0,59.0,100.0,10560,27.5,192
3875,0.0,,,,62.0,,,,,0,note_on,,100.0,62.0,100.0,10560,27.5,192
3876,0.0,,,,59.0,,,,,44,note_on,,0.0,59.0,0.0,10604,27.614583333333332,192
3877,0.0,,,,62.0,,,,,0,note_on,,0.0,62.0,0.0,10604,27.614583333333332,192
3878,0.0,,,,55.0,,,,,0,note_on,,0.0,55.0,0.0,10604,27.614583333333332,192
3879,0.0,,,,62.0,,,,,52,note_on,,100.0,62.0,100.0,10656,27.75,192
3880,0.0,,,,55.0,,,,,0,note_on,,100.0,55.0,100.0,10656,27.75,192
3881,0.0,,,,59.0,,,,,0,note_on,,100.0,59.0,100.0,10656,27.75,192
3882,0.0,,,,62.0,,,,,44,note_on,,0.0,62.0,0.0,10700,27.864583333333332,192
3883,0.0,,,,55.0,,,,,0,note_on,,0.0,55.0,0.0,10700,27.864583333333332,192
3884,0.0,,,,59.0,,,,,0,note_on,,0.0,59.0,0.0,10700,27.864583333333332,192
3885,0.0,,,,57.0,,,,,52,note_on,,100.0,57.0,100.0,10752,28.0,192
3886,0.0,,,,53.0,,,,,0,note_on,,100.0,53.0,100.0,10752,28.0,192
3887,0.0,,,,60.0,,,,,0,note_on,,100.0,60.0,100.0,10752,28.0,192
3888,0.0,,,,57.0,,,,,44,note_on,,0.0,57.0,0.0,10796,28.114583333333332,192
3889,0.0,,,,53.0,,,,,0,note_on,,0.0,53.0,0.0,10796,28.114583333333332,192
3890,0.0,,,,60.0,,,,,0,note_on,,0.0,60.0,0.0,10796,28.114583333333332,192
3891,0.0,,,,57.0,,,,,52,note_on,,100.0,57.0,100.0,10848,28.25,192
3892,0.0,,,,53.0,,,,,0,note_on,,100.0,53.0,100.0,10848,28.25,192
3893,0.0,,,,60.0,,,,,0,note_on,,100.0,60.0,100.0,10848,28.25,192
3894,0.0,,,,53.0,,,,,44,note_on,,0.0,53.0,0.0,10892,28.364583333333332,192
3895,0.0,,,,60.0,,,,,0,note_on,,0.0,60.0,0.0,10892,28.364583333333332,192
3896,0.0,,,,57.0,,,,,0,note_on,,0.0,57.0,0.0,10892,28.364583333333332,192
3897,0.0,,,,53.0,,,,,52,note_on,,100.0,53.0,100.0,10944,28.5,192
3898,0.0,,,,57.0,,,,,0,note_on,,100.0,57.0,100.0,10944,28.5,192
3899,0.0,,,,60.0,,,,,0,note_on,,100.0,60.0,100.0,10944,28.5,192
3900,0.0,,,,60.0,,,,,44,note_on,,0.0,60.0,0.0,10988,28.614583333333332,192
3901,0.0,,,,57.0,,,,,0,note_on,,0.0,57.0,0.0,10988,28.614583333333332,192
3902,0.0,,,,53.0,,,,,0,note_on,,0.0,53.0,0.0,10988,28.614583333333332,192
3903,0.0,,,,53.0,,,,,52,note_on,,100.0,53.0,100.0,11040,28.75,192
3904,0.0,,,,60.0,,,,,0,note_on,,100.0,60.0,100.0,11040,28.75,192
3905,0.0,,,,57.0,,,,,0,note_on,,100.0,57.0,100.0,11040,28.75,192
3906,0.0,,,,57.0,,,,,44,note_on,,0.0,57.0,0.0,11084,28.864583333333332,192
3907,0.0,,,,60.0,,,,,0,note_on,,0.0,60.0,0.0,11084,28.864583333333332,192
3908,0.0,,,,53.0,,,,,0,note_on,,0.0,53.0,0.0,11084,28.864583333333332,192
3909,0.0,,,,60.0,,,,,52,note_on,,100.0,60.0,100.0,11136,29.0,192
3910,0.0,,,,57.0,,,,,0,note_on,,100.0,57.0,100.0,11136,29.0,192
3911,0.0,,,,53.0,,,,,0,note_on,,100.0,53.0,100.0,11136,29.0,192
3912,0.0,,,,60.0,,,,,44,note_on,,0.0,60.0,0.0,11180,29.114583333333332,192
3913,0.0,,,,57.0,,,,,0,note_on,,0.0,57.0,0.0,11180,29.114583333333332,192
3914,0.0,,,,53.0,,,,,0,note_on,,0.0,53.0,0.0,11180,29.114583333333332,192
3915,0.0,,,,57.0,,,,,52,note_on,,100.0,57.0,100.0,11232,29.25,192
3916,0.0,,,,53.0,,,,,0,note_on,,100.0,53.0,100.0,11232,29.25,192
3917,0.0,,,,60.0,,,,,0,note_on,,100.0,60.0,100.0,11232,29.25,192
3918,0.0,,,,53.0,,,,,44,note_on,,0.0,53.0,0.0,11276,29.364583333333332,192
3919,0.0,,,,60.0,,,,,0,note_on,,0.0,60.0,0.0,11276,29.364583333333332,192
3920,0.0,,,,57.0,,,,,0,note_on,,0.0,57.0,0.0,11276,29.364583333333332,192
3921,0.0,,,,60.0,,,,,52,note_on,,100.0,60.0,100.0,11328,29.5,192
3922,0.0,,,,57.0,,,,,0,note_on,,100.0,57.0,100.0,11328,29.5,192
3923,0.0,,,,53.0,,,,,0,note_on,,100.0,53.0,100.0,11328,29.5,192
3924,0.0,,,,57.0,,,,,44,note_on,,0.0,57.0,0.0,11372,29.614583333333332,192
3925,0.0,,,,53.0,,,,,0,note_on,,0.0,53.0,0.0,11372,29.614583333333332,192
3926,0.0,,,,60.0,,,,,0,note_on,,0.0,60.0,0.0,11372,29.614583333333332,192
3927,0.0,,,,48.0,,,,,52,note_on,,100.0,48.0,100.0,11424,29.75,192
3928,0.0,,,,48.0,,,,,44,note_on,,0.0,48.0,0.0,11468,29.864583333333332,192
3929,0.0,,,,60.0,,,,,52,note_on,,100.0,60.0,100.0,11520,30.0,192
3930,0.0,,,,55.0,,,,,0,note_on,,100.0,55.0,100.0,11520,30.0,192
3931,0.0,,,,64.0,,,,,0,note_on,,100.0,64.0,100.0,11520,30.0,192
3932,0.0,,,,55.0,,,,,44,note_on,,0.0,55.0,0.0,11564,30.114583333333332,192
3933,0.0,,,,60.0,,,,,0,note_on,,0.0,60.0,0.0,11564,30.114583333333332,192
3934,0.0,,,,64.0,,,,,0,note_on,,0.0,64.0,0.0,11564,30.114583333333332,192
3935,0.0,,,,60.0,,,,,52,note_on,,100.0,60.0,100.0,11616,30.25,192
3936,0.0,,,,55.0,,,,,0,note_on,,100.0,55.0,100.0,11616,30.25,192
3937,0.0,,,,64.0,,,,,0,note_on,,100.0,64.0,100.0,11616,30.25,192
3938,0.0,,,,55.0,,,,,44,note_on,,0.0,55.0,0.0,11660,30.364583333333332,192
3939,0.0,,,,64.0,,,,,0,note_on,,0.0,64.0,0.0,11660,30.364583333333332,192
3940,0.0,,,,60.0,,,,,0,note_on,,0.0,60.0,0.0,11660,30.364583333333332,192
3941,0.0,,,,64.0,,,,,52,note_on,,100.0,64.0,100.0,11712,30.5,192
3942,0.0,,,,55.0,,,,,0,note_on,,100.0,55.0,100.0,11712,30.5,192
3943,0.0,,,,60.0,,,,,0,note_on,,100.0,60.0,100.0,11712,30.5,192
3944,0.0,,,,60.0,,,,,44,note_on,,0.0,60.0,0.0,11756,30.614583333333332,192
3945,0.0,,,,55.0,,,,,0,note_on,,0.0,55.0,0.0,11756,30.614583333333332,192
3946,0.0,,,,64.0,,,,,0,note_on,,0.0,64.0,0.0,11756,30.614583333333332,192
3947,0.0,,,,60.0,,,,,52,note_on,,100.0,60.0,100.0,11808,30.75,192
3948,0.0,,,,64.0,,,,,0,note_on,,100.0,64.0,100.0,11808,30.75,192
3949,0.0,,,,55.0,,,,,0,note_on,,100.0,55.0,100.0,11808,30.75,192
3950,0.0,,,,60.0,,,,,44,note_on,,0.0,60.0,0.0,11852,30.864583333333332,192
3951,0.0,,,,55.0,,,,,0,note_on,,0.0,55.0,0.0,11852,30.864583333333332,192
3952,0.0,,,,64.0,,,,,0,note_on,,0.0,64.0,0.0,11852,30.864583333333332,192
3953,0.0,,,,55.0,,,,,52,note_on,,100.0,55.0,100.0,11904,31.0,192
3954,0.0,,,,64.0,,,,,0,note_on,,100.0,64.0,100.0,11904,31.0,192
3955,0.0,,,,60.0,,,,,0,note_on,,100.0,60.0,100.0,11904,31.0,192
3956,0.0,,,,60.0,,,,,44,note_on,,0.0,60.0,0.0,11948,31.114583333333332,192
3957,0.0,,,,64.0,,,,,0,note_on,,0.0,64.0,0.0,11948,31.114583333333332,192
3958,0.0,,,,55.0,,,,,0,note_on,,0.0,55.0,0.0,11948,31.114583333333332,192
3959,0.0,,,,60.0,,,,,52,note_on,,100.0,60.0,100.0,12000,31.25,192
3960,0.0,,,,64.0,,,,,0,note_on,,100.0,64.0,100.0,12000,31.25,192
3961,0.0,,,,55.0,,,,,0,note_on,,100.0,55.0,100.0,12000,31.25,192
3962,0.0,,,,60.0,,,,,44,note_on,,0.0,60.0,0.0,12044,31.364583333333332,192
3963,0.0,,,,55.0,,,,,0,note_on,,0.0,55.0,0.0,12044,31.364583333333332,192
3964,0.0,,,,64.0,,,,,0,note_on,,0.0,64.0,0.0,12044,31.364583333333332,192
3965,0.0,,,,55.0,,,,,52,note_on,,100.0,55.0,100.0,12096,31.5,192
3966,0.0,,,,60.0,,,,,0,note_on,,100.0,60.0,100.0,12096,31.5,192
3967,0.0,,,,64.0,,,,,0,note_on,,100.0,64.0,100.0,12096,31.5,192
3968,0.0,,,,64.0,,,,,44,note_on,,0.0,64.0,0.0,12140,31.614583333333332,192
3969,0.0,,,,55.0,,,,,0,note_on,,0.0,55.0,0.0,12140,31.614583333333332,192
3970,0.0,,,,60.0,,,,,0,note_on,,0.0,60.0,0.0,12140,31.614583333333332,192
3971,0.0,,,,55.0,,,,,52,note_on,,100.0,55.0,100.0,12192,31.75,192
3972,0.0,,,,60.0,,,,,0,note_on,,100.0,60.0,100.0,12192,31.75,192
3973,0.0,,,,64.0,,,,,0,note_on,,100.0,64.0,100.0,12192,31.75,192
3974,0.0,,,,55.0,,,,,44,note_on,,0.0,55.0,0.0,12236,31.864583333333332,192
3975,0.0,,,,64.0,,,,,0,note_on,,0.0,64.0,0.0,12236,31.864583333333332,192
3976,0.0,,,,60.0,,,,,0,note_on,,0.0,60.0,0.0,12236,31.864583333333332,192
3977,0.0,,,,62.0,,,,,52,note_on,,100.0,62.0,100.0,12288,32.0,192
3978,0.0,,,,55.0,,,,,0,note_on,,100.0,55.0,100.0,12288,32.0,192
3979,0.0,,,,59.0,,,,,0,note_on,,100.0,59.0,100.0,12288,32.0,192
3980,0.0,,,,55.0,,,,,44,note_on,,0.0,55.0,0.0,12332,32.11458333333333,192
3981,0.0,,,,62.0,,,,,0,note_on,,0.0,62.0,0.0,12332,32.11458333333333,192
3982,0.0,,,,59.0,,,,,0,note_on,,0.0,59.0,0.0,12332,32.11458333333333,192
3983,0.0,,,,62.0,,,,,52,note_on,,100.0,62.0,100.0,12384,32.25,192
3984,0.0,,,,55.0,,,,,0,note_on,,100.0,55.0,100.0,12384,32.25,192
3985,0.0,,,,59.0,,,,,0,note_on,,100.0,59.0,100.0,12384,32.25,192
3986,0.0,,,,62.0,,,,,44,note_on,,0.0,62.0,0.0,12428,32.36458333333333,192
3987,0.0,,,,55.0,,,,,0,note_on,,0.0,55.0,0.0,12428,32.36458333333333,192
3988,0.0,,,,59.0,,,,,0,note_on,,0.0,59.0,0.0,12428,32.36458333333333,192
3989,0.0,,,,59.0,,,,,52,note_on,,100.0,59.0,100.0,12480,32.5,192
3990,0.0,,,,55.0,,,,,0,note_on,,100.0,55.0,100.0,12480,32.5,192
3991,0.0,,,,62.0,,,,,0,note_on,,100.0,62.0,100.0,12480,32.5,192
3992,0.0,,,,62.0,,,,,44,note_on,,0.0,62.0,0.0,12524,32.61458333333333,192
3993,0.0,,,,55.0,,,,,0,note_on,,0.0,55.0,0.0,12524,32.61458333333333,192
3994,0.0,,,,59.0,,,,,0,note_on,,0.0,59.0,0.0,12524,32.61458333333333,192
3995,0.0,,,,62.0,,,,,52,note_on,,100.0,62.0,100.0,12576,32.75,192
3996,0.0,,,,55.0,,,,,0,note_on,,100.0,55.0,100.0,12576,32.75,192
3997,0.0,,,,59.0,,,,,0,note_on,,100.0,59.0,100.0,12576,32.75,192
3998,0.0,,,,55.0,,,,,44,note_on,,0.0,55.0,0.0,12620,32.86458333333333,192
3999,0.0,,,,62.0,,,,,0,note_on,,0.0,62.0,0.0,12620,32.86458333333333,192
4000,0.0,,,,59.0,,,,,0,note_on,,0.0,59.0,0.0,12620,32.86458333333333,192
4001,0.0,,,,59.0,,,,,52,note_on,,100.0,59.0,100.0,12672,33.0,192
4002,0.0,,,,62.0,,,,,0,note_on,,100.0,62.0,100.0,12672,33.0,192
4003,0.0,,,,55.0,,,,,0,note_on,,100.0,55.0,100.0,12672,33.0,192
4004,0.0,,,,55.0,,,,,44,note_on,,0.0,55.0,0.0,12716,33.11458333333333,192
4005,0.0,,,,62.0,,,,,0,note_on,,0.0,62.0,0.0,12716,33.11458333333333,192
4006,0.0,,,,59.0,,,,,0,note_on,,0.0,59.0,0.0,12716,33.11458333333333,192
4007,0.0,,,,59.0,,,,,52,note_on,,100.0,59.0,100.0,12768,33.25,192
4008,0.0,,,,55.0,,,,,0,note_on,,100.0,55.0,100.0,12768,33.25,192
4009,0.0,,,,62.0,,,,,0,note_on,,100.0,62.0,100.0,12768,33.25,192
4010,0.0,,,,59.0,,,,,44,note_on,,0.0,59.0,0.0,12812,33.36458333333333,192
4011,0.0,,,,55.0,,,,,0,note_on,,0.0,55.0,0.0,12812,33.36458333333333,192
4012,0.0,,,,62.0,,,,,0,note_on,,0.0,62.0,0.0,12812,33.36458333333333,192
4013,0.0,,,,59.0,,,,,52,note_on,,100.0,59.0,100.0,12864,33.5,192
4014,0.0,,,,55.0,,,,,0,note_on,,100.0,55.0,100.0,12864,33.5,192
4015,0.0,,,,62.0,,,,,0,note_on,,100.0,62.0,100.0,12864,33.5,192
4016,0.0,,,,59.0,,,,,44,note_on,,0.0,59.0,0.0,12908,33.61458333333333,192
4017,0.0,,,,62.0,,,,,0,note_on,,0.0,62.0,0.0,12908,33.61458333333333,192
4018,0.0,,,,55.0,,,,,0,note_on,,0.0,55.0,0.0,12908,33.61458333333333,192
4019,0.0,,,,62.0,,,,,52,note_on,,100.0,62.0,100.0,12960,33.75,192
4020,0.0,,,,55.0,,,,,0,note_on,,100.0,55.0,100.0,12960,33.75,192
4021,0.0,,,,59.0,,,,,0,note_on,,100.0,59.0,100.0,12960,33.75,192
4022,0.0,,,,59.0,,,,,44,note_on,,0.0,59.0,0.0,13004,33.86458333333333,192
4023,0.0,,,,55.0,,,,,0,note_on,,0.0,55.0,0.0,13004,33.86458333333333,192
4024,0.0,,,,62.0,,,,,0,note_on,,0.0,62.0,0.0,13004,33.86458333333333,192
4025,0.0,,,,62.0,,,,,52,note_on,,100.0,62.0,100.0,13056,34.0,192
4026,0.0,,,,55.0,,,,,0,note_on,,100.0,55.0,100.0,13056,34.0,192
4027,0.0,,,,59.0,,,,,0,note_on,,100.0,59.0,100.0,13056,34.0,192
4028,0.0,,,,59.0,,,,,44,note_on,,0.0,59.0,0.0,13100,34.11458333333333,192
4029,0.0,,,,55.0,,,,,0,note_on,,0.0,55.0,0.0,13100,34.11458333333333,192
4030,0.0,,,,62.0,,,,,0,note_on,,0.0,62.0,0.0,13100,34.11458333333333,192
4031,0.0,,,,59.0,,,,,52,note_on,,100.0,59.0,100.0,13152,34.25,192
4032,0.0,,,,62.0,,,,,0,note_on,,100.0,62.0,100.0,13152,34.25,192
4033,0.0,,,,55.0,,,,,0,note_on,,100.0,55.0,100.0,13152,34.25,192
4034,0.0,,,,62.0,,,,,44,note_on,,0.0,62.0,0.0,13196,34.36458333333333,192
4035,0.0,,,,55.0,,,,,0,note_on,,0.0,55.0,0.0,13196,34.36458333333333,192
4036,0.0,,,,59.0,,,,,0,note_on,,0.0,59.0,0.0,13196,34.36458333333333,192
4037,0.0,,,,59.0,,,,,52,note_on,,100.0,59.0,100.0,13248,34.5,192
4038,0.0,,,,62.0,,,,,0,note_on,,100.0,62.0,100.0,13248,34.5,192
4039,0.0,,,,55.0,,,,,0,note_on,,100.0,55.0,100.0,13248,34.5,192
4040,0.0,,,,62.0,,,,,44,note_on,,0.0,62.0,0.0,13292,34.61458333333333,192
4041,0.0,,,,55.0,,,,,0,note_on,,0.0,55.0,0.0,13292,34.61458333333333,192
4042,0.0,,,,59.0,,,,,0,note_on,,0.0,59.0,0.0,13292,34.61458333333333,192
4043,0.0,,,,62.0,,,,,52,note_on,,100.0,62.0,100.0,13344,34.75,192
4044,0.0,,,,59.0,,,,,0,note_on,,100.0,59.0,100.0,13344,34.75,192
4045,0.0,,,,55.0,,,,,0,note_on,,100.0,55.0,100.0,13344,34.75,192
4046,0.0,,,,62.0,,,,,44,note_on,,0.0,62.0,0.0,13388,34.86458333333333,192
4047,0.0,,,,55.0,,,,,0,note_on,,0.0,55.0,0.0,13388,34.86458333333333,192
4048,0.0,,,,59.0,,,,,0,note_on,,0.0,59.0,0.0,13388,34.86458333333333,192
4049,0.0,,,,55.0,,,,,52,note_on,,100.0,55.0,100.0,13440,35.0,192
4050,0.0,,,,62.0,,,,,0,note_on,,100.0,62.0,100.0,13440,35.0,192
4051,0.0,,,,59.0,,,,,0,note_on,,100.0,59.0,100.0,13440,35.0,192
4052,0.0,,,,59.0,,,,,44,note_on,,0.0,59.0,0.0,13484,35.11458333333333,192
4053,0.0,,,,62.0,,,,,0,note_on,,0.0,62.0,0.0,13484,35.11458333333333,192
4054,0.0,,,,55.0,,,,,0,note_on,,0.0,55.0,0.0,13484,35.11458333333333,192
4055,0.0,,,,59.0,,,,,52,note_on,,100.0,59.0,100.0,13536,35.25,192
4056,0.0,,,,55.0,,,,,0,note_on,,100.0,55.0,100.0,13536,35.25,192
4057,0.0,,,,62.0,,,,,0,note_on,,100.0,62.0,100.0,13536,35.25,192
4058,0.0,,,,55.0,,,,,44,note_on,,0.0,55.0,0.0,13580,35.36458333333333,192
4059,0.0,,,,59.0,,,,,0,note_on,,0.0,59.0,0.0,13580,35.36458333333333,192
4060,0.0,,,,62.0,,,,,0,note_on,,0.0,62.0,0.0,13580,35.36458333333333,192
4061,0.0,,,,55.0,,,,,52,note_on,,100.0,55.0,100.0,13632,35.5,192
4062,0.0,,,,62.0,,,,,0,note_on,,100.0,62.0,100.0,13632,35.5,192
4063,0.0,,,,59.0,,,,,0,note_on,,100.0,59.0,100.0,13632,35.5,192
4064,0.0,,,,55.0,,,,,44,note_on,,0.0,55.0,0.0,13676,35.61458333333333,192
4065,0.0,,,,59.0,,,,,0,note_on,,0.0,59.0,0.0,13676,35.61458333333333,192
4066,0.0,,,,62.0,,,,,0,note_on,,0.0,62.0,0.0,13676,35.61458333333333,192
4067,0.0,,,,62.0,,,,,52,note_on,,100.0,62.0,100.0,13728,35.75,192
4068,0.0,,,,55.0,,,,,0,note_on,,100.0,55.0,100.0,13728,35.75,192
4069,0.0,,,,59.0,,,,,0,note_on,,100.0,59.0,100.0,13728,35.75,192
4070,0.0,,,,55.0,,,,,44,note_on,,0.0,55.0,0.0,13772,35.86458333333333,192
4071,0.0,,,,62.0,,,,,0,note_on,,0.0,62.0,0.0,13772,35.86458333333333,192
4072,0.0,,,,59.0,,,,,0,note_on,,0.0,59.0,0.0,13772,35.86458333333333,192
4073,0.0,,,,53.0,,,,,52,note_on,,100.0,53.0,100.0,13824,36.0,192
4074,0.0,,,,60.0,,,,,0,note_on,,100.0,60.0,100.0,13824,36.0,192
4075,0.0,,,,57.0,,,,,0,note_on,,100.0,57.0,100.0,13824,36.0,192
4076,0.0,,,,60.0,,,,,44,note_on,,0.0,60.0,0.0,13868,36.11458333333333,192
4077,0.0,,,,53.0,,,,,0,note_on,,0.0,53.0,0.0,13868,36.11458333333333,192
4078,0.0,,,,57.0,,,,,0,note_on,,0.0,57.0,0.0,13868,36.11458333333333,192
4079,0.0,,,,60.0,,,,,52,note_on,,100.0,60.0,100.0,13920,36.25,192
4080,0.0,,,,53.0,,,,,0,note_on,,100.0,53.0,100.0,13920,36.25,192
4081,0.0,,,,57.0,,,,,0,note_on,,100.0,57.0,100.0,13920,36.25,192
4082,0.0,,,,60.0,,,,,44,note_on,,0.0,60.0,0.0,13964,36.36458333333333,192
4083,0.0,,,,57.0,,,,,0,note_on,,0.0,57.0,0.0,13964,36.36458333333333,192
4084,0.0,,,,53.0,,,,,0,note_on,,0.0,53.0,0.0,13964,36.36458333333333,192
4085,0.0,,,,53.0,,,,,52,note_on,,100.0,53.0,100.0,14016,36.5,192
4086,0.0,,,,57.0,,,,,0,note_on,,100.0,57.0,100.0,14016,36.5,192
4087,0.0,,,,60.0,,,,,0,note_on,,100.0,60.0,100.0,14016,36.5,192
4088,0.0,,,,60.0,,,,,44,note_on,,0.0,60.0,0.0,14060,36.61458333333333,192
4089,0.0,,,,57.0,,,,,0,note_on,,0.0,57.0,0.0,14060,36.61458333333333,192
4090,0.0,,,,53.0,,,,,0,note_on,,0.0,53.0,0.0,14060,36.61458333333333,192
4091,0.0,,,,60.0,,,,,52,note_on,,100.0,60.0,100.0,14112,36.75,192
4092,0.0,,,,57.0,,,,,0,note_on,,100.0,57.0,100.0,14112,36.75,192
4093,0.0,,,,53.0,,,,,0,note_on,,100.0,53.0,100.0,14112,36.75,192
4094,0.0,,,,60.0,,,,,44,note_on,,0.0,60.0,0.0,14156,36.86458333333333,192
4095,0.0,,,,57.0,,,,,0,note_on,,0.0,57.0,0.0,14156,36.86458333333333,192
4096,0.0,,,,53.0,,,,,0,note_on,,0.0,53.0,0.0,14156,36.86458333333333,192
4097,0.0,,,,60.0,,,,,52,note_on,,100.0,60.0,100.0,14208,37.0,192
4098,0.0,,,,57.0,,,,,0,note_on,,100.0,57.0,100.0,14208,37.0,192
4099,0.0,,,,53.0,,,,,0,note_on,,100.0,53.0,100.0,14208,37.0,192
4100,0.0,,,,53.0,,,,,44,note_on,,0.0,53.0,0.0,14252,37.11458333333333,192
4101,0.0,,,,60.0,,,,,0,note_on,,0.0,60.0,0.0,14252,37.11458333333333,192
4102,0.0,,,,57.0,,,,,0,note_on,,0.0,57.0,0.0,14252,37.11458333333333,192
4103,0.0,,,,60.0,,,,,52,note_on,,100.0,60.0,100.0,14304,37.25,192
4104,0.0,,,,53.0,,,,,0,note_on,,100.0,53.0,100.0,14304,37.25,192
4105,0.0,,,,57.0,,,,,0,note_on,,100.0,57.0,100.0,14304,37.25,192
4106,0.0,,,,57.0,,,,,44,note_on,,0.0,57.0,0.0,14348,37.36458333333333,192
4107,0.0,,,,60.0,,,,,0,note_on,,0.0,60.0,0.0,14348,37.36458333333333,192
4108,0.0,,,,53.0,,,,,0,note_on,,0.0,53.0,0.0,14348,37.36458333333333,192
4109,0.0,,,,60.0,,,,,52,note_on,,100.0,60.0,100.0,14400,37.5,192
4110,0.0,,,,57.0,,,,,0,note_on,,100.0,57.0,100.0,14400,37.5,192
4111,0.0,,,,53.0,,,,,0,note_on,,100.0,53.0,100.0,14400,37.5,192
4112,0.0,,,,53.0,,,,,44,note_on,,0.0,53.0,0.0,14444,37.61458333333333,192
4113,0.0,,,,60.0,,,,,0,note_on,,0.0,60.0,0.0,14444,37.61458333333333,192
4114,0.0,,,,57.0,,,,,0,note_on,,0.0,57.0,0.0,14444,37.61458333333333,192
4115,0.0,,,,48.0,,,,,52,note_on,,100.0,48.0,100.0,14496,37.75,192
4116,0.0,,,,48.0,,,,,44,note_on,,0.0,48.0,0.0,14540,37.86458333333333,192
4117,0.0,,,,64.0,,,,,52,note_on,,100.0,64.0,100.0,14592,38.0,192
4118,0.0,,,,60.0,,,,,0,note_on,,100.0,60.0,100.0,14592,38.0,192
4119,0.0,,,,55.0,,,,,0,note_on,,100.0,55.0,100.0,14592,38.0,192
4120,0.0,,,,55.0,,,,,44,note_on,,0.0,55.0,0.0,14636,38.11458333333333,192
4121,0.0,,,,60.0,,,,,0,note_on,,0.0,60.0,0.0,14636,38.11458333333333,192
4122,0.0,,,,64.0,,,,,0,note_on,,0.0,64.0,0.0,14636,38.11458333333333,192
4123,0.0,,,,64.0,,,,,52,note_on,,100.0,64.0,100.0,14688,38.25,192
4124,0.0,,,,60.0,,,,,0,note_on,,100.0,60.0,100.0,14688,38.25,192
4125,0.0,,,,55.0,,,,,0,note_on,,100.0,55.0,100.0,14688,38.25,192
4126,0.0,,,,64.0,,,,,44,note_on,,0.0,64.0,0.0,14732,38.36458333333333,192
4127,0.0,,,,60.0,,,,,0,note_on,,0.0,60.0,0.0,14732,38.36458333333333,192
4128,0.0,,,,55.0,,,,,0,note_on,,0.0,55.0,0.0,14732,38.36458333333333,192
4129,0.0,,,,64.0,,,,,52,note_on,,100.0,64.0,100.0,14784,38.5,192
4130,0.0,,,,60.0,,,,,0,note_on,,100.0,60.0,100.0,14784,38.5,192
4131,0.0,,,,55.0,,,,,0,note_on,,100.0,55.0,100.0,14784,38.5,192
4132,0.0,,,,60.0,,,,,44,note_on,,0.0,60.0,0.0,14828,38.61458333333333,192
4133,0.0,,,,55.0,,,,,0,note_on,,0.0,55.0,0.0,14828,38.61458333333333,192
4134,0.0,,,,64.0,,,,,0,note_on,,0.0,64.0,0.0,14828,38.61458333333333,192
4135,0.0,,,,64.0,,,,,52,note_on,,100.0,64.0,100.0,14880,38.75,192
4136,0.0,,,,60.0,,,,,0,note_on,,100.0,60.0,100.0,14880,38.75,192
4137,0.0,,,,55.0,,,,,0,note_on,,100.0,55.0,100.0,14880,38.75,192
4138,0.0,,,,64.0,,,,,44,note_on,,0.0,64.0,0.0,14924,38.86458333333333,192
4139,0.0,,,,60.0,,,,,0,note_on,,0.0,60.0,0.0,14924,38.86458333333333,192
4140,0.0,,,,55.0,,,,,0,note_on,,0.0,55.0,0.0,14924,38.86458333333333,192
4141,0.0,,,,60.0,,,,,52,note_on,,100.0,60.0,100.0,14976,39.0,192
4142,0.0,,,,64.0,,,,,0,note_on,,100.0,64.0,100.0,14976,39.0,192
4143,0.0,,,,55.0,,,,,0,note_on,,100.0,55.0,100.0,14976,39.0,192
4144,0.0,,,,64.0,,,,,44,note_on,,0.0,64.0,0.0,15020,39.11458333333333,192
4145,0.0,,,,60.0,,,,,0,note_on,,0.0,60.0,0.0,15020,39.11458333333333,192
4146,0.0,,,,55.0,,,,,0,note_on,,0.0,55.0,0.0,15020,39.11458333333333,192
4147,0.0,,,,64.0,,,,,52,note_on,,100.0,64.0,100.0,15072,39.25,192
4148,0.0,,,,55.0,,,,,0,note_on,,100.0,55.0,100.0,15072,39.25,192
4149,0.0,,,,60.0,,,,,0,note_on,,100.0,60.0,100.0,15072,39.25,192
4150,0.0,,,,55.0,,,,,44,note_on,,0.0,55.0,0.0,15116,39.36458333333333,192
4151,0.0,,,,60.0,,,,,0,note_on,,0.0,60.0,0.0,15116,39.36458333333333,192
4152,0.0,,,,64.0,,,,,0,note_on,,0.0,64.0,0.0,15116,39.36458333333333,192
4153,0.0,,,,60.0,,,,,52,note_on,,100.0,60.0,100.0,15168,39.5,192
4154,0.0,,,,55.0,,,,,0,note_on,,100.0,55.0,100.0,15168,39.5,192
4155,0.0,,,,64.0,,,,,0,note_on,,100.0,64.0,100.0,15168,39.5,192
4156,0.0,,,,55.0,,,,,44,note_on,,0.0,55.0,0.0,15212,39.61458333333333,192
4157,0.0,,,,60.0,,,,,0,note_on,,0.0,60.0,0.0,15212,39.61458333333333,192
4158,0.0,,,,64.0,,,,,0,note_on,,0.0,64.0,0.0,15212,39.61458333333333,192
4159,0.0,,,,60.0,,,,,52,note_on,,100.0,60.0,100.0,15264,39.75,192
4160,0.0,,,,64.0,,,,,0,note_on,,100.0,64.0,100.0,15264,39.75,192
4161,0.0,,,,55.0,,,,,0,note_on,,100.0,55.0,100.0,15264,39.75,192
4162,0.0,,,,60.0,,,,,44,note_on,,0.0,60.0,0.0,15308,39.86458333333333,192
4163,0.0,,,,55.0,,,,,0,note_on,,0.0,55.0,0.0,15308,39.86458333333333,192
4164,0.0,,,,64.0,,,,,0,note_on,,0.0,64.0,0.0,15308,39.86458333333333,192
4165,0.0,,,,59.0,,,,,52,note_on,,100.0,59.0,100.0,15360,40.0,192
4166,0.0,,,,62.0,,,,,0,note_on,,100.0,62.0,100.0,15360,40.0,192
4167,0.0,,,,55.0,,,,,0,note_on,,100.0,55.0,100.0,15360,40.0,192
4168,0.0,,,,62.0,,,,,44,note_on,,0.0,62.0,0.0,15404,40.11458333333333,192
4169,0.0,,,,59.0,,,,,0,note_on,,0.0,59.0,0.0,15404,40.11458333333333,192
4170,0.0,,,,55.0,,,,,0,note_on,,0.0,55.0,0.0,15404,40.11458333333333,192
4171,0.0,,,,59.0,,,,,52,note_on,,100.0,59.0,100.0,15456,40.25,192
4172,0.0,,,,62.0,,,,,0,note_on,,100.0,62.0,100.0,15456,40.25,192
4173,0.0,,,,55.0,,,,,0,note_on,,100.0,55.0,100.0,15456,40.25,192
4174,0.0,,,,55.0,,,,,44,note_on,,0.0,55.0,0.0,15500,40.36458333333333,192
4175,0.0,,,,59.0,,,,,0,note_on,,0.0,59.0,0.0,15500,40.36458333333333,192
4176,0.0,,,,62.0,,,,,0,note_on,,0.0,62.0,0.0,15500,40.36458333333333,192
4177,0.0,,,,59.0,,,,,52,note_on,,100.0,59.0,100.0,15552,40.5,192
4178,0.0,,,,62.0,,,,,0,note_on,,100.0,62.0,100.0,15552,40.5,192
4179,0.0,,,,55.0,,,,,0,note_on,,100.0,55.0,100.0,15552,40.5,192
4180,0.0,,,,55.0,,,,,44,note_on,,0.0,55.0,0.0,15596,40.61458333333333,192
4181,0.0,,,,62.0,,,,,0,note_on,,0.0,62.0,0.0,15596,40.61458333333333,192
4182,0.0,,,,59.0,,,,,0,note_on,,0.0,59.0,0.0,15596,40.61458333333333,192
4183,0.0,,,,62.0,,,,,52,note_on,,100.0,62.0,100.0,15648,40.75,192
4184,0.0,,,,55.0,,,,,0,note_on,,100.0,55.0,100.0,15648,40.75,192
4185,0.0,,,,59.0,,,,,0,note_on,,100.0,59.0,100.0,15648,40.75,192
4186,0.0,,,,55.0,,,,,44,note_on,,0.0,55.0,0.0,15692,40.86458333333333,192
4187,0.0,,,,62.0,,,,,0,note_on,,0.0,62.0,0.0,15692,40.86458333333333,192
4188,0.0,,,,59.0,,,,,0,note_on,,0.0,59.0,0.0,15692,40.86458333333333,192
4189,0.0,,,,62.0,,,,,52,note_on,,100.0,62.0,100.0,15744,41.0,192
4190,0.0,,,,55.0,,,,,0,note_on,,100.0,55.0,100.0,15744,41.0,192
4191,0.0,,,,59.0,,,,,0,note_on,,100.0,59.0,100.0,15744,41.0,192
4192,0.0,,,,59.0,,,,,44,note_on,,0.0,59.0,0.0,15788,41.11458333333333,192
4193,0.0,,,,55.0,,,,,0,note_on,,0.0,55.0,0.0,15788,41.11458333333333,192
4194,0.0,,,,62.0,,,,,0,note_on,,0.0,62.0,0.0,15788,41.11458333333333,192
4195,0.0,,,,55.0,,,,,52,note_on,,100.0,55.0,100.0,15840,41.25,192
4196,0.0,,,,62.0,,,,,0,note_on,,100.0,62.0,100.0,15840,41.25,192
4197,0.0,,,,59.0,,,,,0,note_on,,100.0,59.0,100.0,15840,41.25,192
4198,0.0,,,,62.0,,,,,44,note_on,,0.0,62.0,0.0,15884,41.36458333333333,192
4199,0.0,,,,55.0,,,,,0,note_on,,0.0,55.0,0.0,15884,41.36458333333333,192
4200,0.0,,,,59.0,,,,,0,note_on,,0.0,59.0,0.0,15884,41.36458333333333,192
4201,0.0,,,,59.0,,,,,52,note_on,,100.0,59.0,100.0,15936,41.5,192
4202,0.0,,,,55.0,,,,,0,note_on,,100.0,55.0,100.0,15936,41.5,192
4203,0.0,,,,62.0,,,,,0,note_on,,100.0,62.0,100.0,15936,41.5,192
4204,0.0,,,,59.0,,,,,44,note_on,,0.0,59.0,0.0,15980,41.61458333333333,192
4205,0.0,,,,62.0,,,,,0,note_on,,0.0,62.0,0.0,15980,41.61458333333333,192
4206,0.0,,,,55.0,,,,,0,note_on,,0.0,55.0,0.0,15980,41.61458333333333,192
4207,0.0,,,,59.0,,,,,52,note_on,,100.0,59.0,100.0,16032,41.75,192
4208,0.0,,,,62.0,,,,,0,note_on,,100.0,62.0,100.0,16032,41.75,192
4209,0.0,,,,55.0,,,,,0,note_on,,100.0,55.0,100.0,16032,41.75,192
4210,0.0,,,,59.0,,,,,44,note_on,,0.0,59.0,0.0,16076,41.86458333333333,192
4211,0.0,,,,55.0,,,,,0,note_on,,0.0,55.0,0.0,16076,41.86458333333333,192
4212,0.0,,,,62.0,,,,,0,note_on,,0.0,62.0,0.0,16076,41.86458333333333,192
4213,0.0,,,,55.0,,,,,52,note_on,,100.0,55.0,100.0,16128,42.0,192
4214,0.0,,,,62.0,,,,,0,note_on,,100.0,62.0,100.0,16128,42.0,192
4215,0.0,,,,59.0,,,,,0,note_on,,100.0,59.0,100.0,16128,42.0,192
4216,0.0,,,,62.0,,,,,44,note_on,,0.0,62.0,0.0,16172,42.11458333333333,192
4217,0.0,,,,55.0,,,,,0,note_on,,0.0,55.0,0.0,16172,42.11458333333333,192
4218,0.0,,,,59.0,,,,,0,note_on,,0.0,59.0,0.0,16172,42.11458333333333,192
4219,0.0,,,,59.0,,,,,52,note_on,,100.0,59.0,100.0,16224,42.25,192
4220,0.0,,,,62.0,,,,,0,note_on,,100.0,62.0,100.0,16224,42.25,192
4221,0.0,,,,55.0,,,,,0,note_on,,100.0,55.0,100.0,16224,42.25,192
4222,0.0,,,,62.0,,,,,44,note_on,,0.0,62.0,0.0,16268,42.36458333333333,192
4223,0.0,,,,59.0,,,,,0,note_on,,0.0,59.0,0.0,16268,42.36458333333333,192
4224,0.0,,,,55.0,,,,,0,note_on,,0.0,55.0,0.0,16268,42.36458333333333,192
4225,0.0,,,,62.0,,,,,52,note_on,,100.0,62.0,100.0,16320,42.5,192
4226,0.0,,,,55.0,,,,,0,note_on,,100.0,55.0,100.0,16320,42.5,192
4227,0.0,,,,59.0,,,,,0,note_on,,100.0,59.0,100.0,16320,42.5,192
4228,0.0,,,,62.0,,,,,44,note_on,,0.0,62.0,0.0,16364,42.61458333333333,192
4229,0.0,,,,59.0,,,,,0,note_on,,0.0,59.0,0.0,16364,42.61458333333333,192
4230,0.0,,,,55.0,,,,,0,note_on,,0.0,55.0,0.0,16364,42.61458333333333,192
4231,0.0,,,,55.0,,,,,52,note_on,,100.0,55.0,100.0,16416,42.75,192
4232,0.0,,,,62.0,,,,,0,note_on,,100.0,62.0,100.0,16416,42.75,192
4233,0.0,,,,59.0,,,,,0,note_on,,100.0,59.0,100.0,16416,42.75,192
4234,0.0,,,,62.0,,,,,44,note_on,,0.0,62.0,0.0,16460,42.86458333333333,192
4235,0.0,,,,55.0,,,,,0,note_on,,0.0,55.0,0.0,16460,42.86458333333333,192
4236,0.0,,,,59.0,,,,,0,note_on,,0.0,59.0,0.0,16460,42.86458333333333,192
4237,0.0,,,,59.0,,,,,52,note_on,,100.0,59.0,100.0,16512,43.0,192
4238,0.0,,,,55.0,,,,,0,note_on,,100.0,55.0,100.0,16512,43.0,192
4239,0.0,,,,62.0,,,,,0,note_on,,100.0,62.0,100.0,16512,43.0,192
4240,0.0,,,,59.0,,,,,44,note_on,,0.0,59.0,0.0,16556,43.11458333333333,192
4241,0.0,,,,55.0,,,,,0,note_on,,0.0,55.0,0.0,16556,43.11458333333333,192
4242,0.0,,,,62.0,,,,,0,note_on,,0.0,62.0,0.0,16556,43.11458333333333,192
4243,0.0,,,,59.0,,,,,52,note_on,,100.0,59.0,100.0,16608,43.25,192
4244,0.0,,,,55.0,,,,,0,note_on,,100.0,55.0,100.0,16608,43.25,192
4245,0.0,,,,62.0,,,,,0,note_on,,100.0,62.0,100.0,16608,43.25,192
4246,0.0,,,,55.0,,,,,44,note_on,,0.0,55.0,0.0,16652,43.36458333333333,192
4247,0.0,,,,59.0,,,,,0,note_on,,0.0,59.0,0.0,16652,43.36458333333333,192
4248,0.0,,,,62.0,,,,,0,note_on,,0.0,62.0,0.0,16652,43.36458333333333,192
4249,0.0,,,,62.0,,,,,52,note_on,,100.0,62.0,100.0,16704,43.5,192
4250,0.0,,,,59.0,,,,,0,note_on,,100.0,59.0,100.0,16704,43.5,192
4251,0.0,,,,55.0,,,,,0,note_on,,100.0,55.0,100.0,16704,43.5,192
4252,0.0,,,,62.0,,,,,44,note_on,,0.0,62.0,0.0,16748,43.61458333333333,192
4253,0.0,,,,55.0,,,,,0,note_on,,0.0,55.0,0.0,16748,43.61458333333333,192
4254,0.0,,,,59.0,,,,,0,note_on,,0.0,59.0,0.0,16748,43.61458333333333,192
4255,0.0,,,,59.0,,,,,52,note_on,,100.0,59.0,100.0,16800,43.75,192
4256,0.0,,,,62.0,,,,,0,note_on,,100.0,62.0,100.0,16800,43.75,192
4257,0.0,,,,55.0,,,,,0,note_on,,100.0,55.0,100.0,16800,43.75,192
4258,0.0,,,,62.0,,,,,44,note_on,,0.0,62.0,0.0,16844,43.86458333333333,192
4259,0.0,,,,59.0,,,,,0,note_on,,0.0,59.0,0.0,16844,43.86458333333333,192
4260,0.0,,,,55.0,,,,,0,note_on,,0.0,55.0,0.0,16844,43.86458333333333,192
4261,0.0,,,,53.0,,,,,52,note_on,,100.0,53.0,100.0,16896,44.0,192
4262,0.0,,,,57.0,,,,,0,note_on,,100.0,57.0,100.0,16896,44.0,192
4263,0.0,,,,60.0,,,,,0,note_on,,100.0,60.0,100.0,16896,44.0,192
4264,0.0,,,,57.0,,,,,44,note_on,,0.0,57.0,0.0,16940,44.11458333333333,192
4265,0.0,,,,53.0,,,,,0,note_on,,0.0,53.0,0.0,16940,44.11458333333333,192
4266,0.0,,,,60.0,,,,,0,note_on,,0.0,60.0,0.0,16940,44.11458333333333,192
4267,0.0,,,,60.0,,,,,52,note_on,,100.0,60.0,100.0,16992,44.25,192
4268,0.0,,,,57.0,,,,,0,note_on,,100.0,57.0,100.0,16992,44.25,192
4269,0.0,,,,53.0,,,,,0,note_on,,100.0,53.0,100.0,16992,44.25,192
4270,0.0,,,,53.0,,,,,44,note_on,,0.0,53.0,0.0,17036,44.36458333333333,192
4271,0.0,,,,60.0,,,,,0,note_on,,0.0,60.0,0.0,17036,44.36458333333333,192
4272,0.0,,,,57.0,,,,,0,note_on,,0.0,57.0,0.0,17036,44.36458333333333,192
4273,0.0,,,,53.0,,,,,52,note_on,,100.0,53.0,100.0,17088,44.5,192
4274,0.0,,,,57.0,,,,,0,note_on,,100.0,57.0,100.0,17088,44.5,192
4275,0.0,,,,60.0,,,,,0,note_on,,100.0,60.0,100.0,17088,44.5,192
4276,0.0,,,,53.0,,,,,44,note_on,,0.0,53.0,0.0,17132,44.61458333333333,192
4277,0.0,,,,60.0,,,,,0,note_on,,0.0,60.0,0.0,17132,44.61458333333333,192
4278,0.0,,,,57.0,,,,,0,note_on,,0.0,57.0,0.0,17132,44.61458333333333,192
4279,0.0,,,,53.0,,,,,52,note_on,,100.0,53.0,100.0,17184,44.75,192
4280,0.0,,,,57.0,,,,,0,note_on,,100.0,57.0,100.0,17184,44.75,192
4281,0.0,,,,60.0,,,,,0,note_on,,100.0,60.0,100.0,17184,44.75,192
4282,0.0,,,,57.0,,,,,44,note_on,,0.0,57.0,0.0,17228,44.86458333333333,192
4283,0.0,,,,53.0,,,,,0,note_on,,0.0,53.0,0.0,17228,44.86458333333333,192
4284,0.0,,,,60.0,,,,,0,note_on,,0.0,60.0,0.0,17228,44.86458333333333,192
4285,0.0,,,,60.0,,,,,52,note_on,,100.0,60.0,100.0,17280,45.0,192
4286,0.0,,,,53.0,,,,,0,note_on,,100.0,53.0,100.0,17280,45.0,192
4287,0.0,,,,57.0,,,,,0,note_on,,100.0,57.0,100.0,17280,45.0,192
4288,0.0,,,,60.0,,,,,44,note_on,,0.0,60.0,0.0,17324,45.11458333333333,192
4289,0.0,,,,53.0,,,,,0,note_on,,0.0,53.0,0.0,17324,45.11458333333333,192
4290,0.0,,,,57.0,,,,,0,note_on,,0.0,57.0,0.0,17324,45.11458333333333,192
4291,0.0,,,,60.0,,,,,52,note_on,,100.0,60.0,100.0,17376,45.25,192
4292,0.0,,,,57.0,,,,,0,note_on,,100.0,57.0,100.0,17376,45.25,192
4293,0.0,,,,53.0,,,,,0,note_on,,100.0,53.0,100.0,17376,45.25,192
4294,0.0,,,,53.0,,,,,44,note_on,,0.0,53.0,0.0,17420,45.36458333333333,192
4295,0.0,,,,60.0,,,,,0,note_on,,0.0,60.0,0.0,17420,45.36458333333333,192
4296,0.0,,,,57.0,,,,,0,note_on,,0.0,57.0,0.0,17420,45.36458333333333,192
4297,0.0,,,,60.0,,,,,52,note_on,,100.0,60.0,100.0,17472,45.5,192
4298,0.0,,,,57.0,,,,,0,note_on,,100.0,57.0,100.0,17472,45.5,192
4299,0.0,,,,53.0,,,,,0,note_on,,100.0,53.0,100.0,17472,45.5,192
4300,0.0,,,,57.0,,,,,44,note_on,,0.0,57.0,0.0,17516,45.61458333333333,192
4301,0.0,,,,53.0,,,,,0,note_on,,0.0,53.0,0.0,17516,45.61458333333333,192
4302,0.0,,,,60.0,,,,,0,note_on,,0.0,60.0,0.0,17516,45.61458333333333,192
4303,0.0,,,,48.0,,,,,52,note_on,,100.0,48.0,100.0,17568,45.75,192
4304,0.0,,,,48.0,,,,,44,note_on,,0.0,48.0,0.0,17612,45.86458333333333,192
4305,0.0,,,,64.0,,,,,52,note_on,,100.0,64.0,100.0,17664,46.0,192
4306,0.0,,,,60.0,,,,,0,note_on,,100.0,60.0,100.0,17664,46.0,192
4307,0.0,,,,55.0,,,,,0,note_on,,100.0,55.0,100.0,17664,46.0,192
4308,0.0,,,,64.0,,,,,44,note_on,,0.0,64.0,0.0,17708,46.11458333333333,192
4309,0.0,,,,55.0,,,,,0,note_on,,0.0,55.0,0.0,17708,46.11458333333333,192
4310,0.0,,,,60.0,,,,,0,note_on,,0.0,60.0,0.0,17708,46.11458333333333,192
4311,0.0,,,,55.0,,,,,52,note_on,,100.0,55.0,100.0,17760,46.25,192
4312,0.0,,,,64.0,,,,,0,note_on,,100.0,64.0,100.0,17760,46.25,192
4313,0.0,,,,60.0,,,,,0,note_on,,100.0,60.0,100.0,17760,46.25,192
4314,0.0,,,,60.0,,,,,44,note_on,,0.0,60.0,0.0,17804,46.36458333333333,192
4315,0.0,,,,64.0,,,,,0,note_on,,0.0,64.0,0.0,17804,46.36458333333333,192
4316,0.0,,,,55.0,,,,,0,note_on,,0.0,55.0,0.0,17804,46.36458333333333,192
4317,0.0,,,,60.0,,,,,52,note_on,,100.0,60.0,100.0,17856,46.5,192
4318,0.0,,,,55.0,,,,,0,note_on,,100.0,55.0,100.0,17856,46.5,192
4319,0.0,,,,64.0,,,,,0,note_on,,100.0,64.0,100.0,17856,46.5,192
4320,0.0,,,,64.0,,,,,44,note_on,,0.0,64.0,0.0,17900,46.61458333333333,192
4321,0.0,,,,55.0,,,,,0,note_on,,0.0,55.0,0.0,17900,46.61458333333333,192
4322,0.0,,,,60.0,,,,,0,note_on,,0.0,60.0,0.0,17900,46.61458333333333,192
4323,0.0,,,,55.0,,,,,52,note_on,,100.0,55.0,100.0,17952,46.75,192
4324,0.0,,,,60.0,,,,,0,note_on,,100.0,60.0,100.0,17952,46.75,192
4325,0.0,,,,64.0,,,,,0,note_on,,100.0,64.0,100.0,17952,46.75,192
4326,0.0,,,,64.0,,,,,44,note_on,,0.0,64.0,0.0,17996,46.86458333333333,192
4327,0.0,,,,60.0,,,,,0,note_on,,0.0,60.0,0.0,17996,46.86458333333333,192
4328,0.0,,,,55.0,,,,,0,note_on,,0.0,55.0,0.0,17996,46.86458333333333,192
4329,0.0,,,,64.0,,,,,52,note_on,,100.0,64.0,100.0,18048,47.0,192
4330,0.0,,,,60.0,,,,,0,note_on,,100.0,60.0,100.0,18048,47.0,192
4331,0.0,,,,55.0,,,,,0,note_on,,100.0,55.0,100.0,18048,47.0,192
4332,0.0,,,,64.0,,,,,44,note_on,,0.0,64.0,0.0,18092,47.11458333333333,192
4333,0.0,,,,55.0,,,,,0,note_on,,0.0,55.0,0.0,18092,47.11458333333333,192
4334,0.0,,,,60.0,,,,,0,note_on,,0.0,60.0,0.0,18092,47.11458333333333,192
4335,0.0,,,,64.0,,,,,52,note_on,,100.0,64.0,100.0,18144,47.25,192
4336,0.0,,,,60.0,,,,,0,note_on,,100.0,60.0,100.0,18144,47.25,192
4337,0.0,,,,55.0,,,,,0,note_on,,100.0,55.0,100.0,18144,47.25,192
4338,0.0,,,,60.0,,,,,44,note_on,,0.0,60.0,0.0,18188,47.36458333333333,192
4339,0.0,,,,64.0,,,,,0,note_on,,0.0,64.0,0.0,18188,47.36458333333333,192
4340,0.0,,,,55.0,,,,,0,note_on,,0.0,55.0,0.0,18188,47.36458333333333,192
4341,0.0,,,,64.0,,,,,52,note_on,,100.0,64.0,100.0,18240,47.5,192
4342,0.0,,,,55.0,,,,,0,note_on,,100.0,55.0,100.0,18240,47.5,192
4343,0.0,,,,60.0,,,,,0,note_on,,100.0,60.0,100.0,18240,47.5,192
4344,0.0,,,,60.0,,,,,44,note_on,,0.0,60.0,0.0,18284,47.61458333333333,192
4345,0.0,,,,55.0,,,,,0,note_on,,0.0,55.0,0.0,18284,47.61458333333333,192
4346,0.0,,,,64.0,,,,,0,note_on,,0.0,64.0,0.0,18284,47.61458333333333,192
4347,0.0,,,,55.0,,,,,52,note_on,,100.0,55.0,100.0,18336,47.75,192
4348,0.0,,,,60.0,,,,,0,note_on,,100.0,60.0,100.0,18336,47.75,192
4349,0.0,,,,64.0,,,,,0,note_on,,100.0,64.0,100.0,18336,47.75,192
4350,0.0,,,,64.0,,,,,44,note_on,,0.0,64.0,0.0,18380,47.86458333333333,192
4351,0.0,,,,60.0,,,,,0,note_on,,0.0,60.0,0.0,18380,47.86458333333333,192
4352,0.0,,,,55.0,,,,,0,note_on,,0.0,55.0,0.0,18380,47.86458333333333,192
4353,0.0,,,,62.0,,,,,52,note_on,,100.0,62.0,100.0,18432,48.0,192
4354,0.0,,,,55.0,,,,,0,note_on,,100.0,55.0,100.0,18432,48.0,192
4355,0.0,,,,59.0,,,,,0,note_on,,100.0,59.0,100.0,18432,48.0,192
4356,0.0,,,,62.0,,,,,44,note_on,,0.0,62.0,0.0,18476,48.11458333333333,192
4357,0.0,,,,59.0,,,,,0,note_on,,0.0,59.0,0.0,18476,48.11458333333333,192
4358,0.0,,,,55.0,,,,,0,note_on,,0.0,55.0,0.0,18476,48.11458333333333,192
4359,0.0,,,,55.0,,,,,52,note_on,,100.0,55.0,100.0,18528,48.25,192
4360,0.0,,,,62.0,,,,,0,note_on,,100.0,62.0,100.0,18528,48.25,192
4361,0.0,,,,59.0,,,,,0,note_on,,100.0,59.0,100.0,18528,48.25,192
4362,0.0,,,,59.0,,,,,44,note_on,,0.0,59.0,0.0,18572,48.36458333333333,192
4363,0.0,,,,62.0,,,,,0,note_on,,0.0,62.0,0.0,18572,48.36458333333333,192
4364,0.0,,,,55.0,,,,,0,note_on,,0.0,55.0,0.0,18572,48.36458333333333,192
4365,0.0,,,,59.0,,,,,52,note_on,,100.0,59.0,100.0,18624,48.5,192
4366,0.0,,,,55.0,,,,,0,note_on,,100.0,55.0,100.0,18624,48.5,192
4367,0.0,,,,62.0,,,,,0,note_on,,100.0,62.0,100.0,18624,48.5,192
4368,0.0,,,,62.0,,,,,44,note_on,,0.0,62.0,0.0,18668,48.61458333333333,192
4369,0.0,,,,55.0,,,,,0,note_on,,0.0,55.0,0.0,18668,48.61458333333333,192
4370,0.0,,,,59.0,,,,,0,note_on,,0.0,59.0,0.0,18668,48.61458333333333,192
4371,0.0,,,,62.0,,,,,52,note_on,,100.0,62.0,100.0,18720,48.75,192
4372,0.0,,,,59.0,,,,,0,note_on,,100.0,59.0,100.0,18720,48.75,192
4373,0.0,,,,55.0,,,,,0,note_on,,100.0,55.0,100.0,18720,48.75,192
4374,0.0,,,,62.0,,,,,44,note_on,,0.0,62.0,0.0,18764,48.86458333333333,192
4375,0.0,,,,55.0,,,,,0,note_on,,0.0,55.0,0.0,18764,48.86458333333333,192
4376,0.0,,,,59.0,,,,,0,note_on,,0.0,59.0,0.0,18764,48.86458333333333,192
4377,0.0,,,,59.0,,,,,52,note_on,,100.0,59.0,100.0,18816,49.0,192
4378,0.0,,,,55.0,,,,,0,note_on,,100.0,55.0,100.0,18816,49.0,192
4379,0.0,,,,62.0,,,,,0,note_on,,100.0,62.0,100.0,18816,49.0,192
4380,0.0,,,,59.0,,,,,44,note_on,,0.0,59.0,0.0,18860,49.11458333333333,192
4381,0.0,,,,62.0,,,,,0,note_on,,0.0,62.0,0.0,18860,49.11458333333333,192
4382,0.0,,,,55.0,,,,,0,note_on,,0.0,55.0,0.0,18860,49.11458333333333,192
4383,0.0,,,,62.0,,,,,52,note_on,,100.0,62.0,100.0,18912,49.25,192
4384,0.0,,,,55.0,,,,,0,note_on,,100.0,55.0,100.0,18912,49.25,192
4385,0.0,,,,59.0,,,,,0,note_on,,100.0,59.0,100.0,18912,49.25,192
4386,0.0,,,,55.0,,,,,44,note_on,,0.0,55.0,0.0,18956,49.36458333333333,192
4387,0.0,,,,62.0,,,,,0,note_on,,0.0,62.0,0.0,18956,49.36458333333333,192
4388,0.0,,,,59.0,,,,,0,note_on,,0.0,59.0,0.0,18956,49.36458333333333,192
4389,0.0,,,,59.0,,,,,52,note_on,,100.0,59.0,100.0,19008,49.5,192
4390,0.0,,,,55.0,,,,,0,note_on,,100.0,55.0,100.0,19008,49.5,192
4391,0.0,,,,62.0,,,,,0,note_on,,100.0,62.0,100.0,19008,49.5,192
4392,0.0,,,,62.0,,,,,44,note_on,,0.0,62.0,0.0,19052,49.61458333333333,192
4393,0.0,,,,55.0,,,,,0,note_on,,0.0,55.0,0.0,19052,49.61458333333333,192
4394,0.0,,,,59.0,,,,,0,note_on,,0.0,59.0,0.0,19052,49.61458333333333,192
4395,0.0,,,,59.0,,,,,52,note_on,,100.0,59.0,100.0,19104,49.75,192
4396,0.0,,,,62.0,,,,,0,note_on,,100.0,62.0,100.0,19104,49.75,192
4397,0.0,,,,55.0,,,,,0,note_on,,100.0,55.0,100.0,19104,49.75,192
4398,0.0,,,,55.0,,,,,44,note_on,,0.0,55.0,0.0,19148,49.86458333333333,192
4399,0.0,,,,62.0,,,,,0,note_on,,0.0,62.0,0.0,19148,49.86458333333333,192
4400,0.0,,,,59.0,,,,,0,note_on,,0.0,59.0,0.0,19148,49.86458333333333,192
4401,0.0,,,,55.0,,,,,52,note_on,,100.0,55.0,100.0,19200,50.0,192
4402,0.0,,,,62.0,,,,,0,note_on,,100.0,62.0,100.0,19200,50.0,192
4403,0.0,,,,59.0,,,,,0,note_on,,100.0,59.0,100.0,19200,50.0,192
4404,0.0,,,,55.0,,,,,44,note_on,,0.0,55.0,0.0,19244,50.11458333333333,192
4405,0.0,,,,59.0,,,,,0,note_on,,0.0,59.0,0.0,19244,50.11458333333333,192
4406,0.0,,,,62.0,,,,,0,note_on,,0.0,62.0,0.0,19244,50.11458333333333,192
4407,0.0,,,,62.0,,,,,52,note_on,,100.0,62.0,100.0,19296,50.25,192
4408,0.0,,,,59.0,,,,,0,note_on,,100.0,59.0,100.0,19296,50.25,192
4409,0.0,,,,55.0,,,,,0,note_on,,100.0,55.0,100.0,19296,50.25,192
4410,0.0,,,,62.0,,,,,44,note_on,,0.0,62.0,0.0,19340,50.36458333333333,192
4411,0.0,,,,55.0,,,,,0,note_on,,0.0,55.0,0.0,19340,50.36458333333333,192
4412,0.0,,,,59.0,,,,,0,note_on,,0.0,59.0,0.0,19340,50.36458333333333,192
4413,0.0,,,,59.0,,,,,52,note_on,,100.0,59.0,100.0,19392,50.5,192
4414,0.0,,,,62.0,,,,,0,note_on,,100.0,62.0,100.0,19392,50.5,192
4415,0.0,,,,55.0,,,,,0,note_on,,100.0,55.0,100.0,19392,50.5,192
4416,0.0,,,,55.0,,,,,44,note_on,,0.0,55.0,0.0,19436,50.61458333333333,192
4417,0.0,,,,62.0,,,,,0,note_on,,0.0,62.0,0.0,19436,50.61458333333333,192
4418,0.0,,,,59.0,,,,,0,note_on,,0.0,59.0,0.0,19436,50.61458333333333,192
4419,0.0,,,,55.0,,,,,52,note_on,,100.0,55.0,100.0,19488,50.75,192
4420,0.0,,,,59.0,,,,,0,note_on,,100.0,59.0,100.0,19488,50.75,192
4421,0.0,,,,62.0,,,,,0,note_on,,100.0,62.0,100.0,19488,50.75,192
4422,0.0,,,,55.0,,,,,44,note_on,,0.0,55.0,0.0,19532,50.86458333333333,192
4423,0.0,,,,62.0,,,,,0,note_on,,0.0,62.0,0.0,19532,50.86458333333333,192
4424,0.0,,,,59.0,,,,,0,note_on,,0.0,59.0,0.0,19532,50.86458333333333,192
4425,0.0,,,,59.0,,,,,52,note_on,,100.0,59.0,100.0,19584,51.0,192
4426,0.0,,,,62.0,,,,,0,note_on,,100.0,62.0,100.0,19584,51.0,192
4427,0.0,,,,55.0,,,,,0,note_on,,100.0,55.0,100.0,19584,51.0,192
4428,0.0,,,,59.0,,,,,44,note_on,,0.0,59.0,0.0,19628,51.11458333333333,192
4429,0.0,,,,55.0,,,,,0,note_on,,0.0,55.0,0.0,19628,51.11458333333333,192
4430,0.0,,,,62.0,,,,,0,note_on,,0.0,62.0,0.0,19628,51.11458333333333,192
4431,0.0,,,,59.0,,,,,52,note_on,,100.0,59.0,100.0,19680,51.25,192
4432,0.0,,,,55.0,,,,,0,note_on,,100.0,55.0,100.0,19680,51.25,192
4433,0.0,,,,62.0,,,,,0,note_on,,100.0,62.0,100.0,19680,51.25,192
4434,0.0,,,,59.0,,,,,44,note_on,,0.0,59.0,0.0,19724,51.36458333333333,192
4435,0.0,,,,55.0,,,,,0,note_on,,0.0,55.0,0.0,19724,51.36458333333333,192
4436,0.0,,,,62.0,,,,,0,note_on,,0.0,62.0,0.0,19724,51.36458333333333,192
4437,0.0,,,,62.0,,,,,52,note_on,,100.0,62.0,100.0,19776,51.5,192
4438,0.0,,,,55.0,,,,,0,note_on,,100.0,55.0,100.0,19776,51.5,192
4439,0.0,,,,59.0,,,,,0,note_on,,100.0,59.0,100.0,19776,51.5,192
4440,0.0,,,,59.0,,,,,44,note_on,,0.0,59.0,0.0,19820,51.61458333333333,192
4441,0.0,,,,55.0,,,,,0,note_on,,0.0,55.0,0.0,19820,51.61458333333333,192
4442,0.0,,,,62.0,,,,,0,note_on,,0.0,62.0,0.0,19820,51.61458333333333,192
4443,0.0,,,,59.0,,,,,52,note_on,,100.0,59.0,100.0,19872,51.75,192
4444,0.0,,,,55.0,,,,,0,note_on,,100.0,55.0,100.0,19872,51.75,192
4445,0.0,,,,62.0,,,,,0,note_on,,100.0,62.0,100.0,19872,51.75,192
4446,0.0,,,,62.0,,,,,44,note_on,,0.0,62.0,0.0,19916,51.86458333333333,192
4447,0.0,,,,55.0,,,,,0,note_on,,0.0,55.0,0.0,19916,51.86458333333333,192
4448,0.0,,,,59.0,,,,,0,note_on,,0.0,59.0,0.0,19916,51.86458333333333,192
4449,0.0,,,,60.0,,,,,52,note_on,,100.0,60.0,100.0,19968,52.0,192
4450,0.0,,,,57.0,,,,,0,note_on,,100.0,57.0,100.0,19968,52.0,192
4451,0.0,,,,53.0,,,,,0,note_on,,100.0,53.0,100.0,19968,52.0,192
4452,0.0,,,,60.0,,,,,44,note_on,,0.0,60.0,0.0,20012,52.11458333333333,192
4453,0.0,,,,53.0,,,,,0,note_on,,0.0,53.0,0.0,20012,52.11458333333333,192
4454,0.0,,,,57.0,,,,,0,note_on,,0.0,57.0,0.0,20012,52.11458333333333,192
4455,0.0,,,,53.0,,,,,52,note_on,,100.0,53.0,100.0,20064,52.25,192
4456,0.0,,,,60.0,,,,,0,note_on,,100.0,60.0,100.0,20064,52.25,192
4457,0.0,,,,57.0,,,,,0,note_on,,100.0,57.0,100.0,20064,52.25,192
4458,0.0,,,,57.0,,,,,44,note_on,,0.0,57.0,0.0,20108,52.36458333333333,192
4459,0.0,,,,60.0,,,,,0,note_on,,0.0,60.0,0.0,20108,52.36458333333333,192
4460,0.0,,,,53.0,,,,,0,note_on,,0.0,53.0,0.0,20108,52.36458333333333,192
4461,0.0,,,,53.0,,,,,52,note_on,,100.0,53.0,100.0,20160,52.5,192
4462,0.0,,,,60.0,,,,,0,note_on,,100.0,60.0,100.0,20160,52.5,192
4463,0.0,,,,57.0,,,,,0,note_on,,100.0,57.0,100.0,20160,52.5,192
4464,0.0,,,,57.0,,,,,44,note_on,,0.0,57.0,0.0,20204,52.61458333333333,192
4465,0.0,,,,60.0,,,,,0,note_on,,0.0,60.0,0.0,20204,52.61458333333333,192
4466,0.0,,,,53.0,,,,,0,note_on,,0.0,53.0,0.0,20204,52.61458333333333,192
4467,0.0,,,,57.0,,,,,52,note_on,,100.0,57.0,100.0,20256,52.75,192
4468,0.0,,,,53.0,,,,,0,note_on,,100.0,53.0,100.0,20256,52.75,192
4469,0.0,,,,60.0,,,,,0,note_on,,100.0,60.0,100.0,20256,52.75,192
4470,0.0,,,,60.0,,,,,44,note_on,,0.0,60.0,0.0,20300,52.86458333333333,192
4471,0.0,,,,53.0,,,,,0,note_on,,0.0,53.0,0.0,20300,52.86458333333333,192
4472,0.0,,,,57.0,,,,,0,note_on,,0.0,57.0,0.0,20300,52.86458333333333,192
4473,0.0,,,,60.0,,,,,52,note_on,,100.0,60.0,100.0,20352,53.0,192
4474,0.0,,,,53.0,,,,,0,note_on,,100.0,53.0,100.0,20352,53.0,192
4475,0.0,,,,57.0,,,,,0,note_on,,100.0,57.0,100.0,20352,53.0,192
4476,0.0,,,,60.0,,,,,44,note_on,,0.0,60.0,0.0,20396,53.11458333333333,192
4477,0.0,,,,57.0,,,,,0,note_on,,0.0,57.0,0.0,20396,53.11458333333333,192
4478,0.0,,,,53.0,,,,,0,note_on,,0.0,53.0,0.0,20396,53.11458333333333,192
4479,0.0,,,,53.0,,,,,52,note_on,,100.0,53.0,100.0,20448,53.25,192
4480,0.0,,,,57.0,,,,,0,note_on,,100.0,57.0,100.0,20448,53.25,192
4481,0.0,,,,60.0,,,,,0,note_on,,100.0,60.0,100.0,20448,53.25,192
4482,0.0,,,,60.0,,,,,44,note_on,,0.0,60.0,0.0,20492,53.36458333333333,192
4483,0.0,,,,57.0,,,,,0,note_on,,0.0,57.0,0.0,20492,53.36458333333333,192
4484,0.0,,,,53.0,,,,,0,note_on,,0.0,53.0,0.0,20492,53.36458333333333,192
4485,0.0,,,,53.0,,,,,52,note_on,,100.0,53.0,100.0,20544,53.5,192
4486,0.0,,,,60.0,,,,,0,note_on,,100.0,60.0,100.0,20544,53.5,192
4487,0.0,,,,57.0,,,,,0,note_on,,100.0,57.0,100.0,20544,53.5,192
4488,0.0,,,,60.0,,,,,44,note_on,,0.0,60.0,0.0,20588,53.61458333333333,192
4489,0.0,,,,53.0,,,,,0,note_on,,0.0,53.0,0.0,20588,53.61458333333333,192
4490,0.0,,,,57.0,,,,,0,note_on,,0.0,57.0,0.0,20588,53.61458333333333,192
4491,0.0,,,,48.0,,,,,52,note_on,,100.0,48.0,100.0,20640,53.75,192
4492,0.0,,,,48.0,,,,,44,note_on,,0.0,48.0,0.0,20684,53.86458333333333,192
4493,0.0,,,,55.0,,,,,52,note_on,,100.0,55.0,100.0,20736,54.0,192
4494,0.0,,,,60.0,,,,,0,note_on,,100.0,60.0,100.0,20736,54.0,192
4495,0.0,,,,64.0,,,,,0,note_on,,100.0,64.0,100.0,20736,54.0,192
4496,0.0,,,,64.0,,,,,44,note_on,,0.0,64.0,0.0,20780,54.11458333333333,192
4497,0.0,,,,60.0,,,,,0,note_on,,0.0,60.0,0.0,20780,54.11458333333333,192
4498,0.0,,,,55.0,,,,,0,note_on,,0.0,55.0,0.0,20780,54.11458333333333,192
4499,0.0,,,,64.0,,,,,52,note_on,,100.0,64.0,100.0,20832,54.25,192
4500,0.0,,,,60.0,,,,,0,note_on,,100.0,60.0,100.0,20832,54.25,192
4501,0.0,,,,55.0,,,,,0,note_on,,100.0,55.0,100.0,20832,54.25,192
4502,0.0,,,,60.0,,,,,44,note_on,,0.0,60.0,0.0,20876,54.36458333333333,192
4503,0.0,,,,55.0,,,,,0,note_on,,0.0,55.0,0.0,20876,54.36458333333333,192
4504,0.0,,,,64.0,,,,,0,note_on,,0.0,64.0,0.0,20876,54.36458333333333,192
4505,0.0,,,,55.0,,,,,52,note_on,,100.0,55.0,100.0,20928,54.5,192
4506,0.0,,,,60.0,,,,,0,note_on,,100.0,60.0,100.0,20928,54.5,192
4507,0.0,,,,64.0,,,,,0,note_on,,100.0,64.0,100.0,20928,54.5,192
4508,0.0,,,,60.0,,,,,44,note_on,,0.0,60.0,0.0,20972,54.61458333333333,192
4509,0.0,,,,55.0,,,,,0,note_on,,0.0,55.0,0.0,20972,54.61458333333333,192
4510,0.0,,,,64.0,,,,,0,note_on,,0.0,64.0,0.0,20972,54.61458333333333,192
4511,0.0,,,,55.0,,,,,52,note_on,,100.0,55.0,100.0,21024,54.75,192
4512,0.0,,,,64.0,,,,,0,note_on,,100.0,64.0,100.0,21024,54.75,192
4513,0.0,,,,60.0,,,,,0,note_on,,100.0,60.0,100.0,21024,54.75,192
4514,0.0,,,,64.0,,,,,44,note_on,,0.0,64.0,0.0,21068,54.86458333333333,192
4515,0.0,,,,55.0,,,,,0,note_on,,0.0,55.0,0.0,21068,54.86458333333333,192
4516,0.0,,,,60.0,,,,,0,note_on,,0.0,60.0,0.0,21068,54.86458333333333,192
4517,0.0,,,,64.0,,,,,52,note_on,,100.0,64.0,100.0,21120,55.0,192
4518,0.0,,,,60.0,,,,,0,note_on,,100.0,60.0,100.0,21120,55.0,192
4519,0.0,,,,55.0,,,,,0,note_on,,100.0,55.0,100.0,21120,55.0,192
4520,0.0,,,,55.0,,,,,44,note_on,,0.0,55.0,0.0,21164,55.11458333333333,192
4521,0.0,,,,60.0,,,,,0,note_on,,0.0,60.0,0.0,21164,55.11458333333333,192
4522,0.0,,,,64.0,,,,,0,note_on,,0.0,64.0,0.0,21164,55.11458333333333,192
4523,0.0,,,,60.0,,,,,52,note_on,,100.0,60.0,100.0,21216,55.25,192
4524,0.0,,,,55.0,,,,,0,note_on,,100.0,55.0,100.0,21216,55.25,192
4525,0.0,,,,64.0,,,,,0,note_on,,100.0,64.0,100.0,21216,55.25,192
4526,0.0,,,,55.0,,,,,44,note_on,,0.0,55.0,0.0,21260,55.36458333333333,192
4527,0.0,,,,64.0,,,,,0,note_on,,0.0,64.0,0.0,21260,55.36458333333333,192
4528,0.0,,,,60.0,,,,,0,note_on,,0.0,60.0,0.0,21260,55.36458333333333,192
4529,0.0,,,,64.0,,,,,52,note_on,,100.0,64.0,100.0,21312,55.5,192
4530,0.0,,,,60.0,,,,,0,note_on,,100.0,60.0,100.0,21312,55.5,192
4531,0.0,,,,55.0,,,,,0,note_on,,100.0,55.0,100.0,21312,55.5,192
4532,0.0,,,,60.0,,,,,44,note_on,,0.0,60.0,0.0,21356,55.61458333333333,192
4533,0.0,,,,64.0,,,,,0,note_on,,0.0,64.0,0.0,21356,55.61458333333333,192
4534,0.0,,,,55.0,,,,,0,note_on,,0.0,55.0,0.0,21356,55.61458333333333,192
4535,0.0,,,,60.0,,,,,52,note_on,,100.0,60.0,100.0,21408,55.75,192
4536,0.0,,,,55.0,,,,,0,note_on,,100.0,55.0,100.0,21408,55.75,192
4537,0.0,,,,64.0,,,,,0,note_on,,100.0,64.0,100.0,21408,55.75,192
4538,0.0,,,,60.0,,,,,44,note_on,,0.0,60.0,0.0,21452,55.86458333333333,192
4539,0.0,,,,64.0,,,,,0,note_on,,0.0,64.0,0.0,21452,55.86458333333333,192
4540,0.0,,,,55.0,,,,,0,note_on,,0.0,55.0,0.0,21452,55.86458333333333,192
4541,0.0,,,,59.0,,,,,52,note_on,,100.0,59.0,100.0,21504,56.0,192
4542,0.0,,,,62.0,,,,,0,note_on,,100.0,62.0,100.0,21504,56.0,192
4543,0.0,,,,55.0,,,,,0,note_on,,100.0,55.0,100.0,21504,56.0,192
4544,0.0,,,,62.0,,,,,44,note_on,,0.0,62.0,0.0,21548,56.11458333333333,192
4545,0.0,,,,55.0,,,,,0,note_on,,0.0,55.0,0.0,21548,56.11458333333333,192
4546,0.0,,,,59.0,,,,,0,note_on,,0.0,59.0,0.0,21548,56.11458333333333,192
4547,0.0,,,,62.0,,,,,52,note_on,,100.0,62.0,100.0,21600,56.25,192
4548,0.0,,,,55.0,,,,,0,note_on,,100.0,55.0,100.0,21600,56.25,192
4549,0.0,,,,59.0,,,,,0,note_on,,100.0,59.0,100.0,21600,56.25,192
4550,0.0,,,,59.0,,,,,44,note_on,,0.0,59.0,0.0,21644,56.36458333333333,192
4551,0.0,,,,55.0,,,,,0,note_on,,0.0,55.0,0.0,21644,56.36458333333333,192
4552,0.0,,,,62.0,,,,,0,note_on,,0.0,62.0,0.0,21644,56.36458333333333,192
4553,0.0,,,,62.0,,,,,52,note_on,,100.0,62.0,100.0,21696,56.5,192
4554,0.0,,,,59.0,,,,,0,note_on,,100.0,59.0,100.0,21696,56.5,192
4555,0.0,,,,55.0,,,,,0,note_on,,100.0,55.0,100.0,21696,56.5,192
4556,0.0,,,,59.0,,,,,44,note_on,,0.0,59.0,0.0,21740,56.61458333333333,192
4557,0.0,,,,55.0,,,,,0,note_on,,0.0,55.0,0.0,21740,56.61458333333333,192
4558,0.0,,,,62.0,,,,,0,note_on,,0.0,62.0,0.0,21740,56.61458333333333,192
4559,0.0,,,,62.0,,,,,52,note_on,,100.0,62.0,100.0,21792,56.75,192
4560,0.0,,,,59.0,,,,,0,note_on,,100.0,59.0,100.0,21792,56.75,192
4561,0.0,,,,55.0,,,,,0,note_on,,100.0,55.0,100.0,21792,56.75,192
4562,0.0,,,,59.0,,,,,44,note_on,,0.0,59.0,0.0,21836,56.86458333333333,192
4563,0.0,,,,62.0,,,,,0,note_on,,0.0,62.0,0.0,21836,56.86458333333333,192
4564,0.0,,,,55.0,,,,,0,note_on,,0.0,55.0,0.0,21836,56.86458333333333,192
4565,0.0,,,,59.0,,,,,52,note_on,,100.0,59.0,100.0,21888,57.0,192
4566,0.0,,,,55.0,,,,,0,note_on,,100.0,55.0,100.0,21888,57.0,192
4567,0.0,,,,62.0,,,,,0,note_on,,100.0,62.0,100.0,21888,57.0,192
4568,0.0,,,,55.0,,,,,44,note_on,,0.0,55.0,0.0,21932,57.11458333333333,192
4569,0.0,,,,62.0,,,,,0,note_on,,0.0,62.0,0.0,21932,57.11458333333333,192
4570,0.0,,,,59.0,,,,,0,note_on,,0.0,59.0,0.0,21932,57.11458333333333,192
4571,0.0,,,,59.0,,,,,52,note_on,,100.0,59.0,100.0,21984,57.25,192
4572,0.0,,,,62.0,,,,,0,note_on,,100.0,62.0,100.0,21984,57.25,192
4573,0.0,,,,55.0,,,,,0,note_on,,100.0,55.0,100.0,21984,57.25,192
4574,0.0,,,,59.0,,,,,44,note_on,,0.0,59.0,0.0,22028,57.36458333333333,192
4575,0.0,,,,62.0,,,,,0,note_on,,0.0,62.0,0.0,22028,57.36458333333333,192
4576,0.0,,,,55.0,,,,,0,note_on,,0.0,55.0,0.0,22028,57.36458333333333,192
4577,0.0,,,,55.0,,,,,52,note_on,,100.0,55.0,100.0,22080,57.5,192
4578,0.0,,,,62.0,,,,,0,note_on,,100.0,62.0,100.0,22080,57.5,192
4579,0.0,,,,59.0,,,,,0,note_on,,100.0,59.0,100.0,22080,57.5,192
4580,0.0,,,,59.0,,,,,44,note_on,,0.0,59.0,0.0,22124,57.61458333333333,192
4581,0.0,,,,62.0,,,,,0,note_on,,0.0,62.0,0.0,22124,57.61458333333333,192
4582,0.0,,,,55.0,,,,,0,note_on,,0.0,55.0,0.0,22124,57.61458333333333,192
4583,0.0,,,,59.0,,,,,52,note_on,,100.0,59.0,100.0,22176,57.75,192
4584,0.0,,,,55.0,,,,,0,note_on,,100.0,55.0,100.0,22176,57.75,192
4585,0.0,,,,62.0,,,,,0,note_on,,100.0,62.0,100.0,22176,57.75,192
4586,0.0,,,,55.0,,,,,44,note_on,,0.0,55.0,0.0,22220,57.86458333333333,192
4587,0.0,,,,59.0,,,,,0,note_on,,0.0,59.0,0.0,22220,57.86458333333333,192
4588,0.0,,,,62.0,,,,,0,note_on,,0.0,62.0,0.0,22220,57.86458333333333,192
4589,0.0,,,,55.0,,,,,52,note_on,,100.0,55.0,100.0,22272,58.0,192
4590,0.0,,,,62.0,,,,,0,note_on,,100.0,62.0,100.0,22272,58.0,192
4591,0.0,,,,59.0,,,,,0,note_on,,100.0,59.0,100.0,22272,58.0,192
4592,0.0,,,,55.0,,,,,44,note_on,,0.0,55.0,0.0,22316,58.11458333333333,192
4593,0.0,,,,59.0,,,,,0,note_on,,0.0,59.0,0.0,22316,58.11458333333333,192
4594,0.0,,,,62.0,,,,,0,note_on,,0.0,62.0,0.0,22316,58.11458333333333,192
4595,0.0,,,,59.0,,,,,52,note_on,,100.0,59.0,100.0,22368,58.25,192
4596,0.0,,,,62.0,,,,,0,note_on,,100.0,62.0,100.0,22368,58.25,192
4597,0.0,,,,55.0,,,,,0,note_on,,100.0,55.0,100.0,22368,58.25,192
4598,0.0,,,,55.0,,,,,44,note_on,,0.0,55.0,0.0,22412,58.36458333333333,192
4599,0.0,,,,62.0,,,,,0,note_on,,0.0,62.0,0.0,22412,58.36458333333333,192
4600,0.0,,,,59.0,,,,,0,note_on,,0.0,59.0,0.0,22412,58.36458333333333,192
4601,0.0,,,,62.0,,,,,52,note_on,,100.0,62.0,100.0,22464,58.5,192
4602,0.0,,,,59.0,,,,,0,note_on,,100.0,59.0,100.0,22464,58.5,192
4603,0.0,,,,55.0,,,,,0,note_on,,100.0,55.0,100.0,22464,58.5,192
4604,0.0,,,,59.0,,,,,44,note_on,,0.0,59.0,0.0,22508,58.61458333333333,192
4605,0.0,,,,62.0,,,,,0,note_on,,0.0,62.0,0.0,22508,58.61458333333333,192
4606,0.0,,,,55.0,,,,,0,note_on,,0.0,55.0,0.0,22508,58.61458333333333,192
4607,0.0,,,,62.0,,,,,52,note_on,,100.0,62.0,100.0,22560,58.75,192
4608,0.0,,,,55.0,,,,,0,note_on,,100.0,55.0,100.0,22560,58.75,192
4609,0.0,,,,59.0,,,,,0,note_on,,100.0,59.0,100.0,22560,58.75,192
4610,0.0,,,,55.0,,,,,44,note_on,,0.0,55.0,0.0,22604,58.86458333333333,192
4611,0.0,,,,62.0,,,,,0,note_on,,0.0,62.0,0.0,22604,58.86458333333333,192
4612,0.0,,,,59.0,,,,,0,note_on,,0.0,59.0,0.0,22604,58.86458333333333,192
4613,0.0,,,,62.0,,,,,52,note_on,,100.0,62.0,100.0,22656,59.0,192
4614,0.0,,,,59.0,,,,,0,note_on,,100.0,59.0,100.0,22656,59.0,192
4615,0.0,,,,55.0,,,,,0,note_on,,100.0,55.0,100.0,22656,59.0,192
4616,0.0,,,,59.0,,,,,44,note_on,,0.0,59.0,0.0,22700,59.11458333333333,192
4617,0.0,,,,55.0,,,,,0,note_on,,0.0,55.0,0.0,22700,59.11458333333333,192
4618,0.0,,,,62.0,,,,,0,note_on,,0.0,62.0,0.0,22700,59.11458333333333,192
4619,0.0,,,,55.0,,,,,52,note_on,,100.0,55.0,100.0,22752,59.25,192
4620,0.0,,,,62.0,,,,,0,note_on,,100.0,62.0,100.0,22752,59.25,192
4621,0.0,,,,59.0,,,,,0,note_on,,100.0,59.0,100.0,22752,59.25,192
4622,0.0,,,,55.0,,,,,44,note_on,,0.0,55.0,0.0,22796,59.36458333333333,192
4623,0.0,,,,62.0,,,,,0,note_on,,0.0,62.0,0.0,22796,59.36458333333333,192
4624,0.0,,,,59.0,,,,,0,note_on,,0.0,59.0,0.0,22796,59.36458333333333,192
4625,0.0,,,,55.0,,,,,52,note_on,,100.0,55.0,100.0,22848,59.5,192
4626,0.0,,,,59.0,,,,,0,note_on,,100.0,59.0,100.0,22848,59.5,192
4627,0.0,,,,62.0,,,,,0,note_on,,100.0,62.0,100.0,22848,59.5,192
4628,0.0,,,,62.0,,,,,44,note_on,,0.0,62.0,0.0,22892,59.61458333333333,192
4629,0.0,,,,59.0,,,,,0,note_on,,0.0,59.0,0.0,22892,59.61458333333333,192
4630,0.0,,,,55.0,,,,,0,note_on,,0.0,55.0,0.0,22892,59.61458333333333,192
4631,0.0,,,,59.0,,,,,52,note_on,,100.0,59.0,100.0,22944,59.75,192
4632,0.0,,,,62.0,,,,,0,note_on,,100.0,62.0,100.0,22944,59.75,192
4633,0.0,,,,55.0,,,,,0,note_on,,100.0,55.0,100.0,22944,59.75,192
4634,0.0,,,,59.0,,,,,44,note_on,,0.0,59.0,0.0,22988,59.86458333333333,192
4635,0.0,,,,62.0,,,,,0,note_on,,0.0,62.0,0.0,22988,59.86458333333333,192
4636,0.0,,,,55.0,,,,,0,note_on,,0.0,55.0,0.0,22988,59.86458333333333,192
4637,0.0,,,,60.0,,,,,52,note_on,,100.0,60.0,100.0,23040,60.0,192
4638,0.0,,,,53.0,,,,,0,note_on,,100.0,53.0,100.0,23040,60.0,192
4639,0.0,,,,57.0,,,,,0,note_on,,100.0,57.0,100.0,23040,60.0,192
4640,0.0,,,,60.0,,,,,44,note_on,,0.0,60.0,0.0,23084,60.11458333333333,192
4641,0.0,,,,53.0,,,,,0,note_on,,0.0,53.0,0.0,23084,60.11458333333333,192
4642,0.0,,,,57.0,,,,,0,note_on,,0.0,57.0,0.0,23084,60.11458333333333,192
4643,0.0,,,,60.0,,,,,52,note_on,,100.0,60.0,100.0,23136,60.25,192
4644,0.0,,,,57.0,,,,,0,note_on,,100.0,57.0,100.0,23136,60.25,192
4645,0.0,,,,53.0,,,,,0,note_on,,100.0,53.0,100.0,23136,60.25,192
4646,0.0,,,,57.0,,,,,44,note_on,,0.0,57.0,0.0,23180,60.36458333333333,192
4647,0.0,,,,53.0,,,,,0,note_on,,0.0,53.0,0.0,23180,60.36458333333333,192
4648,0.0,,,,60.0,,,,,0,note_on,,0.0,60.0,0.0,23180,60.36458333333333,192
4649,0.0,,,,60.0,,,,,52,note_on,,100.0,60.0,100.0,23232,60.5,192
4650,0.0,,,,57.0,,,,,0,note_on,,100.0,57.0,100.0,23232,60.5,192
4651,0.0,,,,53.0,,,,,0,note_on,,100.0,53.0,100.0,23232,60.5,192
4652,0.0,,,,60.0,,,,,44,note_on,,0.0,60.0,0.0,23276,60.61458333333333,192
4653,0.0,,,,57.0,,,,,0,note_on,,0.0,57.0,0.0,23276,60.61458333333333,192
4654,0.0,,,,53.0,,,,,0,note_on,,0.0,53.0,0.0,23276,60.61458333333333,192
4655,0.0,,,,57.0,,,,,52,note_on,,100.0,57.0,100.0,23328,60.75,192
4656,0.0,,,,53.0,,,,,0,note_on,,100.0,53.0,100.0,23328,60.75,192
4657,0.0,,,,60.0,,,,,0,note_on,,100.0,60.0,100.0,23328,60.75,192
4658,0.0,,,,57.0,,,,,44,note_on,,0.0,57.0,0.0,23372,60.86458333333333,192
4659,0.0,,,,53.0,,,,,0,note_on,,0.0,53.0,0.0,23372,60.86458333333333,192
4660,0.0,,,,60.0,,,,,0,note_on,,0.0,60.0,0.0,23372,60.86458333333333,192
4661,0.0,,,,53.0,,,,,52,note_on,,100.0,53.0,100.0,23424,61.0,192
4662,0.0,,,,57.0,,,,,0,note_on,,100.0,57.0,100.0,23424,61.0,192
4663,0.0,,,,60.0,,,,,0,note_on,,100.0,60.0,100.0,23424,61.0,192
4664,0.0,,,,57.0,,,,,44,note_on,,0.0,57.0,0.0,23468,61.11458333333333,192
4665,0.0,,,,53.0,,,,,0,note_on,,0.0,53.0,0.0,23468,61.11458333333333,192
4666,0.0,,,,60.0,,,,,0,note_on,,0.0,60.0,0.0,23468,61.11458333333333,192
4667,0.0,,,,53.0,,,,,52,note_on,,100.0,53.0,100.0,23520,61.25,192
4668,0.0,,,,57.0,,,,,0,note_on,,100.0,57.0,100.0,23520,61.25,192
4669,0.0,,,,60.0,,,,,0,note_on,,100.0,60.0,100.0,23520,61.25,192
4670,0.0,,,,57.0,,,,,44,note_on,,0.0,57.0,0.0,23564,61.36458333333333,192
4671,0.0,,,,60.0,,,,,0,note_on,,0.0,60.0,0.0,23564,61.36458333333333,192
4672,0.0,,,,53.0,,,,,0,note_on,,0.0,53.0,0.0,23564,61.36458333333333,192
4673,0.0,,,,53.0,,,,,52,note_on,,100.0,53.0,100.0,23616,61.5,192
4674,0.0,,,,60.0,,,,,0,note_on,,100.0,60.0,100.0,23616,61.5,192
4675,0.0,,,,57.0,,,,,0,note_on,,100.0,57.0,100.0,23616,61.5,192
4676,0.0,,,,60.0,,,,,44,note_on,,0.0,60.0,0.0,23660,61.61458333333333,192
4677,0.0,,,,57.0,,,,,0,note_on,,0.0,57.0,0.0,23660,61.61458333333333,192
4678,0.0,,,,53.0,,,,,0,note_on,,0.0,53.0,0.0,23660,61.61458333333333,192
4679,0.0,,,,48.0,,,,,52,note_on,,100.0,48.0,100.0,23712,61.75,192
4680,0.0,,,,48.0,,,,,44,note_on,,0.0,48.0,0.0,23756,61.86458333333333,192
4681,0.0,,,,64.0,,,,,52,note_on,,100.0,64.0,100.0,23808,62.0,192
4682,0.0,,,,55.0,,,,,0,note_on,,100.0,55.0,100.0,23808,62.0,192
4683,0.0,,,,60.0,,,,,0,note_on,,100.0,60.0,100.0,23808,62.0,192
4684,0.0,,,,64.0,,,,,44,note_on,,0.0,64.0,0.0,23852,62.11458333333333,192
4685,0.0,,,,55.0,,,,,0,note_on,,0.0,55.0,0.0,23852,62.11458333333333,192
4686,0.0,,,,60.0,,,,,0,note_on,,0.0,60.0,0.0,23852,62.11458333333333,192
4687,0.0,,,,64.0,,,,,52,note_on,,100.0,64.0,100.0,23904,62.25,192
4688,0.0,,,,55.0,,,,,0,note_on,,100.0,55.0,100.0,23904,62.25,192
4689,0.0,,,,60.0,,,,,0,note_on,,100.0,60.0,100.0,23904,62.25,192
4690,0.0,,,,55.0,,,,,44,note_on,,0.0,55.0,0.0,23948,62.36458333333333,192
4691,0.0,,,,64.0,,,,,0,note_on,,0.0,64.0,0.0,23948,62.36458333333333,192
4692,0.0,,,,60.0,,,,,0,note_on,,0.0,60.0,0.0,23948,62.36458333333333,192
4693,0.0,,,,55.0,,,,,52,note_on,,100.0,55.0,100.0,24000,62.5,192
4694,0.0,,,,60.0,,,,,0,note_on,,100.0,60.0,100.0,24000,62.5,192
4695,0.0,,,,64.0,,,,,0,note_on,,100.0,64.0,100.0,24000,62.5,192
4696,0.0,,,,55.0,,,,,44,note_on,,0.0,55.0,0.0,24044,62.61458333333333,192
4697,0.0,,,,60.0,,,,,0,note_on,,0.0,60.0,0.0,24044,62.61458333333333,192
4698,0.0,,,,64.0,,,,,0,note_on,,0.0,64.0,0.0,24044,62.61458333333333,192
4699,0.0,,,,60.0,,,,,52,note_on,,100.0,60.0,100.0,24096,62.75,192
4700,0.0,,,,64.0,,,,,0,note_on,,100.0,64.0,100.0,24096,62.75,192
4701,0.0,,,,55.0,,,,,0,note_on,,100.0,55.0,100.0,24096,62.75,192
4702,0.0,,,,64.0,,,,,44,note_on,,0.0,64.0,0.0,24140,62.86458333333333,192
4703,0.0,,,,55.0,,,,,0,note_on,,0.0,55.0,0.0,24140,62.86458333333333,192
4704,0.0,,,,60.0,,,,,0,note_on,,0.0,60.0,0.0,24140,62.86458333333333,192
4705,0.0,,,,60.0,,,,,52,note_on,,100.0,60.0,100.0,24192,63.0,192
4706,0.0,,,,64.0,,,,,0,note_on,,100.0,64.0,100.0,24192,63.0,192
4707,0.0,,,,55.0,,,,,0,note_on,,100.0,55.0,100.0,24192,63.0,192
4708,0.0,,,,60.0,,,,,44,note_on,,0.0,60.0,0.0,24236,63.11458333333333,192
4709,0.0,,,,64.0,,,,,0,note_on,,0.0,64.0,0.0,24236,63.11458333333333,192
4710,0.0,,,,55.0,,,,,0,note_on,,0.0,55.0,0.0,24236,63.11458333333333,192
4711,0.0,,,,60.0,,,,,52,note_on,,100.0,60.0,100.0,24288,63.25,192
4712,0.0,,,,55.0,,,,,0,note_on,,100.0,55.0,100.0,24288,63.25,192
4713,0.0,,,,64.0,,,,,0,note_on,,100.0,64.0,100.0,24288,63.25,192
4714,0.0,,,,64.0,,,,,44,note_on,,0.0,64.0,0.0,24332,63.36458333333333,192
4715,0.0,,,,55.0,,,,,0,note_on,,0.0,55.0,0.0,24332,63.36458333333333,192
4716,0.0,,,,60.0,,,,,0,note_on,,0.0,60.0,0.0,24332,63.36458333333333,192
4717,0.0,,,,60.0,,,,,52,note_on,,100.0,60.0,100.0,24384,63.5,192
4718,0.0,,,,55.0,,,,,0,note_on,,100.0,55.0,100.0,24384,63.5,192
4719,0.0,,,,64.0,,,,,0,note_on,,100.0,64.0,100.0,24384,63.5,192
4720,0.0,,,,60.0,,,,,44,note_on,,0.0,60.0,0.0,24428,63.61458333333333,192
4721,0.0,,,,55.0,,,,,0,note_on,,0.0,55.0,0.0,24428,63.61458333333333,192
4722,0.0,,,,64.0,,,,,0,note_on,,0.0,64.0,0.0,24428,63.61458333333333,192
4723,0.0,,,,64.0,,,,,52,note_on,,100.0,64.0,100.0,24480,63.75,192
4724,0.0,,,,55.0,,,,,0,note_on,,100.0,55.0,100.0,24480,63.75,192
4725,0.0,,,,60.0,,,,,0,note_on,,100.0,60.0,100.0,24480,63.75,192
4726,0.0,,,,60.0,,,,,44,note_on,,0.0,60.0,0.0,24524,63.86458333333333,192
4727,0.0,,,,55.0,,,,,0,note_on,,0.0,55.0,0.0,24524,63.86458333333333,192
4728,0.0,,,,64.0,,,,,0,note_on,,0.0,64.0,0.0,24524,63.86458333333333,192
4729,0.0,,,,62.0,,,,,52,note_on,,100.0,62.0,100.0,24576,64.0,192
4730,0.0,,,,59.0,,,,,0,note_on,,100.0,59.0,100.0,24576,64.0,192
4731,0.0,,,,55.0,,,,,0,note_on,,100.0,55.0,100.0,24576,64.0,192
4732,0.0,,,,62.0,,,,,44,note_on,,0.0,62.0,0.0,24620,64.11458333333333,192
4733,0.0,,,,59.0,,,,,0,note_on,,0.0,59.0,0.0,24620,64.11458333333333,192
4734,0.0,,,,55.0,,,,,0,note_on,,0.0,55.0,0.0,24620,64.11458333333333,192
4735,0.0,,,,55.0,,,,,52,note_on,,100.0,55.0,100.0,24672,64.25,192
4736,0.0,,,,62.0,,,,,0,note_on,,100.0,62.0,100.0,24672,64.25,192
4737,0.0,,,,59.0,,,,,0,note_on,,100.0,59.0,100.0,24672,64.25,192
4738,0.0,,,,59.0,,,,,44,note_on,,0.0,59.0,0.0,24716,64.36458333333333,192
4739,0.0,,,,62.0,,,,,0,note_on,,0.0,62.0,0.0,24716,64.36458333333333,192
4740,0.0,,,,55.0,,,,,0,note_on,,0.0,55.0,0.0,24716,64.36458333333333,192
4741,0.0,,,,55.0,,,,,52,note_on,,100.0,55.0,100.0,24768,64.5,192
4742,0.0,,,,62.0,,,,,0,note_on,,100.0,62.0,100.0,24768,64.5,192
4743,0.0,,,,59.0,,,,,0,note_on,,100.0,59.0,100.0,24768,64.5,192
4744,0.0,,,,55.0,,,,,44,note_on,,0.0,55.0,0.0,24812,64.61458333333333,192
4745,0.0,,,,62.0,,,,,0,note_on,,0.0,62.0,0.0,24812,64.61458333333333,192
4746,0.0,,,,59.0,,,,,0,note_on,,0.0,59.0,0.0,24812,64.61458333333333,192
4747,0.0,,,,59.0,,,,,52,note_on,,100.0,59.0,100.0,24864,64.75,192
4748,0.0,,,,55.0,,,,,0,note_on,,100.0,55.0,100.0,24864,64.75,192
4749,0.0,,,,62.0,,,,,0,note_on,,100.0,62.0,100.0,24864,64.75,192
4750,0.0,,,,62.0,,,,,44,note_on,,0.0,62.0,0.0,24908,64.86458333333333,192
4751,0.0,,,,55.0,,,,,0,note_on,,0.0,55.0,0.0,24908,64.86458333333333,192
4752,0.0,,,,59.0,,,,,0,note_on,,0.0,59.0,0.0,24908,64.86458333333333,192
4753,0.0,,,,59.0,,,,,52,note_on,,100.0,59.0,100.0,24960,65.0,192
4754,0.0,,,,62.0,,,,,0,note_on,,100.0,62.0,100.0,24960,65.0,192
4755,0.0,,,,55.0,,,,,0,note_on,,100.0,55.0,100.0,24960,65.0,192
4756,0.0,,,,59.0,,,,,44,note_on,,0.0,59.0,0.0,25004,65.11458333333333,192
4757,0.0,,,,62.0,,,,,0,note_on,,0.0,62.0,0.0,25004,65.11458333333333,192
4758,0.0,,,,55.0,,,,,0,note_on,,0.0,55.0,0.0,25004,65.11458333333333,192
4759,0.0,,,,55.0,,,,,52,note_on,,100.0,55.0,100.0,25056,65.25,192
4760,0.0,,,,62.0,,,,,0,note_on,,100.0,62.0,100.0,25056,65.25,192
4761,0.0,,,,59.0,,,,,0,note_on,,100.0,59.0,100.0,25056,65.25,192
4762,0.0,,,,59.0,,,,,44,note_on,,0.0,59.0,0.0,25100,65.36458333333333,192
4763,0.0,,,,55.0,,,,,0,note_on,,0.0,55.0,0.0,25100,65.36458333333333,192
4764,0.0,,,,62.0,,,,,0,note_on,,0.0,62.0,0.0,25100,65.36458333333333,192
4765,0.0,,,,55.0,,,,,52,note_on,,100.0,55.0,100.0,25152,65.5,192
4766,0.0,,,,62.0,,,,,0,note_on,,100.0,62.0,100.0,25152,65.5,192
4767,0.0,,,,59.0,,,,,0,note_on,,100.0,59.0,100.0,25152,65.5,192
4768,0.0,,,,55.0,,,,,44,note_on,,0.0,55.0,0.0,25196,65.61458333333333,192
4769,0.0,,,,62.0,,,,,0,note_on,,0.0,62.0,0.0,25196,65.61458333333333,192
4770,0.0,,,,59.0,,,,,0,note_on,,0.0,59.0,0.0,25196,65.61458333333333,192
4771,0.0,,,,55.0,,,,,52,note_on,,100.0,55.0,100.0,25248,65.75,192
4772,0.0,,,,59.0,,,,,0,note_on,,100.0,59.0,100.0,25248,65.75,192
4773,0.0,,,,62.0,,,,,0,note_on,,100.0,62.0,100.0,25248,65.75,192
4774,0.0,,,,59.0,,,,,44,note_on,,0.0,59.0,0.0,25292,65.86458333333333,192
4775,0.0,,,,55.0,,,,,0,note_on,,0.0,55.0,0.0,25292,65.86458333333333,192
4776,0.0,,,,62.0,,,,,0,note_on,,0.0,62.0,0.0,25292,65.86458333333333,192
4777,0.0,,,,55.0,,,,,52,note_on,,100.0,55.0,100.0,25344,66.0,192
4778,0.0,,,,62.0,,,,,0,note_on,,100.0,62.0,100.0,25344,66.0,192
4779,0.0,,,,59.0,,,,,0,note_on,,100.0,59.0,100.0,25344,66.0,192
4780,0.0,,,,55.0,,,,,44,note_on,,0.0,55.0,0.0,25388,66.11458333333333,192
4781,0.0,,,,62.0,,,,,0,note_on,,0.0,62.0,0.0,25388,66.11458333333333,192
4782,0.0,,,,59.0,,,,,0,note_on,,0.0,59.0,0.0,25388,66.11458333333333,192
4783,0.0,,,,55.0,,,,,52,note_on,,100.0,55.0,100.0,25440,66.25,192
4784,0.0,,,,59.0,,,,,0,note_on,,100.0,59.0,100.0,25440,66.25,192
4785,0.0,,,,62.0,,,,,0,note_on,,100.0,62.0,100.0,25440,66.25,192
4786,0.0,,,,55.0,,,,,44,note_on,,0.0,55.0,0.0,25484,66.36458333333333,192
4787,0.0,,,,59.0,,,,,0,note_on,,0.0,59.0,0.0,25484,66.36458333333333,192
4788,0.0,,,,62.0,,,,,0,note_on,,0.0,62.0,0.0,25484,66.36458333333333,192
4789,0.0,,,,55.0,,,,,52,note_on,,100.0,55.0,100.0,25536,66.5,192
4790,0.0,,,,59.0,,,,,0,note_on,,100.0,59.0,100.0,25536,66.5,192
4791,0.0,,,,62.0,,,,,0,note_on,,100.0,62.0,100.0,25536,66.5,192
4792,0.0,,,,55.0,,,,,44,note_on,,0.0,55.0,0.0,25580,66.61458333333333,192
4793,0.0,,,,59.0,,,,,0,note_on,,0.0,59.0,0.0,25580,66.61458333333333,192
4794,0.0,,,,62.0,,,,,0,note_on,,0.0,62.0,0.0,25580,66.61458333333333,192
4795,0.0,,,,62.0,,,,,52,note_on,,100.0,62.0,100.0,25632,66.75,192
4796,0.0,,,,55.0,,,,,0,note_on,,100.0,55.0,100.0,25632,66.75,192
4797,0.0,,,,59.0,,,,,0,note_on,,100.0,59.0,100.0,25632,66.75,192
4798,0.0,,,,62.0,,,,,44,note_on,,0.0,62.0,0.0,25676,66.86458333333333,192
4799,0.0,,,,55.0,,,,,0,note_on,,0.0,55.0,0.0,25676,66.86458333333333,192
4800,0.0,,,,59.0,,,,,0,note_on,,0.0,59.0,0.0,25676,66.86458333333333,192
4801,0.0,,,,59.0,,,,,52,note_on,,100.0,59.0,100.0,25728,67.0,192
4802,0.0,,,,55.0,,,,,0,note_on,,100.0,55.0,100.0,25728,67.0,192
4803,0.0,,,,62.0,,,,,0,note_on,,100.0,62.0,100.0,25728,67.0,192
4804,0.0,,,,59.0,,,,,44,note_on,,0.0,59.0,0.0,25772,67.11458333333333,192
4805,0.0,,,,55.0,,,,,0,note_on,,0.0,55.0,0.0,25772,67.11458333333333,192
4806,0.0,,,,62.0,,,,,0,note_on,,0.0,62.0,0.0,25772,67.11458333333333,192
4807,0.0,,,,59.0,,,,,52,note_on,,100.0,59.0,100.0,25824,67.25,192
4808,0.0,,,,62.0,,,,,0,note_on,,100.0,62.0,100.0,25824,67.25,192
4809,0.0,,,,55.0,,,,,0,note_on,,100.0,55.0,100.0,25824,67.25,192
4810,0.0,,,,59.0,,,,,44,note_on,,0.0,59.0,0.0,25868,67.36458333333333,192
4811,0.0,,,,62.0,,,,,0,note_on,,0.0,62.0,0.0,25868,67.36458333333333,192
4812,0.0,,,,55.0,,,,,0,note_on,,0.0,55.0,0.0,25868,67.36458333333333,192
4813,0.0,,,,62.0,,,,,52,note_on,,100.0,62.0,100.0,25920,67.5,192
4814,0.0,,,,59.0,,,,,0,note_on,,100.0,59.0,100.0,25920,67.5,192
4815,0.0,,,,55.0,,,,,0,note_on,,100.0,55.0,100.0,25920,67.5,192
4816,0.0,,,,62.0,,,,,44,note_on,,0.0,62.0,0.0,25964,67.61458333333333,192
4817,0.0,,,,59.0,,,,,0,note_on,,0.0,59.0,0.0,25964,67.61458333333333,192
4818,0.0,,,,55.0,,,,,0,note_on,,0.0,55.0,0.0,25964,67.61458333333333,192
4819,0.0,,,,62.0,,,,,52,note_on,,100.0,62.0,100.0,26016,67.75,192
4820,0.0,,,,55.0,,,,,0,note_on,,100.0,55.0,100.0,26016,67.75,192
4821,0.0,,,,59.0,,,,,0,note_on,,100.0,59.0,100.0,26016,67.75,192
4822,0.0,,,,59.0,,,,,44,note_on,,0.0,59.0,0.0,26060,67.86458333333333,192
4823,0.0,,,,62.0,,,,,0,note_on,,0.0,62.0,0.0,26060,67.86458333333333,192
4824,0.0,,,,55.0,,,,,0,note_on,,0.0,55.0,0.0,26060,67.86458333333333,192
4825,0.0,,,,57.0,,,,,52,note_on,,100.0,57.0,100.0,26112,68.0,192
4826,0.0,,,,53.0,,,,,0,note_on,,100.0,53.0,100.0,26112,68.0,192
4827,0.0,,,,60.0,,,,,0,note_on,,100.0,60.0,100.0,26112,68.0,192
4828,0.0,,,,57.0,,,,,44,note_on,,0.0,57.0,0.0,26156,68.11458333333333,192
4829,0.0,,,,53.0,,,,,0,note_on,,0.0,53.0,0.0,26156,68.11458333333333,192
4830,0.0,,,,60.0,,,,,0,note_on,,0.0,60.0,0.0,26156,68.11458333333333,192
4831,0.0,,,,53.0,,,,,52,note_on,,100.0,53.0,100.0,26208,68.25,192
4832,0.0,,,,60.0,,,,,0,note_on,,100.0,60.0,100.0,26208,68.25,192
4833,0.0,,,,57.0,,,,,0,note_on,,100.0,57.0,100.0,26208,68.25,192
4834,0.0,,,,57.0,,,,,44,note_on,,0.0,57.0,0.0,26252,68.36458333333333,192
4835,0.0,,,,60.0,,,,,0,note_on,,0.0,60.0,0.0,26252,68.36458333333333,192
4836,0.0,,,,53.0,,,,,0,note_on,,0.0,53.0,0.0,26252,68.36458333333333,192
4837,0.0,,,,57.0,,,,,52,note_on,,100.0,57.0,100.0,26304,68.5,192
4838,0.0,,,,53.0,,,,,0,note_on,,100.0,53.0,100.0,26304,68.5,192
4839,0.0,,,,60.0,,,,,0,note_on,,100.0,60.0,100.0,26304,68.5,192
4840,0.0,,,,57.0,,,,,44,note_on,,0.0,57.0,0.0,26348,68.61458333333333,192
4841,0.0,,,,53.0,,,,,0,note_on,,0.0,53.0,0.0,26348,68.61458333333333,192
4842,0.0,,,,60.0,,,,,0,note_on,,0.0,60.0,0.0,26348,68.61458333333333,192
4843,0.0,,,,57.0,,,,,52,note_on,,100.0,57.0,100.0,26400,68.75,192
4844,0.0,,,,60.0,,,,,0,note_on,,100.0,60.0,100.0,26400,68.75,192
4845,0.0,,,,53.0,,,,,0,note_on,,100.0,53.0,100.0,26400,68.75,192
4846,0.0,,,,53.0,,,,,44,note_on,,0.0,53.0,0.0,26444,68.86458333333333,192
4847,0.0,,,,60.0,,,,,0,note_on,,0.0,60.0,0.0,26444,68.86458333333333,192
4848,0.0,,,,57.0,,,,,0,note_on,,0.0,57.0,0.0,26444,68.86458333333333,192
4849,0.0,,,,60.0,,,,,52,note_on,,100.0,60.0,100.0,26496,69.0,192
4850,0.0,,,,53.0,,,,,0,note_on,,100.0,53.0,100.0,26496,69.0,192
4851,0.0,,,,57.0,,,,,0,note_on,,100.0,57.0,100.0,26496,69.0,192
4852,0.0,,,,60.0,,,,,44,note_on,,0.0,60.0,0.0,26540,69.11458333333333,192
4853,0.0,,,,53.0,,,,,0,note_on,,0.0,53.0,0.0,26540,69.11458333333333,192
4854,0.0,,,,57.0,,,,,0,note_on,,0.0,57.0,0.0,26540,69.11458333333333,192
4855,0.0,,,,53.0,,,,,52,note_on,,100.0,53.0,100.0,26592,69.25,192
4856,0.0,,,,60.0,,,,,0,note_on,,100.0,60.0,100.0,26592,69.25,192
4857,0.0,,,,57.0,,,,,0,note_on,,100.0,57.0,100.0,26592,69.25,192
4858,0.0,,,,60.0,,,,,44,note_on,,0.0,60.0,0.0,26636,69.36458333333333,192
4859,0.0,,,,53.0,,,,,0,note_on,,0.0,53.0,0.0,26636,69.36458333333333,192
4860,0.0,,,,57.0,,,,,0,note_on,,0.0,57.0,0.0,26636,69.36458333333333,192
4861,0.0,,,,57.0,,,,,52,note_on,,100.0,57.0,100.0,26688,69.5,192
4862,0.0,,,,53.0,,,,,0,note_on,,100.0,53.0,100.0,26688,69.5,192
4863,0.0,,,,60.0,,,,,0,note_on,,100.0,60.0,100.0,26688,69.5,192
4864,0.0,,,,57.0,,,,,44,note_on,,0.0,57.0,0.0,26732,69.61458333333333,192
4865,0.0,,,,60.0,,,,,0,note_on,,0.0,60.0,0.0,26732,69.61458333333333,192
4866,0.0,,,,53.0,,,,,0,note_on,,0.0,53.0,0.0,26732,69.61458333333333,192
4867,0.0,,,,48.0,,,,,52,note_on,,100.0,48.0,100.0,26784,69.75,192
4868,0.0,,,,48.0,,,,,44,note_on,,0.0,48.0,0.0,26828,69.86458333333333,192
4869,0.0,,,,55.0,,,,,52,note_on,,100.0,55.0,100.0,26880,70.0,192
4870,0.0,,,,60.0,,,,,0,note_on,,100.0,60.0,100.0,26880,70.0,192
4871,0.0,,,,64.0,,,,,0,note_on,,100.0,64.0,100.0,26880,70.0,192
4872,0.0,,,,55.0,,,,,44,note_on,,0.0,55.0,0.0,26924,70.11458333333333,192
4873,0.0,,,,64.0,,,,,0,note_on,,0.0,64.0,0.0,26924,70.11458333333333,192
4874,0.0,,,,60.0,,,,,0,note_on,,0.0,60.0,0.0,26924,70.11458333333333,192
4875,0.0,,,,55.0,,,,,52,note_on,,100.0,55.0,100.0,26976,70.25,192
4876,0.0,,,,64.0,,,,,0,note_on,,100.0,64.0,100.0,26976,70.25,192
4877,0.0,,,,60.0,,,,,0,note_on,,100.0,60.0,100.0,26976,70.25,192
4878,0.0,,,,55.0,,,,,44,note_on,,0.0,55.0,0.0,27020,70.36458333333333,192
4879,0.0,,,,64.0,,,,,0,note_on,,0.0,64.0,0.0,27020,70.36458333333333,192
4880,0.0,,,,60.0,,,,,0,note_on,,0.0,60.0,0.0,27020,70.36458333333333,192
4881,0.0,,,,64.0,,,,,52,note_on,,100.0,64.0,100.0,27072,70.5,192
4882,0.0,,,,60.0,,,,,0,note_on,,100.0,60.0,100.0,27072,70.5,192
4883,0.0,,,,55.0,,,,,0,note_on,,100.0,55.0,100.0,27072,70.5,192
4884,0.0,,,,55.0,,,,,44,note_on,,0.0,55.0,0.0,27116,70.61458333333333,192
4885,0.0,,,,64.0,,,,,0,note_on,,0.0,64.0,0.0,27116,70.61458333333333,192
4886,0.0,,,,60.0,,,,,0,note_on,,0.0,60.0,0.0,27116,70.61458333333333,192
4887,0.0,,,,64.0,,,,,52,note_on,,100.0,64.0,100.0,27168,70.75,192
4888,0.0,,,,60.0,,,,,0,note_on,,100.0,60.0,100.0,27168,70.75,192
4889,0.0,,,,55.0,,,,,0,note_on,,100.0,55.0,100.0,27168,70.75,192
4890,0.0,,,,64.0,,,,,44,note_on,,0.0,64.0,0.0,27212,70.86458333333333,192
4891,0.0,,,,60.0,,,,,0,note_on,,0.0,60.0,0.0,27212,70.86458333333333,192
4892,0.0,,,,55.0,,,,,0,note_on,,0.0,55.0,0.0,27212,70.86458333333333,192
4893,0.0,,,,64.0,,,,,52,note_on,,100.0,64.0,100.0,27264,71.0,192
4894,0.0,,,,60.0,,,,,0,note_on,,100.0,60.0,100.0,27264,71.0,192
4895,0.0,,,,55.0,,,,,0,note_on,,100.0,55.0,100.0,27264,71.0,192
4896,0.0,,,,60.0,,,,,44,note_on,,0.0,60.0,0.0,27308,71.11458333333333,192
4897,0.0,,,,64.0,,,,,0,note_on,,0.0,64.0,0.0,27308,71.11458333333333,192
4898,0.0,,,,55.0,,,,,0,note_on,,0.0,55.0,0.0,27308,71.11458333333333,192
4899,0.0,,,,64.0,,,,,52,note_on,,100.0,64.0,100.0,27360,71.25,192
4900,0.0,,,,60.0,,,,,0,note_on,,100.0,60.0,100.0,27360,71.25,192
4901,0.0,,,,55.0,,,,,0,note_on,,100.0,55.0,100.0,27360,71.25,192
4902,0.0,,,,64.0,,,,,44,note_on,,0.0,64.0,0.0,27404,71.36458333333333,192
4903,0.0,,,,60.0,,,,,0,note_on,,0.0,60.0,0.0,27404,71.36458333333333,192
4904,0.0,,,,55.0,,,,,0,note_on,,0.0,55.0,0.0,27404,71.36458333333333,192
4905,0.0,,,,55.0,,,,,52,note_on,,100.0,55.0,100.0,27456,71.5,192
4906,0.0,,,,60.0,,,,,0,note_on,,100.0,60.0,100.0,27456,71.5,192
4907,0.0,,,,64.0,,,,,0,note_on,,100.0,64.0,100.0,27456,71.5,192
4908,0.0,,,,60.0,,,,,44,note_on,,0.0,60.0,0.0,27500,71.61458333333333,192
4909,0.0,,,,55.0,,,,,0,note_on,,0.0,55.0,0.0,27500,71.61458333333333,192
4910,0.0,,,,64.0,,,,,0,note_on,,0.0,64.0,0.0,27500,71.61458333333333,192
4911,0.0,,,,64.0,,,,,52,note_on,,100.0,64.0,100.0,27552,71.75,192
4912,0.0,,,,60.0,,,,,0,note_on,,100.0,60.0,100.0,27552,71.75,192
4913,0.0,,,,55.0,,,,,0,note_on,,100.0,55.0,100.0,27552,71.75,192
4914,0.0,,,,64.0,,,,,44,note_on,,0.0,64.0,0.0,27596,71.86458333333333,192
4915,0.0,,,,60.0,,,,,0,note_on,,0.0,60.0,0.0,27596,71.86458333333333,192
4916,0.0,,,,55.0,,,,,0,note_on,,0.0,55.0,0.0,27596,71.86458333333333,192
4917,0.0,,,,62.0,,,,,52,note_on,,100.0,62.0,100.0,27648,72.0,192
4918,0.0,,,,59.0,,,,,0,note_on,,100.0,59.0,100.0,27648,72.0,192
4919,0.0,,,,55.0,,,,,0,note_on,,100.0,55.0,100.0,27648,72.0,192
4920,0.0,,,,59.0,,,,,44,note_on,,0.0,59.0,0.0,27692,72.11458333333333,192
4921,0.0,,,,62.0,,,,,0,note_on,,0.0,62.0,0.0,27692,72.11458333333333,192
4922,0.0,,,,55.0,,,,,0,note_on,,0.0,55.0,0.0,27692,72.11458333333333,192
4923,0.0,,,,55.0,,,,,52,note_on,,100.0,55.0,100.0,27744,72.25,192
4924,0.0,,,,59.0,,,,,0,note_on,,100.0,59.0,100.0,27744,72.25,192
4925,0.0,,,,62.0,,,,,0,note_on,,100.0,62.0,100.0,27744,72.25,192
4926,0.0,,,,59.0,,,,,44,note_on,,0.0,59.0,0.0,27788,72.36458333333333,192
4927,0.0,,,,62.0,,,,,0,note_on,,0.0,62.0,0.0,27788,72.36458333333333,192
4928,0.0,,,,55.0,,,,,0,note_on,,0.0,55.0,0.0,27788,72.36458333333333,192
4929,0.0,,,,55.0,,,,,52,note_on,,100.0,55.0,100.0,27840,72.5,192
4930,0.0,,,,59.0,,,,,0,note_on,,100.0,59.0,100.0,27840,72.5,192
4931,0.0,,,,62.0,,,,,0,note_on,,100.0,62.0,100.0,27840,72.5,192
4932,0.0,,,,55.0,,,,,44,note_on,,0.0,55.0,0.0,27884,72.61458333333333,192
4933,0.0,,,,62.0,,,,,0,note_on,,0.0,62.0,0.0,27884,72.61458333333333,192
4934,0.0,,,,59.0,,,,,0,note_on,,0.0,59.0,0.0,27884,72.61458333333333,192
4935,0.0,,,,59.0,,,,,52,note_on,,100.0,59.0,100.0,27936,72.75,192
4936,0.0,,,,62.0,,,,,0,note_on,,100.0,62.0,100.0,27936,72.75,192
4937,0.0,,,,55.0,,,,,0,note_on,,100.0,55.0,100.0,27936,72.75,192
4938,0.0,,,,62.0,,,,,44,note_on,,0.0,62.0,0.0,27980,72.86458333333333,192
4939,0.0,,,,55.0,,,,,0,note_on,,0.0,55.0,0.0,27980,72.86458333333333,192
4940,0.0,,,,59.0,,,,,0,note_on,,0.0,59.0,0.0,27980,72.86458333333333,192
4941,0.0,,,,55.0,,,,,52,note_on,,100.0,55.0,100.0,28032,73.0,192
4942,0.0,,,,59.0,,,,,0,note_on,,100.0,59.0,100.0,28032,73.0,192
4943,0.0,,,,62.0,,,,,0,note_on,,100.0,62.0,100.0,28032,73.0,192
4944,0.0,,,,62.0,,,,,44,note_on,,0.0,62.0,0.0,28076,73.11458333333333,192
4945,0.0,,,,59.0,,,,,0,note_on,,0.0,59.0,0.0,28076,73.11458333333333,192
4946,0.0,,,,55.0,,,,,0,note_on,,0.0,55.0,0.0,28076,73.11458333333333,192
4947,0.0,,,,62.0,,,,,52,note_on,,100.0,62.0,100.0,28128,73.25,192
4948,0.0,,,,59.0,,,,,0,note_on,,100.0,59.0,100.0,28128,73.25,192
4949,0.0,,,,55.0,,,,,0,note_on,,100.0,55.0,100.0,28128,73.25,192
4950,0.0,,,,62.0,,,,,44,note_on,,0.0,62.0,0.0,28172,73.36458333333333,192
4951,0.0,,,,59.0,,,,,0,note_on,,0.0,59.0,0.0,28172,73.36458333333333,192
4952,0.0,,,,55.0,,,,,0,note_on,,0.0,55.0,0.0,28172,73.36458333333333,192
4953,0.0,,,,55.0,,,,,52,note_on,,100.0,55.0,100.0,28224,73.5,192
4954,0.0,,,,59.0,,,,,0,note_on,,100.0,59.0,100.0,28224,73.5,192
4955,0.0,,,,62.0,,,,,0,note_on,,100.0,62.0,100.0,28224,73.5,192
4956,0.0,,,,55.0,,,,,44,note_on,,0.0,55.0,0.0,28268,73.61458333333333,192
4957,0.0,,,,59.0,,,,,0,note_on,,0.0,59.0,0.0,28268,73.61458333333333,192
4958,0.0,,,,62.0,,,,,0,note_on,,0.0,62.0,0.0,28268,73.61458333333333,192
4959,0.0,,,,59.0,,,,,52,note_on,,100.0,59.0,100.0,28320,73.75,192
4960,0.0,,,,55.0,,,,,0,note_on,,100.0,55.0,100.0,28320,73.75,192
4961,0.0,,,,62.0,,,,,0,note_on,,100.0,62.0,100.0,28320,73.75,192
4962,0.0,,,,55.0,,,,,44,note_on,,0.0,55.0,0.0,28364,73.86458333333333,192
4963,0.0,,,,62.0,,,,,0,note_on,,0.0,62.0,0.0,28364,73.86458333333333,192
4964,0.0,,,,59.0,,,,,0,note_on,,0.0,59.0,0.0,28364,73.86458333333333,192
4965,0.0,,,,55.0,,,,,52,note_on,,100.0,55.0,100.0,28416,74.0,192
4966,0.0,,,,59.0,,,,,0,note_on,,100.0,59.0,100.0,28416,74.0,192
4967,0.0,,,,62.0,,,,,0,note_on,,100.0,62.0,100.0,28416,74.0,192
4968,0.0,,,,59.0,,,,,44,note_on,,0.0,59.0,0.0,28460,74.11458333333333,192
4969,0.0,,,,55.0,,,,,0,note_on,,0.0,55.0,0.0,28460,74.11458333333333,192
4970,0.0,,,,62.0,,,,,0,note_on,,0.0,62.0,0.0,28460,74.11458333333333,192
4971,0.0,,,,59.0,,,,,52,note_on,,100.0,59.0,100.0,28512,74.25,192
4972,0.0,,,,55.0,,,,,0,note_on,,100.0,55.0,100.0,28512,74.25,192
4973,0.0,,,,62.0,,,,,0,note_on,,100.0,62.0,100.0,28512,74.25,192
4974,0.0,,,,55.0,,,,,44,note_on,,0.0,55.0,0.0,28556,74.36458333333333,192
4975,0.0,,,,62.0,,,,,0,note_on,,0.0,62.0,0.0,28556,74.36458333333333,192
4976,0.0,,,,59.0,,,,,0,note_on,,0.0,59.0,0.0,28556,74.36458333333333,192
4977,0.0,,,,59.0,,,,,52,note_on,,100.0,59.0,100.0,28608,74.5,192
4978,0.0,,,,55.0,,,,,0,note_on,,100.0,55.0,100.0,28608,74.5,192
4979,0.0,,,,62.0,,,,,0,note_on,,100.0,62.0,100.0,28608,74.5,192
4980,0.0,,,,62.0,,,,,44,note_on,,0.0,62.0,0.0,28652,74.61458333333333,192
4981,0.0,,,,55.0,,,,,0,note_on,,0.0,55.0,0.0,28652,74.61458333333333,192
4982,0.0,,,,59.0,,,,,0,note_on,,0.0,59.0,0.0,28652,74.61458333333333,192
4983,0.0,,,,59.0,,,,,52,note_on,,100.0,59.0,100.0,28704,74.75,192
4984,0.0,,,,62.0,,,,,0,note_on,,100.0,62.0,100.0,28704,74.75,192
4985,0.0,,,,55.0,,,,,0,note_on,,100.0,55.0,100.0,28704,74.75,192
4986,0.0,,,,59.0,,,,,44,note_on,,0.0,59.0,0.0,28748,74.86458333333333,192
4987,0.0,,,,62.0,,,,,0,note_on,,0.0,62.0,0.0,28748,74.86458333333333,192
4988,0.0,,,,55.0,,,,,0,note_on,,0.0,55.0,0.0,28748,74.86458333333333,192
4989,0.0,,,,62.0,,,,,52,note_on,,100.0,62.0,100.0,28800,75.0,192
4990,0.0,,,,59.0,,,,,0,note_on,,100.0,59.0,100.0,28800,75.0,192
4991,0.0,,,,55.0,,,,,0,note_on,,100.0,55.0,100.0,28800,75.0,192
4992,0.0,,,,62.0,,,,,44,note_on,,0.0,62.0,0.0,28844,75.11458333333333,192
4993,0.0,,,,59.0,,,,,0,note_on,,0.0,59.0,0.0,28844,75.11458333333333,192
4994,0.0,,,,55.0,,,,,0,note_on,,0.0,55.0,0.0,28844,75.11458333333333,192
4995,0.0,,,,62.0,,,,,52,note_on,,100.0,62.0,100.0,28896,75.25,192
4996,0.0,,,,59.0,,,,,0,note_on,,100.0,59.0,100.0,28896,75.25,192
4997,0.0,,,,55.0,,,,,0,note_on,,100.0,55.0,100.0,28896,75.25,192
4998,0.0,,,,59.0,,,,,44,note_on,,0.0,59.0,0.0,28940,75.36458333333333,192
4999,0.0,,,,55.0,,,,,0,note_on,,0.0,55.0,0.0,28940,75.36458333333333,192
5000,0.0,,,,62.0,,,,,0,note_on,,0.0,62.0,0.0,28940,75.36458333333333,192
5001,0.0,,,,59.0,,,,,52,note_on,,100.0,59.0,100.0,28992,75.5,192
5002,0.0,,,,55.0,,,,,0,note_on,,100.0,55.0,100.0,28992,75.5,192
5003,0.0,,,,62.0,,,,,0,note_on,,100.0,62.0,100.0,28992,75.5,192
5004,0.0,,,,62.0,,,,,44,note_on,,0.0,62.0,0.0,29036,75.61458333333333,192
5005,0.0,,,,59.0,,,,,0,note_on,,0.0,59.0,0.0,29036,75.61458333333333,192
5006,0.0,,,,55.0,,,,,0,note_on,,0.0,55.0,0.0,29036,75.61458333333333,192
5007,0.0,,,,59.0,,,,,52,note_on,,100.0,59.0,100.0,29088,75.75,192
5008,0.0,,,,55.0,,,,,0,note_on,,100.0,55.0,100.0,29088,75.75,192
5009,0.0,,,,62.0,,,,,0,note_on,,100.0,62.0,100.0,29088,75.75,192
5010,0.0,,,,55.0,,,,,44,note_on,,0.0,55.0,0.0,29132,75.86458333333333,192
5011,0.0,,,,62.0,,,,,0,note_on,,0.0,62.0,0.0,29132,75.86458333333333,192
5012,0.0,,,,59.0,,,,,0,note_on,,0.0,59.0,0.0,29132,75.86458333333333,192
5013,0.0,,,,60.0,,,,,52,note_on,,100.0,60.0,100.0,29184,76.0,192
5014,0.0,,,,53.0,,,,,0,note_on,,100.0,53.0,100.0,29184,76.0,192
5015,0.0,,,,57.0,,,,,0,note_on,,100.0,57.0,100.0,29184,76.0,192
5016,0.0,,,,57.0,,,,,44,note_on,,0.0,57.0,0.0,29228,76.11458333333333,192
5017,0.0,,,,60.0,,,,,0,note_on,,0.0,60.0,0.0,29228,76.11458333333333,192
5018,0.0,,,,53.0,,,,,0,note_on,,0.0,53.0,0.0,29228,76.11458333333333,192
5019,0.0,,,,53.0,,,,,52,note_on,,100.0,53.0,100.0,29280,76.25,192
5020,0.0,,,,60.0,,,,,0,note_on,,100.0,60.0,100.0,29280,76.25,192
5021,0.0,,,,57.0,,,,,0,note_on,,100.0,57.0,100.0,29280,76.25,192
5022,0.0,,,,53.0,,,,,44,note_on,,0.0,53.0,0.0,29324,76.36458333333333,192
5023,0.0,,,,60.0,,,,,0,note_on,,0.0,60.0,0.0,29324,76.36458333333333,192
5024,0.0,,,,57.0,,,,,0,note_on,,0.0,57.0,0.0,29324,76.36458333333333,192
5025,0.0,,,,57.0,,,,,52,note_on,,100.0,57.0,100.0,29376,76.5,192
5026,0.0,,,,60.0,,,,,0,note_on,,100.0,60.0,100.0,29376,76.5,192
5027,0.0,,,,53.0,,,,,0,note_on,,100.0,53.0,100.0,29376,76.5,192
5028,0.0,,,,57.0,,,,,44,note_on,,0.0,57.0,0.0,29420,76.61458333333333,192
5029,0.0,,,,60.0,,,,,0,note_on,,0.0,60.0,0.0,29420,76.61458333333333,192
5030,0.0,,,,53.0,,,,,0,note_on,,0.0,53.0,0.0,29420,76.61458333333333,192
5031,0.0,,,,53.0,,,,,52,note_on,,100.0,53.0,100.0,29472,76.75,192
5032,0.0,,,,57.0,,,,,0,note_on,,100.0,57.0,100.0,29472,76.75,192
5033,0.0,,,,60.0,,,,,0,note_on,,100.0,60.0,100.0,29472,76.75,192
5034,0.0,,,,57.0,,,,,44,note_on,,0.0,57.0,0.0,29516,76.86458333333333,192
5035,0.0,,,,60.0,,,,,0,note_on,,0.0,60.0,0.0,29516,76.86458333333333,192
5036,0.0,,,,53.0,,,,,0,note_on,,0.0,53.0,0.0,29516,76.86458333333333,192
5037,0.0,,,,57.0,,,,,52,note_on,,100.0,57.0,100.0,29568,77.0,192
5038,0.0,,,,60.0,,,,,0,note_on,,100.0,60.0,100.0,29568,77.0,192
5039,0.0,,,,53.0,,,,,0,note_on,,100.0,53.0,100.0,29568,77.0,192
5040,0.0,,,,60.0,,,,,44,note_on,,0.0,60.0,0.0,29612,77.11458333333333,192
5041,0.0,,,,53.0,,,,,0,note_on,,0.0,53.0,0.0,29612,77.11458333333333,192
5042,0.0,,,,57.0,,,,,0,note_on,,0.0,57.0,0.0,29612,77.11458333333333,192
5043,0.0,,,,57.0,,,,,52,note_on,,100.0,57.0,100.0,29664,77.25,192
5044,0.0,,,,53.0,,,,,0,note_on,,100.0,53.0,100.0,29664,77.25,192
5045,0.0,,,,60.0,,,,,0,note_on,,100.0,60.0,100.0,29664,77.25,192
5046,0.0,,,,57.0,,,,,44,note_on,,0.0,57.0,0.0,29708,77.36458333333333,192
5047,0.0,,,,53.0,,,,,0,note_on,,0.0,53.0,0.0,29708,77.36458333333333,192
5048,0.0,,,,60.0,,,,,0,note_on,,0.0,60.0,0.0,29708,77.36458333333333,192
5049,0.0,,,,57.0,,,,,52,note_on,,100.0,57.0,100.0,29760,77.5,192
5050,0.0,,,,53.0,,,,,0,note_on,,100.0,53.0,100.0,29760,77.5,192
5051,0.0,,,,60.0,,,,,0,note_on,,100.0,60.0,100.0,29760,77.5,192
5052,0.0,,,,53.0,,,,,44,note_on,,0.0,53.0,0.0,29804,77.61458333333333,192
5053,0.0,,,,57.0,,,,,0,note_on,,0.0,57.0,0.0,29804,77.61458333333333,192
5054,0.0,,,,60.0,,,,,0,note_on,,0.0,60.0,0.0,29804,77.61458333333333,192
5055,0.0,,,,48.0,,,,,52,note_on,,100.0,48.0,100.0,29856,77.75,192
5056,0.0,,,,48.0,,,,,44,note_on,,0.0,48.0,0.0,29900,77.86458333333333,192
5057,0.0,,,,60.0,,,,,52,note_on,,100.0,60.0,100.0,29952,78.0,192
5058,0.0,,,,55.0,,,,,0,note_on,,100.0,55.0,100.0,29952,78.0,192
5059,0.0,,,,64.0,,,,,0,note_on,,100.0,64.0,100.0,29952,78.0,192
5060,0.0,,,,60.0,,,,,44,note_on,,0.0,60.0,0.0,29996,78.11458333333333,192
5061,0.0,,,,55.0,,,,,0,note_on,,0.0,55.0,0.0,29996,78.11458333333333,192
5062,0.0,,,,64.0,,,,,0,note_on,,0.0,64.0,0.0,29996,78.11458333333333,192
5063,0.0,,,,64.0,,,,,52,note_on,,100.0,64.0,100.0,30048,78.25,192
5064,0.0,,,,60.0,,,,,0,note_on,,100.0,60.0,100.0,30048,78.25,192
5065,0.0,,,,55.0,,,,,0,note_on,,100.0,55.0,100.0,30048,78.25,192
5066,0.0,,,,64.0,,,,,44,note_on,,0.0,64.0,0.0,30092,78.36458333333333,192
5067,0.0,,,,60.0,,,,,0,note_on,,0.0,60.0,0.0,30092,78.36458333333333,192
5068,0.0,,,,55.0,,,,,0,note_on,,0.0,55.0,0.0,30092,78.36458333333333,192
5069,0.0,,,,64.0,,,,,52,note_on,,100.0,64.0,100.0,30144,78.5,192
5070,0.0,,,,55.0,,,,,0,note_on,,100.0,55.0,100.0,30144,78.5,192
5071,0.0,,,,60.0,,,,,0,note_on,,100.0,60.0,100.0,30144,78.5,192
5072,0.0,,,,64.0,,,,,44,note_on,,0.0,64.0,0.0,30188,78.61458333333333,192
5073,0.0,,,,55.0,,,,,0,note_on,,0.0,55.0,0.0,30188,78.61458333333333,192
5074,0.0,,,,60.0,,,,,0,note_on,,0.0,60.0,0.0,30188,78.61458333333333,192
5075,0.0,,,,64.0,,,,,52,note_on,,100.0,64.0,100.0,30240,78.75,192
5076,0.0,,,,60.0,,,,,0,note_on,,100.0,60.0,100.0,30240,78.75,192
5077,0.0,,,,55.0,,,,,0,note_on,,100.0,55.0,100.0,30240,78.75,192
5078,0.0,,,,64.0,,,,,44,note_on,,0.0,64.0,0.0,30284,78.86458333333333,192
5079,0.0,,,,55.0,,,,,0,note_on,,0.0,55.0,0.0,30284,78.86458333333333,192
5080,0.0,,,,60.0,,,,,0,note_on,,0.0,60.0,0.0,30284,78.86458333333333,192
5081,0.0,,,,60.0,,,,,52,note_on,,100.0,60.0,100.0,30336,79.0,192
5082,0.0,,,,64.0,,,,,0,note_on,,100.0,64.0,100.0,30336,79.0,192
5083,0.0,,,,55.0,,,,,0,note_on,,100.0,55.0,100.0,30336,79.0,192
5084,0.0,,,,60.0,,,,,44,note_on,,0.0,60.0,0.0,30380,79.11458333333333,192
5085,0.0,,,,64.0,,,,,0,note_on,,0.0,64.0,0.0,30380,79.11458333333333,192
5086,0.0,,,,55.0,,,,,0,note_on,,0.0,55.0,0.0,30380,79.11458333333333,192
5087,0.0,,,,55.0,,,,,52,note_on,,100.0,55.0,100.0,30432,79.25,192
5088,0.0,,,,60.0,,,,,0,note_on,,100.0,60.0,100.0,30432,79.25,192
5089,0.0,,,,64.0,,,,,0,note_on,,100.0,64.0,100.0,30432,79.25,192
5090,0.0,,,,55.0,,,,,44,note_on,,0.0,55.0,0.0,30476,79.36458333333333,192
5091,0.0,,,,60.0,,,,,0,note_on,,0.0,60.0,0.0,30476,79.36458333333333,192
5092,0.0,,,,64.0,,,,,0,note_on,,0.0,64.0,0.0,30476,79.36458333333333,192
5093,0.0,,,,64.0,,,,,52,note_on,,100.0,64.0,100.0,30528,79.5,192
5094,0.0,,,,55.0,,,,,0,note_on,,100.0,55.0,100.0,30528,79.5,192
5095,0.0,,,,60.0,,,,,0,note_on,,100.0,60.0,100.0,30528,79.5,192
5096,0.0,,,,64.0,,,,,44,note_on,,0.0,64.0,0.0,30572,79.61458333333333,192
5097,0.0,,,,55.0,,,,,0,note_on,,0.0,55.0,0.0,30572,79.61458333333333,192
5098,0.0,,,,60.0,,,,,0,note_on,,0.0,60.0,0.0,30572,79.61458333333333,192
5099,0.0,,,,60.0,,,,,52,note_on,,100.0,60.0,100.0,30624,79.75,192
5100,0.0,,,,64.0,,,,,0,note_on,,100.0,64.0,100.0,30624,79.75,192
5101,0.0,,,,55.0,,,,,0,note_on,,100.0,55.0,100.0,30624,79.75,192
5102,0.0,,,,60.0,,,,,44,note_on,,0.0,60.0,0.0,30668,79.86458333333333,192
5103,0.0,,,,55.0,,,,,0,note_on,,0.0,55.0,0.0,30668,79.86458333333333,192
5104,0.0,,,,64.0,,,,,0,note_on,,0.0,64.0,0.0,30668,79.86458333333333,192
5105,0.0,,,,62.0,,,,,52,note_on,,100.0,62.0,100.0,30720,80.0,192
5106,0.0,,,,55.0,,,,,0,note_on,,100.0,55.0,100.0,30720,80.0,192
5107,0.0,,,,59.0,,,,,0,note_on,,100.0,59.0,100.0,30720,80.0,192
5108,0.0,,,,62.0,,,,,44,note_on,,0.0,62.0,0.0,30764,80.11458333333333,192
5109,0.0,,,,55.0,,,,,0,note_on,,0.0,55.0,0.0,30764,80.11458333333333,192
5110,0.0,,,,59.0,,,,,0,note_on,,0.0,59.0,0.0,30764,80.11458333333333,192
5111,0.0,,,,55.0,,,,,52,note_on,,100.0,55.0,100.0,30816,80.25,192
5112,0.0,,,,59.0,,,,,0,note_on,,100.0,59.0,100.0,30816,80.25,192
5113,0.0,,,,62.0,,,,,0,note_on,,100.0,62.0,100.0,30816,80.25,192
5114,0.0,,,,55.0,,,,,44,note_on,,0.0,55.0,0.0,30860,80.36458333333333,192
5115,0.0,,,,59.0,,,,,0,note_on,,0.0,59.0,0.0,30860,80.36458333333333,192
5116,0.0,,,,62.0,,,,,0,note_on,,0.0,62.0,0.0,30860,80.36458333333333,192
5117,0.0,,,,59.0,,,,,52,note_on,,100.0,59.0,100.0,30912,80.5,192
5118,0.0,,,,55.0,,,,,0,note_on,,100.0,55.0,100.0,30912,80.5,192
5119,0.0,,,,62.0,,,,,0,note_on,,100.0,62.0,100.0,30912,80.5,192
5120,0.0,,,,59.0,,,,,44,note_on,,0.0,59.0,0.0,30956,80.61458333333333,192
5121,0.0,,,,55.0,,,,,0,note_on,,0.0,55.0,0.0,30956,80.61458333333333,192
5122,0.0,,,,62.0,,,,,0,note_on,,0.0,62.0,0.0,30956,80.61458333333333,192
5123,0.0,,,,55.0,,,,,52,note_on,,100.0,55.0,100.0,31008,80.75,192
5124,0.0,,,,59.0,,,,,0,note_on,,100.0,59.0,100.0,31008,80.75,192
5125,0.0,,,,62.0,,,,,0,note_on,,100.0,62.0,100.0,31008,80.75,192
5126,0.0,,,,62.0,,,,,44,note_on,,0.0,62.0,0.0,31052,80.86458333333333,192
5127,0.0,,,,59.0,,,,,0,note_on,,0.0,59.0,0.0,31052,80.86458333333333,192
5128,0.0,,,,55.0,,,,,0,note_on,,0.0,55.0,0.0,31052,80.86458333333333,192
5129,0.0,,,,62.0,,,,,52,note_on,,100.0,62.0,100.0,31104,81.0,192
5130,0.0,,,,59.0,,,,,0,note_on,,100.0,59.0,100.0,31104,81.0,192
5131,0.0,,,,55.0,,,,,0,note_on,,100.0,55.0,100.0,31104,81.0,192
5132,0.0,,,,62.0,,,,,44,note_on,,0.0,62.0,0.0,31148,81.11458333333333,192
5133,0.0,,,,59.0,,,,,0,note_on,,0.0,59.0,0.0,31148,81.11458333333333,192
5134,0.0,,,,55.0,,,,,0,note_on,,0.0,55.0,0.0,31148,81.11458333333333,192
5135,0.0,,,,62.0,,,,,52,note_on,,100.0,62.0,100.0,31200,81.25,192
5136,0.0,,,,59.0,,,,,0,note_on,,100.0,59.0,100.0,31200,81.25,192
5137,0.0,,,,55.0,,,,,0,note_on,,100.0,55.0,100.0,31200,81.25,192
5138,0.0,,,,62.0,,,,,44,note_on,,0.0,62.0,0.0,31244,81.36458333333333,192
5139,0.0,,,,59.0,,,,,0,note_on,,0.0,59.0,0.0,31244,81.36458333333333,192
5140,0.0,,,,55.0,,,,,0,note_on,,0.0,55.0,0.0,31244,81.36458333333333,192
5141,0.0,,,,62.0,,,,,52,note_on,,100.0,62.0,100.0,31296,81.5,192
5142,0.0,,,,55.0,,,,,0,note_on,,100.0,55.0,100.0,31296,81.5,192
5143,0.0,,,,59.0,,,,,0,note_on,,100.0,59.0,100.0,31296,81.5,192
5144,0.0,,,,62.0,,,,,44,note_on,,0.0,62.0,0.0,31340,81.61458333333333,192
5145,0.0,,,,55.0,,,,,0,note_on,,0.0,55.0,0.0,31340,81.61458333333333,192
5146,0.0,,,,59.0,,,,,0,note_on,,0.0,59.0,0.0,31340,81.61458333333333,192
5147,0.0,,,,55.0,,,,,52,note_on,,100.0,55.0,100.0,31392,81.75,192
5148,0.0,,,,62.0,,,,,0,note_on,,100.0,62.0,100.0,31392,81.75,192
5149,0.0,,,,59.0,,,,,0,note_on,,100.0,59.0,100.0,31392,81.75,192
5150,0.0,,,,59.0,,,,,44,note_on,,0.0,59.0,0.0,31436,81.86458333333333,192
5151,0.0,,,,62.0,,,,,0,note_on,,0.0,62.0,0.0,31436,81.86458333333333,192
5152,0.0,,,,55.0,,,,,0,note_on,,0.0,55.0,0.0,31436,81.86458333333333,192
5153,0.0,,,,59.0,,,,,52,note_on,,100.0,59.0,100.0,31488,82.0,192
5154,0.0,,,,55.0,,,,,0,note_on,,100.0,55.0,100.0,31488,82.0,192
5155,0.0,,,,62.0,,,,,0,note_on,,100.0,62.0,100.0,31488,82.0,192
5156,0.0,,,,59.0,,,,,44,note_on,,0.0,59.0,0.0,31532,82.11458333333333,192
5157,0.0,,,,55.0,,,,,0,note_on,,0.0,55.0,0.0,31532,82.11458333333333,192
5158,0.0,,,,62.0,,,,,0,note_on,,0.0,62.0,0.0,31532,82.11458333333333,192
5159,0.0,,,,59.0,,,,,52,note_on,,100.0,59.0,100.0,31584,82.25,192
5160,0.0,,,,55.0,,,,,0,note_on,,100.0,55.0,100.0,31584,82.25,192
5161,0.0,,,,62.0,,,,,0,note_on,,100.0,62.0,100.0,31584,82.25,192
5162,0.0,,,,59.0,,,,,44,note_on,,0.0,59.0,0.0,31628,82.36458333333333,192
5163,0.0,,,,55.0,,,,,0,note_on,,0.0,55.0,0.0,31628,82.36458333333333,192
5164,0.0,,,,62.0,,,,,0,note_on,,0.0,62.0,0.0,31628,82.36458333333333,192
5165,0.0,,,,59.0,,,,,52,note_on,,100.0,59.0,100.0,31680,82.5,192
5166,0.0,,,,55.0,,,,,0,note_on,,100.0,55.0,100.0,31680,82.5,192
5167,0.0,,,,62.0,,,,,0,note_on,,100.0,62.0,100.0,31680,82.5,192
5168,0.0,,,,59.0,,,,,44,note_on,,0.0,59.0,0.0,31724,82.61458333333333,192
5169,0.0,,,,55.0,,,,,0,note_on,,0.0,55.0,0.0,31724,82.61458333333333,192
5170,0.0,,,,62.0,,,,,0,note_on,,0.0,62.0,0.0,31724,82.61458333333333,192
5171,0.0,,,,62.0,,,,,52,note_on,,100.0,62.0,100.0,31776,82.75,192
5172,0.0,,,,55.0,,,,,0,note_on,,100.0,55.0,100.0,31776,82.75,192
5173,0.0,,,,59.0,,,,,0,note_on,,100.0,59.0,100.0,31776,82.75,192
5174,0.0,,,,55.0,,,,,44,note_on,,0.0,55.0,0.0,31820,82.86458333333333,192
5175,0.0,,,,59.0,,,,,0,note_on,,0.0,59.0,0.0,31820,82.86458333333333,192
5176,0.0,,,,62.0,,,,,0,note_on,,0.0,62.0,0.0,31820,82.86458333333333,192
5177,0.0,,,,55.0,,,,,52,note_on,,100.0,55.0,100.0,31872,83.0,192
5178,0.0,,,,59.0,,,,,0,note_on,,100.0,59.0,100.0,31872,83.0,192
5179,0.0,,,,62.0,,,,,0,note_on,,100.0,62.0,100.0,31872,83.0,192
5180,0.0,,,,55.0,,,,,44,note_on,,0.0,55.0,0.0,31916,83.11458333333333,192
5181,0.0,,,,59.0,,,,,0,note_on,,0.0,59.0,0.0,31916,83.11458333333333,192
5182,0.0,,,,62.0,,,,,0,note_on,,0.0,62.0,0.0,31916,83.11458333333333,192
5183,0.0,,,,59.0,,,,,52,note_on,,100.0,59.0,100.0,31968,83.25,192
5184,0.0,,,,62.0,,,,,0,note_on,,100.0,62.0,100.0,31968,83.25,192
5185,0.0,,,,55.0,,,,,0,note_on,,100.0,55.0,100.0,31968,83.25,192
5186,0.0,,,,59.0,,,,,44,note_on,,0.0,59.0,0.0,32012,83.36458333333333,192
5187,0.0,,,,62.0,,,,,0,note_on,,0.0,62.0,0.0,32012,83.36458333333333,192
5188,0.0,,,,55.0,,,,,0,note_on,,0.0,55.0,0.0,32012,83.36458333333333,192
5189,0.0,,,,55.0,,,,,52,note_on,,100.0,55.0,100.0,32064,83.5,192
5190,0.0,,,,59.0,,,,,0,note_on,,100.0,59.0,100.0,32064,83.5,192
5191,0.0,,,,62.0,,,,,0,note_on,,100.0,62.0,100.0,32064,83.5,192
5192,0.0,,,,55.0,,,,,44,note_on,,0.0,55.0,0.0,32108,83.61458333333333,192
5193,0.0,,,,59.0,,,,,0,note_on,,0.0,59.0,0.0,32108,83.61458333333333,192
5194,0.0,,,,62.0,,,,,0,note_on,,0.0,62.0,0.0,32108,83.61458333333333,192
5195,0.0,,,,62.0,,,,,52,note_on,,100.0,62.0,100.0,32160,83.75,192
5196,0.0,,,,55.0,,,,,0,note_on,,100.0,55.0,100.0,32160,83.75,192
5197,0.0,,,,59.0,,,,,0,note_on,,100.0,59.0,100.0,32160,83.75,192
5198,0.0,,,,55.0,,,,,44,note_on,,0.0,55.0,0.0,32204,83.86458333333333,192
5199,0.0,,,,59.0,,,,,0,note_on,,0.0,59.0,0.0,32204,83.86458333333333,192
5200,0.0,,,,62.0,,,,,0,note_on,,0.0,62.0,0.0,32204,83.86458333333333,192
5201,0.0,,,,57.0,,,,,52,note_on,,100.0,57.0,100.0,32256,84.0,192
5202,0.0,,,,53.0,,,,,0,note_on,,100.0,53.0,100.0,32256,84.0,192
5203,0.0,,,,60.0,,,,,0,note_on,,100.0,60.0,100.0,32256,84.0,192
5204,0.0,,,,57.0,,,,,44,note_on,,0.0,57.0,0.0,32300,84.11458333333333,192
5205,0.0,,,,53.0,,,,,0,note_on,,0.0,53.0,0.0,32300,84.11458333333333,192
5206,0.0,,,,60.0,,,,,0,note_on,,0.0,60.0,0.0,32300,84.11458333333333,192
5207,0.0,,,,60.0,,,,,52,note_on,,100.0,60.0,100.0,32352,84.25,192
5208,0.0,,,,57.0,,,,,0,note_on,,100.0,57.0,100.0,32352,84.25,192
5209,0.0,,,,53.0,,,,,0,note_on,,100.0,53.0,100.0,32352,84.25,192
5210,0.0,,,,60.0,,,,,44,note_on,,0.0,60.0,0.0,32396,84.36458333333333,192
5211,0.0,,,,57.0,,,,,0,note_on,,0.0,57.0,0.0,32396,84.36458333333333,192
5212,0.0,,,,53.0,,,,,0,note_on,,0.0,53.0,0.0,32396,84.36458333333333,192
5213,0.0,,,,57.0,,,,,52,note_on,,100.0,57.0,100.0,32448,84.5,192
5214,0.0,,,,60.0,,,,,0,note_on,,100.0,60.0,100.0,32448,84.5,192
5215,0.0,,,,53.0,,,,,0,note_on,,100.0,53.0,100.0,32448,84.5,192
5216,0.0,,,,57.0,,,,,44,note_on,,0.0,57.0,0.0,32492,84.61458333333333,192
5217,0.0,,,,60.0,,,,,0,note_on,,0.0,60.0,0.0,32492,84.61458333333333,192
5218,0.0,,,,53.0,,,,,0,note_on,,0.0,53.0,0.0,32492,84.61458333333333,192
5219,0.0,,,,53.0,,,,,52,note_on,,100.0,53.0,100.0,32544,84.75,192
5220,0.0,,,,60.0,,,,,0,note_on,,100.0,60.0,100.0,32544,84.75,192
5221,0.0,,,,57.0,,,,,0,note_on,,100.0,57.0,100.0,32544,84.75,192
5222,0.0,,,,57.0,,,,,44,note_on,,0.0,57.0,0.0,32588,84.86458333333333,192
5223,0.0,,,,53.0,,,,,0,note_on,,0.0,53.0,0.0,32588,84.86458333333333,192
5224,0.0,,,,60.0,,,,,0,note_on,,0.0,60.0,0.0,32588,84.86458333333333,192
5225,0.0,,,,60.0,,,,,52,note_on,,100.0,60.0,100.0,32640,85.0,192
5226,0.0,,,,53.0,,,,,0,note_on,,100.0,53.0,100.0,32640,85.0,192
5227,0.0,,,,57.0,,,,,0,note_on,,100.0,57.0,100.0,32640,85.0,192
5228,0.0,,,,60.0,,,,,44,note_on,,0.0,60.0,0.0,32684,85.11458333333333,192
5229,0.0,,,,53.0,,,,,0,note_on,,0.0,53.0,0.0,32684,85.11458333333333,192
5230,0.0,,,,57.0,,,,,0,note_on,,0.0,57.0,0.0,32684,85.11458333333333,192
5231,0.0,,,,57.0,,,,,52,note_on,,100.0,57.0,100.0,32736,85.25,192
5232,0.0,,,,60.0,,,,,0,note_on,,100.0,60.0,100.0,32736,85.25,192
5233,0.0,,,,53.0,,,,,0,note_on,,100.0,53.0,100.0,32736,85.25,192
5234,0.0,,,,57.0,,,,,44,note_on,,0.0,57.0,0.0,32780,85.36458333333333,192
5235,0.0,,,,60.0,,,,,0,note_on,,0.0,60.0,0.0,32780,85.36458333333333,192
5236,0.0,,,,53.0,,,,,0,note_on,,0.0,53.0,0.0,32780,85.36458333333333,192
5237,0.0,,,,60.0,,,,,52,note_on,,100.0,60.0,100.0,32832,85.5,192
5238,0.0,,,,53.0,,,,,0,note_on,,100.0,53.0,100.0,32832,85.5,192
5239,0.0,,,,57.0,,,,,0,note_on,,100.0,57.0,100.0,32832,85.5,192
5240,0.0,,,,57.0,,,,,44,note_on,,0.0,57.0,0.0,32876,85.61458333333333,192
5241,0.0,,,,53.0,,,,,0,note_on,,0.0,53.0,0.0,32876,85.61458333333333,192
5242,0.0,,,,60.0,,,,,0,note_on,,0.0,60.0,0.0,32876,85.61458333333333,192
5243,0.0,,,,48.0,,,,,52,note_on,,100.0,48.0,100.0,32928,85.75,192
5244,0.0,,,,48.0,,,,,44,note_on,,0.0,48.0,0.0,32972,85.86458333333333,192
5245,0.0,,,,60.0,,,,,52,note_on,,100.0,60.0,100.0,33024,86.0,192
5246,0.0,,,,64.0,,,,,0,note_on,,100.0,64.0,100.0,33024,86.0,192
5247,0.0,,,,55.0,,,,,0,note_on,,100.0,55.0,100.0,33024,86.0,192
5248,0.0,,,,60.0,,,,,44,note_on,,0.0,60.0,0.0,33068,86.11458333333333,192
5249,0.0,,,,64.0,,,,,0,note_on,,0.0,64.0,0.0,33068,86.11458333333333,192
5250,0.0,,,,55.0,,,,,0,note_on,,0.0,55.0,0.0,33068,86.11458333333333,192
5251,0.0,,,,60.0,,,,,52,note_on,,100.0,60.0,100.0,33120,86.25,192
5252,0.0,,,,55.0,,,,,0,note_on,,100.0,55.0,100.0,33120,86.25,192
5253,0.0,,,,64.0,,,,,0,note_on,,100.0,64.0,100.0,33120,86.25,192
5254,0.0,,,,64.0,,,,,44,note_on,,0.0,64.0,0.0,33164,86.36458333333333,192
5255,0.0,,,,60.0,,,,,0,note_on,,0.0,60.0,0.0,33164,86.36458333333333,192
5256,0.0,,,,55.0,,,,,0,note_on,,0.0,55.0,0.0,33164,86.36458333333333,192
5257,0.0,,,,64.0,,,,,52,note_on,,100.0,64.0,100.0,33216,86.5,192
5258,0.0,,,,60.0,,,,,0,note_on,,100.0,60.0,100.0,33216,86.5,192
5259,0.0,,,,55.0,,,,,0,note_on,,100.0,55.0,100.0,33216,86.5,192
5260,0.0,,,,64.0,,,,,44,note_on,,0.0,64.0,0.0,33260,86.61458333333333,192
5261,0.0,,,,60.0,,,,,0,note_on,,0.0,60.0,0.0,33260,86.61458333333333,192
5262,0.0,,,,55.0,,,,,0,note_on,,0.0,55.0,0.0,33260,86.61458333333333,192
5263,0.0,,,,64.0,,,,,52,note_on,,100.0,64.0,100.0,33312,86.75,192
5264,0.0,,,,55.0,,,,,0,note_on,,100.0,55.0,100.0,33312,86.75,192
5265,0.0,,,,60.0,,,,,0,note_on,,100.0,60.0,100.0,33312,86.75,192
5266,0.0,,,,60.0,,,,,44,note_on,,0.0,60.0,0.0,33356,86.86458333333333,192
5267,0.0,,,,64.0,,,,,0,note_on,,0.0,64.0,0.0,33356,86.86458333333333,192
5268,0.0,,,,55.0,,,,,0,note_on,,0.0,55.0,0.0,33356,86.86458333333333,192
5269,0.0,,,,55.0,,,,,52,note_on,,100.0,55.0,100.0,33408,87.0,192
5270,0.0,,,,60.0,,,,,0,note_on,,100.0,60.0,100.0,33408,87.0,192
5271,0.0,,,,64.0,,,,,0,note_on,,100.0,64.0,100.0,33408,87.0,192
5272,0.0,,,,55.0,,,,,44,note_on,,0.0,55.0,0.0,33452,87.11458333333333,192
5273,0.0,,,,60.0,,,,,0,note_on,,0.0,60.0,0.0,33452,87.11458333333333,192
5274,0.0,,,,64.0,,,,,0,note_on,,0.0,64.0,0.0,33452,87.11458333333333,192
5275,0.0,,,,64.0,,,,,52,note_on,,100.0,64.0,100.0,33504,87.25,192
5276,0.0,,,,60.0,,,,,0,note_on,,100.0,60.0,100.0,33504,87.25,192
5277,0.0,,,,55.0,,,,,0,note_on,,100.0,55.0,100.0,33504,87.25,192
5278,0.0,,,,55.0,,,,,44,note_on,,0.0,55.0,0.0,33548,87.36458333333333,192
5279,0.0,,,,64.0,,,,,0,note_on,,0.0,64.0,0.0,33548,87.36458333333333,192
5280,0.0,,,,60.0,,,,,0,note_on,,0.0,60.0,0.0,33548,87.36458333333333,192
5281,0.0,,,,60.0,,,,,52,note_on,,100.0,60.0,100.0,33600,87.5,192
5282,0.0,,,,64.0,,,,,0,note_on,,100.0,64.0,100.0,33600,87.5,192
5283,0.0,,,,55.0,,,,,0,note_on,,100.0,55.0,100.0,33600,87.5,192
5284,0.0,,,,60.0,,,,,44,note_on,,0.0,60.0,0.0,33644,87.61458333333333,192
5285,0.0,,,,64.0,,,,,0,note_on,,0.0,64.0,0.0,33644,87.61458333333333,192
5286,0.0,,,,55.0,,,,,0,note_on,,0.0,55.0,0.0,33644,87.61458333333333,192
5287,0.0,,,,55.0,,,,,52,note_on,,100.0,55.0,100.0,33696,87.75,192
5288,0.0,,,,64.0,,,,,0,note_on,,100.0,64.0,100.0,33696,87.75,192
5289,0.0,,,,60.0,,,,,0,note_on,,100.0,60.0,100.0,33696,87.75,192
5290,0.0,,,,55.0,,,,,44,note_on,,0.0,55.0,0.0,33740,87.86458333333333,192
5291,0.0,,,,64.0,,,,,0,note_on,,0.0,64.0,0.0,33740,87.86458333333333,192
5292,0.0,,,,60.0,,,,,0,note_on,,0.0,60.0,0.0,33740,87.86458333333333,192
5293,0.0,,,,62.0,,,,,52,note_on,,100.0,62.0,100.0,33792,88.0,192
5294,0.0,,,,59.0,,,,,0,note_on,,100.0,59.0,100.0,33792,88.0,192
5295,0.0,,,,55.0,,,,,0,note_on,,100.0,55.0,100.0,33792,88.0,192
5296,0.0,,,,59.0,,,,,44,note_on,,0.0,59.0,0.0,33836,88.11458333333333,192
5297,0.0,,,,55.0,,,,,0,note_on,,0.0,55.0,0.0,33836,88.11458333333333,192
5298,0.0,,,,62.0,,,,,0,note_on,,0.0,62.0,0.0,33836,88.11458333333333,192
5299,0.0,,,,59.0,,,,,52,note_on,,100.0,59.0,100.0,33888,88.25,192
5300,0.0,,,,55.0,,,,,0,note_on,,100.0,55.0,100.0,33888,88.25,192
5301,0.0,,,,62.0,,,,,0,note_on,,100.0,62.0,100.0,33888,88.25,192
5302,0.0,,,,59.0,,,,,44,note_on,,0.0,59.0,0.0,33932,88.36458333333333,192
5303,0.0,,,,55.0,,,,,0,note_on,,0.0,55.0,0.0,33932,88.36458333333333,192
5304,0.0,,,,62.0,,,,,0,note_on,,0.0,62.0,0.0,33932,88.36458333333333,192
5305,0.0,,,,62.0,,,,,52,note_on,,100.0,62.0,100.0,33984,88.5,192
5306,0.0,,,,55.0,,,,,0,note_on,,100.0,55.0,100.0,33984,88.5,192
5307,0.0,,,,59.0,,,,,0,note_on,,100.0,59.0,100.0,33984,88.5,192
5308,0.0,,,,55.0,,,,,44,note_on,,0.0,55.0,0.0,34028,88.61458333333333,192
5309,0.0,,,,59.0,,,,,0,note_on,,0.0,59.0,0.0,34028,88.61458333333333,192
5310,0.0,,,,62.0,,,,,0,note_on,,0.0,62.0,0.0,34028,88.61458333333333,192
5311,0.0,,,,55.0,,,,,52,note_on,,100.0,55.0,100.0,34080,88.75,192
5312,0.0,,,,62.0,,,,,0,note_on,,100.0,62.0,100.0,34080,88.75,192
5313,0.0,,,,59.0,,,,,0,note_on,,100.0,59.0,100.0,34080,88.75,192
5314,0.0,,,,55.0,,,,,44,note_on,,0.0,55.0,0.0,34124,88.86458333333333,192
5315,0.0,,,,62.0,,,,,0,note_on,,0.0,62.0,0.0,34124,88.86458333333333,192
5316,0.0,,,,59.0,,,,,0,note_on,,0.0,59.0,0.0,34124,88.86458333333333,192
5317,0.0,,,,62.0,,,,,52,note_on,,100.0,62.0,100.0,34176,89.0,192
5318,0.0,,,,55.0,,,,,0,note_on,,100.0,55.0,100.0,34176,89.0,192
5319,0.0,,,,59.0,,,,,0,note_on,,100.0,59.0,100.0,34176,89.0,192
5320,0.0,,,,55.0,,,,,44,note_on,,0.0,55.0,0.0,34220,89.11458333333333,192
5321,0.0,,,,59.0,,,,,0,note_on,,0.0,59.0,0.0,34220,89.11458333333333,192
5322,0.0,,,,62.0,,,,,0,note_on,,0.0,62.0,0.0,34220,89.11458333333333,192
5323,0.0,,,,62.0,,,,,52,note_on,,100.0,62.0,100.0,34272,89.25,192
5324,0.0,,,,55.0,,,,,0,note_on,,100.0,55.0,100.0,34272,89.25,192
5325,0.0,,,,59.0,,,,,0,note_on,,100.0,59.0,100.0,34272,89.25,192
5326,0.0,,,,62.0,,,,,44,note_on,,0.0,62.0,0.0,34316,89.36458333333333,192
5327,0.0,,,,55.0,,,,,0,note_on,,0.0,55.0,0.0,34316,89.36458333333333,192
5328,0.0,,,,59.0,,,,,0,note_on,,0.0,59.0,0.0,34316,89.36458333333333,192
5329,0.0,,,,62.0,,,,,52,note_on,,100.0,62.0,100.0,34368,89.5,192
5330,0.0,,,,55.0,,,,,0,note_on,,100.0,55.0,100.0,34368,89.5,192
5331,0.0,,,,59.0,,,,,0,note_on,,100.0,59.0,100.0,34368,89.5,192
5332,0.0,,,,55.0,,,,,44,note_on,,0.0,55.0,0.0,34412,89.61458333333333,192
5333,0.0,,,,59.0,,,,,0,note_on,,0.0,59.0,0.0,34412,89.61458333333333,192
5334,0.0,,,,62.0,,,,,0,note_on,,0.0,62.0,0.0,34412,89.61458333333333,192
5335,0.0,,,,59.0,,,,,52,note_on,,100.0,59.0,100.0,34464,89.75,192
5336,0.0,,,,55.0,,,,,0,note_on,,100.0,55.0,100.0,34464,89.75,192
5337,0.0,,,,62.0,,,,,0,note_on,,100.0,62.0,100.0,34464,89.75,192
5338,0.0,,,,59.0,,,,,44,note_on,,0.0,59.0,0.0,34508,89.86458333333333,192
5339,0.0,,,,55.0,,,,,0,note_on,,0.0,55.0,0.0,34508,89.86458333333333,192
5340,0.0,,,,62.0,,,,,0,note_on,,0.0,62.0,0.0,34508,89.86458333333333,192
5341,0.0,,,,62.0,,,,,52,note_on,,100.0,62.0,100.0,34560,90.0,192
5342,0.0,,,,55.0,,,,,0,note_on,,100.0,55.0,100.0,34560,90.0,192
5343,0.0,,,,59.0,,,,,0,note_on,,100.0,59.0,100.0,34560,90.0,192
5344,0.0,,,,55.0,,,,,44,note_on,,0.0,55.0,0.0,34604,90.11458333333333,192
5345,0.0,,,,59.0,,,,,0,note_on,,0.0,59.0,0.0,34604,90.11458333333333,192
5346,0.0,,,,62.0,,,,,0,note_on,,0.0,62.0,0.0,34604,90.11458333333333,192
5347,0.0,,,,59.0,,,,,52,note_on,,100.0,59.0,100.0,34656,90.25,192
5348,0.0,,,,62.0,,,,,0,note_on,,100.0,62.0,100.0,34656,90.25,192
5349,0.0,,,,55.0,,,,,0,note_on,,100.0,55.0,100.0,34656,90.25,192
5350,0.0,,,,59.0,,,,,44,note_on,,0.0,59.0,0.0,34700,90.36458333333333,192
5351,0.0,,,,62.0,,,,,0,note_on,,0.0,62.0,0.0,34700,90.36458333333333,192
5352,0.0,,,,55.0,,,,,0,note_on,,0.0,55.0,0.0,34700,90.36458333333333,192
5353,0.0,,,,55.0,,,,,52,note_on,,100.0,55.0,100.0,34752,90.5,192
5354,0.0,,,,62.0,,,,,0,note_on,,100.0,62.0,100.0,34752,90.5,192
5355,0.0,,,,59.0,,,,,0,note_on,,100.0,59.0,100.0,34752,90.5,192
5356,0.0,,,,62.0,,,,,44,note_on,,0.0,62.0,0.0,34796,90.61458333333333,192
5357,0.0,,,,59.0,,,,,0,note_on,,0.0,59.0,0.0,34796,90.61458333333333,192
5358,0.0,,,,55.0,,,,,0,note_on,,0.0,55.0,0.0,34796,90.61458333333333,192
5359,0.0,,,,62.0,,,,,52,note_on,,100.0,62.0,100.0,34848,90.75,192
5360,0.0,,,,59.0,,,,,0,note_on,,100.0,59.0,100.0,34848,90.75,192
5361,0.0,,,,55.0,,,,,0,note_on,,100.0,55.0,100.0,34848,90.75,192
5362,0.0,,,,62.0,,,,,44,note_on,,0.0,62.0,0.0,34892,90.86458333333333,192
5363,0.0,,,,59.0,,,,,0,note_on,,0.0,59.0,0.0,34892,90.86458333333333,192
5364,0.0,,,,55.0,,,,,0,note_on,,0.0,55.0,0.0,34892,90.86458333333333,192
5365,0.0,,,,62.0,,,,,52,note_on,,100.0,62.0,100.0,34944,91.0,192
5366,0.0,,,,55.0,,,,,0,note_on,,100.0,55.0,100.0,34944,91.0,192
5367,0.0,,,,59.0,,,,,0,note_on,,100.0,59.0,100.0,34944,91.0,192
5368,0.0,,,,55.0,,,,,44,note_on,,0.0,55.0,0.0,34988,91.11458333333333,192
5369,0.0,,,,59.0,,,,,0,note_on,,0.0,59.0,0.0,34988,91.11458333333333,192
5370,0.0,,,,62.0,,,,,0,note_on,,0.0,62.0,0.0,34988,91.11458333333333,192
5371,0.0,,,,55.0,,,,,52,note_on,,100.0,55.0,100.0,35040,91.25,192
5372,0.0,,,,62.0,,,,,0,note_on,,100.0,62.0,100.0,35040,91.25,192
5373,0.0,,,,59.0,,,,,0,note_on,,100.0,59.0,100.0,35040,91.25,192
5374,0.0,,,,55.0,,,,,44,note_on,,0.0,55.0,0.0,35084,91.36458333333333,192
5375,0.0,,,,62.0,,,,,0,note_on,,0.0,62.0,0.0,35084,91.36458333333333,192
5376,0.0,,,,59.0,,,,,0,note_on,,0.0,59.0,0.0,35084,91.36458333333333,192
5377,0.0,,,,59.0,,,,,52,note_on,,100.0,59.0,100.0,35136,91.5,192
5378,0.0,,,,62.0,,,,,0,note_on,,100.0,62.0,100.0,35136,91.5,192
5379,0.0,,,,55.0,,,,,0,note_on,,100.0,55.0,100.0,35136,91.5,192
5380,0.0,,,,62.0,,,,,44,note_on,,0.0,62.0,0.0,35180,91.61458333333333,192
5381,0.0,,,,55.0,,,,,0,note_on,,0.0,55.0,0.0,35180,91.61458333333333,192
5382,0.0,,,,59.0,,,,,0,note_on,,0.0,59.0,0.0,35180,91.61458333333333,192
5383,0.0,,,,59.0,,,,,52,note_on,,100.0,59.0,100.0,35232,91.75,192
5384,0.0,,,,55.0,,,,,0,note_on,,100.0,55.0,100.0,35232,91.75,192
5385,0.0,,,,62.0,,,,,0,note_on,,100.0,62.0,100.0,35232,91.75,192
5386,0.0,,,,59.0,,,,,44,note_on,,0.0,59.0,0.0,35276,91.86458333333333,192
5387,0.0,,,,55.0,,,,,0,note_on,,0.0,55.0,0.0,35276,91.86458333333333,192
5388,0.0,,,,62.0,,,,,0,note_on,,0.0,62.0,0.0,35276,91.86458333333333,192
5389,0.0,,,,53.0,,,,,52,note_on,,100.0,53.0,100.0,35328,92.0,192
5390,0.0,,,,57.0,,,,,0,note_on,,100.0,57.0,100.0,35328,92.0,192
5391,0.0,,,,60.0,,,,,0,note_on,,100.0,60.0,100.0,35328,92.0,192
5392,0.0,,,,57.0,,,,,44,note_on,,0.0,57.0,0.0,35372,92.11458333333333,192
5393,0.0,,,,60.0,,,,,0,note_on,,0.0,60.0,0.0,35372,92.11458333333333,192
5394,0.0,,,,53.0,,,,,0,note_on,,0.0,53.0,0.0,35372,92.11458333333333,192
5395,0.0,,,,53.0,,,,,52,note_on,,100.0,53.0,100.0,35424,92.25,192
5396,0.0,,,,57.0,,,,,0,note_on,,100.0,57.0,100.0,35424,92.25,192
5397,0.0,,,,60.0,,,,,0,note_on,,100.0,60.0,100.0,35424,92.25,192
5398,0.0,,,,53.0,,,,,44,note_on,,0.0,53.0,0.0,35468,92.36458333333333,192
5399,0.0,,,,57.0,,,,,0,note_on,,0.0,57.0,0.0,35468,92.36458333333333,192
5400,0.0,,,,60.0,,,,,0,note_on,,0.0,60.0,0.0,35468,92.36458333333333,192
5401,0.0,,,,60.0,,,,,52,note_on,,100.0,60.0,100.0,35520,92.5,192
5402,0.0,,,,57.0,,,,,0,note_on,,100.0,57.0,100.0,35520,92.5,192
5403,0.0,,,,53.0,,,,,0,note_on,,100.0,53.0,100.0,35520,92.5,192
5404,0.0,,,,57.0,,,,,44,note_on,,0.0,57.0,0.0,35564,92.61458333333333,192
5405,0.0,,,,53.0,,,,,0,note_on,,0.0,53.0,0.0,35564,92.61458333333333,192
5406,0.0,,,,60.0,,,,,0,note_on,,0.0,60.0,0.0,35564,92.61458333333333,192
5407,0.0,,,,53.0,,,,,52,note_on,,100.0,53.0,100.0,35616,92.75,192
5408,0.0,,,,60.0,,,,,0,note_on,,100.0,60.0,100.0,35616,92.75,192
5409,0.0,,,,57.0,,,,,0,note_on,,100.0,57.0,100.0,35616,92.75,192
5410,0.0,,,,53.0,,,,,44,note_on,,0.0,53.0,0.0,35660,92.86458333333333,192
5411,0.0,,,,60.0,,,,,0,note_on,,0.0,60.0,0.0,35660,92.86458333333333,192
5412,0.0,,,,57.0,,,,,0,note_on,,0.0,57.0,0.0,35660,92.86458333333333,192
5413,0.0,,,,60.0,,,,,52,note_on,,100.0,60.0,100.0,35712,93.0,192
5414,0.0,,,,53.0,,,,,0,note_on,,100.0,53.0,100.0,35712,93.0,192
5415,0.0,,,,57.0,,,,,0,note_on,,100.0,57.0,100.0,35712,93.0,192
5416,0.0,,,,53.0,,,,,44,note_on,,0.0,53.0,0.0,35756,93.11458333333333,192
5417,0.0,,,,57.0,,,,,0,note_on,,0.0,57.0,0.0,35756,93.11458333333333,192
5418,0.0,,,,60.0,,,,,0,note_on,,0.0,60.0,0.0,35756,93.11458333333333,192
5419,0.0,,,,57.0,,,,,52,note_on,,100.0,57.0,100.0,35808,93.25,192
5420,0.0,,,,53.0,,,,,0,note_on,,100.0,53.0,100.0,35808,93.25,192
5421,0.0,,,,60.0,,,,,0,note_on,,100.0,60.0,100.0,35808,93.25,192
5422,0.0,,,,57.0,,,,,44,note_on,,0.0,57.0,0.0,35852,93.36458333333333,192
5423,0.0,,,,53.0,,,,,0,note_on,,0.0,53.0,0.0,35852,93.36458333333333,192
5424,0.0,,,,60.0,,,,,0,note_on,,0.0,60.0,0.0,35852,93.36458333333333,192
5425,0.0,,,,57.0,,,,,52,note_on,,100.0,57.0,100.0,35904,93.5,192
5426,0.0,,,,60.0,,,,,0,note_on,,100.0,60.0,100.0,35904,93.5,192
5427,0.0,,,,53.0,,,,,0,note_on,,100.0,53.0,100.0,35904,93.5,192
5428,0.0,,,,60.0,,,,,44,note_on,,0.0,60.0,0.0,35948,93.61458333333333,192
5429,0.0,,,,57.0,,,,,0,note_on,,0.0,57.0,0.0,35948,93.61458333333333,192
5430,0.0,,,,53.0,,,,,0,note_on,,0.0,53.0,0.0,35948,93.61458333333333,192
5431,0.0,,,,48.0,,,,,52,note_on,,100.0,48.0,100.0,36000,93.75,192
5432,0.0,,,,48.0,,,,,44,note_on,,0.0,48.0,0.0,36044,93.86458333333333,192
5433,0.0,,,,55.0,,,,,52,note_on,,100.0,55.0,100.0,36096,94.0,192
5434,0.0,,,,60.0,,,,,0,note_on,,100.0,60.0,100.0,36096,94.0,192
5435,0.0,,,,64.0,,,,,0,note_on,,100.0,64.0,100.0,36096,94.0,192
5436,0.0,,,,55.0,,,,,44,note_on,,0.0,55.0,0.0,36140,94.11458333333333,192
5437,0.0,,,,60.0,,,,,0,note_on,,0.0,60.0,0.0,36140,94.11458333333333,192
5438,0.0,,,,64.0,,,,,0,note_on,,0.0,64.0,0.0,36140,94.11458333333333,192
5439,0.0,,,,55.0,,,,,52,note_on,,100.0,55.0,100.0,36192,94.25,192
5440,0.0,,,,64.0,,,,,0,note_on,,100.0,64.0,100.0,36192,94.25,192
5441,0.0,,,,60.0,,,,,0,note_on,,100.0,60.0,100.0,36192,94.25,192
5442,0.0,,,,55.0,,,,,44,note_on,,0.0,55.0,0.0,36236,94.36458333333333,192
5443,0.0,,,,64.0,,,,,0,note_on,,0.0,64.0,0.0,36236,94.36458333333333,192
5444,0.0,,,,60.0,,,,,0,note_on,,0.0,60.0,0.0,36236,94.36458333333333,192
5445,0.0,,,,64.0,,,,,52,note_on,,100.0,64.0,100.0,36288,94.5,192
5446,0.0,,,,55.0,,,,,0,note_on,,100.0,55.0,100.0,36288,94.5,192
5447,0.0,,,,60.0,,,,,0,note_on,,100.0,60.0,100.0,36288,94.5,192
5448,0.0,,,,64.0,,,,,44,note_on,,0.0,64.0,0.0,36332,94.61458333333333,192
5449,0.0,,,,55.0,,,,,0,note_on,,0.0,55.0,0.0,36332,94.61458333333333,192
5450,0.0,,,,60.0,,,,,0,note_on,,0.0,60.0,0.0,36332,94.61458333333333,192
5451,0.0,,,,64.0,,,,,52,note_on,,100.0,64.0,100.0,36384,94.75,192
5452,0.0,,,,55.0,,,,,0,note_on,,100.0,55.0,100.0,36384,94.75,192
5453,0.0,,,,60.0,,,,,0,note_on,,100.0,60.0,100.0,36384,94.75,192
5454,0.0,,,,64.0,,,,,44,note_on,,0.0,64.0,0.0,36428,94.86458333333333,192
5455,0.0,,,,55.0,,,,,0,note_on,,0.0,55.0,0.0,36428,94.86458333333333,192
5456,0.0,,,,60.0,,,,,0,note_on,,0.0,60.0,0.0,36428,94.86458333333333,192
5457,0.0,,,,64.0,,,,,52,note_on,,100.0,64.0,100.0,36480,95.0,192
5458,0.0,,,,60.0,,,,,0,note_on,,100.0,60.0,100.0,36480,95.0,192
5459,0.0,,,,55.0,,,,,0,note_on,,100.0,55.0,100.0,36480,95.0,192
5460,0.0,,,,64.0,,,,,44,note_on,,0.0,64.0,0.0,36524,95.11458333333333,192
5461,0.0,,,,60.0,,,,,0,note_on,,0.0,60.0,0.0,36524,95.11458333333333,192
5462,0.0,,,,55.0,,,,,0,note_on,,0.0,55.0,0.0,36524,95.11458333333333,192
5463,0.0,,,,64.0,,,,,52,note_on,,100.0,64.0,100.0,36576,95.25,192
5464,0.0,,,,60.0,,,,,0,note_on,,100.0,60.0,100.0,36576,95.25,192
5465,0.0,,,,55.0,,,,,0,note_on,,100.0,55.0,100.0,36576,95.25,192
5466,0.0,,,,64.0,,,,,44,note_on,,0.0,64.0,0.0,36620,95.36458333333333,192
5467,0.0,,,,60.0,,,,,0,note_on,,0.0,60.0,0.0,36620,95.36458333333333,192
5468,0.0,,,,55.0,,,,,0,note_on,,0.0,55.0,0.0,36620,95.36458333333333,192
5469,0.0,,,,55.0,,,,,52,note_on,,100.0,55.0,100.0,36672,95.5,192
5470,0.0,,,,60.0,,,,,0,note_on,,100.0,60.0,100.0,36672,95.5,192
5471,0.0,,,,64.0,,,,,0,note_on,,100.0,64.0,100.0,36672,95.5,192
5472,0.0,,,,55.0,,,,,44,note_on,,0.0,55.0,0.0,36716,95.61458333333333,192
5473,0.0,,,,60.0,,,,,0,note_on,,0.0,60.0,0.0,36716,95.61458333333333,192
5474,0.0,,,,64.0,,,,,0,note_on,,0.0,64.0,0.0,36716,95.61458333333333,192
5475,0.0,,,,55.0,,,,,52,note_on,,100.0,55.0,100.0,36768,95.75,192
5476,0.0,,,,60.0,,,,,0,note_on,,100.0,60.0,100.0,36768,95.75,192
5477,0.0,,,,64.0,,,,,0,note_on,,100.0,64.0,100.0,36768,95.75,192
5478,0.0,,,,55.0,,,,,44,note_on,,0.0,55.0,0.0,36812,95.86458333333333,192
5479,0.0,,,,60.0,,,,,0,note_on,,0.0,60.0,0.0,36812,95.86458333333333,192
5480,0.0,,,,64.0,,,,,0,note_on,,0.0,64.0,0.0,36812,95.86458333333333,192
5481,0.0,,,,55.0,,,,,820,note_on,,100.0,55.0,100.0,37632,98.0,192
5482,0.0,,,,62.0,,,,,0,note_on,,100.0,62.0,100.0,37632,98.0,192
5483,0.0,,,,59.0,,,,,0,note_on,,100.0,59.0,100.0,37632,98.0,192
5484,0.0,,,,55.0,,,,,44,note_on,,0.0,55.0,0.0,37676,98.11458333333333,192
5485,0.0,,,,62.0,,,,,0,note_on,,0.0,62.0,0.0,37676,98.11458333333333,192
5486,0.0,,,,59.0,,,,,0,note_on,,0.0,59.0,0.0,37676,98.11458333333333,192
5487,0.0,,,,55.0,,,,,52,note_on,,100.0,55.0,100.0,37728,98.25,192
5488,0.0,,,,59.0,,,,,0,note_on,,100.0,59.0,100.0,37728,98.25,192
5489,0.0,,,,62.0,,,,,0,note_on,,100.0,62.0,100.0,37728,98.25,192
5490,0.0,,,,55.0,,,,,44,note_on,,0.0,55.0,0.0,37772,98.36458333333333,192
5491,0.0,,,,59.0,,,,,0,note_on,,0.0,59.0,0.0,37772,98.36458333333333,192
5492,0.0,,,,62.0,,,,,0,note_on,,0.0,62.0,0.0,37772,98.36458333333333,192
5493,0.0,,,,59.0,,,,,52,note_on,,100.0,59.0,100.0,37824,98.5,192
5494,0.0,,,,62.0,,,,,0,note_on,,100.0,62.0,100.0,37824,98.5,192
5495,0.0,,,,55.0,,,,,0,note_on,,100.0,55.0,100.0,37824,98.5,192
5496,0.0,,,,59.0,,,,,44,note_on,,0.0,59.0,0.0,37868,98.61458333333333,192
5497,0.0,,,,62.0,,,,,0,note_on,,0.0,62.0,0.0,37868,98.61458333333333,192
5498,0.0,,,,55.0,,,,,0,note_on,,0.0,55.0,0.0,37868,98.61458333333333,192
5499,0.0,,,,59.0,,,,,52,note_on,,100.0,59.0,100.0,37920,98.75,192
5500,0.0,,,,62.0,,,,,0,note_on,,100.0,62.0,100.0,37920,98.75,192
5501,0.0,,,,55.0,,,,,0,note_on,,100.0,55.0,100.0,37920,98.75,192
5502,0.0,,,,59.0,,,,,44,note_on,,0.0,59.0,0.0,37964,98.86458333333333,192
5503,0.0,,,,62.0,,,,,0,note_on,,0.0,62.0,0.0,37964,98.86458333333333,192
5504,0.0,,,,55.0,,,,,0,note_on,,0.0,55.0,0.0,37964,98.86458333333333,192
5505,0.0,,,,62.0,,,,,52,note_on,,100.0,62.0,100.0,38016,99.0,192
5506,0.0,,,,55.0,,,,,0,note_on,,100.0,55.0,100.0,38016,99.0,192
5507,0.0,,,,59.0,,,,,0,note_on,,100.0,59.0,100.0,38016,99.0,192
5508,0.0,,,,62.0,,,,,44,note_on,,0.0,62.0,0.0,38060,99.11458333333333,192
5509,0.0,,,,55.0,,,,,0,note_on,,0.0,55.0,0.0,38060,99.11458333333333,192
5510,0.0,,,,59.0,,,,,0,note_on,,0.0,59.0,0.0,38060,99.11458333333333,192
5511,0.0,,,,62.0,,,,,52,note_on,,100.0,62.0,100.0,38112,99.25,192
5512,0.0,,,,59.0,,,,,0,note_on,,100.0,59.0,100.0,38112,99.25,192
5513,0.0,,,,55.0,,,,,0,note_on,,100.0,55.0,100.0,38112,99.25,192
5514,0.0,,,,62.0,,,,,44,note_on,,0.0,62.0,0.0,38156,99.36458333333333,192
5515,0.0,,,,59.0,,,,,0,note_on,,0.0,59.0,0.0,38156,99.36458333333333,192
5516,0.0,,,,55.0,,,,,0,note_on,,0.0,55.0,0.0,38156,99.36458333333333,192
5517,0.0,,,,59.0,,,,,52,note_on,,100.0,59.0,100.0,38208,99.5,192
5518,0.0,,,,62.0,,,,,0,note_on,,100.0,62.0,100.0,38208,99.5,192
5519,0.0,,,,55.0,,,,,0,note_on,,100.0,55.0,100.0,38208,99.5,192
5520,0.0,,,,59.0,,,,,44,note_on,,0.0,59.0,0.0,38252,99.61458333333333,192
5521,0.0,,,,62.0,,,,,0,note_on,,0.0,62.0,0.0,38252,99.61458333333333,192
5522,0.0,,,,55.0,,,,,0,note_on,,0.0,55.0,0.0,38252,99.61458333333333,192
5523,0.0,,,,55.0,,,,,52,note_on,,100.0,55.0,100.0,38304,99.75,192
5524,0.0,,,,59.0,,,,,0,note_on,,100.0,59.0,100.0,38304,99.75,192
5525,0.0,,,,62.0,,,,,0,note_on,,100.0,62.0,100.0,38304,99.75,192
5526,0.0,,,,55.0,,,,,44,note_on,,0.0,55.0,0.0,38348,99.86458333333333,192
5527,0.0,,,,59.0,,,,,0,note_on,,0.0,59.0,0.0,38348,99.86458333333333,192
5528,0.0,,,,62.0,,,,,0,note_on,,0.0,62.0,0.0,38348,99.86458333333333,192
5529,0.0,,,,60.0,,,,,52,note_on,,100.0,60.0,100.0,38400,100.0,192
5530,0.0,,,,57.0,,,,,0,note_on,,100.0,57.0,100.0,38400,100.0,192
5531,0.0,,,,53.0,,,,,0,note_on,,100.0,53.0,100.0,38400,100.0,192
5532,0.0,,,,60.0,,,,,44,note_on,,0.0,60.0,0.0,38444,100.11458333333333,192
5533,0.0,,,,57.0,,,,,0,note_on,,0.0,57.0,0.0,38444,100.11458333333333,192
5534,0.0,,,,53.0,,,,,0,note_on,,0.0,53.0,0.0,38444,100.11458333333333,192
5535,0.0,,,,53.0,,,,,52,note_on,,100.0,53.0,100.0,38496,100.25,192
5536,0.0,,,,60.0,,,,,0,note_on,,100.0,60.0,100.0,38496,100.25,192
5537,0.0,,,,57.0,,,,,0,note_on,,100.0,57.0,100.0,38496,100.25,192
5538,0.0,,,,53.0,,,,,44,note_on,,0.0,53.0,0.0,38540,100.36458333333333,192
5539,0.0,,,,60.0,,,,,0,note_on,,0.0,60.0,0.0,38540,100.36458333333333,192
5540,0.0,,,,57.0,,,,,0,note_on,,0.0,57.0,0.0,38540,100.36458333333333,192
5541,0.0,,,,60.0,,,,,52,note_on,,100.0,60.0,100.0,38592,100.5,192
5542,0.0,,,,57.0,,,,,0,note_on,,100.0,57.0,100.0,38592,100.5,192
5543,0.0,,,,53.0,,,,,0,note_on,,100.0,53.0,100.0,38592,100.5,192
5544,0.0,,,,60.0,,,,,44,note_on,,0.0,60.0,0.0,38636,100.61458333333333,192
5545,0.0,,,,57.0,,,,,0,note_on,,0.0,57.0,0.0,38636,100.61458333333333,192
5546,0.0,,,,53.0,,,,,0,note_on,,0.0,53.0,0.0,38636,100.61458333333333,192
5547,0.0,,,,60.0,,,,,52,note_on,,100.0,60.0,100.0,38688,100.75,192
5548,0.0,,,,53.0,,,,,0,note_on,,100.0,53.0,100.0,38688,100.75,192
5549,0.0,,,,57.0,,,,,0,note_on,,100.0,57.0,100.0,38688,100.75,192
5550,0.0,,,,60.0,,,,,44,note_on,,0.0,60.0,0.0,38732,100.86458333333333,192
5551,0.0,,,,53.0,,,,,0,note_on,,0.0,53.0,0.0,38732,100.86458333333333,192
5552,0.0,,,,57.0,,,,,0,note_on,,0.0,57.0,0.0,38732,100.86458333333333,192
5553,0.0,,,,60.0,,,,,52,note_on,,100.0,60.0,100.0,38784,101.0,192
5554,0.0,,,,53.0,,,,,0,note_on,,100.0,53.0,100.0,38784,101.0,192
5555,0.0,,,,57.0,,,,,0,note_on,,100.0,57.0,100.0,38784,101.0,192
5556,0.0,,,,60.0,,,,,44,note_on,,0.0,60.0,0.0,38828,101.11458333333333,192
5557,0.0,,,,53.0,,,,,0,note_on,,0.0,53.0,0.0,38828,101.11458333333333,192
5558,0.0,,,,57.0,,,,,0,note_on,,0.0,57.0,0.0,38828,101.11458333333333,192
5559,0.0,,,,57.0,,,,,52,note_on,,100.0,57.0,100.0,38880,101.25,192
5560,0.0,,,,53.0,,,,,0,note_on,,100.0,53.0,100.0,38880,101.25,192
5561,0.0,,,,60.0,,,,,0,note_on,,100.0,60.0,100.0,38880,101.25,192
5562,0.0,,,,57.0,,,,,44,note_on,,0.0,57.0,0.0,38924,101.36458333333333,192
5563,0.0,,,,53.0,,,,,0,note_on,,0.0,53.0,0.0,38924,101.36458333333333,192
5564,0.0,,,,60.0,,,,,0,note_on,,0.0,60.0,0.0,38924,101.36458333333333,192
5565,0.0,,,,60.0,,,,,52,note_on,,100.0,60.0,100.0,38976,101.5,192
5566,0.0,,,,53.0,,,,,0,note_on,,100.0,53.0,100.0,38976,101.5,192
5567,0.0,,,,57.0,,,,,0,note_on,,100.0,57.0,100.0,38976,101.5,192
5568,0.0,,,,60.0,,,,,44,note_on,,0.0,60.0,0.0,39020,101.61458333333333,192
5569,0.0,,,,57.0,,,,,0,note_on,,0.0,57.0,0.0,39020,101.61458333333333,192
5570,0.0,,,,53.0,,,,,0,note_on,,0.0,53.0,0.0,39020,101.61458333333333,192
5571,0.0,,,,48.0,,,,,52,note_on,,100.0,48.0,100.0,39072,101.75,192
5572,0.0,,,,48.0,,,,,44,note_on,,0.0,48.0,0.0,39116,101.86458333333333,192
5573,0.0,,,,60.0,,,,,52,note_on,,100.0,60.0,100.0,39168,102.0,192
5574,0.0,,,,64.0,,,,,0,note_on,,100.0,64.0,100.0,39168,102.0,192
5575,0.0,,,,55.0,,,,,0,note_on,,100.0,55.0,100.0,39168,102.0,192
5576,0.0,,,,60.0,,,,,44,note_on,,0.0,60.0,0.0,39212,102.11458333333333,192
5577,0.0,,,,64.0,,,,,0,note_on,,0.0,64.0,0.0,39212,102.11458333333333,192
5578,0.0,,,,55.0,,,,,0,note_on,,0.0,55.0,0.0,39212,102.11458333333333,192
5579,0.0,,,,60.0,,,,,52,note_on,,100.0,60.0,100.0,39264,102.25,192
5580,0.0,,,,64.0,,,,,0,note_on,,100.0,64.0,100.0,39264,102.25,192
5581,0.0,,,,55.0,,,,,0,note_on,,100.0,55.0,100.0,39264,102.25,192
5582,0.0,,,,55.0,,,,,44,note_on,,0.0,55.0,0.0,39308,102.36458333333333,192
5583,0.0,,,,60.0,,,,,0,note_on,,0.0,60.0,0.0,39308,102.36458333333333,192
5584,0.0,,,,64.0,,,,,0,note_on,,0.0,64.0,0.0,39308,102.36458333333333,192
5585,0.0,,,,55.0,,,,,52,note_on,,100.0,55.0,100.0,39360,102.5,192
5586,0.0,,,,60.0,,,,,0,note_on,,100.0,60.0,100.0,39360,102.5,192
5587,0.0,,,,64.0,,,,,0,note_on,,100.0,64.0,100.0,39360,102.5,192
5588,0.0,,,,55.0,,,,,44,note_on,,0.0,55.0,0.0,39404,102.61458333333333,192
5589,0.0,,,,60.0,,,,,0,note_on,,0.0,60.0,0.0,39404,102.61458333333333,192
5590,0.0,,,,64.0,,,,,0,note_on,,0.0,64.0,0.0,39404,102.61458333333333,192
5591,0.0,,,,60.0,,,,,52,note_on,,100.0,60.0,100.0,39456,102.75,192
5592,0.0,,,,55.0,,,,,0,note_on,,100.0,55.0,100.0,39456,102.75,192
5593,0.0,,,,64.0,,,,,0,note_on,,100.0,64.0,100.0,39456,102.75,192
5594,0.0,,,,64.0,,,,,44,note_on,,0.0,64.0,0.0,39500,102.86458333333333,192
5595,0.0,,,,60.0,,,,,0,note_on,,0.0,60.0,0.0,39500,102.86458333333333,192
5596,0.0,,,,55.0,,,,,0,note_on,,0.0,55.0,0.0,39500,102.86458333333333,192
5597,0.0,,,,64.0,,,,,52,note_on,,100.0,64.0,100.0,39552,103.0,192
5598,0.0,,,,60.0,,,,,0,note_on,,100.0,60.0,100.0,39552,103.0,192
5599,0.0,,,,55.0,,,,,0,note_on,,100.0,55.0,100.0,39552,103.0,192
5600,0.0,,,,64.0,,,,,44,note_on,,0.0,64.0,0.0,39596,103.11458333333333,192
5601,0.0,,,,60.0,,,,,0,note_on,,0.0,60.0,0.0,39596,103.11458333333333,192
5602,0.0,,,,55.0,,,,,0,note_on,,0.0,55.0,0.0,39596,103.11458333333333,192
5603,0.0,,,,64.0,,,,,52,note_on,,100.0,64.0,100.0,39648,103.25,192
5604,0.0,,,,60.0,,,,,0,note_on,,100.0,60.0,100.0,39648,103.25,192
5605,0.0,,,,55.0,,,,,0,note_on,,100.0,55.0,100.0,39648,103.25,192
5606,0.0,,,,55.0,,,,,44,note_on,,0.0,55.0,0.0,39692,103.36458333333333,192
5607,0.0,,,,64.0,,,,,0,note_on,,0.0,64.0,0.0,39692,103.36458333333333,192
5608,0.0,,,,60.0,,,,,0,note_on,,0.0,60.0,0.0,39692,103.36458333333333,192
5609,0.0,,,,64.0,,,,,52,note_on,,100.0,64.0,100.0,39744,103.5,192
5610,0.0,,,,55.0,,,,,0,note_on,,100.0,55.0,100.0,39744,103.5,192
5611,0.0,,,,60.0,,,,,0,note_on,,100.0,60.0,100.0,39744,103.5,192
5612,0.0,,,,64.0,,,,,44,note_on,,0.0,64.0,0.0,39788,103.61458333333333,192
5613,0.0,,,,55.0,,,,,0,note_on,,0.0,55.0,0.0,39788,103.61458333333333,192
5614,0.0,,,,60.0,,,,,0,note_on,,0.0,60.0,0.0,39788,103.61458333333333,192
5615,0.0,,,,60.0,,,,,52,note_on,,100.0,60.0,100.0,39840,103.75,192
5616,0.0,,,,64.0,,,,,0,note_on,,100.0,64.0,100.0,39840,103.75,192
5617,0.0,,,,55.0,,,,,0,note_on,,100.0,55.0,100.0,39840,103.75,192
5618,0.0,,,,55.0,,,,,44,note_on,,0.0,55.0,0.0,39884,103.86458333333333,192
5619,0.0,,,,60.0,,,,,0,note_on,,0.0,60.0,0.0,39884,103.86458333333333,192
5620,0.0,,,,64.0,,,,,0,note_on,,0.0,64.0,0.0,39884,103.86458333333333,192
5621,0.0,,,,62.0,,,,,52,note_on,,100.0,62.0,100.0,39936,104.0,192
5622,0.0,,,,55.0,,,,,0,note_on,,100.0,55.0,100.0,39936,104.0,192
5623,0.0,,,,59.0,,,,,0,note_on,,100.0,59.0,100.0,39936,104.0,192
5624,0.0,,,,62.0,,,,,44,note_on,,0.0,62.0,0.0,39980,104.11458333333333,192
5625,0.0,,,,55.0,,,,,0,note_on,,0.0,55.0,0.0,39980,104.11458333333333,192
5626,0.0,,,,59.0,,,,,0,note_on,,0.0,59.0,0.0,39980,104.11458333333333,192
5627,0.0,,,,55.0,,,,,52,note_on,,100.0,55.0,100.0,40032,104.25,192
5628,0.0,,,,62.0,,,,,0,note_on,,100.0,62.0,100.0,40032,104.25,192
5629,0.0,,,,59.0,,,,,0,note_on,,100.0,59.0,100.0,40032,104.25,192
5630,0.0,,,,59.0,,,,,44,note_on,,0.0,59.0,0.0,40076,104.36458333333333,192
5631,0.0,,,,55.0,,,,,0,note_on,,0.0,55.0,0.0,40076,104.36458333333333,192
5632,0.0,,,,62.0,,,,,0,note_on,,0.0,62.0,0.0,40076,104.36458333333333,192
5633,0.0,,,,62.0,,,,,52,note_on,,100.0,62.0,100.0,40128,104.5,192
5634,0.0,,,,59.0,,,,,0,note_on,,100.0,59.0,100.0,40128,104.5,192
5635,0.0,,,,55.0,,,,,0,note_on,,100.0,55.0,100.0,40128,104.5,192
5636,0.0,,,,62.0,,,,,44,note_on,,0.0,62.0,0.0,40172,104.61458333333333,192
5637,0.0,,,,59.0,,,,,0,note_on,,0.0,59.0,0.0,40172,104.61458333333333,192
5638,0.0,,,,55.0,,,,,0,note_on,,0.0,55.0,0.0,40172,104.61458333333333,192
5639,0.0,,,,62.0,,,,,52,note_on,,100.0,62.0,100.0,40224,104.75,192
5640,0.0,,,,55.0,,,,,0,note_on,,100.0,55.0,100.0,40224,104.75,192
5641,0.0,,,,59.0,,,,,0,note_on,,100.0,59.0,100.0,40224,104.75,192
5642,0.0,,,,59.0,,,,,44,note_on,,0.0,59.0,0.0,40268,104.86458333333333,192
5643,0.0,,,,62.0,,,,,0,note_on,,0.0,62.0,0.0,40268,104.86458333333333,192
5644,0.0,,,,55.0,,,,,0,note_on,,0.0,55.0,0.0,40268,104.86458333333333,192
5645,0.0,,,,62.0,,,,,52,note_on,,100.0,62.0,100.0,40320,105.0,192
5646,0.0,,,,55.0,,,,,0,note_on,,100.0,55.0,100.0,40320,105.0,192
5647,0.0,,,,59.0,,,,,0,note_on,,100.0,59.0,100.0,40320,105.0,192
5648,0.0,,,,62.0,,,,,44,note_on,,0.0,62.0,0.0,40364,105.11458333333333,192
5649,0.0,,,,55.0,,,,,0,note_on,,0.0,55.0,0.0,40364,105.11458333333333,192
5650,0.0,,,,59.0,,,,,0,note_on,,0.0,59.0,0.0,40364,105.11458333333333,192
5651,0.0,,,,62.0,,,,,52,note_on,,100.0,62.0,100.0,40416,105.25,192
5652,0.0,,,,55.0,,,,,0,note_on,,100.0,55.0,100.0,40416,105.25,192
5653,0.0,,,,59.0,,,,,0,note_on,,100.0,59.0,100.0,40416,105.25,192
5654,0.0,,,,59.0,,,,,44,note_on,,0.0,59.0,0.0,40460,105.36458333333333,192
5655,0.0,,,,62.0,,,,,0,note_on,,0.0,62.0,0.0,40460,105.36458333333333,192
5656,0.0,,,,55.0,,,,,0,note_on,,0.0,55.0,0.0,40460,105.36458333333333,192
5657,0.0,,,,55.0,,,,,52,note_on,,100.0,55.0,100.0,40512,105.5,192
5658,0.0,,,,59.0,,,,,0,note_on,,100.0,59.0,100.0,40512,105.5,192
5659,0.0,,,,62.0,,,,,0,note_on,,100.0,62.0,100.0,40512,105.5,192
5660,0.0,,,,55.0,,,,,44,note_on,,0.0,55.0,0.0,40556,105.61458333333333,192
5661,0.0,,,,59.0,,,,,0,note_on,,0.0,59.0,0.0,40556,105.61458333333333,192
5662,0.0,,,,62.0,,,,,0,note_on,,0.0,62.0,0.0,40556,105.61458333333333,192
5663,0.0,,,,55.0,,,,,52,note_on,,100.0,55.0,100.0,40608,105.75,192
5664,0.0,,,,59.0,,,,,0,note_on,,100.0,59.0,100.0,40608,105.75,192
5665,0.0,,,,62.0,,,,,0,note_on,,100.0,62.0,100.0,40608,105.75,192
5666,0.0,,,,55.0,,,,,44,note_on,,0.0,55.0,0.0,40652,105.86458333333333,192
5667,0.0,,,,59.0,,,,,0,note_on,,0.0,59.0,0.0,40652,105.86458333333333,192
5668,0.0,,,,62.0,,,,,0,note_on,,0.0,62.0,0.0,40652,105.86458333333333,192
5669,0.0,,,,59.0,,,,,52,note_on,,100.0,59.0,100.0,40704,106.0,192
5670,0.0,,,,62.0,,,,,0,note_on,,100.0,62.0,100.0,40704,106.0,192
5671,0.0,,,,55.0,,,,,0,note_on,,100.0,55.0,100.0,40704,106.0,192
5672,0.0,,,,62.0,,,,,44,note_on,,0.0,62.0,0.0,40748,106.11458333333333,192
5673,0.0,,,,55.0,,,,,0,note_on,,0.0,55.0,0.0,40748,106.11458333333333,192
5674,0.0,,,,59.0,,,,,0,note_on,,0.0,59.0,0.0,40748,106.11458333333333,192
5675,0.0,,,,59.0,,,,,52,note_on,,100.0,59.0,100.0,40800,106.25,192
5676,0.0,,,,62.0,,,,,0,note_on,,100.0,62.0,100.0,40800,106.25,192
5677,0.0,,,,55.0,,,,,0,note_on,,100.0,55.0,100.0,40800,106.25,192
5678,0.0,,,,59.0,,,,,44,note_on,,0.0,59.0,0.0,40844,106.36458333333333,192
5679,0.0,,,,62.0,,,,,0,note_on,,0.0,62.0,0.0,40844,106.36458333333333,192
5680,0.0,,,,55.0,,,,,0,note_on,,0.0,55.0,0.0,40844,106.36458333333333,192
5681,0.0,,,,59.0,,,,,52,note_on,,100.0,59.0,100.0,40896,106.5,192
5682,0.0,,,,62.0,,,,,0,note_on,,100.0,62.0,100.0,40896,106.5,192
5683,0.0,,,,55.0,,,,,0,note_on,,100.0,55.0,100.0,40896,106.5,192
5684,0.0,,,,62.0,,,,,44,note_on,,0.0,62.0,0.0,40940,106.61458333333333,192
5685,0.0,,,,55.0,,,,,0,note_on,,0.0,55.0,0.0,40940,106.61458333333333,192
5686,0.0,,,,59.0,,,,,0,note_on,,0.0,59.0,0.0,40940,106.61458333333333,192
5687,0.0,,,,55.0,,,,,52,note_on,,100.0,55.0,100.0,40992,106.75,192
5688,0.0,,,,59.0,,,,,0,note_on,,100.0,59.0,100.0,40992,106.75,192
5689,0.0,,,,62.0,,,,,0,note_on,,100.0,62.0,100.0,40992,106.75,192
5690,0.0,,,,55.0,,,,,44,note_on,,0.0,55.0,0.0,41036,106.86458333333333,192
5691,0.0,,,,59.0,,,,,0,note_on,,0.0,59.0,0.0,41036,106.86458333333333,192
5692,0.0,,,,62.0,,,,,0,note_on,,0.0,62.0,0.0,41036,106.86458333333333,192
5693,0.0,,,,55.0,,,,,52,note_on,,100.0,55.0,100.0,41088,107.0,192
5694,0.0,,,,59.0,,,,,0,note_on,,100.0,59.0,100.0,41088,107.0,192
5695,0.0,,,,62.0,,,,,0,note_on,,100.0,62.0,100.0,41088,107.0,192
5696,0.0,,,,59.0,,,,,44,note_on,,0.0,59.0,0.0,41132,107.11458333333333,192
5697,0.0,,,,62.0,,,,,0,note_on,,0.0,62.0,0.0,41132,107.11458333333333,192
5698,0.0,,,,55.0,,,,,0,note_on,,0.0,55.0,0.0,41132,107.11458333333333,192
5699,0.0,,,,59.0,,,,,52,note_on,,100.0,59.0,100.0,41184,107.25,192
5700,0.0,,,,62.0,,,,,0,note_on,,100.0,62.0,100.0,41184,107.25,192
5701,0.0,,,,55.0,,,,,0,note_on,,100.0,55.0,100.0,41184,107.25,192
5702,0.0,,,,59.0,,,,,44,note_on,,0.0,59.0,0.0,41228,107.36458333333333,192
5703,0.0,,,,62.0,,,,,0,note_on,,0.0,62.0,0.0,41228,107.36458333333333,192
5704,0.0,,,,55.0,,,,,0,note_on,,0.0,55.0,0.0,41228,107.36458333333333,192
5705,0.0,,,,62.0,,,,,52,note_on,,100.0,62.0,100.0,41280,107.5,192
5706,0.0,,,,59.0,,,,,0,note_on,,100.0,59.0,100.0,41280,107.5,192
5707,0.0,,,,55.0,,,,,0,note_on,,100.0,55.0,100.0,41280,107.5,192
5708,0.0,,,,59.0,,,,,44,note_on,,0.0,59.0,0.0,41324,107.61458333333333,192
5709,0.0,,,,55.0,,,,,0,note_on,,0.0,55.0,0.0,41324,107.61458333333333,192
5710,0.0,,,,62.0,,,,,0,note_on,,0.0,62.0,0.0,41324,107.61458333333333,192
5711,0.0,,,,62.0,,,,,52,note_on,,100.0,62.0,100.0,41376,107.75,192
5712,0.0,,,,59.0,,,,,0,note_on,,100.0,59.0,100.0,41376,107.75,192
5713,0.0,,,,55.0,,,,,0,note_on,,100.0,55.0,100.0,41376,107.75,192
5714,0.0,,,,62.0,,,,,44,note_on,,0.0,62.0,0.0,41420,107.86458333333333,192
5715,0.0,,,,59.0,,,,,0,note_on,,0.0,59.0,0.0,41420,107.86458333333333,192
5716,0.0,,,,55.0,,,,,0,note_on,,0.0,55.0,0.0,41420,107.86458333333333,192
5717,0.0,,,,60.0,,,,,52,note_on,,100.0,60.0,100.0,41472,108.0,192
5718,0.0,,,,57.0,,,,,0,note_on,,100.0,57.0,100.0,41472,108.0,192
5719,0.0,,,,53.0,,,,,0,note_on,,100.0,53.0,100.0,41472,108.0,192
5720,0.0,,,,57.0,,,,,44,note_on,,0.0,57.0,0.0,41516,108.11458333333333,192
5721,0.0,,,,53.0,,,,,0,note_on,,0.0,53.0,0.0,41516,108.11458333333333,192
5722,0.0,,,,60.0,,,,,0,note_on,,0.0,60.0,0.0,41516,108.11458333333333,192
5723,0.0,,,,53.0,,,,,52,note_on,,100.0,53.0,100.0,41568,108.25,192
5724,0.0,,,,60.0,,,,,0,note_on,,100.0,60.0,100.0,41568,108.25,192
5725,0.0,,,,57.0,,,,,0,note_on,,100.0,57.0,100.0,41568,108.25,192
5726,0.0,,,,53.0,,,,,44,note_on,,0.0,53.0,0.0,41612,108.36458333333333,192
5727,0.0,,,,60.0,,,,,0,note_on,,0.0,60.0,0.0,41612,108.36458333333333,192
5728,0.0,,,,57.0,,,,,0,note_on,,0.0,57.0,0.0,41612,108.36458333333333,192
5729,0.0,,,,53.0,,,,,52,note_on,,100.0,53.0,100.0,41664,108.5,192
5730,0.0,,,,60.0,,,,,0,note_on,,100.0,60.0,100.0,41664,108.5,192
5731,0.0,,,,57.0,,,,,0,note_on,,100.0,57.0,100.0,41664,108.5,192
5732,0.0,,,,60.0,,,,,44,note_on,,0.0,60.0,0.0,41708,108.61458333333333,192
5733,0.0,,,,57.0,,,,,0,note_on,,0.0,57.0,0.0,41708,108.61458333333333,192
5734,0.0,,,,53.0,,,,,0,note_on,,0.0,53.0,0.0,41708,108.61458333333333,192
5735,0.0,,,,60.0,,,,,52,note_on,,100.0,60.0,100.0,41760,108.75,192
5736,0.0,,,,53.0,,,,,0,note_on,,100.0,53.0,100.0,41760,108.75,192
5737,0.0,,,,57.0,,,,,0,note_on,,100.0,57.0,100.0,41760,108.75,192
5738,0.0,,,,60.0,,,,,44,note_on,,0.0,60.0,0.0,41804,108.86458333333333,192
5739,0.0,,,,53.0,,,,,0,note_on,,0.0,53.0,0.0,41804,108.86458333333333,192
5740,0.0,,,,57.0,,,,,0,note_on,,0.0,57.0,0.0,41804,108.86458333333333,192
5741,0.0,,,,53.0,,,,,52,note_on,,100.0,53.0,100.0,41856,109.0,192
5742,0.0,,,,60.0,,,,,0,note_on,,100.0,60.0,100.0,41856,109.0,192
5743,0.0,,,,57.0,,,,,0,note_on,,100.0,57.0,100.0,41856,109.0,192
5744,0.0,,,,60.0,,,,,44,note_on,,0.0,60.0,0.0,41900,109.11458333333333,192
5745,0.0,,,,57.0,,,,,0,note_on,,0.0,57.0,0.0,41900,109.11458333333333,192
5746,0.0,,,,53.0,,,,,0,note_on,,0.0,53.0,0.0,41900,109.11458333333333,192
5747,0.0,,,,53.0,,,,,52,note_on,,100.0,53.0,100.0,41952,109.25,192
5748,0.0,,,,57.0,,,,,0,note_on,,100.0,57.0,100.0,41952,109.25,192
5749,0.0,,,,60.0,,,,,0,note_on,,100.0,60.0,100.0,41952,109.25,192
5750,0.0,,,,53.0,,,,,44,note_on,,0.0,53.0,0.0,41996,109.36458333333333,192
5751,0.0,,,,57.0,,,,,0,note_on,,0.0,57.0,0.0,41996,109.36458333333333,192
5752,0.0,,,,60.0,,,,,0,note_on,,0.0,60.0,0.0,41996,109.36458333333333,192
5753,0.0,,,,53.0,,,,,52,note_on,,100.0,53.0,100.0,42048,109.5,192
5754,0.0,,,,60.0,,,,,0,note_on,,100.0,60.0,100.0,42048,109.5,192
5755,0.0,,,,57.0,,,,,0,note_on,,100.0,57.0,100.0,42048,109.5,192
5756,0.0,,,,60.0,,,,,44,note_on,,0.0,60.0,0.0,42092,109.61458333333333,192
5757,0.0,,,,53.0,,,,,0,note_on,,0.0,53.0,0.0,42092,109.61458333333333,192
5758,0.0,,,,57.0,,,,,0,note_on,,0.0,57.0,0.0,42092,109.61458333333333,192
5759,0.0,,,,48.0,,,,,52,note_on,,100.0,48.0,100.0,42144,109.75,192
5760,0.0,,,,48.0,,,,,44,note_on,,0.0,48.0,0.0,42188,109.86458333333333,192
5761,0.0,,,,55.0,,,,,52,note_on,,100.0,55.0,100.0,42240,110.0,192
5762,0.0,,,,60.0,,,,,0,note_on,,100.0,60.0,100.0,42240,110.0,192
5763,0.0,,,,64.0,,,,,0,note_on,,100.0,64.0,100.0,42240,110.0,192
5764,0.0,,,,55.0,,,,,44,note_on,,0.0,55.0,0.0,42284,110.11458333333333,192
5765,0.0,,,,60.0,,,,,0,note_on,,0.0,60.0,0.0,42284,110.11458333333333,192
5766,0.0,,,,64.0,,,,,0,note_on,,0.0,64.0,0.0,42284,110.11458333333333,192
5767,0.0,,,,64.0,,,,,52,note_on,,100.0,64.0,100.0,42336,110.25,192
5768,0.0,,,,60.0,,,,,0,note_on,,100.0,60.0,100.0,42336,110.25,192
5769,0.0,,,,55.0,,,,,0,note_on,,100.0,55.0,100.0,42336,110.25,192
5770,0.0,,,,64.0,,,,,44,note_on,,0.0,64.0,0.0,42380,110.36458333333333,192
5771,0.0,,,,60.0,,,,,0,note_on,,0.0,60.0,0.0,42380,110.36458333333333,192
5772,0.0,,,,55.0,,,,,0,note_on,,0.0,55.0,0.0,42380,110.36458333333333,192
5773,0.0,,,,55.0,,,,,52,note_on,,100.0,55.0,100.0,42432,110.5,192
5774,0.0,,,,60.0,,,,,0,note_on,,100.0,60.0,100.0,42432,110.5,192
5775,0.0,,,,64.0,,,,,0,note_on,,100.0,64.0,100.0,42432,110.5,192
5776,0.0,,,,55.0,,,,,44,note_on,,0.0,55.0,0.0,42476,110.61458333333333,192
5777,0.0,,,,60.0,,,,,0,note_on,,0.0,60.0,0.0,42476,110.61458333333333,192
5778,0.0,,,,64.0,,,,,0,note_on,,0.0,64.0,0.0,42476,110.61458333333333,192
5779,0.0,,,,64.0,,,,,52,note_on,,100.0,64.0,100.0,42528,110.75,192
5780,0.0,,,,55.0,,,,,0,note_on,,100.0,55.0,100.0,42528,110.75,192
5781,0.0,,,,60.0,,,,,0,note_on,,100.0,60.0,100.0,42528,110.75,192
5782,0.0,,,,64.0,,,,,44,note_on,,0.0,64.0,0.0,42572,110.86458333333333,192
5783,0.0,,,,55.0,,,,,0,note_on,,0.0,55.0,0.0,42572,110.86458333333333,192
5784,0.0,,,,60.0,,,,,0,note_on,,0.0,60.0,0.0,42572,110.86458333333333,192
5785,0.0,,,,60.0,,,,,52,note_on,,100.0,60.0,100.0,42624,111.0,192
5786,0.0,,,,55.0,,,,,0,note_on,,100.0,55.0,100.0,42624,111.0,192
5787,0.0,,,,64.0,,,,,0,note_on,,100.0,64.0,100.0,42624,111.0,192
5788,0.0,,,,60.0,,,,,44,note_on,,0.0,60.0,0.0,42668,111.11458333333333,192
5789,0.0,,,,55.0,,,,,0,note_on,,0.0,55.0,0.0,42668,111.11458333333333,192
5790,0.0,,,,64.0,,,,,0,note_on,,0.0,64.0,0.0,42668,111.11458333333333,192
5791,0.0,,,,60.0,,,,,52,note_on,,100.0,60.0,100.0,42720,111.25,192
5792,0.0,,,,64.0,,,,,0,note_on,,100.0,64.0,100.0,42720,111.25,192
5793,0.0,,,,55.0,,,,,0,note_on,,100.0,55.0,100.0,42720,111.25,192
5794,0.0,,,,60.0,,,,,44,note_on,,0.0,60.0,0.0,42764,111.36458333333333,192
5795,0.0,,,,64.0,,,,,0,note_on,,0.0,64.0,0.0,42764,111.36458333333333,192
5796,0.0,,,,55.0,,,,,0,note_on,,0.0,55.0,0.0,42764,111.36458333333333,192
5797,0.0,,,,64.0,,,,,52,note_on,,100.0,64.0,100.0,42816,111.5,192
5798,0.0,,,,60.0,,,,,0,note_on,,100.0,60.0,100.0,42816,111.5,192
5799,0.0,,,,55.0,,,,,0,note_on,,100.0,55.0,100.0,42816,111.5,192
5800,0.0,,,,64.0,,,,,44,note_on,,0.0,64.0,0.0,42860,111.61458333333333,192
5801,0.0,,,,60.0,,,,,0,note_on,,0.0,60.0,0.0,42860,111.61458333333333,192
5802,0.0,,,,55.0,,,,,0,note_on,,0.0,55.0,0.0,42860,111.61458333333333,192
5803,0.0,,,,55.0,,,,,52,note_on,,100.0,55.0,100.0,42912,111.75,192
5804,0.0,,,,60.0,,,,,0,note_on,,100.0,60.0,100.0,42912,111.75,192
5805,0.0,,,,64.0,,,,,0,note_on,,100.0,64.0,100.0,42912,111.75,192
5806,0.0,,,,55.0,,,,,44,note_on,,0.0,55.0,0.0,42956,111.86458333333333,192
5807,0.0,,,,60.0,,,,,0,note_on,,0.0,60.0,0.0,42956,111.86458333333333,192
5808,0.0,,,,64.0,,,,,0,note_on,,0.0,64.0,0.0,42956,111.86458333333333,192
5809,0.0,,,,62.0,,,,,52,note_on,,100.0,62.0,100.0,43008,112.0,192
5810,0.0,,,,55.0,,,,,0,note_on,,100.0,55.0,100.0,43008,112.0,192
5811,0.0,,,,59.0,,,,,0,note_on,,100.0,59.0,100.0,43008,112.0,192
5812,0.0,,,,62.0,,,,,44,note_on,,0.0,62.0,0.0,43052,112.11458333333333,192
5813,0.0,,,,55.0,,,,,0,note_on,,0.0,55.0,0.0,43052,112.11458333333333,192
5814,0.0,,,,59.0,,,,,0,note_on,,0.0,59.0,0.0,43052,112.11458333333333,192
5815,0.0,,,,59.0,,,,,52,note_on,,100.0,59.0,100.0,43104,112.25,192
5816,0.0,,,,62.0,,,,,0,note_on,,100.0,62.0,100.0,43104,112.25,192
5817,0.0,,,,55.0,,,,,0,note_on,,100.0,55.0,100.0,43104,112.25,192
5818,0.0,,,,59.0,,,,,44,note_on,,0.0,59.0,0.0,43148,112.36458333333333,192
5819,0.0,,,,62.0,,,,,0,note_on,,0.0,62.0,0.0,43148,112.36458333333333,192
5820,0.0,,,,55.0,,,,,0,note_on,,0.0,55.0,0.0,43148,112.36458333333333,192
5821,0.0,,,,59.0,,,,,52,note_on,,100.0,59.0,100.0,43200,112.5,192
5822,0.0,,,,62.0,,,,,0,note_on,,100.0,62.0,100.0,43200,112.5,192
5823,0.0,,,,55.0,,,,,0,note_on,,100.0,55.0,100.0,43200,112.5,192
5824,0.0,,,,59.0,,,,,44,note_on,,0.0,59.0,0.0,43244,112.61458333333333,192
5825,0.0,,,,62.0,,,,,0,note_on,,0.0,62.0,0.0,43244,112.61458333333333,192
5826,0.0,,,,55.0,,,,,0,note_on,,0.0,55.0,0.0,43244,112.61458333333333,192
5827,0.0,,,,59.0,,,,,52,note_on,,100.0,59.0,100.0,43296,112.75,192
5828,0.0,,,,62.0,,,,,0,note_on,,100.0,62.0,100.0,43296,112.75,192
5829,0.0,,,,55.0,,,,,0,note_on,,100.0,55.0,100.0,43296,112.75,192
5830,0.0,,,,59.0,,,,,44,note_on,,0.0,59.0,0.0,43340,112.86458333333333,192
5831,0.0,,,,62.0,,,,,0,note_on,,0.0,62.0,0.0,43340,112.86458333333333,192
5832,0.0,,,,55.0,,,,,0,note_on,,0.0,55.0,0.0,43340,112.86458333333333,192
5833,0.0,,,,55.0,,,,,52,note_on,,100.0,55.0,100.0,43392,113.0,192
5834,0.0,,,,59.0,,,,,0,note_on,,100.0,59.0,100.0,43392,113.0,192
5835,0.0,,,,62.0,,,,,0,note_on,,100.0,62.0,100.0,43392,113.0,192
5836,0.0,,,,55.0,,,,,44,note_on,,0.0,55.0,0.0,43436,113.11458333333333,192
5837,0.0,,,,59.0,,,,,0,note_on,,0.0,59.0,0.0,43436,113.11458333333333,192
5838,0.0,,,,62.0,,,,,0,note_on,,0.0,62.0,0.0,43436,113.11458333333333,192
5839,0.0,,,,62.0,,,,,52,note_on,,100.0,62.0,100.0,43488,113.25,192
5840,0.0,,,,55.0,,,,,0,note_on,,100.0,55.0,100.0,43488,113.25,192
5841,0.0,,,,59.0,,,,,0,note_on,,100.0,59.0,100.0,43488,113.25,192
5842,0.0,,,,62.0,,,,,44,note_on,,0.0,62.0,0.0,43532,113.36458333333333,192
5843,0.0,,,,55.0,,,,,0,note_on,,0.0,55.0,0.0,43532,113.36458333333333,192
5844,0.0,,,,59.0,,,,,0,note_on,,0.0,59.0,0.0,43532,113.36458333333333,192
5845,0.0,,,,59.0,,,,,52,note_on,,100.0,59.0,100.0,43584,113.5,192
5846,0.0,,,,62.0,,,,,0,note_on,,100.0,62.0,100.0,43584,113.5,192
5847,0.0,,,,55.0,,,,,0,note_on,,100.0,55.0,100.0,43584,113.5,192
5848,0.0,,,,59.0,,,,,44,note_on,,0.0,59.0,0.0,43628,113.61458333333333,192
5849,0.0,,,,62.0,,,,,0,note_on,,0.0,62.0,0.0,43628,113.61458333333333,192
5850,0.0,,,,55.0,,,,,0,note_on,,0.0,55.0,0.0,43628,113.61458333333333,192
5851,0.0,,,,62.0,,,,,52,note_on,,100.0,62.0,100.0,43680,113.75,192
5852,0.0,,,,55.0,,,,,0,note_on,,100.0,55.0,100.0,43680,113.75,192
5853,0.0,,,,59.0,,,,,0,note_on,,100.0,59.0,100.0,43680,113.75,192
5854,0.0,,,,62.0,,,,,44,note_on,,0.0,62.0,0.0,43724,113.86458333333333,192
5855,0.0,,,,55.0,,,,,0,note_on,,0.0,55.0,0.0,43724,113.86458333333333,192
5856,0.0,,,,59.0,,,,,0,note_on,,0.0,59.0,0.0,43724,113.86458333333333,192
5857,0.0,,,,62.0,,,,,52,note_on,,100.0,62.0,100.0,43776,114.0,192
5858,0.0,,,,59.0,,,,,0,note_on,,100.0,59.0,100.0,43776,114.0,192
5859,0.0,,,,55.0,,,,,0,note_on,,100.0,55.0,100.0,43776,114.0,192
5860,0.0,,,,62.0,,,,,44,note_on,,0.0,62.0,0.0,43820,114.11458333333333,192
5861,0.0,,,,59.0,,,,,0,note_on,,0.0,59.0,0.0,43820,114.11458333333333,192
5862,0.0,,,,55.0,,,,,0,note_on,,0.0,55.0,0.0,43820,114.11458333333333,192
5863,0.0,,,,59.0,,,,,52,note_on,,100.0,59.0,100.0,43872,114.25,192
5864,0.0,,,,62.0,,,,,0,note_on,,100.0,62.0,100.0,43872,114.25,192
5865,0.0,,,,55.0,,,,,0,note_on,,100.0,55.0,100.0,43872,114.25,192
5866,0.0,,,,59.0,,,,,44,note_on,,0.0,59.0,0.0,43916,114.36458333333333,192
5867,0.0,,,,62.0,,,,,0,note_on,,0.0,62.0,0.0,43916,114.36458333333333,192
5868,0.0,,,,55.0,,,,,0,note_on,,0.0,55.0,0.0,43916,114.36458333333333,192
5869,0.0,,,,55.0,,,,,52,note_on,,100.0,55.0,100.0,43968,114.5,192
5870,0.0,,,,59.0,,,,,0,note_on,,100.0,59.0,100.0,43968,114.5,192
5871,0.0,,,,62.0,,,,,0,note_on,,100.0,62.0,100.0,43968,114.5,192
5872,0.0,,,,55.0,,,,,44,note_on,,0.0,55.0,0.0,44012,114.61458333333333,192
5873,0.0,,,,59.0,,,,,0,note_on,,0.0,59.0,0.0,44012,114.61458333333333,192
5874,0.0,,,,62.0,,,,,0,note_on,,0.0,62.0,0.0,44012,114.61458333333333,192
5875,0.0,,,,59.0,,,,,52,note_on,,100.0,59.0,100.0,44064,114.75,192
5876,0.0,,,,55.0,,,,,0,note_on,,100.0,55.0,100.0,44064,114.75,192
5877,0.0,,,,62.0,,,,,0,note_on,,100.0,62.0,100.0,44064,114.75,192
5878,0.0,,,,59.0,,,,,44,note_on,,0.0,59.0,0.0,44108,114.86458333333333,192
5879,0.0,,,,55.0,,,,,0,note_on,,0.0,55.0,0.0,44108,114.86458333333333,192
5880,0.0,,,,62.0,,,,,0,note_on,,0.0,62.0,0.0,44108,114.86458333333333,192
5881,0.0,,,,55.0,,,,,52,note_on,,100.0,55.0,100.0,44160,115.0,192
5882,0.0,,,,59.0,,,,,0,note_on,,100.0,59.0,100.0,44160,115.0,192
5883,0.0,,,,62.0,,,,,0,note_on,,100.0,62.0,100.0,44160,115.0,192
5884,0.0,,,,55.0,,,,,44,note_on,,0.0,55.0,0.0,44204,115.11458333333333,192
5885,0.0,,,,59.0,,,,,0,note_on,,0.0,59.0,0.0,44204,115.11458333333333,192
5886,0.0,,,,62.0,,,,,0,note_on,,0.0,62.0,0.0,44204,115.11458333333333,192
5887,0.0,,,,62.0,,,,,52,note_on,,100.0,62.0,100.0,44256,115.25,192
5888,0.0,,,,55.0,,,,,0,note_on,,100.0,55.0,100.0,44256,115.25,192
5889,0.0,,,,59.0,,,,,0,note_on,,100.0,59.0,100.0,44256,115.25,192
5890,0.0,,,,62.0,,,,,44,note_on,,0.0,62.0,0.0,44300,115.36458333333333,192
5891,0.0,,,,55.0,,,,,0,note_on,,0.0,55.0,0.0,44300,115.36458333333333,192
5892,0.0,,,,59.0,,,,,0,note_on,,0.0,59.0,0.0,44300,115.36458333333333,192
5893,0.0,,,,55.0,,,,,52,note_on,,100.0,55.0,100.0,44352,115.5,192
5894,0.0,,,,62.0,,,,,0,note_on,,100.0,62.0,100.0,44352,115.5,192
5895,0.0,,,,59.0,,,,,0,note_on,,100.0,59.0,100.0,44352,115.5,192
5896,0.0,,,,55.0,,,,,44,note_on,,0.0,55.0,0.0,44396,115.61458333333333,192
5897,0.0,,,,62.0,,,,,0,note_on,,0.0,62.0,0.0,44396,115.61458333333333,192
5898,0.0,,,,59.0,,,,,0,note_on,,0.0,59.0,0.0,44396,115.61458333333333,192
5899,0.0,,,,59.0,,,,,52,note_on,,100.0,59.0,100.0,44448,115.75,192
5900,0.0,,,,55.0,,,,,0,note_on,,100.0,55.0,100.0,44448,115.75,192
5901,0.0,,,,62.0,,,,,0,note_on,,100.0,62.0,100.0,44448,115.75,192
5902,0.0,,,,59.0,,,,,44,note_on,,0.0,59.0,0.0,44492,115.86458333333333,192
5903,0.0,,,,55.0,,,,,0,note_on,,0.0,55.0,0.0,44492,115.86458333333333,192
5904,0.0,,,,62.0,,,,,0,note_on,,0.0,62.0,0.0,44492,115.86458333333333,192
5905,0.0,,,,60.0,,,,,52,note_on,,100.0,60.0,100.0,44544,116.0,192
5906,0.0,,,,57.0,,,,,0,note_on,,100.0,57.0,100.0,44544,116.0,192
5907,0.0,,,,53.0,,,,,0,note_on,,100.0,53.0,100.0,44544,116.0,192
5908,0.0,,,,60.0,,,,,44,note_on,,0.0,60.0,0.0,44588,116.11458333333333,192
5909,0.0,,,,57.0,,,,,0,note_on,,0.0,57.0,0.0,44588,116.11458333333333,192
5910,0.0,,,,53.0,,,,,0,note_on,,0.0,53.0,0.0,44588,116.11458333333333,192
5911,0.0,,,,53.0,,,,,52,note_on,,100.0,53.0,100.0,44640,116.25,192
5912,0.0,,,,57.0,,,,,0,note_on,,100.0,57.0,100.0,44640,116.25,192
5913,0.0,,,,60.0,,,,,0,note_on,,100.0,60.0,100.0,44640,116.25,192
5914,0.0,,,,53.0,,,,,44,note_on,,0.0,53.0,0.0,44684,116.36458333333333,192
5915,0.0,,,,57.0,,,,,0,note_on,,0.0,57.0,0.0,44684,116.36458333333333,192
5916,0.0,,,,60.0,,,,,0,note_on,,0.0,60.0,0.0,44684,116.36458333333333,192
5917,0.0,,,,60.0,,,,,52,note_on,,100.0,60.0,100.0,44736,116.5,192
5918,0.0,,,,57.0,,,,,0,note_on,,100.0,57.0,100.0,44736,116.5,192
5919,0.0,,,,53.0,,,,,0,note_on,,100.0,53.0,100.0,44736,116.5,192
5920,0.0,,,,60.0,,,,,44,note_on,,0.0,60.0,0.0,44780,116.61458333333333,192
5921,0.0,,,,57.0,,,,,0,note_on,,0.0,57.0,0.0,44780,116.61458333333333,192
5922,0.0,,,,53.0,,,,,0,note_on,,0.0,53.0,0.0,44780,116.61458333333333,192
5923,0.0,,,,57.0,,,,,52,note_on,,100.0,57.0,100.0,44832,116.75,192
5924,0.0,,,,60.0,,,,,0,note_on,,100.0,60.0,100.0,44832,116.75,192
5925,0.0,,,,53.0,,,,,0,note_on,,100.0,53.0,100.0,44832,116.75,192
5926,0.0,,,,57.0,,,,,44,note_on,,0.0,57.0,0.0,44876,116.86458333333333,192
5927,0.0,,,,60.0,,,,,0,note_on,,0.0,60.0,0.0,44876,116.86458333333333,192
5928,0.0,,,,53.0,,,,,0,note_on,,0.0,53.0,0.0,44876,116.86458333333333,192
5929,0.0,,,,57.0,,,,,52,note_on,,100.0,57.0,100.0,44928,117.0,192
5930,0.0,,,,60.0,,,,,0,note_on,,100.0,60.0,100.0,44928,117.0,192
5931,0.0,,,,53.0,,,,,0,note_on,,100.0,53.0,100.0,44928,117.0,192
5932,0.0,,,,57.0,,,,,44,note_on,,0.0,57.0,0.0,44972,117.11458333333333,192
5933,0.0,,,,60.0,,,,,0,note_on,,0.0,60.0,0.0,44972,117.11458333333333,192
5934,0.0,,,,53.0,,,,,0,note_on,,0.0,53.0,0.0,44972,117.11458333333333,192
5935,0.0,,,,53.0,,,,,52,note_on,,100.0,53.0,100.0,45024,117.25,192
5936,0.0,,,,57.0,,,,,0,note_on,,100.0,57.0,100.0,45024,117.25,192
5937,0.0,,,,60.0,,,,,0,note_on,,100.0,60.0,100.0,45024,117.25,192
5938,0.0,,,,53.0,,,,,44,note_on,,0.0,53.0,0.0,45068,117.36458333333333,192
5939,0.0,,,,57.0,,,,,0,note_on,,0.0,57.0,0.0,45068,117.36458333333333,192
5940,0.0,,,,60.0,,,,,0,note_on,,0.0,60.0,0.0,45068,117.36458333333333,192
5941,0.0,,,,57.0,,,,,52,note_on,,100.0,57.0,100.0,45120,117.5,192
5942,0.0,,,,60.0,,,,,0,note_on,,100.0,60.0,100.0,45120,117.5,192
5943,0.0,,,,53.0,,,,,0,note_on,,100.0,53.0,100.0,45120,117.5,192
5944,0.0,,,,57.0,,,,,44,note_on,,0.0,57.0,0.0,45164,117.61458333333333,192
5945,0.0,,,,53.0,,,,,0,note_on,,0.0,53.0,0.0,45164,117.61458333333333,192
5946,0.0,,,,60.0,,,,,0,note_on,,0.0,60.0,0.0,45164,117.61458333333333,192
5947,0.0,,,,48.0,,,,,52,note_on,,100.0,48.0,100.0,45216,117.75,192
5948,0.0,,,,48.0,,,,,44,note_on,,0.0,48.0,0.0,45260,117.86458333333333,192
5949,0.0,,,,64.0,,,,,52,note_on,,100.0,64.0,100.0,45312,118.0,192
5950,0.0,,,,60.0,,,,,0,note_on,,100.0,60.0,100.0,45312,118.0,192
5951,0.0,,,,55.0,,,,,0,note_on,,100.0,55.0,100.0,45312,118.0,192
5952,0.0,,,,64.0,,,,,44,note_on,,0.0,64.0,0.0,45356,118.11458333333333,192
5953,0.0,,,,60.0,,,,,0,note_on,,0.0,60.0,0.0,45356,118.11458333333333,192
5954,0.0,,,,55.0,,,,,0,note_on,,0.0,55.0,0.0,45356,118.11458333333333,192
5955,0.0,,,,64.0,,,,,52,note_on,,100.0,64.0,100.0,45408,118.25,192
5956,0.0,,,,60.0,,,,,0,note_on,,100.0,60.0,100.0,45408,118.25,192
5957,0.0,,,,55.0,,,,,0,note_on,,100.0,55.0,100.0,45408,118.25,192
5958,0.0,,,,55.0,,,,,44,note_on,,0.0,55.0,0.0,45452,118.36458333333333,192
5959,0.0,,,,64.0,,,,,0,note_on,,0.0,64.0,0.0,45452,118.36458333333333,192
5960,0.0,,,,60.0,,,,,0,note_on,,0.0,60.0,0.0,45452,118.36458333333333,192
5961,0.0,,,,64.0,,,,,52,note_on,,100.0,64.0,100.0,45504,118.5,192
5962,0.0,,,,55.0,,,,,0,note_on,,100.0,55.0,100.0,45504,118.5,192
5963,0.0,,,,60.0,,,,,0,note_on,,100.0,60.0,100.0,45504,118.5,192
5964,0.0,,,,64.0,,,,,44,note_on,,0.0,64.0,0.0,45548,118.61458333333333,192
5965,0.0,,,,55.0,,,,,0,note_on,,0.0,55.0,0.0,45548,118.61458333333333,192
5966,0.0,,,,60.0,,,,,0,note_on,,0.0,60.0,0.0,45548,118.61458333333333,192
5967,0.0,,,,60.0,,,,,52,note_on,,100.0,60.0,100.0,45600,118.75,192
5968,0.0,,,,55.0,,,,,0,note_on,,100.0,55.0,100.0,45600,118.75,192
5969,0.0,,,,64.0,,,,,0,note_on,,100.0,64.0,100.0,45600,118.75,192
5970,0.0,,,,64.0,,,,,44,note_on,,0.0,64.0,0.0,45644,118.86458333333333,192
5971,0.0,,,,60.0,,,,,0,note_on,,0.0,60.0,0.0,45644,118.86458333333333,192
5972,0.0,,,,55.0,,,,,0,note_on,,0.0,55.0,0.0,45644,118.86458333333333,192
5973,0.0,,,,55.0,,,,,52,note_on,,100.0,55.0,100.0,45696,119.0,192
5974,0.0,,,,64.0,,,,,0,note_on,,100.0,64.0,100.0,45696,119.0,192
5975,0.0,,,,60.0,,,,,0,note_on,,100.0,60.0,100.0,45696,119.0,192
5976,0.0,,,,55.0,,,,,44,note_on,,0.0,55.0,0.0,45740,119.11458333333333,192
5977,0.0,,,,64.0,,,,,0,note_on,,0.0,64.0,0.0,45740,119.11458333333333,192
5978,0.0,,,,60.0,,,,,0,note_on,,0.0,60.0,0.0,45740,119.11458333333333,192
5979,0.0,,,,55.0,,,,,52,note_on,,100.0,55.0,100.0,45792,119.25,192
5980,0.0,,,,64.0,,,,,0,note_on,,100.0,64.0,100.0,45792,119.25,192
5981,0.0,,,,60.0,,,,,0,note_on,,100.0,60.0,100.0,45792,119.25,192
5982,0.0,,,,60.0,,,,,44,note_on,,0.0,60.0,0.0,45836,119.36458333333333,192
5983,0.0,,,,55.0,,,,,0,note_on,,0.0,55.0,0.0,45836,119.36458333333333,192
5984,0.0,,,,64.0,,,,,0,note_on,,0.0,64.0,0.0,45836,119.36458333333333,192
5985,0.0,,,,55.0,,,,,52,note_on,,100.0,55.0,100.0,45888,119.5,192
5986,0.0,,,,60.0,,,,,0,note_on,,100.0,60.0,100.0,45888,119.5,192
5987,0.0,,,,64.0,,,,,0,note_on,,100.0,64.0,100.0,45888,119.5,192
5988,0.0,,,,55.0,,,,,44,note_on,,0.0,55.0,0.0,45932,119.61458333333333,192
5989,0.0,,,,60.0,,,,,0,note_on,,0.0,60.0,0.0,45932,119.61458333333333,192
5990,0.0,,,,64.0,,,,,0,note_on,,0.0,64.0,0.0,45932,119.61458333333333,192
5991,0.0,,,,64.0,,,,,52,note_on,,100.0,64.0,100.0,45984,119.75,192
5992,0.0,,,,55.0,,,,,0,note_on,,100.0,55.0,100.0,45984,119.75,192
5993,0.0,,,,60.0,,,,,0,note_on,,100.0,60.0,100.0,45984,119.75,192
5994,0.0,,,,60.0,,,,,44,note_on,,0.0,60.0,0.0,46028,119.86458333333333,192
5995,0.0,,,,64.0,,,,,0,note_on,,0.0,64.0,0.0,46028,119.86458333333333,192
5996,0.0,,,,55.0,,,,,0,note_on,,0.0,55.0,0.0,46028,119.86458333333333,192
5997,0.0,,,,62.0,,,,,52,note_on,,100.0,62.0,100.0,46080,120.0,192
5998,0.0,,,,55.0,,,,,0,note_on,,100.0,55.0,100.0,46080,120.0,192
5999,0.0,,,,59.0,,,,,0,note_on,,100.0,59.0,100.0,46080,120.0,192
6000,0.0,,,,62.0,,,,,44,note_on,,0.0,62.0,0.0,46124,120.11458333333333,192
6001,0.0,,,,55.0,,,,,0,note_on,,0.0,55.0,0.0,46124,120.11458333333333,192
6002,0.0,,,,59.0,,,,,0,note_on,,0.0,59.0,0.0,46124,120.11458333333333,192
6003,0.0,,,,55.0,,,,,52,note_on,,100.0,55.0,100.0,46176,120.25,192
6004,0.0,,,,62.0,,,,,0,note_on,,100.0,62.0,100.0,46176,120.25,192
6005,0.0,,,,59.0,,,,,0,note_on,,100.0,59.0,100.0,46176,120.25,192
6006,0.0,,,,59.0,,,,,44,note_on,,0.0,59.0,0.0,46220,120.36458333333333,192
6007,0.0,,,,55.0,,,,,0,note_on,,0.0,55.0,0.0,46220,120.36458333333333,192
6008,0.0,,,,62.0,,,,,0,note_on,,0.0,62.0,0.0,46220,120.36458333333333,192
6009,0.0,,,,55.0,,,,,52,note_on,,100.0,55.0,100.0,46272,120.5,192
6010,0.0,,,,62.0,,,,,0,note_on,,100.0,62.0,100.0,46272,120.5,192
6011,0.0,,,,59.0,,,,,0,note_on,,100.0,59.0,100.0,46272,120.5,192
6012,0.0,,,,55.0,,,,,44,note_on,,0.0,55.0,0.0,46316,120.61458333333333,192
6013,0.0,,,,62.0,,,,,0,note_on,,0.0,62.0,0.0,46316,120.61458333333333,192
6014,0.0,,,,59.0,,,,,0,note_on,,0.0,59.0,0.0,46316,120.61458333333333,192
6015,0.0,,,,55.0,,,,,52,note_on,,100.0,55.0,100.0,46368,120.75,192
6016,0.0,,,,62.0,,,,,0,note_on,,100.0,62.0,100.0,46368,120.75,192
6017,0.0,,,,59.0,,,,,0,note_on,,100.0,59.0,100.0,46368,120.75,192
6018,0.0,,,,59.0,,,,,44,note_on,,0.0,59.0,0.0,46412,120.86458333333333,192
6019,0.0,,,,55.0,,,,,0,note_on,,0.0,55.0,0.0,46412,120.86458333333333,192
6020,0.0,,,,62.0,,,,,0,note_on,,0.0,62.0,0.0,46412,120.86458333333333,192
6021,0.0,,,,59.0,,,,,52,note_on,,100.0,59.0,100.0,46464,121.0,192
6022,0.0,,,,62.0,,,,,0,note_on,,100.0,62.0,100.0,46464,121.0,192
6023,0.0,,,,55.0,,,,,0,note_on,,100.0,55.0,100.0,46464,121.0,192
6024,0.0,,,,59.0,,,,,44,note_on,,0.0,59.0,0.0,46508,121.11458333333333,192
6025,0.0,,,,62.0,,,,,0,note_on,,0.0,62.0,0.0,46508,121.11458333333333,192
6026,0.0,,,,55.0,,,,,0,note_on,,0.0,55.0,0.0,46508,121.11458333333333,192
6027,0.0,,,,55.0,,,,,52,note_on,,100.0,55.0,100.0,46560,121.25,192
6028,0.0,,,,59.0,,,,,0,note_on,,100.0,59.0,100.0,46560,121.25,192
6029,0.0,,,,62.0,,,,,0,note_on,,100.0,62.0,100.0,46560,121.25,192
6030,0.0,,,,62.0,,,,,44,note_on,,0.0,62.0,0.0,46604,121.36458333333333,192
6031,0.0,,,,55.0,,,,,0,note_on,,0.0,55.0,0.0,46604,121.36458333333333,192
6032,0.0,,,,59.0,,,,,0,note_on,,0.0,59.0,0.0,46604,121.36458333333333,192
6033,0.0,,,,62.0,,,,,52,note_on,,100.0,62.0,100.0,46656,121.5,192
6034,0.0,,,,55.0,,,,,0,note_on,,100.0,55.0,100.0,46656,121.5,192
6035,0.0,,,,59.0,,,,,0,note_on,,100.0,59.0,100.0,46656,121.5,192
6036,0.0,,,,62.0,,,,,44,note_on,,0.0,62.0,0.0,46700,121.61458333333333,192
6037,0.0,,,,55.0,,,,,0,note_on,,0.0,55.0,0.0,46700,121.61458333333333,192
6038,0.0,,,,59.0,,,,,0,note_on,,0.0,59.0,0.0,46700,121.61458333333333,192
6039,0.0,,,,55.0,,,,,52,note_on,,100.0,55.0,100.0,46752,121.75,192
6040,0.0,,,,62.0,,,,,0,note_on,,100.0,62.0,100.0,46752,121.75,192
6041,0.0,,,,59.0,,,,,0,note_on,,100.0,59.0,100.0,46752,121.75,192
6042,0.0,,,,55.0,,,,,44,note_on,,0.0,55.0,0.0,46796,121.86458333333333,192
6043,0.0,,,,62.0,,,,,0,note_on,,0.0,62.0,0.0,46796,121.86458333333333,192
6044,0.0,,,,59.0,,,,,0,note_on,,0.0,59.0,0.0,46796,121.86458333333333,192
6045,0.0,,,,55.0,,,,,52,note_on,,100.0,55.0,100.0,46848,122.0,192
6046,0.0,,,,59.0,,,,,0,note_on,,100.0,59.0,100.0,46848,122.0,192
6047,0.0,,,,62.0,,,,,0,note_on,,100.0,62.0,100.0,46848,122.0,192
6048,0.0,,,,59.0,,,,,44,note_on,,0.0,59.0,0.0,46892,122.11458333333333,192
6049,0.0,,,,62.0,,,,,0,note_on,,0.0,62.0,0.0,46892,122.11458333333333,192
6050,0.0,,,,55.0,,,,,0,note_on,,0.0,55.0,0.0,46892,122.11458333333333,192
6051,0.0,,,,59.0,,,,,52,note_on,,100.0,59.0,100.0,46944,122.25,192
6052,0.0,,,,55.0,,,,,0,note_on,,100.0,55.0,100.0,46944,122.25,192
6053,0.0,,,,62.0,,,,,0,note_on,,100.0,62.0,100.0,46944,122.25,192
6054,0.0,,,,59.0,,,,,44,note_on,,0.0,59.0,0.0,46988,122.36458333333333,192
6055,0.0,,,,55.0,,,,,0,note_on,,0.0,55.0,0.0,46988,122.36458333333333,192
6056,0.0,,,,62.0,,,,,0,note_on,,0.0,62.0,0.0,46988,122.36458333333333,192
6057,0.0,,,,62.0,,,,,52,note_on,,100.0,62.0,100.0,47040,122.5,192
6058,0.0,,,,59.0,,,,,0,note_on,,100.0,59.0,100.0,47040,122.5,192
6059,0.0,,,,55.0,,,,,0,note_on,,100.0,55.0,100.0,47040,122.5,192
6060,0.0,,,,59.0,,,,,44,note_on,,0.0,59.0,0.0,47084,122.61458333333333,192
6061,0.0,,,,55.0,,,,,0,note_on,,0.0,55.0,0.0,47084,122.61458333333333,192
6062,0.0,,,,62.0,,,,,0,note_on,,0.0,62.0,0.0,47084,122.61458333333333,192
6063,0.0,,,,55.0,,,,,52,note_on,,100.0,55.0,100.0,47136,122.75,192
6064,0.0,,,,59.0,,,,,0,note_on,,100.0,59.0,100.0,47136,122.75,192
6065,0.0,,,,62.0,,,,,0,note_on,,100.0,62.0,100.0,47136,122.75,192
6066,0.0,,,,55.0,,,,,44,note_on,,0.0,55.0,0.0,47180,122.86458333333333,192
6067,0.0,,,,59.0,,,,,0,note_on,,0.0,59.0,0.0,47180,122.86458333333333,192
6068,0.0,,,,62.0,,,,,0,note_on,,0.0,62.0,0.0,47180,122.86458333333333,192
6069,0.0,,,,62.0,,,,,52,note_on,,100.0,62.0,100.0,47232,123.0,192
6070,0.0,,,,55.0,,,,,0,note_on,,100.0,55.0,100.0,47232,123.0,192
6071,0.0,,,,59.0,,,,,0,note_on,,100.0,59.0,100.0,47232,123.0,192
6072,0.0,,,,55.0,,,,,44,note_on,,0.0,55.0,0.0,47276,123.11458333333333,192
6073,0.0,,,,59.0,,,,,0,note_on,,0.0,59.0,0.0,47276,123.11458333333333,192
6074,0.0,,,,62.0,,,,,0,note_on,,0.0,62.0,0.0,47276,123.11458333333333,192
6075,0.0,,,,62.0,,,,,52,note_on,,100.0,62.0,100.0,47328,123.25,192
6076,0.0,,,,59.0,,,,,0,note_on,,100.0,59.0,100.0,47328,123.25,192
6077,0.0,,,,55.0,,,,,0,note_on,,100.0,55.0,100.0,47328,123.25,192
6078,0.0,,,,62.0,,,,,44,note_on,,0.0,62.0,0.0,47372,123.36458333333333,192
6079,0.0,,,,59.0,,,,,0,note_on,,0.0,59.0,0.0,47372,123.36458333333333,192
6080,0.0,,,,55.0,,,,,0,note_on,,0.0,55.0,0.0,47372,123.36458333333333,192
6081,0.0,,,,59.0,,,,,52,note_on,,100.0,59.0,100.0,47424,123.5,192
6082,0.0,,,,55.0,,,,,0,note_on,,100.0,55.0,100.0,47424,123.5,192
6083,0.0,,,,62.0,,,,,0,note_on,,100.0,62.0,100.0,47424,123.5,192
6084,0.0,,,,55.0,,,,,44,note_on,,0.0,55.0,0.0,47468,123.61458333333333,192
6085,0.0,,,,62.0,,,,,0,note_on,,0.0,62.0,0.0,47468,123.61458333333333,192
6086,0.0,,,,59.0,,,,,0,note_on,,0.0,59.0,0.0,47468,123.61458333333333,192
6087,0.0,,,,59.0,,,,,52,note_on,,100.0,59.0,100.0,47520,123.75,192
6088,0.0,,,,62.0,,,,,0,note_on,,100.0,62.0,100.0,47520,123.75,192
6089,0.0,,,,55.0,,,,,0,note_on,,100.0,55.0,100.0,47520,123.75,192
6090,0.0,,,,59.0,,,,,44,note_on,,0.0,59.0,0.0,47564,123.86458333333333,192
6091,0.0,,,,62.0,,,,,0,note_on,,0.0,62.0,0.0,47564,123.86458333333333,192
6092,0.0,,,,55.0,,,,,0,note_on,,0.0,55.0,0.0,47564,123.86458333333333,192
6093,0.0,,,,53.0,,,,,52,note_on,,100.0,53.0,100.0,47616,124.0,192
6094,0.0,,,,60.0,,,,,0,note_on,,100.0,60.0,100.0,47616,124.0,192
6095,0.0,,,,57.0,,,,,0,note_on,,100.0,57.0,100.0,47616,124.0,192
6096,0.0,,,,60.0,,,,,44,note_on,,0.0,60.0,0.0,47660,124.11458333333333,192
6097,0.0,,,,57.0,,,,,0,note_on,,0.0,57.0,0.0,47660,124.11458333333333,192
6098,0.0,,,,53.0,,,,,0,note_on,,0.0,53.0,0.0,47660,124.11458333333333,192
6099,0.0,,,,53.0,,,,,52,note_on,,100.0,53.0,100.0,47712,124.25,192
6100,0.0,,,,57.0,,,,,0,note_on,,100.0,57.0,100.0,47712,124.25,192
6101,0.0,,,,60.0,,,,,0,note_on,,100.0,60.0,100.0,47712,124.25,192
6102,0.0,,,,53.0,,,,,44,note_on,,0.0,53.0,0.0,47756,124.36458333333333,192
6103,0.0,,,,57.0,,,,,0,note_on,,0.0,57.0,0.0,47756,124.36458333333333,192
6104,0.0,,,,60.0,,,,,0,note_on,,0.0,60.0,0.0,47756,124.36458333333333,192
6105,0.0,,,,53.0,,,,,52,note_on,,100.0,53.0,100.0,47808,124.5,192
6106,0.0,,,,57.0,,,,,0,note_on,,100.0,57.0,100.0,47808,124.5,192
6107,0.0,,,,60.0,,,,,0,note_on,,100.0,60.0,100.0,47808,124.5,192
6108,0.0,,,,57.0,,,,,44,note_on,,0.0,57.0,0.0,47852,124.61458333333333,192
6109,0.0,,,,60.0,,,,,0,note_on,,0.0,60.0,0.0,47852,124.61458333333333,192
6110,0.0,,,,53.0,,,,,0,note_on,,0.0,53.0,0.0,47852,124.61458333333333,192
6111,0.0,,,,57.0,,,,,52,note_on,,100.0,57.0,100.0,47904,124.75,192
6112,0.0,,,,53.0,,,,,0,note_on,,100.0,53.0,100.0,47904,124.75,192
6113,0.0,,,,60.0,,,,,0,note_on,,100.0,60.0,100.0,47904,124.75,192
6114,0.0,,,,57.0,,,,,44,note_on,,0.0,57.0,0.0,47948,124.86458333333333,192
6115,0.0,,,,53.0,,,,,0,note_on,,0.0,53.0,0.0,47948,124.86458333333333,192
6116,0.0,,,,60.0,,,,,0,note_on,,0.0,60.0,0.0,47948,124.86458333333333,192
6117,0.0,,,,53.0,,,,,52,note_on,,100.0,53.0,100.0,48000,125.0,192
6118,0.0,,,,57.0,,,,,0,note_on,,100.0,57.0,100.0,48000,125.0,192
6119,0.0,,,,60.0,,,,,0,note_on,,100.0,60.0,100.0,48000,125.0,192
6120,0.0,,,,57.0,,,,,44,note_on,,0.0,57.0,0.0,48044,125.11458333333333,192
6121,0.0,,,,60.0,,,,,0,note_on,,0.0,60.0,0.0,48044,125.11458333333333,192
6122,0.0,,,,53.0,,,,,0,note_on,,0.0,53.0,0.0,48044,125.11458333333333,192
6123,0.0,,,,53.0,,,,,52,note_on,,100.0,53.0,100.0,48096,125.25,192
6124,0.0,,,,60.0,,,,,0,note_on,,100.0,60.0,100.0,48096,125.25,192
6125,0.0,,,,57.0,,,,,0,note_on,,100.0,57.0,100.0,48096,125.25,192
6126,0.0,,,,53.0,,,,,44,note_on,,0.0,53.0,0.0,48140,125.36458333333333,192
6127,0.0,,,,60.0,,,,,0,note_on,,0.0,60.0,0.0,48140,125.36458333333333,192
6128,0.0,,,,57.0,,,,,0,note_on,,0.0,57.0,0.0,48140,125.36458333333333,192
6129,0.0,,,,53.0,,,,,52,note_on,,100.0,53.0,100.0,48192,125.5,192
6130,0.0,,,,57.0,,,,,0,note_on,,100.0,57.0,100.0,48192,125.5,192
6131,0.0,,,,60.0,,,,,0,note_on,,100.0,60.0,100.0,48192,125.5,192
6132,0.0,,,,57.0,,,,,44,note_on,,0.0,57.0,0.0,48236,125.61458333333333,192
6133,0.0,,,,53.0,,,,,0,note_on,,0.0,53.0,0.0,48236,125.61458333333333,192
6134,0.0,,,,60.0,,,,,0,note_on,,0.0,60.0,0.0,48236,125.61458333333333,192
6135,0.0,,,,48.0,,,,,52,note_on,,100.0,48.0,100.0,48288,125.75,192
6136,0.0,,,,48.0,,,,,44,note_on,,0.0,48.0,0.0,48332,125.86458333333333,192
6137,0.0,,,,64.0,,,,,52,note_on,,100.0,64.0,100.0,48384,126.0,192
6138,0.0,,,,60.0,,,,,0,note_on,,100.0,60.0,100.0,48384,126.0,192
6139,0.0,,,,55.0,,,,,0,note_on,,100.0,55.0,100.0,48384,126.0,192
6140,0.0,,,,64.0,,,,,44,note_on,,0.0,64.0,0.0,48428,126.11458333333333,192
6141,0.0,,,,60.0,,,,,0,note_on,,0.0,60.0,0.0,48428,126.11458333333333,192
6142,0.0,,,,55.0,,,,,0,note_on,,0.0,55.0,0.0,48428,126.11458333333333,192
6143,0.0,,,,60.0,,,,,52,note_on,,100.0,60.0,100.0,48480,126.25,192
6144,0.0,,,,55.0,,,,,0,note_on,,100.0,55.0,100.0,48480,126.25,192
6145,0.0,,,,64.0,,,,,0,note_on,,100.0,64.0,100.0,48480,126.25,192
6146,0.0,,,,60.0,,,,,44,note_on,,0.0,60.0,0.0,48524,126.36458333333333,192
6147,0.0,,,,55.0,,,,,0,note_on,,0.0,55.0,0.0,48524,126.36458333333333,192
6148,0.0,,,,64.0,,,,,0,note_on,,0.0,64.0,0.0,48524,126.36458333333333,192
6149,0.0,,,,60.0,,,,,52,note_on,,100.0,60.0,100.0,48576,126.5,192
6150,0.0,,,,64.0,,,,,0,note_on,,100.0,64.0,100.0,48576,126.5,192
6151,0.0,,,,55.0,,,,,0,note_on,,100.0,55.0,100.0,48576,126.5,192
6152,0.0,,,,60.0,,,,,44,note_on,,0.0,60.0,0.0,48620,126.61458333333333,192
6153,0.0,,,,64.0,,,,,0,note_on,,0.0,64.0,0.0,48620,126.61458333333333,192
6154,0.0,,,,55.0,,,,,0,note_on,,0.0,55.0,0.0,48620,126.61458333333333,192
6155,0.0,,,,64.0,,,,,52,note_on,,100.0,64.0,100.0,48672,126.75,192
6156,0.0,,,,55.0,,,,,0,note_on,,100.0,55.0,100.0,48672,126.75,192
6157,0.0,,,,60.0,,,,,0,note_on,,100.0,60.0,100.0,48672,126.75,192
6158,0.0,,,,64.0,,,,,44,note_on,,0.0,64.0,0.0,48716,126.86458333333333,192
6159,0.0,,,,55.0,,,,,0,note_on,,0.0,55.0,0.0,48716,126.86458333333333,192
6160,0.0,,,,60.0,,,,,0,note_on,,0.0,60.0,0.0,48716,126.86458333333333,192
6161,0.0,,,,60.0,,,,,52,note_on,,100.0,60.0,100.0,48768,127.0,192
6162,0.0,,,,55.0,,,,,0,note_on,,100.0,55.0,100.0,48768,127.0,192
6163,0.0,,,,64.0,,,,,0,note_on,,100.0,64.0,100.0,48768,127.0,192
6164,0.0,,,,60.0,,,,,44,note_on,,0.0,60.0,0.0,48812,127.11458333333333,192
6165,0.0,,,,55.0,,,,,0,note_on,,0.0,55.0,0.0,48812,127.11458333333333,192
6166,0.0,,,,64.0,,,,,0,note_on,,0.0,64.0,0.0,48812,127.11458333333333,192
6167,0.0,,,,55.0,,,,,52,note_on,,100.0,55.0,100.0,48864,127.25,192
6168,0.0,,,,60.0,,,,,0,note_on,,100.0,60.0,100.0,48864,127.25,192
6169,0.0,,,,64.0,,,,,0,note_on,,100.0,64.0,100.0,48864,127.25,192
6170,0.0,,,,55.0,,,,,44,note_on,,0.0,55.0,0.0,48908,127.36458333333333,192
6171,0.0,,,,60.0,,,,,0,note_on,,0.0,60.0,0.0,48908,127.36458333333333,192
6172,0.0,,,,64.0,,,,,0,note_on,,0.0,64.0,0.0,48908,127.36458333333333,192
6173,0.0,,,,55.0,,,,,52,note_on,,100.0,55.0,100.0,48960,127.5,192
6174,0.0,,,,64.0,,,,,0,note_on,,100.0,64.0,100.0,48960,127.5,192
6175,0.0,,,,60.0,,,,,0,note_on,,100.0,60.0,100.0,48960,127.5,192
6176,0.0,,,,55.0,,,,,44,note_on,,0.0,55.0,0.0,49004,127.61458333333333,192
6177,0.0,,,,64.0,,,,,0,note_on,,0.0,64.0,0.0,49004,127.61458333333333,192
6178,0.0,,,,60.0,,,,,0,note_on,,0.0,60.0,0.0,49004,127.61458333333333,192
6179,0.0,,,,64.0,,,,,52,note_on,,100.0,64.0,100.0,49056,127.75,192
6180,0.0,,,,60.0,,,,,0,note_on,,100.0,60.0,100.0,49056,127.75,192
6181,0.0,,,,55.0,,,,,0,note_on,,100.0,55.0,100.0,49056,127.75,192
6182,0.0,,,,64.0,,,,,44,note_on,,0.0,64.0,0.0,49100,127.86458333333333,192
6183,0.0,,,,60.0,,,,,0,note_on,,0.0,60.0,0.0,49100,127.86458333333333,192
6184,0.0,,,,55.0,,,,,0,note_on,,0.0,55.0,0.0,49100,127.86458333333333,192
6185,0.0,,,,62.0,,,,,52,note_on,,100.0,62.0,100.0,49152,128.0,192
6186,0.0,,,,55.0,,,,,0,note_on,,100.0,55.0,100.0,49152,128.0,192
6187,0.0,,,,59.0,,,,,0,note_on,,100.0,59.0,100.0,49152,128.0,192
6188,0.0,,,,62.0,,,,,44,note_on,,0.0,62.0,0.0,49196,128.11458333333331,192
6189,0.0,,,,55.0,,,,,0,note_on,,0.0,55.0,0.0,49196,128.11458333333331,192
6190,0.0,,,,59.0,,,,,0,note_on,,0.0,59.0,0.0,49196,128.11458333333331,192
6191,0.0,,,,62.0,,,,,52,note_on,,100.0,62.0,100.0,49248,128.25,192
6192,0.0,,,,59.0,,,,,0,note_on,,100.0,59.0,100.0,49248,128.25,192
6193,0.0,,,,55.0,,,,,0,note_on,,100.0,55.0,100.0,49248,128.25,192
6194,0.0,,,,62.0,,,,,44,note_on,,0.0,62.0,0.0,49292,128.36458333333331,192
6195,0.0,,,,59.0,,,,,0,note_on,,0.0,59.0,0.0,49292,128.36458333333331,192
6196,0.0,,,,55.0,,,,,0,note_on,,0.0,55.0,0.0,49292,128.36458333333331,192
6197,0.0,,,,62.0,,,,,52,note_on,,100.0,62.0,100.0,49344,128.5,192
6198,0.0,,,,55.0,,,,,0,note_on,,100.0,55.0,100.0,49344,128.5,192
6199,0.0,,,,59.0,,,,,0,note_on,,100.0,59.0,100.0,49344,128.5,192
6200,0.0,,,,62.0,,,,,44,note_on,,0.0,62.0,0.0,49388,128.61458333333331,192
6201,0.0,,,,55.0,,,,,0,note_on,,0.0,55.0,0.0,49388,128.61458333333331,192
6202,0.0,,,,59.0,,,,,0,note_on,,0.0,59.0,0.0,49388,128.61458333333331,192
6203,0.0,,,,62.0,,,,,52,note_on,,100.0,62.0,100.0,49440,128.75,192
6204,0.0,,,,55.0,,,,,0,note_on,,100.0,55.0,100.0,49440,128.75,192
6205,0.0,,,,59.0,,,,,0,note_on,,100.0,59.0,100.0,49440,128.75,192
6206,0.0,,,,62.0,,,,,44,note_on,,0.0,62.0,0.0,49484,128.86458333333331,192
6207,0.0,,,,55.0,,,,,0,note_on,,0.0,55.0,0.0,49484,128.86458333333331,192
6208,0.0,,,,59.0,,,,,0,note_on,,0.0,59.0,0.0,49484,128.86458333333331,192
6209,0.0,,,,59.0,,,,,52,note_on,,100.0,59.0,100.0,49536,129.0,192
6210,0.0,,,,55.0,,,,,0,note_on,,100.0,55.0,100.0,49536,129.0,192
6211,0.0,,,,62.0,,,,,0,note_on,,100.0,62.0,100.0,49536,129.0,192
6212,0.0,,,,59.0,,,,,44,note_on,,0.0,59.0,0.0,49580,129.11458333333331,192
6213,0.0,,,,55.0,,,,,0,note_on,,0.0,55.0,0.0,49580,129.11458333333331,192
6214,0.0,,,,62.0,,,,,0,note_on,,0.0,62.0,0.0,49580,129.11458333333331,192
6215,0.0,,,,59.0,,,,,52,note_on,,100.0,59.0,100.0,49632,129.25,192
6216,0.0,,,,55.0,,,,,0,note_on,,100.0,55.0,100.0,49632,129.25,192
6217,0.0,,,,62.0,,,,,0,note_on,,100.0,62.0,100.0,49632,129.25,192
6218,0.0,,,,59.0,,,,,44,note_on,,0.0,59.0,0.0,49676,129.36458333333331,192
6219,0.0,,,,55.0,,,,,0,note_on,,0.0,55.0,0.0,49676,129.36458333333331,192
6220,0.0,,,,62.0,,,,,0,note_on,,0.0,62.0,0.0,49676,129.36458333333331,192
6221,0.0,,,,55.0,,,,,52,note_on,,100.0,55.0,100.0,49728,129.5,192
6222,0.0,,,,59.0,,,,,0,note_on,,100.0,59.0,100.0,49728,129.5,192
6223,0.0,,,,62.0,,,,,0,note_on,,100.0,62.0,100.0,49728,129.5,192
6224,0.0,,,,55.0,,,,,44,note_on,,0.0,55.0,0.0,49772,129.61458333333331,192
6225,0.0,,,,59.0,,,,,0,note_on,,0.0,59.0,0.0,49772,129.61458333333331,192
6226,0.0,,,,62.0,,,,,0,note_on,,0.0,62.0,0.0,49772,129.61458333333331,192
6227,0.0,,,,62.0,,,,,52,note_on,,100.0,62.0,100.0,49824,129.75,192
6228,0.0,,,,55.0,,,,,0,note_on,,100.0,55.0,100.0,49824,129.75,192
6229,0.0,,,,59.0,,,,,0,note_on,,100.0,59.0,100.0,49824,129.75,192
6230,0.0,,,,62.0,,,,,44,note_on,,0.0,62.0,0.0,49868,129.86458333333331,192
6231,0.0,,,,55.0,,,,,0,note_on,,0.0,55.0,0.0,49868,129.86458333333331,192
6232,0.0,,,,59.0,,,,,0,note_on,,0.0,59.0,0.0,49868,129.86458333333331,192
6233,0.0,,,,59.0,,,,,52,note_on,,100.0,59.0,100.0,49920,130.0,192
6234,0.0,,,,55.0,,,,,0,note_on,,100.0,55.0,100.0,49920,130.0,192
6235,0.0,,,,62.0,,,,,0,note_on,,100.0,62.0,100.0,49920,130.0,192
6236,0.0,,,,59.0,,,,,44,note_on,,0.0,59.0,0.0,49964,130.11458333333331,192
6237,0.0,,,,55.0,,,,,0,note_on,,0.0,55.0,0.0,49964,130.11458333333331,192
6238,0.0,,,,62.0,,,,,0,note_on,,0.0,62.0,0.0,49964,130.11458333333331,192
6239,0.0,,,,55.0,,,,,52,note_on,,100.0,55.0,100.0,50016,130.25,192
6240,0.0,,,,62.0,,,,,0,note_on,,100.0,62.0,100.0,50016,130.25,192
6241,0.0,,,,59.0,,,,,0,note_on,,100.0,59.0,100.0,50016,130.25,192
6242,0.0,,,,55.0,,,,,44,note_on,,0.0,55.0,0.0,50060,130.36458333333331,192
6243,0.0,,,,62.0,,,,,0,note_on,,0.0,62.0,0.0,50060,130.36458333333331,192
6244,0.0,,,,59.0,,,,,0,note_on,,0.0,59.0,0.0,50060,130.36458333333331,192
6245,0.0,,,,59.0,,,,,52,note_on,,100.0,59.0,100.0,50112,130.5,192
6246,0.0,,,,55.0,,,,,0,note_on,,100.0,55.0,100.0,50112,130.5,192
6247,0.0,,,,62.0,,,,,0,note_on,,100.0,62.0,100.0,50112,130.5,192
6248,0.0,,,,59.0,,,,,44,note_on,,0.0,59.0,0.0,50156,130.61458333333331,192
6249,0.0,,,,55.0,,,,,0,note_on,,0.0,55.0,0.0,50156,130.61458333333331,192
6250,0.0,,,,62.0,,,,,0,note_on,,0.0,62.0,0.0,50156,130.61458333333331,192
6251,0.0,,,,62.0,,,,,52,note_on,,100.0,62.0,100.0,50208,130.75,192
6252,0.0,,,,59.0,,,,,0,note_on,,100.0,59.0,100.0,50208,130.75,192
6253,0.0,,,,55.0,,,,,0,note_on,,100.0,55.0,100.0,50208,130.75,192
6254,0.0,,,,62.0,,,,,44,note_on,,0.0,62.0,0.0,50252,130.86458333333331,192
6255,0.0,,,,59.0,,,,,0,note_on,,0.0,59.0,0.0,50252,130.86458333333331,192
6256,0.0,,,,55.0,,,,,0,note_on,,0.0,55.0,0.0,50252,130.86458333333331,192
6257,0.0,,,,55.0,,,,,52,note_on,,100.0,55.0,100.0,50304,131.0,192
6258,0.0,,,,62.0,,,,,0,note_on,,100.0,62.0,100.0,50304,131.0,192
6259,0.0,,,,59.0,,,,,0,note_on,,100.0,59.0,100.0,50304,131.0,192
6260,0.0,,,,55.0,,,,,44,note_on,,0.0,55.0,0.0,50348,131.11458333333331,192
6261,0.0,,,,62.0,,,,,0,note_on,,0.0,62.0,0.0,50348,131.11458333333331,192
6262,0.0,,,,59.0,,,,,0,note_on,,0.0,59.0,0.0,50348,131.11458333333331,192
6263,0.0,,,,55.0,,,,,52,note_on,,100.0,55.0,100.0,50400,131.25,192
6264,0.0,,,,62.0,,,,,0,note_on,,100.0,62.0,100.0,50400,131.25,192
6265,0.0,,,,59.0,,,,,0,note_on,,100.0,59.0,100.0,50400,131.25,192
6266,0.0,,,,55.0,,,,,44,note_on,,0.0,55.0,0.0,50444,131.36458333333331,192
6267,0.0,,,,62.0,,,,,0,note_on,,0.0,62.0,0.0,50444,131.36458333333331,192
6268,0.0,,,,59.0,,,,,0,note_on,,0.0,59.0,0.0,50444,131.36458333333331,192
6269,0.0,,,,59.0,,,,,52,note_on,,100.0,59.0,100.0,50496,131.5,192
6270,0.0,,,,55.0,,,,,0,note_on,,100.0,55.0,100.0,50496,131.5,192
6271,0.0,,,,62.0,,,,,0,note_on,,100.0,62.0,100.0,50496,131.5,192
6272,0.0,,,,59.0,,,,,44,note_on,,0.0,59.0,0.0,50540,131.61458333333331,192
6273,0.0,,,,55.0,,,,,0,note_on,,0.0,55.0,0.0,50540,131.61458333333331,192
6274,0.0,,,,62.0,,,,,0,note_on,,0.0,62.0,0.0,50540,131.61458333333331,192
6275,0.0,,,,55.0,,,,,52,note_on,,100.0,55.0,100.0,50592,131.75,192
6276,0.0,,,,59.0,,,,,0,note_on,,100.0,59.0,100.0,50592,131.75,192
6277,0.0,,,,62.0,,,,,0,note_on,,100.0,62.0,100.0,50592,131.75,192
6278,0.0,,,,55.0,,,,,44,note_on,,0.0,55.0,0.0,50636,131.86458333333331,192
6279,0.0,,,,59.0,,,,,0,note_on,,0.0,59.0,0.0,50636,131.86458333333331,192
6280,0.0,,,,62.0,,,,,0,note_on,,0.0,62.0,0.0,50636,131.86458333333331,192
6281,0.0,,,,53.0,,,,,52,note_on,,100.0,53.0,100.0,50688,132.0,192
6282,0.0,,,,60.0,,,,,0,note_on,,100.0,60.0,100.0,50688,132.0,192
6283,0.0,,,,57.0,,,,,0,note_on,,100.0,57.0,100.0,50688,132.0,192
6284,0.0,,,,53.0,,,,,44,note_on,,0.0,53.0,0.0,50732,132.11458333333331,192
6285,0.0,,,,60.0,,,,,0,note_on,,0.0,60.0,0.0,50732,132.11458333333331,192
6286,0.0,,,,57.0,,,,,0,note_on,,0.0,57.0,0.0,50732,132.11458333333331,192
6287,0.0,,,,57.0,,,,,52,note_on,,100.0,57.0,100.0,50784,132.25,192
6288,0.0,,,,60.0,,,,,0,note_on,,100.0,60.0,100.0,50784,132.25,192
6289,0.0,,,,53.0,,,,,0,note_on,,100.0,53.0,100.0,50784,132.25,192
6290,0.0,,,,57.0,,,,,44,note_on,,0.0,57.0,0.0,50828,132.36458333333331,192
6291,0.0,,,,60.0,,,,,0,note_on,,0.0,60.0,0.0,50828,132.36458333333331,192
6292,0.0,,,,53.0,,,,,0,note_on,,0.0,53.0,0.0,50828,132.36458333333331,192
6293,0.0,,,,53.0,,,,,52,note_on,,100.0,53.0,100.0,50880,132.5,192
6294,0.0,,,,57.0,,,,,0,note_on,,100.0,57.0,100.0,50880,132.5,192
6295,0.0,,,,60.0,,,,,0,note_on,,100.0,60.0,100.0,50880,132.5,192
6296,0.0,,,,53.0,,,,,44,note_on,,0.0,53.0,0.0,50924,132.61458333333331,192
6297,0.0,,,,57.0,,,,,0,note_on,,0.0,57.0,0.0,50924,132.61458333333331,192
6298,0.0,,,,60.0,,,,,0,note_on,,0.0,60.0,0.0,50924,132.61458333333331,192
6299,0.0,,,,60.0,,,,,52,note_on,,100.0,60.0,100.0,50976,132.75,192
6300,0.0,,,,57.0,,,,,0,note_on,,100.0,57.0,100.0,50976,132.75,192
6301,0.0,,,,53.0,,,,,0,note_on,,100.0,53.0,100.0,50976,132.75,192
6302,0.0,,,,60.0,,,,,44,note_on,,0.0,60.0,0.0,51020,132.86458333333331,192
6303,0.0,,,,57.0,,,,,0,note_on,,0.0,57.0,0.0,51020,132.86458333333331,192
6304,0.0,,,,53.0,,,,,0,note_on,,0.0,53.0,0.0,51020,132.86458333333331,192
6305,0.0,,,,60.0,,,,,52,note_on,,100.0,60.0,100.0,51072,133.0,192
6306,0.0,,,,57.0,,,,,0,note_on,,100.0,57.0,100.0,51072,133.0,192
6307,0.0,,,,53.0,,,,,0,note_on,,100.0,53.0,100.0,51072,133.0,192
6308,0.0,,,,60.0,,,,,44,note_on,,0.0,60.0,0.0,51116,133.11458333333331,192
6309,0.0,,,,57.0,,,,,0,note_on,,0.0,57.0,0.0,51116,133.11458333333331,192
6310,0.0,,,,53.0,,,,,0,note_on,,0.0,53.0,0.0,51116,133.11458333333331,192
6311,0.0,,,,60.0,,,,,52,note_on,,100.0,60.0,100.0,51168,133.25,192
6312,0.0,,,,57.0,,,,,0,note_on,,100.0,57.0,100.0,51168,133.25,192
6313,0.0,,,,53.0,,,,,0,note_on,,100.0,53.0,100.0,51168,133.25,192
6314,0.0,,,,60.0,,,,,44,note_on,,0.0,60.0,0.0,51212,133.36458333333331,192
6315,0.0,,,,57.0,,,,,0,note_on,,0.0,57.0,0.0,51212,133.36458333333331,192
6316,0.0,,,,53.0,,,,,0,note_on,,0.0,53.0,0.0,51212,133.36458333333331,192
6317,0.0,,,,60.0,,,,,52,note_on,,100.0,60.0,100.0,51264,133.5,192
6318,0.0,,,,57.0,,,,,0,note_on,,100.0,57.0,100.0,51264,133.5,192
6319,0.0,,,,53.0,,,,,0,note_on,,100.0,53.0,100.0,51264,133.5,192
6320,0.0,,,,60.0,,,,,44,note_on,,0.0,60.0,0.0,51308,133.61458333333331,192
6321,0.0,,,,53.0,,,,,0,note_on,,0.0,53.0,0.0,51308,133.61458333333331,192
6322,0.0,,,,57.0,,,,,0,note_on,,0.0,57.0,0.0,51308,133.61458333333331,192
6323,0.0,,,,48.0,,,,,52,note_on,,100.0,48.0,100.0,51360,133.75,192
6324,0.0,,,,48.0,,,,,44,note_on,,0.0,48.0,0.0,51404,133.86458333333331,192
6325,0.0,,,,60.0,,,,,52,note_on,,100.0,60.0,100.0,51456,134.0,192
6326,0.0,,,,55.0,,,,,0,note_on,,100.0,55.0,100.0,51456,134.0,192
6327,0.0,,,,64.0,,,,,0,note_on,,100.0,64.0,100.0,51456,134.0,192
6328,0.0,,,,60.0,,,,,44,note_on,,0.0,60.0,0.0,51500,134.11458333333331,192
6329,0.0,,,,55.0,,,,,0,note_on,,0.0,55.0,0.0,51500,134.11458333333331,192
6330,0.0,,,,64.0,,,,,0,note_on,,0.0,64.0,0.0,51500,134.11458333333331,192
6331,0.0,,,,60.0,,,,,52,note_on,,100.0,60.0,100.0,51552,134.25,192
6332,0.0,,,,64.0,,,,,0,note_on,,100.0,64.0,100.0,51552,134.25,192
6333,0.0,,,,55.0,,,,,0,note_on,,100.0,55.0,100.0,51552,134.25,192
6334,0.0,,,,55.0,,,,,44,note_on,,0.0,55.0,0.0,51596,134.36458333333331,192
6335,0.0,,,,60.0,,,,,0,note_on,,0.0,60.0,0.0,51596,134.36458333333331,192
6336,0.0,,,,64.0,,,,,0,note_on,,0.0,64.0,0.0,51596,134.36458333333331,192
6337,0.0,,,,55.0,,,,,52,note_on,,100.0,55.0,100.0,51648,134.5,192
6338,0.0,,,,60.0,,,,,0,note_on,,100.0,60.0,100.0,51648,134.5,192
6339,0.0,,,,64.0,,,,,0,note_on,,100.0,64.0,100.0,51648,134.5,192
6340,0.0,,,,55.0,,,,,44,note_on,,0.0,55.0,0.0,51692,134.61458333333331,192
6341,0.0,,,,60.0,,,,,0,note_on,,0.0,60.0,0.0,51692,134.61458333333331,192
6342,0.0,,,,64.0,,,,,0,note_on,,0.0,64.0,0.0,51692,134.61458333333331,192
6343,0.0,,,,55.0,,,,,52,note_on,,100.0,55.0,100.0,51744,134.75,192
6344,0.0,,,,60.0,,,,,0,note_on,,100.0,60.0,100.0,51744,134.75,192
6345,0.0,,,,64.0,,,,,0,note_on,,100.0,64.0,100.0,51744,134.75,192
6346,0.0,,,,64.0,,,,,44,note_on,,0.0,64.0,0.0,51788,134.86458333333331,192
6347,0.0,,,,55.0,,,,,0,note_on,,0.0,55.0,0.0,51788,134.86458333333331,192
6348,0.0,,,,60.0,,,,,0,note_on,,0.0,60.0,0.0,51788,134.86458333333331,192
6349,0.0,,,,55.0,,,,,52,note_on,,100.0,55.0,100.0,51840,135.0,192
6350,0.0,,,,60.0,,,,,0,note_on,,100.0,60.0,100.0,51840,135.0,192
6351,0.0,,,,64.0,,,,,0,note_on,,100.0,64.0,100.0,51840,135.0,192
6352,0.0,,,,55.0,,,,,44,note_on,,0.0,55.0,0.0,51884,135.11458333333331,192
6353,0.0,,,,60.0,,,,,0,note_on,,0.0,60.0,0.0,51884,135.11458333333331,192
6354,0.0,,,,64.0,,,,,0,note_on,,0.0,64.0,0.0,51884,135.11458333333331,192
6355,0.0,,,,55.0,,,,,52,note_on,,100.0,55.0,100.0,51936,135.25,192
6356,0.0,,,,64.0,,,,,0,note_on,,100.0,64.0,100.0,51936,135.25,192
6357,0.0,,,,60.0,,,,,0,note_on,,100.0,60.0,100.0,51936,135.25,192
6358,0.0,,,,60.0,,,,,44,note_on,,0.0,60.0,0.0,51980,135.36458333333331,192
6359,0.0,,,,55.0,,,,,0,note_on,,0.0,55.0,0.0,51980,135.36458333333331,192
6360,0.0,,,,64.0,,,,,0,note_on,,0.0,64.0,0.0,51980,135.36458333333331,192
6361,0.0,,,,60.0,,,,,52,note_on,,100.0,60.0,100.0,52032,135.5,192
6362,0.0,,,,55.0,,,,,0,note_on,,100.0,55.0,100.0,52032,135.5,192
6363,0.0,,,,64.0,,,,,0,note_on,,100.0,64.0,100.0,52032,135.5,192
6364,0.0,,,,60.0,,,,,44,note_on,,0.0,60.0,0.0,52076,135.61458333333331,192
6365,0.0,,,,55.0,,,,,0,note_on,,0.0,55.0,0.0,52076,135.61458333333331,192
6366,0.0,,,,64.0,,,,,0,note_on,,0.0,64.0,0.0,52076,135.61458333333331,192
6367,0.0,,,,60.0,,,,,52,note_on,,100.0,60.0,100.0,52128,135.75,192
6368,0.0,,,,55.0,,,,,0,note_on,,100.0,55.0,100.0,52128,135.75,192
6369,0.0,,,,64.0,,,,,0,note_on,,100.0,64.0,100.0,52128,135.75,192
6370,0.0,,,,64.0,,,,,44,note_on,,0.0,64.0,0.0,52172,135.86458333333331,192
6371,0.0,,,,60.0,,,,,0,note_on,,0.0,60.0,0.0,52172,135.86458333333331,192
6372,0.0,,,,55.0,,,,,0,note_on,,0.0,55.0,0.0,52172,135.86458333333331,192
6373,0.0,,,,55.0,,,,,52,note_on,,100.0,55.0,100.0,52224,136.0,192
6374,0.0,,,,62.0,,,,,0,note_on,,100.0,62.0,100.0,52224,136.0,192
6375,0.0,,,,59.0,,,,,0,note_on,,100.0,59.0,100.0,52224,136.0,192
6376,0.0,,,,55.0,,,,,44,note_on,,0.0,55.0,0.0,52268,136.11458333333331,192
6377,0.0,,,,62.0,,,,,0,note_on,,0.0,62.0,0.0,52268,136.11458333333331,192
6378,0.0,,,,59.0,,,,,0,note_on,,0.0,59.0,0.0,52268,136.11458333333331,192
6379,0.0,,,,55.0,,,,,52,note_on,,100.0,55.0,100.0,52320,136.25,192
6380,0.0,,,,62.0,,,,,0,note_on,,100.0,62.0,100.0,52320,136.25,192
6381,0.0,,,,59.0,,,,,0,note_on,,100.0,59.0,100.0,52320,136.25,192
6382,0.0,,,,59.0,,,,,44,note_on,,0.0,59.0,0.0,52364,136.36458333333331,192
6383,0.0,,,,55.0,,,,,0,note_on,,0.0,55.0,0.0,52364,136.36458333333331,192
6384,0.0,,,,62.0,,,,,0,note_on,,0.0,62.0,0.0,52364,136.36458333333331,192
6385,0.0,,,,59.0,,,,,52,note_on,,100.0,59.0,100.0,52416,136.5,192
6386,0.0,,,,62.0,,,,,0,note_on,,100.0,62.0,100.0,52416,136.5,192
6387,0.0,,,,55.0,,,,,0,note_on,,100.0,55.0,100.0,52416,136.5,192
6388,0.0,,,,59.0,,,,,44,note_on,,0.0,59.0,0.0,52460,136.61458333333331,192
6389,0.0,,,,62.0,,,,,0,note_on,,0.0,62.0,0.0,52460,136.61458333333331,192
6390,0.0,,,,55.0,,,,,0,note_on,,0.0,55.0,0.0,52460,136.61458333333331,192
6391,0.0,,,,59.0,,,,,52,note_on,,100.0,59.0,100.0,52512,136.75,192
6392,0.0,,,,62.0,,,,,0,note_on,,100.0,62.0,100.0,52512,136.75,192
6393,0.0,,,,55.0,,,,,0,note_on,,100.0,55.0,100.0,52512,136.75,192
6394,0.0,,,,55.0,,,,,44,note_on,,0.0,55.0,0.0,52556,136.86458333333331,192
6395,0.0,,,,59.0,,,,,0,note_on,,0.0,59.0,0.0,52556,136.86458333333331,192
6396,0.0,,,,62.0,,,,,0,note_on,,0.0,62.0,0.0,52556,136.86458333333331,192
6397,0.0,,,,62.0,,,,,52,note_on,,100.0,62.0,100.0,52608,137.0,192
6398,0.0,,,,55.0,,,,,0,note_on,,100.0,55.0,100.0,52608,137.0,192
6399,0.0,,,,59.0,,,,,0,note_on,,100.0,59.0,100.0,52608,137.0,192
6400,0.0,,,,62.0,,,,,44,note_on,,0.0,62.0,0.0,52652,137.11458333333331,192
6401,0.0,,,,55.0,,,,,0,note_on,,0.0,55.0,0.0,52652,137.11458333333331,192
6402,0.0,,,,59.0,,,,,0,note_on,,0.0,59.0,0.0,52652,137.11458333333331,192
6403,0.0,,,,55.0,,,,,52,note_on,,100.0,55.0,100.0,52704,137.25,192
6404,0.0,,,,62.0,,,,,0,note_on,,100.0,62.0,100.0,52704,137.25,192
6405,0.0,,,,59.0,,,,,0,note_on,,100.0,59.0,100.0,52704,137.25,192
6406,0.0,,,,59.0,,,,,44,note_on,,0.0,59.0,0.0,52748,137.36458333333331,192
6407,0.0,,,,55.0,,,,,0,note_on,,0.0,55.0,0.0,52748,137.36458333333331,192
6408,0.0,,,,62.0,,,,,0,note_on,,0.0,62.0,0.0,52748,137.36458333333331,192
6409,0.0,,,,59.0,,,,,52,note_on,,100.0,59.0,100.0,52800,137.5,192
6410,0.0,,,,62.0,,,,,0,note_on,,100.0,62.0,100.0,52800,137.5,192
6411,0.0,,,,55.0,,,,,0,note_on,,100.0,55.0,100.0,52800,137.5,192
6412,0.0,,,,59.0,,,,,44,note_on,,0.0,59.0,0.0,52844,137.61458333333331,192
6413,0.0,,,,62.0,,,,,0,note_on,,0.0,62.0,0.0,52844,137.61458333333331,192
6414,0.0,,,,55.0,,,,,0,note_on,,0.0,55.0,0.0,52844,137.61458333333331,192
6415,0.0,,,,62.0,,,,,52,note_on,,100.0,62.0,100.0,52896,137.75,192
6416,0.0,,,,55.0,,,,,0,note_on,,100.0,55.0,100.0,52896,137.75,192
6417,0.0,,,,59.0,,,,,0,note_on,,100.0,59.0,100.0,52896,137.75,192
6418,0.0,,,,62.0,,,,,44,note_on,,0.0,62.0,0.0,52940,137.86458333333331,192
6419,0.0,,,,55.0,,,,,0,note_on,,0.0,55.0,0.0,52940,137.86458333333331,192
6420,0.0,,,,59.0,,,,,0,note_on,,0.0,59.0,0.0,52940,137.86458333333331,192
6421,0.0,,,,59.0,,,,,52,note_on,,100.0,59.0,100.0,52992,138.0,192
6422,0.0,,,,62.0,,,,,0,note_on,,100.0,62.0,100.0,52992,138.0,192
6423,0.0,,,,55.0,,,,,0,note_on,,100.0,55.0,100.0,52992,138.0,192
6424,0.0,,,,62.0,,,,,44,note_on,,0.0,62.0,0.0,53036,138.11458333333331,192
6425,0.0,,,,55.0,,,,,0,note_on,,0.0,55.0,0.0,53036,138.11458333333331,192
6426,0.0,,,,59.0,,,,,0,note_on,,0.0,59.0,0.0,53036,138.11458333333331,192
6427,0.0,,,,62.0,,,,,52,note_on,,100.0,62.0,100.0,53088,138.25,192
6428,0.0,,,,59.0,,,,,0,note_on,,100.0,59.0,100.0,53088,138.25,192
6429,0.0,,,,55.0,,,,,0,note_on,,100.0,55.0,100.0,53088,138.25,192
6430,0.0,,,,62.0,,,,,44,note_on,,0.0,62.0,0.0,53132,138.36458333333331,192
6431,0.0,,,,59.0,,,,,0,note_on,,0.0,59.0,0.0,53132,138.36458333333331,192
6432,0.0,,,,55.0,,,,,0,note_on,,0.0,55.0,0.0,53132,138.36458333333331,192
6433,0.0,,,,55.0,,,,,52,note_on,,100.0,55.0,100.0,53184,138.5,192
6434,0.0,,,,62.0,,,,,0,note_on,,100.0,62.0,100.0,53184,138.5,192
6435,0.0,,,,59.0,,,,,0,note_on,,100.0,59.0,100.0,53184,138.5,192
6436,0.0,,,,62.0,,,,,44,note_on,,0.0,62.0,0.0,53228,138.61458333333331,192
6437,0.0,,,,59.0,,,,,0,note_on,,0.0,59.0,0.0,53228,138.61458333333331,192
6438,0.0,,,,55.0,,,,,0,note_on,,0.0,55.0,0.0,53228,138.61458333333331,192
6439,0.0,,,,59.0,,,,,52,note_on,,100.0,59.0,100.0,53280,138.75,192
6440,0.0,,,,62.0,,,,,0,note_on,,100.0,62.0,100.0,53280,138.75,192
6441,0.0,,,,55.0,,,,,0,note_on,,100.0,55.0,100.0,53280,138.75,192
6442,0.0,,,,59.0,,,,,44,note_on,,0.0,59.0,0.0,53324,138.86458333333331,192
6443,0.0,,,,62.0,,,,,0,note_on,,0.0,62.0,0.0,53324,138.86458333333331,192
6444,0.0,,,,55.0,,,,,0,note_on,,0.0,55.0,0.0,53324,138.86458333333331,192
6445,0.0,,,,55.0,,,,,52,note_on,,100.0,55.0,100.0,53376,139.0,192
6446,0.0,,,,59.0,,,,,0,note_on,,100.0,59.0,100.0,53376,139.0,192
6447,0.0,,,,62.0,,,,,0,note_on,,100.0,62.0,100.0,53376,139.0,192
6448,0.0,,,,59.0,,,,,44,note_on,,0.0,59.0,0.0,53420,139.11458333333331,192
6449,0.0,,,,62.0,,,,,0,note_on,,0.0,62.0,0.0,53420,139.11458333333331,192
6450,0.0,,,,55.0,,,,,0,note_on,,0.0,55.0,0.0,53420,139.11458333333331,192
6451,0.0,,,,55.0,,,,,52,note_on,,100.0,55.0,100.0,53472,139.25,192
6452,0.0,,,,59.0,,,,,0,note_on,,100.0,59.0,100.0,53472,139.25,192
6453,0.0,,,,62.0,,,,,0,note_on,,100.0,62.0,100.0,53472,139.25,192
6454,0.0,,,,55.0,,,,,44,note_on,,0.0,55.0,0.0,53516,139.36458333333331,192
6455,0.0,,,,59.0,,,,,0,note_on,,0.0,59.0,0.0,53516,139.36458333333331,192
6456,0.0,,,,62.0,,,,,0,note_on,,0.0,62.0,0.0,53516,139.36458333333331,192
6457,0.0,,,,55.0,,,,,52,note_on,,100.0,55.0,100.0,53568,139.5,192
6458,0.0,,,,59.0,,,,,0,note_on,,100.0,59.0,100.0,53568,139.5,192
6459,0.0,,,,62.0,,,,,0,note_on,,100.0,62.0,100.0,53568,139.5,192
6460,0.0,,,,59.0,,,,,44,note_on,,0.0,59.0,0.0,53612,139.61458333333331,192
6461,0.0,,,,62.0,,,,,0,note_on,,0.0,62.0,0.0,53612,139.61458333333331,192
6462,0.0,,,,55.0,,,,,0,note_on,,0.0,55.0,0.0,53612,139.61458333333331,192
6463,0.0,,,,55.0,,,,,52,note_on,,100.0,55.0,100.0,53664,139.75,192
6464,0.0,,,,62.0,,,,,0,note_on,,100.0,62.0,100.0,53664,139.75,192
6465,0.0,,,,59.0,,,,,0,note_on,,100.0,59.0,100.0,53664,139.75,192
6466,0.0,,,,55.0,,,,,44,note_on,,0.0,55.0,0.0,53708,139.86458333333331,192
6467,0.0,,,,62.0,,,,,0,note_on,,0.0,62.0,0.0,53708,139.86458333333331,192
6468,0.0,,,,59.0,,,,,0,note_on,,0.0,59.0,0.0,53708,139.86458333333331,192
6469,0.0,,,,53.0,,,,,52,note_on,,100.0,53.0,100.0,53760,140.0,192
6470,0.0,,,,57.0,,,,,0,note_on,,100.0,57.0,100.0,53760,140.0,192
6471,0.0,,,,60.0,,,,,0,note_on,,100.0,60.0,100.0,53760,140.0,192
6472,0.0,,,,57.0,,,,,44,note_on,,0.0,57.0,0.0,53804,140.11458333333331,192
6473,0.0,,,,60.0,,,,,0,note_on,,0.0,60.0,0.0,53804,140.11458333333331,192
6474,0.0,,,,53.0,,,,,0,note_on,,0.0,53.0,0.0,53804,140.11458333333331,192
6475,0.0,,,,60.0,,,,,52,note_on,,100.0,60.0,100.0,53856,140.25,192
6476,0.0,,,,53.0,,,,,0,note_on,,100.0,53.0,100.0,53856,140.25,192
6477,0.0,,,,57.0,,,,,0,note_on,,100.0,57.0,100.0,53856,140.25,192
6478,0.0,,,,60.0,,,,,44,note_on,,0.0,60.0,0.0,53900,140.36458333333331,192
6479,0.0,,,,53.0,,,,,0,note_on,,0.0,53.0,0.0,53900,140.36458333333331,192
6480,0.0,,,,57.0,,,,,0,note_on,,0.0,57.0,0.0,53900,140.36458333333331,192
6481,0.0,,,,60.0,,,,,52,note_on,,100.0,60.0,100.0,53952,140.5,192
6482,0.0,,,,53.0,,,,,0,note_on,,100.0,53.0,100.0,53952,140.5,192
6483,0.0,,,,57.0,,,,,0,note_on,,100.0,57.0,100.0,53952,140.5,192
6484,0.0,,,,53.0,,,,,44,note_on,,0.0,53.0,0.0,53996,140.61458333333331,192
6485,0.0,,,,57.0,,,,,0,note_on,,0.0,57.0,0.0,53996,140.61458333333331,192
6486,0.0,,,,60.0,,,,,0,note_on,,0.0,60.0,0.0,53996,140.61458333333331,192
6487,0.0,,,,60.0,,,,,52,note_on,,100.0,60.0,100.0,54048,140.75,192
6488,0.0,,,,57.0,,,,,0,note_on,,100.0,57.0,100.0,54048,140.75,192
6489,0.0,,,,53.0,,,,,0,note_on,,100.0,53.0,100.0,54048,140.75,192
6490,0.0,,,,60.0,,,,,44,note_on,,0.0,60.0,0.0,54092,140.86458333333331,192
6491,0.0,,,,57.0,,,,,0,note_on,,0.0,57.0,0.0,54092,140.86458333333331,192
6492,0.0,,,,53.0,,,,,0,note_on,,0.0,53.0,0.0,54092,140.86458333333331,192
6493,0.0,,,,57.0,,,,,52,note_on,,100.0,57.0,100.0,54144,141.0,192
6494,0.0,,,,53.0,,,,,0,note_on,,100.0,53.0,100.0,54144,141.0,192
6495,0.0,,,,60.0,,,,,0,note_on,,100.0,60.0,100.0,54144,141.0,192
6496,0.0,,,,53.0,,,,,44,note_on,,0.0,53.0,0.0,54188,141.11458333333331,192
6497,0.0,,,,60.0,,,,,0,note_on,,0.0,60.0,0.0,54188,141.11458333333331,192
6498,0.0,,,,57.0,,,,,0,note_on,,0.0,57.0,0.0,54188,141.11458333333331,192
6499,0.0,,,,53.0,,,,,52,note_on,,100.0,53.0,100.0,54240,141.25,192
6500,0.0,,,,60.0,,,,,0,note_on,,100.0,60.0,100.0,54240,141.25,192
6501,0.0,,,,57.0,,,,,0,note_on,,100.0,57.0,100.0,54240,141.25,192
6502,0.0,,,,53.0,,,,,44,note_on,,0.0,53.0,0.0,54284,141.36458333333331,192
6503,0.0,,,,60.0,,,,,0,note_on,,0.0,60.0,0.0,54284,141.36458333333331,192
6504,0.0,,,,57.0,,,,,0,note_on,,0.0,57.0,0.0,54284,141.36458333333331,192
6505,0.0,,,,60.0,,,,,52,note_on,,100.0,60.0,100.0,54336,141.5,192
6506,0.0,,,,57.0,,,,,0,note_on,,100.0,57.0,100.0,54336,141.5,192
6507,0.0,,,,53.0,,,,,0,note_on,,100.0,53.0,100.0,54336,141.5,192
6508,0.0,,,,57.0,,,,,44,note_on,,0.0,57.0,0.0,54380,141.61458333333331,192
6509,0.0,,,,60.0,,,,,0,note_on,,0.0,60.0,0.0,54380,141.61458333333331,192
6510,0.0,,,,53.0,,,,,0,note_on,,0.0,53.0,0.0,54380,141.61458333333331,192
6511,0.0,,,,48.0,,,,,52,note_on,,100.0,48.0,100.0,54432,141.75,192
6512,0.0,,,,48.0,,,,,44,note_on,,0.0,48.0,0.0,54476,141.86458333333331,192
6513,0.0,,,,64.0,,,,,52,note_on,,100.0,64.0,100.0,54528,142.0,192
6514,0.0,,,,55.0,,,,,0,note_on,,100.0,55.0,100.0,54528,142.0,192
6515,0.0,,,,60.0,,,,,0,note_on,,100.0,60.0,100.0,54528,142.0,192
6516,0.0,,,,64.0,,,,,44,note_on,,0.0,64.0,0.0,54572,142.11458333333331,192
6517,0.0,,,,55.0,,,,,0,note_on,,0.0,55.0,0.0,54572,142.11458333333331,192
6518,0.0,,,,60.0,,,,,0,note_on,,0.0,60.0,0.0,54572,142.11458333333331,192
6519,0.0,,,,60.0,,,,,52,note_on,,100.0,60.0,100.0,54624,142.25,192
6520,0.0,,,,55.0,,,,,0,note_on,,100.0,55.0,100.0,54624,142.25,192
6521,0.0,,,,64.0,,,,,0,note_on,,100.0,64.0,100.0,54624,142.25,192
6522,0.0,,,,60.0,,,,,44,note_on,,0.0,60.0,0.0,54668,142.36458333333331,192
6523,0.0,,,,55.0,,,,,0,note_on,,0.0,55.0,0.0,54668,142.36458333333331,192
6524,0.0,,,,64.0,,,,,0,note_on,,0.0,64.0,0.0,54668,142.36458333333331,192
6525,0.0,,,,64.0,,,,,52,note_on,,100.0,64.0,100.0,54720,142.5,192
6526,0.0,,,,55.0,,,,,0,note_on,,100.0,55.0,100.0,54720,142.5,192
6527,0.0,,,,60.0,,,,,0,note_on,,100.0,60.0,100.0,54720,142.5,192
6528,0.0,,,,64.0,,,,,44,note_on,,0.0,64.0,0.0,54764,142.61458333333331,192
6529,0.0,,,,55.0,,,,,0,note_on,,0.0,55.0,0.0,54764,142.61458333333331,192
6530,0.0,,,,60.0,,,,,0,note_on,,0.0,60.0,0.0,54764,142.61458333333331,192
6531,0.0,,,,64.0,,,,,52,note_on,,100.0,64.0,100.0,54816,142.75,192
6532,0.0,,,,55.0,,,,,0,note_on,,100.0,55.0,100.0,54816,142.75,192
6533,0.0,,,,60.0,,,,,0,note_on,,100.0,60.0,100.0,54816,142.75,192
6534,0.0,,,,64.0,,,,,44,note_on,,0.0,64.0,0.0,54860,142.86458333333331,192
6535,0.0,,,,55.0,,,,,0,note_on,,0.0,55.0,0.0,54860,142.86458333333331,192
6536,0.0,,,,60.0,,,,,0,note_on,,0.0,60.0,0.0,54860,142.86458333333331,192
6537,0.0,,,,60.0,,,,,52,note_on,,100.0,60.0,100.0,54912,143.0,192
6538,0.0,,,,64.0,,,,,0,note_on,,100.0,64.0,100.0,54912,143.0,192
6539,0.0,,,,55.0,,,,,0,note_on,,100.0,55.0,100.0,54912,143.0,192
6540,0.0,,,,60.0,,,,,44,note_on,,0.0,60.0,0.0,54956,143.11458333333331,192
6541,0.0,,,,64.0,,,,,0,note_on,,0.0,64.0,0.0,54956,143.11458333333331,192
6542,0.0,,,,55.0,,,,,0,note_on,,0.0,55.0,0.0,54956,143.11458333333331,192
6543,0.0,,,,60.0,,,,,52,note_on,,100.0,60.0,100.0,55008,143.25,192
6544,0.0,,,,64.0,,,,,0,note_on,,100.0,64.0,100.0,55008,143.25,192
6545,0.0,,,,55.0,,,,,0,note_on,,100.0,55.0,100.0,55008,143.25,192
6546,0.0,,,,60.0,,,,,44,note_on,,0.0,60.0,0.0,55052,143.36458333333331,192
6547,0.0,,,,64.0,,,,,0,note_on,,0.0,64.0,0.0,55052,143.36458333333331,192
6548,0.0,,,,55.0,,,,,0,note_on,,0.0,55.0,0.0,55052,143.36458333333331,192
6549,0.0,,,,60.0,,,,,52,note_on,,100.0,60.0,100.0,55104,143.5,192
6550,0.0,,,,64.0,,,,,0,note_on,,100.0,64.0,100.0,55104,143.5,192
6551,0.0,,,,55.0,,,,,0,note_on,,100.0,55.0,100.0,55104,143.5,192
6552,0.0,,,,60.0,,,,,44,note_on,,0.0,60.0,0.0,55148,143.61458333333331,192
6553,0.0,,,,64.0,,,,,0,note_on,,0.0,64.0,0.0,55148,143.61458333333331,192
6554,0.0,,,,55.0,,,,,0,note_on,,0.0,55.0,0.0,55148,143.61458333333331,192
6555,0.0,,,,55.0,,,,,52,note_on,,100.0,55.0,100.0,55200,143.75,192
6556,0.0,,,,60.0,,,,,0,note_on,,100.0,60.0,100.0,55200,143.75,192
6557,0.0,,,,64.0,,,,,0,note_on,,100.0,64.0,100.0,55200,143.75,192
6558,0.0,,,,55.0,,,,,44,note_on,,0.0,55.0,0.0,55244,143.86458333333331,192
6559,0.0,,,,60.0,,,,,0,note_on,,0.0,60.0,0.0,55244,143.86458333333331,192
6560,0.0,,,,64.0,,,,,0,note_on,,0.0,64.0,0.0,55244,143.86458333333331,192
6561,0.0,,,,59.0,,,,,52,note_on,,100.0,59.0,100.0,55296,144.0,192
6562,0.0,,,,62.0,,,,,0,note_on,,100.0,62.0,100.0,55296,144.0,192
6563,0.0,,,,55.0,,,,,0,note_on,,100.0,55.0,100.0,55296,144.0,192
6564,0.0,,,,59.0,,,,,44,note_on,,0.0,59.0,0.0,55340,144.11458333333331,192
6565,0.0,,,,62.0,,,,,0,note_on,,0.0,62.0,0.0,55340,144.11458333333331,192
6566,0.0,,,,55.0,,,,,0,note_on,,0.0,55.0,0.0,55340,144.11458333333331,192
6567,0.0,,,,59.0,,,,,52,note_on,,100.0,59.0,100.0,55392,144.25,192
6568,0.0,,,,62.0,,,,,0,note_on,,100.0,62.0,100.0,55392,144.25,192
6569,0.0,,,,55.0,,,,,0,note_on,,100.0,55.0,100.0,55392,144.25,192
6570,0.0,,,,59.0,,,,,44,note_on,,0.0,59.0,0.0,55436,144.36458333333331,192
6571,0.0,,,,62.0,,,,,0,note_on,,0.0,62.0,0.0,55436,144.36458333333331,192
6572,0.0,,,,55.0,,,,,0,note_on,,0.0,55.0,0.0,55436,144.36458333333331,192
6573,0.0,,,,59.0,,,,,52,note_on,,100.0,59.0,100.0,55488,144.5,192
6574,0.0,,,,55.0,,,,,0,note_on,,100.0,55.0,100.0,55488,144.5,192
6575,0.0,,,,62.0,,,,,0,note_on,,100.0,62.0,100.0,55488,144.5,192
6576,0.0,,,,59.0,,,,,44,note_on,,0.0,59.0,0.0,55532,144.61458333333331,192
6577,0.0,,,,55.0,,,,,0,note_on,,0.0,55.0,0.0,55532,144.61458333333331,192
6578,0.0,,,,62.0,,,,,0,note_on,,0.0,62.0,0.0,55532,144.61458333333331,192
6579,0.0,,,,59.0,,,,,52,note_on,,100.0,59.0,100.0,55584,144.75,192
6580,0.0,,,,62.0,,,,,0,note_on,,100.0,62.0,100.0,55584,144.75,192
6581,0.0,,,,55.0,,,,,0,note_on,,100.0,55.0,100.0,55584,144.75,192
6582,0.0,,,,59.0,,,,,44,note_on,,0.0,59.0,0.0,55628,144.86458333333331,192
6583,0.0,,,,62.0,,,,,0,note_on,,0.0,62.0,0.0,55628,144.86458333333331,192
6584,0.0,,,,55.0,,,,,0,note_on,,0.0,55.0,0.0,55628,144.86458333333331,192
6585,0.0,,,,55.0,,,,,52,note_on,,100.0,55.0,100.0,55680,145.0,192
6586,0.0,,,,62.0,,,,,0,note_on,,100.0,62.0,100.0,55680,145.0,192
6587,0.0,,,,59.0,,,,,0,note_on,,100.0,59.0,100.0,55680,145.0,192
6588,0.0,,,,55.0,,,,,44,note_on,,0.0,55.0,0.0,55724,145.11458333333331,192
6589,0.0,,,,62.0,,,,,0,note_on,,0.0,62.0,0.0,55724,145.11458333333331,192
6590,0.0,,,,59.0,,,,,0,note_on,,0.0,59.0,0.0,55724,145.11458333333331,192
6591,0.0,,,,59.0,,,,,52,note_on,,100.0,59.0,100.0,55776,145.25,192
6592,0.0,,,,55.0,,,,,0,note_on,,100.0,55.0,100.0,55776,145.25,192
6593,0.0,,,,62.0,,,,,0,note_on,,100.0,62.0,100.0,55776,145.25,192
6594,0.0,,,,59.0,,,,,44,note_on,,0.0,59.0,0.0,55820,145.36458333333331,192
6595,0.0,,,,55.0,,,,,0,note_on,,0.0,55.0,0.0,55820,145.36458333333331,192
6596,0.0,,,,62.0,,,,,0,note_on,,0.0,62.0,0.0,55820,145.36458333333331,192
6597,0.0,,,,62.0,,,,,52,note_on,,100.0,62.0,100.0,55872,145.5,192
6598,0.0,,,,55.0,,,,,0,note_on,,100.0,55.0,100.0,55872,145.5,192
6599,0.0,,,,59.0,,,,,0,note_on,,100.0,59.0,100.0,55872,145.5,192
6600,0.0,,,,62.0,,,,,44,note_on,,0.0,62.0,0.0,55916,145.61458333333331,192
6601,0.0,,,,55.0,,,,,0,note_on,,0.0,55.0,0.0,55916,145.61458333333331,192
6602,0.0,,,,59.0,,,,,0,note_on,,0.0,59.0,0.0,55916,145.61458333333331,192
6603,0.0,,,,59.0,,,,,52,note_on,,100.0,59.0,100.0,55968,145.75,192
6604,0.0,,,,55.0,,,,,0,note_on,,100.0,55.0,100.0,55968,145.75,192
6605,0.0,,,,62.0,,,,,0,note_on,,100.0,62.0,100.0,55968,145.75,192
6606,0.0,,,,59.0,,,,,44,note_on,,0.0,59.0,0.0,56012,145.86458333333331,192
6607,0.0,,,,55.0,,,,,0,note_on,,0.0,55.0,0.0,56012,145.86458333333331,192
6608,0.0,,,,62.0,,,,,0,note_on,,0.0,62.0,0.0,56012,145.86458333333331,192
6609,0.0,,,,59.0,,,,,52,note_on,,100.0,59.0,100.0,56064,146.0,192
6610,0.0,,,,62.0,,,,,0,note_on,,100.0,62.0,100.0,56064,146.0,192
6611,0.0,,,,55.0,,,,,0,note_on,,100.0,55.0,100.0,56064,146.0,192
6612,0.0,,,,59.0,,,,,44,note_on,,0.0,59.0,0.0,56108,146.11458333333331,192
6613,0.0,,,,62.0,,,,,0,note_on,,0.0,62.0,0.0,56108,146.11458333333331,192
6614,0.0,,,,55.0,,,,,0,note_on,,0.0,55.0,0.0,56108,146.11458333333331,192
6615,0.0,,,,62.0,,,,,52,note_on,,100.0,62.0,100.0,56160,146.25,192
6616,0.0,,,,55.0,,,,,0,note_on,,100.0,55.0,100.0,56160,146.25,192
6617,0.0,,,,59.0,,,,,0,note_on,,100.0,59.0,100.0,56160,146.25,192
6618,0.0,,,,62.0,,,,,44,note_on,,0.0,62.0,0.0,56204,146.36458333333331,192
6619,0.0,,,,55.0,,,,,0,note_on,,0.0,55.0,0.0,56204,146.36458333333331,192
6620,0.0,,,,59.0,,,,,0,note_on,,0.0,59.0,0.0,56204,146.36458333333331,192
6621,0.0,,,,62.0,,,,,52,note_on,,100.0,62.0,100.0,56256,146.5,192
6622,0.0,,,,55.0,,,,,0,note_on,,100.0,55.0,100.0,56256,146.5,192
6623,0.0,,,,59.0,,,,,0,note_on,,100.0,59.0,100.0,56256,146.5,192
6624,0.0,,,,62.0,,,,,44,note_on,,0.0,62.0,0.0,56300,146.61458333333331,192
6625,0.0,,,,55.0,,,,,0,note_on,,0.0,55.0,0.0,56300,146.61458333333331,192
6626,0.0,,,,59.0,,,,,0,note_on,,0.0,59.0,0.0,56300,146.61458333333331,192
6627,0.0,,,,62.0,,,,,52,note_on,,100.0,62.0,100.0,56352,146.75,192
6628,0.0,,,,59.0,,,,,0,note_on,,100.0,59.0,100.0,56352,146.75,192
6629,0.0,,,,55.0,,,,,0,note_on,,100.0,55.0,100.0,56352,146.75,192
6630,0.0,,,,62.0,,,,,44,note_on,,0.0,62.0,0.0,56396,146.86458333333331,192
6631,0.0,,,,59.0,,,,,0,note_on,,0.0,59.0,0.0,56396,146.86458333333331,192
6632,0.0,,,,55.0,,,,,0,note_on,,0.0,55.0,0.0,56396,146.86458333333331,192
6633,0.0,,,,59.0,,,,,52,note_on,,100.0,59.0,100.0,56448,147.0,192
6634,0.0,,,,55.0,,,,,0,note_on,,100.0,55.0,100.0,56448,147.0,192
6635,0.0,,,,62.0,,,,,0,note_on,,100.0,62.0,100.0,56448,147.0,192
6636,0.0,,,,59.0,,,,,44,note_on,,0.0,59.0,0.0,56492,147.11458333333331,192
6637,0.0,,,,55.0,,,,,0,note_on,,0.0,55.0,0.0,56492,147.11458333333331,192
6638,0.0,,,,62.0,,,,,0,note_on,,0.0,62.0,0.0,56492,147.11458333333331,192
6639,0.0,,,,59.0,,,,,52,note_on,,100.0,59.0,100.0,56544,147.25,192
6640,0.0,,,,55.0,,,,,0,note_on,,100.0,55.0,100.0,56544,147.25,192
6641,0.0,,,,62.0,,,,,0,note_on,,100.0,62.0,100.0,56544,147.25,192
6642,0.0,,,,59.0,,,,,44,note_on,,0.0,59.0,0.0,56588,147.36458333333331,192
6643,0.0,,,,55.0,,,,,0,note_on,,0.0,55.0,0.0,56588,147.36458333333331,192
6644,0.0,,,,62.0,,,,,0,note_on,,0.0,62.0,0.0,56588,147.36458333333331,192
6645,0.0,,,,62.0,,,,,52,note_on,,100.0,62.0,100.0,56640,147.5,192
6646,0.0,,,,59.0,,,,,0,note_on,,100.0,59.0,100.0,56640,147.5,192
6647,0.0,,,,55.0,,,,,0,note_on,,100.0,55.0,100.0,56640,147.5,192
6648,0.0,,,,62.0,,,,,44,note_on,,0.0,62.0,0.0,56684,147.61458333333331,192
6649,0.0,,,,59.0,,,,,0,note_on,,0.0,59.0,0.0,56684,147.61458333333331,192
6650,0.0,,,,55.0,,,,,0,note_on,,0.0,55.0,0.0,56684,147.61458333333331,192
6651,0.0,,,,62.0,,,,,52,note_on,,100.0,62.0,100.0,56736,147.75,192
6652,0.0,,,,55.0,,,,,0,note_on,,100.0,55.0,100.0,56736,147.75,192
6653,0.0,,,,59.0,,,,,0,note_on,,100.0,59.0,100.0,56736,147.75,192
6654,0.0,,,,62.0,,,,,44,note_on,,0.0,62.0,0.0,56780,147.86458333333331,192
6655,0.0,,,,55.0,,,,,0,note_on,,0.0,55.0,0.0,56780,147.86458333333331,192
6656,0.0,,,,59.0,,,,,0,note_on,,0.0,59.0,0.0,56780,147.86458333333331,192
6657,0.0,,,,57.0,,,,,52,note_on,,100.0,57.0,100.0,56832,148.0,192
6658,0.0,,,,60.0,,,,,0,note_on,,100.0,60.0,100.0,56832,148.0,192
6659,0.0,,,,53.0,,,,,0,note_on,,100.0,53.0,100.0,56832,148.0,192
6660,0.0,,,,57.0,,,,,44,note_on,,0.0,57.0,0.0,56876,148.11458333333331,192
6661,0.0,,,,60.0,,,,,0,note_on,,0.0,60.0,0.0,56876,148.11458333333331,192
6662,0.0,,,,53.0,,,,,0,note_on,,0.0,53.0,0.0,56876,148.11458333333331,192
6663,0.0,,,,53.0,,,,,52,note_on,,100.0,53.0,100.0,56928,148.25,192
6664,0.0,,,,57.0,,,,,0,note_on,,100.0,57.0,100.0,56928,148.25,192
6665,0.0,,,,60.0,,,,,0,note_on,,100.0,60.0,100.0,56928,148.25,192
6666,0.0,,,,53.0,,,,,44,note_on,,0.0,53.0,0.0,56972,148.36458333333331,192
6667,0.0,,,,57.0,,,,,0,note_on,,0.0,57.0,0.0,56972,148.36458333333331,192
6668,0.0,,,,60.0,,,,,0,note_on,,0.0,60.0,0.0,56972,148.36458333333331,192
6669,0.0,,,,60.0,,,,,52,note_on,,100.0,60.0,100.0,57024,148.5,192
6670,0.0,,,,53.0,,,,,0,note_on,,100.0,53.0,100.0,57024,148.5,192
6671,0.0,,,,57.0,,,,,0,note_on,,100.0,57.0,100.0,57024,148.5,192
6672,0.0,,,,60.0,,,,,44,note_on,,0.0,60.0,0.0,57068,148.61458333333331,192
6673,0.0,,,,53.0,,,,,0,note_on,,0.0,53.0,0.0,57068,148.61458333333331,192
6674,0.0,,,,57.0,,,,,0,note_on,,0.0,57.0,0.0,57068,148.61458333333331,192
6675,0.0,,,,60.0,,,,,52,note_on,,100.0,60.0,100.0,57120,148.75,192
6676,0.0,,,,53.0,,,,,0,note_on,,100.0,53.0,100.0,57120,148.75,192
6677,0.0,,,,57.0,,,,,0,note_on,,100.0,57.0,100.0,57120,148.75,192
6678,0.0,,,,60.0,,,,,44,note_on,,0.0,60.0,0.0,57164,148.86458333333331,192
6679,0.0,,,,53.0,,,,,0,note_on,,0.0,53.0,0.0,57164,148.86458333333331,192
6680,0.0,,,,57.0,,,,,0,note_on,,0.0,57.0,0.0,57164,148.86458333333331,192
6681,0.0,,,,57.0,,,,,52,note_on,,100.0,57.0,100.0,57216,149.0,192
6682,0.0,,,,60.0,,,,,0,note_on,,100.0,60.0,100.0,57216,149.0,192
6683,0.0,,,,53.0,,,,,0,note_on,,100.0,53.0,100.0,57216,149.0,192
6684,0.0,,,,57.0,,,,,44,note_on,,0.0,57.0,0.0,57260,149.11458333333331,192
6685,0.0,,,,60.0,,,,,0,note_on,,0.0,60.0,0.0,57260,149.11458333333331,192
6686,0.0,,,,53.0,,,,,0,note_on,,0.0,53.0,0.0,57260,149.11458333333331,192
6687,0.0,,,,57.0,,,,,52,note_on,,100.0,57.0,100.0,57312,149.25,192
6688,0.0,,,,53.0,,,,,0,note_on,,100.0,53.0,100.0,57312,149.25,192
6689,0.0,,,,60.0,,,,,0,note_on,,100.0,60.0,100.0,57312,149.25,192
6690,0.0,,,,57.0,,,,,44,note_on,,0.0,57.0,0.0,57356,149.36458333333331,192
6691,0.0,,,,53.0,,,,,0,note_on,,0.0,53.0,0.0,57356,149.36458333333331,192
6692,0.0,,,,60.0,,,,,0,note_on,,0.0,60.0,0.0,57356,149.36458333333331,192
6693,0.0,,,,60.0,,,,,52,note_on,,100.0,60.0,100.0,57408,149.5,192
6694,0.0,,,,57.0,,,,,0,note_on,,100.0,57.0,100.0,57408,149.5,192
6695,0.0,,,,53.0,,,,,0,note_on,,100.0,53.0,100.0,57408,149.5,192
6696,0.0,,,,60.0,,,,,44,note_on,,0.0,60.0,0.0,57452,149.61458333333331,192
6697,0.0,,,,53.0,,,,,0,note_on,,0.0,53.0,0.0,57452,149.61458333333331,192
6698,0.0,,,,57.0,,,,,0,note_on,,0.0,57.0,0.0,57452,149.61458333333331,192
6699,0.0,,,,48.0,,,,,52,note_on,,100.0,48.0,100.0,57504,149.75,192
6700,0.0,,,,48.0,,,,,44,note_on,,0.0,48.0,0.0,57548,149.86458333333331,192
6701,0.0,,,,64.0,,,,,52,note_on,,100.0,64.0,100.0,57600,150.0,192
6702,0.0,,,,55.0,,,,,0,note_on,,100.0,55.0,100.0,57600,150.0,192
6703,0.0,,,,60.0,,,,,0,note_on,,100.0,60.0,100.0,57600,150.0,192
6704,0.0,,,,64.0,,,,,44,note_on,,0.0,64.0,0.0,57644,150.11458333333331,192
6705,0.0,,,,55.0,,,,,0,note_on,,0.0,55.0,0.0,57644,150.11458333333331,192
6706,0.0,,,,60.0,,,,,0,note_on,,0.0,60.0,0.0,57644,150.11458333333331,192
6707,0.0,,,,55.0,,,,,52,note_on,,100.0,55.0,100.0,57696,150.25,192
6708,0.0,,,,64.0,,,,,0,note_on,,100.0,64.0,100.0,57696,150.25,192
6709,0.0,,,,60.0,,,,,0,note_on,,100.0,60.0,100.0,57696,150.25,192
6710,0.0,,,,60.0,,,,,44,note_on,,0.0,60.0,0.0,57740,150.36458333333331,192
6711,0.0,,,,55.0,,,,,0,note_on,,0.0,55.0,0.0,57740,150.36458333333331,192
6712,0.0,,,,64.0,,,,,0,note_on,,0.0,64.0,0.0,57740,150.36458333333331,192
6713,0.0,,,,60.0,,,,,52,note_on,,100.0,60.0,100.0,57792,150.5,192
6714,0.0,,,,55.0,,,,,0,note_on,,100.0,55.0,100.0,57792,150.5,192
6715,0.0,,,,64.0,,,,,0,note_on,,100.0,64.0,100.0,57792,150.5,192
6716,0.0,,,,60.0,,,,,44,note_on,,0.0,60.0,0.0,57836,150.61458333333331,192
6717,0.0,,,,55.0,,,,,0,note_on,,0.0,55.0,0.0,57836,150.61458333333331,192
6718,0.0,,,,64.0,,,,,0,note_on,,0.0,64.0,0.0,57836,150.61458333333331,192
6719,0.0,,,,60.0,,,,,52,note_on,,100.0,60.0,100.0,57888,150.75,192
6720,0.0,,,,55.0,,,,,0,note_on,,100.0,55.0,100.0,57888,150.75,192
6721,0.0,,,,64.0,,,,,0,note_on,,100.0,64.0,100.0,57888,150.75,192
6722,0.0,,,,64.0,,,,,44,note_on,,0.0,64.0,0.0,57932,150.86458333333331,192
6723,0.0,,,,60.0,,,,,0,note_on,,0.0,60.0,0.0,57932,150.86458333333331,192
6724,0.0,,,,55.0,,,,,0,note_on,,0.0,55.0,0.0,57932,150.86458333333331,192
6725,0.0,,,,64.0,,,,,52,note_on,,100.0,64.0,100.0,57984,151.0,192
6726,0.0,,,,60.0,,,,,0,note_on,,100.0,60.0,100.0,57984,151.0,192
6727,0.0,,,,55.0,,,,,0,note_on,,100.0,55.0,100.0,57984,151.0,192
6728,0.0,,,,64.0,,,,,44,note_on,,0.0,64.0,0.0,58028,151.11458333333331,192
6729,0.0,,,,60.0,,,,,0,note_on,,0.0,60.0,0.0,58028,151.11458333333331,192
6730,0.0,,,,55.0,,,,,0,note_on,,0.0,55.0,0.0,58028,151.11458333333331,192
6731,0.0,,,,64.0,,,,,52,note_on,,100.0,64.0,100.0,58080,151.25,192
6732,0.0,,,,60.0,,,,,0,note_on,,100.0,60.0,100.0,58080,151.25,192
6733,0.0,,,,55.0,,,,,0,note_on,,100.0,55.0,100.0,58080,151.25,192
6734,0.0,,,,55.0,,,,,44,note_on,,0.0,55.0,0.0,58124,151.36458333333331,192
6735,0.0,,,,64.0,,,,,0,note_on,,0.0,64.0,0.0,58124,151.36458333333331,192
6736,0.0,,,,60.0,,,,,0,note_on,,0.0,60.0,0.0,58124,151.36458333333331,192
6737,0.0,,,,55.0,,,,,52,note_on,,100.0,55.0,100.0,58176,151.5,192
6738,0.0,,,,60.0,,,,,0,note_on,,100.0,60.0,100.0,58176,151.5,192
6739,0.0,,,,64.0,,,,,0,note_on,,100.0,64.0,100.0,58176,151.5,192
6740,0.0,,,,55.0,,,,,44,note_on,,0.0,55.0,0.0,58220,151.61458333333331,192
6741,0.0,,,,60.0,,,,,0,note_on,,0.0,60.0,0.0,58220,151.61458333333331,192
6742,0.0,,,,64.0,,,,,0,note_on,,0.0,64.0,0.0,58220,151.61458333333331,192
6743,0.0,,,,55.0,,,,,52,note_on,,100.0,55.0,100.0,58272,151.75,192
6744,0.0,,,,64.0,,,,,0,note_on,,100.0,64.0,100.0,58272,151.75,192
6745,0.0,,,,60.0,,,,,0,note_on,,100.0,60.0,100.0,58272,151.75,192
6746,0.0,,,,60.0,,,,,44,note_on,,0.0,60.0,0.0,58316,151.86458333333331,192
6747,0.0,,,,55.0,,,,,0,note_on,,0.0,55.0,0.0,58316,151.86458333333331,192
6748,0.0,,,,64.0,,,,,0,note_on,,0.0,64.0,0.0,58316,151.86458333333331,192
6749,0.0,,,,62.0,,,,,52,note_on,,100.0,62.0,100.0,58368,152.0,192
6750,0.0,,,,55.0,,,,,0,note_on,,100.0,55.0,100.0,58368,152.0,192
6751,0.0,,,,59.0,,,,,0,note_on,,100.0,59.0,100.0,58368,152.0,192
6752,0.0,,,,62.0,,,,,44,note_on,,0.0,62.0,0.0,58412,152.11458333333331,192
6753,0.0,,,,55.0,,,,,0,note_on,,0.0,55.0,0.0,58412,152.11458333333331,192
6754,0.0,,,,59.0,,,,,0,note_on,,0.0,59.0,0.0,58412,152.11458333333331,192
6755,0.0,,,,55.0,,,,,52,note_on,,100.0,55.0,100.0,58464,152.25,192
6756,0.0,,,,59.0,,,,,0,note_on,,100.0,59.0,100.0,58464,152.25,192
6757,0.0,,,,62.0,,,,,0,note_on,,100.0,62.0,100.0,58464,152.25,192
6758,0.0,,,,62.0,,,,,44,note_on,,0.0,62.0,0.0,58508,152.36458333333331,192
6759,0.0,,,,55.0,,,,,0,note_on,,0.0,55.0,0.0,58508,152.36458333333331,192
6760,0.0,,,,59.0,,,,,0,note_on,,0.0,59.0,0.0,58508,152.36458333333331,192
6761,0.0,,,,55.0,,,,,52,note_on,,100.0,55.0,100.0,58560,152.5,192
6762,0.0,,,,59.0,,,,,0,note_on,,100.0,59.0,100.0,58560,152.5,192
6763,0.0,,,,62.0,,,,,0,note_on,,100.0,62.0,100.0,58560,152.5,192
6764,0.0,,,,55.0,,,,,44,note_on,,0.0,55.0,0.0,58604,152.61458333333331,192
6765,0.0,,,,59.0,,,,,0,note_on,,0.0,59.0,0.0,58604,152.61458333333331,192
6766,0.0,,,,62.0,,,,,0,note_on,,0.0,62.0,0.0,58604,152.61458333333331,192
6767,0.0,,,,59.0,,,,,52,note_on,,100.0,59.0,100.0,58656,152.75,192
6768,0.0,,,,55.0,,,,,0,note_on,,100.0,55.0,100.0,58656,152.75,192
6769,0.0,,,,62.0,,,,,0,note_on,,100.0,62.0,100.0,58656,152.75,192
6770,0.0,,,,62.0,,,,,44,note_on,,0.0,62.0,0.0,58700,152.86458333333331,192
6771,0.0,,,,59.0,,,,,0,note_on,,0.0,59.0,0.0,58700,152.86458333333331,192
6772,0.0,,,,55.0,,,,,0,note_on,,0.0,55.0,0.0,58700,152.86458333333331,192
6773,0.0,,,,55.0,,,,,52,note_on,,100.0,55.0,100.0,58752,153.0,192
6774,0.0,,,,62.0,,,,,0,note_on,,100.0,62.0,100.0,58752,153.0,192
6775,0.0,,,,59.0,,,,,0,note_on,,100.0,59.0,100.0,58752,153.0,192
6776,0.0,,,,55.0,,,,,44,note_on,,0.0,55.0,0.0,58796,153.11458333333331,192
6777,0.0,,,,62.0,,,,,0,note_on,,0.0,62.0,0.0,58796,153.11458333333331,192
6778,0.0,,,,59.0,,,,,0,note_on,,0.0,59.0,0.0,58796,153.11458333333331,192
6779,0.0,,,,62.0,,,,,52,note_on,,100.0,62.0,100.0,58848,153.25,192
6780,0.0,,,,55.0,,,,,0,note_on,,100.0,55.0,100.0,58848,153.25,192
6781,0.0,,,,59.0,,,,,0,note_on,,100.0,59.0,100.0,58848,153.25,192
6782,0.0,,,,59.0,,,,,44,note_on,,0.0,59.0,0.0,58892,153.36458333333331,192
6783,0.0,,,,62.0,,,,,0,note_on,,0.0,62.0,0.0,58892,153.36458333333331,192
6784,0.0,,,,55.0,,,,,0,note_on,,0.0,55.0,0.0,58892,153.36458333333331,192
6785,0.0,,,,59.0,,,,,52,note_on,,100.0,59.0,100.0,58944,153.5,192
6786,0.0,,,,55.0,,,,,0,note_on,,100.0,55.0,100.0,58944,153.5,192
6787,0.0,,,,62.0,,,,,0,note_on,,100.0,62.0,100.0,58944,153.5,192
6788,0.0,,,,59.0,,,,,44,note_on,,0.0,59.0,0.0,58988,153.61458333333331,192
6789,0.0,,,,55.0,,,,,0,note_on,,0.0,55.0,0.0,58988,153.61458333333331,192
6790,0.0,,,,62.0,,,,,0,note_on,,0.0,62.0,0.0,58988,153.61458333333331,192
6791,0.0,,,,55.0,,,,,52,note_on,,100.0,55.0,100.0,59040,153.75,192
6792,0.0,,,,59.0,,,,,0,note_on,,100.0,59.0,100.0,59040,153.75,192
6793,0.0,,,,62.0,,,,,0,note_on,,100.0,62.0,100.0,59040,153.75,192
6794,0.0,,,,55.0,,,,,44,note_on,,0.0,55.0,0.0,59084,153.86458333333331,192
6795,0.0,,,,59.0,,,,,0,note_on,,0.0,59.0,0.0,59084,153.86458333333331,192
6796,0.0,,,,62.0,,,,,0,note_on,,0.0,62.0,0.0,59084,153.86458333333331,192
6797,0.0,,,,59.0,,,,,52,note_on,,100.0,59.0,100.0,59136,154.0,192
6798,0.0,,,,62.0,,,,,0,note_on,,100.0,62.0,100.0,59136,154.0,192
6799,0.0,,,,55.0,,,,,0,note_on,,100.0,55.0,100.0,59136,154.0,192
6800,0.0,,,,62.0,,,,,44,note_on,,0.0,62.0,0.0,59180,154.11458333333331,192
6801,0.0,,,,55.0,,,,,0,note_on,,0.0,55.0,0.0,59180,154.11458333333331,192
6802,0.0,,,,59.0,,,,,0,note_on,,0.0,59.0,0.0,59180,154.11458333333331,192
6803,0.0,,,,59.0,,,,,52,note_on,,100.0,59.0,100.0,59232,154.25,192
6804,0.0,,,,62.0,,,,,0,note_on,,100.0,62.0,100.0,59232,154.25,192
6805,0.0,,,,55.0,,,,,0,note_on,,100.0,55.0,100.0,59232,154.25,192
6806,0.0,,,,59.0,,,,,44,note_on,,0.0,59.0,0.0,59276,154.36458333333331,192
6807,0.0,,,,62.0,,,,,0,note_on,,0.0,62.0,0.0,59276,154.36458333333331,192
6808,0.0,,,,55.0,,,,,0,note_on,,0.0,55.0,0.0,59276,154.36458333333331,192
6809,0.0,,,,55.0,,,,,52,note_on,,100.0,55.0,100.0,59328,154.5,192
6810,0.0,,,,62.0,,,,,0,note_on,,100.0,62.0,100.0,59328,154.5,192
6811,0.0,,,,59.0,,,,,0,note_on,,100.0,59.0,100.0,59328,154.5,192
6812,0.0,,,,62.0,,,,,44,note_on,,0.0,62.0,0.0,59372,154.61458333333331,192
6813,0.0,,,,59.0,,,,,0,note_on,,0.0,59.0,0.0,59372,154.61458333333331,192
6814,0.0,,,,55.0,,,,,0,note_on,,0.0,55.0,0.0,59372,154.61458333333331,192
6815,0.0,,,,55.0,,,,,52,note_on,,100.0,55.0,100.0,59424,154.75,192
6816,0.0,,,,59.0,,,,,0,note_on,,100.0,59.0,100.0,59424,154.75,192
6817,0.0,,,,62.0,,,,,0,note_on,,100.0,62.0,100.0,59424,154.75,192
6818,0.0,,,,55.0,,,,,44,note_on,,0.0,55.0,0.0,59468,154.86458333333331,192
6819,0.0,,,,59.0,,,,,0,note_on,,0.0,59.0,0.0,59468,154.86458333333331,192
6820,0.0,,,,62.0,,,,,0,note_on,,0.0,62.0,0.0,59468,154.86458333333331,192
6821,0.0,,,,59.0,,,,,52,note_on,,100.0,59.0,100.0,59520,155.0,192
6822,0.0,,,,62.0,,,,,0,note_on,,100.0,62.0,100.0,59520,155.0,192
6823,0.0,,,,55.0,,,,,0,note_on,,100.0,55.0,100.0,59520,155.0,192
6824,0.0,,,,62.0,,,,,44,note_on,,0.0,62.0,0.0,59564,155.11458333333331,192
6825,0.0,,,,55.0,,,,,0,note_on,,0.0,55.0,0.0,59564,155.11458333333331,192
6826,0.0,,,,59.0,,,,,0,note_on,,0.0,59.0,0.0,59564,155.11458333333331,192
6827,0.0,,,,59.0,,,,,52,note_on,,100.0,59.0,100.0,59616,155.25,192
6828,0.0,,,,62.0,,,,,0,note_on,,100.0,62.0,100.0,59616,155.25,192
6829,0.0,,,,55.0,,,,,0,note_on,,100.0,55.0,100.0,59616,155.25,192
6830,0.0,,,,59.0,,,,,44,note_on,,0.0,59.0,0.0,59660,155.36458333333331,192
6831,0.0,,,,62.0,,,,,0,note_on,,0.0,62.0,0.0,59660,155.36458333333331,192
6832,0.0,,,,55.0,,,,,0,note_on,,0.0,55.0,0.0,59660,155.36458333333331,192
6833,0.0,,,,55.0,,,,,52,note_on,,100.0,55.0,100.0,59712,155.5,192
6834,0.0,,,,59.0,,,,,0,note_on,,100.0,59.0,100.0,59712,155.5,192
6835,0.0,,,,62.0,,,,,0,note_on,,100.0,62.0,100.0,59712,155.5,192
6836,0.0,,,,59.0,,,,,44,note_on,,0.0,59.0,0.0,59756,155.61458333333331,192
6837,0.0,,,,62.0,,,,,0,note_on,,0.0,62.0,0.0,59756,155.61458333333331,192
6838,0.0,,,,55.0,,,,,0,note_on,,0.0,55.0,0.0,59756,155.61458333333331,192
6839,0.0,,,,55.0,,,,,52,note_on,,100.0,55.0,100.0,59808,155.75,192
6840,0.0,,,,59.0,,,,,0,note_on,,100.0,59.0,100.0,59808,155.75,192
6841,0.0,,,,62.0,,,,,0,note_on,,100.0,62.0,100.0,59808,155.75,192
6842,0.0,,,,55.0,,,,,44,note_on,,0.0,55.0,0.0,59852,155.86458333333331,192
6843,0.0,,,,59.0,,,,,0,note_on,,0.0,59.0,0.0,59852,155.86458333333331,192
6844,0.0,,,,62.0,,,,,0,note_on,,0.0,62.0,0.0,59852,155.86458333333331,192
6845,0.0,,,,57.0,,,,,52,note_on,,100.0,57.0,100.0,59904,156.0,192
6846,0.0,,,,53.0,,,,,0,note_on,,100.0,53.0,100.0,59904,156.0,192
6847,0.0,,,,60.0,,,,,0,note_on,,100.0,60.0,100.0,59904,156.0,192
6848,0.0,,,,53.0,,,,,44,note_on,,0.0,53.0,0.0,59948,156.11458333333331,192
6849,0.0,,,,60.0,,,,,0,note_on,,0.0,60.0,0.0,59948,156.11458333333331,192
6850,0.0,,,,57.0,,,,,0,note_on,,0.0,57.0,0.0,59948,156.11458333333331,192
6851,0.0,,,,60.0,,,,,52,note_on,,100.0,60.0,100.0,60000,156.25,192
6852,0.0,,,,53.0,,,,,0,note_on,,100.0,53.0,100.0,60000,156.25,192
6853,0.0,,,,57.0,,,,,0,note_on,,100.0,57.0,100.0,60000,156.25,192
6854,0.0,,,,60.0,,,,,44,note_on,,0.0,60.0,0.0,60044,156.36458333333331,192
6855,0.0,,,,53.0,,,,,0,note_on,,0.0,53.0,0.0,60044,156.36458333333331,192
6856,0.0,,,,57.0,,,,,0,note_on,,0.0,57.0,0.0,60044,156.36458333333331,192
6857,0.0,,,,53.0,,,,,52,note_on,,100.0,53.0,100.0,60096,156.5,192
6858,0.0,,,,60.0,,,,,0,note_on,,100.0,60.0,100.0,60096,156.5,192
6859,0.0,,,,57.0,,,,,0,note_on,,100.0,57.0,100.0,60096,156.5,192
6860,0.0,,,,60.0,,,,,44,note_on,,0.0,60.0,0.0,60140,156.61458333333331,192
6861,0.0,,,,57.0,,,,,0,note_on,,0.0,57.0,0.0,60140,156.61458333333331,192
6862,0.0,,,,53.0,,,,,0,note_on,,0.0,53.0,0.0,60140,156.61458333333331,192
6863,0.0,,,,57.0,,,,,52,note_on,,100.0,57.0,100.0,60192,156.75,192
6864,0.0,,,,60.0,,,,,0,note_on,,100.0,60.0,100.0,60192,156.75,192
6865,0.0,,,,53.0,,,,,0,note_on,,100.0,53.0,100.0,60192,156.75,192
6866,0.0,,,,57.0,,,,,44,note_on,,0.0,57.0,0.0,60236,156.86458333333331,192
6867,0.0,,,,60.0,,,,,0,note_on,,0.0,60.0,0.0,60236,156.86458333333331,192
6868,0.0,,,,53.0,,,,,0,note_on,,0.0,53.0,0.0,60236,156.86458333333331,192
6869,0.0,,,,53.0,,,,,52,note_on,,100.0,53.0,100.0,60288,157.0,192
6870,0.0,,,,60.0,,,,,0,note_on,,100.0,60.0,100.0,60288,157.0,192
6871,0.0,,,,57.0,,,,,0,note_on,,100.0,57.0,100.0,60288,157.0,192
6872,0.0,,,,60.0,,,,,44,note_on,,0.0,60.0,0.0,60332,157.11458333333331,192
6873,0.0,,,,57.0,,,,,0,note_on,,0.0,57.0,0.0,60332,157.11458333333331,192
6874,0.0,,,,53.0,,,,,0,note_on,,0.0,53.0,0.0,60332,157.11458333333331,192
6875,0.0,,,,60.0,,,,,52,note_on,,100.0,60.0,100.0,60384,157.25,192
6876,0.0,,,,57.0,,,,,0,note_on,,100.0,57.0,100.0,60384,157.25,192
6877,0.0,,,,53.0,,,,,0,note_on,,100.0,53.0,100.0,60384,157.25,192
6878,0.0,,,,60.0,,,,,44,note_on,,0.0,60.0,0.0,60428,157.36458333333331,192
6879,0.0,,,,57.0,,,,,0,note_on,,0.0,57.0,0.0,60428,157.36458333333331,192
6880,0.0,,,,53.0,,,,,0,note_on,,0.0,53.0,0.0,60428,157.36458333333331,192
6881,0.0,,,,60.0,,,,,52,note_on,,100.0,60.0,100.0,60480,157.5,192
6882,0.0,,,,53.0,,,,,0,note_on,,100.0,53.0,100.0,60480,157.5,192
6883,0.0,,,,57.0,,,,,0,note_on,,100.0,57.0,100.0,60480,157.5,192
6884,0.0,,,,53.0,,,,,44,note_on,,0.0,53.0,0.0,60524,157.61458333333331,192
6885,0.0,,,,60.0,,,,,0,note_on,,0.0,60.0,0.0,60524,157.61458333333331,192
6886,0.0,,,,57.0,,,,,0,note_on,,0.0,57.0,0.0,60524,157.61458333333331,192
6887,0.0,,,,48.0,,,,,52,note_on,,100.0,48.0,100.0,60576,157.75,192
6888,0.0,,,,48.0,,,,,44,note_on,,0.0,48.0,0.0,60620,157.86458333333331,192
6889,0.0,,,,64.0,,,,,52,note_on,,100.0,64.0,100.0,60672,158.0,192
6890,0.0,,,,55.0,,,,,0,note_on,,100.0,55.0,100.0,60672,158.0,192
6891,0.0,,,,60.0,,,,,0,note_on,,100.0,60.0,100.0,60672,158.0,192
6892,0.0,,,,64.0,,,,,44,note_on,,0.0,64.0,0.0,60716,158.11458333333331,192
6893,0.0,,,,55.0,,,,,0,note_on,,0.0,55.0,0.0,60716,158.11458333333331,192
6894,0.0,,,,60.0,,,,,0,note_on,,0.0,60.0,0.0,60716,158.11458333333331,192
6895,0.0,,,,64.0,,,,,52,note_on,,100.0,64.0,100.0,60768,158.25,192
6896,0.0,,,,60.0,,,,,0,note_on,,100.0,60.0,100.0,60768,158.25,192
6897,0.0,,,,55.0,,,,,0,note_on,,100.0,55.0,100.0,60768,158.25,192
6898,0.0,,,,64.0,,,,,44,note_on,,0.0,64.0,0.0,60812,158.36458333333331,192
6899,0.0,,,,60.0,,,,,0,note_on,,0.0,60.0,0.0,60812,158.36458333333331,192
6900,0.0,,,,55.0,,,,,0,note_on,,0.0,55.0,0.0,60812,158.36458333333331,192
6901,0.0,,,,64.0,,,,,52,note_on,,100.0,64.0,100.0,60864,158.5,192
6902,0.0,,,,60.0,,,,,0,note_on,,100.0,60.0,100.0,60864,158.5,192
6903,0.0,,,,55.0,,,,,0,note_on,,100.0,55.0,100.0,60864,158.5,192
6904,0.0,,,,64.0,,,,,44,note_on,,0.0,64.0,0.0,60908,158.61458333333331,192
6905,0.0,,,,60.0,,,,,0,note_on,,0.0,60.0,0.0,60908,158.61458333333331,192
6906,0.0,,,,55.0,,,,,0,note_on,,0.0,55.0,0.0,60908,158.61458333333331,192
6907,0.0,,,,60.0,,,,,52,note_on,,100.0,60.0,100.0,60960,158.75,192
6908,0.0,,,,55.0,,,,,0,note_on,,100.0,55.0,100.0,60960,158.75,192
6909,0.0,,,,64.0,,,,,0,note_on,,100.0,64.0,100.0,60960,158.75,192
6910,0.0,,,,60.0,,,,,44,note_on,,0.0,60.0,0.0,61004,158.86458333333331,192
6911,0.0,,,,55.0,,,,,0,note_on,,0.0,55.0,0.0,61004,158.86458333333331,192
6912,0.0,,,,64.0,,,,,0,note_on,,0.0,64.0,0.0,61004,158.86458333333331,192
6913,0.0,,,,55.0,,,,,52,note_on,,100.0,55.0,100.0,61056,159.0,192
6914,0.0,,,,60.0,,,,,0,note_on,,100.0,60.0,100.0,61056,159.0,192
6915,0.0,,,,64.0,,,,,0,note_on,,100.0,64.0,100.0,61056,159.0,192
6916,0.0,,,,55.0,,,,,44,note_on,,0.0,55.0,0.0,61100,159.11458333333331,192
6917,0.0,,,,60.0,,,,,0,note_on,,0.0,60.0,0.0,61100,159.11458333333331,192
6918,0.0,,,,64.0,,,,,0,note_on,,0.0,64.0,0.0,61100,159.11458333333331,192
6919,0.0,,,,64.0,,,,,52,note_on,,100.0,64.0,100.0,61152,159.25,192
6920,0.0,,,,60.0,,,,,0,note_on,,100.0,60.0,100.0,61152,159.25,192
6921,0.0,,,,55.0,,,,,0,note_on,,100.0,55.0,100.0,61152,159.25,192
6922,0.0,,,,64.0,,,,,44,note_on,,0.0,64.0,0.0,61196,159.36458333333331,192
6923,0.0,,,,60.0,,,,,0,note_on,,0.0,60.0,0.0,61196,159.36458333333331,192
6924,0.0,,,,55.0,,,,,0,note_on,,0.0,55.0,0.0,61196,159.36458333333331,192
6925,0.0,,,,60.0,,,,,52,note_on,,100.0,60.0,100.0,61248,159.5,192
6926,0.0,,,,55.0,,,,,0,note_on,,100.0,55.0,100.0,61248,159.5,192
6927,0.0,,,,64.0,,,,,0,note_on,,100.0,64.0,100.0,61248,159.5,192
6928,0.0,,,,60.0,,,,,44,note_on,,0.0,60.0,0.0,61292,159.61458333333331,192
6929,0.0,,,,55.0,,,,,0,note_on,,0.0,55.0,0.0,61292,159.61458333333331,192
6930,0.0,,,,64.0,,,,,0,note_on,,0.0,64.0,0.0,61292,159.61458333333331,192
6931,0.0,,,,60.0,,,,,52,note_on,,100.0,60.0,100.0,61344,159.75,192
6932,0.0,,,,55.0,,,,,0,note_on,,100.0,55.0,100.0,61344,159.75,192
6933,0.0,,,,64.0,,,,,0,note_on,,100.0,64.0,100.0,61344,159.75,192
6934,0.0,,,,60.0,,,,,44,note_on,,0.0,60.0,0.0,61388,159.86458333333331,192
6935,0.0,,,,55.0,,,,,0,note_on,,0.0,55.0,0.0,61388,159.86458333333331,192
6936,0.0,,,,64.0,,,,,0,note_on,,0.0,64.0,0.0,61388,159.86458333333331,192
6937,0.0,,,,62.0,,,,,52,note_on,,100.0,62.0,100.0,61440,160.0,192
6938,0.0,,,,59.0,,,,,0,note_on,,100.0,59.0,100.0,61440,160.0,192
6939,0.0,,,,55.0,,,,,0,note_on,,100.0,55.0,100.0,61440,160.0,192
6940,0.0,,,,62.0,,,,,44,note_on,,0.0,62.0,0.0,61484,160.11458333333331,192
6941,0.0,,,,59.0,,,,,0,note_on,,0.0,59.0,0.0,61484,160.11458333333331,192
6942,0.0,,,,55.0,,,,,0,note_on,,0.0,55.0,0.0,61484,160.11458333333331,192
6943,0.0,,,,62.0,,,,,52,note_on,,100.0,62.0,100.0,61536,160.25,192
6944,0.0,,,,55.0,,,,,0,note_on,,100.0,55.0,100.0,61536,160.25,192
6945,0.0,,,,59.0,,,,,0,note_on,,100.0,59.0,100.0,61536,160.25,192
6946,0.0,,,,62.0,,,,,44,note_on,,0.0,62.0,0.0,61580,160.36458333333331,192
6947,0.0,,,,55.0,,,,,0,note_on,,0.0,55.0,0.0,61580,160.36458333333331,192
6948,0.0,,,,59.0,,,,,0,note_on,,0.0,59.0,0.0,61580,160.36458333333331,192
6949,0.0,,,,55.0,,,,,52,note_on,,100.0,55.0,100.0,61632,160.5,192
6950,0.0,,,,62.0,,,,,0,note_on,,100.0,62.0,100.0,61632,160.5,192
6951,0.0,,,,59.0,,,,,0,note_on,,100.0,59.0,100.0,61632,160.5,192
6952,0.0,,,,55.0,,,,,44,note_on,,0.0,55.0,0.0,61676,160.61458333333331,192
6953,0.0,,,,62.0,,,,,0,note_on,,0.0,62.0,0.0,61676,160.61458333333331,192
6954,0.0,,,,59.0,,,,,0,note_on,,0.0,59.0,0.0,61676,160.61458333333331,192
6955,0.0,,,,59.0,,,,,52,note_on,,100.0,59.0,100.0,61728,160.75,192
6956,0.0,,,,62.0,,,,,0,note_on,,100.0,62.0,100.0,61728,160.75,192
6957,0.0,,,,55.0,,,,,0,note_on,,100.0,55.0,100.0,61728,160.75,192
6958,0.0,,,,59.0,,,,,44,note_on,,0.0,59.0,0.0,61772,160.86458333333331,192
6959,0.0,,,,62.0,,,,,0,note_on,,0.0,62.0,0.0,61772,160.86458333333331,192
6960,0.0,,,,55.0,,,,,0,note_on,,0.0,55.0,0.0,61772,160.86458333333331,192
6961,0.0,,,,55.0,,,,,52,note_on,,100.0,55.0,100.0,61824,161.0,192
6962,0.0,,,,59.0,,,,,0,note_on,,100.0,59.0,100.0,61824,161.0,192
6963,0.0,,,,62.0,,,,,0,note_on,,100.0,62.0,100.0,61824,161.0,192
6964,0.0,,,,55.0,,,,,44,note_on,,0.0,55.0,0.0,61868,161.11458333333331,192
6965,0.0,,,,59.0,,,,,0,note_on,,0.0,59.0,0.0,61868,161.11458333333331,192
6966,0.0,,,,62.0,,,,,0,note_on,,0.0,62.0,0.0,61868,161.11458333333331,192
6967,0.0,,,,59.0,,,,,52,note_on,,100.0,59.0,100.0,61920,161.25,192
6968,0.0,,,,62.0,,,,,0,note_on,,100.0,62.0,100.0,61920,161.25,192
6969,0.0,,,,55.0,,,,,0,note_on,,100.0,55.0,100.0,61920,161.25,192
6970,0.0,,,,59.0,,,,,44,note_on,,0.0,59.0,0.0,61964,161.36458333333331,192
6971,0.0,,,,62.0,,,,,0,note_on,,0.0,62.0,0.0,61964,161.36458333333331,192
6972,0.0,,,,55.0,,,,,0,note_on,,0.0,55.0,0.0,61964,161.36458333333331,192
6973,0.0,,,,55.0,,,,,52,note_on,,100.0,55.0,100.0,62016,161.5,192
6974,0.0,,,,62.0,,,,,0,note_on,,100.0,62.0,100.0,62016,161.5,192
6975,0.0,,,,59.0,,,,,0,note_on,,100.0,59.0,100.0,62016,161.5,192
6976,0.0,,,,55.0,,,,,44,note_on,,0.0,55.0,0.0,62060,161.61458333333331,192
6977,0.0,,,,62.0,,,,,0,note_on,,0.0,62.0,0.0,62060,161.61458333333331,192
6978,0.0,,,,59.0,,,,,0,note_on,,0.0,59.0,0.0,62060,161.61458333333331,192
6979,0.0,,,,62.0,,,,,52,note_on,,100.0,62.0,100.0,62112,161.75,192
6980,0.0,,,,59.0,,,,,0,note_on,,100.0,59.0,100.0,62112,161.75,192
6981,0.0,,,,55.0,,,,,0,note_on,,100.0,55.0,100.0,62112,161.75,192
6982,0.0,,,,62.0,,,,,44,note_on,,0.0,62.0,0.0,62156,161.86458333333331,192
6983,0.0,,,,59.0,,,,,0,note_on,,0.0,59.0,0.0,62156,161.86458333333331,192
6984,0.0,,,,55.0,,,,,0,note_on,,0.0,55.0,0.0,62156,161.86458333333331,192
6985,0.0,,,,62.0,,,,,52,note_on,,100.0,62.0,100.0,62208,162.0,192
6986,0.0,,,,55.0,,,,,0,note_on,,100.0,55.0,100.0,62208,162.0,192
6987,0.0,,,,59.0,,,,,0,note_on,,100.0,59.0,100.0,62208,162.0,192
6988,0.0,,,,62.0,,,,,44,note_on,,0.0,62.0,0.0,62252,162.11458333333331,192
6989,0.0,,,,55.0,,,,,0,note_on,,0.0,55.0,0.0,62252,162.11458333333331,192
6990,0.0,,,,59.0,,,,,0,note_on,,0.0,59.0,0.0,62252,162.11458333333331,192
6991,0.0,,,,59.0,,,,,52,note_on,,100.0,59.0,100.0,62304,162.25,192
6992,0.0,,,,62.0,,,,,0,note_on,,100.0,62.0,100.0,62304,162.25,192
6993,0.0,,,,55.0,,,,,0,note_on,,100.0,55.0,100.0,62304,162.25,192
6994,0.0,,,,59.0,,,,,44,note_on,,0.0,59.0,0.0,62348,162.36458333333331,192
6995,0.0,,,,62.0,,,,,0,note_on,,0.0,62.0,0.0,62348,162.36458333333331,192
6996,0.0,,,,55.0,,,,,0,note_on,,0.0,55.0,0.0,62348,162.36458333333331,192
6997,0.0,,,,55.0,,,,,52,note_on,,100.0,55.0,100.0,62400,162.5,192
6998,0.0,,,,59.0,,,,,0,note_on,,100.0,59.0,100.0,62400,162.5,192
6999,0.0,,,,62.0,,,,,0,note_on,,100.0,62.0,100.0,62400,162.5,192
7000,0.0,,,,55.0,,,,,44,note_on,,0.0,55.0,0.0,62444,162.61458333333331,192
7001,0.0,,,,59.0,,,,,0,note_on,,0.0,59.0,0.0,62444,162.61458333333331,192
7002,0.0,,,,62.0,,,,,0,note_on,,0.0,62.0,0.0,62444,162.61458333333331,192
7003,0.0,,,,55.0,,,,,52,note_on,,100.0,55.0,100.0,62496,162.75,192
7004,0.0,,,,59.0,,,,,0,note_on,,100.0,59.0,100.0,62496,162.75,192
7005,0.0,,,,62.0,,,,,0,note_on,,100.0,62.0,100.0,62496,162.75,192
7006,0.0,,,,55.0,,,,,44,note_on,,0.0,55.0,0.0,62540,162.86458333333331,192
7007,0.0,,,,59.0,,,,,0,note_on,,0.0,59.0,0.0,62540,162.86458333333331,192
7008,0.0,,,,62.0,,,,,0,note_on,,0.0,62.0,0.0,62540,162.86458333333331,192
7009,0.0,,,,59.0,,,,,52,note_on,,100.0,59.0,100.0,62592,163.0,192
7010,0.0,,,,55.0,,,,,0,note_on,,100.0,55.0,100.0,62592,163.0,192
7011,0.0,,,,62.0,,,,,0,note_on,,100.0,62.0,100.0,62592,163.0,192
7012,0.0,,,,59.0,,,,,44,note_on,,0.0,59.0,0.0,62636,163.11458333333331,192
7013,0.0,,,,55.0,,,,,0,note_on,,0.0,55.0,0.0,62636,163.11458333333331,192
7014,0.0,,,,62.0,,,,,0,note_on,,0.0,62.0,0.0,62636,163.11458333333331,192
7015,0.0,,,,59.0,,,,,52,note_on,,100.0,59.0,100.0,62688,163.25,192
7016,0.0,,,,55.0,,,,,0,note_on,,100.0,55.0,100.0,62688,163.25,192
7017,0.0,,,,62.0,,,,,0,note_on,,100.0,62.0,100.0,62688,163.25,192
7018,0.0,,,,59.0,,,,,44,note_on,,0.0,59.0,0.0,62732,163.36458333333331,192
7019,0.0,,,,55.0,,,,,0,note_on,,0.0,55.0,0.0,62732,163.36458333333331,192
7020,0.0,,,,62.0,,,,,0,note_on,,0.0,62.0,0.0,62732,163.36458333333331,192
7021,0.0,,,,55.0,,,,,52,note_on,,100.0,55.0,100.0,62784,163.5,192
7022,0.0,,,,62.0,,,,,0,note_on,,100.0,62.0,100.0,62784,163.5,192
7023,0.0,,,,59.0,,,,,0,note_on,,100.0,59.0,100.0,62784,163.5,192
7024,0.0,,,,55.0,,,,,44,note_on,,0.0,55.0,0.0,62828,163.61458333333331,192
7025,0.0,,,,62.0,,,,,0,note_on,,0.0,62.0,0.0,62828,163.61458333333331,192
7026,0.0,,,,59.0,,,,,0,note_on,,0.0,59.0,0.0,62828,163.61458333333331,192
7027,0.0,,,,55.0,,,,,52,note_on,,100.0,55.0,100.0,62880,163.75,192
7028,0.0,,,,62.0,,,,,0,note_on,,100.0,62.0,100.0,62880,163.75,192
7029,0.0,,,,59.0,,,,,0,note_on,,100.0,59.0,100.0,62880,163.75,192
7030,0.0,,,,55.0,,,,,44,note_on,,0.0,55.0,0.0,62924,163.86458333333331,192
7031,0.0,,,,62.0,,,,,0,note_on,,0.0,62.0,0.0,62924,163.86458333333331,192
7032,0.0,,,,59.0,,,,,0,note_on,,0.0,59.0,0.0,62924,163.86458333333331,192
7033,0.0,,,,60.0,,,,,52,note_on,,100.0,60.0,100.0,62976,164.0,192
7034,0.0,,,,57.0,,,,,0,note_on,,100.0,57.0,100.0,62976,164.0,192
7035,0.0,,,,53.0,,,,,0,note_on,,100.0,53.0,100.0,62976,164.0,192
7036,0.0,,,,60.0,,,,,44,note_on,,0.0,60.0,0.0,63020,164.11458333333331,192
7037,0.0,,,,57.0,,,,,0,note_on,,0.0,57.0,0.0,63020,164.11458333333331,192
7038,0.0,,,,53.0,,,,,0,note_on,,0.0,53.0,0.0,63020,164.11458333333331,192
7039,0.0,,,,57.0,,,,,52,note_on,,100.0,57.0,100.0,63072,164.25,192
7040,0.0,,,,53.0,,,,,0,note_on,,100.0,53.0,100.0,63072,164.25,192
7041,0.0,,,,60.0,,,,,0,note_on,,100.0,60.0,100.0,63072,164.25,192
7042,0.0,,,,57.0,,,,,44,note_on,,0.0,57.0,0.0,63116,164.36458333333331,192
7043,0.0,,,,53.0,,,,,0,note_on,,0.0,53.0,0.0,63116,164.36458333333331,192
7044,0.0,,,,60.0,,,,,0,note_on,,0.0,60.0,0.0,63116,164.36458333333331,192
7045,0.0,,,,57.0,,,,,52,note_on,,100.0,57.0,100.0,63168,164.5,192
7046,0.0,,,,60.0,,,,,0,note_on,,100.0,60.0,100.0,63168,164.5,192
7047,0.0,,,,53.0,,,,,0,note_on,,100.0,53.0,100.0,63168,164.5,192
7048,0.0,,,,57.0,,,,,44,note_on,,0.0,57.0,0.0,63212,164.61458333333331,192
7049,0.0,,,,60.0,,,,,0,note_on,,0.0,60.0,0.0,63212,164.61458333333331,192
7050,0.0,,,,53.0,,,,,0,note_on,,0.0,53.0,0.0,63212,164.61458333333331,192
7051,0.0,,,,53.0,,,,,52,note_on,,100.0,53.0,100.0,63264,164.75,192
7052,0.0,,,,60.0,,,,,0,note_on,,100.0,60.0,100.0,63264,164.75,192
7053,0.0,,,,57.0,,,,,0,note_on,,100.0,57.0,100.0,63264,164.75,192
7054,0.0,,,,53.0,,,,,44,note_on,,0.0,53.0,0.0,63308,164.86458333333331,192
7055,0.0,,,,60.0,,,,,0,note_on,,0.0,60.0,0.0,63308,164.86458333333331,192
7056,0.0,,,,57.0,,,,,0,note_on,,0.0,57.0,0.0,63308,164.86458333333331,192
7057,0.0,,,,53.0,,,,,52,note_on,,100.0,53.0,100.0,63360,165.0,192
7058,0.0,,,,60.0,,,,,0,note_on,,100.0,60.0,100.0,63360,165.0,192
7059,0.0,,,,57.0,,,,,0,note_on,,100.0,57.0,100.0,63360,165.0,192
7060,0.0,,,,53.0,,,,,44,note_on,,0.0,53.0,0.0,63404,165.11458333333331,192
7061,0.0,,,,60.0,,,,,0,note_on,,0.0,60.0,0.0,63404,165.11458333333331,192
7062,0.0,,,,57.0,,,,,0,note_on,,0.0,57.0,0.0,63404,165.11458333333331,192
7063,0.0,,,,57.0,,,,,52,note_on,,100.0,57.0,100.0,63456,165.25,192
7064,0.0,,,,60.0,,,,,0,note_on,,100.0,60.0,100.0,63456,165.25,192
7065,0.0,,,,53.0,,,,,0,note_on,,100.0,53.0,100.0,63456,165.25,192
7066,0.0,,,,57.0,,,,,44,note_on,,0.0,57.0,0.0,63500,165.36458333333331,192
7067,0.0,,,,60.0,,,,,0,note_on,,0.0,60.0,0.0,63500,165.36458333333331,192
7068,0.0,,,,53.0,,,,,0,note_on,,0.0,53.0,0.0,63500,165.36458333333331,192
7069,0.0,,,,57.0,,,,,52,note_on,,100.0,57.0,100.0,63552,165.5,192
7070,0.0,,,,53.0,,,,,0,note_on,,100.0,53.0,100.0,63552,165.5,192
7071,0.0,,,,60.0,,,,,0,note_on,,100.0,60.0,100.0,63552,165.5,192
7072,0.0,,,,57.0,,,,,44,note_on,,0.0,57.0,0.0,63596,165.61458333333331,192
7073,0.0,,,,60.0,,,,,0,note_on,,0.0,60.0,0.0,63596,165.61458333333331,192
7074,0.0,,,,53.0,,,,,0,note_on,,0.0,53.0,0.0,63596,165.61458333333331,192
7075,0.0,,,,48.0,,,,,52,note_on,,100.0,48.0,100.0,63648,165.75,192
7076,0.0,,,,48.0,,,,,44,note_on,,0.0,48.0,0.0,63692,165.86458333333331,192
7077,0.0,,,,64.0,,,,,52,note_on,,100.0,64.0,100.0,63744,166.0,192
7078,0.0,,,,55.0,,,,,0,note_on,,100.0,55.0,100.0,63744,166.0,192
7079,0.0,,,,60.0,,,,,0,note_on,,100.0,60.0,100.0,63744,166.0,192
7080,0.0,,,,64.0,,,,,44,note_on,,0.0,64.0,0.0,63788,166.11458333333331,192
7081,0.0,,,,55.0,,,,,0,note_on,,0.0,55.0,0.0,63788,166.11458333333331,192
7082,0.0,,,,60.0,,,,,0,note_on,,0.0,60.0,0.0,63788,166.11458333333331,192
7083,0.0,,,,64.0,,,,,52,note_on,,100.0,64.0,100.0,63840,166.25,192
7084,0.0,,,,55.0,,,,,0,note_on,,100.0,55.0,100.0,63840,166.25,192
7085,0.0,,,,60.0,,,,,0,note_on,,100.0,60.0,100.0,63840,166.25,192
7086,0.0,,,,60.0,,,,,44,note_on,,0.0,60.0,0.0,63884,166.36458333333331,192
7087,0.0,,,,64.0,,,,,0,note_on,,0.0,64.0,0.0,63884,166.36458333333331,192
7088,0.0,,,,55.0,,,,,0,note_on,,0.0,55.0,0.0,63884,166.36458333333331,192
7089,0.0,,,,60.0,,,,,52,note_on,,100.0,60.0,100.0,63936,166.5,192
7090,0.0,,,,55.0,,,,,0,note_on,,100.0,55.0,100.0,63936,166.5,192
7091,0.0,,,,64.0,,,,,0,note_on,,100.0,64.0,100.0,63936,166.5,192
7092,0.0,,,,60.0,,,,,44,note_on,,0.0,60.0,0.0,63980,166.61458333333331,192
7093,0.0,,,,55.0,,,,,0,note_on,,0.0,55.0,0.0,63980,166.61458333333331,192
7094,0.0,,,,64.0,,,,,0,note_on,,0.0,64.0,0.0,63980,166.61458333333331,192
7095,0.0,,,,64.0,,,,,52,note_on,,100.0,64.0,100.0,64032,166.75,192
7096,0.0,,,,55.0,,,,,0,note_on,,100.0,55.0,100.0,64032,166.75,192
7097,0.0,,,,60.0,,,,,0,note_on,,100.0,60.0,100.0,64032,166.75,192
7098,0.0,,,,60.0,,,,,44,note_on,,0.0,60.0,0.0,64076,166.86458333333331,192
7099,0.0,,,,64.0,,,,,0,note_on,,0.0,64.0,0.0,64076,166.86458333333331,192
7100,0.0,,,,55.0,,,,,0,note_on,,0.0,55.0,0.0,64076,166.86458333333331,192
7101,0.0,,,,55.0,,,,,52,note_on,,100.0,55.0,100.0,64128,167.0,192
7102,0.0,,,,60.0,,,,,0,note_on,,100.0,60.0,100.0,64128,167.0,192
7103,0.0,,,,64.0,,,,,0,note_on,,100.0,64.0,100.0,64128,167.0,192
7104,0.0,,,,55.0,,,,,44,note_on,,0.0,55.0,0.0,64172,167.11458333333331,192
7105,0.0,,,,60.0,,,,,0,note_on,,0.0,60.0,0.0,64172,167.11458333333331,192
7106,0.0,,,,64.0,,,,,0,note_on,,0.0,64.0,0.0,64172,167.11458333333331,192
7107,0.0,,,,55.0,,,,,52,note_on,,100.0,55.0,100.0,64224,167.25,192
7108,0.0,,,,60.0,,,,,0,note_on,,100.0,60.0,100.0,64224,167.25,192
7109,0.0,,,,64.0,,,,,0,note_on,,100.0,64.0,100.0,64224,167.25,192
7110,0.0,,,,64.0,,,,,44,note_on,,0.0,64.0,0.0,64268,167.36458333333331,192
7111,0.0,,,,55.0,,,,,0,note_on,,0.0,55.0,0.0,64268,167.36458333333331,192
7112,0.0,,,,60.0,,,,,0,note_on,,0.0,60.0,0.0,64268,167.36458333333331,192
7113,0.0,,,,60.0,,,,,52,note_on,,100.0,60.0,100.0,64320,167.5,192
7114,0.0,,,,55.0,,,,,0,note_on,,100.0,55.0,100.0,64320,167.5,192
7115,0.0,,,,64.0,,,,,0,note_on,,100.0,64.0,100.0,64320,167.5,192
7116,0.0,,,,60.0,,,,,44,note_on,,0.0,60.0,0.0,64364,167.61458333333331,192
7117,0.0,,,,55.0,,,,,0,note_on,,0.0,55.0,0.0,64364,167.61458333333331,192
7118,0.0,,,,64.0,,,,,0,note_on,,0.0,64.0,0.0,64364,167.61458333333331,192
7119,0.0,,,,55.0,,,,,52,note_on,,100.0,55.0,100.0,64416,167.75,192
7120,0.0,,,,64.0,,,,,0,note_on,,100.0,64.0,100.0,64416,167.75,192
7121,0.0,,,,60.0,,,,,0,note_on,,100.0,60.0,100.0,64416,167.75,192
7122,0.0,,,,60.0,,,,,44,note_on,,0.0,60.0,0.0,64460,167.86458333333331,192
7123,0.0,,,,55.0,,,,,0,note_on,,0.0,55.0,0.0,64460,167.86458333333331,192
7124,0.0,,,,64.0,,,,,0,note_on,,0.0,64.0,0.0,64460,167.86458333333331,192
7125,0.0,,,,62.0,,,,,52,note_on,,100.0,62.0,100.0,64512,168.0,192
7126,0.0,,,,55.0,,,,,0,note_on,,100.0,55.0,100.0,64512,168.0,192
7127,0.0,,,,59.0,,,,,0,note_on,,100.0,59.0,100.0,64512,168.0,192
7128,0.0,,,,62.0,,,,,44,note_on,,0.0,62.0,0.0,64556,168.11458333333331,192
7129,0.0,,,,55.0,,,,,0,note_on,,0.0,55.0,0.0,64556,168.11458333333331,192
7130,0.0,,,,59.0,,,,,0,note_on,,0.0,59.0,0.0,64556,168.11458333333331,192
7131,0.0,,,,62.0,,,,,52,note_on,,100.0,62.0,100.0,64608,168.25,192
7132,0.0,,,,55.0,,,,,0,note_on,,100.0,55.0,100.0,64608,168.25,192
7133,0.0,,,,59.0,,,,,0,note_on,,100.0,59.0,100.0,64608,168.25,192
7134,0.0,,,,59.0,,,,,44,note_on,,0.0,59.0,0.0,64652,168.36458333333331,192
7135,0.0,,,,62.0,,,,,0,note_on,,0.0,62.0,0.0,64652,168.36458333333331,192
7136,0.0,,,,55.0,,,,,0,note_on,,0.0,55.0,0.0,64652,168.36458333333331,192
7137,0.0,,,,55.0,,,,,52,note_on,,100.0,55.0,100.0,64704,168.5,192
7138,0.0,,,,62.0,,,,,0,note_on,,100.0,62.0,100.0,64704,168.5,192
7139,0.0,,,,59.0,,,,,0,note_on,,100.0,59.0,100.0,64704,168.5,192
7140,0.0,,,,55.0,,,,,44,note_on,,0.0,55.0,0.0,64748,168.61458333333331,192
7141,0.0,,,,62.0,,,,,0,note_on,,0.0,62.0,0.0,64748,168.61458333333331,192
7142,0.0,,,,59.0,,,,,0,note_on,,0.0,59.0,0.0,64748,168.61458333333331,192
7143,0.0,,,,55.0,,,,,52,note_on,,100.0,55.0,100.0,64800,168.75,192
7144,0.0,,,,59.0,,,,,0,note_on,,100.0,59.0,100.0,64800,168.75,192
7145,0.0,,,,62.0,,,,,0,note_on,,100.0,62.0,100.0,64800,168.75,192
7146,0.0,,,,62.0,,,,,44,note_on,,0.0,62.0,0.0,64844,168.86458333333331,192
7147,0.0,,,,55.0,,,,,0,note_on,,0.0,55.0,0.0,64844,168.86458333333331,192
7148,0.0,,,,59.0,,,,,0,note_on,,0.0,59.0,0.0,64844,168.86458333333331,192
7149,0.0,,,,62.0,,,,,52,note_on,,100.0,62.0,100.0,64896,169.0,192
7150,0.0,,,,55.0,,,,,0,note_on,,100.0,55.0,100.0,64896,169.0,192
7151,0.0,,,,59.0,,,,,0,note_on,,100.0,59.0,100.0,64896,169.0,192
7152,0.0,,,,62.0,,,,,44,note_on,,0.0,62.0,0.0,64940,169.11458333333331,192
7153,0.0,,,,55.0,,,,,0,note_on,,0.0,55.0,0.0,64940,169.11458333333331,192
7154,0.0,,,,59.0,,,,,0,note_on,,0.0,59.0,0.0,64940,169.11458333333331,192
7155,0.0,,,,55.0,,,,,52,note_on,,100.0,55.0,100.0,64992,169.25,192
7156,0.0,,,,62.0,,,,,0,note_on,,100.0,62.0,100.0,64992,169.25,192
7157,0.0,,,,59.0,,,,,0,note_on,,100.0,59.0,100.0,64992,169.25,192
7158,0.0,,,,59.0,,,,,44,note_on,,0.0,59.0,0.0,65036,169.36458333333331,192
7159,0.0,,,,55.0,,,,,0,note_on,,0.0,55.0,0.0,65036,169.36458333333331,192
7160,0.0,,,,62.0,,,,,0,note_on,,0.0,62.0,0.0,65036,169.36458333333331,192
7161,0.0,,,,62.0,,,,,52,note_on,,100.0,62.0,100.0,65088,169.5,192
7162,0.0,,,,55.0,,,,,0,note_on,,100.0,55.0,100.0,65088,169.5,192
7163,0.0,,,,59.0,,,,,0,note_on,,100.0,59.0,100.0,65088,169.5,192
7164,0.0,,,,62.0,,,,,44,note_on,,0.0,62.0,0.0,65132,169.61458333333331,192
7165,0.0,,,,55.0,,,,,0,note_on,,0.0,55.0,0.0,65132,169.61458333333331,192
7166,0.0,,,,59.0,,,,,0,note_on,,0.0,59.0,0.0,65132,169.61458333333331,192
7167,0.0,,,,55.0,,,,,52,note_on,,100.0,55.0,100.0,65184,169.75,192
7168,0.0,,,,59.0,,,,,0,note_on,,100.0,59.0,100.0,65184,169.75,192
7169,0.0,,,,62.0,,,,,0,note_on,,100.0,62.0,100.0,65184,169.75,192
7170,0.0,,,,55.0,,,,,44,note_on,,0.0,55.0,0.0,65228,169.86458333333331,192
7171,0.0,,,,59.0,,,,,0,note_on,,0.0,59.0,0.0,65228,169.86458333333331,192
7172,0.0,,,,62.0,,,,,0,note_on,,0.0,62.0,0.0,65228,169.86458333333331,192
7173,0.0,,,,55.0,,,,,52,note_on,,101.0,55.0,101.0,65280,170.0,192
7174,0.0,,,,59.0,,,,,0,note_on,,101.0,59.0,101.0,65280,170.0,192
7175,0.0,,,,62.0,,,,,0,note_on,,101.0,62.0,101.0,65280,170.0,192
7176,0.0,,,,59.0,,,,,44,note_on,,0.0,59.0,0.0,65324,170.11458333333331,192
7177,0.0,,,,62.0,,,,,0,note_on,,0.0,62.0,0.0,65324,170.11458333333331,192
7178,0.0,,,,55.0,,,,,0,note_on,,0.0,55.0,0.0,65324,170.11458333333331,192
7179,0.0,,,,55.0,,,,,52,note_on,,99.0,55.0,99.0,65376,170.25,192
7180,0.0,,,,59.0,,,,,0,note_on,,99.0,59.0,99.0,65376,170.25,192
7181,0.0,,,,62.0,,,,,0,note_on,,99.0,62.0,99.0,65376,170.25,192
7182,0.0,,,,55.0,,,,,44,note_on,,0.0,55.0,0.0,65420,170.36458333333331,192
7183,0.0,,,,59.0,,,,,0,note_on,,0.0,59.0,0.0,65420,170.36458333333331,192
7184,0.0,,,,62.0,,,,,0,note_on,,0.0,62.0,0.0,65420,170.36458333333331,192
7185,0.0,,,,62.0,,,,,52,note_on,,97.0,62.0,97.0,65472,170.5,192
7186,0.0,,,,55.0,,,,,0,note_on,,97.0,55.0,97.0,65472,170.5,192
7187,0.0,,,,59.0,,,,,0,note_on,,97.0,59.0,97.0,65472,170.5,192
7188,0.0,,,,55.0,,,,,44,note_on,,0.0,55.0,0.0,65516,170.61458333333331,192
7189,0.0,,,,59.0,,,,,0,note_on,,0.0,59.0,0.0,65516,170.61458333333331,192
7190,0.0,,,,62.0,,,,,0,note_on,,0.0,62.0,0.0,65516,170.61458333333331,192
7191,0.0,,,,55.0,,,,,52,note_on,,95.0,55.0,95.0,65568,170.75,192
7192,0.0,,,,62.0,,,,,0,note_on,,95.0,62.0,95.0,65568,170.75,192
7193,0.0,,,,59.0,,,,,0,note_on,,95.0,59.0,95.0,65568,170.75,192
7194,0.0,,,,55.0,,,,,44,note_on,,0.0,55.0,0.0,65612,170.86458333333331,192
7195,0.0,,,,62.0,,,,,0,note_on,,0.0,62.0,0.0,65612,170.86458333333331,192
7196,0.0,,,,59.0,,,,,0,note_on,,0.0,59.0,0.0,65612,170.86458333333331,192
7197,0.0,,,,59.0,,,,,52,note_on,,91.0,59.0,91.0,65664,171.0,192
7198,0.0,,,,62.0,,,,,0,note_on,,91.0,62.0,91.0,65664,171.0,192
7199,0.0,,,,55.0,,,,,0,note_on,,91.0,55.0,91.0,65664,171.0,192
7200,0.0,,,,62.0,,,,,44,note_on,,0.0,62.0,0.0,65708,171.11458333333331,192
7201,0.0,,,,55.0,,,,,0,note_on,,0.0,55.0,0.0,65708,171.11458333333331,192
7202,0.0,,,,59.0,,,,,0,note_on,,0.0,59.0,0.0,65708,171.11458333333331,192
7203,0.0,,,,55.0,,,,,52,note_on,,87.0,55.0,87.0,65760,171.25,192
7204,0.0,,,,59.0,,,,,0,note_on,,87.0,59.0,87.0,65760,171.25,192
7205,0.0,,,,62.0,,,,,0,note_on,,87.0,62.0,87.0,65760,171.25,192
7206,0.0,,,,55.0,,,,,44,note_on,,0.0,55.0,0.0,65804,171.36458333333331,192
7207,0.0,,,,59.0,,,,,0,note_on,,0.0,59.0,0.0,65804,171.36458333333331,192
7208,0.0,,,,62.0,,,,,0,note_on,,0.0,62.0,0.0,65804,171.36458333333331,192
7209,0.0,,,,55.0,,,,,52,note_on,,83.0,55.0,83.0,65856,171.5,192
7210,0.0,,,,62.0,,,,,0,note_on,,83.0,62.0,83.0,65856,171.5,192
7211,0.0,,,,59.0,,,,,0,note_on,,83.0,59.0,83.0,65856,171.5,192
7212,0.0,,,,62.0,,,,,44,note_on,,0.0,62.0,0.0,65900,171.61458333333331,192
7213,0.0,,,,59.0,,,,,0,note_on,,0.0,59.0,0.0,65900,171.61458333333331,192
7214,0.0,,,,55.0,,,,,0,note_on,,0.0,55.0,0.0,65900,171.61458333333331,192
7215,0.0,,,,55.0,,,,,52,note_on,,77.0,55.0,77.0,65952,171.75,192
7216,0.0,,,,62.0,,,,,0,note_on,,77.0,62.0,77.0,65952,171.75,192
7217,0.0,,,,59.0,,,,,0,note_on,,77.0,59.0,77.0,65952,171.75,192
7218,0.0,,,,55.0,,,,,44,note_on,,0.0,55.0,0.0,65996,171.86458333333331,192
7219,0.0,,,,62.0,,,,,0,note_on,,0.0,62.0,0.0,65996,171.86458333333331,192
7220,0.0,,,,59.0,,,,,0,note_on,,0.0,59.0,0.0,65996,171.86458333333331,192
7221,0.0,,,,53.0,,,,,52,note_on,,76.0,53.0,76.0,66048,172.0,192
7222,0.0,,,,60.0,,,,,0,note_on,,76.0,60.0,76.0,66048,172.0,192
7223,0.0,,,,57.0,,,,,0,note_on,,76.0,57.0,76.0,66048,172.0,192
7224,0.0,,,,60.0,,,,,44,note_on,,0.0,60.0,0.0,66092,172.11458333333331,192
7225,0.0,,,,57.0,,,,,0,note_on,,0.0,57.0,0.0,66092,172.11458333333331,192
7226,0.0,,,,53.0,,,,,0,note_on,,0.0,53.0,0.0,66092,172.11458333333331,192
7227,0.0,,,,57.0,,,,,52,note_on,,72.0,57.0,72.0,66144,172.25,192
7228,0.0,,,,60.0,,,,,0,note_on,,72.0,60.0,72.0,66144,172.25,192
7229,0.0,,,,53.0,,,,,0,note_on,,72.0,53.0,72.0,66144,172.25,192
7230,0.0,,,,57.0,,,,,44,note_on,,0.0,57.0,0.0,66188,172.36458333333331,192
7231,0.0,,,,60.0,,,,,0,note_on,,0.0,60.0,0.0,66188,172.36458333333331,192
7232,0.0,,,,53.0,,,,,0,note_on,,0.0,53.0,0.0,66188,172.36458333333331,192
7233,0.0,,,,53.0,,,,,52,note_on,,70.0,53.0,70.0,66240,172.5,192
7234,0.0,,,,57.0,,,,,0,note_on,,70.0,57.0,70.0,66240,172.5,192
7235,0.0,,,,60.0,,,,,0,note_on,,70.0,60.0,70.0,66240,172.5,192
7236,0.0,,,,57.0,,,,,44,note_on,,0.0,57.0,0.0,66284,172.61458333333331,192
7237,0.0,,,,60.0,,,,,0,note_on,,0.0,60.0,0.0,66284,172.61458333333331,192
7238,0.0,,,,53.0,,,,,0,note_on,,0.0,53.0,0.0,66284,172.61458333333331,192
7239,0.0,,,,57.0,,,,,52,note_on,,65.0,57.0,65.0,66336,172.75,192
7240,0.0,,,,60.0,,,,,0,note_on,,65.0,60.0,65.0,66336,172.75,192
7241,0.0,,,,53.0,,,,,0,note_on,,65.0,53.0,65.0,66336,172.75,192
7242,0.0,,,,57.0,,,,,44,note_on,,0.0,57.0,0.0,66380,172.86458333333331,192
7243,0.0,,,,60.0,,,,,0,note_on,,0.0,60.0,0.0,66380,172.86458333333331,192
7244,0.0,,,,53.0,,,,,0,note_on,,0.0,53.0,0.0,66380,172.86458333333331,192
7245,0.0,,,,57.0,,,,,52,note_on,,63.0,57.0,63.0,66432,173.0,192
7246,0.0,,,,60.0,,,,,0,note_on,,63.0,60.0,63.0,66432,173.0,192
7247,0.0,,,,53.0,,,,,0,note_on,,63.0,53.0,63.0,66432,173.0,192
7248,0.0,,,,60.0,,,,,44,note_on,,0.0,60.0,0.0,66476,173.11458333333331,192
7249,0.0,,,,53.0,,,,,0,note_on,,0.0,53.0,0.0,66476,173.11458333333331,192
7250,0.0,,,,57.0,,,,,0,note_on,,0.0,57.0,0.0,66476,173.11458333333331,192
7251,0.0,,,,53.0,,,,,52,note_on,,59.0,53.0,59.0,66528,173.25,192
7252,0.0,,,,57.0,,,,,0,note_on,,59.0,57.0,59.0,66528,173.25,192
7253,0.0,,,,60.0,,,,,0,note_on,,59.0,60.0,59.0,66528,173.25,192
7254,0.0,,,,53.0,,,,,44,note_on,,0.0,53.0,0.0,66572,173.36458333333331,192
7255,0.0,,,,57.0,,,,,0,note_on,,0.0,57.0,0.0,66572,173.36458333333331,192
7256,0.0,,,,60.0,,,,,0,note_on,,0.0,60.0,0.0,66572,173.36458333333331,192
7257,0.0,,,,60.0,,,,,52,note_on,,55.0,60.0,55.0,66624,173.5,192
7258,0.0,,,,57.0,,,,,0,note_on,,55.0,57.0,55.0,66624,173.5,192
7259,0.0,,,,53.0,,,,,0,note_on,,55.0,53.0,55.0,66624,173.5,192
7260,0.0,,,,57.0,,,,,44,note_on,,0.0,57.0,0.0,66668,173.61458333333331,192
7261,0.0,,,,60.0,,,,,0,note_on,,0.0,60.0,0.0,66668,173.61458333333331,192
7262,0.0,,,,53.0,,,,,0,note_on,,0.0,53.0,0.0,66668,173.61458333333331,192
7263,0.0,,,,48.0,,,,,52,note_on,,51.0,48.0,51.0,66720,173.75,192
7264,0.0,,,,48.0,,,,,44,note_on,,0.0,48.0,0.0,66764,173.86458333333331,192
7265,0.0,,,,64.0,,,,,52,note_on,,49.0,64.0,49.0,66816,174.0,192
7266,0.0,,,,60.0,,,,,0,note_on,,49.0,60.0,49.0,66816,174.0,192
7267,0.0,,,,55.0,,,,,0,note_on,,49.0,55.0,49.0,66816,174.0,192
7268,0.0,,,,64.0,,,,,44,note_on,,0.0,64.0,0.0,66860,174.11458333333331,192
7269,0.0,,,,60.0,,,,,0,note_on,,0.0,60.0,0.0,66860,174.11458333333331,192
7270,0.0,,,,55.0,,,,,0,note_on,,0.0,55.0,0.0,66860,174.11458333333331,192
7271,0.0,,,,60.0,,,,,52,note_on,,46.0,60.0,46.0,66912,174.25,192
7272,0.0,,,,64.0,,,,,0,note_on,,46.0,64.0,46.0,66912,174.25,192
7273,0.0,,,,55.0,,,,,0,note_on,,46.0,55.0,46.0,66912,174.25,192
7274,0.0,,,,60.0,,,,,44,note_on,,0.0,60.0,0.0,66956,174.36458333333331,192
7275,0.0,,,,64.0,,,,,0,note_on,,0.0,64.0,0.0,66956,174.36458333333331,192
7276,0.0,,,,55.0,,,,,0,note_on,,0.0,55.0,0.0,66956,174.36458333333331,192
7277,0.0,,,,55.0,,,,,52,note_on,,40.0,55.0,40.0,67008,174.5,192
7278,0.0,,,,64.0,,,,,0,note_on,,40.0,64.0,40.0,67008,174.5,192
7279,0.0,,,,60.0,,,,,0,note_on,,40.0,60.0,40.0,67008,174.5,192
7280,0.0,,,,55.0,,,,,44,note_on,,0.0,55.0,0.0,67052,174.61458333333331,192
7281,0.0,,,,64.0,,,,,0,note_on,,0.0,64.0,0.0,67052,174.61458333333331,192
7282,0.0,,,,60.0,,,,,0,note_on,,0.0,60.0,0.0,67052,174.61458333333331,192
7283,0.0,,,,55.0,,,,,52,note_on,,36.0,55.0,36.0,67104,174.75,192
7284,0.0,,,,64.0,,,,,0,note_on,,36.0,64.0,36.0,67104,174.75,192
7285,0.0,,,,60.0,,,,,0,note_on,,36.0,60.0,36.0,67104,174.75,192
7286,0.0,,,,55.0,,,,,44,note_on,,0.0,55.0,0.0,67148,174.86458333333331,192
7287,0.0,,,,64.0,,,,,0,note_on,,0.0,64.0,0.0,67148,174.86458333333331,192
7288,0.0,,,,60.0,,,,,0,note_on,,0.0,60.0,0.0,67148,174.86458333333331,192
7289,0.0,,,,60.0,,,,,52,note_on,,35.0,60.0,35.0,67200,175.0,192
7290,0.0,,,,64.0,,,,,0,note_on,,35.0,64.0,35.0,67200,175.0,192
7291,0.0,,,,55.0,,,,,0,note_on,,35.0,55.0,35.0,67200,175.0,192
7292,0.0,,,,60.0,,,,,44,note_on,,0.0,60.0,0.0,67244,175.11458333333331,192
7293,0.0,,,,64.0,,,,,0,note_on,,0.0,64.0,0.0,67244,175.11458333333331,192
7294,0.0,,,,55.0,,,,,0,note_on,,0.0,55.0,0.0,67244,175.11458333333331,192
7295,0.0,,,,55.0,,,,,52,note_on,,31.0,55.0,31.0,67296,175.25,192
7296,0.0,,,,60.0,,,,,0,note_on,,31.0,60.0,31.0,67296,175.25,192
7297,0.0,,,,64.0,,,,,0,note_on,,31.0,64.0,31.0,67296,175.25,192
7298,0.0,,,,55.0,,,,,44,note_on,,0.0,55.0,0.0,67340,175.36458333333331,192
7299,0.0,,,,60.0,,,,,0,note_on,,0.0,60.0,0.0,67340,175.36458333333331,192
7300,0.0,,,,64.0,,,,,0,note_on,,0.0,64.0,0.0,67340,175.36458333333331,192
7301,0.0,,,,55.0,,,,,52,note_on,,27.0,55.0,27.0,67392,175.5,192
7302,0.0,,,,64.0,,,,,0,note_on,,27.0,64.0,27.0,67392,175.5,192
7303,0.0,,,,60.0,,,,,0,note_on,,27.0,60.0,27.0,67392,175.5,192
7304,0.0,,,,55.0,,,,,44,note_on,,0.0,55.0,0.0,67436,175.61458333333331,192
7305,0.0,,,,64.0,,,,,0,note_on,,0.0,64.0,0.0,67436,175.61458333333331,192
7306,0.0,,,,60.0,,,,,0,note_on,,0.0,60.0,0.0,67436,175.61458333333331,192
7307,0.0,,,,64.0,,,,,52,note_on,,25.0,64.0,25.0,67488,175.75,192
7308,0.0,,,,60.0,,,,,0,note_on,,25.0,60.0,25.0,67488,175.75,192
7309,0.0,,,,55.0,,,,,0,note_on,,25.0,55.0,25.0,67488,175.75,192
7310,0.0,,,,64.0,,,,,44,note_on,,0.0,64.0,0.0,67532,175.86458333333331,192
7311,0.0,,,,60.0,,,,,0,note_on,,0.0,60.0,0.0,67532,175.86458333333331,192
7312,0.0,,,,55.0,,,,,0,note_on,,0.0,55.0,0.0,67532,175.86458333333331,192
7313,0.0,,,,55.0,,,,,52,note_on,,24.0,55.0,24.0,67584,176.0,192
7314,0.0,,,,59.0,,,,,0,note_on,,24.0,59.0,24.0,67584,176.0,192
7315,0.0,,,,62.0,,,,,0,note_on,,24.0,62.0,24.0,67584,176.0,192
7316,0.0,,,,55.0,,,,,44,note_on,,0.0,55.0,0.0,67628,176.11458333333331,192
7317,0.0,,,,59.0,,,,,0,note_on,,0.0,59.0,0.0,67628,176.11458333333331,192
7318,0.0,,,,62.0,,,,,0,note_on,,0.0,62.0,0.0,67628,176.11458333333331,192
7319,0.0,,,,62.0,,,,,52,note_on,,22.0,62.0,22.0,67680,176.25,192
7320,0.0,,,,55.0,,,,,0,note_on,,22.0,55.0,22.0,67680,176.25,192
7321,0.0,,,,59.0,,,,,0,note_on,,22.0,59.0,22.0,67680,176.25,192
7322,0.0,,,,62.0,,,,,44,note_on,,0.0,62.0,0.0,67724,176.36458333333331,192
7323,0.0,,,,55.0,,,,,0,note_on,,0.0,55.0,0.0,67724,176.36458333333331,192
7324,0.0,,,,59.0,,,,,0,note_on,,0.0,59.0,0.0,67724,176.36458333333331,192
7325,0.0,,,,62.0,,,,,52,note_on,,19.0,62.0,19.0,67776,176.5,192
7326,0.0,,,,55.0,,,,,0,note_on,,19.0,55.0,19.0,67776,176.5,192
7327,0.0,,,,59.0,,,,,0,note_on,,19.0,59.0,19.0,67776,176.5,192
7328,0.0,,,,62.0,,,,,44,note_on,,0.0,62.0,0.0,67820,176.61458333333331,192
7329,0.0,,,,55.0,,,,,0,note_on,,0.0,55.0,0.0,67820,176.61458333333331,192
7330,0.0,,,,59.0,,,,,0,note_on,,0.0,59.0,0.0,67820,176.61458333333331,192
7331,0.0,,,,55.0,,,,,52,note_on,,15.0,55.0,15.0,67872,176.75,192
7332,0.0,,,,59.0,,,,,0,note_on,,15.0,59.0,15.0,67872,176.75,192
7333,0.0,,,,62.0,,,,,0,note_on,,15.0,62.0,15.0,67872,176.75,192
7334,0.0,,,,55.0,,,,,44,note_on,,0.0,55.0,0.0,67916,176.86458333333331,192
7335,0.0,,,,59.0,,,,,0,note_on,,0.0,59.0,0.0,67916,176.86458333333331,192
7336,0.0,,,,62.0,,,,,0,note_on,,0.0,62.0,0.0,67916,176.86458333333331,192
7337,0.0,,,,62.0,,,,,52,note_on,,13.0,62.0,13.0,67968,177.0,192
7338,0.0,,,,55.0,,,,,0,note_on,,13.0,55.0,13.0,67968,177.0,192
7339,0.0,,,,59.0,,,,,0,note_on,,13.0,59.0,13.0,67968,177.0,192
7340,0.0,,,,62.0,,,,,44,note_on,,0.0,62.0,0.0,68012,177.11458333333331,192
7341,0.0,,,,55.0,,,,,0,note_on,,0.0,55.0,0.0,68012,177.11458333333331,192
7342,0.0,,,,59.0,,,,,0,note_on,,0.0,59.0,0.0,68012,177.11458333333331,192
7343,0.0,,,,62.0,,,,,52,note_on,,10.0,62.0,10.0,68064,177.25,192
7344,0.0,,,,59.0,,,,,0,note_on,,10.0,59.0,10.0,68064,177.25,192
7345,0.0,,,,55.0,,,,,0,note_on,,10.0,55.0,10.0,68064,177.25,192
7346,0.0,,,,62.0,,,,,44,note_on,,0.0,62.0,0.0,68108,177.36458333333331,192
7347,0.0,,,,59.0,,,,,0,note_on,,0.0,59.0,0.0,68108,177.36458333333331,192
7348,0.0,,,,55.0,,,,,0,note_on,,0.0,55.0,0.0,68108,177.36458333333331,192
7349,0.0,,,,62.0,,,,,52,note_on,,7.0,62.0,7.0,68160,177.5,192
7350,0.0,,,,59.0,,,,,0,note_on,,7.0,59.0,7.0,68160,177.5,192
7351,0.0,,,,55.0,,,,,0,note_on,,7.0,55.0,7.0,68160,177.5,192
7352,0.0,,,,59.0,,,,,44,note_on,,0.0,59.0,0.0,68204,177.61458333333331,192
7353,0.0,,,,62.0,,,,,0,note_on,,0.0,62.0,0.0,68204,177.61458333333331,192
7354,0.0,,,,55.0,,,,,0,note_on,,0.0,55.0,0.0,68204,177.61458333333331,192
7355,0.0,,,,55.0,,,,,52,note_on,,4.0,55.0,4.0,68256,177.75,192
7356,0.0,,,,59.0,,,,,0,note_on,,4.0,59.0,4.0,68256,177.75,192
7357,0.0,,,,62.0,,,,,0,note_on,,4.0,62.0,4.0,68256,177.75,192
7358,0.0,,,,62.0,,,,,44,note_on,,0.0,62.0,0.0,68300,177.86458333333331,192
7359,0.0,,,,55.0,,,,,0,note_on,,0.0,55.0,0.0,68300,177.86458333333331,192
7360,0.0,,,,59.0,,,,,0,note_on,,0.0,59.0,0.0,68300,177.86458333333331,192
7361,,,,,,,,,,0,end_of_track,,,,,0,0.0,192
7362,10.0,0.0,,,,,,,,0,control_change,0.0,,,,0,0.0,192
7363,10.0,,,,,,78.0,,,0,program_change,,,,,0,0.0,192
7364,,,"(74, 65, 90, 50, 1, 0, 0, 0, 0, 0, 0, 0, 0, 0, 0, 0, 0, 0, 0, 0)",,,,,,,0,sequencer_specific,,,,,0,0.0,192
7365,,,,Whistle,,,,,,0,track_name,,,,,0,0.0,192
7366,10.0,93.0,,,,,,,,0,control_change,0.0,,,,0,0.0,192
7367,10.0,10.0,,,,,,,,0,control_change,64.0,,,,0,0.0,192
7368,10.0,91.0,,,,,,,,0,control_change,40.0,,,,0,0.0,192
7369,10.0,7.0,,,,,,,,0,control_change,49.0,,,,0,0.0,192
7370,10.0,,,,103.0,,,,,19728,note_on,,112.0,103.0,112.0,19728,51.375,192
7371,10.0,,,,103.0,,,,,232,note_on,,0.0,103.0,0.0,19960,51.979166666666664,192
7372,10.0,,,,103.0,,,,,584,note_on,,112.0,103.0,112.0,20544,53.5,192
7373,10.0,,,,103.0,,,,,232,note_on,,0.0,103.0,0.0,20776,54.104166666666664,192
7374,10.0,,,,103.0,,,,,488,note_on,,112.0,103.0,112.0,21264,55.375,192
7375,10.0,,,,103.0,,,,,232,note_on,,0.0,103.0,0.0,21496,55.979166666666664,192
7376,10.0,,,,103.0,,,,,584,note_on,,112.0,103.0,112.0,22080,57.5,192
7377,10.0,,,,103.0,,,,,232,note_on,,0.0,103.0,0.0,22312,58.104166666666664,192
7378,10.0,,,,103.0,,,,,488,note_on,,112.0,103.0,112.0,22800,59.375,192
7379,10.0,,,,103.0,,,,,232,note_on,,0.0,103.0,0.0,23032,59.979166666666664,192
7380,10.0,,,,103.0,,,,,584,note_on,,112.0,103.0,112.0,23616,61.5,192
7381,10.0,,,,103.0,,,,,232,note_on,,0.0,103.0,0.0,23848,62.104166666666664,192
7382,10.0,,,,103.0,,,,,488,note_on,,112.0,103.0,112.0,24336,63.375,192
7383,10.0,,,,103.0,,,,,232,note_on,,0.0,103.0,0.0,24568,63.979166666666664,192
7384,10.0,,,,103.0,,,,,584,note_on,,112.0,103.0,112.0,25152,65.5,192
7385,10.0,,,,103.0,,,,,232,note_on,,0.0,103.0,0.0,25384,66.10416666666666,192
7386,10.0,,,,103.0,,,,,12776,note_on,,112.0,103.0,112.0,38160,99.375,192
7387,10.0,,,,103.0,,,,,232,note_on,,0.0,103.0,0.0,38392,99.97916666666666,192
7388,10.0,,,,103.0,,,,,584,note_on,,112.0,103.0,112.0,38976,101.5,192
7389,10.0,,,,103.0,,,,,232,note_on,,0.0,103.0,0.0,39208,102.10416666666666,192
7390,10.0,,,,103.0,,,,,488,note_on,,112.0,103.0,112.0,39696,103.375,192
7391,10.0,,,,103.0,,,,,232,note_on,,0.0,103.0,0.0,39928,103.97916666666666,192
7392,10.0,,,,103.0,,,,,584,note_on,,112.0,103.0,112.0,40512,105.5,192
7393,10.0,,,,103.0,,,,,232,note_on,,0.0,103.0,0.0,40744,106.10416666666666,192
7394,10.0,,,,103.0,,,,,488,note_on,,112.0,103.0,112.0,41232,107.375,192
7395,10.0,,,,103.0,,,,,232,note_on,,0.0,103.0,0.0,41464,107.97916666666666,192
7396,10.0,,,,103.0,,,,,584,note_on,,112.0,103.0,112.0,42048,109.5,192
7397,10.0,,,,103.0,,,,,232,note_on,,0.0,103.0,0.0,42280,110.10416666666666,192
7398,10.0,,,,103.0,,,,,488,note_on,,112.0,103.0,112.0,42768,111.375,192
7399,10.0,,,,103.0,,,,,232,note_on,,0.0,103.0,0.0,43000,111.97916666666666,192
7400,10.0,,,,103.0,,,,,584,note_on,,112.0,103.0,112.0,43584,113.5,192
7401,10.0,,,,103.0,,,,,232,note_on,,0.0,103.0,0.0,43816,114.10416666666666,192
7402,10.0,,,,103.0,,,,,6632,note_on,,112.0,103.0,112.0,50448,131.375,192
7403,10.0,,,,103.0,,,,,232,note_on,,0.0,103.0,0.0,50680,131.97916666666666,192
7404,10.0,,,,103.0,,,,,584,note_on,,112.0,103.0,112.0,51264,133.5,192
7405,10.0,,,,103.0,,,,,232,note_on,,0.0,103.0,0.0,51496,134.10416666666666,192
7406,10.0,,,,103.0,,,,,488,note_on,,112.0,103.0,112.0,51984,135.375,192
7407,10.0,,,,103.0,,,,,232,note_on,,0.0,103.0,0.0,52216,135.97916666666666,192
7408,10.0,,,,103.0,,,,,584,note_on,,112.0,103.0,112.0,52800,137.5,192
7409,10.0,,,,103.0,,,,,232,note_on,,0.0,103.0,0.0,53032,138.10416666666666,192
7410,10.0,,,,103.0,,,,,488,note_on,,112.0,103.0,112.0,53520,139.375,192
7411,10.0,,,,103.0,,,,,232,note_on,,0.0,103.0,0.0,53752,139.97916666666666,192
7412,10.0,,,,103.0,,,,,584,note_on,,112.0,103.0,112.0,54336,141.5,192
7413,10.0,,,,103.0,,,,,232,note_on,,0.0,103.0,0.0,54568,142.10416666666666,192
7414,10.0,,,,103.0,,,,,488,note_on,,112.0,103.0,112.0,55056,143.375,192
7415,10.0,,,,103.0,,,,,232,note_on,,0.0,103.0,0.0,55288,143.97916666666666,192
7416,10.0,,,,103.0,,,,,584,note_on,,112.0,103.0,112.0,55872,145.5,192
7417,10.0,,,,103.0,,,,,232,note_on,,0.0,103.0,0.0,56104,146.10416666666666,192
7418,10.0,,,,103.0,,,,,488,note_on,,112.0,103.0,112.0,56592,147.375,192
7419,10.0,,,,103.0,,,,,232,note_on,,0.0,103.0,0.0,56824,147.97916666666666,192
7420,10.0,,,,103.0,,,,,584,note_on,,112.0,103.0,112.0,57408,149.5,192
7421,10.0,,,,103.0,,,,,232,note_on,,0.0,103.0,0.0,57640,150.10416666666666,192
7422,10.0,,,,103.0,,,,,488,note_on,,112.0,103.0,112.0,58128,151.375,192
7423,10.0,,,,103.0,,,,,232,note_on,,0.0,103.0,0.0,58360,151.97916666666666,192
7424,10.0,,,,103.0,,,,,584,note_on,,112.0,103.0,112.0,58944,153.5,192
7425,10.0,,,,103.0,,,,,232,note_on,,0.0,103.0,0.0,59176,154.10416666666666,192
7426,10.0,,,,103.0,,,,,488,note_on,,112.0,103.0,112.0,59664,155.375,192
7427,10.0,,,,103.0,,,,,232,note_on,,0.0,103.0,0.0,59896,155.97916666666666,192
7428,10.0,,,,103.0,,,,,584,note_on,,112.0,103.0,112.0,60480,157.5,192
7429,10.0,,,,103.0,,,,,232,note_on,,0.0,103.0,0.0,60712,158.10416666666666,192
7430,10.0,,,,103.0,,,,,488,note_on,,112.0,103.0,112.0,61200,159.375,192
7431,10.0,,,,103.0,,,,,232,note_on,,0.0,103.0,0.0,61432,159.97916666666666,192
7432,10.0,,,,103.0,,,,,584,note_on,,112.0,103.0,112.0,62016,161.5,192
7433,10.0,,,,103.0,,,,,232,note_on,,0.0,103.0,0.0,62248,162.10416666666666,192
7434,10.0,,,,103.0,,,,,488,note_on,,112.0,103.0,112.0,62736,163.375,192
7435,10.0,,,,103.0,,,,,232,note_on,,0.0,103.0,0.0,62968,163.97916666666666,192
7436,10.0,,,,103.0,,,,,584,note_on,,112.0,103.0,112.0,63552,165.5,192
7437,10.0,,,,103.0,,,,,232,note_on,,0.0,103.0,0.0,63784,166.10416666666666,192
7438,10.0,,,,103.0,,,,,488,note_on,,112.0,103.0,112.0,64272,167.375,192
7439,10.0,,,,103.0,,,,,232,note_on,,0.0,103.0,0.0,64504,167.97916666666666,192
7440,10.0,,,,103.0,,,,,584,note_on,,112.0,103.0,112.0,65088,169.5,192
7441,10.0,,,,103.0,,,,,232,note_on,,0.0,103.0,0.0,65320,170.10416666666666,192
7442,10.0,,,,103.0,,,,,488,note_on,,112.0,103.0,112.0,65808,171.375,192
7443,10.0,,,,103.0,,,,,232,note_on,,0.0,103.0,0.0,66040,171.97916666666666,192
7444,10.0,,,,103.0,,,,,584,note_on,,77.0,103.0,77.0,66624,173.5,192
7445,10.0,,,,103.0,,,,,232,note_on,,0.0,103.0,0.0,66856,174.10416666666666,192
7446,10.0,,,,103.0,,,,,488,note_on,,43.0,103.0,43.0,67344,175.375,192
7447,10.0,,,,103.0,,,,,232,note_on,,0.0,103.0,0.0,67576,175.97916666666666,192
7448,10.0,,,,103.0,,,,,584,note_on,,8.0,103.0,8.0,68160,177.5,192
7449,10.0,,,,103.0,,,,,232,note_on,,0.0,103.0,0.0,68392,178.10416666666666,192
7450,,,,,,,,,,0,end_of_track,,,,,0,0.0,192
7451,1.0,0.0,,,,,,,,0,control_change,8.0,,,,0,0.0,192
7452,1.0,,,,,,38.0,,,0,program_change,,,,,0,0.0,192
7453,,,"(74, 65, 90, 50, 1, 0, 0, 0, 0, 0, 0, 0, 0, 0, 0, 0, 0, 0, 0, 0)",,,,,,,0,sequencer_specific,,,,,0,0.0,192
7454,1.0,7.0,,,,,,,,0,control_change,114.0,,,,0,0.0,192
7455,,,,Bass,,,,,,0,track_name,,,,,0,0.0,192
7456,1.0,10.0,,,,,,,,0,control_change,64.0,,,,0,0.0,192
7457,1.0,91.0,,,,,,,,0,control_change,40.0,,,,0,0.0,192
7458,1.0,93.0,,,,,,,,0,control_change,0.0,,,,0,0.0,192
7459,1.0,,,,31.0,,,,,13056,note_on,,112.0,31.0,112.0,13056,34.0,192
7460,1.0,,,,31.0,,,,,92,note_on,,0.0,31.0,0.0,13148,34.23958333333333,192
7461,1.0,,,,31.0,,,,,4,note_on,,112.0,31.0,112.0,13152,34.25,192
7462,1.0,,,,31.0,,,,,92,note_on,,0.0,31.0,0.0,13244,34.48958333333333,192
7463,1.0,,,,43.0,,,,,4,note_on,,112.0,43.0,112.0,13248,34.5,192
7464,1.0,,,,43.0,,,,,236,note_on,,0.0,43.0,0.0,13484,35.11458333333333,192
7465,1.0,,,,31.0,,,,,4,note_on,,112.0,31.0,112.0,13488,35.125,192
7466,1.0,,,,31.0,,,,,88,note_on,,0.0,31.0,0.0,13576,35.354166666666664,192
7467,1.0,,,,31.0,,,,,8,note_on,,112.0,31.0,112.0,13584,35.375,192
7468,1.0,,,,31.0,,,,,88,note_on,,0.0,31.0,0.0,13672,35.604166666666664,192
7469,1.0,,,,31.0,,,,,8,note_on,,112.0,31.0,112.0,13680,35.625,192
7470,1.0,,,,31.0,,,,,88,note_on,,0.0,31.0,0.0,13768,35.854166666666664,192
7471,1.0,,,,31.0,,,,,8,note_on,,112.0,31.0,112.0,13776,35.875,192
7472,1.0,,,,31.0,,,,,44,note_on,,0.0,31.0,0.0,13820,35.98958333333333,192
7473,1.0,,,,29.0,,,,,4,note_on,,112.0,29.0,112.0,13824,36.0,192
7474,1.0,,,,29.0,,,,,88,note_on,,0.0,29.0,0.0,13912,36.229166666666664,192
7475,1.0,,,,29.0,,,,,8,note_on,,112.0,29.0,112.0,13920,36.25,192
7476,1.0,,,,29.0,,,,,88,note_on,,0.0,29.0,0.0,14008,36.479166666666664,192
7477,1.0,,,,29.0,,,,,8,note_on,,112.0,29.0,112.0,14016,36.5,192
7478,1.0,,,,29.0,,,,,232,note_on,,0.0,29.0,0.0,14248,37.104166666666664,192
7479,1.0,,,,29.0,,,,,8,note_on,,112.0,29.0,112.0,14256,37.125,192
7480,1.0,,,,29.0,,,,,88,note_on,,0.0,29.0,0.0,14344,37.354166666666664,192
7481,1.0,,,,29.0,,,,,8,note_on,,112.0,29.0,112.0,14352,37.375,192
7482,1.0,,,,29.0,,,,,88,note_on,,0.0,29.0,0.0,14440,37.604166666666664,192
7483,1.0,,,,29.0,,,,,8,note_on,,112.0,29.0,112.0,14448,37.625,192
7484,1.0,,,,29.0,,,,,88,note_on,,0.0,29.0,0.0,14536,37.854166666666664,192
7485,1.0,,,,29.0,,,,,8,note_on,,112.0,29.0,112.0,14544,37.875,192
7486,1.0,,,,29.0,,,,,44,note_on,,0.0,29.0,0.0,14588,37.98958333333333,192
7487,1.0,,,,36.0,,,,,4,note_on,,112.0,36.0,112.0,14592,38.0,192
7488,1.0,,,,36.0,,,,,88,note_on,,0.0,36.0,0.0,14680,38.229166666666664,192
7489,1.0,,,,36.0,,,,,8,note_on,,112.0,36.0,112.0,14688,38.25,192
7490,1.0,,,,36.0,,,,,88,note_on,,0.0,36.0,0.0,14776,38.479166666666664,192
7491,1.0,,,,36.0,,,,,8,note_on,,112.0,36.0,112.0,14784,38.5,192
7492,1.0,,,,36.0,,,,,232,note_on,,0.0,36.0,0.0,15016,39.104166666666664,192
7493,1.0,,,,36.0,,,,,8,note_on,,112.0,36.0,112.0,15024,39.125,192
7494,1.0,,,,36.0,,,,,88,note_on,,0.0,36.0,0.0,15112,39.354166666666664,192
7495,1.0,,,,36.0,,,,,8,note_on,,112.0,36.0,112.0,15120,39.375,192
7496,1.0,,,,36.0,,,,,88,note_on,,0.0,36.0,0.0,15208,39.604166666666664,192
7497,1.0,,,,36.0,,,,,8,note_on,,112.0,36.0,112.0,15216,39.625,192
7498,1.0,,,,36.0,,,,,88,note_on,,0.0,36.0,0.0,15304,39.854166666666664,192
7499,1.0,,,,34.0,,,,,8,note_on,,112.0,34.0,112.0,15312,39.875,192
7500,1.0,,,,34.0,,,,,44,note_on,,0.0,34.0,0.0,15356,39.98958333333333,192
7501,1.0,,,,31.0,,,,,4,note_on,,112.0,31.0,112.0,15360,40.0,192
7502,1.0,,,,31.0,,,,,88,note_on,,0.0,31.0,0.0,15448,40.229166666666664,192
7503,1.0,,,,31.0,,,,,8,note_on,,112.0,31.0,112.0,15456,40.25,192
7504,1.0,,,,31.0,,,,,88,note_on,,0.0,31.0,0.0,15544,40.479166666666664,192
7505,1.0,,,,31.0,,,,,8,note_on,,112.0,31.0,112.0,15552,40.5,192
7506,1.0,,,,31.0,,,,,232,note_on,,0.0,31.0,0.0,15784,41.104166666666664,192
7507,1.0,,,,31.0,,,,,8,note_on,,112.0,31.0,112.0,15792,41.125,192
7508,1.0,,,,31.0,,,,,88,note_on,,0.0,31.0,0.0,15880,41.354166666666664,192
7509,1.0,,,,31.0,,,,,8,note_on,,112.0,31.0,112.0,15888,41.375,192
7510,1.0,,,,31.0,,,,,88,note_on,,0.0,31.0,0.0,15976,41.604166666666664,192
7511,1.0,,,,31.0,,,,,8,note_on,,112.0,31.0,112.0,15984,41.625,192
7512,1.0,,,,31.0,,,,,88,note_on,,0.0,31.0,0.0,16072,41.854166666666664,192
7513,1.0,,,,31.0,,,,,8,note_on,,112.0,31.0,112.0,16080,41.875,192
7514,1.0,,,,31.0,,,,,44,note_on,,0.0,31.0,0.0,16124,41.98958333333333,192
7515,1.0,,,,31.0,,,,,4,note_on,,112.0,31.0,112.0,16128,42.0,192
7516,1.0,,,,31.0,,,,,92,note_on,,0.0,31.0,0.0,16220,42.23958333333333,192
7517,1.0,,,,31.0,,,,,4,note_on,,112.0,31.0,112.0,16224,42.25,192
7518,1.0,,,,31.0,,,,,92,note_on,,0.0,31.0,0.0,16316,42.48958333333333,192
7519,1.0,,,,31.0,,,,,4,note_on,,112.0,31.0,112.0,16320,42.5,192
7520,1.0,,,,31.0,,,,,236,note_on,,0.0,31.0,0.0,16556,43.11458333333333,192
7521,1.0,,,,31.0,,,,,4,note_on,,112.0,31.0,112.0,16560,43.125,192
7522,1.0,,,,31.0,,,,,88,note_on,,0.0,31.0,0.0,16648,43.354166666666664,192
7523,1.0,,,,31.0,,,,,8,note_on,,112.0,31.0,112.0,16656,43.375,192
7524,1.0,,,,31.0,,,,,88,note_on,,0.0,31.0,0.0,16744,43.604166666666664,192
7525,1.0,,,,31.0,,,,,8,note_on,,112.0,31.0,112.0,16752,43.625,192
7526,1.0,,,,31.0,,,,,88,note_on,,0.0,31.0,0.0,16840,43.854166666666664,192
7527,1.0,,,,31.0,,,,,8,note_on,,112.0,31.0,112.0,16848,43.875,192
7528,1.0,,,,31.0,,,,,44,note_on,,0.0,31.0,0.0,16892,43.98958333333333,192
7529,1.0,,,,29.0,,,,,4,note_on,,112.0,29.0,112.0,16896,44.0,192
7530,1.0,,,,29.0,,,,,88,note_on,,0.0,29.0,0.0,16984,44.229166666666664,192
7531,1.0,,,,29.0,,,,,8,note_on,,112.0,29.0,112.0,16992,44.25,192
7532,1.0,,,,29.0,,,,,88,note_on,,0.0,29.0,0.0,17080,44.479166666666664,192
7533,1.0,,,,29.0,,,,,8,note_on,,112.0,29.0,112.0,17088,44.5,192
7534,1.0,,,,29.0,,,,,232,note_on,,0.0,29.0,0.0,17320,45.104166666666664,192
7535,1.0,,,,29.0,,,,,8,note_on,,112.0,29.0,112.0,17328,45.125,192
7536,1.0,,,,29.0,,,,,88,note_on,,0.0,29.0,0.0,17416,45.354166666666664,192
7537,1.0,,,,29.0,,,,,8,note_on,,112.0,29.0,112.0,17424,45.375,192
7538,1.0,,,,29.0,,,,,88,note_on,,0.0,29.0,0.0,17512,45.604166666666664,192
7539,1.0,,,,29.0,,,,,8,note_on,,112.0,29.0,112.0,17520,45.625,192
7540,1.0,,,,29.0,,,,,88,note_on,,0.0,29.0,0.0,17608,45.854166666666664,192
7541,1.0,,,,29.0,,,,,8,note_on,,112.0,29.0,112.0,17616,45.875,192
7542,1.0,,,,29.0,,,,,44,note_on,,0.0,29.0,0.0,17660,45.98958333333333,192
7543,1.0,,,,36.0,,,,,4,note_on,,112.0,36.0,112.0,17664,46.0,192
7544,1.0,,,,36.0,,,,,88,note_on,,0.0,36.0,0.0,17752,46.229166666666664,192
7545,1.0,,,,36.0,,,,,8,note_on,,112.0,36.0,112.0,17760,46.25,192
7546,1.0,,,,36.0,,,,,88,note_on,,0.0,36.0,0.0,17848,46.479166666666664,192
7547,1.0,,,,36.0,,,,,8,note_on,,112.0,36.0,112.0,17856,46.5,192
7548,1.0,,,,36.0,,,,,232,note_on,,0.0,36.0,0.0,18088,47.104166666666664,192
7549,1.0,,,,36.0,,,,,8,note_on,,112.0,36.0,112.0,18096,47.125,192
7550,1.0,,,,36.0,,,,,88,note_on,,0.0,36.0,0.0,18184,47.354166666666664,192
7551,1.0,,,,36.0,,,,,8,note_on,,112.0,36.0,112.0,18192,47.375,192
7552,1.0,,,,36.0,,,,,88,note_on,,0.0,36.0,0.0,18280,47.604166666666664,192
7553,1.0,,,,36.0,,,,,8,note_on,,112.0,36.0,112.0,18288,47.625,192
7554,1.0,,,,36.0,,,,,88,note_on,,0.0,36.0,0.0,18376,47.854166666666664,192
7555,1.0,,,,34.0,,,,,8,note_on,,112.0,34.0,112.0,18384,47.875,192
7556,1.0,,,,34.0,,,,,44,note_on,,0.0,34.0,0.0,18428,47.98958333333333,192
7557,1.0,,,,31.0,,,,,4,note_on,,112.0,31.0,112.0,18432,48.0,192
7558,1.0,,,,31.0,,,,,88,note_on,,0.0,31.0,0.0,18520,48.229166666666664,192
7559,1.0,,,,31.0,,,,,8,note_on,,112.0,31.0,112.0,18528,48.25,192
7560,1.0,,,,31.0,,,,,88,note_on,,0.0,31.0,0.0,18616,48.479166666666664,192
7561,1.0,,,,31.0,,,,,8,note_on,,112.0,31.0,112.0,18624,48.5,192
7562,1.0,,,,31.0,,,,,232,note_on,,0.0,31.0,0.0,18856,49.104166666666664,192
7563,1.0,,,,31.0,,,,,8,note_on,,112.0,31.0,112.0,18864,49.125,192
7564,1.0,,,,31.0,,,,,88,note_on,,0.0,31.0,0.0,18952,49.354166666666664,192
7565,1.0,,,,31.0,,,,,8,note_on,,112.0,31.0,112.0,18960,49.375,192
7566,1.0,,,,31.0,,,,,88,note_on,,0.0,31.0,0.0,19048,49.604166666666664,192
7567,1.0,,,,31.0,,,,,8,note_on,,112.0,31.0,112.0,19056,49.625,192
7568,1.0,,,,31.0,,,,,88,note_on,,0.0,31.0,0.0,19144,49.854166666666664,192
7569,1.0,,,,31.0,,,,,8,note_on,,112.0,31.0,112.0,19152,49.875,192
7570,1.0,,,,31.0,,,,,44,note_on,,0.0,31.0,0.0,19196,49.98958333333333,192
7571,1.0,,,,31.0,,,,,4,note_on,,112.0,31.0,112.0,19200,50.0,192
7572,1.0,,,,31.0,,,,,92,note_on,,0.0,31.0,0.0,19292,50.23958333333333,192
7573,1.0,,,,31.0,,,,,4,note_on,,112.0,31.0,112.0,19296,50.25,192
7574,1.0,,,,31.0,,,,,92,note_on,,0.0,31.0,0.0,19388,50.48958333333333,192
7575,1.0,,,,31.0,,,,,4,note_on,,112.0,31.0,112.0,19392,50.5,192
7576,1.0,,,,31.0,,,,,236,note_on,,0.0,31.0,0.0,19628,51.11458333333333,192
7577,1.0,,,,31.0,,,,,4,note_on,,112.0,31.0,112.0,19632,51.125,192
7578,1.0,,,,31.0,,,,,88,note_on,,0.0,31.0,0.0,19720,51.354166666666664,192
7579,1.0,,,,31.0,,,,,8,note_on,,112.0,31.0,112.0,19728,51.375,192
7580,1.0,,,,31.0,,,,,88,note_on,,0.0,31.0,0.0,19816,51.604166666666664,192
7581,1.0,,,,31.0,,,,,8,note_on,,112.0,31.0,112.0,19824,51.625,192
7582,1.0,,,,31.0,,,,,88,note_on,,0.0,31.0,0.0,19912,51.854166666666664,192
7583,1.0,,,,31.0,,,,,8,note_on,,112.0,31.0,112.0,19920,51.875,192
7584,1.0,,,,31.0,,,,,44,note_on,,0.0,31.0,0.0,19964,51.98958333333333,192
7585,1.0,,,,29.0,,,,,4,note_on,,112.0,29.0,112.0,19968,52.0,192
7586,1.0,,,,29.0,,,,,88,note_on,,0.0,29.0,0.0,20056,52.229166666666664,192
7587,1.0,,,,29.0,,,,,8,note_on,,112.0,29.0,112.0,20064,52.25,192
7588,1.0,,,,29.0,,,,,88,note_on,,0.0,29.0,0.0,20152,52.479166666666664,192
7589,1.0,,,,29.0,,,,,8,note_on,,112.0,29.0,112.0,20160,52.5,192
7590,1.0,,,,29.0,,,,,232,note_on,,0.0,29.0,0.0,20392,53.104166666666664,192
7591,1.0,,,,29.0,,,,,8,note_on,,112.0,29.0,112.0,20400,53.125,192
7592,1.0,,,,29.0,,,,,88,note_on,,0.0,29.0,0.0,20488,53.354166666666664,192
7593,1.0,,,,29.0,,,,,8,note_on,,112.0,29.0,112.0,20496,53.375,192
7594,1.0,,,,29.0,,,,,88,note_on,,0.0,29.0,0.0,20584,53.604166666666664,192
7595,1.0,,,,29.0,,,,,8,note_on,,112.0,29.0,112.0,20592,53.625,192
7596,1.0,,,,29.0,,,,,88,note_on,,0.0,29.0,0.0,20680,53.854166666666664,192
7597,1.0,,,,29.0,,,,,8,note_on,,112.0,29.0,112.0,20688,53.875,192
7598,1.0,,,,29.0,,,,,44,note_on,,0.0,29.0,0.0,20732,53.98958333333333,192
7599,1.0,,,,36.0,,,,,4,note_on,,112.0,36.0,112.0,20736,54.0,192
7600,1.0,,,,36.0,,,,,88,note_on,,0.0,36.0,0.0,20824,54.229166666666664,192
7601,1.0,,,,36.0,,,,,8,note_on,,112.0,36.0,112.0,20832,54.25,192
7602,1.0,,,,36.0,,,,,88,note_on,,0.0,36.0,0.0,20920,54.479166666666664,192
7603,1.0,,,,36.0,,,,,8,note_on,,112.0,36.0,112.0,20928,54.5,192
7604,1.0,,,,36.0,,,,,232,note_on,,0.0,36.0,0.0,21160,55.104166666666664,192
7605,1.0,,,,36.0,,,,,8,note_on,,112.0,36.0,112.0,21168,55.125,192
7606,1.0,,,,36.0,,,,,88,note_on,,0.0,36.0,0.0,21256,55.354166666666664,192
7607,1.0,,,,36.0,,,,,8,note_on,,112.0,36.0,112.0,21264,55.375,192
7608,1.0,,,,36.0,,,,,88,note_on,,0.0,36.0,0.0,21352,55.604166666666664,192
7609,1.0,,,,36.0,,,,,8,note_on,,112.0,36.0,112.0,21360,55.625,192
7610,1.0,,,,36.0,,,,,88,note_on,,0.0,36.0,0.0,21448,55.854166666666664,192
7611,1.0,,,,34.0,,,,,8,note_on,,112.0,34.0,112.0,21456,55.875,192
7612,1.0,,,,34.0,,,,,44,note_on,,0.0,34.0,0.0,21500,55.98958333333333,192
7613,1.0,,,,31.0,,,,,4,note_on,,112.0,31.0,112.0,21504,56.0,192
7614,1.0,,,,31.0,,,,,88,note_on,,0.0,31.0,0.0,21592,56.229166666666664,192
7615,1.0,,,,31.0,,,,,8,note_on,,112.0,31.0,112.0,21600,56.25,192
7616,1.0,,,,31.0,,,,,88,note_on,,0.0,31.0,0.0,21688,56.479166666666664,192
7617,1.0,,,,31.0,,,,,8,note_on,,112.0,31.0,112.0,21696,56.5,192
7618,1.0,,,,31.0,,,,,232,note_on,,0.0,31.0,0.0,21928,57.104166666666664,192
7619,1.0,,,,31.0,,,,,8,note_on,,112.0,31.0,112.0,21936,57.125,192
7620,1.0,,,,31.0,,,,,88,note_on,,0.0,31.0,0.0,22024,57.354166666666664,192
7621,1.0,,,,31.0,,,,,8,note_on,,112.0,31.0,112.0,22032,57.375,192
7622,1.0,,,,31.0,,,,,88,note_on,,0.0,31.0,0.0,22120,57.604166666666664,192
7623,1.0,,,,31.0,,,,,8,note_on,,112.0,31.0,112.0,22128,57.625,192
7624,1.0,,,,31.0,,,,,88,note_on,,0.0,31.0,0.0,22216,57.854166666666664,192
7625,1.0,,,,31.0,,,,,8,note_on,,112.0,31.0,112.0,22224,57.875,192
7626,1.0,,,,31.0,,,,,44,note_on,,0.0,31.0,0.0,22268,57.98958333333333,192
7627,1.0,,,,31.0,,,,,4,note_on,,112.0,31.0,112.0,22272,58.0,192
7628,1.0,,,,31.0,,,,,92,note_on,,0.0,31.0,0.0,22364,58.23958333333333,192
7629,1.0,,,,31.0,,,,,4,note_on,,112.0,31.0,112.0,22368,58.25,192
7630,1.0,,,,31.0,,,,,92,note_on,,0.0,31.0,0.0,22460,58.48958333333333,192
7631,1.0,,,,31.0,,,,,4,note_on,,112.0,31.0,112.0,22464,58.5,192
7632,1.0,,,,31.0,,,,,236,note_on,,0.0,31.0,0.0,22700,59.11458333333333,192
7633,1.0,,,,31.0,,,,,4,note_on,,112.0,31.0,112.0,22704,59.125,192
7634,1.0,,,,31.0,,,,,88,note_on,,0.0,31.0,0.0,22792,59.354166666666664,192
7635,1.0,,,,31.0,,,,,8,note_on,,112.0,31.0,112.0,22800,59.375,192
7636,1.0,,,,31.0,,,,,88,note_on,,0.0,31.0,0.0,22888,59.604166666666664,192
7637,1.0,,,,31.0,,,,,8,note_on,,112.0,31.0,112.0,22896,59.625,192
7638,1.0,,,,31.0,,,,,88,note_on,,0.0,31.0,0.0,22984,59.854166666666664,192
7639,1.0,,,,31.0,,,,,8,note_on,,112.0,31.0,112.0,22992,59.875,192
7640,1.0,,,,31.0,,,,,44,note_on,,0.0,31.0,0.0,23036,59.98958333333333,192
7641,1.0,,,,29.0,,,,,4,note_on,,112.0,29.0,112.0,23040,60.0,192
7642,1.0,,,,29.0,,,,,88,note_on,,0.0,29.0,0.0,23128,60.229166666666664,192
7643,1.0,,,,29.0,,,,,8,note_on,,112.0,29.0,112.0,23136,60.25,192
7644,1.0,,,,29.0,,,,,88,note_on,,0.0,29.0,0.0,23224,60.479166666666664,192
7645,1.0,,,,29.0,,,,,8,note_on,,112.0,29.0,112.0,23232,60.5,192
7646,1.0,,,,29.0,,,,,232,note_on,,0.0,29.0,0.0,23464,61.104166666666664,192
7647,1.0,,,,29.0,,,,,8,note_on,,112.0,29.0,112.0,23472,61.125,192
7648,1.0,,,,29.0,,,,,88,note_on,,0.0,29.0,0.0,23560,61.354166666666664,192
7649,1.0,,,,29.0,,,,,8,note_on,,112.0,29.0,112.0,23568,61.375,192
7650,1.0,,,,29.0,,,,,88,note_on,,0.0,29.0,0.0,23656,61.604166666666664,192
7651,1.0,,,,29.0,,,,,8,note_on,,112.0,29.0,112.0,23664,61.625,192
7652,1.0,,,,29.0,,,,,88,note_on,,0.0,29.0,0.0,23752,61.854166666666664,192
7653,1.0,,,,29.0,,,,,8,note_on,,112.0,29.0,112.0,23760,61.875,192
7654,1.0,,,,29.0,,,,,44,note_on,,0.0,29.0,0.0,23804,61.98958333333333,192
7655,1.0,,,,36.0,,,,,4,note_on,,112.0,36.0,112.0,23808,62.0,192
7656,1.0,,,,36.0,,,,,88,note_on,,0.0,36.0,0.0,23896,62.229166666666664,192
7657,1.0,,,,36.0,,,,,8,note_on,,112.0,36.0,112.0,23904,62.25,192
7658,1.0,,,,36.0,,,,,88,note_on,,0.0,36.0,0.0,23992,62.479166666666664,192
7659,1.0,,,,36.0,,,,,8,note_on,,112.0,36.0,112.0,24000,62.5,192
7660,1.0,,,,36.0,,,,,232,note_on,,0.0,36.0,0.0,24232,63.104166666666664,192
7661,1.0,,,,36.0,,,,,8,note_on,,112.0,36.0,112.0,24240,63.125,192
7662,1.0,,,,36.0,,,,,88,note_on,,0.0,36.0,0.0,24328,63.354166666666664,192
7663,1.0,,,,36.0,,,,,8,note_on,,112.0,36.0,112.0,24336,63.375,192
7664,1.0,,,,36.0,,,,,88,note_on,,0.0,36.0,0.0,24424,63.604166666666664,192
7665,1.0,,,,36.0,,,,,8,note_on,,112.0,36.0,112.0,24432,63.625,192
7666,1.0,,,,36.0,,,,,88,note_on,,0.0,36.0,0.0,24520,63.854166666666664,192
7667,1.0,,,,34.0,,,,,8,note_on,,112.0,34.0,112.0,24528,63.875,192
7668,1.0,,,,34.0,,,,,44,note_on,,0.0,34.0,0.0,24572,63.98958333333333,192
7669,1.0,,,,31.0,,,,,4,note_on,,112.0,31.0,112.0,24576,64.0,192
7670,1.0,,,,31.0,,,,,88,note_on,,0.0,31.0,0.0,24664,64.22916666666666,192
7671,1.0,,,,31.0,,,,,8,note_on,,112.0,31.0,112.0,24672,64.25,192
7672,1.0,,,,31.0,,,,,88,note_on,,0.0,31.0,0.0,24760,64.47916666666666,192
7673,1.0,,,,31.0,,,,,8,note_on,,112.0,31.0,112.0,24768,64.5,192
7674,1.0,,,,31.0,,,,,232,note_on,,0.0,31.0,0.0,25000,65.10416666666666,192
7675,1.0,,,,31.0,,,,,8,note_on,,112.0,31.0,112.0,25008,65.125,192
7676,1.0,,,,31.0,,,,,88,note_on,,0.0,31.0,0.0,25096,65.35416666666666,192
7677,1.0,,,,31.0,,,,,8,note_on,,112.0,31.0,112.0,25104,65.375,192
7678,1.0,,,,31.0,,,,,88,note_on,,0.0,31.0,0.0,25192,65.60416666666666,192
7679,1.0,,,,31.0,,,,,8,note_on,,112.0,31.0,112.0,25200,65.625,192
7680,1.0,,,,31.0,,,,,88,note_on,,0.0,31.0,0.0,25288,65.85416666666666,192
7681,1.0,,,,31.0,,,,,8,note_on,,112.0,31.0,112.0,25296,65.875,192
7682,1.0,,,,31.0,,,,,44,note_on,,0.0,31.0,0.0,25340,65.98958333333333,192
7683,1.0,,,,31.0,,,,,3076,note_on,,112.0,31.0,112.0,28416,74.0,192
7684,1.0,,,,31.0,,,,,92,note_on,,0.0,31.0,0.0,28508,74.23958333333333,192
7685,1.0,,,,31.0,,,,,4,note_on,,112.0,31.0,112.0,28512,74.25,192
7686,1.0,,,,31.0,,,,,92,note_on,,0.0,31.0,0.0,28604,74.48958333333333,192
7687,1.0,,,,43.0,,,,,4,note_on,,112.0,43.0,112.0,28608,74.5,192
7688,1.0,,,,43.0,,,,,236,note_on,,0.0,43.0,0.0,28844,75.11458333333333,192
7689,1.0,,,,31.0,,,,,4,note_on,,112.0,31.0,112.0,28848,75.125,192
7690,1.0,,,,31.0,,,,,88,note_on,,0.0,31.0,0.0,28936,75.35416666666666,192
7691,1.0,,,,31.0,,,,,8,note_on,,112.0,31.0,112.0,28944,75.375,192
7692,1.0,,,,31.0,,,,,88,note_on,,0.0,31.0,0.0,29032,75.60416666666666,192
7693,1.0,,,,31.0,,,,,8,note_on,,112.0,31.0,112.0,29040,75.625,192
7694,1.0,,,,31.0,,,,,88,note_on,,0.0,31.0,0.0,29128,75.85416666666666,192
7695,1.0,,,,31.0,,,,,8,note_on,,112.0,31.0,112.0,29136,75.875,192
7696,1.0,,,,31.0,,,,,44,note_on,,0.0,31.0,0.0,29180,75.98958333333333,192
7697,1.0,,,,29.0,,,,,4,note_on,,112.0,29.0,112.0,29184,76.0,192
7698,1.0,,,,29.0,,,,,88,note_on,,0.0,29.0,0.0,29272,76.22916666666666,192
7699,1.0,,,,29.0,,,,,8,note_on,,112.0,29.0,112.0,29280,76.25,192
7700,1.0,,,,29.0,,,,,88,note_on,,0.0,29.0,0.0,29368,76.47916666666666,192
7701,1.0,,,,29.0,,,,,8,note_on,,112.0,29.0,112.0,29376,76.5,192
7702,1.0,,,,29.0,,,,,232,note_on,,0.0,29.0,0.0,29608,77.10416666666666,192
7703,1.0,,,,29.0,,,,,8,note_on,,112.0,29.0,112.0,29616,77.125,192
7704,1.0,,,,29.0,,,,,88,note_on,,0.0,29.0,0.0,29704,77.35416666666666,192
7705,1.0,,,,29.0,,,,,8,note_on,,112.0,29.0,112.0,29712,77.375,192
7706,1.0,,,,29.0,,,,,88,note_on,,0.0,29.0,0.0,29800,77.60416666666666,192
7707,1.0,,,,29.0,,,,,8,note_on,,112.0,29.0,112.0,29808,77.625,192
7708,1.0,,,,29.0,,,,,88,note_on,,0.0,29.0,0.0,29896,77.85416666666666,192
7709,1.0,,,,29.0,,,,,8,note_on,,112.0,29.0,112.0,29904,77.875,192
7710,1.0,,,,29.0,,,,,44,note_on,,0.0,29.0,0.0,29948,77.98958333333333,192
7711,1.0,,,,36.0,,,,,4,note_on,,112.0,36.0,112.0,29952,78.0,192
7712,1.0,,,,36.0,,,,,88,note_on,,0.0,36.0,0.0,30040,78.22916666666666,192
7713,1.0,,,,36.0,,,,,8,note_on,,112.0,36.0,112.0,30048,78.25,192
7714,1.0,,,,36.0,,,,,88,note_on,,0.0,36.0,0.0,30136,78.47916666666666,192
7715,1.0,,,,36.0,,,,,8,note_on,,112.0,36.0,112.0,30144,78.5,192
7716,1.0,,,,36.0,,,,,232,note_on,,0.0,36.0,0.0,30376,79.10416666666666,192
7717,1.0,,,,36.0,,,,,8,note_on,,112.0,36.0,112.0,30384,79.125,192
7718,1.0,,,,36.0,,,,,88,note_on,,0.0,36.0,0.0,30472,79.35416666666666,192
7719,1.0,,,,36.0,,,,,8,note_on,,112.0,36.0,112.0,30480,79.375,192
7720,1.0,,,,36.0,,,,,88,note_on,,0.0,36.0,0.0,30568,79.60416666666666,192
7721,1.0,,,,36.0,,,,,8,note_on,,112.0,36.0,112.0,30576,79.625,192
7722,1.0,,,,36.0,,,,,88,note_on,,0.0,36.0,0.0,30664,79.85416666666666,192
7723,1.0,,,,34.0,,,,,8,note_on,,112.0,34.0,112.0,30672,79.875,192
7724,1.0,,,,34.0,,,,,44,note_on,,0.0,34.0,0.0,30716,79.98958333333333,192
7725,1.0,,,,31.0,,,,,4,note_on,,112.0,31.0,112.0,30720,80.0,192
7726,1.0,,,,31.0,,,,,88,note_on,,0.0,31.0,0.0,30808,80.22916666666666,192
7727,1.0,,,,31.0,,,,,8,note_on,,112.0,31.0,112.0,30816,80.25,192
7728,1.0,,,,31.0,,,,,88,note_on,,0.0,31.0,0.0,30904,80.47916666666666,192
7729,1.0,,,,31.0,,,,,8,note_on,,112.0,31.0,112.0,30912,80.5,192
7730,1.0,,,,31.0,,,,,232,note_on,,0.0,31.0,0.0,31144,81.10416666666666,192
7731,1.0,,,,31.0,,,,,8,note_on,,112.0,31.0,112.0,31152,81.125,192
7732,1.0,,,,31.0,,,,,88,note_on,,0.0,31.0,0.0,31240,81.35416666666666,192
7733,1.0,,,,31.0,,,,,8,note_on,,112.0,31.0,112.0,31248,81.375,192
7734,1.0,,,,31.0,,,,,88,note_on,,0.0,31.0,0.0,31336,81.60416666666666,192
7735,1.0,,,,31.0,,,,,8,note_on,,112.0,31.0,112.0,31344,81.625,192
7736,1.0,,,,31.0,,,,,88,note_on,,0.0,31.0,0.0,31432,81.85416666666666,192
7737,1.0,,,,31.0,,,,,8,note_on,,112.0,31.0,112.0,31440,81.875,192
7738,1.0,,,,31.0,,,,,44,note_on,,0.0,31.0,0.0,31484,81.98958333333333,192
7739,1.0,,,,31.0,,,,,4,note_on,,112.0,31.0,112.0,31488,82.0,192
7740,1.0,,,,31.0,,,,,92,note_on,,0.0,31.0,0.0,31580,82.23958333333333,192
7741,1.0,,,,31.0,,,,,4,note_on,,112.0,31.0,112.0,31584,82.25,192
7742,1.0,,,,31.0,,,,,92,note_on,,0.0,31.0,0.0,31676,82.48958333333333,192
7743,1.0,,,,31.0,,,,,4,note_on,,112.0,31.0,112.0,31680,82.5,192
7744,1.0,,,,31.0,,,,,236,note_on,,0.0,31.0,0.0,31916,83.11458333333333,192
7745,1.0,,,,31.0,,,,,4,note_on,,112.0,31.0,112.0,31920,83.125,192
7746,1.0,,,,31.0,,,,,88,note_on,,0.0,31.0,0.0,32008,83.35416666666666,192
7747,1.0,,,,31.0,,,,,8,note_on,,112.0,31.0,112.0,32016,83.375,192
7748,1.0,,,,31.0,,,,,88,note_on,,0.0,31.0,0.0,32104,83.60416666666666,192
7749,1.0,,,,31.0,,,,,8,note_on,,112.0,31.0,112.0,32112,83.625,192
7750,1.0,,,,31.0,,,,,88,note_on,,0.0,31.0,0.0,32200,83.85416666666666,192
7751,1.0,,,,31.0,,,,,8,note_on,,112.0,31.0,112.0,32208,83.875,192
7752,1.0,,,,31.0,,,,,44,note_on,,0.0,31.0,0.0,32252,83.98958333333333,192
7753,1.0,,,,29.0,,,,,4,note_on,,112.0,29.0,112.0,32256,84.0,192
7754,1.0,,,,29.0,,,,,88,note_on,,0.0,29.0,0.0,32344,84.22916666666666,192
7755,1.0,,,,29.0,,,,,8,note_on,,112.0,29.0,112.0,32352,84.25,192
7756,1.0,,,,29.0,,,,,88,note_on,,0.0,29.0,0.0,32440,84.47916666666666,192
7757,1.0,,,,29.0,,,,,8,note_on,,112.0,29.0,112.0,32448,84.5,192
7758,1.0,,,,29.0,,,,,232,note_on,,0.0,29.0,0.0,32680,85.10416666666666,192
7759,1.0,,,,29.0,,,,,8,note_on,,112.0,29.0,112.0,32688,85.125,192
7760,1.0,,,,29.0,,,,,88,note_on,,0.0,29.0,0.0,32776,85.35416666666666,192
7761,1.0,,,,29.0,,,,,8,note_on,,112.0,29.0,112.0,32784,85.375,192
7762,1.0,,,,29.0,,,,,88,note_on,,0.0,29.0,0.0,32872,85.60416666666666,192
7763,1.0,,,,29.0,,,,,8,note_on,,112.0,29.0,112.0,32880,85.625,192
7764,1.0,,,,29.0,,,,,88,note_on,,0.0,29.0,0.0,32968,85.85416666666666,192
7765,1.0,,,,29.0,,,,,8,note_on,,112.0,29.0,112.0,32976,85.875,192
7766,1.0,,,,29.0,,,,,44,note_on,,0.0,29.0,0.0,33020,85.98958333333333,192
7767,1.0,,,,36.0,,,,,4,note_on,,112.0,36.0,112.0,33024,86.0,192
7768,1.0,,,,36.0,,,,,88,note_on,,0.0,36.0,0.0,33112,86.22916666666666,192
7769,1.0,,,,36.0,,,,,8,note_on,,112.0,36.0,112.0,33120,86.25,192
7770,1.0,,,,36.0,,,,,88,note_on,,0.0,36.0,0.0,33208,86.47916666666666,192
7771,1.0,,,,36.0,,,,,8,note_on,,112.0,36.0,112.0,33216,86.5,192
7772,1.0,,,,36.0,,,,,232,note_on,,0.0,36.0,0.0,33448,87.10416666666666,192
7773,1.0,,,,36.0,,,,,8,note_on,,112.0,36.0,112.0,33456,87.125,192
7774,1.0,,,,36.0,,,,,88,note_on,,0.0,36.0,0.0,33544,87.35416666666666,192
7775,1.0,,,,36.0,,,,,8,note_on,,112.0,36.0,112.0,33552,87.375,192
7776,1.0,,,,36.0,,,,,88,note_on,,0.0,36.0,0.0,33640,87.60416666666666,192
7777,1.0,,,,36.0,,,,,8,note_on,,112.0,36.0,112.0,33648,87.625,192
7778,1.0,,,,36.0,,,,,88,note_on,,0.0,36.0,0.0,33736,87.85416666666666,192
7779,1.0,,,,34.0,,,,,8,note_on,,112.0,34.0,112.0,33744,87.875,192
7780,1.0,,,,34.0,,,,,44,note_on,,0.0,34.0,0.0,33788,87.98958333333333,192
7781,1.0,,,,31.0,,,,,4,note_on,,112.0,31.0,112.0,33792,88.0,192
7782,1.0,,,,31.0,,,,,88,note_on,,0.0,31.0,0.0,33880,88.22916666666666,192
7783,1.0,,,,31.0,,,,,8,note_on,,112.0,31.0,112.0,33888,88.25,192
7784,1.0,,,,31.0,,,,,88,note_on,,0.0,31.0,0.0,33976,88.47916666666666,192
7785,1.0,,,,31.0,,,,,8,note_on,,112.0,31.0,112.0,33984,88.5,192
7786,1.0,,,,31.0,,,,,232,note_on,,0.0,31.0,0.0,34216,89.10416666666666,192
7787,1.0,,,,31.0,,,,,8,note_on,,112.0,31.0,112.0,34224,89.125,192
7788,1.0,,,,31.0,,,,,88,note_on,,0.0,31.0,0.0,34312,89.35416666666666,192
7789,1.0,,,,31.0,,,,,8,note_on,,112.0,31.0,112.0,34320,89.375,192
7790,1.0,,,,31.0,,,,,88,note_on,,0.0,31.0,0.0,34408,89.60416666666666,192
7791,1.0,,,,31.0,,,,,8,note_on,,112.0,31.0,112.0,34416,89.625,192
7792,1.0,,,,31.0,,,,,88,note_on,,0.0,31.0,0.0,34504,89.85416666666666,192
7793,1.0,,,,31.0,,,,,8,note_on,,112.0,31.0,112.0,34512,89.875,192
7794,1.0,,,,31.0,,,,,44,note_on,,0.0,31.0,0.0,34556,89.98958333333333,192
7795,1.0,,,,31.0,,,,,4,note_on,,112.0,31.0,112.0,34560,90.0,192
7796,1.0,,,,31.0,,,,,92,note_on,,0.0,31.0,0.0,34652,90.23958333333333,192
7797,1.0,,,,31.0,,,,,4,note_on,,112.0,31.0,112.0,34656,90.25,192
7798,1.0,,,,31.0,,,,,92,note_on,,0.0,31.0,0.0,34748,90.48958333333333,192
7799,1.0,,,,31.0,,,,,4,note_on,,112.0,31.0,112.0,34752,90.5,192
7800,1.0,,,,31.0,,,,,236,note_on,,0.0,31.0,0.0,34988,91.11458333333333,192
7801,1.0,,,,31.0,,,,,4,note_on,,112.0,31.0,112.0,34992,91.125,192
7802,1.0,,,,31.0,,,,,88,note_on,,0.0,31.0,0.0,35080,91.35416666666666,192
7803,1.0,,,,31.0,,,,,8,note_on,,112.0,31.0,112.0,35088,91.375,192
7804,1.0,,,,31.0,,,,,88,note_on,,0.0,31.0,0.0,35176,91.60416666666666,192
7805,1.0,,,,31.0,,,,,8,note_on,,112.0,31.0,112.0,35184,91.625,192
7806,1.0,,,,31.0,,,,,88,note_on,,0.0,31.0,0.0,35272,91.85416666666666,192
7807,1.0,,,,31.0,,,,,8,note_on,,112.0,31.0,112.0,35280,91.875,192
7808,1.0,,,,31.0,,,,,44,note_on,,0.0,31.0,0.0,35324,91.98958333333333,192
7809,1.0,,,,29.0,,,,,4,note_on,,112.0,29.0,112.0,35328,92.0,192
7810,1.0,,,,29.0,,,,,88,note_on,,0.0,29.0,0.0,35416,92.22916666666666,192
7811,1.0,,,,29.0,,,,,8,note_on,,112.0,29.0,112.0,35424,92.25,192
7812,1.0,,,,29.0,,,,,88,note_on,,0.0,29.0,0.0,35512,92.47916666666666,192
7813,1.0,,,,29.0,,,,,8,note_on,,112.0,29.0,112.0,35520,92.5,192
7814,1.0,,,,29.0,,,,,232,note_on,,0.0,29.0,0.0,35752,93.10416666666666,192
7815,1.0,,,,29.0,,,,,8,note_on,,112.0,29.0,112.0,35760,93.125,192
7816,1.0,,,,29.0,,,,,88,note_on,,0.0,29.0,0.0,35848,93.35416666666666,192
7817,1.0,,,,29.0,,,,,8,note_on,,112.0,29.0,112.0,35856,93.375,192
7818,1.0,,,,29.0,,,,,88,note_on,,0.0,29.0,0.0,35944,93.60416666666666,192
7819,1.0,,,,29.0,,,,,8,note_on,,112.0,29.0,112.0,35952,93.625,192
7820,1.0,,,,29.0,,,,,88,note_on,,0.0,29.0,0.0,36040,93.85416666666666,192
7821,1.0,,,,29.0,,,,,8,note_on,,112.0,29.0,112.0,36048,93.875,192
7822,1.0,,,,29.0,,,,,44,note_on,,0.0,29.0,0.0,36092,93.98958333333333,192
7823,1.0,,,,36.0,,,,,4,note_on,,112.0,36.0,112.0,36096,94.0,192
7824,1.0,,,,36.0,,,,,88,note_on,,0.0,36.0,0.0,36184,94.22916666666666,192
7825,1.0,,,,36.0,,,,,8,note_on,,112.0,36.0,112.0,36192,94.25,192
7826,1.0,,,,36.0,,,,,88,note_on,,0.0,36.0,0.0,36280,94.47916666666666,192
7827,1.0,,,,36.0,,,,,8,note_on,,112.0,36.0,112.0,36288,94.5,192
7828,1.0,,,,36.0,,,,,232,note_on,,0.0,36.0,0.0,36520,95.10416666666666,192
7829,1.0,,,,36.0,,,,,8,note_on,,112.0,36.0,112.0,36528,95.125,192
7830,1.0,,,,36.0,,,,,88,note_on,,0.0,36.0,0.0,36616,95.35416666666666,192
7831,1.0,,,,36.0,,,,,8,note_on,,112.0,36.0,112.0,36624,95.375,192
7832,1.0,,,,36.0,,,,,88,note_on,,0.0,36.0,0.0,36712,95.60416666666666,192
7833,1.0,,,,36.0,,,,,8,note_on,,112.0,36.0,112.0,36720,95.625,192
7834,1.0,,,,36.0,,,,,88,note_on,,0.0,36.0,0.0,36808,95.85416666666666,192
7835,1.0,,,,34.0,,,,,8,note_on,,112.0,34.0,112.0,36816,95.875,192
7836,1.0,,,,34.0,,,,,44,note_on,,0.0,34.0,0.0,36860,95.98958333333333,192
7837,1.0,,,,31.0,,,,,772,note_on,,112.0,31.0,112.0,37632,98.0,192
7838,1.0,,,,31.0,,,,,92,note_on,,0.0,31.0,0.0,37724,98.23958333333333,192
7839,1.0,,,,31.0,,,,,4,note_on,,112.0,31.0,112.0,37728,98.25,192
7840,1.0,,,,31.0,,,,,92,note_on,,0.0,31.0,0.0,37820,98.48958333333333,192
7841,1.0,,,,31.0,,,,,4,note_on,,112.0,31.0,112.0,37824,98.5,192
7842,1.0,,,,31.0,,,,,236,note_on,,0.0,31.0,0.0,38060,99.11458333333333,192
7843,1.0,,,,31.0,,,,,4,note_on,,112.0,31.0,112.0,38064,99.125,192
7844,1.0,,,,31.0,,,,,88,note_on,,0.0,31.0,0.0,38152,99.35416666666666,192
7845,1.0,,,,31.0,,,,,8,note_on,,112.0,31.0,112.0,38160,99.375,192
7846,1.0,,,,31.0,,,,,88,note_on,,0.0,31.0,0.0,38248,99.60416666666666,192
7847,1.0,,,,31.0,,,,,8,note_on,,112.0,31.0,112.0,38256,99.625,192
7848,1.0,,,,31.0,,,,,88,note_on,,0.0,31.0,0.0,38344,99.85416666666666,192
7849,1.0,,,,31.0,,,,,8,note_on,,112.0,31.0,112.0,38352,99.875,192
7850,1.0,,,,31.0,,,,,44,note_on,,0.0,31.0,0.0,38396,99.98958333333333,192
7851,1.0,,,,29.0,,,,,4,note_on,,112.0,29.0,112.0,38400,100.0,192
7852,1.0,,,,29.0,,,,,88,note_on,,0.0,29.0,0.0,38488,100.22916666666666,192
7853,1.0,,,,29.0,,,,,8,note_on,,112.0,29.0,112.0,38496,100.25,192
7854,1.0,,,,29.0,,,,,88,note_on,,0.0,29.0,0.0,38584,100.47916666666666,192
7855,1.0,,,,29.0,,,,,8,note_on,,112.0,29.0,112.0,38592,100.5,192
7856,1.0,,,,29.0,,,,,232,note_on,,0.0,29.0,0.0,38824,101.10416666666666,192
7857,1.0,,,,29.0,,,,,8,note_on,,112.0,29.0,112.0,38832,101.125,192
7858,1.0,,,,29.0,,,,,88,note_on,,0.0,29.0,0.0,38920,101.35416666666666,192
7859,1.0,,,,29.0,,,,,8,note_on,,112.0,29.0,112.0,38928,101.375,192
7860,1.0,,,,29.0,,,,,88,note_on,,0.0,29.0,0.0,39016,101.60416666666666,192
7861,1.0,,,,29.0,,,,,8,note_on,,112.0,29.0,112.0,39024,101.625,192
7862,1.0,,,,29.0,,,,,88,note_on,,0.0,29.0,0.0,39112,101.85416666666666,192
7863,1.0,,,,29.0,,,,,8,note_on,,112.0,29.0,112.0,39120,101.875,192
7864,1.0,,,,29.0,,,,,44,note_on,,0.0,29.0,0.0,39164,101.98958333333333,192
7865,1.0,,,,36.0,,,,,4,note_on,,112.0,36.0,112.0,39168,102.0,192
7866,1.0,,,,36.0,,,,,88,note_on,,0.0,36.0,0.0,39256,102.22916666666666,192
7867,1.0,,,,36.0,,,,,8,note_on,,112.0,36.0,112.0,39264,102.25,192
7868,1.0,,,,36.0,,,,,88,note_on,,0.0,36.0,0.0,39352,102.47916666666666,192
7869,1.0,,,,36.0,,,,,8,note_on,,112.0,36.0,112.0,39360,102.5,192
7870,1.0,,,,36.0,,,,,232,note_on,,0.0,36.0,0.0,39592,103.10416666666666,192
7871,1.0,,,,36.0,,,,,8,note_on,,112.0,36.0,112.0,39600,103.125,192
7872,1.0,,,,36.0,,,,,88,note_on,,0.0,36.0,0.0,39688,103.35416666666666,192
7873,1.0,,,,36.0,,,,,8,note_on,,112.0,36.0,112.0,39696,103.375,192
7874,1.0,,,,36.0,,,,,88,note_on,,0.0,36.0,0.0,39784,103.60416666666666,192
7875,1.0,,,,36.0,,,,,8,note_on,,112.0,36.0,112.0,39792,103.625,192
7876,1.0,,,,36.0,,,,,88,note_on,,0.0,36.0,0.0,39880,103.85416666666666,192
7877,1.0,,,,34.0,,,,,8,note_on,,112.0,34.0,112.0,39888,103.875,192
7878,1.0,,,,34.0,,,,,44,note_on,,0.0,34.0,0.0,39932,103.98958333333333,192
7879,1.0,,,,31.0,,,,,4,note_on,,112.0,31.0,112.0,39936,104.0,192
7880,1.0,,,,31.0,,,,,88,note_on,,0.0,31.0,0.0,40024,104.22916666666666,192
7881,1.0,,,,31.0,,,,,8,note_on,,112.0,31.0,112.0,40032,104.25,192
7882,1.0,,,,31.0,,,,,88,note_on,,0.0,31.0,0.0,40120,104.47916666666666,192
7883,1.0,,,,31.0,,,,,8,note_on,,112.0,31.0,112.0,40128,104.5,192
7884,1.0,,,,31.0,,,,,232,note_on,,0.0,31.0,0.0,40360,105.10416666666666,192
7885,1.0,,,,31.0,,,,,8,note_on,,112.0,31.0,112.0,40368,105.125,192
7886,1.0,,,,31.0,,,,,88,note_on,,0.0,31.0,0.0,40456,105.35416666666666,192
7887,1.0,,,,31.0,,,,,8,note_on,,112.0,31.0,112.0,40464,105.375,192
7888,1.0,,,,31.0,,,,,88,note_on,,0.0,31.0,0.0,40552,105.60416666666666,192
7889,1.0,,,,31.0,,,,,8,note_on,,112.0,31.0,112.0,40560,105.625,192
7890,1.0,,,,31.0,,,,,88,note_on,,0.0,31.0,0.0,40648,105.85416666666666,192
7891,1.0,,,,31.0,,,,,8,note_on,,112.0,31.0,112.0,40656,105.875,192
7892,1.0,,,,31.0,,,,,44,note_on,,0.0,31.0,0.0,40700,105.98958333333333,192
7893,1.0,,,,31.0,,,,,4,note_on,,112.0,31.0,112.0,40704,106.0,192
7894,1.0,,,,31.0,,,,,92,note_on,,0.0,31.0,0.0,40796,106.23958333333333,192
7895,1.0,,,,31.0,,,,,4,note_on,,112.0,31.0,112.0,40800,106.25,192
7896,1.0,,,,31.0,,,,,92,note_on,,0.0,31.0,0.0,40892,106.48958333333333,192
7897,1.0,,,,31.0,,,,,4,note_on,,112.0,31.0,112.0,40896,106.5,192
7898,1.0,,,,31.0,,,,,236,note_on,,0.0,31.0,0.0,41132,107.11458333333333,192
7899,1.0,,,,31.0,,,,,4,note_on,,112.0,31.0,112.0,41136,107.125,192
7900,1.0,,,,31.0,,,,,88,note_on,,0.0,31.0,0.0,41224,107.35416666666666,192
7901,1.0,,,,31.0,,,,,8,note_on,,112.0,31.0,112.0,41232,107.375,192
7902,1.0,,,,31.0,,,,,88,note_on,,0.0,31.0,0.0,41320,107.60416666666666,192
7903,1.0,,,,31.0,,,,,8,note_on,,112.0,31.0,112.0,41328,107.625,192
7904,1.0,,,,31.0,,,,,88,note_on,,0.0,31.0,0.0,41416,107.85416666666666,192
7905,1.0,,,,31.0,,,,,8,note_on,,112.0,31.0,112.0,41424,107.875,192
7906,1.0,,,,31.0,,,,,44,note_on,,0.0,31.0,0.0,41468,107.98958333333333,192
7907,1.0,,,,29.0,,,,,4,note_on,,112.0,29.0,112.0,41472,108.0,192
7908,1.0,,,,29.0,,,,,88,note_on,,0.0,29.0,0.0,41560,108.22916666666666,192
7909,1.0,,,,29.0,,,,,8,note_on,,112.0,29.0,112.0,41568,108.25,192
7910,1.0,,,,29.0,,,,,88,note_on,,0.0,29.0,0.0,41656,108.47916666666666,192
7911,1.0,,,,29.0,,,,,8,note_on,,112.0,29.0,112.0,41664,108.5,192
7912,1.0,,,,29.0,,,,,232,note_on,,0.0,29.0,0.0,41896,109.10416666666666,192
7913,1.0,,,,29.0,,,,,8,note_on,,112.0,29.0,112.0,41904,109.125,192
7914,1.0,,,,29.0,,,,,88,note_on,,0.0,29.0,0.0,41992,109.35416666666666,192
7915,1.0,,,,29.0,,,,,8,note_on,,112.0,29.0,112.0,42000,109.375,192
7916,1.0,,,,29.0,,,,,88,note_on,,0.0,29.0,0.0,42088,109.60416666666666,192
7917,1.0,,,,29.0,,,,,8,note_on,,112.0,29.0,112.0,42096,109.625,192
7918,1.0,,,,29.0,,,,,88,note_on,,0.0,29.0,0.0,42184,109.85416666666666,192
7919,1.0,,,,29.0,,,,,8,note_on,,112.0,29.0,112.0,42192,109.875,192
7920,1.0,,,,29.0,,,,,44,note_on,,0.0,29.0,0.0,42236,109.98958333333333,192
7921,1.0,,,,36.0,,,,,4,note_on,,112.0,36.0,112.0,42240,110.0,192
7922,1.0,,,,36.0,,,,,88,note_on,,0.0,36.0,0.0,42328,110.22916666666666,192
7923,1.0,,,,36.0,,,,,8,note_on,,112.0,36.0,112.0,42336,110.25,192
7924,1.0,,,,36.0,,,,,88,note_on,,0.0,36.0,0.0,42424,110.47916666666666,192
7925,1.0,,,,36.0,,,,,8,note_on,,112.0,36.0,112.0,42432,110.5,192
7926,1.0,,,,36.0,,,,,232,note_on,,0.0,36.0,0.0,42664,111.10416666666666,192
7927,1.0,,,,36.0,,,,,8,note_on,,112.0,36.0,112.0,42672,111.125,192
7928,1.0,,,,36.0,,,,,88,note_on,,0.0,36.0,0.0,42760,111.35416666666666,192
7929,1.0,,,,36.0,,,,,8,note_on,,112.0,36.0,112.0,42768,111.375,192
7930,1.0,,,,36.0,,,,,88,note_on,,0.0,36.0,0.0,42856,111.60416666666666,192
7931,1.0,,,,36.0,,,,,8,note_on,,112.0,36.0,112.0,42864,111.625,192
7932,1.0,,,,36.0,,,,,88,note_on,,0.0,36.0,0.0,42952,111.85416666666666,192
7933,1.0,,,,34.0,,,,,8,note_on,,112.0,34.0,112.0,42960,111.875,192
7934,1.0,,,,34.0,,,,,44,note_on,,0.0,34.0,0.0,43004,111.98958333333333,192
7935,1.0,,,,31.0,,,,,4,note_on,,112.0,31.0,112.0,43008,112.0,192
7936,1.0,,,,31.0,,,,,88,note_on,,0.0,31.0,0.0,43096,112.22916666666666,192
7937,1.0,,,,31.0,,,,,8,note_on,,112.0,31.0,112.0,43104,112.25,192
7938,1.0,,,,31.0,,,,,88,note_on,,0.0,31.0,0.0,43192,112.47916666666666,192
7939,1.0,,,,31.0,,,,,8,note_on,,112.0,31.0,112.0,43200,112.5,192
7940,1.0,,,,31.0,,,,,232,note_on,,0.0,31.0,0.0,43432,113.10416666666666,192
7941,1.0,,,,31.0,,,,,8,note_on,,112.0,31.0,112.0,43440,113.125,192
7942,1.0,,,,31.0,,,,,88,note_on,,0.0,31.0,0.0,43528,113.35416666666666,192
7943,1.0,,,,31.0,,,,,8,note_on,,112.0,31.0,112.0,43536,113.375,192
7944,1.0,,,,31.0,,,,,88,note_on,,0.0,31.0,0.0,43624,113.60416666666666,192
7945,1.0,,,,31.0,,,,,8,note_on,,112.0,31.0,112.0,43632,113.625,192
7946,1.0,,,,31.0,,,,,88,note_on,,0.0,31.0,0.0,43720,113.85416666666666,192
7947,1.0,,,,31.0,,,,,8,note_on,,112.0,31.0,112.0,43728,113.875,192
7948,1.0,,,,31.0,,,,,44,note_on,,0.0,31.0,0.0,43772,113.98958333333333,192
7949,1.0,,,,31.0,,,,,6148,note_on,,112.0,31.0,112.0,49920,130.0,192
7950,1.0,,,,31.0,,,,,92,note_on,,0.0,31.0,0.0,50012,130.23958333333331,192
7951,1.0,,,,31.0,,,,,4,note_on,,112.0,31.0,112.0,50016,130.25,192
7952,1.0,,,,31.0,,,,,92,note_on,,0.0,31.0,0.0,50108,130.48958333333331,192
7953,1.0,,,,43.0,,,,,4,note_on,,112.0,43.0,112.0,50112,130.5,192
7954,1.0,,,,43.0,,,,,236,note_on,,0.0,43.0,0.0,50348,131.11458333333331,192
7955,1.0,,,,31.0,,,,,4,note_on,,112.0,31.0,112.0,50352,131.125,192
7956,1.0,,,,31.0,,,,,88,note_on,,0.0,31.0,0.0,50440,131.35416666666666,192
7957,1.0,,,,31.0,,,,,8,note_on,,112.0,31.0,112.0,50448,131.375,192
7958,1.0,,,,31.0,,,,,88,note_on,,0.0,31.0,0.0,50536,131.60416666666666,192
7959,1.0,,,,31.0,,,,,8,note_on,,112.0,31.0,112.0,50544,131.625,192
7960,1.0,,,,31.0,,,,,88,note_on,,0.0,31.0,0.0,50632,131.85416666666666,192
7961,1.0,,,,31.0,,,,,8,note_on,,112.0,31.0,112.0,50640,131.875,192
7962,1.0,,,,31.0,,,,,44,note_on,,0.0,31.0,0.0,50684,131.98958333333331,192
7963,1.0,,,,29.0,,,,,4,note_on,,112.0,29.0,112.0,50688,132.0,192
7964,1.0,,,,29.0,,,,,88,note_on,,0.0,29.0,0.0,50776,132.22916666666666,192
7965,1.0,,,,29.0,,,,,8,note_on,,112.0,29.0,112.0,50784,132.25,192
7966,1.0,,,,29.0,,,,,88,note_on,,0.0,29.0,0.0,50872,132.47916666666666,192
7967,1.0,,,,29.0,,,,,8,note_on,,112.0,29.0,112.0,50880,132.5,192
7968,1.0,,,,29.0,,,,,232,note_on,,0.0,29.0,0.0,51112,133.10416666666666,192
7969,1.0,,,,29.0,,,,,8,note_on,,112.0,29.0,112.0,51120,133.125,192
7970,1.0,,,,29.0,,,,,88,note_on,,0.0,29.0,0.0,51208,133.35416666666666,192
7971,1.0,,,,29.0,,,,,8,note_on,,112.0,29.0,112.0,51216,133.375,192
7972,1.0,,,,29.0,,,,,88,note_on,,0.0,29.0,0.0,51304,133.60416666666666,192
7973,1.0,,,,29.0,,,,,8,note_on,,112.0,29.0,112.0,51312,133.625,192
7974,1.0,,,,29.0,,,,,88,note_on,,0.0,29.0,0.0,51400,133.85416666666666,192
7975,1.0,,,,29.0,,,,,8,note_on,,112.0,29.0,112.0,51408,133.875,192
7976,1.0,,,,29.0,,,,,44,note_on,,0.0,29.0,0.0,51452,133.98958333333331,192
7977,1.0,,,,36.0,,,,,4,note_on,,112.0,36.0,112.0,51456,134.0,192
7978,1.0,,,,36.0,,,,,88,note_on,,0.0,36.0,0.0,51544,134.22916666666666,192
7979,1.0,,,,36.0,,,,,8,note_on,,112.0,36.0,112.0,51552,134.25,192
7980,1.0,,,,36.0,,,,,88,note_on,,0.0,36.0,0.0,51640,134.47916666666666,192
7981,1.0,,,,36.0,,,,,8,note_on,,112.0,36.0,112.0,51648,134.5,192
7982,1.0,,,,36.0,,,,,232,note_on,,0.0,36.0,0.0,51880,135.10416666666666,192
7983,1.0,,,,36.0,,,,,8,note_on,,112.0,36.0,112.0,51888,135.125,192
7984,1.0,,,,36.0,,,,,88,note_on,,0.0,36.0,0.0,51976,135.35416666666666,192
7985,1.0,,,,36.0,,,,,8,note_on,,112.0,36.0,112.0,51984,135.375,192
7986,1.0,,,,36.0,,,,,88,note_on,,0.0,36.0,0.0,52072,135.60416666666666,192
7987,1.0,,,,36.0,,,,,8,note_on,,112.0,36.0,112.0,52080,135.625,192
7988,1.0,,,,36.0,,,,,88,note_on,,0.0,36.0,0.0,52168,135.85416666666666,192
7989,1.0,,,,34.0,,,,,8,note_on,,112.0,34.0,112.0,52176,135.875,192
7990,1.0,,,,34.0,,,,,44,note_on,,0.0,34.0,0.0,52220,135.98958333333331,192
7991,1.0,,,,31.0,,,,,4,note_on,,112.0,31.0,112.0,52224,136.0,192
7992,1.0,,,,31.0,,,,,88,note_on,,0.0,31.0,0.0,52312,136.22916666666666,192
7993,1.0,,,,31.0,,,,,8,note_on,,112.0,31.0,112.0,52320,136.25,192
7994,1.0,,,,31.0,,,,,88,note_on,,0.0,31.0,0.0,52408,136.47916666666666,192
7995,1.0,,,,31.0,,,,,8,note_on,,112.0,31.0,112.0,52416,136.5,192
7996,1.0,,,,31.0,,,,,232,note_on,,0.0,31.0,0.0,52648,137.10416666666666,192
7997,1.0,,,,31.0,,,,,8,note_on,,112.0,31.0,112.0,52656,137.125,192
7998,1.0,,,,31.0,,,,,88,note_on,,0.0,31.0,0.0,52744,137.35416666666666,192
7999,1.0,,,,31.0,,,,,8,note_on,,112.0,31.0,112.0,52752,137.375,192
8000,1.0,,,,31.0,,,,,88,note_on,,0.0,31.0,0.0,52840,137.60416666666666,192
8001,1.0,,,,31.0,,,,,8,note_on,,112.0,31.0,112.0,52848,137.625,192
8002,1.0,,,,31.0,,,,,88,note_on,,0.0,31.0,0.0,52936,137.85416666666666,192
8003,1.0,,,,31.0,,,,,8,note_on,,112.0,31.0,112.0,52944,137.875,192
8004,1.0,,,,31.0,,,,,44,note_on,,0.0,31.0,0.0,52988,137.98958333333331,192
8005,1.0,,,,31.0,,,,,4,note_on,,112.0,31.0,112.0,52992,138.0,192
8006,1.0,,,,31.0,,,,,92,note_on,,0.0,31.0,0.0,53084,138.23958333333331,192
8007,1.0,,,,31.0,,,,,4,note_on,,112.0,31.0,112.0,53088,138.25,192
8008,1.0,,,,31.0,,,,,92,note_on,,0.0,31.0,0.0,53180,138.48958333333331,192
8009,1.0,,,,31.0,,,,,4,note_on,,112.0,31.0,112.0,53184,138.5,192
8010,1.0,,,,31.0,,,,,236,note_on,,0.0,31.0,0.0,53420,139.11458333333331,192
8011,1.0,,,,31.0,,,,,4,note_on,,112.0,31.0,112.0,53424,139.125,192
8012,1.0,,,,31.0,,,,,88,note_on,,0.0,31.0,0.0,53512,139.35416666666666,192
8013,1.0,,,,31.0,,,,,8,note_on,,112.0,31.0,112.0,53520,139.375,192
8014,1.0,,,,31.0,,,,,88,note_on,,0.0,31.0,0.0,53608,139.60416666666666,192
8015,1.0,,,,31.0,,,,,8,note_on,,112.0,31.0,112.0,53616,139.625,192
8016,1.0,,,,31.0,,,,,88,note_on,,0.0,31.0,0.0,53704,139.85416666666666,192
8017,1.0,,,,31.0,,,,,8,note_on,,112.0,31.0,112.0,53712,139.875,192
8018,1.0,,,,31.0,,,,,44,note_on,,0.0,31.0,0.0,53756,139.98958333333331,192
8019,1.0,,,,29.0,,,,,4,note_on,,112.0,29.0,112.0,53760,140.0,192
8020,1.0,,,,29.0,,,,,88,note_on,,0.0,29.0,0.0,53848,140.22916666666666,192
8021,1.0,,,,29.0,,,,,8,note_on,,112.0,29.0,112.0,53856,140.25,192
8022,1.0,,,,29.0,,,,,88,note_on,,0.0,29.0,0.0,53944,140.47916666666666,192
8023,1.0,,,,29.0,,,,,8,note_on,,112.0,29.0,112.0,53952,140.5,192
8024,1.0,,,,29.0,,,,,232,note_on,,0.0,29.0,0.0,54184,141.10416666666666,192
8025,1.0,,,,29.0,,,,,8,note_on,,112.0,29.0,112.0,54192,141.125,192
8026,1.0,,,,29.0,,,,,88,note_on,,0.0,29.0,0.0,54280,141.35416666666666,192
8027,1.0,,,,29.0,,,,,8,note_on,,112.0,29.0,112.0,54288,141.375,192
8028,1.0,,,,29.0,,,,,88,note_on,,0.0,29.0,0.0,54376,141.60416666666666,192
8029,1.0,,,,29.0,,,,,8,note_on,,112.0,29.0,112.0,54384,141.625,192
8030,1.0,,,,29.0,,,,,88,note_on,,0.0,29.0,0.0,54472,141.85416666666666,192
8031,1.0,,,,29.0,,,,,8,note_on,,112.0,29.0,112.0,54480,141.875,192
8032,1.0,,,,29.0,,,,,44,note_on,,0.0,29.0,0.0,54524,141.98958333333331,192
8033,1.0,,,,36.0,,,,,4,note_on,,112.0,36.0,112.0,54528,142.0,192
8034,1.0,,,,36.0,,,,,88,note_on,,0.0,36.0,0.0,54616,142.22916666666666,192
8035,1.0,,,,36.0,,,,,8,note_on,,112.0,36.0,112.0,54624,142.25,192
8036,1.0,,,,36.0,,,,,88,note_on,,0.0,36.0,0.0,54712,142.47916666666666,192
8037,1.0,,,,36.0,,,,,8,note_on,,112.0,36.0,112.0,54720,142.5,192
8038,1.0,,,,36.0,,,,,232,note_on,,0.0,36.0,0.0,54952,143.10416666666666,192
8039,1.0,,,,36.0,,,,,8,note_on,,112.0,36.0,112.0,54960,143.125,192
8040,1.0,,,,36.0,,,,,88,note_on,,0.0,36.0,0.0,55048,143.35416666666666,192
8041,1.0,,,,36.0,,,,,8,note_on,,112.0,36.0,112.0,55056,143.375,192
8042,1.0,,,,36.0,,,,,88,note_on,,0.0,36.0,0.0,55144,143.60416666666666,192
8043,1.0,,,,36.0,,,,,8,note_on,,112.0,36.0,112.0,55152,143.625,192
8044,1.0,,,,36.0,,,,,88,note_on,,0.0,36.0,0.0,55240,143.85416666666666,192
8045,1.0,,,,34.0,,,,,8,note_on,,112.0,34.0,112.0,55248,143.875,192
8046,1.0,,,,34.0,,,,,44,note_on,,0.0,34.0,0.0,55292,143.98958333333331,192
8047,1.0,,,,31.0,,,,,4,note_on,,112.0,31.0,112.0,55296,144.0,192
8048,1.0,,,,31.0,,,,,88,note_on,,0.0,31.0,0.0,55384,144.22916666666666,192
8049,1.0,,,,31.0,,,,,8,note_on,,112.0,31.0,112.0,55392,144.25,192
8050,1.0,,,,31.0,,,,,88,note_on,,0.0,31.0,0.0,55480,144.47916666666666,192
8051,1.0,,,,31.0,,,,,8,note_on,,112.0,31.0,112.0,55488,144.5,192
8052,1.0,,,,31.0,,,,,232,note_on,,0.0,31.0,0.0,55720,145.10416666666666,192
8053,1.0,,,,31.0,,,,,8,note_on,,112.0,31.0,112.0,55728,145.125,192
8054,1.0,,,,31.0,,,,,88,note_on,,0.0,31.0,0.0,55816,145.35416666666666,192
8055,1.0,,,,31.0,,,,,8,note_on,,112.0,31.0,112.0,55824,145.375,192
8056,1.0,,,,31.0,,,,,88,note_on,,0.0,31.0,0.0,55912,145.60416666666666,192
8057,1.0,,,,31.0,,,,,8,note_on,,112.0,31.0,112.0,55920,145.625,192
8058,1.0,,,,31.0,,,,,88,note_on,,0.0,31.0,0.0,56008,145.85416666666666,192
8059,1.0,,,,31.0,,,,,8,note_on,,112.0,31.0,112.0,56016,145.875,192
8060,1.0,,,,31.0,,,,,44,note_on,,0.0,31.0,0.0,56060,145.98958333333331,192
8061,1.0,,,,31.0,,,,,4,note_on,,112.0,31.0,112.0,56064,146.0,192
8062,1.0,,,,31.0,,,,,92,note_on,,0.0,31.0,0.0,56156,146.23958333333331,192
8063,1.0,,,,31.0,,,,,4,note_on,,112.0,31.0,112.0,56160,146.25,192
8064,1.0,,,,31.0,,,,,92,note_on,,0.0,31.0,0.0,56252,146.48958333333331,192
8065,1.0,,,,43.0,,,,,4,note_on,,112.0,43.0,112.0,56256,146.5,192
8066,1.0,,,,43.0,,,,,236,note_on,,0.0,43.0,0.0,56492,147.11458333333331,192
8067,1.0,,,,31.0,,,,,4,note_on,,112.0,31.0,112.0,56496,147.125,192
8068,1.0,,,,31.0,,,,,88,note_on,,0.0,31.0,0.0,56584,147.35416666666666,192
8069,1.0,,,,31.0,,,,,8,note_on,,112.0,31.0,112.0,56592,147.375,192
8070,1.0,,,,31.0,,,,,88,note_on,,0.0,31.0,0.0,56680,147.60416666666666,192
8071,1.0,,,,31.0,,,,,8,note_on,,112.0,31.0,112.0,56688,147.625,192
8072,1.0,,,,31.0,,,,,88,note_on,,0.0,31.0,0.0,56776,147.85416666666666,192
8073,1.0,,,,31.0,,,,,8,note_on,,112.0,31.0,112.0,56784,147.875,192
8074,1.0,,,,31.0,,,,,44,note_on,,0.0,31.0,0.0,56828,147.98958333333331,192
8075,1.0,,,,29.0,,,,,4,note_on,,112.0,29.0,112.0,56832,148.0,192
8076,1.0,,,,29.0,,,,,88,note_on,,0.0,29.0,0.0,56920,148.22916666666666,192
8077,1.0,,,,29.0,,,,,8,note_on,,112.0,29.0,112.0,56928,148.25,192
8078,1.0,,,,29.0,,,,,88,note_on,,0.0,29.0,0.0,57016,148.47916666666666,192
8079,1.0,,,,29.0,,,,,8,note_on,,112.0,29.0,112.0,57024,148.5,192
8080,1.0,,,,29.0,,,,,232,note_on,,0.0,29.0,0.0,57256,149.10416666666666,192
8081,1.0,,,,29.0,,,,,8,note_on,,112.0,29.0,112.0,57264,149.125,192
8082,1.0,,,,29.0,,,,,88,note_on,,0.0,29.0,0.0,57352,149.35416666666666,192
8083,1.0,,,,29.0,,,,,8,note_on,,112.0,29.0,112.0,57360,149.375,192
8084,1.0,,,,29.0,,,,,88,note_on,,0.0,29.0,0.0,57448,149.60416666666666,192
8085,1.0,,,,29.0,,,,,8,note_on,,112.0,29.0,112.0,57456,149.625,192
8086,1.0,,,,29.0,,,,,88,note_on,,0.0,29.0,0.0,57544,149.85416666666666,192
8087,1.0,,,,29.0,,,,,8,note_on,,112.0,29.0,112.0,57552,149.875,192
8088,1.0,,,,29.0,,,,,44,note_on,,0.0,29.0,0.0,57596,149.98958333333331,192
8089,1.0,,,,36.0,,,,,4,note_on,,112.0,36.0,112.0,57600,150.0,192
8090,1.0,,,,36.0,,,,,88,note_on,,0.0,36.0,0.0,57688,150.22916666666666,192
8091,1.0,,,,36.0,,,,,8,note_on,,112.0,36.0,112.0,57696,150.25,192
8092,1.0,,,,36.0,,,,,88,note_on,,0.0,36.0,0.0,57784,150.47916666666666,192
8093,1.0,,,,36.0,,,,,8,note_on,,112.0,36.0,112.0,57792,150.5,192
8094,1.0,,,,36.0,,,,,232,note_on,,0.0,36.0,0.0,58024,151.10416666666666,192
8095,1.0,,,,36.0,,,,,8,note_on,,112.0,36.0,112.0,58032,151.125,192
8096,1.0,,,,36.0,,,,,88,note_on,,0.0,36.0,0.0,58120,151.35416666666666,192
8097,1.0,,,,36.0,,,,,8,note_on,,112.0,36.0,112.0,58128,151.375,192
8098,1.0,,,,36.0,,,,,88,note_on,,0.0,36.0,0.0,58216,151.60416666666666,192
8099,1.0,,,,36.0,,,,,8,note_on,,112.0,36.0,112.0,58224,151.625,192
8100,1.0,,,,36.0,,,,,88,note_on,,0.0,36.0,0.0,58312,151.85416666666666,192
8101,1.0,,,,34.0,,,,,8,note_on,,112.0,34.0,112.0,58320,151.875,192
8102,1.0,,,,34.0,,,,,44,note_on,,0.0,34.0,0.0,58364,151.98958333333331,192
8103,1.0,,,,31.0,,,,,4,note_on,,112.0,31.0,112.0,58368,152.0,192
8104,1.0,,,,31.0,,,,,88,note_on,,0.0,31.0,0.0,58456,152.22916666666666,192
8105,1.0,,,,31.0,,,,,8,note_on,,112.0,31.0,112.0,58464,152.25,192
8106,1.0,,,,31.0,,,,,88,note_on,,0.0,31.0,0.0,58552,152.47916666666666,192
8107,1.0,,,,31.0,,,,,8,note_on,,112.0,31.0,112.0,58560,152.5,192
8108,1.0,,,,31.0,,,,,232,note_on,,0.0,31.0,0.0,58792,153.10416666666666,192
8109,1.0,,,,31.0,,,,,8,note_on,,112.0,31.0,112.0,58800,153.125,192
8110,1.0,,,,31.0,,,,,88,note_on,,0.0,31.0,0.0,58888,153.35416666666666,192
8111,1.0,,,,31.0,,,,,8,note_on,,112.0,31.0,112.0,58896,153.375,192
8112,1.0,,,,31.0,,,,,88,note_on,,0.0,31.0,0.0,58984,153.60416666666666,192
8113,1.0,,,,31.0,,,,,8,note_on,,112.0,31.0,112.0,58992,153.625,192
8114,1.0,,,,31.0,,,,,88,note_on,,0.0,31.0,0.0,59080,153.85416666666666,192
8115,1.0,,,,31.0,,,,,8,note_on,,112.0,31.0,112.0,59088,153.875,192
8116,1.0,,,,31.0,,,,,44,note_on,,0.0,31.0,0.0,59132,153.98958333333331,192
8117,1.0,,,,31.0,,,,,4,note_on,,112.0,31.0,112.0,59136,154.0,192
8118,1.0,,,,31.0,,,,,92,note_on,,0.0,31.0,0.0,59228,154.23958333333331,192
8119,1.0,,,,31.0,,,,,4,note_on,,112.0,31.0,112.0,59232,154.25,192
8120,1.0,,,,31.0,,,,,92,note_on,,0.0,31.0,0.0,59324,154.48958333333331,192
8121,1.0,,,,31.0,,,,,4,note_on,,112.0,31.0,112.0,59328,154.5,192
8122,1.0,,,,31.0,,,,,236,note_on,,0.0,31.0,0.0,59564,155.11458333333331,192
8123,1.0,,,,31.0,,,,,4,note_on,,112.0,31.0,112.0,59568,155.125,192
8124,1.0,,,,31.0,,,,,88,note_on,,0.0,31.0,0.0,59656,155.35416666666666,192
8125,1.0,,,,31.0,,,,,8,note_on,,112.0,31.0,112.0,59664,155.375,192
8126,1.0,,,,31.0,,,,,88,note_on,,0.0,31.0,0.0,59752,155.60416666666666,192
8127,1.0,,,,31.0,,,,,8,note_on,,112.0,31.0,112.0,59760,155.625,192
8128,1.0,,,,31.0,,,,,88,note_on,,0.0,31.0,0.0,59848,155.85416666666666,192
8129,1.0,,,,31.0,,,,,8,note_on,,112.0,31.0,112.0,59856,155.875,192
8130,1.0,,,,31.0,,,,,44,note_on,,0.0,31.0,0.0,59900,155.98958333333331,192
8131,1.0,,,,29.0,,,,,4,note_on,,112.0,29.0,112.0,59904,156.0,192
8132,1.0,,,,29.0,,,,,88,note_on,,0.0,29.0,0.0,59992,156.22916666666666,192
8133,1.0,,,,29.0,,,,,8,note_on,,112.0,29.0,112.0,60000,156.25,192
8134,1.0,,,,29.0,,,,,88,note_on,,0.0,29.0,0.0,60088,156.47916666666666,192
8135,1.0,,,,29.0,,,,,8,note_on,,112.0,29.0,112.0,60096,156.5,192
8136,1.0,,,,29.0,,,,,232,note_on,,0.0,29.0,0.0,60328,157.10416666666666,192
8137,1.0,,,,29.0,,,,,8,note_on,,112.0,29.0,112.0,60336,157.125,192
8138,1.0,,,,29.0,,,,,88,note_on,,0.0,29.0,0.0,60424,157.35416666666666,192
8139,1.0,,,,29.0,,,,,8,note_on,,112.0,29.0,112.0,60432,157.375,192
8140,1.0,,,,29.0,,,,,88,note_on,,0.0,29.0,0.0,60520,157.60416666666666,192
8141,1.0,,,,29.0,,,,,8,note_on,,112.0,29.0,112.0,60528,157.625,192
8142,1.0,,,,29.0,,,,,88,note_on,,0.0,29.0,0.0,60616,157.85416666666666,192
8143,1.0,,,,29.0,,,,,8,note_on,,112.0,29.0,112.0,60624,157.875,192
8144,1.0,,,,29.0,,,,,44,note_on,,0.0,29.0,0.0,60668,157.98958333333331,192
8145,1.0,,,,36.0,,,,,4,note_on,,112.0,36.0,112.0,60672,158.0,192
8146,1.0,,,,36.0,,,,,88,note_on,,0.0,36.0,0.0,60760,158.22916666666666,192
8147,1.0,,,,36.0,,,,,8,note_on,,112.0,36.0,112.0,60768,158.25,192
8148,1.0,,,,36.0,,,,,88,note_on,,0.0,36.0,0.0,60856,158.47916666666666,192
8149,1.0,,,,36.0,,,,,8,note_on,,112.0,36.0,112.0,60864,158.5,192
8150,1.0,,,,36.0,,,,,232,note_on,,0.0,36.0,0.0,61096,159.10416666666666,192
8151,1.0,,,,36.0,,,,,8,note_on,,112.0,36.0,112.0,61104,159.125,192
8152,1.0,,,,36.0,,,,,88,note_on,,0.0,36.0,0.0,61192,159.35416666666666,192
8153,1.0,,,,36.0,,,,,8,note_on,,112.0,36.0,112.0,61200,159.375,192
8154,1.0,,,,36.0,,,,,88,note_on,,0.0,36.0,0.0,61288,159.60416666666666,192
8155,1.0,,,,36.0,,,,,8,note_on,,112.0,36.0,112.0,61296,159.625,192
8156,1.0,,,,36.0,,,,,88,note_on,,0.0,36.0,0.0,61384,159.85416666666666,192
8157,1.0,,,,34.0,,,,,8,note_on,,112.0,34.0,112.0,61392,159.875,192
8158,1.0,,,,34.0,,,,,44,note_on,,0.0,34.0,0.0,61436,159.98958333333331,192
8159,1.0,,,,31.0,,,,,4,note_on,,112.0,31.0,112.0,61440,160.0,192
8160,1.0,,,,31.0,,,,,88,note_on,,0.0,31.0,0.0,61528,160.22916666666666,192
8161,1.0,,,,31.0,,,,,8,note_on,,112.0,31.0,112.0,61536,160.25,192
8162,1.0,,,,31.0,,,,,88,note_on,,0.0,31.0,0.0,61624,160.47916666666666,192
8163,1.0,,,,31.0,,,,,8,note_on,,112.0,31.0,112.0,61632,160.5,192
8164,1.0,,,,31.0,,,,,232,note_on,,0.0,31.0,0.0,61864,161.10416666666666,192
8165,1.0,,,,31.0,,,,,8,note_on,,112.0,31.0,112.0,61872,161.125,192
8166,1.0,,,,31.0,,,,,88,note_on,,0.0,31.0,0.0,61960,161.35416666666666,192
8167,1.0,,,,31.0,,,,,8,note_on,,112.0,31.0,112.0,61968,161.375,192
8168,1.0,,,,31.0,,,,,88,note_on,,0.0,31.0,0.0,62056,161.60416666666666,192
8169,1.0,,,,31.0,,,,,8,note_on,,112.0,31.0,112.0,62064,161.625,192
8170,1.0,,,,31.0,,,,,88,note_on,,0.0,31.0,0.0,62152,161.85416666666666,192
8171,1.0,,,,31.0,,,,,8,note_on,,112.0,31.0,112.0,62160,161.875,192
8172,1.0,,,,31.0,,,,,44,note_on,,0.0,31.0,0.0,62204,161.98958333333331,192
8173,1.0,,,,31.0,,,,,4,note_on,,112.0,31.0,112.0,62208,162.0,192
8174,1.0,,,,31.0,,,,,92,note_on,,0.0,31.0,0.0,62300,162.23958333333331,192
8175,1.0,,,,31.0,,,,,4,note_on,,112.0,31.0,112.0,62304,162.25,192
8176,1.0,,,,31.0,,,,,92,note_on,,0.0,31.0,0.0,62396,162.48958333333331,192
8177,1.0,,,,43.0,,,,,4,note_on,,112.0,43.0,112.0,62400,162.5,192
8178,1.0,,,,43.0,,,,,236,note_on,,0.0,43.0,0.0,62636,163.11458333333331,192
8179,1.0,,,,31.0,,,,,4,note_on,,112.0,31.0,112.0,62640,163.125,192
8180,1.0,,,,31.0,,,,,88,note_on,,0.0,31.0,0.0,62728,163.35416666666666,192
8181,1.0,,,,31.0,,,,,8,note_on,,112.0,31.0,112.0,62736,163.375,192
8182,1.0,,,,31.0,,,,,88,note_on,,0.0,31.0,0.0,62824,163.60416666666666,192
8183,1.0,,,,31.0,,,,,8,note_on,,112.0,31.0,112.0,62832,163.625,192
8184,1.0,,,,31.0,,,,,88,note_on,,0.0,31.0,0.0,62920,163.85416666666666,192
8185,1.0,,,,31.0,,,,,8,note_on,,112.0,31.0,112.0,62928,163.875,192
8186,1.0,,,,31.0,,,,,44,note_on,,0.0,31.0,0.0,62972,163.98958333333331,192
8187,1.0,,,,29.0,,,,,4,note_on,,112.0,29.0,112.0,62976,164.0,192
8188,1.0,,,,29.0,,,,,88,note_on,,0.0,29.0,0.0,63064,164.22916666666666,192
8189,1.0,,,,29.0,,,,,8,note_on,,112.0,29.0,112.0,63072,164.25,192
8190,1.0,,,,29.0,,,,,88,note_on,,0.0,29.0,0.0,63160,164.47916666666666,192
8191,1.0,,,,29.0,,,,,8,note_on,,112.0,29.0,112.0,63168,164.5,192
8192,1.0,,,,29.0,,,,,232,note_on,,0.0,29.0,0.0,63400,165.10416666666666,192
8193,1.0,,,,29.0,,,,,8,note_on,,112.0,29.0,112.0,63408,165.125,192
8194,1.0,,,,29.0,,,,,88,note_on,,0.0,29.0,0.0,63496,165.35416666666666,192
8195,1.0,,,,29.0,,,,,8,note_on,,112.0,29.0,112.0,63504,165.375,192
8196,1.0,,,,29.0,,,,,88,note_on,,0.0,29.0,0.0,63592,165.60416666666666,192
8197,1.0,,,,29.0,,,,,8,note_on,,112.0,29.0,112.0,63600,165.625,192
8198,1.0,,,,29.0,,,,,88,note_on,,0.0,29.0,0.0,63688,165.85416666666666,192
8199,1.0,,,,29.0,,,,,8,note_on,,112.0,29.0,112.0,63696,165.875,192
8200,1.0,,,,29.0,,,,,44,note_on,,0.0,29.0,0.0,63740,165.98958333333331,192
8201,1.0,,,,36.0,,,,,4,note_on,,112.0,36.0,112.0,63744,166.0,192
8202,1.0,,,,36.0,,,,,88,note_on,,0.0,36.0,0.0,63832,166.22916666666666,192
8203,1.0,,,,36.0,,,,,8,note_on,,112.0,36.0,112.0,63840,166.25,192
8204,1.0,,,,36.0,,,,,88,note_on,,0.0,36.0,0.0,63928,166.47916666666666,192
8205,1.0,,,,36.0,,,,,8,note_on,,112.0,36.0,112.0,63936,166.5,192
8206,1.0,,,,36.0,,,,,232,note_on,,0.0,36.0,0.0,64168,167.10416666666666,192
8207,1.0,,,,36.0,,,,,8,note_on,,112.0,36.0,112.0,64176,167.125,192
8208,1.0,,,,36.0,,,,,88,note_on,,0.0,36.0,0.0,64264,167.35416666666666,192
8209,1.0,,,,36.0,,,,,8,note_on,,112.0,36.0,112.0,64272,167.375,192
8210,1.0,,,,36.0,,,,,88,note_on,,0.0,36.0,0.0,64360,167.60416666666666,192
8211,1.0,,,,36.0,,,,,8,note_on,,112.0,36.0,112.0,64368,167.625,192
8212,1.0,,,,36.0,,,,,88,note_on,,0.0,36.0,0.0,64456,167.85416666666666,192
8213,1.0,,,,34.0,,,,,8,note_on,,112.0,34.0,112.0,64464,167.875,192
8214,1.0,,,,34.0,,,,,44,note_on,,0.0,34.0,0.0,64508,167.98958333333331,192
8215,1.0,,,,31.0,,,,,4,note_on,,112.0,31.0,112.0,64512,168.0,192
8216,1.0,,,,31.0,,,,,88,note_on,,0.0,31.0,0.0,64600,168.22916666666666,192
8217,1.0,,,,31.0,,,,,8,note_on,,112.0,31.0,112.0,64608,168.25,192
8218,1.0,,,,31.0,,,,,88,note_on,,0.0,31.0,0.0,64696,168.47916666666666,192
8219,1.0,,,,31.0,,,,,8,note_on,,112.0,31.0,112.0,64704,168.5,192
8220,1.0,,,,31.0,,,,,232,note_on,,0.0,31.0,0.0,64936,169.10416666666666,192
8221,1.0,,,,31.0,,,,,8,note_on,,112.0,31.0,112.0,64944,169.125,192
8222,1.0,,,,31.0,,,,,88,note_on,,0.0,31.0,0.0,65032,169.35416666666666,192
8223,1.0,,,,31.0,,,,,8,note_on,,112.0,31.0,112.0,65040,169.375,192
8224,1.0,,,,31.0,,,,,88,note_on,,0.0,31.0,0.0,65128,169.60416666666666,192
8225,1.0,,,,31.0,,,,,8,note_on,,112.0,31.0,112.0,65136,169.625,192
8226,1.0,,,,31.0,,,,,88,note_on,,0.0,31.0,0.0,65224,169.85416666666666,192
8227,1.0,,,,31.0,,,,,8,note_on,,112.0,31.0,112.0,65232,169.875,192
8228,1.0,,,,31.0,,,,,44,note_on,,0.0,31.0,0.0,65276,169.98958333333331,192
8229,1.0,,,,31.0,,,,,4,note_on,,110.0,31.0,110.0,65280,170.0,192
8230,1.0,,,,31.0,,,,,92,note_on,,0.0,31.0,0.0,65372,170.23958333333331,192
8231,1.0,,,,31.0,,,,,4,note_on,,106.0,31.0,106.0,65376,170.25,192
8232,1.0,,,,31.0,,,,,92,note_on,,0.0,31.0,0.0,65468,170.48958333333331,192
8233,1.0,,,,31.0,,,,,4,note_on,,102.0,31.0,102.0,65472,170.5,192
8234,1.0,,,,31.0,,,,,236,note_on,,0.0,31.0,0.0,65708,171.11458333333331,192
8235,1.0,,,,31.0,,,,,4,note_on,,92.0,31.0,92.0,65712,171.125,192
8236,1.0,,,,31.0,,,,,88,note_on,,0.0,31.0,0.0,65800,171.35416666666666,192
8237,1.0,,,,31.0,,,,,8,note_on,,88.0,31.0,88.0,65808,171.375,192
8238,1.0,,,,31.0,,,,,88,note_on,,0.0,31.0,0.0,65896,171.60416666666666,192
8239,1.0,,,,31.0,,,,,8,note_on,,85.0,31.0,85.0,65904,171.625,192
8240,1.0,,,,31.0,,,,,88,note_on,,0.0,31.0,0.0,65992,171.85416666666666,192
8241,1.0,,,,31.0,,,,,8,note_on,,81.0,31.0,81.0,66000,171.875,192
8242,1.0,,,,31.0,,,,,44,note_on,,0.0,31.0,0.0,66044,171.98958333333331,192
8243,1.0,,,,29.0,,,,,4,note_on,,79.0,29.0,79.0,66048,172.0,192
8244,1.0,,,,29.0,,,,,88,note_on,,0.0,29.0,0.0,66136,172.22916666666666,192
8245,1.0,,,,29.0,,,,,8,note_on,,76.0,29.0,76.0,66144,172.25,192
8246,1.0,,,,29.0,,,,,88,note_on,,0.0,29.0,0.0,66232,172.47916666666666,192
8247,1.0,,,,29.0,,,,,8,note_on,,73.0,29.0,73.0,66240,172.5,192
8248,1.0,,,,29.0,,,,,232,note_on,,0.0,29.0,0.0,66472,173.10416666666666,192
8249,1.0,,,,29.0,,,,,8,note_on,,63.0,29.0,63.0,66480,173.125,192
8250,1.0,,,,29.0,,,,,88,note_on,,0.0,29.0,0.0,66568,173.35416666666666,192
8251,1.0,,,,29.0,,,,,8,note_on,,59.0,29.0,59.0,66576,173.375,192
8252,1.0,,,,29.0,,,,,88,note_on,,0.0,29.0,0.0,66664,173.60416666666666,192
8253,1.0,,,,29.0,,,,,8,note_on,,56.0,29.0,56.0,66672,173.625,192
8254,1.0,,,,29.0,,,,,88,note_on,,0.0,29.0,0.0,66760,173.85416666666666,192
8255,1.0,,,,29.0,,,,,8,note_on,,53.0,29.0,53.0,66768,173.875,192
8256,1.0,,,,29.0,,,,,44,note_on,,0.0,29.0,0.0,66812,173.98958333333331,192
8257,1.0,,,,36.0,,,,,4,note_on,,51.0,36.0,51.0,66816,174.0,192
8258,1.0,,,,36.0,,,,,88,note_on,,0.0,36.0,0.0,66904,174.22916666666666,192
8259,1.0,,,,36.0,,,,,8,note_on,,48.0,36.0,48.0,66912,174.25,192
8260,1.0,,,,36.0,,,,,88,note_on,,0.0,36.0,0.0,67000,174.47916666666666,192
8261,1.0,,,,36.0,,,,,8,note_on,,45.0,36.0,45.0,67008,174.5,192
8262,1.0,,,,36.0,,,,,232,note_on,,0.0,36.0,0.0,67240,175.10416666666666,192
8263,1.0,,,,36.0,,,,,8,note_on,,38.0,36.0,38.0,67248,175.125,192
8264,1.0,,,,36.0,,,,,88,note_on,,0.0,36.0,0.0,67336,175.35416666666666,192
8265,1.0,,,,36.0,,,,,8,note_on,,35.0,36.0,35.0,67344,175.375,192
8266,1.0,,,,36.0,,,,,88,note_on,,0.0,36.0,0.0,67432,175.60416666666666,192
8267,1.0,,,,36.0,,,,,8,note_on,,30.0,36.0,30.0,67440,175.625,192
8268,1.0,,,,36.0,,,,,88,note_on,,0.0,36.0,0.0,67528,175.85416666666666,192
8269,1.0,,,,34.0,,,,,8,note_on,,26.0,34.0,26.0,67536,175.875,192
8270,1.0,,,,34.0,,,,,44,note_on,,0.0,34.0,0.0,67580,175.98958333333331,192
8271,1.0,,,,31.0,,,,,4,note_on,,25.0,31.0,25.0,67584,176.0,192
8272,1.0,,,,31.0,,,,,88,note_on,,0.0,31.0,0.0,67672,176.22916666666666,192
8273,1.0,,,,31.0,,,,,8,note_on,,22.0,31.0,22.0,67680,176.25,192
8274,1.0,,,,31.0,,,,,88,note_on,,0.0,31.0,0.0,67768,176.47916666666666,192
8275,1.0,,,,31.0,,,,,8,note_on,,19.0,31.0,19.0,67776,176.5,192
8276,1.0,,,,31.0,,,,,232,note_on,,0.0,31.0,0.0,68008,177.10416666666666,192
8277,1.0,,,,31.0,,,,,8,note_on,,11.0,31.0,11.0,68016,177.125,192
8278,1.0,,,,31.0,,,,,88,note_on,,0.0,31.0,0.0,68104,177.35416666666666,192
8279,1.0,,,,31.0,,,,,8,note_on,,9.0,31.0,9.0,68112,177.375,192
8280,1.0,,,,31.0,,,,,88,note_on,,0.0,31.0,0.0,68200,177.60416666666666,192
8281,1.0,,,,31.0,,,,,8,note_on,,6.0,31.0,6.0,68208,177.625,192
8282,1.0,,,,31.0,,,,,88,note_on,,0.0,31.0,0.0,68296,177.85416666666666,192
8283,1.0,,,,31.0,,,,,8,note_on,,3.0,31.0,3.0,68304,177.875,192
8284,1.0,,,,31.0,,,,,44,note_on,,0.0,31.0,0.0,68348,177.98958333333331,192
8285,,,,,,,,,,0,end_of_track,,,,,0,0.0,192
8286,7.0,0.0,,,,,,,,0,control_change,0.0,,,,0,0.0,192
8287,7.0,,,,,,53.0,,,0,program_change,,,,,0,0.0,192
8288,,,"(74, 65, 90, 50, 1, 0, 0, 0, 0, 0, 0, 0, 0, 0, 0, 0, 0, 0, 0, 0)",,,,,,,0,sequencer_specific,,,,,0,0.0,192
8289,7.0,91.0,,,,,,,,0,control_change,40.0,,,,0,0.0,192
8290,7.0,7.0,,,,,,,,0,control_change,59.0,,,,0,0.0,192
8291,,,,Voice Oohs,,,,,,0,track_name,,,,,0,0.0,192
8292,7.0,10.0,,,,,,,,0,control_change,127.0,,,,0,0.0,192
8293,7.0,93.0,,,,,,,,0,control_change,0.0,,,,0,0.0,192
8294,2.0,,,,70.0,,,,,3552,note_on,,127.0,70.0,127.0,3552,9.25,192
8295,2.0,,,,70.0,,,,,40,note_on,,0.0,70.0,0.0,3592,9.354166666666666,192
8296,2.0,,,,72.0,,,,,8,note_on,,127.0,72.0,127.0,3600,9.375,192
8297,2.0,,,,72.0,,,,,40,note_on,,0.0,72.0,0.0,3640,9.479166666666666,192
8298,2.0,,,,70.0,,,,,8,note_on,,127.0,70.0,127.0,3648,9.5,192
8299,2.0,,,,70.0,,,,,40,note_on,,0.0,70.0,0.0,3688,9.604166666666666,192
8300,2.0,,,,67.0,,,,,56,note_on,,127.0,67.0,127.0,3744,9.75,192
8301,2.0,,,,67.0,,,,,40,note_on,,0.0,67.0,0.0,3784,9.854166666666666,192
8302,2.0,,,,70.0,,,,,5912,note_on,,127.0,70.0,127.0,9696,25.25,192
8303,2.0,,,,70.0,,,,,40,note_on,,0.0,70.0,0.0,9736,25.354166666666664,192
8304,2.0,,,,72.0,,,,,8,note_on,,127.0,72.0,127.0,9744,25.375,192
8305,2.0,,,,72.0,,,,,40,note_on,,0.0,72.0,0.0,9784,25.479166666666664,192
8306,2.0,,,,70.0,,,,,8,note_on,,127.0,70.0,127.0,9792,25.5,192
8307,2.0,,,,70.0,,,,,40,note_on,,0.0,70.0,0.0,9832,25.604166666666664,192
8308,2.0,,,,67.0,,,,,56,note_on,,127.0,67.0,127.0,9888,25.75,192
8309,2.0,,,,67.0,,,,,40,note_on,,0.0,67.0,0.0,9928,25.854166666666664,192
8310,2.0,,,,70.0,,,,,2840,note_on,,127.0,70.0,127.0,12768,33.25,192
8311,2.0,,,,70.0,,,,,40,note_on,,0.0,70.0,0.0,12808,33.354166666666664,192
8312,2.0,,,,72.0,,,,,8,note_on,,127.0,72.0,127.0,12816,33.375,192
8313,2.0,,,,72.0,,,,,40,note_on,,0.0,72.0,0.0,12856,33.479166666666664,192
8314,2.0,,,,70.0,,,,,8,note_on,,127.0,70.0,127.0,12864,33.5,192
8315,2.0,,,,70.0,,,,,40,note_on,,0.0,70.0,0.0,12904,33.604166666666664,192
8316,2.0,,,,67.0,,,,,56,note_on,,127.0,67.0,127.0,12960,33.75,192
8317,2.0,,,,67.0,,,,,40,note_on,,0.0,67.0,0.0,13000,33.854166666666664,192
8318,7.0,,,,83.0,,,,,6392,note_on,,112.0,83.0,112.0,6392,16.645833333333332,192
8319,7.0,,,,79.0,,,,,32,note_on,,112.0,79.0,112.0,6424,16.729166666666664,192
8320,7.0,,,,83.0,,,,,8,note_on,,0.0,83.0,0.0,6432,16.75,192
8321,7.0,,,,79.0,,,,,80,note_on,,0.0,79.0,0.0,6512,16.958333333333332,192
8322,7.0,,,,83.0,,,,,24,note_on,,112.0,83.0,112.0,6536,17.020833333333332,192
8323,7.0,,,,83.0,,,,,88,note_on,,0.0,83.0,0.0,6624,17.25,192
8324,7.0,,,,79.0,,,,,8,note_on,,112.0,79.0,112.0,6632,17.270833333333332,192
8325,7.0,,,,79.0,,,,,88,note_on,,0.0,79.0,0.0,6720,17.5,192
8326,7.0,,,,83.0,,,,,8,note_on,,112.0,83.0,112.0,6728,17.520833333333332,192
8327,7.0,,,,83.0,,,,,88,note_on,,0.0,83.0,0.0,6816,17.75,192
8328,7.0,,,,79.0,,,,,8,note_on,,112.0,79.0,112.0,6824,17.770833333333332,192
8329,7.0,,,,79.0,,,,,88,note_on,,0.0,79.0,0.0,6912,18.0,192
8330,7.0,,,,83.0,,,,,248,note_on,,112.0,83.0,112.0,7160,18.645833333333332,192
8331,7.0,,,,79.0,,,,,32,note_on,,112.0,79.0,112.0,7192,18.729166666666664,192
8332,7.0,,,,83.0,,,,,8,note_on,,0.0,83.0,0.0,7200,18.75,192
8333,7.0,,,,79.0,,,,,80,note_on,,0.0,79.0,0.0,7280,18.958333333333332,192
8334,7.0,,,,83.0,,,,,24,note_on,,112.0,83.0,112.0,7304,19.020833333333332,192
8335,7.0,,,,83.0,,,,,88,note_on,,0.0,83.0,0.0,7392,19.25,192
8336,7.0,,,,79.0,,,,,8,note_on,,112.0,79.0,112.0,7400,19.270833333333332,192
8337,7.0,,,,79.0,,,,,88,note_on,,0.0,79.0,0.0,7488,19.5,192
8338,7.0,,,,83.0,,,,,8,note_on,,112.0,83.0,112.0,7496,19.520833333333332,192
8339,7.0,,,,83.0,,,,,236,note_on,,0.0,83.0,0.0,7732,20.135416666666664,192
8340,7.0,,,,84.0,,,,,196,note_on,,112.0,84.0,112.0,7928,20.645833333333332,192
8341,7.0,,,,81.0,,,,,32,note_on,,112.0,81.0,112.0,7960,20.729166666666664,192
8342,7.0,,,,84.0,,,,,8,note_on,,0.0,84.0,0.0,7968,20.75,192
8343,7.0,,,,81.0,,,,,80,note_on,,0.0,81.0,0.0,8048,20.958333333333332,192
8344,7.0,,,,84.0,,,,,24,note_on,,112.0,84.0,112.0,8072,21.020833333333332,192
8345,7.0,,,,84.0,,,,,88,note_on,,0.0,84.0,0.0,8160,21.25,192
8346,7.0,,,,81.0,,,,,8,note_on,,112.0,81.0,112.0,8168,21.270833333333332,192
8347,7.0,,,,81.0,,,,,88,note_on,,0.0,81.0,0.0,8256,21.5,192
8348,7.0,,,,84.0,,,,,8,note_on,,112.0,84.0,112.0,8264,21.520833333333332,192
8349,7.0,,,,84.0,,,,,88,note_on,,0.0,84.0,0.0,8352,21.75,192
8350,7.0,,,,81.0,,,,,8,note_on,,112.0,81.0,112.0,8360,21.770833333333332,192
8351,7.0,,,,81.0,,,,,88,note_on,,0.0,81.0,0.0,8448,22.0,192
8352,7.0,,,,83.0,,,,,248,note_on,,112.0,83.0,112.0,8696,22.645833333333332,192
8353,7.0,,,,79.0,,,,,32,note_on,,112.0,79.0,112.0,8728,22.729166666666664,192
8354,7.0,,,,83.0,,,,,8,note_on,,0.0,83.0,0.0,8736,22.75,192
8355,7.0,,,,79.0,,,,,80,note_on,,0.0,79.0,0.0,8816,22.958333333333332,192
8356,7.0,,,,83.0,,,,,24,note_on,,112.0,83.0,112.0,8840,23.020833333333332,192
8357,7.0,,,,83.0,,,,,88,note_on,,0.0,83.0,0.0,8928,23.25,192
8358,7.0,,,,79.0,,,,,8,note_on,,112.0,79.0,112.0,8936,23.270833333333332,192
8359,7.0,,,,79.0,,,,,88,note_on,,0.0,79.0,0.0,9024,23.5,192
8360,7.0,,,,83.0,,,,,8,note_on,,112.0,83.0,112.0,9032,23.520833333333332,192
8361,7.0,,,,83.0,,,,,236,note_on,,0.0,83.0,0.0,9268,24.135416666666664,192
8362,7.0,,,,83.0,,,,,196,note_on,,112.0,83.0,112.0,9464,24.645833333333332,192
8363,7.0,,,,79.0,,,,,32,note_on,,112.0,79.0,112.0,9496,24.729166666666664,192
8364,7.0,,,,83.0,,,,,8,note_on,,0.0,83.0,0.0,9504,24.75,192
8365,7.0,,,,79.0,,,,,80,note_on,,0.0,79.0,0.0,9584,24.958333333333332,192
8366,7.0,,,,83.0,,,,,24,note_on,,112.0,83.0,112.0,9608,25.020833333333332,192
8367,7.0,,,,83.0,,,,,88,note_on,,0.0,83.0,0.0,9696,25.25,192
8368,7.0,,,,79.0,,,,,8,note_on,,112.0,79.0,112.0,9704,25.270833333333332,192
8369,7.0,,,,79.0,,,,,88,note_on,,0.0,79.0,0.0,9792,25.5,192
8370,7.0,,,,83.0,,,,,8,note_on,,112.0,83.0,112.0,9800,25.520833333333332,192
8371,7.0,,,,83.0,,,,,88,note_on,,0.0,83.0,0.0,9888,25.75,192
8372,7.0,,,,79.0,,,,,8,note_on,,112.0,79.0,112.0,9896,25.770833333333332,192
8373,7.0,,,,79.0,,,,,88,note_on,,0.0,79.0,0.0,9984,26.0,192
8374,7.0,,,,83.0,,,,,248,note_on,,112.0,83.0,112.0,10232,26.645833333333332,192
8375,7.0,,,,79.0,,,,,32,note_on,,112.0,79.0,112.0,10264,26.729166666666664,192
8376,7.0,,,,83.0,,,,,8,note_on,,0.0,83.0,0.0,10272,26.75,192
8377,7.0,,,,79.0,,,,,80,note_on,,0.0,79.0,0.0,10352,26.958333333333332,192
8378,7.0,,,,83.0,,,,,24,note_on,,112.0,83.0,112.0,10376,27.020833333333332,192
8379,7.0,,,,83.0,,,,,88,note_on,,0.0,83.0,0.0,10464,27.25,192
8380,7.0,,,,79.0,,,,,8,note_on,,112.0,79.0,112.0,10472,27.270833333333332,192
8381,7.0,,,,79.0,,,,,88,note_on,,0.0,79.0,0.0,10560,27.5,192
8382,7.0,,,,83.0,,,,,8,note_on,,112.0,83.0,112.0,10568,27.520833333333332,192
8383,7.0,,,,83.0,,,,,236,note_on,,0.0,83.0,0.0,10804,28.135416666666664,192
8384,7.0,,,,84.0,,,,,196,note_on,,112.0,84.0,112.0,11000,28.645833333333332,192
8385,7.0,,,,81.0,,,,,32,note_on,,112.0,81.0,112.0,11032,28.729166666666664,192
8386,7.0,,,,84.0,,,,,8,note_on,,0.0,84.0,0.0,11040,28.75,192
8387,7.0,,,,81.0,,,,,80,note_on,,0.0,81.0,0.0,11120,28.958333333333332,192
8388,7.0,,,,84.0,,,,,24,note_on,,112.0,84.0,112.0,11144,29.020833333333332,192
8389,7.0,,,,84.0,,,,,88,note_on,,0.0,84.0,0.0,11232,29.25,192
8390,7.0,,,,81.0,,,,,8,note_on,,112.0,81.0,112.0,11240,29.270833333333332,192
8391,7.0,,,,81.0,,,,,88,note_on,,0.0,81.0,0.0,11328,29.5,192
8392,7.0,,,,84.0,,,,,8,note_on,,112.0,84.0,112.0,11336,29.520833333333332,192
8393,7.0,,,,84.0,,,,,88,note_on,,0.0,84.0,0.0,11424,29.75,192
8394,7.0,,,,81.0,,,,,8,note_on,,112.0,81.0,112.0,11432,29.770833333333332,192
8395,7.0,,,,81.0,,,,,88,note_on,,0.0,81.0,0.0,11520,30.0,192
8396,7.0,,,,83.0,,,,,248,note_on,,112.0,83.0,112.0,11768,30.645833333333332,192
8397,7.0,,,,79.0,,,,,32,note_on,,112.0,79.0,112.0,11800,30.729166666666664,192
8398,7.0,,,,83.0,,,,,8,note_on,,0.0,83.0,0.0,11808,30.75,192
8399,7.0,,,,79.0,,,,,80,note_on,,0.0,79.0,0.0,11888,30.958333333333332,192
8400,7.0,,,,83.0,,,,,24,note_on,,112.0,83.0,112.0,11912,31.020833333333332,192
8401,7.0,,,,83.0,,,,,88,note_on,,0.0,83.0,0.0,12000,31.25,192
8402,7.0,,,,79.0,,,,,8,note_on,,112.0,79.0,112.0,12008,31.270833333333332,192
8403,7.0,,,,79.0,,,,,88,note_on,,0.0,79.0,0.0,12096,31.5,192
8404,7.0,,,,83.0,,,,,8,note_on,,112.0,83.0,112.0,12104,31.520833333333332,192
8405,7.0,,,,83.0,,,,,236,note_on,,0.0,83.0,0.0,12340,32.135416666666664,192
8406,2.0,,,,70.0,,,,,2788,note_on,,127.0,70.0,127.0,15788,41.11458333333333,192
8407,2.0,,,,70.0,,,,,40,note_on,,0.0,70.0,0.0,15828,41.21875,192
8408,2.0,,,,72.0,,,,,8,note_on,,127.0,72.0,127.0,15836,41.23958333333333,192
8409,2.0,,,,72.0,,,,,40,note_on,,0.0,72.0,0.0,15876,41.34375,192
8410,2.0,,,,70.0,,,,,8,note_on,,127.0,70.0,127.0,15884,41.36458333333333,192
8411,2.0,,,,70.0,,,,,40,note_on,,0.0,70.0,0.0,15924,41.46875,192
8412,2.0,,,,67.0,,,,,56,note_on,,127.0,67.0,127.0,15980,41.61458333333333,192
8413,2.0,,,,67.0,,,,,40,note_on,,0.0,67.0,0.0,16020,41.71875,192
8414,2.0,,,,70.0,,,,,2840,note_on,,127.0,70.0,127.0,18860,49.11458333333333,192
8415,2.0,,,,70.0,,,,,40,note_on,,0.0,70.0,0.0,18900,49.21875,192
8416,2.0,,,,72.0,,,,,8,note_on,,127.0,72.0,127.0,18908,49.23958333333333,192
8417,2.0,,,,72.0,,,,,40,note_on,,0.0,72.0,0.0,18948,49.34375,192
8418,2.0,,,,70.0,,,,,8,note_on,,127.0,70.0,127.0,18956,49.36458333333333,192
8419,2.0,,,,70.0,,,,,40,note_on,,0.0,70.0,0.0,18996,49.46875,192
8420,2.0,,,,67.0,,,,,56,note_on,,127.0,67.0,127.0,19052,49.61458333333333,192
8421,2.0,,,,67.0,,,,,40,note_on,,0.0,67.0,0.0,19092,49.71875,192
8422,2.0,,,,70.0,,,,,2840,note_on,,127.0,70.0,127.0,21932,57.11458333333333,192
8423,2.0,,,,70.0,,,,,40,note_on,,0.0,70.0,0.0,21972,57.21875,192
8424,2.0,,,,72.0,,,,,8,note_on,,127.0,72.0,127.0,21980,57.23958333333333,192
8425,2.0,,,,72.0,,,,,40,note_on,,0.0,72.0,0.0,22020,57.34375,192
8426,2.0,,,,70.0,,,,,8,note_on,,127.0,70.0,127.0,22028,57.36458333333333,192
8427,2.0,,,,70.0,,,,,40,note_on,,0.0,70.0,0.0,22068,57.46875,192
8428,2.0,,,,67.0,,,,,56,note_on,,127.0,67.0,127.0,22124,57.61458333333333,192
8429,2.0,,,,67.0,,,,,40,note_on,,0.0,67.0,0.0,22164,57.71875,192
8430,7.0,,,,83.0,,,,,3320,note_on,,112.0,83.0,112.0,15660,40.78125,192
8431,7.0,,,,79.0,,,,,32,note_on,,112.0,79.0,112.0,15692,40.86458333333333,192
8432,7.0,,,,83.0,,,,,8,note_on,,0.0,83.0,0.0,15700,40.885416666666664,192
8433,7.0,,,,79.0,,,,,80,note_on,,0.0,79.0,0.0,15780,41.09375,192
8434,7.0,,,,83.0,,,,,24,note_on,,112.0,83.0,112.0,15804,41.15625,192
8435,7.0,,,,83.0,,,,,88,note_on,,0.0,83.0,0.0,15892,41.385416666666664,192
8436,7.0,,,,79.0,,,,,8,note_on,,112.0,79.0,112.0,15900,41.40625,192
8437,7.0,,,,79.0,,,,,88,note_on,,0.0,79.0,0.0,15988,41.635416666666664,192
8438,7.0,,,,83.0,,,,,8,note_on,,112.0,83.0,112.0,15996,41.65625,192
8439,7.0,,,,83.0,,,,,88,note_on,,0.0,83.0,0.0,16084,41.885416666666664,192
8440,7.0,,,,79.0,,,,,8,note_on,,112.0,79.0,112.0,16092,41.90625,192
8441,7.0,,,,79.0,,,,,88,note_on,,0.0,79.0,0.0,16180,42.135416666666664,192
8442,7.0,,,,83.0,,,,,248,note_on,,112.0,83.0,112.0,16428,42.78125,192
8443,7.0,,,,79.0,,,,,32,note_on,,112.0,79.0,112.0,16460,42.86458333333333,192
8444,7.0,,,,83.0,,,,,8,note_on,,0.0,83.0,0.0,16468,42.885416666666664,192
8445,7.0,,,,79.0,,,,,80,note_on,,0.0,79.0,0.0,16548,43.09375,192
8446,7.0,,,,83.0,,,,,24,note_on,,112.0,83.0,112.0,16572,43.15625,192
8447,7.0,,,,83.0,,,,,88,note_on,,0.0,83.0,0.0,16660,43.385416666666664,192
8448,7.0,,,,79.0,,,,,8,note_on,,112.0,79.0,112.0,16668,43.40625,192
8449,7.0,,,,79.0,,,,,88,note_on,,0.0,79.0,0.0,16756,43.635416666666664,192
8450,7.0,,,,83.0,,,,,8,note_on,,112.0,83.0,112.0,16764,43.65625,192
8451,7.0,,,,83.0,,,,,236,note_on,,0.0,83.0,0.0,17000,44.27083333333333,192
8452,7.0,,,,84.0,,,,,196,note_on,,112.0,84.0,112.0,17196,44.78125,192
8453,7.0,,,,81.0,,,,,32,note_on,,112.0,81.0,112.0,17228,44.86458333333333,192
8454,7.0,,,,84.0,,,,,8,note_on,,0.0,84.0,0.0,17236,44.885416666666664,192
8455,7.0,,,,81.0,,,,,80,note_on,,0.0,81.0,0.0,17316,45.09375,192
8456,7.0,,,,84.0,,,,,24,note_on,,112.0,84.0,112.0,17340,45.15625,192
8457,7.0,,,,84.0,,,,,88,note_on,,0.0,84.0,0.0,17428,45.385416666666664,192
8458,7.0,,,,81.0,,,,,8,note_on,,112.0,81.0,112.0,17436,45.40625,192
8459,7.0,,,,81.0,,,,,88,note_on,,0.0,81.0,0.0,17524,45.635416666666664,192
8460,7.0,,,,84.0,,,,,8,note_on,,112.0,84.0,112.0,17532,45.65625,192
8461,7.0,,,,84.0,,,,,88,note_on,,0.0,84.0,0.0,17620,45.885416666666664,192
8462,7.0,,,,81.0,,,,,8,note_on,,112.0,81.0,112.0,17628,45.90625,192
8463,7.0,,,,81.0,,,,,88,note_on,,0.0,81.0,0.0,17716,46.135416666666664,192
8464,7.0,,,,83.0,,,,,248,note_on,,112.0,83.0,112.0,17964,46.78125,192
8465,7.0,,,,79.0,,,,,32,note_on,,112.0,79.0,112.0,17996,46.86458333333333,192
8466,7.0,,,,83.0,,,,,8,note_on,,0.0,83.0,0.0,18004,46.885416666666664,192
8467,7.0,,,,79.0,,,,,80,note_on,,0.0,79.0,0.0,18084,47.09375,192
8468,7.0,,,,83.0,,,,,24,note_on,,112.0,83.0,112.0,18108,47.15625,192
8469,7.0,,,,83.0,,,,,88,note_on,,0.0,83.0,0.0,18196,47.385416666666664,192
8470,7.0,,,,79.0,,,,,8,note_on,,112.0,79.0,112.0,18204,47.40625,192
8471,7.0,,,,79.0,,,,,88,note_on,,0.0,79.0,0.0,18292,47.635416666666664,192
8472,7.0,,,,83.0,,,,,8,note_on,,112.0,83.0,112.0,18300,47.65625,192
8473,7.0,,,,83.0,,,,,236,note_on,,0.0,83.0,0.0,18536,48.27083333333333,192
8474,7.0,,,,83.0,,,,,196,note_on,,112.0,83.0,112.0,18732,48.78125,192
8475,7.0,,,,79.0,,,,,32,note_on,,112.0,79.0,112.0,18764,48.86458333333333,192
8476,7.0,,,,83.0,,,,,8,note_on,,0.0,83.0,0.0,18772,48.885416666666664,192
8477,7.0,,,,79.0,,,,,80,note_on,,0.0,79.0,0.0,18852,49.09375,192
8478,7.0,,,,83.0,,,,,24,note_on,,112.0,83.0,112.0,18876,49.15625,192
8479,7.0,,,,83.0,,,,,88,note_on,,0.0,83.0,0.0,18964,49.385416666666664,192
8480,7.0,,,,79.0,,,,,8,note_on,,112.0,79.0,112.0,18972,49.40625,192
8481,7.0,,,,79.0,,,,,88,note_on,,0.0,79.0,0.0,19060,49.635416666666664,192
8482,7.0,,,,83.0,,,,,8,note_on,,112.0,83.0,112.0,19068,49.65625,192
8483,7.0,,,,83.0,,,,,88,note_on,,0.0,83.0,0.0,19156,49.885416666666664,192
8484,7.0,,,,79.0,,,,,8,note_on,,112.0,79.0,112.0,19164,49.90625,192
8485,7.0,,,,79.0,,,,,88,note_on,,0.0,79.0,0.0,19252,50.135416666666664,192
8486,7.0,,,,83.0,,,,,248,note_on,,112.0,83.0,112.0,19500,50.78125,192
8487,7.0,,,,79.0,,,,,32,note_on,,112.0,79.0,112.0,19532,50.86458333333333,192
8488,7.0,,,,83.0,,,,,8,note_on,,0.0,83.0,0.0,19540,50.885416666666664,192
8489,7.0,,,,79.0,,,,,80,note_on,,0.0,79.0,0.0,19620,51.09375,192
8490,7.0,,,,83.0,,,,,24,note_on,,112.0,83.0,112.0,19644,51.15625,192
8491,7.0,,,,83.0,,,,,88,note_on,,0.0,83.0,0.0,19732,51.385416666666664,192
8492,7.0,,,,79.0,,,,,8,note_on,,112.0,79.0,112.0,19740,51.40625,192
8493,7.0,,,,79.0,,,,,88,note_on,,0.0,79.0,0.0,19828,51.635416666666664,192
8494,7.0,,,,83.0,,,,,8,note_on,,112.0,83.0,112.0,19836,51.65625,192
8495,7.0,,,,83.0,,,,,236,note_on,,0.0,83.0,0.0,20072,52.27083333333333,192
8496,7.0,,,,84.0,,,,,196,note_on,,112.0,84.0,112.0,20268,52.78125,192
8497,7.0,,,,81.0,,,,,32,note_on,,112.0,81.0,112.0,20300,52.86458333333333,192
8498,7.0,,,,84.0,,,,,8,note_on,,0.0,84.0,0.0,20308,52.885416666666664,192
8499,7.0,,,,81.0,,,,,80,note_on,,0.0,81.0,0.0,20388,53.09375,192
8500,7.0,,,,84.0,,,,,24,note_on,,112.0,84.0,112.0,20412,53.15625,192
8501,7.0,,,,84.0,,,,,88,note_on,,0.0,84.0,0.0,20500,53.385416666666664,192
8502,7.0,,,,81.0,,,,,8,note_on,,112.0,81.0,112.0,20508,53.40625,192
8503,7.0,,,,81.0,,,,,88,note_on,,0.0,81.0,0.0,20596,53.635416666666664,192
8504,7.0,,,,84.0,,,,,8,note_on,,112.0,84.0,112.0,20604,53.65625,192
8505,7.0,,,,84.0,,,,,88,note_on,,0.0,84.0,0.0,20692,53.885416666666664,192
8506,7.0,,,,81.0,,,,,8,note_on,,112.0,81.0,112.0,20700,53.90625,192
8507,7.0,,,,81.0,,,,,88,note_on,,0.0,81.0,0.0,20788,54.135416666666664,192
8508,7.0,,,,83.0,,,,,248,note_on,,112.0,83.0,112.0,21036,54.78125,192
8509,7.0,,,,79.0,,,,,32,note_on,,112.0,79.0,112.0,21068,54.86458333333333,192
8510,7.0,,,,83.0,,,,,8,note_on,,0.0,83.0,0.0,21076,54.885416666666664,192
8511,7.0,,,,79.0,,,,,80,note_on,,0.0,79.0,0.0,21156,55.09375,192
8512,7.0,,,,83.0,,,,,24,note_on,,112.0,83.0,112.0,21180,55.15625,192
8513,7.0,,,,83.0,,,,,88,note_on,,0.0,83.0,0.0,21268,55.385416666666664,192
8514,7.0,,,,79.0,,,,,8,note_on,,112.0,79.0,112.0,21276,55.40625,192
8515,7.0,,,,79.0,,,,,88,note_on,,0.0,79.0,0.0,21364,55.635416666666664,192
8516,7.0,,,,83.0,,,,,8,note_on,,112.0,83.0,112.0,21372,55.65625,192
8517,7.0,,,,83.0,,,,,236,note_on,,0.0,83.0,0.0,21608,56.27083333333333,192
8518,2.0,,,,70.0,,,,,2788,note_on,,127.0,70.0,127.0,24952,64.97916666666666,192
8519,2.0,,,,70.0,,,,,40,note_on,,0.0,70.0,0.0,24992,65.08333333333333,192
8520,2.0,,,,72.0,,,,,8,note_on,,127.0,72.0,127.0,25000,65.10416666666666,192
8521,2.0,,,,72.0,,,,,40,note_on,,0.0,72.0,0.0,25040,65.20833333333333,192
8522,2.0,,,,70.0,,,,,8,note_on,,127.0,70.0,127.0,25048,65.22916666666666,192
8523,2.0,,,,70.0,,,,,40,note_on,,0.0,70.0,0.0,25088,65.33333333333333,192
8524,2.0,,,,67.0,,,,,56,note_on,,127.0,67.0,127.0,25144,65.47916666666666,192
8525,2.0,,,,67.0,,,,,40,note_on,,0.0,67.0,0.0,25184,65.58333333333333,192
8526,7.0,,,,83.0,,,,,3320,note_on,,112.0,83.0,112.0,24928,64.91666666666666,192
8527,7.0,,,,79.0,,,,,32,note_on,,112.0,79.0,112.0,24960,65.0,192
8528,7.0,,,,83.0,,,,,8,note_on,,0.0,83.0,0.0,24968,65.02083333333333,192
8529,7.0,,,,79.0,,,,,80,note_on,,0.0,79.0,0.0,25048,65.22916666666666,192
8530,7.0,,,,83.0,,,,,24,note_on,,112.0,83.0,112.0,25072,65.29166666666666,192
8531,7.0,,,,83.0,,,,,88,note_on,,0.0,83.0,0.0,25160,65.52083333333333,192
8532,7.0,,,,79.0,,,,,8,note_on,,112.0,79.0,112.0,25168,65.54166666666666,192
8533,7.0,,,,79.0,,,,,88,note_on,,0.0,79.0,0.0,25256,65.77083333333333,192
8534,7.0,,,,83.0,,,,,8,note_on,,112.0,83.0,112.0,25264,65.79166666666666,192
8535,7.0,,,,83.0,,,,,88,note_on,,0.0,83.0,0.0,25352,66.02083333333333,192
8536,7.0,,,,79.0,,,,,8,note_on,,112.0,79.0,112.0,25360,66.04166666666666,192
8537,7.0,,,,79.0,,,,,88,note_on,,0.0,79.0,0.0,25448,66.27083333333333,192
8538,7.0,,,,83.0,,,,,248,note_on,,112.0,83.0,112.0,25696,66.91666666666666,192
8539,7.0,,,,79.0,,,,,32,note_on,,112.0,79.0,112.0,25728,67.0,192
8540,7.0,,,,83.0,,,,,8,note_on,,0.0,83.0,0.0,25736,67.02083333333333,192
8541,7.0,,,,79.0,,,,,80,note_on,,0.0,79.0,0.0,25816,67.22916666666666,192
8542,7.0,,,,83.0,,,,,24,note_on,,112.0,83.0,112.0,25840,67.29166666666666,192
8543,7.0,,,,83.0,,,,,88,note_on,,0.0,83.0,0.0,25928,67.52083333333333,192
8544,7.0,,,,79.0,,,,,8,note_on,,112.0,79.0,112.0,25936,67.54166666666666,192
8545,7.0,,,,79.0,,,,,88,note_on,,0.0,79.0,0.0,26024,67.77083333333333,192
8546,7.0,,,,83.0,,,,,8,note_on,,112.0,83.0,112.0,26032,67.79166666666666,192
8547,7.0,,,,83.0,,,,,236,note_on,,0.0,83.0,0.0,26268,68.40625,192
8548,7.0,,,,84.0,,,,,196,note_on,,112.0,84.0,112.0,26464,68.91666666666666,192
8549,7.0,,,,81.0,,,,,32,note_on,,112.0,81.0,112.0,26496,69.0,192
8550,7.0,,,,84.0,,,,,8,note_on,,0.0,84.0,0.0,26504,69.02083333333333,192
8551,7.0,,,,81.0,,,,,80,note_on,,0.0,81.0,0.0,26584,69.22916666666666,192
8552,7.0,,,,84.0,,,,,24,note_on,,112.0,84.0,112.0,26608,69.29166666666666,192
8553,7.0,,,,84.0,,,,,88,note_on,,0.0,84.0,0.0,26696,69.52083333333333,192
8554,7.0,,,,81.0,,,,,8,note_on,,112.0,81.0,112.0,26704,69.54166666666666,192
8555,7.0,,,,81.0,,,,,88,note_on,,0.0,81.0,0.0,26792,69.77083333333333,192
8556,7.0,,,,84.0,,,,,8,note_on,,112.0,84.0,112.0,26800,69.79166666666666,192
8557,7.0,,,,84.0,,,,,88,note_on,,0.0,84.0,0.0,26888,70.02083333333333,192
8558,7.0,,,,81.0,,,,,8,note_on,,112.0,81.0,112.0,26896,70.04166666666666,192
8559,7.0,,,,81.0,,,,,88,note_on,,0.0,81.0,0.0,26984,70.27083333333333,192
8560,7.0,,,,83.0,,,,,248,note_on,,112.0,83.0,112.0,27232,70.91666666666666,192
8561,7.0,,,,79.0,,,,,32,note_on,,112.0,79.0,112.0,27264,71.0,192
8562,7.0,,,,83.0,,,,,8,note_on,,0.0,83.0,0.0,27272,71.02083333333333,192
8563,7.0,,,,79.0,,,,,80,note_on,,0.0,79.0,0.0,27352,71.22916666666666,192
8564,7.0,,,,83.0,,,,,24,note_on,,112.0,83.0,112.0,27376,71.29166666666666,192
8565,7.0,,,,83.0,,,,,88,note_on,,0.0,83.0,0.0,27464,71.52083333333333,192
8566,7.0,,,,79.0,,,,,8,note_on,,112.0,79.0,112.0,27472,71.54166666666666,192
8567,7.0,,,,79.0,,,,,88,note_on,,0.0,79.0,0.0,27560,71.77083333333333,192
8568,7.0,,,,83.0,,,,,8,note_on,,112.0,83.0,112.0,27568,71.79166666666666,192
8569,7.0,,,,83.0,,,,,236,note_on,,0.0,83.0,0.0,27804,72.40625,192
8570,7.0,,,,83.0,,,,,196,note_on,,112.0,83.0,112.0,28000,72.91666666666666,192
8571,7.0,,,,79.0,,,,,32,note_on,,112.0,79.0,112.0,28032,73.0,192
8572,7.0,,,,83.0,,,,,8,note_on,,0.0,83.0,0.0,28040,73.02083333333333,192
8573,7.0,,,,79.0,,,,,80,note_on,,0.0,79.0,0.0,28120,73.22916666666666,192
8574,7.0,,,,83.0,,,,,24,note_on,,112.0,83.0,112.0,28144,73.29166666666666,192
8575,7.0,,,,83.0,,,,,88,note_on,,0.0,83.0,0.0,28232,73.52083333333333,192
8576,7.0,,,,79.0,,,,,8,note_on,,112.0,79.0,112.0,28240,73.54166666666666,192
8577,7.0,,,,79.0,,,,,88,note_on,,0.0,79.0,0.0,28328,73.77083333333333,192
8578,7.0,,,,83.0,,,,,8,note_on,,112.0,83.0,112.0,28336,73.79166666666666,192
8579,7.0,,,,83.0,,,,,88,note_on,,0.0,83.0,0.0,28424,74.02083333333333,192
8580,7.0,,,,79.0,,,,,8,note_on,,112.0,79.0,112.0,28432,74.04166666666666,192
8581,7.0,,,,79.0,,,,,88,note_on,,0.0,79.0,0.0,28520,74.27083333333333,192
8582,7.0,,,,83.0,,,,,248,note_on,,112.0,83.0,112.0,28768,74.91666666666666,192
8583,7.0,,,,79.0,,,,,32,note_on,,112.0,79.0,112.0,28800,75.0,192
8584,7.0,,,,83.0,,,,,8,note_on,,0.0,83.0,0.0,28808,75.02083333333333,192
8585,7.0,,,,79.0,,,,,80,note_on,,0.0,79.0,0.0,28888,75.22916666666666,192
8586,7.0,,,,83.0,,,,,24,note_on,,112.0,83.0,112.0,28912,75.29166666666666,192
8587,7.0,,,,83.0,,,,,88,note_on,,0.0,83.0,0.0,29000,75.52083333333333,192
8588,7.0,,,,79.0,,,,,8,note_on,,112.0,79.0,112.0,29008,75.54166666666666,192
8589,7.0,,,,79.0,,,,,88,note_on,,0.0,79.0,0.0,29096,75.77083333333333,192
8590,7.0,,,,83.0,,,,,8,note_on,,112.0,83.0,112.0,29104,75.79166666666666,192
8591,7.0,,,,83.0,,,,,236,note_on,,0.0,83.0,0.0,29340,76.40625,192
8592,7.0,,,,84.0,,,,,196,note_on,,112.0,84.0,112.0,29536,76.91666666666666,192
8593,7.0,,,,81.0,,,,,32,note_on,,112.0,81.0,112.0,29568,77.0,192
8594,7.0,,,,84.0,,,,,8,note_on,,0.0,84.0,0.0,29576,77.02083333333333,192
8595,7.0,,,,81.0,,,,,80,note_on,,0.0,81.0,0.0,29656,77.22916666666666,192
8596,7.0,,,,84.0,,,,,24,note_on,,112.0,84.0,112.0,29680,77.29166666666666,192
8597,7.0,,,,84.0,,,,,88,note_on,,0.0,84.0,0.0,29768,77.52083333333333,192
8598,7.0,,,,81.0,,,,,8,note_on,,112.0,81.0,112.0,29776,77.54166666666666,192
8599,7.0,,,,81.0,,,,,88,note_on,,0.0,81.0,0.0,29864,77.77083333333333,192
8600,7.0,,,,84.0,,,,,8,note_on,,112.0,84.0,112.0,29872,77.79166666666666,192
8601,7.0,,,,84.0,,,,,88,note_on,,0.0,84.0,0.0,29960,78.02083333333333,192
8602,7.0,,,,81.0,,,,,8,note_on,,112.0,81.0,112.0,29968,78.04166666666666,192
8603,7.0,,,,81.0,,,,,88,note_on,,0.0,81.0,0.0,30056,78.27083333333333,192
8604,7.0,,,,83.0,,,,,248,note_on,,112.0,83.0,112.0,30304,78.91666666666666,192
8605,7.0,,,,79.0,,,,,32,note_on,,112.0,79.0,112.0,30336,79.0,192
8606,7.0,,,,83.0,,,,,8,note_on,,0.0,83.0,0.0,30344,79.02083333333333,192
8607,7.0,,,,79.0,,,,,80,note_on,,0.0,79.0,0.0,30424,79.22916666666666,192
8608,7.0,,,,83.0,,,,,24,note_on,,112.0,83.0,112.0,30448,79.29166666666666,192
8609,7.0,,,,83.0,,,,,88,note_on,,0.0,83.0,0.0,30536,79.52083333333333,192
8610,7.0,,,,79.0,,,,,8,note_on,,112.0,79.0,112.0,30544,79.54166666666666,192
8611,7.0,,,,79.0,,,,,88,note_on,,0.0,79.0,0.0,30632,79.77083333333333,192
8612,7.0,,,,83.0,,,,,8,note_on,,112.0,83.0,112.0,30640,79.79166666666666,192
8613,7.0,,,,83.0,,,,,236,note_on,,0.0,83.0,0.0,30876,80.40625,192
8614,7.0,,,,83.0,,,,,196,note_on,,112.0,83.0,112.0,31072,80.91666666666666,192
8615,7.0,,,,79.0,,,,,32,note_on,,112.0,79.0,112.0,31104,81.0,192
8616,7.0,,,,83.0,,,,,8,note_on,,0.0,83.0,0.0,31112,81.02083333333333,192
8617,7.0,,,,79.0,,,,,80,note_on,,0.0,79.0,0.0,31192,81.22916666666666,192
8618,7.0,,,,83.0,,,,,24,note_on,,112.0,83.0,112.0,31216,81.29166666666666,192
8619,7.0,,,,83.0,,,,,88,note_on,,0.0,83.0,0.0,31304,81.52083333333333,192
8620,7.0,,,,79.0,,,,,8,note_on,,112.0,79.0,112.0,31312,81.54166666666666,192
8621,7.0,,,,79.0,,,,,88,note_on,,0.0,79.0,0.0,31400,81.77083333333333,192
8622,7.0,,,,83.0,,,,,8,note_on,,112.0,83.0,112.0,31408,81.79166666666666,192
8623,7.0,,,,83.0,,,,,88,note_on,,0.0,83.0,0.0,31496,82.02083333333333,192
8624,7.0,,,,79.0,,,,,8,note_on,,112.0,79.0,112.0,31504,82.04166666666666,192
8625,7.0,,,,79.0,,,,,88,note_on,,0.0,79.0,0.0,31592,82.27083333333333,192
8626,7.0,,,,83.0,,,,,248,note_on,,112.0,83.0,112.0,31840,82.91666666666666,192
8627,7.0,,,,79.0,,,,,32,note_on,,112.0,79.0,112.0,31872,83.0,192
8628,7.0,,,,83.0,,,,,8,note_on,,0.0,83.0,0.0,31880,83.02083333333333,192
8629,7.0,,,,79.0,,,,,80,note_on,,0.0,79.0,0.0,31960,83.22916666666666,192
8630,7.0,,,,83.0,,,,,24,note_on,,112.0,83.0,112.0,31984,83.29166666666666,192
8631,7.0,,,,83.0,,,,,88,note_on,,0.0,83.0,0.0,32072,83.52083333333333,192
8632,7.0,,,,79.0,,,,,8,note_on,,112.0,79.0,112.0,32080,83.54166666666666,192
8633,7.0,,,,79.0,,,,,88,note_on,,0.0,79.0,0.0,32168,83.77083333333333,192
8634,7.0,,,,83.0,,,,,8,note_on,,112.0,83.0,112.0,32176,83.79166666666666,192
8635,7.0,,,,83.0,,,,,236,note_on,,0.0,83.0,0.0,32412,84.40625,192
8636,7.0,,,,84.0,,,,,196,note_on,,112.0,84.0,112.0,32608,84.91666666666666,192
8637,7.0,,,,81.0,,,,,32,note_on,,112.0,81.0,112.0,32640,85.0,192
8638,7.0,,,,84.0,,,,,8,note_on,,0.0,84.0,0.0,32648,85.02083333333333,192
8639,7.0,,,,81.0,,,,,80,note_on,,0.0,81.0,0.0,32728,85.22916666666666,192
8640,7.0,,,,84.0,,,,,24,note_on,,112.0,84.0,112.0,32752,85.29166666666666,192
8641,7.0,,,,84.0,,,,,88,note_on,,0.0,84.0,0.0,32840,85.52083333333333,192
8642,7.0,,,,81.0,,,,,8,note_on,,112.0,81.0,112.0,32848,85.54166666666666,192
8643,7.0,,,,81.0,,,,,88,note_on,,0.0,81.0,0.0,32936,85.77083333333333,192
8644,7.0,,,,84.0,,,,,8,note_on,,112.0,84.0,112.0,32944,85.79166666666666,192
8645,7.0,,,,84.0,,,,,88,note_on,,0.0,84.0,0.0,33032,86.02083333333333,192
8646,7.0,,,,81.0,,,,,8,note_on,,112.0,81.0,112.0,33040,86.04166666666666,192
8647,7.0,,,,81.0,,,,,88,note_on,,0.0,81.0,0.0,33128,86.27083333333333,192
8648,7.0,,,,83.0,,,,,248,note_on,,112.0,83.0,112.0,33376,86.91666666666666,192
8649,7.0,,,,79.0,,,,,32,note_on,,112.0,79.0,112.0,33408,87.0,192
8650,7.0,,,,83.0,,,,,8,note_on,,0.0,83.0,0.0,33416,87.02083333333333,192
8651,7.0,,,,79.0,,,,,80,note_on,,0.0,79.0,0.0,33496,87.22916666666666,192
8652,7.0,,,,83.0,,,,,24,note_on,,112.0,83.0,112.0,33520,87.29166666666666,192
8653,7.0,,,,83.0,,,,,88,note_on,,0.0,83.0,0.0,33608,87.52083333333333,192
8654,7.0,,,,79.0,,,,,8,note_on,,112.0,79.0,112.0,33616,87.54166666666666,192
8655,7.0,,,,79.0,,,,,88,note_on,,0.0,79.0,0.0,33704,87.77083333333333,192
8656,7.0,,,,83.0,,,,,8,note_on,,112.0,83.0,112.0,33712,87.79166666666666,192
8657,7.0,,,,83.0,,,,,236,note_on,,0.0,83.0,0.0,33948,88.40625,192
8658,7.0,,,,83.0,,,,,196,note_on,,112.0,83.0,112.0,34144,88.91666666666666,192
8659,7.0,,,,79.0,,,,,32,note_on,,112.0,79.0,112.0,34176,89.0,192
8660,7.0,,,,83.0,,,,,8,note_on,,0.0,83.0,0.0,34184,89.02083333333333,192
8661,7.0,,,,79.0,,,,,80,note_on,,0.0,79.0,0.0,34264,89.22916666666666,192
8662,7.0,,,,83.0,,,,,24,note_on,,112.0,83.0,112.0,34288,89.29166666666666,192
8663,7.0,,,,83.0,,,,,88,note_on,,0.0,83.0,0.0,34376,89.52083333333333,192
8664,7.0,,,,79.0,,,,,8,note_on,,112.0,79.0,112.0,34384,89.54166666666666,192
8665,7.0,,,,79.0,,,,,88,note_on,,0.0,79.0,0.0,34472,89.77083333333333,192
8666,7.0,,,,83.0,,,,,8,note_on,,112.0,83.0,112.0,34480,89.79166666666666,192
8667,7.0,,,,83.0,,,,,88,note_on,,0.0,83.0,0.0,34568,90.02083333333333,192
8668,7.0,,,,79.0,,,,,8,note_on,,112.0,79.0,112.0,34576,90.04166666666666,192
8669,7.0,,,,79.0,,,,,88,note_on,,0.0,79.0,0.0,34664,90.27083333333333,192
8670,7.0,,,,83.0,,,,,248,note_on,,112.0,83.0,112.0,34912,90.91666666666666,192
8671,7.0,,,,79.0,,,,,32,note_on,,112.0,79.0,112.0,34944,91.0,192
8672,7.0,,,,83.0,,,,,8,note_on,,0.0,83.0,0.0,34952,91.02083333333333,192
8673,7.0,,,,79.0,,,,,80,note_on,,0.0,79.0,0.0,35032,91.22916666666666,192
8674,7.0,,,,83.0,,,,,24,note_on,,112.0,83.0,112.0,35056,91.29166666666666,192
8675,7.0,,,,83.0,,,,,88,note_on,,0.0,83.0,0.0,35144,91.52083333333333,192
8676,7.0,,,,79.0,,,,,8,note_on,,112.0,79.0,112.0,35152,91.54166666666666,192
8677,7.0,,,,79.0,,,,,88,note_on,,0.0,79.0,0.0,35240,91.77083333333333,192
8678,7.0,,,,83.0,,,,,8,note_on,,112.0,83.0,112.0,35248,91.79166666666666,192
8679,7.0,,,,83.0,,,,,236,note_on,,0.0,83.0,0.0,35484,92.40625,192
8680,7.0,,,,84.0,,,,,196,note_on,,112.0,84.0,112.0,35680,92.91666666666666,192
8681,7.0,,,,81.0,,,,,32,note_on,,112.0,81.0,112.0,35712,93.0,192
8682,7.0,,,,84.0,,,,,8,note_on,,0.0,84.0,0.0,35720,93.02083333333333,192
8683,7.0,,,,81.0,,,,,80,note_on,,0.0,81.0,0.0,35800,93.22916666666666,192
8684,7.0,,,,84.0,,,,,24,note_on,,112.0,84.0,112.0,35824,93.29166666666666,192
8685,7.0,,,,84.0,,,,,88,note_on,,0.0,84.0,0.0,35912,93.52083333333333,192
8686,7.0,,,,81.0,,,,,8,note_on,,112.0,81.0,112.0,35920,93.54166666666666,192
8687,7.0,,,,81.0,,,,,88,note_on,,0.0,81.0,0.0,36008,93.77083333333333,192
8688,7.0,,,,84.0,,,,,8,note_on,,112.0,84.0,112.0,36016,93.79166666666666,192
8689,7.0,,,,84.0,,,,,88,note_on,,0.0,84.0,0.0,36104,94.02083333333333,192
8690,7.0,,,,81.0,,,,,8,note_on,,112.0,81.0,112.0,36112,94.04166666666666,192
8691,7.0,,,,81.0,,,,,88,note_on,,0.0,81.0,0.0,36200,94.27083333333333,192
8692,7.0,,,,83.0,,,,,248,note_on,,112.0,83.0,112.0,36448,94.91666666666666,192
8693,7.0,,,,79.0,,,,,32,note_on,,112.0,79.0,112.0,36480,95.0,192
8694,7.0,,,,83.0,,,,,8,note_on,,0.0,83.0,0.0,36488,95.02083333333333,192
8695,7.0,,,,79.0,,,,,80,note_on,,0.0,79.0,0.0,36568,95.22916666666666,192
8696,7.0,,,,83.0,,,,,24,note_on,,112.0,83.0,112.0,36592,95.29166666666666,192
8697,7.0,,,,83.0,,,,,88,note_on,,0.0,83.0,0.0,36680,95.52083333333333,192
8698,7.0,,,,79.0,,,,,8,note_on,,112.0,79.0,112.0,36688,95.54166666666666,192
8699,7.0,,,,79.0,,,,,88,note_on,,0.0,79.0,0.0,36776,95.77083333333333,192
8700,7.0,,,,83.0,,,,,8,note_on,,112.0,83.0,112.0,36784,95.79166666666666,192
8701,7.0,,,,83.0,,,,,236,note_on,,0.0,83.0,0.0,37020,96.40625,192
8702,7.0,,,,83.0,,,,,196,note_on,,112.0,83.0,112.0,37216,96.91666666666666,192
8703,7.0,,,,79.0,,,,,32,note_on,,112.0,79.0,112.0,37248,97.0,192
8704,7.0,,,,83.0,,,,,8,note_on,,0.0,83.0,0.0,37256,97.02083333333333,192
8705,7.0,,,,79.0,,,,,80,note_on,,0.0,79.0,0.0,37336,97.22916666666666,192
8706,7.0,,,,83.0,,,,,24,note_on,,112.0,83.0,112.0,37360,97.29166666666666,192
8707,7.0,,,,83.0,,,,,88,note_on,,0.0,83.0,0.0,37448,97.52083333333333,192
8708,7.0,,,,79.0,,,,,8,note_on,,112.0,79.0,112.0,37456,97.54166666666666,192
8709,7.0,,,,79.0,,,,,88,note_on,,0.0,79.0,0.0,37544,97.77083333333333,192
8710,7.0,,,,83.0,,,,,8,note_on,,112.0,83.0,112.0,37552,97.79166666666666,192
8711,7.0,,,,83.0,,,,,88,note_on,,0.0,83.0,0.0,37640,98.02083333333333,192
8712,7.0,,,,79.0,,,,,8,note_on,,112.0,79.0,112.0,37648,98.04166666666666,192
8713,7.0,,,,79.0,,,,,88,note_on,,0.0,79.0,0.0,37736,98.27083333333333,192
8714,7.0,,,,83.0,,,,,248,note_on,,112.0,83.0,112.0,37984,98.91666666666666,192
8715,7.0,,,,79.0,,,,,32,note_on,,112.0,79.0,112.0,38016,99.0,192
8716,7.0,,,,83.0,,,,,8,note_on,,0.0,83.0,0.0,38024,99.02083333333333,192
8717,7.0,,,,79.0,,,,,80,note_on,,0.0,79.0,0.0,38104,99.22916666666666,192
8718,7.0,,,,83.0,,,,,24,note_on,,112.0,83.0,112.0,38128,99.29166666666666,192
8719,7.0,,,,83.0,,,,,88,note_on,,0.0,83.0,0.0,38216,99.52083333333333,192
8720,7.0,,,,79.0,,,,,8,note_on,,112.0,79.0,112.0,38224,99.54166666666666,192
8721,7.0,,,,79.0,,,,,88,note_on,,0.0,79.0,0.0,38312,99.77083333333333,192
8722,7.0,,,,83.0,,,,,8,note_on,,112.0,83.0,112.0,38320,99.79166666666666,192
8723,7.0,,,,83.0,,,,,236,note_on,,0.0,83.0,0.0,38556,100.40625,192
8724,7.0,,,,84.0,,,,,196,note_on,,112.0,84.0,112.0,38752,100.91666666666666,192
8725,7.0,,,,81.0,,,,,32,note_on,,112.0,81.0,112.0,38784,101.0,192
8726,7.0,,,,84.0,,,,,8,note_on,,0.0,84.0,0.0,38792,101.02083333333333,192
8727,7.0,,,,81.0,,,,,80,note_on,,0.0,81.0,0.0,38872,101.22916666666666,192
8728,7.0,,,,84.0,,,,,24,note_on,,112.0,84.0,112.0,38896,101.29166666666666,192
8729,7.0,,,,84.0,,,,,88,note_on,,0.0,84.0,0.0,38984,101.52083333333333,192
8730,7.0,,,,81.0,,,,,8,note_on,,112.0,81.0,112.0,38992,101.54166666666666,192
8731,7.0,,,,81.0,,,,,88,note_on,,0.0,81.0,0.0,39080,101.77083333333333,192
8732,7.0,,,,84.0,,,,,8,note_on,,112.0,84.0,112.0,39088,101.79166666666666,192
8733,7.0,,,,84.0,,,,,88,note_on,,0.0,84.0,0.0,39176,102.02083333333333,192
8734,7.0,,,,81.0,,,,,8,note_on,,112.0,81.0,112.0,39184,102.04166666666666,192
8735,7.0,,,,81.0,,,,,88,note_on,,0.0,81.0,0.0,39272,102.27083333333333,192
8736,7.0,,,,83.0,,,,,248,note_on,,112.0,83.0,112.0,39520,102.91666666666666,192
8737,7.0,,,,79.0,,,,,32,note_on,,112.0,79.0,112.0,39552,103.0,192
8738,7.0,,,,83.0,,,,,8,note_on,,0.0,83.0,0.0,39560,103.02083333333333,192
8739,7.0,,,,79.0,,,,,80,note_on,,0.0,79.0,0.0,39640,103.22916666666666,192
8740,7.0,,,,83.0,,,,,24,note_on,,112.0,83.0,112.0,39664,103.29166666666666,192
8741,7.0,,,,83.0,,,,,88,note_on,,0.0,83.0,0.0,39752,103.52083333333333,192
8742,7.0,,,,79.0,,,,,8,note_on,,112.0,79.0,112.0,39760,103.54166666666666,192
8743,7.0,,,,79.0,,,,,88,note_on,,0.0,79.0,0.0,39848,103.77083333333333,192
8744,7.0,,,,83.0,,,,,8,note_on,,112.0,83.0,112.0,39856,103.79166666666666,192
8745,7.0,,,,83.0,,,,,236,note_on,,0.0,83.0,0.0,40092,104.40625,192
8746,7.0,,,,83.0,,,,,196,note_on,,110.0,83.0,110.0,40288,104.91666666666666,192
8747,7.0,,,,79.0,,,,,32,note_on,,104.0,79.0,104.0,40320,105.0,192
8748,7.0,,,,83.0,,,,,8,note_on,,0.0,83.0,0.0,40328,105.02083333333333,192
8749,7.0,,,,79.0,,,,,80,note_on,,0.0,79.0,0.0,40408,105.22916666666666,192
8750,7.0,,,,83.0,,,,,24,note_on,,100.0,83.0,100.0,40432,105.29166666666666,192
8751,7.0,,,,83.0,,,,,88,note_on,,0.0,83.0,0.0,40520,105.52083333333333,192
8752,7.0,,,,79.0,,,,,8,note_on,,96.0,79.0,96.0,40528,105.54166666666666,192
8753,7.0,,,,79.0,,,,,88,note_on,,0.0,79.0,0.0,40616,105.77083333333333,192
8754,7.0,,,,83.0,,,,,8,note_on,,92.0,83.0,92.0,40624,105.79166666666666,192
8755,7.0,,,,83.0,,,,,88,note_on,,0.0,83.0,0.0,40712,106.02083333333333,192
8756,7.0,,,,79.0,,,,,8,note_on,,85.0,79.0,85.0,40720,106.04166666666666,192
8757,7.0,,,,79.0,,,,,88,note_on,,0.0,79.0,0.0,40808,106.27083333333333,192
8758,7.0,,,,83.0,,,,,248,note_on,,74.0,83.0,74.0,41056,106.91666666666666,192
8759,7.0,,,,79.0,,,,,32,note_on,,73.0,79.0,73.0,41088,107.0,192
8760,7.0,,,,83.0,,,,,8,note_on,,0.0,83.0,0.0,41096,107.02083333333333,192
8761,7.0,,,,79.0,,,,,80,note_on,,0.0,79.0,0.0,41176,107.22916666666666,192
8762,7.0,,,,83.0,,,,,24,note_on,,72.0,83.0,72.0,41200,107.29166666666666,192
8763,7.0,,,,83.0,,,,,88,note_on,,0.0,83.0,0.0,41288,107.52083333333333,192
8764,7.0,,,,79.0,,,,,8,note_on,,69.0,79.0,69.0,41296,107.54166666666666,192
8765,7.0,,,,79.0,,,,,88,note_on,,0.0,79.0,0.0,41384,107.77083333333333,192
8766,7.0,,,,83.0,,,,,8,note_on,,67.0,83.0,67.0,41392,107.79166666666666,192
8767,7.0,,,,83.0,,,,,236,note_on,,0.0,83.0,0.0,41628,108.40625,192
8768,7.0,,,,84.0,,,,,196,note_on,,52.0,84.0,52.0,41824,108.91666666666666,192
8769,7.0,,,,81.0,,,,,32,note_on,,52.0,81.0,52.0,41856,109.0,192
8770,7.0,,,,84.0,,,,,8,note_on,,0.0,84.0,0.0,41864,109.02083333333333,192
8771,7.0,,,,81.0,,,,,80,note_on,,0.0,81.0,0.0,41944,109.22916666666666,192
8772,7.0,,,,84.0,,,,,24,note_on,,46.0,84.0,46.0,41968,109.29166666666666,192
8773,7.0,,,,84.0,,,,,88,note_on,,0.0,84.0,0.0,42056,109.52083333333333,192
8774,7.0,,,,81.0,,,,,8,note_on,,42.0,81.0,42.0,42064,109.54166666666666,192
8775,7.0,,,,81.0,,,,,88,note_on,,0.0,81.0,0.0,42152,109.77083333333333,192
8776,7.0,,,,84.0,,,,,8,note_on,,36.0,84.0,36.0,42160,109.79166666666666,192
8777,7.0,,,,84.0,,,,,88,note_on,,0.0,84.0,0.0,42248,110.02083333333333,192
8778,7.0,,,,81.0,,,,,8,note_on,,32.0,81.0,32.0,42256,110.04166666666666,192
8779,7.0,,,,81.0,,,,,88,note_on,,0.0,81.0,0.0,42344,110.27083333333333,192
8780,7.0,,,,83.0,,,,,248,note_on,,17.0,83.0,17.0,42592,110.91666666666666,192
8781,7.0,,,,79.0,,,,,32,note_on,,15.0,79.0,15.0,42624,111.0,192
8782,7.0,,,,83.0,,,,,8,note_on,,0.0,83.0,0.0,42632,111.02083333333333,192
8783,7.0,,,,79.0,,,,,80,note_on,,0.0,79.0,0.0,42712,111.22916666666666,192
8784,7.0,,,,83.0,,,,,24,note_on,,10.0,83.0,10.0,42736,111.29166666666666,192
8785,7.0,,,,83.0,,,,,88,note_on,,0.0,83.0,0.0,42824,111.52083333333333,192
8786,7.0,,,,79.0,,,,,8,note_on,,7.0,79.0,7.0,42832,111.54166666666666,192
8787,7.0,,,,79.0,,,,,88,note_on,,0.0,79.0,0.0,42920,111.77083333333333,192
8788,7.0,,,,83.0,,,,,8,note_on,,3.0,83.0,3.0,42928,111.79166666666666,192
8789,7.0,,,,83.0,,,,,236,note_on,,0.0,83.0,0.0,43164,112.40625,192
8790,,,,,,,,,,0,end_of_track,,,,,0,0.0,192
8791,2.0,0.0,,,,,,,,0,control_change,0.0,,,,25184,65.58333333333333,192
8792,2.0,,,,,,53.0,,,0,program_change,,,,,25184,65.58333333333333,192
8793,,,"(74, 65, 90, 50, 1, 0, 0, 0, 0, 0, 0, 0, 0, 0, 0, 0, 0, 0, 0, 0)",,,,,,,0,sequencer_specific,,,,,0,0.0,192
8794,2.0,10.0,,,,,,,,0,control_change,64.0,,,,25184,65.58333333333333,192
8795,2.0,91.0,,,,,,,,0,control_change,40.0,,,,25184,65.58333333333333,192
8796,2.0,93.0,,,,,,,,0,control_change,0.0,,,,25184,65.58333333333333,192
8797,2.0,7.0,,,,,,,,0,control_change,104.0,,,,25184,65.58333333333333,192
8798,,,,Voice Oohs,,,,,,0,track_name,,,,,0,0.0,192
8799,2.0,,,,58.0,,,,,3552,note_on,,127.0,58.0,127.0,28736,74.83333333333333,192
8800,2.0,,,,58.0,,,,,40,note_on,,0.0,58.0,0.0,28776,74.9375,192
8801,2.0,,,,60.0,,,,,8,note_on,,127.0,60.0,127.0,28784,74.95833333333333,192
8802,2.0,,,,60.0,,,,,40,note_on,,0.0,60.0,0.0,28824,75.0625,192
8803,2.0,,,,58.0,,,,,8,note_on,,127.0,58.0,127.0,28832,75.08333333333333,192
8804,2.0,,,,58.0,,,,,40,note_on,,0.0,58.0,0.0,28872,75.1875,192
8805,2.0,,,,55.0,,,,,56,note_on,,127.0,55.0,127.0,28928,75.33333333333333,192
8806,2.0,,,,55.0,,,,,40,note_on,,0.0,55.0,0.0,28968,75.4375,192
8807,2.0,,,,58.0,,,,,5912,note_on,,127.0,58.0,127.0,34880,90.83333333333333,192
8808,2.0,,,,58.0,,,,,40,note_on,,0.0,58.0,0.0,34920,90.9375,192
8809,2.0,,,,60.0,,,,,8,note_on,,127.0,60.0,127.0,34928,90.95833333333333,192
8810,2.0,,,,60.0,,,,,40,note_on,,0.0,60.0,0.0,34968,91.0625,192
8811,2.0,,,,58.0,,,,,8,note_on,,127.0,58.0,127.0,34976,91.08333333333333,192
8812,2.0,,,,58.0,,,,,40,note_on,,0.0,58.0,0.0,35016,91.1875,192
8813,2.0,,,,55.0,,,,,56,note_on,,127.0,55.0,127.0,35072,91.33333333333333,192
8814,2.0,,,,55.0,,,,,40,note_on,,0.0,55.0,0.0,35112,91.4375,192
8815,2.0,,,,58.0,,,,,2840,note_on,,127.0,58.0,127.0,37952,98.83333333333333,192
8816,2.0,,,,58.0,,,,,40,note_on,,0.0,58.0,0.0,37992,98.9375,192
8817,2.0,,,,60.0,,,,,8,note_on,,127.0,60.0,127.0,38000,98.95833333333333,192
8818,2.0,,,,60.0,,,,,40,note_on,,0.0,60.0,0.0,38040,99.0625,192
8819,2.0,,,,58.0,,,,,8,note_on,,127.0,58.0,127.0,38048,99.08333333333333,192
8820,2.0,,,,58.0,,,,,40,note_on,,0.0,58.0,0.0,38088,99.1875,192
8821,2.0,,,,55.0,,,,,56,note_on,,127.0,55.0,127.0,38144,99.33333333333333,192
8822,2.0,,,,55.0,,,,,40,note_on,,0.0,55.0,0.0,38184,99.4375,192
8823,2.0,,,,67.0,,,,,56,note_on,,127.0,67.0,127.0,38240,99.58333333333333,192
8824,2.0,,,,67.0,,,,,135,note_on,,0.0,67.0,0.0,38375,99.93489583333333,192
8825,2.0,,,,65.0,,,,,25,note_on,,127.0,65.0,127.0,38400,100.0,192
8826,2.0,,,,65.0,,,,,46,note_on,,0.0,65.0,0.0,38446,100.11979166666666,192
8827,2.0,,,,62.0,,,,,18,note_on,,127.0,62.0,127.0,38464,100.16666666666666,192
8828,2.0,,,,67.0,,,,,64,note_on,,127.0,67.0,127.0,38528,100.33333333333333,192
8829,2.0,,,,62.0,,,,,8,note_on,,0.0,62.0,0.0,38536,100.35416666666666,192
8830,2.0,,,,67.0,,,,,32,note_on,,0.0,67.0,0.0,38568,100.4375,192
8831,2.0,,,,67.0,,,,,440,note_on,,127.0,67.0,127.0,39008,101.58333333333333,192
8832,2.0,,,,67.0,,,,,135,note_on,,0.0,67.0,0.0,39143,101.93489583333333,192
8833,2.0,,,,65.0,,,,,25,note_on,,127.0,65.0,127.0,39168,102.0,192
8834,2.0,,,,65.0,,,,,46,note_on,,0.0,65.0,0.0,39214,102.11979166666666,192
8835,2.0,,,,62.0,,,,,18,note_on,,127.0,62.0,127.0,39232,102.16666666666666,192
8836,2.0,,,,67.0,,,,,64,note_on,,127.0,67.0,127.0,39296,102.33333333333333,192
8837,2.0,,,,62.0,,,,,8,note_on,,0.0,62.0,0.0,39304,102.35416666666666,192
8838,2.0,,,,67.0,,,,,32,note_on,,0.0,67.0,0.0,39336,102.4375,192
8839,2.0,,,,67.0,,,,,440,note_on,,127.0,67.0,127.0,39776,103.58333333333333,192
8840,2.0,,,,67.0,,,,,135,note_on,,0.0,67.0,0.0,39911,103.93489583333333,192
8841,2.0,,,,65.0,,,,,25,note_on,,127.0,65.0,127.0,39936,104.0,192
8842,2.0,,,,65.0,,,,,46,note_on,,0.0,65.0,0.0,39982,104.11979166666666,192
8843,2.0,,,,62.0,,,,,18,note_on,,127.0,62.0,127.0,40000,104.16666666666666,192
8844,2.0,,,,67.0,,,,,64,note_on,,127.0,67.0,127.0,40064,104.33333333333333,192
8845,2.0,,,,62.0,,,,,8,note_on,,0.0,62.0,0.0,40072,104.35416666666666,192
8846,2.0,,,,67.0,,,,,32,note_on,,0.0,67.0,0.0,40104,104.4375,192
8847,2.0,,,,67.0,,,,,440,note_on,,127.0,67.0,127.0,40544,105.58333333333333,192
8848,2.0,,,,67.0,,,,,135,note_on,,0.0,67.0,0.0,40679,105.93489583333333,192
8849,2.0,,,,65.0,,,,,25,note_on,,127.0,65.0,127.0,40704,106.0,192
8850,2.0,,,,65.0,,,,,46,note_on,,0.0,65.0,0.0,40750,106.11979166666666,192
8851,2.0,,,,62.0,,,,,18,note_on,,127.0,62.0,127.0,40768,106.16666666666666,192
8852,2.0,,,,67.0,,,,,64,note_on,,127.0,67.0,127.0,40832,106.33333333333333,192
8853,2.0,,,,62.0,,,,,8,note_on,,0.0,62.0,0.0,40840,106.35416666666666,192
8854,2.0,,,,67.0,,,,,32,note_on,,0.0,67.0,0.0,40872,106.4375,192
8855,2.0,,,,67.0,,,,,440,note_on,,127.0,67.0,127.0,41312,107.58333333333333,192
8856,2.0,,,,67.0,,,,,135,note_on,,0.0,67.0,0.0,41447,107.93489583333333,192
8857,2.0,,,,65.0,,,,,25,note_on,,127.0,65.0,127.0,41472,108.0,192
8858,2.0,,,,65.0,,,,,46,note_on,,0.0,65.0,0.0,41518,108.11979166666666,192
8859,2.0,,,,62.0,,,,,18,note_on,,127.0,62.0,127.0,41536,108.16666666666666,192
8860,2.0,,,,67.0,,,,,64,note_on,,127.0,67.0,127.0,41600,108.33333333333333,192
8861,2.0,,,,62.0,,,,,8,note_on,,0.0,62.0,0.0,41608,108.35416666666666,192
8862,2.0,,,,67.0,,,,,32,note_on,,0.0,67.0,0.0,41640,108.4375,192
8863,2.0,,,,67.0,,,,,440,note_on,,127.0,67.0,127.0,42080,109.58333333333333,192
8864,2.0,,,,67.0,,,,,135,note_on,,0.0,67.0,0.0,42215,109.93489583333333,192
8865,2.0,,,,65.0,,,,,25,note_on,,127.0,65.0,127.0,42240,110.0,192
8866,2.0,,,,65.0,,,,,46,note_on,,0.0,65.0,0.0,42286,110.11979166666666,192
8867,2.0,,,,62.0,,,,,18,note_on,,127.0,62.0,127.0,42304,110.16666666666666,192
8868,2.0,,,,67.0,,,,,64,note_on,,127.0,67.0,127.0,42368,110.33333333333333,192
8869,2.0,,,,62.0,,,,,8,note_on,,0.0,62.0,0.0,42376,110.35416666666666,192
8870,2.0,,,,67.0,,,,,32,note_on,,0.0,67.0,0.0,42408,110.4375,192
8871,2.0,,,,67.0,,,,,440,note_on,,127.0,67.0,127.0,42848,111.58333333333333,192
8872,2.0,,,,67.0,,,,,135,note_on,,0.0,67.0,0.0,42983,111.93489583333333,192
8873,2.0,,,,65.0,,,,,25,note_on,,127.0,65.0,127.0,43008,112.0,192
8874,2.0,,,,65.0,,,,,46,note_on,,0.0,65.0,0.0,43054,112.11979166666666,192
8875,2.0,,,,62.0,,,,,18,note_on,,127.0,62.0,127.0,43072,112.16666666666666,192
8876,2.0,,,,67.0,,,,,64,note_on,,127.0,67.0,127.0,43136,112.33333333333333,192
8877,2.0,,,,62.0,,,,,8,note_on,,0.0,62.0,0.0,43144,112.35416666666666,192
8878,2.0,,,,67.0,,,,,32,note_on,,0.0,67.0,0.0,43176,112.4375,192
8879,2.0,,,,67.0,,,,,440,note_on,,127.0,67.0,127.0,43616,113.58333333333333,192
8880,2.0,,,,67.0,,,,,135,note_on,,0.0,67.0,0.0,43751,113.93489583333333,192
8881,2.0,,,,65.0,,,,,25,note_on,,127.0,65.0,127.0,43776,114.0,192
8882,2.0,,,,65.0,,,,,46,note_on,,0.0,65.0,0.0,43822,114.11979166666666,192
8883,2.0,,,,62.0,,,,,18,note_on,,127.0,62.0,127.0,43840,114.16666666666666,192
8884,2.0,,,,67.0,,,,,64,note_on,,127.0,67.0,127.0,43904,114.33333333333333,192
8885,2.0,,,,62.0,,,,,8,note_on,,0.0,62.0,0.0,43912,114.35416666666666,192
8886,2.0,,,,67.0,,,,,32,note_on,,0.0,67.0,0.0,43944,114.4375,192
8887,2.0,,,,71.0,,,,,632,note_on,,112.0,71.0,112.0,44576,116.08333333333333,192
8888,2.0,,,,67.0,,,,,32,note_on,,112.0,67.0,112.0,44608,116.16666666666666,192
8889,2.0,,,,71.0,,,,,8,note_on,,0.0,71.0,0.0,44616,116.1875,192
8890,2.0,,,,67.0,,,,,80,note_on,,0.0,67.0,0.0,44696,116.39583333333333,192
8891,2.0,,,,71.0,,,,,24,note_on,,112.0,71.0,112.0,44720,116.45833333333333,192
8892,2.0,,,,71.0,,,,,88,note_on,,0.0,71.0,0.0,44808,116.6875,192
8893,2.0,,,,67.0,,,,,8,note_on,,112.0,67.0,112.0,44816,116.70833333333333,192
8894,2.0,,,,67.0,,,,,88,note_on,,0.0,67.0,0.0,44904,116.9375,192
8895,2.0,,,,71.0,,,,,8,note_on,,112.0,71.0,112.0,44912,116.95833333333333,192
8896,2.0,,,,71.0,,,,,88,note_on,,0.0,71.0,0.0,45000,117.1875,192
8897,2.0,,,,67.0,,,,,8,note_on,,112.0,67.0,112.0,45008,117.20833333333333,192
8898,2.0,,,,67.0,,,,,88,note_on,,0.0,67.0,0.0,45096,117.4375,192
8899,2.0,,,,71.0,,,,,248,note_on,,112.0,71.0,112.0,45344,118.08333333333333,192
8900,2.0,,,,67.0,,,,,32,note_on,,112.0,67.0,112.0,45376,118.16666666666666,192
8901,2.0,,,,71.0,,,,,8,note_on,,0.0,71.0,0.0,45384,118.1875,192
8902,2.0,,,,67.0,,,,,80,note_on,,0.0,67.0,0.0,45464,118.39583333333333,192
8903,2.0,,,,71.0,,,,,24,note_on,,112.0,71.0,112.0,45488,118.45833333333333,192
8904,2.0,,,,71.0,,,,,88,note_on,,0.0,71.0,0.0,45576,118.6875,192
8905,2.0,,,,67.0,,,,,8,note_on,,112.0,67.0,112.0,45584,118.70833333333333,192
8906,2.0,,,,67.0,,,,,88,note_on,,0.0,67.0,0.0,45672,118.9375,192
8907,2.0,,,,71.0,,,,,8,note_on,,112.0,71.0,112.0,45680,118.95833333333333,192
8908,2.0,,,,71.0,,,,,236,note_on,,0.0,71.0,0.0,45916,119.57291666666666,192
8909,2.0,,,,72.0,,,,,196,note_on,,112.0,72.0,112.0,46112,120.08333333333333,192
8910,2.0,,,,69.0,,,,,32,note_on,,112.0,69.0,112.0,46144,120.16666666666666,192
8911,2.0,,,,72.0,,,,,8,note_on,,0.0,72.0,0.0,46152,120.1875,192
8912,2.0,,,,69.0,,,,,80,note_on,,0.0,69.0,0.0,46232,120.39583333333333,192
8913,2.0,,,,72.0,,,,,24,note_on,,112.0,72.0,112.0,46256,120.45833333333333,192
8914,2.0,,,,72.0,,,,,88,note_on,,0.0,72.0,0.0,46344,120.6875,192
8915,2.0,,,,69.0,,,,,8,note_on,,112.0,69.0,112.0,46352,120.70833333333333,192
8916,2.0,,,,69.0,,,,,88,note_on,,0.0,69.0,0.0,46440,120.9375,192
8917,2.0,,,,72.0,,,,,8,note_on,,112.0,72.0,112.0,46448,120.95833333333333,192
8918,2.0,,,,72.0,,,,,88,note_on,,0.0,72.0,0.0,46536,121.1875,192
8919,2.0,,,,69.0,,,,,8,note_on,,112.0,69.0,112.0,46544,121.20833333333333,192
8920,2.0,,,,69.0,,,,,88,note_on,,0.0,69.0,0.0,46632,121.4375,192
8921,2.0,,,,71.0,,,,,248,note_on,,112.0,71.0,112.0,46880,122.08333333333333,192
8922,2.0,,,,67.0,,,,,32,note_on,,112.0,67.0,112.0,46912,122.16666666666666,192
8923,2.0,,,,71.0,,,,,8,note_on,,0.0,71.0,0.0,46920,122.1875,192
8924,2.0,,,,67.0,,,,,80,note_on,,0.0,67.0,0.0,47000,122.39583333333333,192
8925,2.0,,,,71.0,,,,,24,note_on,,112.0,71.0,112.0,47024,122.45833333333333,192
8926,2.0,,,,71.0,,,,,88,note_on,,0.0,71.0,0.0,47112,122.6875,192
8927,2.0,,,,67.0,,,,,8,note_on,,112.0,67.0,112.0,47120,122.70833333333333,192
8928,2.0,,,,67.0,,,,,88,note_on,,0.0,67.0,0.0,47208,122.9375,192
8929,2.0,,,,71.0,,,,,8,note_on,,112.0,71.0,112.0,47216,122.95833333333333,192
8930,2.0,,,,71.0,,,,,236,note_on,,0.0,71.0,0.0,47452,123.57291666666666,192
8931,2.0,,,,71.0,,,,,196,note_on,,112.0,71.0,112.0,47648,124.08333333333333,192
8932,2.0,,,,67.0,,,,,32,note_on,,112.0,67.0,112.0,47680,124.16666666666666,192
8933,2.0,,,,71.0,,,,,8,note_on,,0.0,71.0,0.0,47688,124.1875,192
8934,2.0,,,,67.0,,,,,80,note_on,,0.0,67.0,0.0,47768,124.39583333333333,192
8935,2.0,,,,71.0,,,,,24,note_on,,112.0,71.0,112.0,47792,124.45833333333333,192
8936,2.0,,,,71.0,,,,,88,note_on,,0.0,71.0,0.0,47880,124.6875,192
8937,2.0,,,,67.0,,,,,8,note_on,,112.0,67.0,112.0,47888,124.70833333333333,192
8938,2.0,,,,67.0,,,,,88,note_on,,0.0,67.0,0.0,47976,124.9375,192
8939,2.0,,,,71.0,,,,,8,note_on,,112.0,71.0,112.0,47984,124.95833333333333,192
8940,2.0,,,,71.0,,,,,88,note_on,,0.0,71.0,0.0,48072,125.1875,192
8941,2.0,,,,67.0,,,,,8,note_on,,112.0,67.0,112.0,48080,125.20833333333333,192
8942,2.0,,,,67.0,,,,,88,note_on,,0.0,67.0,0.0,48168,125.4375,192
8943,2.0,,,,71.0,,,,,248,note_on,,112.0,71.0,112.0,48416,126.08333333333333,192
8944,2.0,,,,67.0,,,,,32,note_on,,112.0,67.0,112.0,48448,126.16666666666666,192
8945,2.0,,,,71.0,,,,,8,note_on,,0.0,71.0,0.0,48456,126.1875,192
8946,2.0,,,,67.0,,,,,80,note_on,,0.0,67.0,0.0,48536,126.39583333333333,192
8947,2.0,,,,71.0,,,,,24,note_on,,112.0,71.0,112.0,48560,126.45833333333333,192
8948,2.0,,,,71.0,,,,,88,note_on,,0.0,71.0,0.0,48648,126.6875,192
8949,2.0,,,,67.0,,,,,8,note_on,,112.0,67.0,112.0,48656,126.70833333333333,192
8950,2.0,,,,67.0,,,,,88,note_on,,0.0,67.0,0.0,48744,126.9375,192
8951,2.0,,,,71.0,,,,,8,note_on,,112.0,71.0,112.0,48752,126.95833333333333,192
8952,2.0,,,,71.0,,,,,236,note_on,,0.0,71.0,0.0,48988,127.57291666666666,192
8953,2.0,,,,72.0,,,,,196,note_on,,112.0,72.0,112.0,49184,128.08333333333331,192
8954,2.0,,,,69.0,,,,,32,note_on,,112.0,69.0,112.0,49216,128.16666666666666,192
8955,2.0,,,,72.0,,,,,8,note_on,,0.0,72.0,0.0,49224,128.1875,192
8956,2.0,,,,69.0,,,,,80,note_on,,0.0,69.0,0.0,49304,128.39583333333331,192
8957,2.0,,,,72.0,,,,,24,note_on,,112.0,72.0,112.0,49328,128.45833333333331,192
8958,2.0,,,,72.0,,,,,88,note_on,,0.0,72.0,0.0,49416,128.6875,192
8959,2.0,,,,69.0,,,,,8,note_on,,112.0,69.0,112.0,49424,128.70833333333331,192
8960,2.0,,,,69.0,,,,,88,note_on,,0.0,69.0,0.0,49512,128.9375,192
8961,2.0,,,,72.0,,,,,8,note_on,,112.0,72.0,112.0,49520,128.95833333333331,192
8962,2.0,,,,72.0,,,,,88,note_on,,0.0,72.0,0.0,49608,129.1875,192
8963,2.0,,,,69.0,,,,,8,note_on,,112.0,69.0,112.0,49616,129.20833333333331,192
8964,2.0,,,,69.0,,,,,88,note_on,,0.0,69.0,0.0,49704,129.4375,192
8965,2.0,,,,71.0,,,,,248,note_on,,112.0,71.0,112.0,49952,130.08333333333331,192
8966,2.0,,,,67.0,,,,,32,note_on,,112.0,67.0,112.0,49984,130.16666666666666,192
8967,2.0,,,,71.0,,,,,8,note_on,,0.0,71.0,0.0,49992,130.1875,192
8968,2.0,,,,67.0,,,,,80,note_on,,0.0,67.0,0.0,50072,130.39583333333331,192
8969,2.0,,,,71.0,,,,,24,note_on,,112.0,71.0,112.0,50096,130.45833333333331,192
8970,2.0,,,,71.0,,,,,88,note_on,,0.0,71.0,0.0,50184,130.6875,192
8971,2.0,,,,67.0,,,,,8,note_on,,112.0,67.0,112.0,50192,130.70833333333331,192
8972,2.0,,,,67.0,,,,,88,note_on,,0.0,67.0,0.0,50280,130.9375,192
8973,2.0,,,,71.0,,,,,8,note_on,,112.0,71.0,112.0,50288,130.95833333333331,192
8974,2.0,,,,71.0,,,,,236,note_on,,0.0,71.0,0.0,50524,131.57291666666666,192
8975,2.0,,,,58.0,,,,,2788,note_on,,127.0,58.0,127.0,53312,138.83333333333331,192
8976,2.0,,,,58.0,,,,,40,note_on,,0.0,58.0,0.0,53352,138.9375,192
8977,2.0,,,,60.0,,,,,8,note_on,,127.0,60.0,127.0,53360,138.95833333333331,192
8978,2.0,,,,60.0,,,,,40,note_on,,0.0,60.0,0.0,53400,139.0625,192
8979,2.0,,,,58.0,,,,,8,note_on,,127.0,58.0,127.0,53408,139.08333333333331,192
8980,2.0,,,,58.0,,,,,40,note_on,,0.0,58.0,0.0,53448,139.1875,192
8981,2.0,,,,55.0,,,,,56,note_on,,127.0,55.0,127.0,53504,139.33333333333331,192
8982,2.0,,,,55.0,,,,,40,note_on,,0.0,55.0,0.0,53544,139.4375,192
8983,2.0,,,,58.0,,,,,2840,note_on,,127.0,58.0,127.0,56384,146.83333333333331,192
8984,2.0,,,,58.0,,,,,40,note_on,,0.0,58.0,0.0,56424,146.9375,192
8985,2.0,,,,60.0,,,,,8,note_on,,127.0,60.0,127.0,56432,146.95833333333331,192
8986,2.0,,,,60.0,,,,,40,note_on,,0.0,60.0,0.0,56472,147.0625,192
8987,2.0,,,,58.0,,,,,8,note_on,,127.0,58.0,127.0,56480,147.08333333333331,192
8988,2.0,,,,58.0,,,,,40,note_on,,0.0,58.0,0.0,56520,147.1875,192
8989,2.0,,,,55.0,,,,,56,note_on,,127.0,55.0,127.0,56576,147.33333333333331,192
8990,2.0,,,,55.0,,,,,40,note_on,,0.0,55.0,0.0,56616,147.4375,192
8991,2.0,,,,67.0,,,,,56,note_on,,127.0,67.0,127.0,56672,147.58333333333331,192
8992,2.0,,,,67.0,,,,,135,note_on,,0.0,67.0,0.0,56807,147.93489583333331,192
8993,2.0,,,,65.0,,,,,25,note_on,,127.0,65.0,127.0,56832,148.0,192
8994,2.0,,,,65.0,,,,,46,note_on,,0.0,65.0,0.0,56878,148.11979166666666,192
8995,2.0,,,,62.0,,,,,18,note_on,,127.0,62.0,127.0,56896,148.16666666666666,192
8996,2.0,,,,67.0,,,,,64,note_on,,127.0,67.0,127.0,56960,148.33333333333331,192
8997,2.0,,,,62.0,,,,,8,note_on,,0.0,62.0,0.0,56968,148.35416666666666,192
8998,2.0,,,,67.0,,,,,32,note_on,,0.0,67.0,0.0,57000,148.4375,192
8999,2.0,,,,67.0,,,,,440,note_on,,127.0,67.0,127.0,57440,149.58333333333331,192
9000,2.0,,,,67.0,,,,,135,note_on,,0.0,67.0,0.0,57575,149.93489583333331,192
9001,2.0,,,,65.0,,,,,25,note_on,,127.0,65.0,127.0,57600,150.0,192
9002,2.0,,,,65.0,,,,,46,note_on,,0.0,65.0,0.0,57646,150.11979166666666,192
9003,2.0,,,,62.0,,,,,18,note_on,,127.0,62.0,127.0,57664,150.16666666666666,192
9004,2.0,,,,67.0,,,,,64,note_on,,127.0,67.0,127.0,57728,150.33333333333331,192
9005,2.0,,,,62.0,,,,,8,note_on,,0.0,62.0,0.0,57736,150.35416666666666,192
9006,2.0,,,,67.0,,,,,32,note_on,,0.0,67.0,0.0,57768,150.4375,192
9007,2.0,,,,67.0,,,,,440,note_on,,127.0,67.0,127.0,58208,151.58333333333331,192
9008,2.0,,,,67.0,,,,,135,note_on,,0.0,67.0,0.0,58343,151.93489583333331,192
9009,2.0,,,,65.0,,,,,25,note_on,,127.0,65.0,127.0,58368,152.0,192
9010,2.0,,,,65.0,,,,,46,note_on,,0.0,65.0,0.0,58414,152.11979166666666,192
9011,2.0,,,,62.0,,,,,18,note_on,,127.0,62.0,127.0,58432,152.16666666666666,192
9012,2.0,,,,67.0,,,,,64,note_on,,127.0,67.0,127.0,58496,152.33333333333331,192
9013,2.0,,,,62.0,,,,,8,note_on,,0.0,62.0,0.0,58504,152.35416666666666,192
9014,2.0,,,,67.0,,,,,32,note_on,,0.0,67.0,0.0,58536,152.4375,192
9015,2.0,,,,67.0,,,,,440,note_on,,127.0,67.0,127.0,58976,153.58333333333331,192
9016,2.0,,,,67.0,,,,,135,note_on,,0.0,67.0,0.0,59111,153.93489583333331,192
9017,2.0,,,,65.0,,,,,25,note_on,,127.0,65.0,127.0,59136,154.0,192
9018,2.0,,,,65.0,,,,,46,note_on,,0.0,65.0,0.0,59182,154.11979166666666,192
9019,2.0,,,,62.0,,,,,18,note_on,,127.0,62.0,127.0,59200,154.16666666666666,192
9020,2.0,,,,67.0,,,,,64,note_on,,127.0,67.0,127.0,59264,154.33333333333331,192
9021,2.0,,,,62.0,,,,,8,note_on,,0.0,62.0,0.0,59272,154.35416666666666,192
9022,2.0,,,,67.0,,,,,32,note_on,,0.0,67.0,0.0,59304,154.4375,192
9023,2.0,,,,58.0,,,,,152,note_on,,127.0,58.0,127.0,59456,154.83333333333331,192
9024,2.0,,,,58.0,,,,,40,note_on,,0.0,58.0,0.0,59496,154.9375,192
9025,2.0,,,,60.0,,,,,8,note_on,,127.0,60.0,127.0,59504,154.95833333333331,192
9026,2.0,,,,60.0,,,,,40,note_on,,0.0,60.0,0.0,59544,155.0625,192
9027,2.0,,,,58.0,,,,,8,note_on,,127.0,58.0,127.0,59552,155.08333333333331,192
9028,2.0,,,,58.0,,,,,40,note_on,,0.0,58.0,0.0,59592,155.1875,192
9029,2.0,,,,55.0,,,,,56,note_on,,127.0,55.0,127.0,59648,155.33333333333331,192
9030,2.0,,,,55.0,,,,,40,note_on,,0.0,55.0,0.0,59688,155.4375,192
9031,2.0,,,,67.0,,,,,56,note_on,,127.0,67.0,127.0,59744,155.58333333333331,192
9032,2.0,,,,67.0,,,,,135,note_on,,0.0,67.0,0.0,59879,155.93489583333331,192
9033,2.0,,,,65.0,,,,,25,note_on,,127.0,65.0,127.0,59904,156.0,192
9034,2.0,,,,65.0,,,,,46,note_on,,0.0,65.0,0.0,59950,156.11979166666666,192
9035,2.0,,,,62.0,,,,,18,note_on,,127.0,62.0,127.0,59968,156.16666666666666,192
9036,2.0,,,,67.0,,,,,64,note_on,,127.0,67.0,127.0,60032,156.33333333333331,192
9037,2.0,,,,62.0,,,,,8,note_on,,0.0,62.0,0.0,60040,156.35416666666666,192
9038,2.0,,,,67.0,,,,,32,note_on,,0.0,67.0,0.0,60072,156.4375,192
9039,2.0,,,,67.0,,,,,440,note_on,,127.0,67.0,127.0,60512,157.58333333333331,192
9040,2.0,,,,67.0,,,,,135,note_on,,0.0,67.0,0.0,60647,157.93489583333331,192
9041,2.0,,,,65.0,,,,,25,note_on,,127.0,65.0,127.0,60672,158.0,192
9042,2.0,,,,65.0,,,,,46,note_on,,0.0,65.0,0.0,60718,158.11979166666666,192
9043,2.0,,,,62.0,,,,,18,note_on,,127.0,62.0,127.0,60736,158.16666666666666,192
9044,2.0,,,,67.0,,,,,64,note_on,,127.0,67.0,127.0,60800,158.33333333333331,192
9045,2.0,,,,62.0,,,,,8,note_on,,0.0,62.0,0.0,60808,158.35416666666666,192
9046,2.0,,,,67.0,,,,,32,note_on,,0.0,67.0,0.0,60840,158.4375,192
9047,2.0,,,,67.0,,,,,440,note_on,,127.0,67.0,127.0,61280,159.58333333333331,192
9048,2.0,,,,67.0,,,,,135,note_on,,0.0,67.0,0.0,61415,159.93489583333331,192
9049,2.0,,,,65.0,,,,,25,note_on,,127.0,65.0,127.0,61440,160.0,192
9050,2.0,,,,65.0,,,,,46,note_on,,0.0,65.0,0.0,61486,160.11979166666666,192
9051,2.0,,,,62.0,,,,,18,note_on,,127.0,62.0,127.0,61504,160.16666666666666,192
9052,2.0,,,,67.0,,,,,64,note_on,,127.0,67.0,127.0,61568,160.33333333333331,192
9053,2.0,,,,62.0,,,,,8,note_on,,0.0,62.0,0.0,61576,160.35416666666666,192
9054,2.0,,,,67.0,,,,,32,note_on,,0.0,67.0,0.0,61608,160.4375,192
9055,2.0,,,,71.0,,,,,1400,note_on,,112.0,71.0,112.0,63008,164.08333333333331,192
9056,2.0,,,,67.0,,,,,32,note_on,,112.0,67.0,112.0,63040,164.16666666666666,192
9057,2.0,,,,71.0,,,,,8,note_on,,0.0,71.0,0.0,63048,164.1875,192
9058,2.0,,,,67.0,,,,,80,note_on,,0.0,67.0,0.0,63128,164.39583333333331,192
9059,2.0,,,,71.0,,,,,24,note_on,,112.0,71.0,112.0,63152,164.45833333333331,192
9060,2.0,,,,71.0,,,,,88,note_on,,0.0,71.0,0.0,63240,164.6875,192
9061,2.0,,,,67.0,,,,,8,note_on,,112.0,67.0,112.0,63248,164.70833333333331,192
9062,2.0,,,,67.0,,,,,88,note_on,,0.0,67.0,0.0,63336,164.9375,192
9063,2.0,,,,71.0,,,,,8,note_on,,112.0,71.0,112.0,63344,164.95833333333331,192
9064,2.0,,,,71.0,,,,,88,note_on,,0.0,71.0,0.0,63432,165.1875,192
9065,2.0,,,,67.0,,,,,8,note_on,,112.0,67.0,112.0,63440,165.20833333333331,192
9066,2.0,,,,67.0,,,,,88,note_on,,0.0,67.0,0.0,63528,165.4375,192
9067,2.0,,,,71.0,,,,,248,note_on,,112.0,71.0,112.0,63776,166.08333333333331,192
9068,2.0,,,,67.0,,,,,32,note_on,,112.0,67.0,112.0,63808,166.16666666666666,192
9069,2.0,,,,71.0,,,,,8,note_on,,0.0,71.0,0.0,63816,166.1875,192
9070,2.0,,,,67.0,,,,,80,note_on,,0.0,67.0,0.0,63896,166.39583333333331,192
9071,2.0,,,,71.0,,,,,24,note_on,,112.0,71.0,112.0,63920,166.45833333333331,192
9072,2.0,,,,71.0,,,,,88,note_on,,0.0,71.0,0.0,64008,166.6875,192
9073,2.0,,,,67.0,,,,,8,note_on,,112.0,67.0,112.0,64016,166.70833333333331,192
9074,2.0,,,,67.0,,,,,88,note_on,,0.0,67.0,0.0,64104,166.9375,192
9075,2.0,,,,71.0,,,,,8,note_on,,112.0,71.0,112.0,64112,166.95833333333331,192
9076,2.0,,,,71.0,,,,,236,note_on,,0.0,71.0,0.0,64348,167.57291666666666,192
9077,2.0,,,,72.0,,,,,196,note_on,,112.0,72.0,112.0,64544,168.08333333333331,192
9078,2.0,,,,69.0,,,,,32,note_on,,112.0,69.0,112.0,64576,168.16666666666666,192
9079,2.0,,,,72.0,,,,,8,note_on,,0.0,72.0,0.0,64584,168.1875,192
9080,2.0,,,,69.0,,,,,80,note_on,,0.0,69.0,0.0,64664,168.39583333333331,192
9081,2.0,,,,72.0,,,,,24,note_on,,112.0,72.0,112.0,64688,168.45833333333331,192
9082,2.0,,,,72.0,,,,,88,note_on,,0.0,72.0,0.0,64776,168.6875,192
9083,2.0,,,,69.0,,,,,8,note_on,,112.0,69.0,112.0,64784,168.70833333333331,192
9084,2.0,,,,69.0,,,,,88,note_on,,0.0,69.0,0.0,64872,168.9375,192
9085,2.0,,,,72.0,,,,,8,note_on,,112.0,72.0,112.0,64880,168.95833333333331,192
9086,2.0,,,,72.0,,,,,88,note_on,,0.0,72.0,0.0,64968,169.1875,192
9087,2.0,,,,69.0,,,,,8,note_on,,112.0,69.0,112.0,64976,169.20833333333331,192
9088,2.0,,,,69.0,,,,,88,note_on,,0.0,69.0,0.0,65064,169.4375,192
9089,2.0,,,,71.0,,,,,248,note_on,,112.0,71.0,112.0,65312,170.08333333333331,192
9090,2.0,,,,67.0,,,,,32,note_on,,112.0,67.0,112.0,65344,170.16666666666666,192
9091,2.0,,,,71.0,,,,,8,note_on,,0.0,71.0,0.0,65352,170.1875,192
9092,2.0,,,,67.0,,,,,80,note_on,,0.0,67.0,0.0,65432,170.39583333333331,192
9093,2.0,,,,71.0,,,,,24,note_on,,112.0,71.0,112.0,65456,170.45833333333331,192
9094,2.0,,,,71.0,,,,,88,note_on,,0.0,71.0,0.0,65544,170.6875,192
9095,2.0,,,,67.0,,,,,8,note_on,,112.0,67.0,112.0,65552,170.70833333333331,192
9096,2.0,,,,67.0,,,,,88,note_on,,0.0,67.0,0.0,65640,170.9375,192
9097,2.0,,,,71.0,,,,,8,note_on,,112.0,71.0,112.0,65648,170.95833333333331,192
9098,2.0,,,,71.0,,,,,236,note_on,,0.0,71.0,0.0,65884,171.57291666666666,192
9099,2.0,,,,71.0,,,,,196,note_on,,112.0,71.0,112.0,66080,172.08333333333331,192
9100,2.0,,,,67.0,,,,,32,note_on,,112.0,67.0,112.0,66112,172.16666666666666,192
9101,2.0,,,,71.0,,,,,8,note_on,,0.0,71.0,0.0,66120,172.1875,192
9102,2.0,,,,67.0,,,,,80,note_on,,0.0,67.0,0.0,66200,172.39583333333331,192
9103,2.0,,,,71.0,,,,,24,note_on,,112.0,71.0,112.0,66224,172.45833333333331,192
9104,2.0,,,,71.0,,,,,88,note_on,,0.0,71.0,0.0,66312,172.6875,192
9105,2.0,,,,67.0,,,,,8,note_on,,112.0,67.0,112.0,66320,172.70833333333331,192
9106,2.0,,,,67.0,,,,,88,note_on,,0.0,67.0,0.0,66408,172.9375,192
9107,2.0,,,,71.0,,,,,8,note_on,,112.0,71.0,112.0,66416,172.95833333333331,192
9108,2.0,,,,71.0,,,,,88,note_on,,0.0,71.0,0.0,66504,173.1875,192
9109,2.0,,,,67.0,,,,,8,note_on,,112.0,67.0,112.0,66512,173.20833333333331,192
9110,2.0,,,,67.0,,,,,88,note_on,,0.0,67.0,0.0,66600,173.4375,192
9111,2.0,,,,71.0,,,,,248,note_on,,112.0,71.0,112.0,66848,174.08333333333331,192
9112,2.0,,,,67.0,,,,,32,note_on,,112.0,67.0,112.0,66880,174.16666666666666,192
9113,2.0,,,,71.0,,,,,8,note_on,,0.0,71.0,0.0,66888,174.1875,192
9114,2.0,,,,67.0,,,,,80,note_on,,0.0,67.0,0.0,66968,174.39583333333331,192
9115,2.0,,,,71.0,,,,,24,note_on,,112.0,71.0,112.0,66992,174.45833333333331,192
9116,2.0,,,,71.0,,,,,88,note_on,,0.0,71.0,0.0,67080,174.6875,192
9117,2.0,,,,67.0,,,,,8,note_on,,112.0,67.0,112.0,67088,174.70833333333331,192
9118,2.0,,,,67.0,,,,,88,note_on,,0.0,67.0,0.0,67176,174.9375,192
9119,2.0,,,,71.0,,,,,8,note_on,,112.0,71.0,112.0,67184,174.95833333333331,192
9120,2.0,,,,71.0,,,,,236,note_on,,0.0,71.0,0.0,67420,175.57291666666666,192
9121,2.0,,,,72.0,,,,,196,note_on,,112.0,72.0,112.0,67616,176.08333333333331,192
9122,2.0,,,,69.0,,,,,32,note_on,,112.0,69.0,112.0,67648,176.16666666666666,192
9123,2.0,,,,72.0,,,,,8,note_on,,0.0,72.0,0.0,67656,176.1875,192
9124,2.0,,,,69.0,,,,,80,note_on,,0.0,69.0,0.0,67736,176.39583333333331,192
9125,2.0,,,,72.0,,,,,24,note_on,,112.0,72.0,112.0,67760,176.45833333333331,192
9126,2.0,,,,72.0,,,,,88,note_on,,0.0,72.0,0.0,67848,176.6875,192
9127,2.0,,,,69.0,,,,,8,note_on,,112.0,69.0,112.0,67856,176.70833333333331,192
9128,2.0,,,,69.0,,,,,88,note_on,,0.0,69.0,0.0,67944,176.9375,192
9129,2.0,,,,72.0,,,,,8,note_on,,112.0,72.0,112.0,67952,176.95833333333331,192
9130,2.0,,,,72.0,,,,,88,note_on,,0.0,72.0,0.0,68040,177.1875,192
9131,2.0,,,,69.0,,,,,8,note_on,,112.0,69.0,112.0,68048,177.20833333333331,192
9132,2.0,,,,69.0,,,,,88,note_on,,0.0,69.0,0.0,68136,177.4375,192
9133,2.0,,,,71.0,,,,,248,note_on,,112.0,71.0,112.0,68384,178.08333333333331,192
9134,2.0,,,,67.0,,,,,32,note_on,,112.0,67.0,112.0,68416,178.16666666666666,192
9135,2.0,,,,71.0,,,,,8,note_on,,0.0,71.0,0.0,68424,178.1875,192
9136,2.0,,,,67.0,,,,,80,note_on,,0.0,67.0,0.0,68504,178.39583333333331,192
9137,2.0,,,,71.0,,,,,24,note_on,,112.0,71.0,112.0,68528,178.45833333333331,192
9138,2.0,,,,71.0,,,,,88,note_on,,0.0,71.0,0.0,68616,178.6875,192
9139,2.0,,,,67.0,,,,,8,note_on,,112.0,67.0,112.0,68624,178.70833333333331,192
9140,2.0,,,,67.0,,,,,88,note_on,,0.0,67.0,0.0,68712,178.9375,192
9141,2.0,,,,71.0,,,,,8,note_on,,112.0,71.0,112.0,68720,178.95833333333331,192
9142,2.0,,,,71.0,,,,,236,note_on,,0.0,71.0,0.0,68956,179.57291666666666,192
9143,2.0,,,,67.0,,,,,4,note_on,,127.0,67.0,127.0,68960,179.58333333333331,192
9144,2.0,,,,67.0,,,,,135,note_on,,0.0,67.0,0.0,69095,179.93489583333331,192
9145,2.0,,,,65.0,,,,,25,note_on,,127.0,65.0,127.0,69120,180.0,192
9146,2.0,,,,65.0,,,,,46,note_on,,0.0,65.0,0.0,69166,180.11979166666666,192
9147,2.0,,,,62.0,,,,,18,note_on,,127.0,62.0,127.0,69184,180.16666666666666,192
9148,2.0,,,,67.0,,,,,64,note_on,,127.0,67.0,127.0,69248,180.33333333333331,192
9149,2.0,,,,62.0,,,,,8,note_on,,0.0,62.0,0.0,69256,180.35416666666666,192
9150,2.0,,,,67.0,,,,,32,note_on,,0.0,67.0,0.0,69288,180.4375,192
9151,2.0,,,,67.0,,,,,440,note_on,,127.0,67.0,127.0,69728,181.58333333333331,192
9152,2.0,,,,67.0,,,,,135,note_on,,0.0,67.0,0.0,69863,181.93489583333331,192
9153,2.0,,,,65.0,,,,,25,note_on,,127.0,65.0,127.0,69888,182.0,192
9154,2.0,,,,65.0,,,,,46,note_on,,0.0,65.0,0.0,69934,182.11979166666666,192
9155,2.0,,,,62.0,,,,,18,note_on,,127.0,62.0,127.0,69952,182.16666666666666,192
9156,2.0,,,,67.0,,,,,64,note_on,,127.0,67.0,127.0,70016,182.33333333333331,192
9157,2.0,,,,62.0,,,,,8,note_on,,0.0,62.0,0.0,70024,182.35416666666666,192
9158,2.0,,,,67.0,,,,,32,note_on,,0.0,67.0,0.0,70056,182.4375,192
9159,2.0,,,,67.0,,,,,440,note_on,,127.0,67.0,127.0,70496,183.58333333333331,192
9160,2.0,,,,67.0,,,,,135,note_on,,0.0,67.0,0.0,70631,183.93489583333331,192
9161,2.0,,,,65.0,,,,,25,note_on,,127.0,65.0,127.0,70656,184.0,192
9162,2.0,,,,65.0,,,,,46,note_on,,0.0,65.0,0.0,70702,184.11979166666666,192
9163,2.0,,,,62.0,,,,,18,note_on,,127.0,62.0,127.0,70720,184.16666666666666,192
9164,2.0,,,,67.0,,,,,64,note_on,,127.0,67.0,127.0,70784,184.33333333333331,192
9165,2.0,,,,62.0,,,,,8,note_on,,0.0,62.0,0.0,70792,184.35416666666666,192
9166,2.0,,,,67.0,,,,,32,note_on,,0.0,67.0,0.0,70824,184.4375,192
9167,2.0,,,,67.0,,,,,440,note_on,,127.0,67.0,127.0,71264,185.58333333333331,192
9168,2.0,,,,67.0,,,,,135,note_on,,0.0,67.0,0.0,71399,185.93489583333331,192
9169,2.0,,,,65.0,,,,,25,note_on,,127.0,65.0,127.0,71424,186.0,192
9170,2.0,,,,65.0,,,,,46,note_on,,0.0,65.0,0.0,71470,186.11979166666666,192
9171,2.0,,,,62.0,,,,,18,note_on,,127.0,62.0,127.0,71488,186.16666666666666,192
9172,2.0,,,,67.0,,,,,64,note_on,,127.0,67.0,127.0,71552,186.33333333333331,192
9173,2.0,,,,62.0,,,,,8,note_on,,0.0,62.0,0.0,71560,186.35416666666666,192
9174,2.0,,,,67.0,,,,,32,note_on,,0.0,67.0,0.0,71592,186.4375,192
9175,2.0,,,,58.0,,,,,152,note_on,,127.0,58.0,127.0,71744,186.83333333333331,192
9176,2.0,,,,58.0,,,,,40,note_on,,0.0,58.0,0.0,71784,186.9375,192
9177,2.0,,,,60.0,,,,,8,note_on,,127.0,60.0,127.0,71792,186.95833333333331,192
9178,2.0,,,,60.0,,,,,40,note_on,,0.0,60.0,0.0,71832,187.0625,192
9179,2.0,,,,58.0,,,,,8,note_on,,127.0,58.0,127.0,71840,187.08333333333331,192
9180,2.0,,,,58.0,,,,,40,note_on,,0.0,58.0,0.0,71880,187.1875,192
9181,2.0,,,,55.0,,,,,56,note_on,,127.0,55.0,127.0,71936,187.33333333333331,192
9182,2.0,,,,55.0,,,,,40,note_on,,0.0,55.0,0.0,71976,187.4375,192
9183,2.0,,,,67.0,,,,,56,note_on,,127.0,67.0,127.0,72032,187.58333333333331,192
9184,2.0,,,,67.0,,,,,135,note_on,,0.0,67.0,0.0,72167,187.93489583333331,192
9185,2.0,,,,65.0,,,,,25,note_on,,127.0,65.0,127.0,72192,188.0,192
9186,2.0,,,,65.0,,,,,46,note_on,,0.0,65.0,0.0,72238,188.11979166666666,192
9187,2.0,,,,62.0,,,,,18,note_on,,127.0,62.0,127.0,72256,188.16666666666666,192
9188,2.0,,,,67.0,,,,,64,note_on,,127.0,67.0,127.0,72320,188.33333333333331,192
9189,2.0,,,,62.0,,,,,8,note_on,,0.0,62.0,0.0,72328,188.35416666666666,192
9190,2.0,,,,67.0,,,,,32,note_on,,0.0,67.0,0.0,72360,188.4375,192
9191,2.0,,,,67.0,,,,,440,note_on,,127.0,67.0,127.0,72800,189.58333333333331,192
9192,2.0,,,,67.0,,,,,135,note_on,,0.0,67.0,0.0,72935,189.93489583333331,192
9193,2.0,,,,65.0,,,,,25,note_on,,127.0,65.0,127.0,72960,190.0,192
9194,2.0,,,,65.0,,,,,46,note_on,,0.0,65.0,0.0,73006,190.11979166666666,192
9195,2.0,,,,62.0,,,,,18,note_on,,127.0,62.0,127.0,73024,190.16666666666666,192
9196,2.0,,,,67.0,,,,,64,note_on,,127.0,67.0,127.0,73088,190.33333333333331,192
9197,2.0,,,,62.0,,,,,8,note_on,,0.0,62.0,0.0,73096,190.35416666666666,192
9198,2.0,,,,67.0,,,,,32,note_on,,0.0,67.0,0.0,73128,190.4375,192
9199,2.0,,,,67.0,,,,,440,note_on,,127.0,67.0,127.0,73568,191.58333333333331,192
9200,2.0,,,,67.0,,,,,135,note_on,,0.0,67.0,0.0,73703,191.93489583333331,192
9201,2.0,,,,65.0,,,,,25,note_on,,127.0,65.0,127.0,73728,192.0,192
9202,2.0,,,,65.0,,,,,46,note_on,,0.0,65.0,0.0,73774,192.11979166666666,192
9203,2.0,,,,62.0,,,,,18,note_on,,127.0,62.0,127.0,73792,192.16666666666666,192
9204,2.0,,,,67.0,,,,,64,note_on,,127.0,67.0,127.0,73856,192.33333333333331,192
9205,2.0,,,,62.0,,,,,8,note_on,,0.0,62.0,0.0,73864,192.35416666666666,192
9206,2.0,,,,67.0,,,,,32,note_on,,0.0,67.0,0.0,73896,192.4375,192
9207,2.0,,,,67.0,,,,,440,note_on,,127.0,67.0,127.0,74336,193.58333333333331,192
9208,2.0,,,,67.0,,,,,135,note_on,,0.0,67.0,0.0,74471,193.93489583333331,192
9209,2.0,,,,65.0,,,,,25,note_on,,127.0,65.0,127.0,74496,194.0,192
9210,2.0,,,,65.0,,,,,46,note_on,,0.0,65.0,0.0,74542,194.11979166666666,192
9211,2.0,,,,62.0,,,,,18,note_on,,127.0,62.0,127.0,74560,194.16666666666666,192
9212,2.0,,,,67.0,,,,,64,note_on,,127.0,67.0,127.0,74624,194.33333333333331,192
9213,2.0,,,,62.0,,,,,8,note_on,,0.0,62.0,0.0,74632,194.35416666666666,192
9214,2.0,,,,67.0,,,,,32,note_on,,0.0,67.0,0.0,74664,194.4375,192
9215,2.0,,,,71.0,,,,,632,note_on,,112.0,71.0,112.0,75296,196.08333333333331,192
9216,2.0,,,,67.0,,,,,32,note_on,,112.0,67.0,112.0,75328,196.16666666666666,192
9217,2.0,,,,71.0,,,,,8,note_on,,0.0,71.0,0.0,75336,196.1875,192
9218,2.0,,,,67.0,,,,,80,note_on,,0.0,67.0,0.0,75416,196.39583333333331,192
9219,2.0,,,,71.0,,,,,24,note_on,,112.0,71.0,112.0,75440,196.45833333333331,192
9220,2.0,,,,71.0,,,,,88,note_on,,0.0,71.0,0.0,75528,196.6875,192
9221,2.0,,,,67.0,,,,,8,note_on,,112.0,67.0,112.0,75536,196.70833333333331,192
9222,2.0,,,,67.0,,,,,88,note_on,,0.0,67.0,0.0,75624,196.9375,192
9223,2.0,,,,71.0,,,,,8,note_on,,112.0,71.0,112.0,75632,196.95833333333331,192
9224,2.0,,,,71.0,,,,,88,note_on,,0.0,71.0,0.0,75720,197.1875,192
9225,2.0,,,,67.0,,,,,8,note_on,,112.0,67.0,112.0,75728,197.20833333333331,192
9226,2.0,,,,67.0,,,,,88,note_on,,0.0,67.0,0.0,75816,197.4375,192
9227,2.0,,,,71.0,,,,,248,note_on,,112.0,71.0,112.0,76064,198.08333333333331,192
9228,2.0,,,,67.0,,,,,32,note_on,,112.0,67.0,112.0,76096,198.16666666666666,192
9229,2.0,,,,71.0,,,,,8,note_on,,0.0,71.0,0.0,76104,198.1875,192
9230,2.0,,,,67.0,,,,,80,note_on,,0.0,67.0,0.0,76184,198.39583333333331,192
9231,2.0,,,,71.0,,,,,24,note_on,,112.0,71.0,112.0,76208,198.45833333333331,192
9232,2.0,,,,71.0,,,,,88,note_on,,0.0,71.0,0.0,76296,198.6875,192
9233,2.0,,,,67.0,,,,,8,note_on,,112.0,67.0,112.0,76304,198.70833333333331,192
9234,2.0,,,,67.0,,,,,88,note_on,,0.0,67.0,0.0,76392,198.9375,192
9235,2.0,,,,71.0,,,,,8,note_on,,112.0,71.0,112.0,76400,198.95833333333331,192
9236,2.0,,,,71.0,,,,,236,note_on,,0.0,71.0,0.0,76636,199.57291666666666,192
9237,2.0,,,,72.0,,,,,196,note_on,,112.0,72.0,112.0,76832,200.08333333333331,192
9238,2.0,,,,69.0,,,,,32,note_on,,112.0,69.0,112.0,76864,200.16666666666666,192
9239,2.0,,,,72.0,,,,,8,note_on,,0.0,72.0,0.0,76872,200.1875,192
9240,2.0,,,,69.0,,,,,80,note_on,,0.0,69.0,0.0,76952,200.39583333333331,192
9241,2.0,,,,72.0,,,,,24,note_on,,112.0,72.0,112.0,76976,200.45833333333331,192
9242,2.0,,,,72.0,,,,,88,note_on,,0.0,72.0,0.0,77064,200.6875,192
9243,2.0,,,,69.0,,,,,8,note_on,,112.0,69.0,112.0,77072,200.70833333333331,192
9244,2.0,,,,69.0,,,,,88,note_on,,0.0,69.0,0.0,77160,200.9375,192
9245,2.0,,,,72.0,,,,,8,note_on,,112.0,72.0,112.0,77168,200.95833333333331,192
9246,2.0,,,,72.0,,,,,88,note_on,,0.0,72.0,0.0,77256,201.1875,192
9247,2.0,,,,69.0,,,,,8,note_on,,112.0,69.0,112.0,77264,201.20833333333331,192
9248,2.0,,,,69.0,,,,,88,note_on,,0.0,69.0,0.0,77352,201.4375,192
9249,2.0,,,,71.0,,,,,248,note_on,,112.0,71.0,112.0,77600,202.08333333333331,192
9250,2.0,,,,67.0,,,,,32,note_on,,112.0,67.0,112.0,77632,202.16666666666666,192
9251,2.0,,,,71.0,,,,,8,note_on,,0.0,71.0,0.0,77640,202.1875,192
9252,2.0,,,,67.0,,,,,80,note_on,,0.0,67.0,0.0,77720,202.39583333333331,192
9253,2.0,,,,71.0,,,,,24,note_on,,112.0,71.0,112.0,77744,202.45833333333331,192
9254,2.0,,,,71.0,,,,,88,note_on,,0.0,71.0,0.0,77832,202.6875,192
9255,2.0,,,,67.0,,,,,8,note_on,,112.0,67.0,112.0,77840,202.70833333333331,192
9256,2.0,,,,67.0,,,,,88,note_on,,0.0,67.0,0.0,77928,202.9375,192
9257,2.0,,,,71.0,,,,,8,note_on,,112.0,71.0,112.0,77936,202.95833333333331,192
9258,2.0,,,,71.0,,,,,236,note_on,,0.0,71.0,0.0,78172,203.57291666666666,192
9259,2.0,,,,71.0,,,,,196,note_on,,112.0,71.0,112.0,78368,204.08333333333331,192
9260,2.0,,,,67.0,,,,,32,note_on,,112.0,67.0,112.0,78400,204.16666666666666,192
9261,2.0,,,,71.0,,,,,8,note_on,,0.0,71.0,0.0,78408,204.1875,192
9262,2.0,,,,67.0,,,,,80,note_on,,0.0,67.0,0.0,78488,204.39583333333331,192
9263,2.0,,,,71.0,,,,,24,note_on,,112.0,71.0,112.0,78512,204.45833333333331,192
9264,2.0,,,,71.0,,,,,88,note_on,,0.0,71.0,0.0,78600,204.6875,192
9265,2.0,,,,67.0,,,,,8,note_on,,112.0,67.0,112.0,78608,204.70833333333331,192
9266,2.0,,,,67.0,,,,,88,note_on,,0.0,67.0,0.0,78696,204.9375,192
9267,2.0,,,,71.0,,,,,8,note_on,,112.0,71.0,112.0,78704,204.95833333333331,192
9268,2.0,,,,71.0,,,,,88,note_on,,0.0,71.0,0.0,78792,205.1875,192
9269,2.0,,,,67.0,,,,,8,note_on,,112.0,67.0,112.0,78800,205.20833333333331,192
9270,2.0,,,,67.0,,,,,88,note_on,,0.0,67.0,0.0,78888,205.4375,192
9271,2.0,,,,71.0,,,,,248,note_on,,112.0,71.0,112.0,79136,206.08333333333331,192
9272,2.0,,,,67.0,,,,,32,note_on,,112.0,67.0,112.0,79168,206.16666666666666,192
9273,2.0,,,,71.0,,,,,8,note_on,,0.0,71.0,0.0,79176,206.1875,192
9274,2.0,,,,67.0,,,,,80,note_on,,0.0,67.0,0.0,79256,206.39583333333331,192
9275,2.0,,,,71.0,,,,,24,note_on,,112.0,71.0,112.0,79280,206.45833333333331,192
9276,2.0,,,,71.0,,,,,88,note_on,,0.0,71.0,0.0,79368,206.6875,192
9277,2.0,,,,67.0,,,,,8,note_on,,112.0,67.0,112.0,79376,206.70833333333331,192
9278,2.0,,,,67.0,,,,,88,note_on,,0.0,67.0,0.0,79464,206.9375,192
9279,2.0,,,,71.0,,,,,8,note_on,,112.0,71.0,112.0,79472,206.95833333333331,192
9280,2.0,,,,71.0,,,,,236,note_on,,0.0,71.0,0.0,79708,207.57291666666666,192
9281,2.0,,,,72.0,,,,,196,note_on,,112.0,72.0,112.0,79904,208.08333333333331,192
9282,2.0,,,,69.0,,,,,32,note_on,,112.0,69.0,112.0,79936,208.16666666666666,192
9283,2.0,,,,72.0,,,,,8,note_on,,0.0,72.0,0.0,79944,208.1875,192
9284,2.0,,,,69.0,,,,,80,note_on,,0.0,69.0,0.0,80024,208.39583333333331,192
9285,2.0,,,,72.0,,,,,24,note_on,,112.0,72.0,112.0,80048,208.45833333333331,192
9286,2.0,,,,72.0,,,,,88,note_on,,0.0,72.0,0.0,80136,208.6875,192
9287,2.0,,,,69.0,,,,,8,note_on,,112.0,69.0,112.0,80144,208.70833333333331,192
9288,2.0,,,,69.0,,,,,88,note_on,,0.0,69.0,0.0,80232,208.9375,192
9289,2.0,,,,72.0,,,,,8,note_on,,112.0,72.0,112.0,80240,208.95833333333331,192
9290,2.0,,,,72.0,,,,,88,note_on,,0.0,72.0,0.0,80328,209.1875,192
9291,2.0,,,,69.0,,,,,8,note_on,,112.0,69.0,112.0,80336,209.20833333333331,192
9292,2.0,,,,69.0,,,,,88,note_on,,0.0,69.0,0.0,80424,209.4375,192
9293,2.0,,,,71.0,,,,,248,note_on,,112.0,71.0,112.0,80672,210.08333333333331,192
9294,2.0,,,,67.0,,,,,32,note_on,,112.0,67.0,112.0,80704,210.16666666666666,192
9295,2.0,,,,71.0,,,,,8,note_on,,0.0,71.0,0.0,80712,210.1875,192
9296,2.0,,,,67.0,,,,,80,note_on,,0.0,67.0,0.0,80792,210.39583333333331,192
9297,2.0,,,,71.0,,,,,24,note_on,,112.0,71.0,112.0,80816,210.45833333333331,192
9298,2.0,,,,71.0,,,,,88,note_on,,0.0,71.0,0.0,80904,210.6875,192
9299,2.0,,,,67.0,,,,,8,note_on,,112.0,67.0,112.0,80912,210.70833333333331,192
9300,2.0,,,,67.0,,,,,88,note_on,,0.0,67.0,0.0,81000,210.9375,192
9301,2.0,,,,71.0,,,,,8,note_on,,112.0,71.0,112.0,81008,210.95833333333331,192
9302,2.0,,,,71.0,,,,,236,note_on,,0.0,71.0,0.0,81244,211.57291666666666,192
9303,2.0,,,,71.0,,,,,196,note_on,,112.0,71.0,112.0,81440,212.08333333333331,192
9304,2.0,,,,67.0,,,,,32,note_on,,112.0,67.0,112.0,81472,212.16666666666666,192
9305,2.0,,,,71.0,,,,,8,note_on,,0.0,71.0,0.0,81480,212.1875,192
9306,2.0,,,,67.0,,,,,80,note_on,,0.0,67.0,0.0,81560,212.39583333333331,192
9307,2.0,,,,71.0,,,,,24,note_on,,112.0,71.0,112.0,81584,212.45833333333331,192
9308,2.0,,,,71.0,,,,,88,note_on,,0.0,71.0,0.0,81672,212.6875,192
9309,2.0,,,,67.0,,,,,8,note_on,,112.0,67.0,112.0,81680,212.70833333333331,192
9310,2.0,,,,67.0,,,,,88,note_on,,0.0,67.0,0.0,81768,212.9375,192
9311,2.0,,,,71.0,,,,,8,note_on,,112.0,71.0,112.0,81776,212.95833333333331,192
9312,2.0,,,,71.0,,,,,88,note_on,,0.0,71.0,0.0,81864,213.1875,192
9313,2.0,,,,67.0,,,,,8,note_on,,112.0,67.0,112.0,81872,213.20833333333331,192
9314,2.0,,,,67.0,,,,,88,note_on,,0.0,67.0,0.0,81960,213.4375,192
9315,2.0,,,,71.0,,,,,248,note_on,,112.0,71.0,112.0,82208,214.08333333333331,192
9316,2.0,,,,67.0,,,,,32,note_on,,112.0,67.0,112.0,82240,214.16666666666666,192
9317,2.0,,,,71.0,,,,,8,note_on,,0.0,71.0,0.0,82248,214.1875,192
9318,2.0,,,,67.0,,,,,80,note_on,,0.0,67.0,0.0,82328,214.39583333333331,192
9319,2.0,,,,71.0,,,,,24,note_on,,112.0,71.0,112.0,82352,214.45833333333331,192
9320,2.0,,,,71.0,,,,,88,note_on,,0.0,71.0,0.0,82440,214.6875,192
9321,2.0,,,,67.0,,,,,8,note_on,,112.0,67.0,112.0,82448,214.70833333333331,192
9322,2.0,,,,67.0,,,,,88,note_on,,0.0,67.0,0.0,82536,214.9375,192
9323,2.0,,,,71.0,,,,,8,note_on,,112.0,71.0,112.0,82544,214.95833333333331,192
9324,2.0,,,,71.0,,,,,236,note_on,,0.0,71.0,0.0,82780,215.57291666666666,192
9325,2.0,,,,72.0,,,,,196,note_on,,112.0,72.0,112.0,82976,216.08333333333331,192
9326,2.0,,,,69.0,,,,,32,note_on,,112.0,69.0,112.0,83008,216.16666666666666,192
9327,2.0,,,,72.0,,,,,8,note_on,,0.0,72.0,0.0,83016,216.1875,192
9328,2.0,,,,69.0,,,,,80,note_on,,0.0,69.0,0.0,83096,216.39583333333331,192
9329,2.0,,,,72.0,,,,,24,note_on,,112.0,72.0,112.0,83120,216.45833333333331,192
9330,2.0,,,,72.0,,,,,88,note_on,,0.0,72.0,0.0,83208,216.6875,192
9331,2.0,,,,69.0,,,,,8,note_on,,112.0,69.0,112.0,83216,216.70833333333331,192
9332,2.0,,,,69.0,,,,,88,note_on,,0.0,69.0,0.0,83304,216.9375,192
9333,2.0,,,,72.0,,,,,8,note_on,,112.0,72.0,112.0,83312,216.95833333333331,192
9334,2.0,,,,72.0,,,,,88,note_on,,0.0,72.0,0.0,83400,217.1875,192
9335,2.0,,,,69.0,,,,,8,note_on,,112.0,69.0,112.0,83408,217.20833333333331,192
9336,2.0,,,,69.0,,,,,88,note_on,,0.0,69.0,0.0,83496,217.4375,192
9337,2.0,,,,71.0,,,,,248,note_on,,112.0,71.0,112.0,83744,218.08333333333331,192
9338,2.0,,,,67.0,,,,,32,note_on,,112.0,67.0,112.0,83776,218.16666666666666,192
9339,2.0,,,,71.0,,,,,8,note_on,,0.0,71.0,0.0,83784,218.1875,192
9340,2.0,,,,67.0,,,,,80,note_on,,0.0,67.0,0.0,83864,218.39583333333331,192
9341,2.0,,,,71.0,,,,,24,note_on,,112.0,71.0,112.0,83888,218.45833333333331,192
9342,2.0,,,,71.0,,,,,88,note_on,,0.0,71.0,0.0,83976,218.6875,192
9343,2.0,,,,67.0,,,,,8,note_on,,112.0,67.0,112.0,83984,218.70833333333331,192
9344,2.0,,,,67.0,,,,,88,note_on,,0.0,67.0,0.0,84072,218.9375,192
9345,2.0,,,,71.0,,,,,8,note_on,,112.0,71.0,112.0,84080,218.95833333333331,192
9346,2.0,,,,71.0,,,,,236,note_on,,0.0,71.0,0.0,84316,219.57291666666666,192
9347,2.0,,,,71.0,,,,,196,note_on,,112.0,71.0,112.0,84512,220.08333333333331,192
9348,2.0,,,,67.0,,,,,32,note_on,,112.0,67.0,112.0,84544,220.16666666666666,192
9349,2.0,,,,71.0,,,,,8,note_on,,0.0,71.0,0.0,84552,220.1875,192
9350,2.0,,,,67.0,,,,,80,note_on,,0.0,67.0,0.0,84632,220.39583333333331,192
9351,2.0,,,,71.0,,,,,24,note_on,,112.0,71.0,112.0,84656,220.45833333333331,192
9352,2.0,,,,71.0,,,,,88,note_on,,0.0,71.0,0.0,84744,220.6875,192
9353,2.0,,,,67.0,,,,,8,note_on,,112.0,67.0,112.0,84752,220.70833333333331,192
9354,2.0,,,,67.0,,,,,88,note_on,,0.0,67.0,0.0,84840,220.9375,192
9355,2.0,,,,71.0,,,,,8,note_on,,112.0,71.0,112.0,84848,220.95833333333331,192
9356,2.0,,,,71.0,,,,,88,note_on,,0.0,71.0,0.0,84936,221.1875,192
9357,2.0,,,,67.0,,,,,8,note_on,,112.0,67.0,112.0,84944,221.20833333333331,192
9358,2.0,,,,67.0,,,,,88,note_on,,0.0,67.0,0.0,85032,221.4375,192
9359,2.0,,,,71.0,,,,,248,note_on,,112.0,71.0,112.0,85280,222.08333333333331,192
9360,2.0,,,,67.0,,,,,32,note_on,,112.0,67.0,112.0,85312,222.16666666666666,192
9361,2.0,,,,71.0,,,,,8,note_on,,0.0,71.0,0.0,85320,222.1875,192
9362,2.0,,,,67.0,,,,,80,note_on,,0.0,67.0,0.0,85400,222.39583333333331,192
9363,2.0,,,,71.0,,,,,24,note_on,,112.0,71.0,112.0,85424,222.45833333333331,192
9364,2.0,,,,71.0,,,,,88,note_on,,0.0,71.0,0.0,85512,222.6875,192
9365,2.0,,,,67.0,,,,,8,note_on,,112.0,67.0,112.0,85520,222.70833333333331,192
9366,2.0,,,,67.0,,,,,88,note_on,,0.0,67.0,0.0,85608,222.9375,192
9367,2.0,,,,71.0,,,,,8,note_on,,112.0,71.0,112.0,85616,222.95833333333331,192
9368,2.0,,,,71.0,,,,,236,note_on,,0.0,71.0,0.0,85852,223.57291666666666,192
9369,2.0,,,,72.0,,,,,196,note_on,,112.0,72.0,112.0,86048,224.08333333333331,192
9370,2.0,,,,69.0,,,,,32,note_on,,112.0,69.0,112.0,86080,224.16666666666666,192
9371,2.0,,,,72.0,,,,,8,note_on,,0.0,72.0,0.0,86088,224.1875,192
9372,2.0,,,,69.0,,,,,80,note_on,,0.0,69.0,0.0,86168,224.39583333333331,192
9373,2.0,,,,72.0,,,,,24,note_on,,112.0,72.0,112.0,86192,224.45833333333331,192
9374,2.0,,,,72.0,,,,,88,note_on,,0.0,72.0,0.0,86280,224.6875,192
9375,2.0,,,,69.0,,,,,8,note_on,,112.0,69.0,112.0,86288,224.70833333333331,192
9376,2.0,,,,69.0,,,,,88,note_on,,0.0,69.0,0.0,86376,224.9375,192
9377,2.0,,,,72.0,,,,,8,note_on,,112.0,72.0,112.0,86384,224.95833333333331,192
9378,2.0,,,,72.0,,,,,88,note_on,,0.0,72.0,0.0,86472,225.1875,192
9379,2.0,,,,69.0,,,,,8,note_on,,112.0,69.0,112.0,86480,225.20833333333331,192
9380,2.0,,,,69.0,,,,,88,note_on,,0.0,69.0,0.0,86568,225.4375,192
9381,2.0,,,,71.0,,,,,248,note_on,,112.0,71.0,112.0,86816,226.08333333333331,192
9382,2.0,,,,67.0,,,,,32,note_on,,112.0,67.0,112.0,86848,226.16666666666666,192
9383,2.0,,,,71.0,,,,,8,note_on,,0.0,71.0,0.0,86856,226.1875,192
9384,2.0,,,,67.0,,,,,80,note_on,,0.0,67.0,0.0,86936,226.39583333333331,192
9385,2.0,,,,71.0,,,,,24,note_on,,112.0,71.0,112.0,86960,226.45833333333331,192
9386,2.0,,,,71.0,,,,,88,note_on,,0.0,71.0,0.0,87048,226.6875,192
9387,2.0,,,,67.0,,,,,8,note_on,,112.0,67.0,112.0,87056,226.70833333333331,192
9388,2.0,,,,67.0,,,,,88,note_on,,0.0,67.0,0.0,87144,226.9375,192
9389,2.0,,,,71.0,,,,,8,note_on,,112.0,71.0,112.0,87152,226.95833333333331,192
9390,2.0,,,,71.0,,,,,236,note_on,,0.0,71.0,0.0,87388,227.57291666666666,192
9391,2.0,,,,71.0,,,,,196,note_on,,112.0,71.0,112.0,87584,228.08333333333331,192
9392,2.0,,,,67.0,,,,,32,note_on,,112.0,67.0,112.0,87616,228.16666666666666,192
9393,2.0,,,,71.0,,,,,8,note_on,,0.0,71.0,0.0,87624,228.1875,192
9394,2.0,,,,67.0,,,,,80,note_on,,0.0,67.0,0.0,87704,228.39583333333331,192
9395,2.0,,,,71.0,,,,,24,note_on,,112.0,71.0,112.0,87728,228.45833333333331,192
9396,2.0,,,,71.0,,,,,88,note_on,,0.0,71.0,0.0,87816,228.6875,192
9397,2.0,,,,67.0,,,,,8,note_on,,112.0,67.0,112.0,87824,228.70833333333331,192
9398,2.0,,,,67.0,,,,,88,note_on,,0.0,67.0,0.0,87912,228.9375,192
9399,2.0,,,,71.0,,,,,8,note_on,,112.0,71.0,112.0,87920,228.95833333333331,192
9400,2.0,,,,71.0,,,,,88,note_on,,0.0,71.0,0.0,88008,229.1875,192
9401,2.0,,,,67.0,,,,,8,note_on,,112.0,67.0,112.0,88016,229.20833333333331,192
9402,2.0,,,,67.0,,,,,88,note_on,,0.0,67.0,0.0,88104,229.4375,192
9403,2.0,,,,71.0,,,,,248,note_on,,112.0,71.0,112.0,88352,230.08333333333331,192
9404,2.0,,,,67.0,,,,,32,note_on,,112.0,67.0,112.0,88384,230.16666666666666,192
9405,2.0,,,,71.0,,,,,8,note_on,,0.0,71.0,0.0,88392,230.1875,192
9406,2.0,,,,67.0,,,,,80,note_on,,0.0,67.0,0.0,88472,230.39583333333331,192
9407,2.0,,,,71.0,,,,,24,note_on,,112.0,71.0,112.0,88496,230.45833333333331,192
9408,2.0,,,,71.0,,,,,88,note_on,,0.0,71.0,0.0,88584,230.6875,192
9409,2.0,,,,67.0,,,,,8,note_on,,112.0,67.0,112.0,88592,230.70833333333331,192
9410,2.0,,,,67.0,,,,,88,note_on,,0.0,67.0,0.0,88680,230.9375,192
9411,2.0,,,,71.0,,,,,8,note_on,,112.0,71.0,112.0,88688,230.95833333333331,192
9412,2.0,,,,71.0,,,,,236,note_on,,0.0,71.0,0.0,88924,231.57291666666666,192
9413,2.0,,,,72.0,,,,,196,note_on,,112.0,72.0,112.0,89120,232.08333333333331,192
9414,2.0,,,,69.0,,,,,32,note_on,,112.0,69.0,112.0,89152,232.16666666666666,192
9415,2.0,,,,72.0,,,,,8,note_on,,0.0,72.0,0.0,89160,232.1875,192
9416,2.0,,,,69.0,,,,,80,note_on,,0.0,69.0,0.0,89240,232.39583333333331,192
9417,2.0,,,,72.0,,,,,24,note_on,,112.0,72.0,112.0,89264,232.45833333333331,192
9418,2.0,,,,72.0,,,,,88,note_on,,0.0,72.0,0.0,89352,232.6875,192
9419,2.0,,,,69.0,,,,,8,note_on,,112.0,69.0,112.0,89360,232.70833333333331,192
9420,2.0,,,,69.0,,,,,88,note_on,,0.0,69.0,0.0,89448,232.9375,192
9421,2.0,,,,72.0,,,,,8,note_on,,112.0,72.0,112.0,89456,232.95833333333331,192
9422,2.0,,,,72.0,,,,,88,note_on,,0.0,72.0,0.0,89544,233.1875,192
9423,2.0,,,,69.0,,,,,8,note_on,,112.0,69.0,112.0,89552,233.20833333333331,192
9424,2.0,,,,69.0,,,,,88,note_on,,0.0,69.0,0.0,89640,233.4375,192
9425,2.0,,,,71.0,,,,,248,note_on,,112.0,71.0,112.0,89888,234.08333333333331,192
9426,2.0,,,,67.0,,,,,32,note_on,,112.0,67.0,112.0,89920,234.16666666666666,192
9427,2.0,,,,71.0,,,,,8,note_on,,0.0,71.0,0.0,89928,234.1875,192
9428,2.0,,,,67.0,,,,,80,note_on,,0.0,67.0,0.0,90008,234.39583333333331,192
9429,2.0,,,,71.0,,,,,24,note_on,,112.0,71.0,112.0,90032,234.45833333333331,192
9430,2.0,,,,71.0,,,,,88,note_on,,0.0,71.0,0.0,90120,234.6875,192
9431,2.0,,,,67.0,,,,,8,note_on,,112.0,67.0,112.0,90128,234.70833333333331,192
9432,2.0,,,,67.0,,,,,88,note_on,,0.0,67.0,0.0,90216,234.9375,192
9433,2.0,,,,71.0,,,,,8,note_on,,112.0,71.0,112.0,90224,234.95833333333331,192
9434,2.0,,,,71.0,,,,,236,note_on,,0.0,71.0,0.0,90460,235.57291666666666,192
9435,2.0,,,,71.0,,,,,196,note_on,,112.0,71.0,112.0,90656,236.08333333333331,192
9436,2.0,,,,67.0,,,,,32,note_on,,110.0,67.0,110.0,90688,236.16666666666666,192
9437,2.0,,,,71.0,,,,,8,note_on,,0.0,71.0,0.0,90696,236.1875,192
9438,2.0,,,,67.0,,,,,80,note_on,,0.0,67.0,0.0,90776,236.39583333333331,192
9439,2.0,,,,71.0,,,,,24,note_on,,106.0,71.0,106.0,90800,236.45833333333331,192
9440,2.0,,,,71.0,,,,,88,note_on,,0.0,71.0,0.0,90888,236.6875,192
9441,2.0,,,,67.0,,,,,8,note_on,,103.0,67.0,103.0,90896,236.70833333333331,192
9442,2.0,,,,67.0,,,,,88,note_on,,0.0,67.0,0.0,90984,236.9375,192
9443,2.0,,,,71.0,,,,,8,note_on,,99.0,71.0,99.0,90992,236.95833333333331,192
9444,2.0,,,,71.0,,,,,88,note_on,,0.0,71.0,0.0,91080,237.1875,192
9445,2.0,,,,67.0,,,,,8,note_on,,93.0,67.0,93.0,91088,237.20833333333331,192
9446,2.0,,,,67.0,,,,,88,note_on,,0.0,67.0,0.0,91176,237.4375,192
9447,2.0,,,,71.0,,,,,248,note_on,,79.0,71.0,79.0,91424,238.08333333333331,192
9448,2.0,,,,67.0,,,,,32,note_on,,78.0,67.0,78.0,91456,238.16666666666666,192
9449,2.0,,,,71.0,,,,,8,note_on,,0.0,71.0,0.0,91464,238.1875,192
9450,2.0,,,,67.0,,,,,80,note_on,,0.0,67.0,0.0,91544,238.39583333333331,192
9451,2.0,,,,71.0,,,,,24,note_on,,74.0,71.0,74.0,91568,238.45833333333331,192
9452,2.0,,,,71.0,,,,,88,note_on,,0.0,71.0,0.0,91656,238.6875,192
9453,2.0,,,,67.0,,,,,8,note_on,,69.0,67.0,69.0,91664,238.70833333333331,192
9454,2.0,,,,67.0,,,,,88,note_on,,0.0,67.0,0.0,91752,238.9375,192
9455,2.0,,,,71.0,,,,,8,note_on,,64.0,71.0,64.0,91760,238.95833333333331,192
9456,2.0,,,,71.0,,,,,236,note_on,,0.0,71.0,0.0,91996,239.57291666666666,192
9457,2.0,,,,72.0,,,,,196,note_on,,41.0,72.0,41.0,92192,240.08333333333331,192
9458,2.0,,,,69.0,,,,,32,note_on,,39.0,69.0,39.0,92224,240.16666666666666,192
9459,2.0,,,,72.0,,,,,8,note_on,,0.0,72.0,0.0,92232,240.1875,192
9460,2.0,,,,69.0,,,,,80,note_on,,0.0,69.0,0.0,92312,240.39583333333331,192
9461,2.0,,,,72.0,,,,,24,note_on,,36.0,72.0,36.0,92336,240.45833333333331,192
9462,2.0,,,,72.0,,,,,88,note_on,,0.0,72.0,0.0,92424,240.6875,192
9463,2.0,,,,69.0,,,,,8,note_on,,34.0,69.0,34.0,92432,240.70833333333331,192
9464,2.0,,,,69.0,,,,,88,note_on,,0.0,69.0,0.0,92520,240.9375,192
9465,2.0,,,,72.0,,,,,8,note_on,,29.0,72.0,29.0,92528,240.95833333333331,192
9466,2.0,,,,72.0,,,,,88,note_on,,0.0,72.0,0.0,92616,241.1875,192
9467,2.0,,,,69.0,,,,,8,note_on,,26.0,69.0,26.0,92624,241.20833333333331,192
9468,2.0,,,,69.0,,,,,88,note_on,,0.0,69.0,0.0,92712,241.4375,192
9469,2.0,,,,71.0,,,,,248,note_on,,14.0,71.0,14.0,92960,242.08333333333331,192
9470,2.0,,,,67.0,,,,,32,note_on,,13.0,67.0,13.0,92992,242.16666666666666,192
9471,2.0,,,,71.0,,,,,8,note_on,,0.0,71.0,0.0,93000,242.1875,192
9472,2.0,,,,67.0,,,,,80,note_on,,0.0,67.0,0.0,93080,242.39583333333331,192
9473,2.0,,,,71.0,,,,,24,note_on,,10.0,71.0,10.0,93104,242.45833333333331,192
9474,2.0,,,,71.0,,,,,88,note_on,,0.0,71.0,0.0,93192,242.6875,192
9475,2.0,,,,67.0,,,,,8,note_on,,6.0,67.0,6.0,93200,242.70833333333331,192
9476,2.0,,,,67.0,,,,,88,note_on,,0.0,67.0,0.0,93288,242.9375,192
9477,2.0,,,,71.0,,,,,8,note_on,,1.0,71.0,1.0,93296,242.95833333333331,192
9478,2.0,,,,71.0,,,,,236,note_on,,0.0,71.0,0.0,93532,243.57291666666666,192
9479,,,,,,,,,,0,end_of_track,,,,,0,0.0,192
9480,6.0,0.0,,,,,,,,0,control_change,0.0,,,,0,0.0,192
9481,6.0,,,,,,53.0,,,0,program_change,,,,,0,0.0,192
9482,,,"(74, 65, 90, 50, 1, 0, 0, 0, 0, 0, 0, 0, 0, 0, 0, 0, 0, 0, 0, 0)",,,,,,,0,sequencer_specific,,,,,0,0.0,192
9483,6.0,10.0,,,,,,,,0,control_change,1.0,,,,0,0.0,192
9484,6.0,7.0,,,,,,,,0,control_change,59.0,,,,0,0.0,192
9485,,,,Voice Oohs,,,,,,0,track_name,,,,,0,0.0,192
9486,6.0,91.0,,,,,,,,0,control_change,40.0,,,,0,0.0,192
9487,6.0,93.0,,,,,,,,0,control_change,0.0,,,,0,0.0,192
9488,6.0,,,,59.0,,,,,19380,note_on,,112.0,59.0,112.0,19380,50.46875,192
9489,6.0,,,,59.0,,,,,40,note_on,,0.0,59.0,0.0,19420,50.572916666666664,192
9490,6.0,,,,55.0,,,,,4,note_on,,112.0,55.0,112.0,19424,50.58333333333333,192
9491,6.0,,,,55.0,,,,,88,note_on,,0.0,55.0,0.0,19512,50.8125,192
9492,6.0,,,,59.0,,,,,24,note_on,,112.0,59.0,112.0,19536,50.875,192
9493,6.0,,,,59.0,,,,,88,note_on,,0.0,59.0,0.0,19624,51.104166666666664,192
9494,6.0,,,,55.0,,,,,8,note_on,,112.0,55.0,112.0,19632,51.125,192
9495,6.0,,,,55.0,,,,,88,note_on,,0.0,55.0,0.0,19720,51.354166666666664,192
9496,6.0,,,,59.0,,,,,8,note_on,,112.0,59.0,112.0,19728,51.375,192
9497,6.0,,,,59.0,,,,,88,note_on,,0.0,59.0,0.0,19816,51.604166666666664,192
9498,6.0,,,,55.0,,,,,8,note_on,,112.0,55.0,112.0,19824,51.625,192
9499,6.0,,,,55.0,,,,,88,note_on,,0.0,55.0,0.0,19912,51.854166666666664,192
9500,6.0,,,,59.0,,,,,236,note_on,,112.0,59.0,112.0,20148,52.46875,192
9501,6.0,,,,59.0,,,,,40,note_on,,0.0,59.0,0.0,20188,52.572916666666664,192
9502,6.0,,,,55.0,,,,,4,note_on,,112.0,55.0,112.0,20192,52.58333333333333,192
9503,6.0,,,,55.0,,,,,88,note_on,,0.0,55.0,0.0,20280,52.8125,192
9504,6.0,,,,59.0,,,,,24,note_on,,112.0,59.0,112.0,20304,52.875,192
9505,6.0,,,,59.0,,,,,88,note_on,,0.0,59.0,0.0,20392,53.104166666666664,192
9506,6.0,,,,55.0,,,,,8,note_on,,112.0,55.0,112.0,20400,53.125,192
9507,6.0,,,,55.0,,,,,88,note_on,,0.0,55.0,0.0,20488,53.354166666666664,192
9508,6.0,,,,59.0,,,,,8,note_on,,112.0,59.0,112.0,20496,53.375,192
9509,6.0,,,,59.0,,,,,236,note_on,,0.0,59.0,0.0,20732,53.98958333333333,192
9510,6.0,,,,60.0,,,,,184,note_on,,112.0,60.0,112.0,20916,54.46875,192
9511,6.0,,,,60.0,,,,,40,note_on,,0.0,60.0,0.0,20956,54.572916666666664,192
9512,6.0,,,,57.0,,,,,4,note_on,,112.0,57.0,112.0,20960,54.58333333333333,192
9513,6.0,,,,57.0,,,,,88,note_on,,0.0,57.0,0.0,21048,54.8125,192
9514,6.0,,,,60.0,,,,,24,note_on,,112.0,60.0,112.0,21072,54.875,192
9515,6.0,,,,60.0,,,,,88,note_on,,0.0,60.0,0.0,21160,55.104166666666664,192
9516,6.0,,,,57.0,,,,,8,note_on,,112.0,57.0,112.0,21168,55.125,192
9517,6.0,,,,57.0,,,,,88,note_on,,0.0,57.0,0.0,21256,55.354166666666664,192
9518,6.0,,,,60.0,,,,,8,note_on,,112.0,60.0,112.0,21264,55.375,192
9519,6.0,,,,60.0,,,,,88,note_on,,0.0,60.0,0.0,21352,55.604166666666664,192
9520,6.0,,,,57.0,,,,,8,note_on,,112.0,57.0,112.0,21360,55.625,192
9521,6.0,,,,57.0,,,,,88,note_on,,0.0,57.0,0.0,21448,55.854166666666664,192
9522,6.0,,,,59.0,,,,,236,note_on,,112.0,59.0,112.0,21684,56.46875,192
9523,6.0,,,,59.0,,,,,40,note_on,,0.0,59.0,0.0,21724,56.572916666666664,192
9524,6.0,,,,55.0,,,,,4,note_on,,112.0,55.0,112.0,21728,56.58333333333333,192
9525,6.0,,,,55.0,,,,,88,note_on,,0.0,55.0,0.0,21816,56.8125,192
9526,6.0,,,,59.0,,,,,24,note_on,,112.0,59.0,112.0,21840,56.875,192
9527,6.0,,,,59.0,,,,,88,note_on,,0.0,59.0,0.0,21928,57.104166666666664,192
9528,6.0,,,,55.0,,,,,8,note_on,,112.0,55.0,112.0,21936,57.125,192
9529,6.0,,,,55.0,,,,,88,note_on,,0.0,55.0,0.0,22024,57.354166666666664,192
9530,6.0,,,,59.0,,,,,8,note_on,,112.0,59.0,112.0,22032,57.375,192
9531,6.0,,,,59.0,,,,,236,note_on,,0.0,59.0,0.0,22268,57.98958333333333,192
9532,6.0,,,,59.0,,,,,184,note_on,,112.0,59.0,112.0,22452,58.46875,192
9533,6.0,,,,59.0,,,,,40,note_on,,0.0,59.0,0.0,22492,58.572916666666664,192
9534,6.0,,,,55.0,,,,,4,note_on,,112.0,55.0,112.0,22496,58.58333333333333,192
9535,6.0,,,,55.0,,,,,88,note_on,,0.0,55.0,0.0,22584,58.8125,192
9536,6.0,,,,59.0,,,,,24,note_on,,112.0,59.0,112.0,22608,58.875,192
9537,6.0,,,,59.0,,,,,88,note_on,,0.0,59.0,0.0,22696,59.104166666666664,192
9538,6.0,,,,55.0,,,,,8,note_on,,112.0,55.0,112.0,22704,59.125,192
9539,6.0,,,,55.0,,,,,88,note_on,,0.0,55.0,0.0,22792,59.354166666666664,192
9540,6.0,,,,59.0,,,,,8,note_on,,112.0,59.0,112.0,22800,59.375,192
9541,6.0,,,,59.0,,,,,88,note_on,,0.0,59.0,0.0,22888,59.604166666666664,192
9542,6.0,,,,55.0,,,,,8,note_on,,112.0,55.0,112.0,22896,59.625,192
9543,6.0,,,,55.0,,,,,88,note_on,,0.0,55.0,0.0,22984,59.854166666666664,192
9544,6.0,,,,59.0,,,,,236,note_on,,112.0,59.0,112.0,23220,60.46875,192
9545,6.0,,,,59.0,,,,,40,note_on,,0.0,59.0,0.0,23260,60.572916666666664,192
9546,6.0,,,,55.0,,,,,4,note_on,,112.0,55.0,112.0,23264,60.58333333333333,192
9547,6.0,,,,55.0,,,,,88,note_on,,0.0,55.0,0.0,23352,60.8125,192
9548,6.0,,,,59.0,,,,,24,note_on,,112.0,59.0,112.0,23376,60.875,192
9549,6.0,,,,59.0,,,,,88,note_on,,0.0,59.0,0.0,23464,61.104166666666664,192
9550,6.0,,,,55.0,,,,,8,note_on,,112.0,55.0,112.0,23472,61.125,192
9551,6.0,,,,55.0,,,,,88,note_on,,0.0,55.0,0.0,23560,61.354166666666664,192
9552,6.0,,,,59.0,,,,,8,note_on,,112.0,59.0,112.0,23568,61.375,192
9553,6.0,,,,59.0,,,,,236,note_on,,0.0,59.0,0.0,23804,61.98958333333333,192
9554,6.0,,,,60.0,,,,,184,note_on,,112.0,60.0,112.0,23988,62.46875,192
9555,6.0,,,,60.0,,,,,40,note_on,,0.0,60.0,0.0,24028,62.572916666666664,192
9556,6.0,,,,57.0,,,,,4,note_on,,112.0,57.0,112.0,24032,62.58333333333333,192
9557,6.0,,,,57.0,,,,,88,note_on,,0.0,57.0,0.0,24120,62.8125,192
9558,6.0,,,,60.0,,,,,24,note_on,,112.0,60.0,112.0,24144,62.875,192
9559,6.0,,,,60.0,,,,,88,note_on,,0.0,60.0,0.0,24232,63.104166666666664,192
9560,6.0,,,,57.0,,,,,8,note_on,,112.0,57.0,112.0,24240,63.125,192
9561,6.0,,,,57.0,,,,,88,note_on,,0.0,57.0,0.0,24328,63.354166666666664,192
9562,6.0,,,,60.0,,,,,8,note_on,,112.0,60.0,112.0,24336,63.375,192
9563,6.0,,,,60.0,,,,,88,note_on,,0.0,60.0,0.0,24424,63.604166666666664,192
9564,6.0,,,,57.0,,,,,8,note_on,,112.0,57.0,112.0,24432,63.625,192
9565,6.0,,,,57.0,,,,,88,note_on,,0.0,57.0,0.0,24520,63.854166666666664,192
9566,6.0,,,,59.0,,,,,236,note_on,,112.0,59.0,112.0,24756,64.46875,192
9567,6.0,,,,59.0,,,,,40,note_on,,0.0,59.0,0.0,24796,64.57291666666666,192
9568,6.0,,,,55.0,,,,,4,note_on,,112.0,55.0,112.0,24800,64.58333333333333,192
9569,6.0,,,,55.0,,,,,88,note_on,,0.0,55.0,0.0,24888,64.8125,192
9570,6.0,,,,59.0,,,,,24,note_on,,112.0,59.0,112.0,24912,64.875,192
9571,6.0,,,,59.0,,,,,88,note_on,,0.0,59.0,0.0,25000,65.10416666666666,192
9572,6.0,,,,55.0,,,,,8,note_on,,112.0,55.0,112.0,25008,65.125,192
9573,6.0,,,,55.0,,,,,88,note_on,,0.0,55.0,0.0,25096,65.35416666666666,192
9574,6.0,,,,59.0,,,,,8,note_on,,112.0,59.0,112.0,25104,65.375,192
9575,6.0,,,,59.0,,,,,236,note_on,,0.0,59.0,0.0,25340,65.98958333333333,192
9576,6.0,,,,59.0,,,,,12472,note_on,,112.0,59.0,112.0,37812,98.46875,192
9577,6.0,,,,59.0,,,,,40,note_on,,0.0,59.0,0.0,37852,98.57291666666666,192
9578,6.0,,,,55.0,,,,,4,note_on,,112.0,55.0,112.0,37856,98.58333333333333,192
9579,6.0,,,,55.0,,,,,88,note_on,,0.0,55.0,0.0,37944,98.8125,192
9580,6.0,,,,59.0,,,,,24,note_on,,112.0,59.0,112.0,37968,98.875,192
9581,6.0,,,,59.0,,,,,88,note_on,,0.0,59.0,0.0,38056,99.10416666666666,192
9582,6.0,,,,55.0,,,,,8,note_on,,112.0,55.0,112.0,38064,99.125,192
9583,6.0,,,,55.0,,,,,88,note_on,,0.0,55.0,0.0,38152,99.35416666666666,192
9584,6.0,,,,59.0,,,,,8,note_on,,112.0,59.0,112.0,38160,99.375,192
9585,6.0,,,,59.0,,,,,88,note_on,,0.0,59.0,0.0,38248,99.60416666666666,192
9586,6.0,,,,55.0,,,,,8,note_on,,112.0,55.0,112.0,38256,99.625,192
9587,6.0,,,,55.0,,,,,88,note_on,,0.0,55.0,0.0,38344,99.85416666666666,192
9588,6.0,,,,59.0,,,,,236,note_on,,112.0,59.0,112.0,38580,100.46875,192
9589,6.0,,,,59.0,,,,,40,note_on,,0.0,59.0,0.0,38620,100.57291666666666,192
9590,6.0,,,,55.0,,,,,4,note_on,,112.0,55.0,112.0,38624,100.58333333333333,192
9591,6.0,,,,55.0,,,,,88,note_on,,0.0,55.0,0.0,38712,100.8125,192
9592,6.0,,,,59.0,,,,,24,note_on,,112.0,59.0,112.0,38736,100.875,192
9593,6.0,,,,59.0,,,,,88,note_on,,0.0,59.0,0.0,38824,101.10416666666666,192
9594,6.0,,,,55.0,,,,,8,note_on,,112.0,55.0,112.0,38832,101.125,192
9595,6.0,,,,55.0,,,,,88,note_on,,0.0,55.0,0.0,38920,101.35416666666666,192
9596,6.0,,,,59.0,,,,,8,note_on,,112.0,59.0,112.0,38928,101.375,192
9597,6.0,,,,59.0,,,,,236,note_on,,0.0,59.0,0.0,39164,101.98958333333333,192
9598,6.0,,,,60.0,,,,,184,note_on,,112.0,60.0,112.0,39348,102.46875,192
9599,6.0,,,,60.0,,,,,40,note_on,,0.0,60.0,0.0,39388,102.57291666666666,192
9600,6.0,,,,57.0,,,,,4,note_on,,112.0,57.0,112.0,39392,102.58333333333333,192
9601,6.0,,,,57.0,,,,,88,note_on,,0.0,57.0,0.0,39480,102.8125,192
9602,6.0,,,,60.0,,,,,24,note_on,,112.0,60.0,112.0,39504,102.875,192
9603,6.0,,,,60.0,,,,,88,note_on,,0.0,60.0,0.0,39592,103.10416666666666,192
9604,6.0,,,,57.0,,,,,8,note_on,,112.0,57.0,112.0,39600,103.125,192
9605,6.0,,,,57.0,,,,,88,note_on,,0.0,57.0,0.0,39688,103.35416666666666,192
9606,6.0,,,,60.0,,,,,8,note_on,,112.0,60.0,112.0,39696,103.375,192
9607,6.0,,,,60.0,,,,,88,note_on,,0.0,60.0,0.0,39784,103.60416666666666,192
9608,6.0,,,,57.0,,,,,8,note_on,,112.0,57.0,112.0,39792,103.625,192
9609,6.0,,,,57.0,,,,,88,note_on,,0.0,57.0,0.0,39880,103.85416666666666,192
9610,6.0,,,,59.0,,,,,236,note_on,,112.0,59.0,112.0,40116,104.46875,192
9611,6.0,,,,59.0,,,,,40,note_on,,0.0,59.0,0.0,40156,104.57291666666666,192
9612,6.0,,,,55.0,,,,,4,note_on,,112.0,55.0,112.0,40160,104.58333333333333,192
9613,6.0,,,,55.0,,,,,88,note_on,,0.0,55.0,0.0,40248,104.8125,192
9614,6.0,,,,59.0,,,,,24,note_on,,112.0,59.0,112.0,40272,104.875,192
9615,6.0,,,,59.0,,,,,88,note_on,,0.0,59.0,0.0,40360,105.10416666666666,192
9616,6.0,,,,55.0,,,,,8,note_on,,112.0,55.0,112.0,40368,105.125,192
9617,6.0,,,,55.0,,,,,88,note_on,,0.0,55.0,0.0,40456,105.35416666666666,192
9618,6.0,,,,59.0,,,,,8,note_on,,112.0,59.0,112.0,40464,105.375,192
9619,6.0,,,,59.0,,,,,236,note_on,,0.0,59.0,0.0,40700,105.98958333333333,192
9620,6.0,,,,59.0,,,,,184,note_on,,112.0,59.0,112.0,40884,106.46875,192
9621,6.0,,,,59.0,,,,,40,note_on,,0.0,59.0,0.0,40924,106.57291666666666,192
9622,6.0,,,,55.0,,,,,4,note_on,,112.0,55.0,112.0,40928,106.58333333333333,192
9623,6.0,,,,55.0,,,,,88,note_on,,0.0,55.0,0.0,41016,106.8125,192
9624,6.0,,,,59.0,,,,,24,note_on,,112.0,59.0,112.0,41040,106.875,192
9625,6.0,,,,59.0,,,,,88,note_on,,0.0,59.0,0.0,41128,107.10416666666666,192
9626,6.0,,,,55.0,,,,,8,note_on,,112.0,55.0,112.0,41136,107.125,192
9627,6.0,,,,55.0,,,,,88,note_on,,0.0,55.0,0.0,41224,107.35416666666666,192
9628,6.0,,,,59.0,,,,,8,note_on,,112.0,59.0,112.0,41232,107.375,192
9629,6.0,,,,59.0,,,,,88,note_on,,0.0,59.0,0.0,41320,107.60416666666666,192
9630,6.0,,,,55.0,,,,,8,note_on,,112.0,55.0,112.0,41328,107.625,192
9631,6.0,,,,55.0,,,,,88,note_on,,0.0,55.0,0.0,41416,107.85416666666666,192
9632,6.0,,,,59.0,,,,,236,note_on,,112.0,59.0,112.0,41652,108.46875,192
9633,6.0,,,,59.0,,,,,40,note_on,,0.0,59.0,0.0,41692,108.57291666666666,192
9634,6.0,,,,55.0,,,,,4,note_on,,112.0,55.0,112.0,41696,108.58333333333333,192
9635,6.0,,,,55.0,,,,,88,note_on,,0.0,55.0,0.0,41784,108.8125,192
9636,6.0,,,,59.0,,,,,24,note_on,,112.0,59.0,112.0,41808,108.875,192
9637,6.0,,,,59.0,,,,,88,note_on,,0.0,59.0,0.0,41896,109.10416666666666,192
9638,6.0,,,,55.0,,,,,8,note_on,,112.0,55.0,112.0,41904,109.125,192
9639,6.0,,,,55.0,,,,,88,note_on,,0.0,55.0,0.0,41992,109.35416666666666,192
9640,6.0,,,,59.0,,,,,8,note_on,,112.0,59.0,112.0,42000,109.375,192
9641,6.0,,,,59.0,,,,,236,note_on,,0.0,59.0,0.0,42236,109.98958333333333,192
9642,6.0,,,,60.0,,,,,184,note_on,,112.0,60.0,112.0,42420,110.46875,192
9643,6.0,,,,60.0,,,,,40,note_on,,0.0,60.0,0.0,42460,110.57291666666666,192
9644,6.0,,,,57.0,,,,,4,note_on,,112.0,57.0,112.0,42464,110.58333333333333,192
9645,6.0,,,,57.0,,,,,88,note_on,,0.0,57.0,0.0,42552,110.8125,192
9646,6.0,,,,60.0,,,,,24,note_on,,112.0,60.0,112.0,42576,110.875,192
9647,6.0,,,,60.0,,,,,88,note_on,,0.0,60.0,0.0,42664,111.10416666666666,192
9648,6.0,,,,57.0,,,,,8,note_on,,112.0,57.0,112.0,42672,111.125,192
9649,6.0,,,,57.0,,,,,88,note_on,,0.0,57.0,0.0,42760,111.35416666666666,192
9650,6.0,,,,60.0,,,,,8,note_on,,112.0,60.0,112.0,42768,111.375,192
9651,6.0,,,,60.0,,,,,88,note_on,,0.0,60.0,0.0,42856,111.60416666666666,192
9652,6.0,,,,57.0,,,,,8,note_on,,112.0,57.0,112.0,42864,111.625,192
9653,6.0,,,,57.0,,,,,88,note_on,,0.0,57.0,0.0,42952,111.85416666666666,192
9654,6.0,,,,59.0,,,,,236,note_on,,112.0,59.0,112.0,43188,112.46875,192
9655,6.0,,,,59.0,,,,,40,note_on,,0.0,59.0,0.0,43228,112.57291666666666,192
9656,6.0,,,,55.0,,,,,4,note_on,,112.0,55.0,112.0,43232,112.58333333333333,192
9657,6.0,,,,55.0,,,,,88,note_on,,0.0,55.0,0.0,43320,112.8125,192
9658,6.0,,,,59.0,,,,,24,note_on,,112.0,59.0,112.0,43344,112.875,192
9659,6.0,,,,59.0,,,,,88,note_on,,0.0,59.0,0.0,43432,113.10416666666666,192
9660,6.0,,,,55.0,,,,,8,note_on,,112.0,55.0,112.0,43440,113.125,192
9661,6.0,,,,55.0,,,,,88,note_on,,0.0,55.0,0.0,43528,113.35416666666666,192
9662,6.0,,,,59.0,,,,,8,note_on,,112.0,59.0,112.0,43536,113.375,192
9663,6.0,,,,59.0,,,,,236,note_on,,0.0,59.0,0.0,43772,113.98958333333333,192
9664,6.0,,,,59.0,,,,,6328,note_on,,112.0,59.0,112.0,50100,130.46875,192
9665,6.0,,,,59.0,,,,,40,note_on,,0.0,59.0,0.0,50140,130.57291666666666,192
9666,6.0,,,,55.0,,,,,4,note_on,,112.0,55.0,112.0,50144,130.58333333333331,192
9667,6.0,,,,55.0,,,,,88,note_on,,0.0,55.0,0.0,50232,130.8125,192
9668,6.0,,,,59.0,,,,,24,note_on,,112.0,59.0,112.0,50256,130.875,192
9669,6.0,,,,59.0,,,,,88,note_on,,0.0,59.0,0.0,50344,131.10416666666666,192
9670,6.0,,,,55.0,,,,,8,note_on,,112.0,55.0,112.0,50352,131.125,192
9671,6.0,,,,55.0,,,,,88,note_on,,0.0,55.0,0.0,50440,131.35416666666666,192
9672,6.0,,,,59.0,,,,,8,note_on,,112.0,59.0,112.0,50448,131.375,192
9673,6.0,,,,59.0,,,,,88,note_on,,0.0,59.0,0.0,50536,131.60416666666666,192
9674,6.0,,,,55.0,,,,,8,note_on,,112.0,55.0,112.0,50544,131.625,192
9675,6.0,,,,55.0,,,,,88,note_on,,0.0,55.0,0.0,50632,131.85416666666666,192
9676,6.0,,,,59.0,,,,,236,note_on,,112.0,59.0,112.0,50868,132.46875,192
9677,6.0,,,,59.0,,,,,40,note_on,,0.0,59.0,0.0,50908,132.57291666666666,192
9678,6.0,,,,55.0,,,,,4,note_on,,112.0,55.0,112.0,50912,132.58333333333331,192
9679,6.0,,,,55.0,,,,,88,note_on,,0.0,55.0,0.0,51000,132.8125,192
9680,6.0,,,,59.0,,,,,24,note_on,,112.0,59.0,112.0,51024,132.875,192
9681,6.0,,,,59.0,,,,,88,note_on,,0.0,59.0,0.0,51112,133.10416666666666,192
9682,6.0,,,,55.0,,,,,8,note_on,,112.0,55.0,112.0,51120,133.125,192
9683,6.0,,,,55.0,,,,,88,note_on,,0.0,55.0,0.0,51208,133.35416666666666,192
9684,6.0,,,,59.0,,,,,8,note_on,,112.0,59.0,112.0,51216,133.375,192
9685,6.0,,,,59.0,,,,,236,note_on,,0.0,59.0,0.0,51452,133.98958333333331,192
9686,6.0,,,,60.0,,,,,184,note_on,,112.0,60.0,112.0,51636,134.46875,192
9687,6.0,,,,60.0,,,,,40,note_on,,0.0,60.0,0.0,51676,134.57291666666666,192
9688,6.0,,,,57.0,,,,,4,note_on,,112.0,57.0,112.0,51680,134.58333333333331,192
9689,6.0,,,,57.0,,,,,88,note_on,,0.0,57.0,0.0,51768,134.8125,192
9690,6.0,,,,60.0,,,,,24,note_on,,112.0,60.0,112.0,51792,134.875,192
9691,6.0,,,,60.0,,,,,88,note_on,,0.0,60.0,0.0,51880,135.10416666666666,192
9692,6.0,,,,57.0,,,,,8,note_on,,112.0,57.0,112.0,51888,135.125,192
9693,6.0,,,,57.0,,,,,88,note_on,,0.0,57.0,0.0,51976,135.35416666666666,192
9694,6.0,,,,60.0,,,,,8,note_on,,112.0,60.0,112.0,51984,135.375,192
9695,6.0,,,,60.0,,,,,88,note_on,,0.0,60.0,0.0,52072,135.60416666666666,192
9696,6.0,,,,57.0,,,,,8,note_on,,112.0,57.0,112.0,52080,135.625,192
9697,6.0,,,,57.0,,,,,88,note_on,,0.0,57.0,0.0,52168,135.85416666666666,192
9698,6.0,,,,59.0,,,,,236,note_on,,112.0,59.0,112.0,52404,136.46875,192
9699,6.0,,,,59.0,,,,,40,note_on,,0.0,59.0,0.0,52444,136.57291666666666,192
9700,6.0,,,,55.0,,,,,4,note_on,,112.0,55.0,112.0,52448,136.58333333333331,192
9701,6.0,,,,55.0,,,,,88,note_on,,0.0,55.0,0.0,52536,136.8125,192
9702,6.0,,,,59.0,,,,,24,note_on,,112.0,59.0,112.0,52560,136.875,192
9703,6.0,,,,59.0,,,,,88,note_on,,0.0,59.0,0.0,52648,137.10416666666666,192
9704,6.0,,,,55.0,,,,,8,note_on,,112.0,55.0,112.0,52656,137.125,192
9705,6.0,,,,55.0,,,,,88,note_on,,0.0,55.0,0.0,52744,137.35416666666666,192
9706,6.0,,,,59.0,,,,,8,note_on,,112.0,59.0,112.0,52752,137.375,192
9707,6.0,,,,59.0,,,,,236,note_on,,0.0,59.0,0.0,52988,137.98958333333331,192
9708,6.0,,,,59.0,,,,,184,note_on,,112.0,59.0,112.0,53172,138.46875,192
9709,6.0,,,,59.0,,,,,40,note_on,,0.0,59.0,0.0,53212,138.57291666666666,192
9710,6.0,,,,55.0,,,,,4,note_on,,112.0,55.0,112.0,53216,138.58333333333331,192
9711,6.0,,,,55.0,,,,,88,note_on,,0.0,55.0,0.0,53304,138.8125,192
9712,6.0,,,,59.0,,,,,24,note_on,,112.0,59.0,112.0,53328,138.875,192
9713,6.0,,,,59.0,,,,,88,note_on,,0.0,59.0,0.0,53416,139.10416666666666,192
9714,6.0,,,,55.0,,,,,8,note_on,,112.0,55.0,112.0,53424,139.125,192
9715,6.0,,,,55.0,,,,,88,note_on,,0.0,55.0,0.0,53512,139.35416666666666,192
9716,6.0,,,,59.0,,,,,8,note_on,,112.0,59.0,112.0,53520,139.375,192
9717,6.0,,,,59.0,,,,,88,note_on,,0.0,59.0,0.0,53608,139.60416666666666,192
9718,6.0,,,,55.0,,,,,8,note_on,,112.0,55.0,112.0,53616,139.625,192
9719,6.0,,,,55.0,,,,,88,note_on,,0.0,55.0,0.0,53704,139.85416666666666,192
9720,6.0,,,,59.0,,,,,236,note_on,,112.0,59.0,112.0,53940,140.46875,192
9721,6.0,,,,59.0,,,,,40,note_on,,0.0,59.0,0.0,53980,140.57291666666666,192
9722,6.0,,,,55.0,,,,,4,note_on,,112.0,55.0,112.0,53984,140.58333333333331,192
9723,6.0,,,,55.0,,,,,88,note_on,,0.0,55.0,0.0,54072,140.8125,192
9724,6.0,,,,59.0,,,,,24,note_on,,112.0,59.0,112.0,54096,140.875,192
9725,6.0,,,,59.0,,,,,88,note_on,,0.0,59.0,0.0,54184,141.10416666666666,192
9726,6.0,,,,55.0,,,,,8,note_on,,112.0,55.0,112.0,54192,141.125,192
9727,6.0,,,,55.0,,,,,88,note_on,,0.0,55.0,0.0,54280,141.35416666666666,192
9728,6.0,,,,59.0,,,,,8,note_on,,112.0,59.0,112.0,54288,141.375,192
9729,6.0,,,,59.0,,,,,236,note_on,,0.0,59.0,0.0,54524,141.98958333333331,192
9730,6.0,,,,60.0,,,,,184,note_on,,112.0,60.0,112.0,54708,142.46875,192
9731,6.0,,,,60.0,,,,,40,note_on,,0.0,60.0,0.0,54748,142.57291666666666,192
9732,6.0,,,,57.0,,,,,4,note_on,,112.0,57.0,112.0,54752,142.58333333333331,192
9733,6.0,,,,57.0,,,,,88,note_on,,0.0,57.0,0.0,54840,142.8125,192
9734,6.0,,,,60.0,,,,,24,note_on,,112.0,60.0,112.0,54864,142.875,192
9735,6.0,,,,60.0,,,,,88,note_on,,0.0,60.0,0.0,54952,143.10416666666666,192
9736,6.0,,,,57.0,,,,,8,note_on,,112.0,57.0,112.0,54960,143.125,192
9737,6.0,,,,57.0,,,,,88,note_on,,0.0,57.0,0.0,55048,143.35416666666666,192
9738,6.0,,,,60.0,,,,,8,note_on,,112.0,60.0,112.0,55056,143.375,192
9739,6.0,,,,60.0,,,,,88,note_on,,0.0,60.0,0.0,55144,143.60416666666666,192
9740,6.0,,,,57.0,,,,,8,note_on,,112.0,57.0,112.0,55152,143.625,192
9741,6.0,,,,57.0,,,,,88,note_on,,0.0,57.0,0.0,55240,143.85416666666666,192
9742,6.0,,,,59.0,,,,,236,note_on,,112.0,59.0,112.0,55476,144.46875,192
9743,6.0,,,,59.0,,,,,40,note_on,,0.0,59.0,0.0,55516,144.57291666666666,192
9744,6.0,,,,55.0,,,,,4,note_on,,112.0,55.0,112.0,55520,144.58333333333331,192
9745,6.0,,,,55.0,,,,,88,note_on,,0.0,55.0,0.0,55608,144.8125,192
9746,6.0,,,,59.0,,,,,24,note_on,,112.0,59.0,112.0,55632,144.875,192
9747,6.0,,,,59.0,,,,,88,note_on,,0.0,59.0,0.0,55720,145.10416666666666,192
9748,6.0,,,,55.0,,,,,8,note_on,,112.0,55.0,112.0,55728,145.125,192
9749,6.0,,,,55.0,,,,,88,note_on,,0.0,55.0,0.0,55816,145.35416666666666,192
9750,6.0,,,,59.0,,,,,8,note_on,,112.0,59.0,112.0,55824,145.375,192
9751,6.0,,,,59.0,,,,,236,note_on,,0.0,59.0,0.0,56060,145.98958333333331,192
9752,6.0,,,,59.0,,,,,184,note_on,,112.0,59.0,112.0,56244,146.46875,192
9753,6.0,,,,59.0,,,,,40,note_on,,0.0,59.0,0.0,56284,146.57291666666666,192
9754,6.0,,,,55.0,,,,,4,note_on,,112.0,55.0,112.0,56288,146.58333333333331,192
9755,6.0,,,,55.0,,,,,88,note_on,,0.0,55.0,0.0,56376,146.8125,192
9756,6.0,,,,59.0,,,,,24,note_on,,112.0,59.0,112.0,56400,146.875,192
9757,6.0,,,,59.0,,,,,88,note_on,,0.0,59.0,0.0,56488,147.10416666666666,192
9758,6.0,,,,55.0,,,,,8,note_on,,112.0,55.0,112.0,56496,147.125,192
9759,6.0,,,,55.0,,,,,88,note_on,,0.0,55.0,0.0,56584,147.35416666666666,192
9760,6.0,,,,59.0,,,,,8,note_on,,112.0,59.0,112.0,56592,147.375,192
9761,6.0,,,,59.0,,,,,88,note_on,,0.0,59.0,0.0,56680,147.60416666666666,192
9762,6.0,,,,55.0,,,,,8,note_on,,112.0,55.0,112.0,56688,147.625,192
9763,6.0,,,,55.0,,,,,88,note_on,,0.0,55.0,0.0,56776,147.85416666666666,192
9764,6.0,,,,59.0,,,,,236,note_on,,112.0,59.0,112.0,57012,148.46875,192
9765,6.0,,,,59.0,,,,,40,note_on,,0.0,59.0,0.0,57052,148.57291666666666,192
9766,6.0,,,,55.0,,,,,4,note_on,,112.0,55.0,112.0,57056,148.58333333333331,192
9767,6.0,,,,55.0,,,,,88,note_on,,0.0,55.0,0.0,57144,148.8125,192
9768,6.0,,,,59.0,,,,,24,note_on,,112.0,59.0,112.0,57168,148.875,192
9769,6.0,,,,59.0,,,,,88,note_on,,0.0,59.0,0.0,57256,149.10416666666666,192
9770,6.0,,,,55.0,,,,,8,note_on,,112.0,55.0,112.0,57264,149.125,192
9771,6.0,,,,55.0,,,,,88,note_on,,0.0,55.0,0.0,57352,149.35416666666666,192
9772,6.0,,,,59.0,,,,,8,note_on,,112.0,59.0,112.0,57360,149.375,192
9773,6.0,,,,59.0,,,,,236,note_on,,0.0,59.0,0.0,57596,149.98958333333331,192
9774,6.0,,,,60.0,,,,,184,note_on,,112.0,60.0,112.0,57780,150.46875,192
9775,6.0,,,,60.0,,,,,40,note_on,,0.0,60.0,0.0,57820,150.57291666666666,192
9776,6.0,,,,57.0,,,,,4,note_on,,112.0,57.0,112.0,57824,150.58333333333331,192
9777,6.0,,,,57.0,,,,,88,note_on,,0.0,57.0,0.0,57912,150.8125,192
9778,6.0,,,,60.0,,,,,24,note_on,,112.0,60.0,112.0,57936,150.875,192
9779,6.0,,,,60.0,,,,,88,note_on,,0.0,60.0,0.0,58024,151.10416666666666,192
9780,6.0,,,,57.0,,,,,8,note_on,,112.0,57.0,112.0,58032,151.125,192
9781,6.0,,,,57.0,,,,,88,note_on,,0.0,57.0,0.0,58120,151.35416666666666,192
9782,6.0,,,,60.0,,,,,8,note_on,,112.0,60.0,112.0,58128,151.375,192
9783,6.0,,,,60.0,,,,,88,note_on,,0.0,60.0,0.0,58216,151.60416666666666,192
9784,6.0,,,,57.0,,,,,8,note_on,,112.0,57.0,112.0,58224,151.625,192
9785,6.0,,,,57.0,,,,,88,note_on,,0.0,57.0,0.0,58312,151.85416666666666,192
9786,6.0,,,,59.0,,,,,236,note_on,,112.0,59.0,112.0,58548,152.46875,192
9787,6.0,,,,59.0,,,,,40,note_on,,0.0,59.0,0.0,58588,152.57291666666666,192
9788,6.0,,,,55.0,,,,,4,note_on,,112.0,55.0,112.0,58592,152.58333333333331,192
9789,6.0,,,,55.0,,,,,88,note_on,,0.0,55.0,0.0,58680,152.8125,192
9790,6.0,,,,59.0,,,,,24,note_on,,112.0,59.0,112.0,58704,152.875,192
9791,6.0,,,,59.0,,,,,88,note_on,,0.0,59.0,0.0,58792,153.10416666666666,192
9792,6.0,,,,55.0,,,,,8,note_on,,112.0,55.0,112.0,58800,153.125,192
9793,6.0,,,,55.0,,,,,88,note_on,,0.0,55.0,0.0,58888,153.35416666666666,192
9794,6.0,,,,59.0,,,,,8,note_on,,112.0,59.0,112.0,58896,153.375,192
9795,6.0,,,,59.0,,,,,236,note_on,,0.0,59.0,0.0,59132,153.98958333333331,192
9796,6.0,,,,59.0,,,,,184,note_on,,112.0,59.0,112.0,59316,154.46875,192
9797,6.0,,,,59.0,,,,,40,note_on,,0.0,59.0,0.0,59356,154.57291666666666,192
9798,6.0,,,,55.0,,,,,4,note_on,,112.0,55.0,112.0,59360,154.58333333333331,192
9799,6.0,,,,55.0,,,,,88,note_on,,0.0,55.0,0.0,59448,154.8125,192
9800,6.0,,,,59.0,,,,,24,note_on,,112.0,59.0,112.0,59472,154.875,192
9801,6.0,,,,59.0,,,,,88,note_on,,0.0,59.0,0.0,59560,155.10416666666666,192
9802,6.0,,,,55.0,,,,,8,note_on,,112.0,55.0,112.0,59568,155.125,192
9803,6.0,,,,55.0,,,,,88,note_on,,0.0,55.0,0.0,59656,155.35416666666666,192
9804,6.0,,,,59.0,,,,,8,note_on,,112.0,59.0,112.0,59664,155.375,192
9805,6.0,,,,59.0,,,,,88,note_on,,0.0,59.0,0.0,59752,155.60416666666666,192
9806,6.0,,,,55.0,,,,,8,note_on,,112.0,55.0,112.0,59760,155.625,192
9807,6.0,,,,55.0,,,,,88,note_on,,0.0,55.0,0.0,59848,155.85416666666666,192
9808,6.0,,,,59.0,,,,,236,note_on,,112.0,59.0,112.0,60084,156.46875,192
9809,6.0,,,,59.0,,,,,40,note_on,,0.0,59.0,0.0,60124,156.57291666666666,192
9810,6.0,,,,55.0,,,,,4,note_on,,112.0,55.0,112.0,60128,156.58333333333331,192
9811,6.0,,,,55.0,,,,,88,note_on,,0.0,55.0,0.0,60216,156.8125,192
9812,6.0,,,,59.0,,,,,24,note_on,,112.0,59.0,112.0,60240,156.875,192
9813,6.0,,,,59.0,,,,,88,note_on,,0.0,59.0,0.0,60328,157.10416666666666,192
9814,6.0,,,,55.0,,,,,8,note_on,,112.0,55.0,112.0,60336,157.125,192
9815,6.0,,,,55.0,,,,,88,note_on,,0.0,55.0,0.0,60424,157.35416666666666,192
9816,6.0,,,,59.0,,,,,8,note_on,,112.0,59.0,112.0,60432,157.375,192
9817,6.0,,,,59.0,,,,,236,note_on,,0.0,59.0,0.0,60668,157.98958333333331,192
9818,6.0,,,,60.0,,,,,184,note_on,,112.0,60.0,112.0,60852,158.46875,192
9819,6.0,,,,60.0,,,,,40,note_on,,0.0,60.0,0.0,60892,158.57291666666666,192
9820,6.0,,,,57.0,,,,,4,note_on,,112.0,57.0,112.0,60896,158.58333333333331,192
9821,6.0,,,,57.0,,,,,88,note_on,,0.0,57.0,0.0,60984,158.8125,192
9822,6.0,,,,60.0,,,,,24,note_on,,112.0,60.0,112.0,61008,158.875,192
9823,6.0,,,,60.0,,,,,88,note_on,,0.0,60.0,0.0,61096,159.10416666666666,192
9824,6.0,,,,57.0,,,,,8,note_on,,112.0,57.0,112.0,61104,159.125,192
9825,6.0,,,,57.0,,,,,88,note_on,,0.0,57.0,0.0,61192,159.35416666666666,192
9826,6.0,,,,60.0,,,,,8,note_on,,112.0,60.0,112.0,61200,159.375,192
9827,6.0,,,,60.0,,,,,88,note_on,,0.0,60.0,0.0,61288,159.60416666666666,192
9828,6.0,,,,57.0,,,,,8,note_on,,112.0,57.0,112.0,61296,159.625,192
9829,6.0,,,,57.0,,,,,88,note_on,,0.0,57.0,0.0,61384,159.85416666666666,192
9830,6.0,,,,59.0,,,,,236,note_on,,112.0,59.0,112.0,61620,160.46875,192
9831,6.0,,,,59.0,,,,,40,note_on,,0.0,59.0,0.0,61660,160.57291666666666,192
9832,6.0,,,,55.0,,,,,4,note_on,,112.0,55.0,112.0,61664,160.58333333333331,192
9833,6.0,,,,55.0,,,,,88,note_on,,0.0,55.0,0.0,61752,160.8125,192
9834,6.0,,,,59.0,,,,,24,note_on,,112.0,59.0,112.0,61776,160.875,192
9835,6.0,,,,59.0,,,,,88,note_on,,0.0,59.0,0.0,61864,161.10416666666666,192
9836,6.0,,,,55.0,,,,,8,note_on,,112.0,55.0,112.0,61872,161.125,192
9837,6.0,,,,55.0,,,,,88,note_on,,0.0,55.0,0.0,61960,161.35416666666666,192
9838,6.0,,,,59.0,,,,,8,note_on,,112.0,59.0,112.0,61968,161.375,192
9839,6.0,,,,59.0,,,,,236,note_on,,0.0,59.0,0.0,62204,161.98958333333331,192
9840,6.0,,,,59.0,,,,,184,note_on,,112.0,59.0,112.0,62388,162.46875,192
9841,6.0,,,,59.0,,,,,40,note_on,,0.0,59.0,0.0,62428,162.57291666666666,192
9842,6.0,,,,55.0,,,,,4,note_on,,112.0,55.0,112.0,62432,162.58333333333331,192
9843,6.0,,,,55.0,,,,,88,note_on,,0.0,55.0,0.0,62520,162.8125,192
9844,6.0,,,,59.0,,,,,24,note_on,,112.0,59.0,112.0,62544,162.875,192
9845,6.0,,,,59.0,,,,,88,note_on,,0.0,59.0,0.0,62632,163.10416666666666,192
9846,6.0,,,,55.0,,,,,8,note_on,,112.0,55.0,112.0,62640,163.125,192
9847,6.0,,,,55.0,,,,,88,note_on,,0.0,55.0,0.0,62728,163.35416666666666,192
9848,6.0,,,,59.0,,,,,8,note_on,,112.0,59.0,112.0,62736,163.375,192
9849,6.0,,,,59.0,,,,,88,note_on,,0.0,59.0,0.0,62824,163.60416666666666,192
9850,6.0,,,,55.0,,,,,8,note_on,,112.0,55.0,112.0,62832,163.625,192
9851,6.0,,,,55.0,,,,,88,note_on,,0.0,55.0,0.0,62920,163.85416666666666,192
9852,6.0,,,,59.0,,,,,236,note_on,,112.0,59.0,112.0,63156,164.46875,192
9853,6.0,,,,59.0,,,,,40,note_on,,0.0,59.0,0.0,63196,164.57291666666666,192
9854,6.0,,,,55.0,,,,,4,note_on,,112.0,55.0,112.0,63200,164.58333333333331,192
9855,6.0,,,,55.0,,,,,88,note_on,,0.0,55.0,0.0,63288,164.8125,192
9856,6.0,,,,59.0,,,,,24,note_on,,112.0,59.0,112.0,63312,164.875,192
9857,6.0,,,,59.0,,,,,88,note_on,,0.0,59.0,0.0,63400,165.10416666666666,192
9858,6.0,,,,55.0,,,,,8,note_on,,112.0,55.0,112.0,63408,165.125,192
9859,6.0,,,,55.0,,,,,88,note_on,,0.0,55.0,0.0,63496,165.35416666666666,192
9860,6.0,,,,59.0,,,,,8,note_on,,112.0,59.0,112.0,63504,165.375,192
9861,6.0,,,,59.0,,,,,236,note_on,,0.0,59.0,0.0,63740,165.98958333333331,192
9862,6.0,,,,60.0,,,,,184,note_on,,112.0,60.0,112.0,63924,166.46875,192
9863,6.0,,,,60.0,,,,,40,note_on,,0.0,60.0,0.0,63964,166.57291666666666,192
9864,6.0,,,,57.0,,,,,4,note_on,,112.0,57.0,112.0,63968,166.58333333333331,192
9865,6.0,,,,57.0,,,,,88,note_on,,0.0,57.0,0.0,64056,166.8125,192
9866,6.0,,,,60.0,,,,,24,note_on,,112.0,60.0,112.0,64080,166.875,192
9867,6.0,,,,60.0,,,,,88,note_on,,0.0,60.0,0.0,64168,167.10416666666666,192
9868,6.0,,,,57.0,,,,,8,note_on,,112.0,57.0,112.0,64176,167.125,192
9869,6.0,,,,57.0,,,,,88,note_on,,0.0,57.0,0.0,64264,167.35416666666666,192
9870,6.0,,,,60.0,,,,,8,note_on,,112.0,60.0,112.0,64272,167.375,192
9871,6.0,,,,60.0,,,,,88,note_on,,0.0,60.0,0.0,64360,167.60416666666666,192
9872,6.0,,,,57.0,,,,,8,note_on,,112.0,57.0,112.0,64368,167.625,192
9873,6.0,,,,57.0,,,,,88,note_on,,0.0,57.0,0.0,64456,167.85416666666666,192
9874,6.0,,,,59.0,,,,,236,note_on,,112.0,59.0,112.0,64692,168.46875,192
9875,6.0,,,,59.0,,,,,40,note_on,,0.0,59.0,0.0,64732,168.57291666666666,192
9876,6.0,,,,55.0,,,,,4,note_on,,112.0,55.0,112.0,64736,168.58333333333331,192
9877,6.0,,,,55.0,,,,,88,note_on,,0.0,55.0,0.0,64824,168.8125,192
9878,6.0,,,,59.0,,,,,24,note_on,,112.0,59.0,112.0,64848,168.875,192
9879,6.0,,,,59.0,,,,,88,note_on,,0.0,59.0,0.0,64936,169.10416666666666,192
9880,6.0,,,,55.0,,,,,8,note_on,,112.0,55.0,112.0,64944,169.125,192
9881,6.0,,,,55.0,,,,,88,note_on,,0.0,55.0,0.0,65032,169.35416666666666,192
9882,6.0,,,,59.0,,,,,8,note_on,,112.0,59.0,112.0,65040,169.375,192
9883,6.0,,,,59.0,,,,,236,note_on,,0.0,59.0,0.0,65276,169.98958333333331,192
9884,6.0,,,,59.0,,,,,184,note_on,,112.0,59.0,112.0,65460,170.46875,192
9885,6.0,,,,59.0,,,,,40,note_on,,0.0,59.0,0.0,65500,170.57291666666666,192
9886,6.0,,,,55.0,,,,,4,note_on,,105.0,55.0,105.0,65504,170.58333333333331,192
9887,6.0,,,,55.0,,,,,88,note_on,,0.0,55.0,0.0,65592,170.8125,192
9888,6.0,,,,59.0,,,,,24,note_on,,101.0,59.0,101.0,65616,170.875,192
9889,6.0,,,,59.0,,,,,88,note_on,,0.0,59.0,0.0,65704,171.10416666666666,192
9890,6.0,,,,55.0,,,,,8,note_on,,95.0,55.0,95.0,65712,171.125,192
9891,6.0,,,,55.0,,,,,88,note_on,,0.0,55.0,0.0,65800,171.35416666666666,192
9892,6.0,,,,59.0,,,,,8,note_on,,91.0,59.0,91.0,65808,171.375,192
9893,6.0,,,,59.0,,,,,88,note_on,,0.0,59.0,0.0,65896,171.60416666666666,192
9894,6.0,,,,55.0,,,,,8,note_on,,81.0,55.0,81.0,65904,171.625,192
9895,6.0,,,,55.0,,,,,88,note_on,,0.0,55.0,0.0,65992,171.85416666666666,192
9896,6.0,,,,59.0,,,,,236,note_on,,72.0,59.0,72.0,66228,172.46875,192
9897,6.0,,,,59.0,,,,,40,note_on,,0.0,59.0,0.0,66268,172.57291666666666,192
9898,6.0,,,,55.0,,,,,4,note_on,,69.0,55.0,69.0,66272,172.58333333333331,192
9899,6.0,,,,55.0,,,,,88,note_on,,0.0,55.0,0.0,66360,172.8125,192
9900,6.0,,,,59.0,,,,,24,note_on,,66.0,59.0,66.0,66384,172.875,192
9901,6.0,,,,59.0,,,,,88,note_on,,0.0,59.0,0.0,66472,173.10416666666666,192
9902,6.0,,,,55.0,,,,,8,note_on,,64.0,55.0,64.0,66480,173.125,192
9903,6.0,,,,55.0,,,,,88,note_on,,0.0,55.0,0.0,66568,173.35416666666666,192
9904,6.0,,,,59.0,,,,,8,note_on,,61.0,59.0,61.0,66576,173.375,192
9905,6.0,,,,59.0,,,,,236,note_on,,0.0,59.0,0.0,66812,173.98958333333331,192
9906,6.0,,,,60.0,,,,,184,note_on,,49.0,60.0,49.0,66996,174.46875,192
9907,6.0,,,,60.0,,,,,40,note_on,,0.0,60.0,0.0,67036,174.57291666666666,192
9908,6.0,,,,57.0,,,,,4,note_on,,47.0,57.0,47.0,67040,174.58333333333331,192
9909,6.0,,,,57.0,,,,,88,note_on,,0.0,57.0,0.0,67128,174.8125,192
9910,6.0,,,,60.0,,,,,24,note_on,,41.0,60.0,41.0,67152,174.875,192
9911,6.0,,,,60.0,,,,,88,note_on,,0.0,60.0,0.0,67240,175.10416666666666,192
9912,6.0,,,,57.0,,,,,8,note_on,,36.0,57.0,36.0,67248,175.125,192
9913,6.0,,,,57.0,,,,,88,note_on,,0.0,57.0,0.0,67336,175.35416666666666,192
9914,6.0,,,,60.0,,,,,8,note_on,,31.0,60.0,31.0,67344,175.375,192
9915,6.0,,,,60.0,,,,,88,note_on,,0.0,60.0,0.0,67432,175.60416666666666,192
9916,6.0,,,,57.0,,,,,8,note_on,,27.0,57.0,27.0,67440,175.625,192
9917,6.0,,,,57.0,,,,,88,note_on,,0.0,57.0,0.0,67528,175.85416666666666,192
9918,6.0,,,,59.0,,,,,236,note_on,,16.0,59.0,16.0,67764,176.46875,192
9919,6.0,,,,59.0,,,,,40,note_on,,0.0,59.0,0.0,67804,176.57291666666666,192
9920,6.0,,,,55.0,,,,,4,note_on,,15.0,55.0,15.0,67808,176.58333333333331,192
9921,6.0,,,,55.0,,,,,88,note_on,,0.0,55.0,0.0,67896,176.8125,192
9922,6.0,,,,59.0,,,,,24,note_on,,11.0,59.0,11.0,67920,176.875,192
9923,6.0,,,,59.0,,,,,88,note_on,,0.0,59.0,0.0,68008,177.10416666666666,192
9924,6.0,,,,55.0,,,,,8,note_on,,7.0,55.0,7.0,68016,177.125,192
9925,6.0,,,,55.0,,,,,88,note_on,,0.0,55.0,0.0,68104,177.35416666666666,192
9926,6.0,,,,59.0,,,,,8,note_on,,3.0,59.0,3.0,68112,177.375,192
9927,6.0,,,,59.0,,,,,236,note_on,,0.0,59.0,0.0,68348,177.98958333333331,192
9928,,,,,,,,,,0,end_of_track,,,,,0,0.0,192
9929,3.0,0.0,,,,,,,,0,control_change,0.0,,,,0,0.0,192
9930,3.0,,,,,,87.0,,,0,program_change,,,,,0,0.0,192
9931,,,"(74, 65, 90, 50, 1, 0, 0, 0, 0, 0, 0, 0, 0, 0, 0, 0, 0, 0, 0, 0)",,,,,,,0,sequencer_specific,,,,,0,0.0,192
9932,3.0,93.0,,,,,,,,0,control_change,0.0,,,,0,0.0,192
9933,3.0,64.0,,,,,,,,0,control_change,60.0,,,,0,0.0,192
9934,3.0,91.0,,,,,,,,0,control_change,40.0,,,,0,0.0,192
9935,3.0,10.0,,,,,,,,0,control_change,114.0,,,,0,0.0,192
9936,,,,Bass And Lead,,,,,,0,track_name,,,,,0,0.0,192
9937,3.0,7.0,,,,,,,,0,control_change,74.0,,,,0,0.0,192
9938,3.0,,,,71.0,,,,,960,note_on,,88.0,71.0,88.0,960,2.5,192
9939,3.0,,,,71.0,,,,,44,note_on,,0.0,71.0,0.0,1004,2.614583333333333,192
9940,3.0,,,,67.0,,,,,4,note_on,,88.0,67.0,88.0,1008,2.625,192
9941,3.0,,,,67.0,,,,,44,note_on,,0.0,67.0,0.0,1052,2.739583333333333,192
9942,3.0,,,,79.0,,,,,52,note_on,,88.0,79.0,88.0,1104,2.875,192
9943,3.0,,,,79.0,,,,,44,note_on,,0.0,79.0,0.0,1148,2.989583333333333,192
9944,3.0,,,,74.0,,,,,52,note_on,,88.0,74.0,88.0,1200,3.125,192
9945,3.0,,,,74.0,,,,,44,note_on,,0.0,74.0,0.0,1244,3.239583333333333,192
9946,3.0,,,,79.0,,,,,52,note_on,,44.0,79.0,44.0,1296,3.375,192
9947,3.0,,,,79.0,,,,,44,note_on,,0.0,79.0,0.0,1340,3.489583333333333,192
9948,3.0,,,,74.0,,,,,52,note_on,,44.0,74.0,44.0,1392,3.625,192
9949,3.0,,,,74.0,,,,,44,note_on,,0.0,74.0,0.0,1436,3.739583333333333,192
9950,3.0,,,,79.0,,,,,52,note_on,,22.0,79.0,22.0,1488,3.875,192
9951,3.0,,,,79.0,,,,,44,note_on,,0.0,79.0,0.0,1532,3.989583333333333,192
9952,3.0,,,,74.0,,,,,52,note_on,,22.0,74.0,22.0,1584,4.125,192
9953,3.0,,,,74.0,,,,,44,note_on,,0.0,74.0,0.0,1628,4.239583333333333,192
9954,3.0,,,,69.0,,,,,100,note_on,,88.0,69.0,88.0,1728,4.5,192
9955,3.0,,,,69.0,,,,,44,note_on,,0.0,69.0,0.0,1772,4.614583333333333,192
9956,3.0,,,,65.0,,,,,4,note_on,,88.0,65.0,88.0,1776,4.625,192
9957,3.0,,,,65.0,,,,,44,note_on,,0.0,65.0,0.0,1820,4.739583333333333,192
9958,3.0,,,,77.0,,,,,52,note_on,,88.0,77.0,88.0,1872,4.875,192
9959,3.0,,,,77.0,,,,,44,note_on,,0.0,77.0,0.0,1916,4.989583333333333,192
9960,3.0,,,,72.0,,,,,52,note_on,,88.0,72.0,88.0,1968,5.125,192
9961,3.0,,,,72.0,,,,,44,note_on,,0.0,72.0,0.0,2012,5.239583333333333,192
9962,3.0,,,,77.0,,,,,52,note_on,,44.0,77.0,44.0,2064,5.375,192
9963,3.0,,,,77.0,,,,,44,note_on,,0.0,77.0,0.0,2108,5.489583333333333,192
9964,3.0,,,,72.0,,,,,52,note_on,,44.0,72.0,44.0,2160,5.625,192
9965,3.0,,,,72.0,,,,,44,note_on,,0.0,72.0,0.0,2204,5.739583333333333,192
9966,3.0,,,,77.0,,,,,52,note_on,,22.0,77.0,22.0,2256,5.875,192
9967,3.0,,,,77.0,,,,,44,note_on,,0.0,77.0,0.0,2300,5.989583333333333,192
9968,3.0,,,,72.0,,,,,52,note_on,,22.0,72.0,22.0,2352,6.125,192
9969,3.0,,,,72.0,,,,,44,note_on,,0.0,72.0,0.0,2396,6.239583333333333,192
9970,3.0,,,,67.0,,,,,100,note_on,,88.0,67.0,88.0,2496,6.5,192
9971,3.0,,,,67.0,,,,,44,note_on,,0.0,67.0,0.0,2540,6.614583333333333,192
9972,3.0,,,,64.0,,,,,4,note_on,,88.0,64.0,88.0,2544,6.625,192
9973,3.0,,,,64.0,,,,,44,note_on,,0.0,64.0,0.0,2588,6.739583333333333,192
9974,3.0,,,,72.0,,,,,52,note_on,,88.0,72.0,88.0,2640,6.875,192
9975,3.0,,,,72.0,,,,,44,note_on,,0.0,72.0,0.0,2684,6.989583333333333,192
9976,3.0,,,,67.0,,,,,52,note_on,,88.0,67.0,88.0,2736,7.125,192
9977,3.0,,,,67.0,,,,,44,note_on,,0.0,67.0,0.0,2780,7.239583333333333,192
9978,3.0,,,,72.0,,,,,52,note_on,,44.0,72.0,44.0,2832,7.375,192
9979,3.0,,,,72.0,,,,,44,note_on,,0.0,72.0,0.0,2876,7.489583333333333,192
9980,3.0,,,,67.0,,,,,52,note_on,,44.0,67.0,44.0,2928,7.625,192
9981,3.0,,,,67.0,,,,,44,note_on,,0.0,67.0,0.0,2972,7.739583333333333,192
9982,3.0,,,,72.0,,,,,52,note_on,,22.0,72.0,22.0,3024,7.875,192
9983,3.0,,,,72.0,,,,,44,note_on,,0.0,72.0,0.0,3068,7.989583333333333,192
9984,3.0,,,,67.0,,,,,52,note_on,,22.0,67.0,22.0,3120,8.125,192
9985,3.0,,,,67.0,,,,,44,note_on,,0.0,67.0,0.0,3164,8.239583333333332,192
9986,3.0,,,,71.0,,,,,100,note_on,,88.0,71.0,88.0,3264,8.5,192
9987,3.0,,,,71.0,,,,,44,note_on,,0.0,71.0,0.0,3308,8.614583333333332,192
9988,3.0,,,,67.0,,,,,4,note_on,,88.0,67.0,88.0,3312,8.625,192
9989,3.0,,,,67.0,,,,,44,note_on,,0.0,67.0,0.0,3356,8.739583333333332,192
9990,3.0,,,,79.0,,,,,52,note_on,,88.0,79.0,88.0,3408,8.875,192
9991,3.0,,,,79.0,,,,,44,note_on,,0.0,79.0,0.0,3452,8.989583333333332,192
9992,3.0,,,,74.0,,,,,52,note_on,,88.0,74.0,88.0,3504,9.125,192
9993,3.0,,,,74.0,,,,,44,note_on,,0.0,74.0,0.0,3548,9.239583333333332,192
9994,3.0,,,,79.0,,,,,52,note_on,,44.0,79.0,44.0,3600,9.375,192
9995,3.0,,,,79.0,,,,,44,note_on,,0.0,79.0,0.0,3644,9.489583333333332,192
9996,3.0,,,,74.0,,,,,52,note_on,,44.0,74.0,44.0,3696,9.625,192
9997,3.0,,,,74.0,,,,,44,note_on,,0.0,74.0,0.0,3740,9.739583333333332,192
9998,3.0,,,,79.0,,,,,52,note_on,,22.0,79.0,22.0,3792,9.875,192
9999,3.0,,,,79.0,,,,,44,note_on,,0.0,79.0,0.0,3836,9.989583333333332,192
10000,3.0,,,,74.0,,,,,52,note_on,,22.0,74.0,22.0,3888,10.125,192
10001,3.0,,,,74.0,,,,,44,note_on,,0.0,74.0,0.0,3932,10.239583333333332,192
10002,3.0,,,,71.0,,,,,100,note_on,,88.0,71.0,88.0,4032,10.5,192
10003,3.0,,,,71.0,,,,,44,note_on,,0.0,71.0,0.0,4076,10.614583333333332,192
10004,3.0,,,,67.0,,,,,4,note_on,,88.0,67.0,88.0,4080,10.625,192
10005,3.0,,,,67.0,,,,,44,note_on,,0.0,67.0,0.0,4124,10.739583333333332,192
10006,3.0,,,,79.0,,,,,52,note_on,,88.0,79.0,88.0,4176,10.875,192
10007,3.0,,,,79.0,,,,,44,note_on,,0.0,79.0,0.0,4220,10.989583333333332,192
10008,3.0,,,,74.0,,,,,52,note_on,,88.0,74.0,88.0,4272,11.125,192
10009,3.0,,,,74.0,,,,,44,note_on,,0.0,74.0,0.0,4316,11.239583333333332,192
10010,3.0,,,,79.0,,,,,52,note_on,,44.0,79.0,44.0,4368,11.375,192
10011,3.0,,,,79.0,,,,,44,note_on,,0.0,79.0,0.0,4412,11.489583333333332,192
10012,3.0,,,,74.0,,,,,52,note_on,,44.0,74.0,44.0,4464,11.625,192
10013,3.0,,,,74.0,,,,,44,note_on,,0.0,74.0,0.0,4508,11.739583333333332,192
10014,3.0,,,,79.0,,,,,52,note_on,,22.0,79.0,22.0,4560,11.875,192
10015,3.0,,,,79.0,,,,,44,note_on,,0.0,79.0,0.0,4604,11.989583333333332,192
10016,3.0,,,,74.0,,,,,52,note_on,,22.0,74.0,22.0,4656,12.125,192
10017,3.0,,,,74.0,,,,,44,note_on,,0.0,74.0,0.0,4700,12.239583333333332,192
10018,3.0,,,,69.0,,,,,100,note_on,,88.0,69.0,88.0,4800,12.5,192
10019,3.0,,,,69.0,,,,,44,note_on,,0.0,69.0,0.0,4844,12.614583333333332,192
10020,3.0,,,,65.0,,,,,4,note_on,,88.0,65.0,88.0,4848,12.625,192
10021,3.0,,,,65.0,,,,,44,note_on,,0.0,65.0,0.0,4892,12.739583333333332,192
10022,3.0,,,,77.0,,,,,52,note_on,,88.0,77.0,88.0,4944,12.875,192
10023,3.0,,,,77.0,,,,,44,note_on,,0.0,77.0,0.0,4988,12.989583333333332,192
10024,3.0,,,,72.0,,,,,52,note_on,,88.0,72.0,88.0,5040,13.125,192
10025,3.0,,,,72.0,,,,,44,note_on,,0.0,72.0,0.0,5084,13.239583333333332,192
10026,3.0,,,,77.0,,,,,52,note_on,,44.0,77.0,44.0,5136,13.375,192
10027,3.0,,,,77.0,,,,,44,note_on,,0.0,77.0,0.0,5180,13.489583333333332,192
10028,3.0,,,,72.0,,,,,52,note_on,,44.0,72.0,44.0,5232,13.625,192
10029,3.0,,,,72.0,,,,,44,note_on,,0.0,72.0,0.0,5276,13.739583333333332,192
10030,3.0,,,,77.0,,,,,52,note_on,,22.0,77.0,22.0,5328,13.875,192
10031,3.0,,,,77.0,,,,,44,note_on,,0.0,77.0,0.0,5372,13.989583333333332,192
10032,3.0,,,,72.0,,,,,52,note_on,,22.0,72.0,22.0,5424,14.125,192
10033,3.0,,,,72.0,,,,,44,note_on,,0.0,72.0,0.0,5468,14.239583333333332,192
10034,3.0,,,,67.0,,,,,100,note_on,,88.0,67.0,88.0,5568,14.5,192
10035,3.0,,,,67.0,,,,,44,note_on,,0.0,67.0,0.0,5612,14.614583333333332,192
10036,3.0,,,,64.0,,,,,4,note_on,,88.0,64.0,88.0,5616,14.625,192
10037,3.0,,,,64.0,,,,,44,note_on,,0.0,64.0,0.0,5660,14.739583333333332,192
10038,3.0,,,,72.0,,,,,52,note_on,,88.0,72.0,88.0,5712,14.875,192
10039,3.0,,,,72.0,,,,,44,note_on,,0.0,72.0,0.0,5756,14.989583333333332,192
10040,3.0,,,,67.0,,,,,52,note_on,,88.0,67.0,88.0,5808,15.125,192
10041,3.0,,,,67.0,,,,,44,note_on,,0.0,67.0,0.0,5852,15.239583333333332,192
10042,3.0,,,,72.0,,,,,52,note_on,,44.0,72.0,44.0,5904,15.375,192
10043,3.0,,,,72.0,,,,,44,note_on,,0.0,72.0,0.0,5948,15.489583333333332,192
10044,3.0,,,,67.0,,,,,52,note_on,,44.0,67.0,44.0,6000,15.625,192
10045,3.0,,,,67.0,,,,,44,note_on,,0.0,67.0,0.0,6044,15.739583333333332,192
10046,3.0,,,,72.0,,,,,52,note_on,,22.0,72.0,22.0,6096,15.875,192
10047,3.0,,,,72.0,,,,,44,note_on,,0.0,72.0,0.0,6140,15.989583333333332,192
10048,3.0,,,,67.0,,,,,52,note_on,,22.0,67.0,22.0,6192,16.125,192
10049,3.0,,,,67.0,,,,,44,note_on,,0.0,67.0,0.0,6236,16.239583333333332,192
10050,3.0,,,,71.0,,,,,868,note_on,,88.0,71.0,88.0,7104,18.5,192
10051,3.0,,,,71.0,,,,,44,note_on,,0.0,71.0,0.0,7148,18.614583333333332,192
10052,3.0,,,,67.0,,,,,4,note_on,,88.0,67.0,88.0,7152,18.625,192
10053,3.0,,,,67.0,,,,,44,note_on,,0.0,67.0,0.0,7196,18.739583333333332,192
10054,3.0,,,,79.0,,,,,52,note_on,,88.0,79.0,88.0,7248,18.875,192
10055,3.0,,,,79.0,,,,,44,note_on,,0.0,79.0,0.0,7292,18.989583333333332,192
10056,3.0,,,,74.0,,,,,52,note_on,,88.0,74.0,88.0,7344,19.125,192
10057,3.0,,,,74.0,,,,,44,note_on,,0.0,74.0,0.0,7388,19.239583333333332,192
10058,3.0,,,,79.0,,,,,52,note_on,,44.0,79.0,44.0,7440,19.375,192
10059,3.0,,,,79.0,,,,,44,note_on,,0.0,79.0,0.0,7484,19.489583333333332,192
10060,3.0,,,,74.0,,,,,52,note_on,,44.0,74.0,44.0,7536,19.625,192
10061,3.0,,,,74.0,,,,,44,note_on,,0.0,74.0,0.0,7580,19.739583333333332,192
10062,3.0,,,,79.0,,,,,52,note_on,,22.0,79.0,22.0,7632,19.875,192
10063,3.0,,,,79.0,,,,,44,note_on,,0.0,79.0,0.0,7676,19.989583333333332,192
10064,3.0,,,,74.0,,,,,52,note_on,,22.0,74.0,22.0,7728,20.125,192
10065,3.0,,,,74.0,,,,,44,note_on,,0.0,74.0,0.0,7772,20.239583333333332,192
10066,3.0,,,,69.0,,,,,100,note_on,,88.0,69.0,88.0,7872,20.5,192
10067,3.0,,,,69.0,,,,,44,note_on,,0.0,69.0,0.0,7916,20.614583333333332,192
10068,3.0,,,,65.0,,,,,4,note_on,,88.0,65.0,88.0,7920,20.625,192
10069,3.0,,,,65.0,,,,,44,note_on,,0.0,65.0,0.0,7964,20.739583333333332,192
10070,3.0,,,,77.0,,,,,52,note_on,,88.0,77.0,88.0,8016,20.875,192
10071,3.0,,,,77.0,,,,,44,note_on,,0.0,77.0,0.0,8060,20.989583333333332,192
10072,3.0,,,,72.0,,,,,52,note_on,,88.0,72.0,88.0,8112,21.125,192
10073,3.0,,,,72.0,,,,,44,note_on,,0.0,72.0,0.0,8156,21.239583333333332,192
10074,3.0,,,,77.0,,,,,52,note_on,,44.0,77.0,44.0,8208,21.375,192
10075,3.0,,,,77.0,,,,,44,note_on,,0.0,77.0,0.0,8252,21.489583333333332,192
10076,3.0,,,,72.0,,,,,52,note_on,,44.0,72.0,44.0,8304,21.625,192
10077,3.0,,,,72.0,,,,,44,note_on,,0.0,72.0,0.0,8348,21.739583333333332,192
10078,3.0,,,,77.0,,,,,52,note_on,,22.0,77.0,22.0,8400,21.875,192
10079,3.0,,,,77.0,,,,,44,note_on,,0.0,77.0,0.0,8444,21.989583333333332,192
10080,3.0,,,,72.0,,,,,52,note_on,,22.0,72.0,22.0,8496,22.125,192
10081,3.0,,,,72.0,,,,,44,note_on,,0.0,72.0,0.0,8540,22.239583333333332,192
10082,3.0,,,,67.0,,,,,100,note_on,,88.0,67.0,88.0,8640,22.5,192
10083,3.0,,,,67.0,,,,,44,note_on,,0.0,67.0,0.0,8684,22.614583333333332,192
10084,3.0,,,,64.0,,,,,4,note_on,,88.0,64.0,88.0,8688,22.625,192
10085,3.0,,,,64.0,,,,,44,note_on,,0.0,64.0,0.0,8732,22.739583333333332,192
10086,3.0,,,,72.0,,,,,52,note_on,,88.0,72.0,88.0,8784,22.875,192
10087,3.0,,,,72.0,,,,,44,note_on,,0.0,72.0,0.0,8828,22.989583333333332,192
10088,3.0,,,,67.0,,,,,52,note_on,,88.0,67.0,88.0,8880,23.125,192
10089,3.0,,,,67.0,,,,,44,note_on,,0.0,67.0,0.0,8924,23.239583333333332,192
10090,3.0,,,,72.0,,,,,52,note_on,,44.0,72.0,44.0,8976,23.375,192
10091,3.0,,,,72.0,,,,,44,note_on,,0.0,72.0,0.0,9020,23.489583333333332,192
10092,3.0,,,,67.0,,,,,52,note_on,,44.0,67.0,44.0,9072,23.625,192
10093,3.0,,,,67.0,,,,,44,note_on,,0.0,67.0,0.0,9116,23.739583333333332,192
10094,3.0,,,,72.0,,,,,52,note_on,,22.0,72.0,22.0,9168,23.875,192
10095,3.0,,,,72.0,,,,,44,note_on,,0.0,72.0,0.0,9212,23.989583333333332,192
10096,3.0,,,,67.0,,,,,52,note_on,,22.0,67.0,22.0,9264,24.125,192
10097,3.0,,,,67.0,,,,,44,note_on,,0.0,67.0,0.0,9308,24.239583333333332,192
10098,3.0,,,,71.0,,,,,100,note_on,,88.0,71.0,88.0,9408,24.5,192
10099,3.0,,,,71.0,,,,,44,note_on,,0.0,71.0,0.0,9452,24.614583333333332,192
10100,3.0,,,,67.0,,,,,4,note_on,,88.0,67.0,88.0,9456,24.625,192
10101,3.0,,,,67.0,,,,,44,note_on,,0.0,67.0,0.0,9500,24.739583333333332,192
10102,3.0,,,,79.0,,,,,52,note_on,,88.0,79.0,88.0,9552,24.875,192
10103,3.0,,,,79.0,,,,,44,note_on,,0.0,79.0,0.0,9596,24.989583333333332,192
10104,3.0,,,,74.0,,,,,52,note_on,,88.0,74.0,88.0,9648,25.125,192
10105,3.0,,,,74.0,,,,,44,note_on,,0.0,74.0,0.0,9692,25.239583333333332,192
10106,3.0,,,,79.0,,,,,52,note_on,,44.0,79.0,44.0,9744,25.375,192
10107,3.0,,,,79.0,,,,,44,note_on,,0.0,79.0,0.0,9788,25.489583333333332,192
10108,3.0,,,,74.0,,,,,52,note_on,,44.0,74.0,44.0,9840,25.625,192
10109,3.0,,,,74.0,,,,,44,note_on,,0.0,74.0,0.0,9884,25.739583333333332,192
10110,3.0,,,,79.0,,,,,52,note_on,,22.0,79.0,22.0,9936,25.875,192
10111,3.0,,,,79.0,,,,,44,note_on,,0.0,79.0,0.0,9980,25.989583333333332,192
10112,3.0,,,,74.0,,,,,52,note_on,,22.0,74.0,22.0,10032,26.125,192
10113,3.0,,,,74.0,,,,,44,note_on,,0.0,74.0,0.0,10076,26.239583333333332,192
10114,3.0,,,,71.0,,,,,100,note_on,,88.0,71.0,88.0,10176,26.5,192
10115,3.0,,,,71.0,,,,,44,note_on,,0.0,71.0,0.0,10220,26.614583333333332,192
10116,3.0,,,,67.0,,,,,4,note_on,,88.0,67.0,88.0,10224,26.625,192
10117,3.0,,,,67.0,,,,,44,note_on,,0.0,67.0,0.0,10268,26.739583333333332,192
10118,3.0,,,,79.0,,,,,52,note_on,,88.0,79.0,88.0,10320,26.875,192
10119,3.0,,,,79.0,,,,,44,note_on,,0.0,79.0,0.0,10364,26.989583333333332,192
10120,3.0,,,,74.0,,,,,52,note_on,,88.0,74.0,88.0,10416,27.125,192
10121,3.0,,,,74.0,,,,,44,note_on,,0.0,74.0,0.0,10460,27.239583333333332,192
10122,3.0,,,,79.0,,,,,52,note_on,,44.0,79.0,44.0,10512,27.375,192
10123,3.0,,,,79.0,,,,,44,note_on,,0.0,79.0,0.0,10556,27.489583333333332,192
10124,3.0,,,,74.0,,,,,52,note_on,,44.0,74.0,44.0,10608,27.625,192
10125,3.0,,,,74.0,,,,,44,note_on,,0.0,74.0,0.0,10652,27.739583333333332,192
10126,3.0,,,,79.0,,,,,52,note_on,,22.0,79.0,22.0,10704,27.875,192
10127,3.0,,,,79.0,,,,,44,note_on,,0.0,79.0,0.0,10748,27.989583333333332,192
10128,3.0,,,,74.0,,,,,52,note_on,,22.0,74.0,22.0,10800,28.125,192
10129,3.0,,,,74.0,,,,,44,note_on,,0.0,74.0,0.0,10844,28.239583333333332,192
10130,3.0,,,,69.0,,,,,100,note_on,,88.0,69.0,88.0,10944,28.5,192
10131,3.0,,,,69.0,,,,,44,note_on,,0.0,69.0,0.0,10988,28.614583333333332,192
10132,3.0,,,,65.0,,,,,4,note_on,,88.0,65.0,88.0,10992,28.625,192
10133,3.0,,,,65.0,,,,,44,note_on,,0.0,65.0,0.0,11036,28.739583333333332,192
10134,3.0,,,,77.0,,,,,52,note_on,,88.0,77.0,88.0,11088,28.875,192
10135,3.0,,,,77.0,,,,,44,note_on,,0.0,77.0,0.0,11132,28.989583333333332,192
10136,3.0,,,,72.0,,,,,52,note_on,,88.0,72.0,88.0,11184,29.125,192
10137,3.0,,,,72.0,,,,,44,note_on,,0.0,72.0,0.0,11228,29.239583333333332,192
10138,3.0,,,,77.0,,,,,52,note_on,,44.0,77.0,44.0,11280,29.375,192
10139,3.0,,,,77.0,,,,,44,note_on,,0.0,77.0,0.0,11324,29.489583333333332,192
10140,3.0,,,,72.0,,,,,52,note_on,,44.0,72.0,44.0,11376,29.625,192
10141,3.0,,,,72.0,,,,,44,note_on,,0.0,72.0,0.0,11420,29.739583333333332,192
10142,3.0,,,,77.0,,,,,52,note_on,,22.0,77.0,22.0,11472,29.875,192
10143,3.0,,,,77.0,,,,,44,note_on,,0.0,77.0,0.0,11516,29.989583333333332,192
10144,3.0,,,,72.0,,,,,52,note_on,,22.0,72.0,22.0,11568,30.125,192
10145,3.0,,,,72.0,,,,,44,note_on,,0.0,72.0,0.0,11612,30.239583333333332,192
10146,3.0,,,,67.0,,,,,100,note_on,,88.0,67.0,88.0,11712,30.5,192
10147,3.0,,,,67.0,,,,,44,note_on,,0.0,67.0,0.0,11756,30.614583333333332,192
10148,3.0,,,,64.0,,,,,4,note_on,,88.0,64.0,88.0,11760,30.625,192
10149,3.0,,,,64.0,,,,,44,note_on,,0.0,64.0,0.0,11804,30.739583333333332,192
10150,3.0,,,,72.0,,,,,52,note_on,,88.0,72.0,88.0,11856,30.875,192
10151,3.0,,,,72.0,,,,,44,note_on,,0.0,72.0,0.0,11900,30.989583333333332,192
10152,3.0,,,,67.0,,,,,52,note_on,,88.0,67.0,88.0,11952,31.125,192
10153,3.0,,,,67.0,,,,,44,note_on,,0.0,67.0,0.0,11996,31.239583333333332,192
10154,3.0,,,,72.0,,,,,52,note_on,,44.0,72.0,44.0,12048,31.375,192
10155,3.0,,,,72.0,,,,,44,note_on,,0.0,72.0,0.0,12092,31.489583333333332,192
10156,3.0,,,,67.0,,,,,52,note_on,,44.0,67.0,44.0,12144,31.625,192
10157,3.0,,,,67.0,,,,,44,note_on,,0.0,67.0,0.0,12188,31.739583333333332,192
10158,3.0,,,,72.0,,,,,52,note_on,,22.0,72.0,22.0,12240,31.875,192
10159,3.0,,,,72.0,,,,,44,note_on,,0.0,72.0,0.0,12284,31.989583333333332,192
10160,3.0,,,,67.0,,,,,52,note_on,,22.0,67.0,22.0,12336,32.125,192
10161,3.0,,,,67.0,,,,,44,note_on,,0.0,67.0,0.0,12380,32.23958333333333,192
10162,3.0,,,,71.0,,,,,100,note_on,,88.0,71.0,88.0,12480,32.5,192
10163,3.0,,,,71.0,,,,,44,note_on,,0.0,71.0,0.0,12524,32.61458333333333,192
10164,3.0,,,,67.0,,,,,4,note_on,,88.0,67.0,88.0,12528,32.625,192
10165,3.0,,,,67.0,,,,,44,note_on,,0.0,67.0,0.0,12572,32.73958333333333,192
10166,3.0,,,,79.0,,,,,52,note_on,,88.0,79.0,88.0,12624,32.875,192
10167,3.0,,,,79.0,,,,,44,note_on,,0.0,79.0,0.0,12668,32.98958333333333,192
10168,3.0,,,,74.0,,,,,52,note_on,,88.0,74.0,88.0,12720,33.125,192
10169,3.0,,,,74.0,,,,,44,note_on,,0.0,74.0,0.0,12764,33.23958333333333,192
10170,3.0,,,,79.0,,,,,52,note_on,,44.0,79.0,44.0,12816,33.375,192
10171,3.0,,,,79.0,,,,,44,note_on,,0.0,79.0,0.0,12860,33.48958333333333,192
10172,3.0,,,,74.0,,,,,52,note_on,,44.0,74.0,44.0,12912,33.625,192
10173,3.0,,,,74.0,,,,,44,note_on,,0.0,74.0,0.0,12956,33.73958333333333,192
10174,3.0,,,,79.0,,,,,52,note_on,,22.0,79.0,22.0,13008,33.875,192
10175,3.0,,,,79.0,,,,,44,note_on,,0.0,79.0,0.0,13052,33.98958333333333,192
10176,3.0,,,,74.0,,,,,52,note_on,,22.0,74.0,22.0,13104,34.125,192
10177,3.0,,,,74.0,,,,,44,note_on,,0.0,74.0,0.0,13148,34.23958333333333,192
10178,3.0,,,,71.0,,,,,12388,note_on,,88.0,71.0,88.0,25536,66.5,192
10179,3.0,,,,71.0,,,,,44,note_on,,0.0,71.0,0.0,25580,66.61458333333333,192
10180,3.0,,,,67.0,,,,,4,note_on,,88.0,67.0,88.0,25584,66.625,192
10181,3.0,,,,67.0,,,,,44,note_on,,0.0,67.0,0.0,25628,66.73958333333333,192
10182,3.0,,,,79.0,,,,,52,note_on,,88.0,79.0,88.0,25680,66.875,192
10183,3.0,,,,79.0,,,,,44,note_on,,0.0,79.0,0.0,25724,66.98958333333333,192
10184,3.0,,,,74.0,,,,,52,note_on,,88.0,74.0,88.0,25776,67.125,192
10185,3.0,,,,74.0,,,,,44,note_on,,0.0,74.0,0.0,25820,67.23958333333333,192
10186,3.0,,,,79.0,,,,,52,note_on,,44.0,79.0,44.0,25872,67.375,192
10187,3.0,,,,79.0,,,,,44,note_on,,0.0,79.0,0.0,25916,67.48958333333333,192
10188,3.0,,,,74.0,,,,,52,note_on,,44.0,74.0,44.0,25968,67.625,192
10189,3.0,,,,74.0,,,,,44,note_on,,0.0,74.0,0.0,26012,67.73958333333333,192
10190,3.0,,,,79.0,,,,,52,note_on,,22.0,79.0,22.0,26064,67.875,192
10191,3.0,,,,79.0,,,,,44,note_on,,0.0,79.0,0.0,26108,67.98958333333333,192
10192,3.0,,,,74.0,,,,,52,note_on,,22.0,74.0,22.0,26160,68.125,192
10193,3.0,,,,74.0,,,,,44,note_on,,0.0,74.0,0.0,26204,68.23958333333333,192
10194,3.0,,,,69.0,,,,,100,note_on,,88.0,69.0,88.0,26304,68.5,192
10195,3.0,,,,69.0,,,,,44,note_on,,0.0,69.0,0.0,26348,68.61458333333333,192
10196,3.0,,,,65.0,,,,,4,note_on,,88.0,65.0,88.0,26352,68.625,192
10197,3.0,,,,65.0,,,,,44,note_on,,0.0,65.0,0.0,26396,68.73958333333333,192
10198,3.0,,,,77.0,,,,,52,note_on,,88.0,77.0,88.0,26448,68.875,192
10199,3.0,,,,77.0,,,,,44,note_on,,0.0,77.0,0.0,26492,68.98958333333333,192
10200,3.0,,,,72.0,,,,,52,note_on,,88.0,72.0,88.0,26544,69.125,192
10201,3.0,,,,72.0,,,,,44,note_on,,0.0,72.0,0.0,26588,69.23958333333333,192
10202,3.0,,,,77.0,,,,,52,note_on,,44.0,77.0,44.0,26640,69.375,192
10203,3.0,,,,77.0,,,,,44,note_on,,0.0,77.0,0.0,26684,69.48958333333333,192
10204,3.0,,,,72.0,,,,,52,note_on,,44.0,72.0,44.0,26736,69.625,192
10205,3.0,,,,72.0,,,,,44,note_on,,0.0,72.0,0.0,26780,69.73958333333333,192
10206,3.0,,,,77.0,,,,,52,note_on,,22.0,77.0,22.0,26832,69.875,192
10207,3.0,,,,77.0,,,,,44,note_on,,0.0,77.0,0.0,26876,69.98958333333333,192
10208,3.0,,,,72.0,,,,,52,note_on,,22.0,72.0,22.0,26928,70.125,192
10209,3.0,,,,72.0,,,,,44,note_on,,0.0,72.0,0.0,26972,70.23958333333333,192
10210,3.0,,,,67.0,,,,,100,note_on,,88.0,67.0,88.0,27072,70.5,192
10211,3.0,,,,67.0,,,,,44,note_on,,0.0,67.0,0.0,27116,70.61458333333333,192
10212,3.0,,,,64.0,,,,,4,note_on,,88.0,64.0,88.0,27120,70.625,192
10213,3.0,,,,64.0,,,,,44,note_on,,0.0,64.0,0.0,27164,70.73958333333333,192
10214,3.0,,,,72.0,,,,,52,note_on,,88.0,72.0,88.0,27216,70.875,192
10215,3.0,,,,72.0,,,,,44,note_on,,0.0,72.0,0.0,27260,70.98958333333333,192
10216,3.0,,,,67.0,,,,,52,note_on,,88.0,67.0,88.0,27312,71.125,192
10217,3.0,,,,67.0,,,,,44,note_on,,0.0,67.0,0.0,27356,71.23958333333333,192
10218,3.0,,,,72.0,,,,,52,note_on,,44.0,72.0,44.0,27408,71.375,192
10219,3.0,,,,72.0,,,,,44,note_on,,0.0,72.0,0.0,27452,71.48958333333333,192
10220,3.0,,,,67.0,,,,,52,note_on,,44.0,67.0,44.0,27504,71.625,192
10221,3.0,,,,67.0,,,,,44,note_on,,0.0,67.0,0.0,27548,71.73958333333333,192
10222,3.0,,,,72.0,,,,,52,note_on,,22.0,72.0,22.0,27600,71.875,192
10223,3.0,,,,72.0,,,,,44,note_on,,0.0,72.0,0.0,27644,71.98958333333333,192
10224,3.0,,,,67.0,,,,,52,note_on,,22.0,67.0,22.0,27696,72.125,192
10225,3.0,,,,67.0,,,,,44,note_on,,0.0,67.0,0.0,27740,72.23958333333333,192
10226,3.0,,,,71.0,,,,,100,note_on,,88.0,71.0,88.0,27840,72.5,192
10227,3.0,,,,71.0,,,,,44,note_on,,0.0,71.0,0.0,27884,72.61458333333333,192
10228,3.0,,,,67.0,,,,,4,note_on,,88.0,67.0,88.0,27888,72.625,192
10229,3.0,,,,67.0,,,,,44,note_on,,0.0,67.0,0.0,27932,72.73958333333333,192
10230,3.0,,,,79.0,,,,,52,note_on,,88.0,79.0,88.0,27984,72.875,192
10231,3.0,,,,79.0,,,,,44,note_on,,0.0,79.0,0.0,28028,72.98958333333333,192
10232,3.0,,,,74.0,,,,,52,note_on,,88.0,74.0,88.0,28080,73.125,192
10233,3.0,,,,74.0,,,,,44,note_on,,0.0,74.0,0.0,28124,73.23958333333333,192
10234,3.0,,,,79.0,,,,,52,note_on,,44.0,79.0,44.0,28176,73.375,192
10235,3.0,,,,79.0,,,,,44,note_on,,0.0,79.0,0.0,28220,73.48958333333333,192
10236,3.0,,,,74.0,,,,,52,note_on,,44.0,74.0,44.0,28272,73.625,192
10237,3.0,,,,74.0,,,,,44,note_on,,0.0,74.0,0.0,28316,73.73958333333333,192
10238,3.0,,,,79.0,,,,,52,note_on,,22.0,79.0,22.0,28368,73.875,192
10239,3.0,,,,79.0,,,,,44,note_on,,0.0,79.0,0.0,28412,73.98958333333333,192
10240,3.0,,,,74.0,,,,,52,note_on,,22.0,74.0,22.0,28464,74.125,192
10241,3.0,,,,74.0,,,,,44,note_on,,0.0,74.0,0.0,28508,74.23958333333333,192
10242,3.0,,,,71.0,,,,,100,note_on,,88.0,71.0,88.0,28608,74.5,192
10243,3.0,,,,71.0,,,,,44,note_on,,0.0,71.0,0.0,28652,74.61458333333333,192
10244,3.0,,,,67.0,,,,,4,note_on,,88.0,67.0,88.0,28656,74.625,192
10245,3.0,,,,67.0,,,,,44,note_on,,0.0,67.0,0.0,28700,74.73958333333333,192
10246,3.0,,,,79.0,,,,,52,note_on,,88.0,79.0,88.0,28752,74.875,192
10247,3.0,,,,79.0,,,,,44,note_on,,0.0,79.0,0.0,28796,74.98958333333333,192
10248,3.0,,,,74.0,,,,,52,note_on,,88.0,74.0,88.0,28848,75.125,192
10249,3.0,,,,74.0,,,,,44,note_on,,0.0,74.0,0.0,28892,75.23958333333333,192
10250,3.0,,,,79.0,,,,,52,note_on,,44.0,79.0,44.0,28944,75.375,192
10251,3.0,,,,79.0,,,,,44,note_on,,0.0,79.0,0.0,28988,75.48958333333333,192
10252,3.0,,,,74.0,,,,,52,note_on,,44.0,74.0,44.0,29040,75.625,192
10253,3.0,,,,74.0,,,,,44,note_on,,0.0,74.0,0.0,29084,75.73958333333333,192
10254,3.0,,,,79.0,,,,,52,note_on,,22.0,79.0,22.0,29136,75.875,192
10255,3.0,,,,79.0,,,,,44,note_on,,0.0,79.0,0.0,29180,75.98958333333333,192
10256,3.0,,,,74.0,,,,,52,note_on,,22.0,74.0,22.0,29232,76.125,192
10257,3.0,,,,74.0,,,,,44,note_on,,0.0,74.0,0.0,29276,76.23958333333333,192
10258,3.0,,,,69.0,,,,,100,note_on,,88.0,69.0,88.0,29376,76.5,192
10259,3.0,,,,69.0,,,,,44,note_on,,0.0,69.0,0.0,29420,76.61458333333333,192
10260,3.0,,,,65.0,,,,,4,note_on,,88.0,65.0,88.0,29424,76.625,192
10261,3.0,,,,65.0,,,,,44,note_on,,0.0,65.0,0.0,29468,76.73958333333333,192
10262,3.0,,,,77.0,,,,,52,note_on,,88.0,77.0,88.0,29520,76.875,192
10263,3.0,,,,77.0,,,,,44,note_on,,0.0,77.0,0.0,29564,76.98958333333333,192
10264,3.0,,,,72.0,,,,,52,note_on,,88.0,72.0,88.0,29616,77.125,192
10265,3.0,,,,72.0,,,,,44,note_on,,0.0,72.0,0.0,29660,77.23958333333333,192
10266,3.0,,,,77.0,,,,,52,note_on,,44.0,77.0,44.0,29712,77.375,192
10267,3.0,,,,77.0,,,,,44,note_on,,0.0,77.0,0.0,29756,77.48958333333333,192
10268,3.0,,,,72.0,,,,,52,note_on,,44.0,72.0,44.0,29808,77.625,192
10269,3.0,,,,72.0,,,,,44,note_on,,0.0,72.0,0.0,29852,77.73958333333333,192
10270,3.0,,,,77.0,,,,,52,note_on,,22.0,77.0,22.0,29904,77.875,192
10271,3.0,,,,77.0,,,,,44,note_on,,0.0,77.0,0.0,29948,77.98958333333333,192
10272,3.0,,,,72.0,,,,,52,note_on,,22.0,72.0,22.0,30000,78.125,192
10273,3.0,,,,72.0,,,,,44,note_on,,0.0,72.0,0.0,30044,78.23958333333333,192
10274,3.0,,,,67.0,,,,,100,note_on,,88.0,67.0,88.0,30144,78.5,192
10275,3.0,,,,67.0,,,,,44,note_on,,0.0,67.0,0.0,30188,78.61458333333333,192
10276,3.0,,,,64.0,,,,,4,note_on,,88.0,64.0,88.0,30192,78.625,192
10277,3.0,,,,64.0,,,,,44,note_on,,0.0,64.0,0.0,30236,78.73958333333333,192
10278,3.0,,,,72.0,,,,,52,note_on,,88.0,72.0,88.0,30288,78.875,192
10279,3.0,,,,72.0,,,,,44,note_on,,0.0,72.0,0.0,30332,78.98958333333333,192
10280,3.0,,,,67.0,,,,,52,note_on,,88.0,67.0,88.0,30384,79.125,192
10281,3.0,,,,67.0,,,,,44,note_on,,0.0,67.0,0.0,30428,79.23958333333333,192
10282,3.0,,,,72.0,,,,,52,note_on,,44.0,72.0,44.0,30480,79.375,192
10283,3.0,,,,72.0,,,,,44,note_on,,0.0,72.0,0.0,30524,79.48958333333333,192
10284,3.0,,,,67.0,,,,,52,note_on,,44.0,67.0,44.0,30576,79.625,192
10285,3.0,,,,67.0,,,,,44,note_on,,0.0,67.0,0.0,30620,79.73958333333333,192
10286,3.0,,,,72.0,,,,,52,note_on,,22.0,72.0,22.0,30672,79.875,192
10287,3.0,,,,72.0,,,,,44,note_on,,0.0,72.0,0.0,30716,79.98958333333333,192
10288,3.0,,,,67.0,,,,,52,note_on,,22.0,67.0,22.0,30768,80.125,192
10289,3.0,,,,67.0,,,,,44,note_on,,0.0,67.0,0.0,30812,80.23958333333333,192
10290,3.0,,,,71.0,,,,,100,note_on,,88.0,71.0,88.0,30912,80.5,192
10291,3.0,,,,71.0,,,,,44,note_on,,0.0,71.0,0.0,30956,80.61458333333333,192
10292,3.0,,,,67.0,,,,,4,note_on,,88.0,67.0,88.0,30960,80.625,192
10293,3.0,,,,67.0,,,,,44,note_on,,0.0,67.0,0.0,31004,80.73958333333333,192
10294,3.0,,,,79.0,,,,,52,note_on,,88.0,79.0,88.0,31056,80.875,192
10295,3.0,,,,79.0,,,,,44,note_on,,0.0,79.0,0.0,31100,80.98958333333333,192
10296,3.0,,,,74.0,,,,,52,note_on,,88.0,74.0,88.0,31152,81.125,192
10297,3.0,,,,74.0,,,,,44,note_on,,0.0,74.0,0.0,31196,81.23958333333333,192
10298,3.0,,,,79.0,,,,,52,note_on,,44.0,79.0,44.0,31248,81.375,192
10299,3.0,,,,79.0,,,,,44,note_on,,0.0,79.0,0.0,31292,81.48958333333333,192
10300,3.0,,,,74.0,,,,,52,note_on,,44.0,74.0,44.0,31344,81.625,192
10301,3.0,,,,74.0,,,,,44,note_on,,0.0,74.0,0.0,31388,81.73958333333333,192
10302,3.0,,,,79.0,,,,,52,note_on,,22.0,79.0,22.0,31440,81.875,192
10303,3.0,,,,79.0,,,,,44,note_on,,0.0,79.0,0.0,31484,81.98958333333333,192
10304,3.0,,,,74.0,,,,,52,note_on,,22.0,74.0,22.0,31536,82.125,192
10305,3.0,,,,74.0,,,,,44,note_on,,0.0,74.0,0.0,31580,82.23958333333333,192
10306,,,,,,,,,,0,end_of_track,,,,,0,0.0,192
10307,8.0,0.0,,,,,,,,0,control_change,0.0,,,,0,0.0,192
10308,8.0,,,,,,87.0,,,0,program_change,,,,,0,0.0,192
10309,,,"(74, 65, 90, 50, 1, 0, 0, 0, 0, 0, 0, 0, 0, 0, 0, 0, 0, 0, 0, 0)",,,,,,,0,sequencer_specific,,,,,0,0.0,192
10310,8.0,10.0,,,,,,,,0,control_change,14.0,,,,0,0.0,192
10311,8.0,91.0,,,,,,,,0,control_change,40.0,,,,0,0.0,192
10312,8.0,64.0,,,,,,,,0,control_change,60.0,,,,0,0.0,192
10313,8.0,93.0,,,,,,,,0,control_change,0.0,,,,0,0.0,192
10314,8.0,7.0,,,,,,,,0,control_change,74.0,,,,0,0.0,192
10315,,,,Bass And Lead,,,,,,0,track_name,,,,,0,0.0,192
10316,8.0,,,,71.0,,,,,960,note_on,,88.0,71.0,88.0,960,2.5,192
10317,8.0,,,,71.0,,,,,44,note_on,,0.0,71.0,0.0,1004,2.614583333333333,192
10318,8.0,,,,67.0,,,,,4,note_on,,88.0,67.0,88.0,1008,2.625,192
10319,8.0,,,,67.0,,,,,44,note_on,,0.0,67.0,0.0,1052,2.739583333333333,192
10320,8.0,,,,79.0,,,,,52,note_on,,88.0,79.0,88.0,1104,2.875,192
10321,8.0,,,,79.0,,,,,44,note_on,,0.0,79.0,0.0,1148,2.989583333333333,192
10322,8.0,,,,74.0,,,,,52,note_on,,88.0,74.0,88.0,1200,3.125,192
10323,8.0,,,,74.0,,,,,44,note_on,,0.0,74.0,0.0,1244,3.239583333333333,192
10324,8.0,,,,79.0,,,,,52,note_on,,44.0,79.0,44.0,1296,3.375,192
10325,8.0,,,,79.0,,,,,44,note_on,,0.0,79.0,0.0,1340,3.489583333333333,192
10326,8.0,,,,74.0,,,,,52,note_on,,44.0,74.0,44.0,1392,3.625,192
10327,8.0,,,,74.0,,,,,44,note_on,,0.0,74.0,0.0,1436,3.739583333333333,192
10328,8.0,,,,79.0,,,,,52,note_on,,22.0,79.0,22.0,1488,3.875,192
10329,8.0,,,,79.0,,,,,44,note_on,,0.0,79.0,0.0,1532,3.989583333333333,192
10330,8.0,,,,74.0,,,,,52,note_on,,22.0,74.0,22.0,1584,4.125,192
10331,8.0,,,,74.0,,,,,44,note_on,,0.0,74.0,0.0,1628,4.239583333333333,192
10332,8.0,,,,69.0,,,,,100,note_on,,88.0,69.0,88.0,1728,4.5,192
10333,8.0,,,,69.0,,,,,44,note_on,,0.0,69.0,0.0,1772,4.614583333333333,192
10334,8.0,,,,65.0,,,,,4,note_on,,88.0,65.0,88.0,1776,4.625,192
10335,8.0,,,,65.0,,,,,44,note_on,,0.0,65.0,0.0,1820,4.739583333333333,192
10336,8.0,,,,77.0,,,,,52,note_on,,88.0,77.0,88.0,1872,4.875,192
10337,8.0,,,,77.0,,,,,44,note_on,,0.0,77.0,0.0,1916,4.989583333333333,192
10338,8.0,,,,72.0,,,,,52,note_on,,88.0,72.0,88.0,1968,5.125,192
10339,8.0,,,,72.0,,,,,44,note_on,,0.0,72.0,0.0,2012,5.239583333333333,192
10340,8.0,,,,77.0,,,,,52,note_on,,44.0,77.0,44.0,2064,5.375,192
10341,8.0,,,,77.0,,,,,44,note_on,,0.0,77.0,0.0,2108,5.489583333333333,192
10342,8.0,,,,72.0,,,,,52,note_on,,44.0,72.0,44.0,2160,5.625,192
10343,8.0,,,,72.0,,,,,44,note_on,,0.0,72.0,0.0,2204,5.739583333333333,192
10344,8.0,,,,77.0,,,,,52,note_on,,22.0,77.0,22.0,2256,5.875,192
10345,8.0,,,,77.0,,,,,44,note_on,,0.0,77.0,0.0,2300,5.989583333333333,192
10346,8.0,,,,72.0,,,,,52,note_on,,22.0,72.0,22.0,2352,6.125,192
10347,8.0,,,,72.0,,,,,44,note_on,,0.0,72.0,0.0,2396,6.239583333333333,192
10348,8.0,,,,67.0,,,,,100,note_on,,88.0,67.0,88.0,2496,6.5,192
10349,8.0,,,,67.0,,,,,44,note_on,,0.0,67.0,0.0,2540,6.614583333333333,192
10350,8.0,,,,64.0,,,,,4,note_on,,88.0,64.0,88.0,2544,6.625,192
10351,8.0,,,,64.0,,,,,44,note_on,,0.0,64.0,0.0,2588,6.739583333333333,192
10352,8.0,,,,72.0,,,,,52,note_on,,88.0,72.0,88.0,2640,6.875,192
10353,8.0,,,,72.0,,,,,44,note_on,,0.0,72.0,0.0,2684,6.989583333333333,192
10354,8.0,,,,67.0,,,,,52,note_on,,88.0,67.0,88.0,2736,7.125,192
10355,8.0,,,,67.0,,,,,44,note_on,,0.0,67.0,0.0,2780,7.239583333333333,192
10356,8.0,,,,72.0,,,,,52,note_on,,44.0,72.0,44.0,2832,7.375,192
10357,8.0,,,,72.0,,,,,44,note_on,,0.0,72.0,0.0,2876,7.489583333333333,192
10358,8.0,,,,67.0,,,,,52,note_on,,44.0,67.0,44.0,2928,7.625,192
10359,8.0,,,,67.0,,,,,44,note_on,,0.0,67.0,0.0,2972,7.739583333333333,192
10360,8.0,,,,72.0,,,,,52,note_on,,22.0,72.0,22.0,3024,7.875,192
10361,8.0,,,,72.0,,,,,44,note_on,,0.0,72.0,0.0,3068,7.989583333333333,192
10362,8.0,,,,67.0,,,,,52,note_on,,22.0,67.0,22.0,3120,8.125,192
10363,8.0,,,,67.0,,,,,44,note_on,,0.0,67.0,0.0,3164,8.239583333333332,192
10364,8.0,,,,71.0,,,,,100,note_on,,88.0,71.0,88.0,3264,8.5,192
10365,8.0,,,,71.0,,,,,44,note_on,,0.0,71.0,0.0,3308,8.614583333333332,192
10366,8.0,,,,67.0,,,,,4,note_on,,88.0,67.0,88.0,3312,8.625,192
10367,8.0,,,,67.0,,,,,44,note_on,,0.0,67.0,0.0,3356,8.739583333333332,192
10368,8.0,,,,79.0,,,,,52,note_on,,88.0,79.0,88.0,3408,8.875,192
10369,8.0,,,,79.0,,,,,44,note_on,,0.0,79.0,0.0,3452,8.989583333333332,192
10370,8.0,,,,74.0,,,,,52,note_on,,88.0,74.0,88.0,3504,9.125,192
10371,8.0,,,,74.0,,,,,44,note_on,,0.0,74.0,0.0,3548,9.239583333333332,192
10372,8.0,,,,79.0,,,,,52,note_on,,44.0,79.0,44.0,3600,9.375,192
10373,8.0,,,,79.0,,,,,44,note_on,,0.0,79.0,0.0,3644,9.489583333333332,192
10374,8.0,,,,74.0,,,,,52,note_on,,44.0,74.0,44.0,3696,9.625,192
10375,8.0,,,,74.0,,,,,44,note_on,,0.0,74.0,0.0,3740,9.739583333333332,192
10376,8.0,,,,79.0,,,,,52,note_on,,22.0,79.0,22.0,3792,9.875,192
10377,8.0,,,,79.0,,,,,44,note_on,,0.0,79.0,0.0,3836,9.989583333333332,192
10378,8.0,,,,74.0,,,,,52,note_on,,22.0,74.0,22.0,3888,10.125,192
10379,8.0,,,,74.0,,,,,44,note_on,,0.0,74.0,0.0,3932,10.239583333333332,192
10380,8.0,,,,71.0,,,,,100,note_on,,88.0,71.0,88.0,4032,10.5,192
10381,8.0,,,,71.0,,,,,44,note_on,,0.0,71.0,0.0,4076,10.614583333333332,192
10382,8.0,,,,67.0,,,,,4,note_on,,88.0,67.0,88.0,4080,10.625,192
10383,8.0,,,,67.0,,,,,44,note_on,,0.0,67.0,0.0,4124,10.739583333333332,192
10384,8.0,,,,79.0,,,,,52,note_on,,88.0,79.0,88.0,4176,10.875,192
10385,8.0,,,,79.0,,,,,44,note_on,,0.0,79.0,0.0,4220,10.989583333333332,192
10386,8.0,,,,74.0,,,,,52,note_on,,88.0,74.0,88.0,4272,11.125,192
10387,8.0,,,,74.0,,,,,44,note_on,,0.0,74.0,0.0,4316,11.239583333333332,192
10388,8.0,,,,79.0,,,,,52,note_on,,44.0,79.0,44.0,4368,11.375,192
10389,8.0,,,,79.0,,,,,44,note_on,,0.0,79.0,0.0,4412,11.489583333333332,192
10390,8.0,,,,74.0,,,,,52,note_on,,44.0,74.0,44.0,4464,11.625,192
10391,8.0,,,,74.0,,,,,44,note_on,,0.0,74.0,0.0,4508,11.739583333333332,192
10392,8.0,,,,79.0,,,,,52,note_on,,22.0,79.0,22.0,4560,11.875,192
10393,8.0,,,,79.0,,,,,44,note_on,,0.0,79.0,0.0,4604,11.989583333333332,192
10394,8.0,,,,74.0,,,,,52,note_on,,22.0,74.0,22.0,4656,12.125,192
10395,8.0,,,,74.0,,,,,44,note_on,,0.0,74.0,0.0,4700,12.239583333333332,192
10396,8.0,,,,69.0,,,,,100,note_on,,88.0,69.0,88.0,4800,12.5,192
10397,8.0,,,,69.0,,,,,44,note_on,,0.0,69.0,0.0,4844,12.614583333333332,192
10398,8.0,,,,65.0,,,,,4,note_on,,88.0,65.0,88.0,4848,12.625,192
10399,8.0,,,,65.0,,,,,44,note_on,,0.0,65.0,0.0,4892,12.739583333333332,192
10400,8.0,,,,77.0,,,,,52,note_on,,88.0,77.0,88.0,4944,12.875,192
10401,8.0,,,,77.0,,,,,44,note_on,,0.0,77.0,0.0,4988,12.989583333333332,192
10402,8.0,,,,72.0,,,,,52,note_on,,88.0,72.0,88.0,5040,13.125,192
10403,8.0,,,,72.0,,,,,44,note_on,,0.0,72.0,0.0,5084,13.239583333333332,192
10404,8.0,,,,77.0,,,,,52,note_on,,44.0,77.0,44.0,5136,13.375,192
10405,8.0,,,,77.0,,,,,44,note_on,,0.0,77.0,0.0,5180,13.489583333333332,192
10406,8.0,,,,72.0,,,,,52,note_on,,44.0,72.0,44.0,5232,13.625,192
10407,8.0,,,,72.0,,,,,44,note_on,,0.0,72.0,0.0,5276,13.739583333333332,192
10408,8.0,,,,77.0,,,,,52,note_on,,22.0,77.0,22.0,5328,13.875,192
10409,8.0,,,,77.0,,,,,44,note_on,,0.0,77.0,0.0,5372,13.989583333333332,192
10410,8.0,,,,72.0,,,,,52,note_on,,22.0,72.0,22.0,5424,14.125,192
10411,8.0,,,,72.0,,,,,44,note_on,,0.0,72.0,0.0,5468,14.239583333333332,192
10412,8.0,,,,67.0,,,,,100,note_on,,88.0,67.0,88.0,5568,14.5,192
10413,8.0,,,,67.0,,,,,44,note_on,,0.0,67.0,0.0,5612,14.614583333333332,192
10414,8.0,,,,64.0,,,,,4,note_on,,88.0,64.0,88.0,5616,14.625,192
10415,8.0,,,,64.0,,,,,44,note_on,,0.0,64.0,0.0,5660,14.739583333333332,192
10416,8.0,,,,72.0,,,,,52,note_on,,88.0,72.0,88.0,5712,14.875,192
10417,8.0,,,,72.0,,,,,44,note_on,,0.0,72.0,0.0,5756,14.989583333333332,192
10418,8.0,,,,67.0,,,,,52,note_on,,88.0,67.0,88.0,5808,15.125,192
10419,8.0,,,,67.0,,,,,44,note_on,,0.0,67.0,0.0,5852,15.239583333333332,192
10420,8.0,,,,72.0,,,,,52,note_on,,44.0,72.0,44.0,5904,15.375,192
10421,8.0,,,,72.0,,,,,44,note_on,,0.0,72.0,0.0,5948,15.489583333333332,192
10422,8.0,,,,67.0,,,,,52,note_on,,44.0,67.0,44.0,6000,15.625,192
10423,8.0,,,,67.0,,,,,44,note_on,,0.0,67.0,0.0,6044,15.739583333333332,192
10424,8.0,,,,72.0,,,,,52,note_on,,22.0,72.0,22.0,6096,15.875,192
10425,8.0,,,,72.0,,,,,44,note_on,,0.0,72.0,0.0,6140,15.989583333333332,192
10426,8.0,,,,67.0,,,,,52,note_on,,22.0,67.0,22.0,6192,16.125,192
10427,8.0,,,,67.0,,,,,44,note_on,,0.0,67.0,0.0,6236,16.239583333333332,192
10428,8.0,,,,71.0,,,,,868,note_on,,88.0,71.0,88.0,7104,18.5,192
10429,8.0,,,,71.0,,,,,44,note_on,,0.0,71.0,0.0,7148,18.614583333333332,192
10430,8.0,,,,67.0,,,,,4,note_on,,88.0,67.0,88.0,7152,18.625,192
10431,8.0,,,,67.0,,,,,44,note_on,,0.0,67.0,0.0,7196,18.739583333333332,192
10432,8.0,,,,79.0,,,,,52,note_on,,88.0,79.0,88.0,7248,18.875,192
10433,8.0,,,,79.0,,,,,44,note_on,,0.0,79.0,0.0,7292,18.989583333333332,192
10434,8.0,,,,74.0,,,,,52,note_on,,88.0,74.0,88.0,7344,19.125,192
10435,8.0,,,,74.0,,,,,44,note_on,,0.0,74.0,0.0,7388,19.239583333333332,192
10436,8.0,,,,79.0,,,,,52,note_on,,44.0,79.0,44.0,7440,19.375,192
10437,8.0,,,,79.0,,,,,44,note_on,,0.0,79.0,0.0,7484,19.489583333333332,192
10438,8.0,,,,74.0,,,,,52,note_on,,44.0,74.0,44.0,7536,19.625,192
10439,8.0,,,,74.0,,,,,44,note_on,,0.0,74.0,0.0,7580,19.739583333333332,192
10440,8.0,,,,79.0,,,,,52,note_on,,22.0,79.0,22.0,7632,19.875,192
10441,8.0,,,,79.0,,,,,44,note_on,,0.0,79.0,0.0,7676,19.989583333333332,192
10442,8.0,,,,74.0,,,,,52,note_on,,22.0,74.0,22.0,7728,20.125,192
10443,8.0,,,,74.0,,,,,44,note_on,,0.0,74.0,0.0,7772,20.239583333333332,192
10444,8.0,,,,69.0,,,,,100,note_on,,88.0,69.0,88.0,7872,20.5,192
10445,8.0,,,,69.0,,,,,44,note_on,,0.0,69.0,0.0,7916,20.614583333333332,192
10446,8.0,,,,65.0,,,,,4,note_on,,88.0,65.0,88.0,7920,20.625,192
10447,8.0,,,,65.0,,,,,44,note_on,,0.0,65.0,0.0,7964,20.739583333333332,192
10448,8.0,,,,77.0,,,,,52,note_on,,88.0,77.0,88.0,8016,20.875,192
10449,8.0,,,,77.0,,,,,44,note_on,,0.0,77.0,0.0,8060,20.989583333333332,192
10450,8.0,,,,72.0,,,,,52,note_on,,88.0,72.0,88.0,8112,21.125,192
10451,8.0,,,,72.0,,,,,44,note_on,,0.0,72.0,0.0,8156,21.239583333333332,192
10452,8.0,,,,77.0,,,,,52,note_on,,44.0,77.0,44.0,8208,21.375,192
10453,8.0,,,,77.0,,,,,44,note_on,,0.0,77.0,0.0,8252,21.489583333333332,192
10454,8.0,,,,72.0,,,,,52,note_on,,44.0,72.0,44.0,8304,21.625,192
10455,8.0,,,,72.0,,,,,44,note_on,,0.0,72.0,0.0,8348,21.739583333333332,192
10456,8.0,,,,77.0,,,,,52,note_on,,22.0,77.0,22.0,8400,21.875,192
10457,8.0,,,,77.0,,,,,44,note_on,,0.0,77.0,0.0,8444,21.989583333333332,192
10458,8.0,,,,72.0,,,,,52,note_on,,22.0,72.0,22.0,8496,22.125,192
10459,8.0,,,,72.0,,,,,44,note_on,,0.0,72.0,0.0,8540,22.239583333333332,192
10460,8.0,,,,67.0,,,,,100,note_on,,88.0,67.0,88.0,8640,22.5,192
10461,8.0,,,,67.0,,,,,44,note_on,,0.0,67.0,0.0,8684,22.614583333333332,192
10462,8.0,,,,64.0,,,,,4,note_on,,88.0,64.0,88.0,8688,22.625,192
10463,8.0,,,,64.0,,,,,44,note_on,,0.0,64.0,0.0,8732,22.739583333333332,192
10464,8.0,,,,72.0,,,,,52,note_on,,88.0,72.0,88.0,8784,22.875,192
10465,8.0,,,,72.0,,,,,44,note_on,,0.0,72.0,0.0,8828,22.989583333333332,192
10466,8.0,,,,67.0,,,,,52,note_on,,88.0,67.0,88.0,8880,23.125,192
10467,8.0,,,,67.0,,,,,44,note_on,,0.0,67.0,0.0,8924,23.239583333333332,192
10468,8.0,,,,72.0,,,,,52,note_on,,44.0,72.0,44.0,8976,23.375,192
10469,8.0,,,,72.0,,,,,44,note_on,,0.0,72.0,0.0,9020,23.489583333333332,192
10470,8.0,,,,67.0,,,,,52,note_on,,44.0,67.0,44.0,9072,23.625,192
10471,8.0,,,,67.0,,,,,44,note_on,,0.0,67.0,0.0,9116,23.739583333333332,192
10472,8.0,,,,72.0,,,,,52,note_on,,22.0,72.0,22.0,9168,23.875,192
10473,8.0,,,,72.0,,,,,44,note_on,,0.0,72.0,0.0,9212,23.989583333333332,192
10474,8.0,,,,67.0,,,,,52,note_on,,22.0,67.0,22.0,9264,24.125,192
10475,8.0,,,,67.0,,,,,44,note_on,,0.0,67.0,0.0,9308,24.239583333333332,192
10476,8.0,,,,71.0,,,,,100,note_on,,88.0,71.0,88.0,9408,24.5,192
10477,8.0,,,,71.0,,,,,44,note_on,,0.0,71.0,0.0,9452,24.614583333333332,192
10478,8.0,,,,67.0,,,,,4,note_on,,88.0,67.0,88.0,9456,24.625,192
10479,8.0,,,,67.0,,,,,44,note_on,,0.0,67.0,0.0,9500,24.739583333333332,192
10480,8.0,,,,79.0,,,,,52,note_on,,88.0,79.0,88.0,9552,24.875,192
10481,8.0,,,,79.0,,,,,44,note_on,,0.0,79.0,0.0,9596,24.989583333333332,192
10482,8.0,,,,74.0,,,,,52,note_on,,88.0,74.0,88.0,9648,25.125,192
10483,8.0,,,,74.0,,,,,44,note_on,,0.0,74.0,0.0,9692,25.239583333333332,192
10484,8.0,,,,79.0,,,,,52,note_on,,44.0,79.0,44.0,9744,25.375,192
10485,8.0,,,,79.0,,,,,44,note_on,,0.0,79.0,0.0,9788,25.489583333333332,192
10486,8.0,,,,74.0,,,,,52,note_on,,44.0,74.0,44.0,9840,25.625,192
10487,8.0,,,,74.0,,,,,44,note_on,,0.0,74.0,0.0,9884,25.739583333333332,192
10488,8.0,,,,79.0,,,,,52,note_on,,22.0,79.0,22.0,9936,25.875,192
10489,8.0,,,,79.0,,,,,44,note_on,,0.0,79.0,0.0,9980,25.989583333333332,192
10490,8.0,,,,74.0,,,,,52,note_on,,22.0,74.0,22.0,10032,26.125,192
10491,8.0,,,,74.0,,,,,44,note_on,,0.0,74.0,0.0,10076,26.239583333333332,192
10492,8.0,,,,71.0,,,,,100,note_on,,88.0,71.0,88.0,10176,26.5,192
10493,8.0,,,,71.0,,,,,44,note_on,,0.0,71.0,0.0,10220,26.614583333333332,192
10494,8.0,,,,67.0,,,,,4,note_on,,88.0,67.0,88.0,10224,26.625,192
10495,8.0,,,,67.0,,,,,44,note_on,,0.0,67.0,0.0,10268,26.739583333333332,192
10496,8.0,,,,79.0,,,,,52,note_on,,88.0,79.0,88.0,10320,26.875,192
10497,8.0,,,,79.0,,,,,44,note_on,,0.0,79.0,0.0,10364,26.989583333333332,192
10498,8.0,,,,74.0,,,,,52,note_on,,88.0,74.0,88.0,10416,27.125,192
10499,8.0,,,,74.0,,,,,44,note_on,,0.0,74.0,0.0,10460,27.239583333333332,192
10500,8.0,,,,79.0,,,,,52,note_on,,44.0,79.0,44.0,10512,27.375,192
10501,8.0,,,,79.0,,,,,44,note_on,,0.0,79.0,0.0,10556,27.489583333333332,192
10502,8.0,,,,74.0,,,,,52,note_on,,44.0,74.0,44.0,10608,27.625,192
10503,8.0,,,,74.0,,,,,44,note_on,,0.0,74.0,0.0,10652,27.739583333333332,192
10504,8.0,,,,79.0,,,,,52,note_on,,22.0,79.0,22.0,10704,27.875,192
10505,8.0,,,,79.0,,,,,44,note_on,,0.0,79.0,0.0,10748,27.989583333333332,192
10506,8.0,,,,74.0,,,,,52,note_on,,22.0,74.0,22.0,10800,28.125,192
10507,8.0,,,,74.0,,,,,44,note_on,,0.0,74.0,0.0,10844,28.239583333333332,192
10508,8.0,,,,69.0,,,,,100,note_on,,88.0,69.0,88.0,10944,28.5,192
10509,8.0,,,,69.0,,,,,44,note_on,,0.0,69.0,0.0,10988,28.614583333333332,192
10510,8.0,,,,65.0,,,,,4,note_on,,88.0,65.0,88.0,10992,28.625,192
10511,8.0,,,,65.0,,,,,44,note_on,,0.0,65.0,0.0,11036,28.739583333333332,192
10512,8.0,,,,77.0,,,,,52,note_on,,88.0,77.0,88.0,11088,28.875,192
10513,8.0,,,,77.0,,,,,44,note_on,,0.0,77.0,0.0,11132,28.989583333333332,192
10514,8.0,,,,72.0,,,,,52,note_on,,88.0,72.0,88.0,11184,29.125,192
10515,8.0,,,,72.0,,,,,44,note_on,,0.0,72.0,0.0,11228,29.239583333333332,192
10516,8.0,,,,77.0,,,,,52,note_on,,44.0,77.0,44.0,11280,29.375,192
10517,8.0,,,,77.0,,,,,44,note_on,,0.0,77.0,0.0,11324,29.489583333333332,192
10518,8.0,,,,72.0,,,,,52,note_on,,44.0,72.0,44.0,11376,29.625,192
10519,8.0,,,,72.0,,,,,44,note_on,,0.0,72.0,0.0,11420,29.739583333333332,192
10520,8.0,,,,77.0,,,,,52,note_on,,22.0,77.0,22.0,11472,29.875,192
10521,8.0,,,,77.0,,,,,44,note_on,,0.0,77.0,0.0,11516,29.989583333333332,192
10522,8.0,,,,72.0,,,,,52,note_on,,22.0,72.0,22.0,11568,30.125,192
10523,8.0,,,,72.0,,,,,44,note_on,,0.0,72.0,0.0,11612,30.239583333333332,192
10524,8.0,,,,67.0,,,,,100,note_on,,88.0,67.0,88.0,11712,30.5,192
10525,8.0,,,,67.0,,,,,44,note_on,,0.0,67.0,0.0,11756,30.614583333333332,192
10526,8.0,,,,64.0,,,,,4,note_on,,88.0,64.0,88.0,11760,30.625,192
10527,8.0,,,,64.0,,,,,44,note_on,,0.0,64.0,0.0,11804,30.739583333333332,192
10528,8.0,,,,72.0,,,,,52,note_on,,88.0,72.0,88.0,11856,30.875,192
10529,8.0,,,,72.0,,,,,44,note_on,,0.0,72.0,0.0,11900,30.989583333333332,192
10530,8.0,,,,67.0,,,,,52,note_on,,88.0,67.0,88.0,11952,31.125,192
10531,8.0,,,,67.0,,,,,44,note_on,,0.0,67.0,0.0,11996,31.239583333333332,192
10532,8.0,,,,72.0,,,,,52,note_on,,44.0,72.0,44.0,12048,31.375,192
10533,8.0,,,,72.0,,,,,44,note_on,,0.0,72.0,0.0,12092,31.489583333333332,192
10534,8.0,,,,67.0,,,,,52,note_on,,44.0,67.0,44.0,12144,31.625,192
10535,8.0,,,,67.0,,,,,44,note_on,,0.0,67.0,0.0,12188,31.739583333333332,192
10536,8.0,,,,72.0,,,,,52,note_on,,22.0,72.0,22.0,12240,31.875,192
10537,8.0,,,,72.0,,,,,44,note_on,,0.0,72.0,0.0,12284,31.989583333333332,192
10538,8.0,,,,67.0,,,,,52,note_on,,22.0,67.0,22.0,12336,32.125,192
10539,8.0,,,,67.0,,,,,44,note_on,,0.0,67.0,0.0,12380,32.23958333333333,192
10540,8.0,,,,71.0,,,,,100,note_on,,88.0,71.0,88.0,12480,32.5,192
10541,8.0,,,,71.0,,,,,44,note_on,,0.0,71.0,0.0,12524,32.61458333333333,192
10542,8.0,,,,67.0,,,,,4,note_on,,88.0,67.0,88.0,12528,32.625,192
10543,8.0,,,,67.0,,,,,44,note_on,,0.0,67.0,0.0,12572,32.73958333333333,192
10544,8.0,,,,79.0,,,,,52,note_on,,88.0,79.0,88.0,12624,32.875,192
10545,8.0,,,,79.0,,,,,44,note_on,,0.0,79.0,0.0,12668,32.98958333333333,192
10546,8.0,,,,74.0,,,,,52,note_on,,88.0,74.0,88.0,12720,33.125,192
10547,8.0,,,,74.0,,,,,44,note_on,,0.0,74.0,0.0,12764,33.23958333333333,192
10548,8.0,,,,79.0,,,,,52,note_on,,44.0,79.0,44.0,12816,33.375,192
10549,8.0,,,,79.0,,,,,44,note_on,,0.0,79.0,0.0,12860,33.48958333333333,192
10550,8.0,,,,74.0,,,,,52,note_on,,44.0,74.0,44.0,12912,33.625,192
10551,8.0,,,,74.0,,,,,44,note_on,,0.0,74.0,0.0,12956,33.73958333333333,192
10552,8.0,,,,79.0,,,,,52,note_on,,22.0,79.0,22.0,13008,33.875,192
10553,8.0,,,,79.0,,,,,44,note_on,,0.0,79.0,0.0,13052,33.98958333333333,192
10554,8.0,,,,74.0,,,,,52,note_on,,22.0,74.0,22.0,13104,34.125,192
10555,8.0,,,,74.0,,,,,44,note_on,,0.0,74.0,0.0,13148,34.23958333333333,192
10556,8.0,,,,71.0,,,,,12388,note_on,,88.0,71.0,88.0,25536,66.5,192
10557,8.0,,,,71.0,,,,,44,note_on,,0.0,71.0,0.0,25580,66.61458333333333,192
10558,8.0,,,,67.0,,,,,4,note_on,,88.0,67.0,88.0,25584,66.625,192
10559,8.0,,,,67.0,,,,,44,note_on,,0.0,67.0,0.0,25628,66.73958333333333,192
10560,8.0,,,,79.0,,,,,52,note_on,,88.0,79.0,88.0,25680,66.875,192
10561,8.0,,,,79.0,,,,,44,note_on,,0.0,79.0,0.0,25724,66.98958333333333,192
10562,8.0,,,,74.0,,,,,52,note_on,,88.0,74.0,88.0,25776,67.125,192
10563,8.0,,,,74.0,,,,,44,note_on,,0.0,74.0,0.0,25820,67.23958333333333,192
10564,8.0,,,,79.0,,,,,52,note_on,,44.0,79.0,44.0,25872,67.375,192
10565,8.0,,,,79.0,,,,,44,note_on,,0.0,79.0,0.0,25916,67.48958333333333,192
10566,8.0,,,,74.0,,,,,52,note_on,,44.0,74.0,44.0,25968,67.625,192
10567,8.0,,,,74.0,,,,,44,note_on,,0.0,74.0,0.0,26012,67.73958333333333,192
10568,8.0,,,,79.0,,,,,52,note_on,,22.0,79.0,22.0,26064,67.875,192
10569,8.0,,,,79.0,,,,,44,note_on,,0.0,79.0,0.0,26108,67.98958333333333,192
10570,8.0,,,,74.0,,,,,52,note_on,,22.0,74.0,22.0,26160,68.125,192
10571,8.0,,,,74.0,,,,,44,note_on,,0.0,74.0,0.0,26204,68.23958333333333,192
10572,8.0,,,,69.0,,,,,100,note_on,,88.0,69.0,88.0,26304,68.5,192
10573,8.0,,,,69.0,,,,,44,note_on,,0.0,69.0,0.0,26348,68.61458333333333,192
10574,8.0,,,,65.0,,,,,4,note_on,,88.0,65.0,88.0,26352,68.625,192
10575,8.0,,,,65.0,,,,,44,note_on,,0.0,65.0,0.0,26396,68.73958333333333,192
10576,8.0,,,,77.0,,,,,52,note_on,,88.0,77.0,88.0,26448,68.875,192
10577,8.0,,,,77.0,,,,,44,note_on,,0.0,77.0,0.0,26492,68.98958333333333,192
10578,8.0,,,,72.0,,,,,52,note_on,,88.0,72.0,88.0,26544,69.125,192
10579,8.0,,,,72.0,,,,,44,note_on,,0.0,72.0,0.0,26588,69.23958333333333,192
10580,8.0,,,,77.0,,,,,52,note_on,,44.0,77.0,44.0,26640,69.375,192
10581,8.0,,,,77.0,,,,,44,note_on,,0.0,77.0,0.0,26684,69.48958333333333,192
10582,8.0,,,,72.0,,,,,52,note_on,,44.0,72.0,44.0,26736,69.625,192
10583,8.0,,,,72.0,,,,,44,note_on,,0.0,72.0,0.0,26780,69.73958333333333,192
10584,8.0,,,,77.0,,,,,52,note_on,,22.0,77.0,22.0,26832,69.875,192
10585,8.0,,,,77.0,,,,,44,note_on,,0.0,77.0,0.0,26876,69.98958333333333,192
10586,8.0,,,,72.0,,,,,52,note_on,,22.0,72.0,22.0,26928,70.125,192
10587,8.0,,,,72.0,,,,,44,note_on,,0.0,72.0,0.0,26972,70.23958333333333,192
10588,8.0,,,,67.0,,,,,100,note_on,,88.0,67.0,88.0,27072,70.5,192
10589,8.0,,,,67.0,,,,,44,note_on,,0.0,67.0,0.0,27116,70.61458333333333,192
10590,8.0,,,,64.0,,,,,4,note_on,,88.0,64.0,88.0,27120,70.625,192
10591,8.0,,,,64.0,,,,,44,note_on,,0.0,64.0,0.0,27164,70.73958333333333,192
10592,8.0,,,,72.0,,,,,52,note_on,,88.0,72.0,88.0,27216,70.875,192
10593,8.0,,,,72.0,,,,,44,note_on,,0.0,72.0,0.0,27260,70.98958333333333,192
10594,8.0,,,,67.0,,,,,52,note_on,,88.0,67.0,88.0,27312,71.125,192
10595,8.0,,,,67.0,,,,,44,note_on,,0.0,67.0,0.0,27356,71.23958333333333,192
10596,8.0,,,,72.0,,,,,52,note_on,,44.0,72.0,44.0,27408,71.375,192
10597,8.0,,,,72.0,,,,,44,note_on,,0.0,72.0,0.0,27452,71.48958333333333,192
10598,8.0,,,,67.0,,,,,52,note_on,,44.0,67.0,44.0,27504,71.625,192
10599,8.0,,,,67.0,,,,,44,note_on,,0.0,67.0,0.0,27548,71.73958333333333,192
10600,8.0,,,,72.0,,,,,52,note_on,,22.0,72.0,22.0,27600,71.875,192
10601,8.0,,,,72.0,,,,,44,note_on,,0.0,72.0,0.0,27644,71.98958333333333,192
10602,8.0,,,,67.0,,,,,52,note_on,,22.0,67.0,22.0,27696,72.125,192
10603,8.0,,,,67.0,,,,,44,note_on,,0.0,67.0,0.0,27740,72.23958333333333,192
10604,8.0,,,,71.0,,,,,100,note_on,,88.0,71.0,88.0,27840,72.5,192
10605,8.0,,,,71.0,,,,,44,note_on,,0.0,71.0,0.0,27884,72.61458333333333,192
10606,8.0,,,,67.0,,,,,4,note_on,,88.0,67.0,88.0,27888,72.625,192
10607,8.0,,,,67.0,,,,,44,note_on,,0.0,67.0,0.0,27932,72.73958333333333,192
10608,8.0,,,,79.0,,,,,52,note_on,,88.0,79.0,88.0,27984,72.875,192
10609,8.0,,,,79.0,,,,,44,note_on,,0.0,79.0,0.0,28028,72.98958333333333,192
10610,8.0,,,,74.0,,,,,52,note_on,,88.0,74.0,88.0,28080,73.125,192
10611,8.0,,,,74.0,,,,,44,note_on,,0.0,74.0,0.0,28124,73.23958333333333,192
10612,8.0,,,,79.0,,,,,52,note_on,,44.0,79.0,44.0,28176,73.375,192
10613,8.0,,,,79.0,,,,,44,note_on,,0.0,79.0,0.0,28220,73.48958333333333,192
10614,8.0,,,,74.0,,,,,52,note_on,,44.0,74.0,44.0,28272,73.625,192
10615,8.0,,,,74.0,,,,,44,note_on,,0.0,74.0,0.0,28316,73.73958333333333,192
10616,8.0,,,,79.0,,,,,52,note_on,,22.0,79.0,22.0,28368,73.875,192
10617,8.0,,,,79.0,,,,,44,note_on,,0.0,79.0,0.0,28412,73.98958333333333,192
10618,8.0,,,,74.0,,,,,52,note_on,,22.0,74.0,22.0,28464,74.125,192
10619,8.0,,,,74.0,,,,,44,note_on,,0.0,74.0,0.0,28508,74.23958333333333,192
10620,8.0,,,,71.0,,,,,100,note_on,,88.0,71.0,88.0,28608,74.5,192
10621,8.0,,,,71.0,,,,,44,note_on,,0.0,71.0,0.0,28652,74.61458333333333,192
10622,8.0,,,,67.0,,,,,4,note_on,,88.0,67.0,88.0,28656,74.625,192
10623,8.0,,,,67.0,,,,,44,note_on,,0.0,67.0,0.0,28700,74.73958333333333,192
10624,8.0,,,,79.0,,,,,52,note_on,,88.0,79.0,88.0,28752,74.875,192
10625,8.0,,,,79.0,,,,,44,note_on,,0.0,79.0,0.0,28796,74.98958333333333,192
10626,8.0,,,,74.0,,,,,52,note_on,,88.0,74.0,88.0,28848,75.125,192
10627,8.0,,,,74.0,,,,,44,note_on,,0.0,74.0,0.0,28892,75.23958333333333,192
10628,8.0,,,,79.0,,,,,52,note_on,,44.0,79.0,44.0,28944,75.375,192
10629,8.0,,,,79.0,,,,,44,note_on,,0.0,79.0,0.0,28988,75.48958333333333,192
10630,8.0,,,,74.0,,,,,52,note_on,,44.0,74.0,44.0,29040,75.625,192
10631,8.0,,,,74.0,,,,,44,note_on,,0.0,74.0,0.0,29084,75.73958333333333,192
10632,8.0,,,,79.0,,,,,52,note_on,,22.0,79.0,22.0,29136,75.875,192
10633,8.0,,,,79.0,,,,,44,note_on,,0.0,79.0,0.0,29180,75.98958333333333,192
10634,8.0,,,,74.0,,,,,52,note_on,,22.0,74.0,22.0,29232,76.125,192
10635,8.0,,,,74.0,,,,,44,note_on,,0.0,74.0,0.0,29276,76.23958333333333,192
10636,8.0,,,,69.0,,,,,100,note_on,,88.0,69.0,88.0,29376,76.5,192
10637,8.0,,,,69.0,,,,,44,note_on,,0.0,69.0,0.0,29420,76.61458333333333,192
10638,8.0,,,,65.0,,,,,4,note_on,,88.0,65.0,88.0,29424,76.625,192
10639,8.0,,,,65.0,,,,,44,note_on,,0.0,65.0,0.0,29468,76.73958333333333,192
10640,8.0,,,,77.0,,,,,52,note_on,,88.0,77.0,88.0,29520,76.875,192
10641,8.0,,,,77.0,,,,,44,note_on,,0.0,77.0,0.0,29564,76.98958333333333,192
10642,8.0,,,,72.0,,,,,52,note_on,,88.0,72.0,88.0,29616,77.125,192
10643,8.0,,,,72.0,,,,,44,note_on,,0.0,72.0,0.0,29660,77.23958333333333,192
10644,8.0,,,,77.0,,,,,52,note_on,,44.0,77.0,44.0,29712,77.375,192
10645,8.0,,,,77.0,,,,,44,note_on,,0.0,77.0,0.0,29756,77.48958333333333,192
10646,8.0,,,,72.0,,,,,52,note_on,,44.0,72.0,44.0,29808,77.625,192
10647,8.0,,,,72.0,,,,,44,note_on,,0.0,72.0,0.0,29852,77.73958333333333,192
10648,8.0,,,,77.0,,,,,52,note_on,,22.0,77.0,22.0,29904,77.875,192
10649,8.0,,,,77.0,,,,,44,note_on,,0.0,77.0,0.0,29948,77.98958333333333,192
10650,8.0,,,,72.0,,,,,52,note_on,,22.0,72.0,22.0,30000,78.125,192
10651,8.0,,,,72.0,,,,,44,note_on,,0.0,72.0,0.0,30044,78.23958333333333,192
10652,8.0,,,,67.0,,,,,100,note_on,,88.0,67.0,88.0,30144,78.5,192
10653,8.0,,,,67.0,,,,,44,note_on,,0.0,67.0,0.0,30188,78.61458333333333,192
10654,8.0,,,,64.0,,,,,4,note_on,,88.0,64.0,88.0,30192,78.625,192
10655,8.0,,,,64.0,,,,,44,note_on,,0.0,64.0,0.0,30236,78.73958333333333,192
10656,8.0,,,,72.0,,,,,52,note_on,,88.0,72.0,88.0,30288,78.875,192
10657,8.0,,,,72.0,,,,,44,note_on,,0.0,72.0,0.0,30332,78.98958333333333,192
10658,8.0,,,,67.0,,,,,52,note_on,,88.0,67.0,88.0,30384,79.125,192
10659,8.0,,,,67.0,,,,,44,note_on,,0.0,67.0,0.0,30428,79.23958333333333,192
10660,8.0,,,,72.0,,,,,52,note_on,,44.0,72.0,44.0,30480,79.375,192
10661,8.0,,,,72.0,,,,,44,note_on,,0.0,72.0,0.0,30524,79.48958333333333,192
10662,8.0,,,,67.0,,,,,52,note_on,,44.0,67.0,44.0,30576,79.625,192
10663,8.0,,,,67.0,,,,,44,note_on,,0.0,67.0,0.0,30620,79.73958333333333,192
10664,8.0,,,,72.0,,,,,52,note_on,,22.0,72.0,22.0,30672,79.875,192
10665,8.0,,,,72.0,,,,,44,note_on,,0.0,72.0,0.0,30716,79.98958333333333,192
10666,8.0,,,,67.0,,,,,52,note_on,,22.0,67.0,22.0,30768,80.125,192
10667,8.0,,,,67.0,,,,,44,note_on,,0.0,67.0,0.0,30812,80.23958333333333,192
10668,8.0,,,,71.0,,,,,100,note_on,,88.0,71.0,88.0,30912,80.5,192
10669,8.0,,,,71.0,,,,,44,note_on,,0.0,71.0,0.0,30956,80.61458333333333,192
10670,8.0,,,,67.0,,,,,4,note_on,,88.0,67.0,88.0,30960,80.625,192
10671,8.0,,,,67.0,,,,,44,note_on,,0.0,67.0,0.0,31004,80.73958333333333,192
10672,8.0,,,,79.0,,,,,52,note_on,,88.0,79.0,88.0,31056,80.875,192
10673,8.0,,,,79.0,,,,,44,note_on,,0.0,79.0,0.0,31100,80.98958333333333,192
10674,8.0,,,,74.0,,,,,52,note_on,,88.0,74.0,88.0,31152,81.125,192
10675,8.0,,,,74.0,,,,,44,note_on,,0.0,74.0,0.0,31196,81.23958333333333,192
10676,8.0,,,,79.0,,,,,52,note_on,,44.0,79.0,44.0,31248,81.375,192
10677,8.0,,,,79.0,,,,,44,note_on,,0.0,79.0,0.0,31292,81.48958333333333,192
10678,8.0,,,,74.0,,,,,52,note_on,,44.0,74.0,44.0,31344,81.625,192
10679,8.0,,,,74.0,,,,,44,note_on,,0.0,74.0,0.0,31388,81.73958333333333,192
10680,8.0,,,,79.0,,,,,52,note_on,,22.0,79.0,22.0,31440,81.875,192
10681,8.0,,,,79.0,,,,,44,note_on,,0.0,79.0,0.0,31484,81.98958333333333,192
10682,8.0,,,,74.0,,,,,52,note_on,,22.0,74.0,22.0,31536,82.125,192
10683,8.0,,,,74.0,,,,,44,note_on,,0.0,74.0,0.0,31580,82.23958333333333,192
10684,,,,,,,,,,0,end_of_track,,,,,0,0.0,192
10685,5.0,0.0,,,,,,,,0,control_change,0.0,,,,0,0.0,192
10686,5.0,,,,,,28.0,,,0,program_change,,,,,0,0.0,192
10687,,,"(74, 65, 90, 50, 1, 0, 0, 0, 0, 0, 0, 0, 0, 0, 0, 0, 0, 0, 0, 0)",,,,,,,0,sequencer_specific,,,,,0,0.0,192
10688,5.0,91.0,,,,,,,,0,control_change,40.0,,,,0,0.0,192
10689,5.0,93.0,,,,,,,,0,control_change,0.0,,,,0,0.0,192
10690,,,,Muted Guitar,,,,,,0,track_name,,,,,0,0.0,192
10691,5.0,7.0,,,,,,,,0,control_change,49.0,,,,0,0.0,192
10692,5.0,10.0,,,,,,,,0,control_change,127.0,,,,0,0.0,192
10693,5.0,,,,55.0,,,,,13056,note_on,,112.0,55.0,112.0,13056,34.0,192
10694,5.0,,,,55.0,,,,,44,note_on,,0.0,55.0,0.0,13100,34.11458333333333,192
10695,5.0,,,,53.0,,,,,4,note_on,,112.0,53.0,112.0,13104,34.125,192
10696,5.0,,,,53.0,,,,,44,note_on,,0.0,53.0,0.0,13148,34.23958333333333,192
10697,5.0,,,,55.0,,,,,4,note_on,,112.0,55.0,112.0,13152,34.25,192
10698,5.0,,,,55.0,,,,,44,note_on,,0.0,55.0,0.0,13196,34.36458333333333,192
10699,5.0,,,,53.0,,,,,4,note_on,,112.0,53.0,112.0,13200,34.375,192
10700,5.0,,,,53.0,,,,,44,note_on,,0.0,53.0,0.0,13244,34.48958333333333,192
10701,5.0,,,,55.0,,,,,4,note_on,,112.0,55.0,112.0,13248,34.5,192
10702,5.0,,,,55.0,,,,,44,note_on,,0.0,55.0,0.0,13292,34.61458333333333,192
10703,5.0,,,,53.0,,,,,4,note_on,,112.0,53.0,112.0,13296,34.625,192
10704,5.0,,,,53.0,,,,,44,note_on,,0.0,53.0,0.0,13340,34.73958333333333,192
10705,5.0,,,,55.0,,,,,4,note_on,,112.0,55.0,112.0,13344,34.75,192
10706,5.0,,,,55.0,,,,,44,note_on,,0.0,55.0,0.0,13388,34.86458333333333,192
10707,5.0,,,,53.0,,,,,4,note_on,,112.0,53.0,112.0,13392,34.875,192
10708,5.0,,,,53.0,,,,,44,note_on,,0.0,53.0,0.0,13436,34.98958333333333,192
10709,5.0,,,,55.0,,,,,52,note_on,,112.0,55.0,112.0,13488,35.125,192
10710,5.0,,,,55.0,,,,,44,note_on,,0.0,55.0,0.0,13532,35.23958333333333,192
10711,5.0,,,,55.0,,,,,4,note_on,,112.0,55.0,112.0,13536,35.25,192
10712,5.0,,,,55.0,,,,,44,note_on,,0.0,55.0,0.0,13580,35.36458333333333,192
10713,5.0,,,,53.0,,,,,4,note_on,,112.0,53.0,112.0,13584,35.375,192
10714,5.0,,,,53.0,,,,,44,note_on,,0.0,53.0,0.0,13628,35.48958333333333,192
10715,5.0,,,,55.0,,,,,4,note_on,,112.0,55.0,112.0,13632,35.5,192
10716,5.0,,,,55.0,,,,,44,note_on,,0.0,55.0,0.0,13676,35.61458333333333,192
10717,5.0,,,,53.0,,,,,4,note_on,,112.0,53.0,112.0,13680,35.625,192
10718,5.0,,,,53.0,,,,,44,note_on,,0.0,53.0,0.0,13724,35.73958333333333,192
10719,5.0,,,,55.0,,,,,4,note_on,,112.0,55.0,112.0,13728,35.75,192
10720,5.0,,,,55.0,,,,,44,note_on,,0.0,55.0,0.0,13772,35.86458333333333,192
10721,5.0,,,,53.0,,,,,4,note_on,,112.0,53.0,112.0,13776,35.875,192
10722,5.0,,,,53.0,,,,,44,note_on,,0.0,53.0,0.0,13820,35.98958333333333,192
10723,5.0,,,,55.0,,,,,4,note_on,,112.0,55.0,112.0,13824,36.0,192
10724,5.0,,,,55.0,,,,,44,note_on,,0.0,55.0,0.0,13868,36.11458333333333,192
10725,5.0,,,,53.0,,,,,4,note_on,,112.0,53.0,112.0,13872,36.125,192
10726,5.0,,,,53.0,,,,,44,note_on,,0.0,53.0,0.0,13916,36.23958333333333,192
10727,5.0,,,,55.0,,,,,4,note_on,,112.0,55.0,112.0,13920,36.25,192
10728,5.0,,,,55.0,,,,,44,note_on,,0.0,55.0,0.0,13964,36.36458333333333,192
10729,5.0,,,,53.0,,,,,4,note_on,,112.0,53.0,112.0,13968,36.375,192
10730,5.0,,,,53.0,,,,,44,note_on,,0.0,53.0,0.0,14012,36.48958333333333,192
10731,5.0,,,,55.0,,,,,4,note_on,,112.0,55.0,112.0,14016,36.5,192
10732,5.0,,,,55.0,,,,,44,note_on,,0.0,55.0,0.0,14060,36.61458333333333,192
10733,5.0,,,,53.0,,,,,4,note_on,,112.0,53.0,112.0,14064,36.625,192
10734,5.0,,,,53.0,,,,,44,note_on,,0.0,53.0,0.0,14108,36.73958333333333,192
10735,5.0,,,,55.0,,,,,4,note_on,,112.0,55.0,112.0,14112,36.75,192
10736,5.0,,,,55.0,,,,,44,note_on,,0.0,55.0,0.0,14156,36.86458333333333,192
10737,5.0,,,,53.0,,,,,4,note_on,,112.0,53.0,112.0,14160,36.875,192
10738,5.0,,,,53.0,,,,,44,note_on,,0.0,53.0,0.0,14204,36.98958333333333,192
10739,5.0,,,,55.0,,,,,52,note_on,,112.0,55.0,112.0,14256,37.125,192
10740,5.0,,,,55.0,,,,,44,note_on,,0.0,55.0,0.0,14300,37.23958333333333,192
10741,5.0,,,,55.0,,,,,4,note_on,,112.0,55.0,112.0,14304,37.25,192
10742,5.0,,,,55.0,,,,,44,note_on,,0.0,55.0,0.0,14348,37.36458333333333,192
10743,5.0,,,,53.0,,,,,4,note_on,,112.0,53.0,112.0,14352,37.375,192
10744,5.0,,,,53.0,,,,,44,note_on,,0.0,53.0,0.0,14396,37.48958333333333,192
10745,5.0,,,,55.0,,,,,4,note_on,,112.0,55.0,112.0,14400,37.5,192
10746,5.0,,,,55.0,,,,,44,note_on,,0.0,55.0,0.0,14444,37.61458333333333,192
10747,5.0,,,,53.0,,,,,4,note_on,,112.0,53.0,112.0,14448,37.625,192
10748,5.0,,,,53.0,,,,,44,note_on,,0.0,53.0,0.0,14492,37.73958333333333,192
10749,5.0,,,,55.0,,,,,4,note_on,,112.0,55.0,112.0,14496,37.75,192
10750,5.0,,,,55.0,,,,,44,note_on,,0.0,55.0,0.0,14540,37.86458333333333,192
10751,5.0,,,,53.0,,,,,4,note_on,,112.0,53.0,112.0,14544,37.875,192
10752,5.0,,,,53.0,,,,,44,note_on,,0.0,53.0,0.0,14588,37.98958333333333,192
10753,5.0,,,,55.0,,,,,4,note_on,,112.0,55.0,112.0,14592,38.0,192
10754,5.0,,,,55.0,,,,,44,note_on,,0.0,55.0,0.0,14636,38.11458333333333,192
10755,5.0,,,,53.0,,,,,4,note_on,,112.0,53.0,112.0,14640,38.125,192
10756,5.0,,,,53.0,,,,,44,note_on,,0.0,53.0,0.0,14684,38.23958333333333,192
10757,5.0,,,,55.0,,,,,4,note_on,,112.0,55.0,112.0,14688,38.25,192
10758,5.0,,,,55.0,,,,,44,note_on,,0.0,55.0,0.0,14732,38.36458333333333,192
10759,5.0,,,,53.0,,,,,4,note_on,,112.0,53.0,112.0,14736,38.375,192
10760,5.0,,,,53.0,,,,,44,note_on,,0.0,53.0,0.0,14780,38.48958333333333,192
10761,5.0,,,,55.0,,,,,4,note_on,,112.0,55.0,112.0,14784,38.5,192
10762,5.0,,,,55.0,,,,,44,note_on,,0.0,55.0,0.0,14828,38.61458333333333,192
10763,5.0,,,,53.0,,,,,4,note_on,,112.0,53.0,112.0,14832,38.625,192
10764,5.0,,,,53.0,,,,,44,note_on,,0.0,53.0,0.0,14876,38.73958333333333,192
10765,5.0,,,,55.0,,,,,4,note_on,,112.0,55.0,112.0,14880,38.75,192
10766,5.0,,,,55.0,,,,,44,note_on,,0.0,55.0,0.0,14924,38.86458333333333,192
10767,5.0,,,,53.0,,,,,4,note_on,,112.0,53.0,112.0,14928,38.875,192
10768,5.0,,,,53.0,,,,,44,note_on,,0.0,53.0,0.0,14972,38.98958333333333,192
10769,5.0,,,,55.0,,,,,52,note_on,,112.0,55.0,112.0,15024,39.125,192
10770,5.0,,,,55.0,,,,,44,note_on,,0.0,55.0,0.0,15068,39.23958333333333,192
10771,5.0,,,,55.0,,,,,4,note_on,,112.0,55.0,112.0,15072,39.25,192
10772,5.0,,,,55.0,,,,,44,note_on,,0.0,55.0,0.0,15116,39.36458333333333,192
10773,5.0,,,,53.0,,,,,4,note_on,,112.0,53.0,112.0,15120,39.375,192
10774,5.0,,,,53.0,,,,,44,note_on,,0.0,53.0,0.0,15164,39.48958333333333,192
10775,5.0,,,,55.0,,,,,4,note_on,,112.0,55.0,112.0,15168,39.5,192
10776,5.0,,,,55.0,,,,,44,note_on,,0.0,55.0,0.0,15212,39.61458333333333,192
10777,5.0,,,,53.0,,,,,4,note_on,,112.0,53.0,112.0,15216,39.625,192
10778,5.0,,,,53.0,,,,,44,note_on,,0.0,53.0,0.0,15260,39.73958333333333,192
10779,5.0,,,,55.0,,,,,4,note_on,,112.0,55.0,112.0,15264,39.75,192
10780,5.0,,,,55.0,,,,,44,note_on,,0.0,55.0,0.0,15308,39.86458333333333,192
10781,5.0,,,,53.0,,,,,4,note_on,,112.0,53.0,112.0,15312,39.875,192
10782,5.0,,,,53.0,,,,,44,note_on,,0.0,53.0,0.0,15356,39.98958333333333,192
10783,5.0,,,,55.0,,,,,4,note_on,,112.0,55.0,112.0,15360,40.0,192
10784,5.0,,,,55.0,,,,,44,note_on,,0.0,55.0,0.0,15404,40.11458333333333,192
10785,5.0,,,,53.0,,,,,4,note_on,,112.0,53.0,112.0,15408,40.125,192
10786,5.0,,,,53.0,,,,,44,note_on,,0.0,53.0,0.0,15452,40.23958333333333,192
10787,5.0,,,,55.0,,,,,4,note_on,,112.0,55.0,112.0,15456,40.25,192
10788,5.0,,,,55.0,,,,,44,note_on,,0.0,55.0,0.0,15500,40.36458333333333,192
10789,5.0,,,,53.0,,,,,4,note_on,,112.0,53.0,112.0,15504,40.375,192
10790,5.0,,,,53.0,,,,,44,note_on,,0.0,53.0,0.0,15548,40.48958333333333,192
10791,5.0,,,,55.0,,,,,4,note_on,,112.0,55.0,112.0,15552,40.5,192
10792,5.0,,,,55.0,,,,,44,note_on,,0.0,55.0,0.0,15596,40.61458333333333,192
10793,5.0,,,,53.0,,,,,4,note_on,,112.0,53.0,112.0,15600,40.625,192
10794,5.0,,,,53.0,,,,,44,note_on,,0.0,53.0,0.0,15644,40.73958333333333,192
10795,5.0,,,,55.0,,,,,4,note_on,,112.0,55.0,112.0,15648,40.75,192
10796,5.0,,,,55.0,,,,,44,note_on,,0.0,55.0,0.0,15692,40.86458333333333,192
10797,5.0,,,,53.0,,,,,4,note_on,,112.0,53.0,112.0,15696,40.875,192
10798,5.0,,,,53.0,,,,,44,note_on,,0.0,53.0,0.0,15740,40.98958333333333,192
10799,5.0,,,,55.0,,,,,52,note_on,,112.0,55.0,112.0,15792,41.125,192
10800,5.0,,,,55.0,,,,,44,note_on,,0.0,55.0,0.0,15836,41.23958333333333,192
10801,5.0,,,,55.0,,,,,4,note_on,,112.0,55.0,112.0,15840,41.25,192
10802,5.0,,,,55.0,,,,,44,note_on,,0.0,55.0,0.0,15884,41.36458333333333,192
10803,5.0,,,,53.0,,,,,4,note_on,,112.0,53.0,112.0,15888,41.375,192
10804,5.0,,,,53.0,,,,,44,note_on,,0.0,53.0,0.0,15932,41.48958333333333,192
10805,5.0,,,,55.0,,,,,4,note_on,,112.0,55.0,112.0,15936,41.5,192
10806,5.0,,,,55.0,,,,,44,note_on,,0.0,55.0,0.0,15980,41.61458333333333,192
10807,5.0,,,,53.0,,,,,4,note_on,,112.0,53.0,112.0,15984,41.625,192
10808,5.0,,,,53.0,,,,,44,note_on,,0.0,53.0,0.0,16028,41.73958333333333,192
10809,5.0,,,,55.0,,,,,4,note_on,,112.0,55.0,112.0,16032,41.75,192
10810,5.0,,,,55.0,,,,,44,note_on,,0.0,55.0,0.0,16076,41.86458333333333,192
10811,5.0,,,,53.0,,,,,4,note_on,,112.0,53.0,112.0,16080,41.875,192
10812,5.0,,,,53.0,,,,,44,note_on,,0.0,53.0,0.0,16124,41.98958333333333,192
10813,5.0,,,,55.0,,,,,4,note_on,,112.0,55.0,112.0,16128,42.0,192
10814,5.0,,,,55.0,,,,,44,note_on,,0.0,55.0,0.0,16172,42.11458333333333,192
10815,5.0,,,,53.0,,,,,4,note_on,,112.0,53.0,112.0,16176,42.125,192
10816,5.0,,,,53.0,,,,,44,note_on,,0.0,53.0,0.0,16220,42.23958333333333,192
10817,5.0,,,,55.0,,,,,4,note_on,,112.0,55.0,112.0,16224,42.25,192
10818,5.0,,,,55.0,,,,,44,note_on,,0.0,55.0,0.0,16268,42.36458333333333,192
10819,5.0,,,,53.0,,,,,4,note_on,,112.0,53.0,112.0,16272,42.375,192
10820,5.0,,,,53.0,,,,,44,note_on,,0.0,53.0,0.0,16316,42.48958333333333,192
10821,5.0,,,,55.0,,,,,4,note_on,,112.0,55.0,112.0,16320,42.5,192
10822,5.0,,,,55.0,,,,,44,note_on,,0.0,55.0,0.0,16364,42.61458333333333,192
10823,5.0,,,,53.0,,,,,4,note_on,,112.0,53.0,112.0,16368,42.625,192
10824,5.0,,,,53.0,,,,,44,note_on,,0.0,53.0,0.0,16412,42.73958333333333,192
10825,5.0,,,,55.0,,,,,4,note_on,,112.0,55.0,112.0,16416,42.75,192
10826,5.0,,,,55.0,,,,,44,note_on,,0.0,55.0,0.0,16460,42.86458333333333,192
10827,5.0,,,,53.0,,,,,4,note_on,,112.0,53.0,112.0,16464,42.875,192
10828,5.0,,,,53.0,,,,,44,note_on,,0.0,53.0,0.0,16508,42.98958333333333,192
10829,5.0,,,,55.0,,,,,52,note_on,,112.0,55.0,112.0,16560,43.125,192
10830,5.0,,,,55.0,,,,,44,note_on,,0.0,55.0,0.0,16604,43.23958333333333,192
10831,5.0,,,,55.0,,,,,4,note_on,,112.0,55.0,112.0,16608,43.25,192
10832,5.0,,,,55.0,,,,,44,note_on,,0.0,55.0,0.0,16652,43.36458333333333,192
10833,5.0,,,,53.0,,,,,4,note_on,,112.0,53.0,112.0,16656,43.375,192
10834,5.0,,,,53.0,,,,,44,note_on,,0.0,53.0,0.0,16700,43.48958333333333,192
10835,5.0,,,,55.0,,,,,4,note_on,,112.0,55.0,112.0,16704,43.5,192
10836,5.0,,,,55.0,,,,,44,note_on,,0.0,55.0,0.0,16748,43.61458333333333,192
10837,5.0,,,,53.0,,,,,4,note_on,,112.0,53.0,112.0,16752,43.625,192
10838,5.0,,,,53.0,,,,,44,note_on,,0.0,53.0,0.0,16796,43.73958333333333,192
10839,5.0,,,,55.0,,,,,4,note_on,,112.0,55.0,112.0,16800,43.75,192
10840,5.0,,,,55.0,,,,,44,note_on,,0.0,55.0,0.0,16844,43.86458333333333,192
10841,5.0,,,,53.0,,,,,4,note_on,,112.0,53.0,112.0,16848,43.875,192
10842,5.0,,,,53.0,,,,,44,note_on,,0.0,53.0,0.0,16892,43.98958333333333,192
10843,5.0,,,,55.0,,,,,4,note_on,,112.0,55.0,112.0,16896,44.0,192
10844,5.0,,,,55.0,,,,,44,note_on,,0.0,55.0,0.0,16940,44.11458333333333,192
10845,5.0,,,,53.0,,,,,4,note_on,,112.0,53.0,112.0,16944,44.125,192
10846,5.0,,,,53.0,,,,,44,note_on,,0.0,53.0,0.0,16988,44.23958333333333,192
10847,5.0,,,,55.0,,,,,4,note_on,,112.0,55.0,112.0,16992,44.25,192
10848,5.0,,,,55.0,,,,,44,note_on,,0.0,55.0,0.0,17036,44.36458333333333,192
10849,5.0,,,,53.0,,,,,4,note_on,,112.0,53.0,112.0,17040,44.375,192
10850,5.0,,,,53.0,,,,,44,note_on,,0.0,53.0,0.0,17084,44.48958333333333,192
10851,5.0,,,,55.0,,,,,4,note_on,,112.0,55.0,112.0,17088,44.5,192
10852,5.0,,,,55.0,,,,,44,note_on,,0.0,55.0,0.0,17132,44.61458333333333,192
10853,5.0,,,,53.0,,,,,4,note_on,,112.0,53.0,112.0,17136,44.625,192
10854,5.0,,,,53.0,,,,,44,note_on,,0.0,53.0,0.0,17180,44.73958333333333,192
10855,5.0,,,,55.0,,,,,4,note_on,,112.0,55.0,112.0,17184,44.75,192
10856,5.0,,,,55.0,,,,,44,note_on,,0.0,55.0,0.0,17228,44.86458333333333,192
10857,5.0,,,,53.0,,,,,4,note_on,,112.0,53.0,112.0,17232,44.875,192
10858,5.0,,,,53.0,,,,,44,note_on,,0.0,53.0,0.0,17276,44.98958333333333,192
10859,5.0,,,,55.0,,,,,52,note_on,,112.0,55.0,112.0,17328,45.125,192
10860,5.0,,,,55.0,,,,,44,note_on,,0.0,55.0,0.0,17372,45.23958333333333,192
10861,5.0,,,,55.0,,,,,4,note_on,,112.0,55.0,112.0,17376,45.25,192
10862,5.0,,,,55.0,,,,,44,note_on,,0.0,55.0,0.0,17420,45.36458333333333,192
10863,5.0,,,,53.0,,,,,4,note_on,,112.0,53.0,112.0,17424,45.375,192
10864,5.0,,,,53.0,,,,,44,note_on,,0.0,53.0,0.0,17468,45.48958333333333,192
10865,5.0,,,,55.0,,,,,4,note_on,,112.0,55.0,112.0,17472,45.5,192
10866,5.0,,,,55.0,,,,,44,note_on,,0.0,55.0,0.0,17516,45.61458333333333,192
10867,5.0,,,,53.0,,,,,4,note_on,,112.0,53.0,112.0,17520,45.625,192
10868,5.0,,,,53.0,,,,,44,note_on,,0.0,53.0,0.0,17564,45.73958333333333,192
10869,5.0,,,,55.0,,,,,4,note_on,,112.0,55.0,112.0,17568,45.75,192
10870,5.0,,,,55.0,,,,,44,note_on,,0.0,55.0,0.0,17612,45.86458333333333,192
10871,5.0,,,,53.0,,,,,4,note_on,,112.0,53.0,112.0,17616,45.875,192
10872,5.0,,,,53.0,,,,,44,note_on,,0.0,53.0,0.0,17660,45.98958333333333,192
10873,5.0,,,,55.0,,,,,4,note_on,,112.0,55.0,112.0,17664,46.0,192
10874,5.0,,,,55.0,,,,,44,note_on,,0.0,55.0,0.0,17708,46.11458333333333,192
10875,5.0,,,,53.0,,,,,4,note_on,,112.0,53.0,112.0,17712,46.125,192
10876,5.0,,,,53.0,,,,,44,note_on,,0.0,53.0,0.0,17756,46.23958333333333,192
10877,5.0,,,,55.0,,,,,4,note_on,,112.0,55.0,112.0,17760,46.25,192
10878,5.0,,,,55.0,,,,,44,note_on,,0.0,55.0,0.0,17804,46.36458333333333,192
10879,5.0,,,,53.0,,,,,4,note_on,,112.0,53.0,112.0,17808,46.375,192
10880,5.0,,,,53.0,,,,,44,note_on,,0.0,53.0,0.0,17852,46.48958333333333,192
10881,5.0,,,,55.0,,,,,4,note_on,,112.0,55.0,112.0,17856,46.5,192
10882,5.0,,,,55.0,,,,,44,note_on,,0.0,55.0,0.0,17900,46.61458333333333,192
10883,5.0,,,,53.0,,,,,4,note_on,,112.0,53.0,112.0,17904,46.625,192
10884,5.0,,,,53.0,,,,,44,note_on,,0.0,53.0,0.0,17948,46.73958333333333,192
10885,5.0,,,,55.0,,,,,4,note_on,,112.0,55.0,112.0,17952,46.75,192
10886,5.0,,,,55.0,,,,,44,note_on,,0.0,55.0,0.0,17996,46.86458333333333,192
10887,5.0,,,,53.0,,,,,4,note_on,,112.0,53.0,112.0,18000,46.875,192
10888,5.0,,,,53.0,,,,,44,note_on,,0.0,53.0,0.0,18044,46.98958333333333,192
10889,5.0,,,,55.0,,,,,52,note_on,,112.0,55.0,112.0,18096,47.125,192
10890,5.0,,,,55.0,,,,,44,note_on,,0.0,55.0,0.0,18140,47.23958333333333,192
10891,5.0,,,,55.0,,,,,4,note_on,,112.0,55.0,112.0,18144,47.25,192
10892,5.0,,,,55.0,,,,,44,note_on,,0.0,55.0,0.0,18188,47.36458333333333,192
10893,5.0,,,,53.0,,,,,4,note_on,,112.0,53.0,112.0,18192,47.375,192
10894,5.0,,,,53.0,,,,,44,note_on,,0.0,53.0,0.0,18236,47.48958333333333,192
10895,5.0,,,,55.0,,,,,4,note_on,,112.0,55.0,112.0,18240,47.5,192
10896,5.0,,,,55.0,,,,,44,note_on,,0.0,55.0,0.0,18284,47.61458333333333,192
10897,5.0,,,,53.0,,,,,4,note_on,,112.0,53.0,112.0,18288,47.625,192
10898,5.0,,,,53.0,,,,,44,note_on,,0.0,53.0,0.0,18332,47.73958333333333,192
10899,5.0,,,,55.0,,,,,4,note_on,,112.0,55.0,112.0,18336,47.75,192
10900,5.0,,,,55.0,,,,,44,note_on,,0.0,55.0,0.0,18380,47.86458333333333,192
10901,5.0,,,,53.0,,,,,4,note_on,,112.0,53.0,112.0,18384,47.875,192
10902,5.0,,,,53.0,,,,,44,note_on,,0.0,53.0,0.0,18428,47.98958333333333,192
10903,5.0,,,,55.0,,,,,4,note_on,,112.0,55.0,112.0,18432,48.0,192
10904,5.0,,,,55.0,,,,,44,note_on,,0.0,55.0,0.0,18476,48.11458333333333,192
10905,5.0,,,,53.0,,,,,4,note_on,,112.0,53.0,112.0,18480,48.125,192
10906,5.0,,,,53.0,,,,,44,note_on,,0.0,53.0,0.0,18524,48.23958333333333,192
10907,5.0,,,,55.0,,,,,4,note_on,,112.0,55.0,112.0,18528,48.25,192
10908,5.0,,,,55.0,,,,,44,note_on,,0.0,55.0,0.0,18572,48.36458333333333,192
10909,5.0,,,,53.0,,,,,4,note_on,,112.0,53.0,112.0,18576,48.375,192
10910,5.0,,,,53.0,,,,,44,note_on,,0.0,53.0,0.0,18620,48.48958333333333,192
10911,5.0,,,,55.0,,,,,4,note_on,,112.0,55.0,112.0,18624,48.5,192
10912,5.0,,,,55.0,,,,,44,note_on,,0.0,55.0,0.0,18668,48.61458333333333,192
10913,5.0,,,,53.0,,,,,4,note_on,,112.0,53.0,112.0,18672,48.625,192
10914,5.0,,,,53.0,,,,,44,note_on,,0.0,53.0,0.0,18716,48.73958333333333,192
10915,5.0,,,,55.0,,,,,4,note_on,,112.0,55.0,112.0,18720,48.75,192
10916,5.0,,,,55.0,,,,,44,note_on,,0.0,55.0,0.0,18764,48.86458333333333,192
10917,5.0,,,,53.0,,,,,4,note_on,,112.0,53.0,112.0,18768,48.875,192
10918,5.0,,,,53.0,,,,,44,note_on,,0.0,53.0,0.0,18812,48.98958333333333,192
10919,5.0,,,,55.0,,,,,52,note_on,,112.0,55.0,112.0,18864,49.125,192
10920,5.0,,,,55.0,,,,,44,note_on,,0.0,55.0,0.0,18908,49.23958333333333,192
10921,5.0,,,,55.0,,,,,4,note_on,,112.0,55.0,112.0,18912,49.25,192
10922,5.0,,,,55.0,,,,,44,note_on,,0.0,55.0,0.0,18956,49.36458333333333,192
10923,5.0,,,,53.0,,,,,4,note_on,,112.0,53.0,112.0,18960,49.375,192
10924,5.0,,,,53.0,,,,,44,note_on,,0.0,53.0,0.0,19004,49.48958333333333,192
10925,5.0,,,,55.0,,,,,4,note_on,,112.0,55.0,112.0,19008,49.5,192
10926,5.0,,,,55.0,,,,,44,note_on,,0.0,55.0,0.0,19052,49.61458333333333,192
10927,5.0,,,,53.0,,,,,4,note_on,,112.0,53.0,112.0,19056,49.625,192
10928,5.0,,,,53.0,,,,,44,note_on,,0.0,53.0,0.0,19100,49.73958333333333,192
10929,5.0,,,,55.0,,,,,4,note_on,,112.0,55.0,112.0,19104,49.75,192
10930,5.0,,,,55.0,,,,,44,note_on,,0.0,55.0,0.0,19148,49.86458333333333,192
10931,5.0,,,,53.0,,,,,4,note_on,,112.0,53.0,112.0,19152,49.875,192
10932,5.0,,,,53.0,,,,,44,note_on,,0.0,53.0,0.0,19196,49.98958333333333,192
10933,5.0,,,,55.0,,,,,4,note_on,,112.0,55.0,112.0,19200,50.0,192
10934,5.0,,,,55.0,,,,,44,note_on,,0.0,55.0,0.0,19244,50.11458333333333,192
10935,5.0,,,,53.0,,,,,4,note_on,,112.0,53.0,112.0,19248,50.125,192
10936,5.0,,,,53.0,,,,,44,note_on,,0.0,53.0,0.0,19292,50.23958333333333,192
10937,5.0,,,,55.0,,,,,4,note_on,,112.0,55.0,112.0,19296,50.25,192
10938,5.0,,,,55.0,,,,,44,note_on,,0.0,55.0,0.0,19340,50.36458333333333,192
10939,5.0,,,,53.0,,,,,4,note_on,,112.0,53.0,112.0,19344,50.375,192
10940,5.0,,,,53.0,,,,,44,note_on,,0.0,53.0,0.0,19388,50.48958333333333,192
10941,5.0,,,,55.0,,,,,4,note_on,,112.0,55.0,112.0,19392,50.5,192
10942,5.0,,,,55.0,,,,,44,note_on,,0.0,55.0,0.0,19436,50.61458333333333,192
10943,5.0,,,,53.0,,,,,4,note_on,,112.0,53.0,112.0,19440,50.625,192
10944,5.0,,,,53.0,,,,,44,note_on,,0.0,53.0,0.0,19484,50.73958333333333,192
10945,5.0,,,,55.0,,,,,4,note_on,,112.0,55.0,112.0,19488,50.75,192
10946,5.0,,,,55.0,,,,,44,note_on,,0.0,55.0,0.0,19532,50.86458333333333,192
10947,5.0,,,,53.0,,,,,4,note_on,,112.0,53.0,112.0,19536,50.875,192
10948,5.0,,,,53.0,,,,,44,note_on,,0.0,53.0,0.0,19580,50.98958333333333,192
10949,5.0,,,,55.0,,,,,52,note_on,,112.0,55.0,112.0,19632,51.125,192
10950,5.0,,,,55.0,,,,,44,note_on,,0.0,55.0,0.0,19676,51.23958333333333,192
10951,5.0,,,,55.0,,,,,4,note_on,,112.0,55.0,112.0,19680,51.25,192
10952,5.0,,,,55.0,,,,,44,note_on,,0.0,55.0,0.0,19724,51.36458333333333,192
10953,5.0,,,,53.0,,,,,4,note_on,,112.0,53.0,112.0,19728,51.375,192
10954,5.0,,,,53.0,,,,,44,note_on,,0.0,53.0,0.0,19772,51.48958333333333,192
10955,5.0,,,,55.0,,,,,4,note_on,,112.0,55.0,112.0,19776,51.5,192
10956,5.0,,,,55.0,,,,,44,note_on,,0.0,55.0,0.0,19820,51.61458333333333,192
10957,5.0,,,,53.0,,,,,4,note_on,,112.0,53.0,112.0,19824,51.625,192
10958,5.0,,,,53.0,,,,,44,note_on,,0.0,53.0,0.0,19868,51.73958333333333,192
10959,5.0,,,,55.0,,,,,4,note_on,,112.0,55.0,112.0,19872,51.75,192
10960,5.0,,,,55.0,,,,,44,note_on,,0.0,55.0,0.0,19916,51.86458333333333,192
10961,5.0,,,,53.0,,,,,4,note_on,,112.0,53.0,112.0,19920,51.875,192
10962,5.0,,,,53.0,,,,,44,note_on,,0.0,53.0,0.0,19964,51.98958333333333,192
10963,5.0,,,,55.0,,,,,4,note_on,,112.0,55.0,112.0,19968,52.0,192
10964,5.0,,,,55.0,,,,,44,note_on,,0.0,55.0,0.0,20012,52.11458333333333,192
10965,5.0,,,,53.0,,,,,4,note_on,,112.0,53.0,112.0,20016,52.125,192
10966,5.0,,,,53.0,,,,,44,note_on,,0.0,53.0,0.0,20060,52.23958333333333,192
10967,5.0,,,,55.0,,,,,4,note_on,,112.0,55.0,112.0,20064,52.25,192
10968,5.0,,,,55.0,,,,,44,note_on,,0.0,55.0,0.0,20108,52.36458333333333,192
10969,5.0,,,,53.0,,,,,4,note_on,,112.0,53.0,112.0,20112,52.375,192
10970,5.0,,,,53.0,,,,,44,note_on,,0.0,53.0,0.0,20156,52.48958333333333,192
10971,5.0,,,,55.0,,,,,4,note_on,,112.0,55.0,112.0,20160,52.5,192
10972,5.0,,,,55.0,,,,,44,note_on,,0.0,55.0,0.0,20204,52.61458333333333,192
10973,5.0,,,,53.0,,,,,4,note_on,,112.0,53.0,112.0,20208,52.625,192
10974,5.0,,,,53.0,,,,,44,note_on,,0.0,53.0,0.0,20252,52.73958333333333,192
10975,5.0,,,,55.0,,,,,4,note_on,,112.0,55.0,112.0,20256,52.75,192
10976,5.0,,,,55.0,,,,,44,note_on,,0.0,55.0,0.0,20300,52.86458333333333,192
10977,5.0,,,,53.0,,,,,4,note_on,,112.0,53.0,112.0,20304,52.875,192
10978,5.0,,,,53.0,,,,,44,note_on,,0.0,53.0,0.0,20348,52.98958333333333,192
10979,5.0,,,,55.0,,,,,52,note_on,,112.0,55.0,112.0,20400,53.125,192
10980,5.0,,,,55.0,,,,,44,note_on,,0.0,55.0,0.0,20444,53.23958333333333,192
10981,5.0,,,,55.0,,,,,4,note_on,,112.0,55.0,112.0,20448,53.25,192
10982,5.0,,,,55.0,,,,,44,note_on,,0.0,55.0,0.0,20492,53.36458333333333,192
10983,5.0,,,,53.0,,,,,4,note_on,,112.0,53.0,112.0,20496,53.375,192
10984,5.0,,,,53.0,,,,,44,note_on,,0.0,53.0,0.0,20540,53.48958333333333,192
10985,5.0,,,,55.0,,,,,4,note_on,,112.0,55.0,112.0,20544,53.5,192
10986,5.0,,,,55.0,,,,,44,note_on,,0.0,55.0,0.0,20588,53.61458333333333,192
10987,5.0,,,,53.0,,,,,4,note_on,,112.0,53.0,112.0,20592,53.625,192
10988,5.0,,,,53.0,,,,,44,note_on,,0.0,53.0,0.0,20636,53.73958333333333,192
10989,5.0,,,,55.0,,,,,4,note_on,,112.0,55.0,112.0,20640,53.75,192
10990,5.0,,,,55.0,,,,,44,note_on,,0.0,55.0,0.0,20684,53.86458333333333,192
10991,5.0,,,,53.0,,,,,4,note_on,,112.0,53.0,112.0,20688,53.875,192
10992,5.0,,,,53.0,,,,,44,note_on,,0.0,53.0,0.0,20732,53.98958333333333,192
10993,5.0,,,,55.0,,,,,4,note_on,,112.0,55.0,112.0,20736,54.0,192
10994,5.0,,,,55.0,,,,,44,note_on,,0.0,55.0,0.0,20780,54.11458333333333,192
10995,5.0,,,,53.0,,,,,4,note_on,,112.0,53.0,112.0,20784,54.125,192
10996,5.0,,,,53.0,,,,,44,note_on,,0.0,53.0,0.0,20828,54.23958333333333,192
10997,5.0,,,,55.0,,,,,4,note_on,,112.0,55.0,112.0,20832,54.25,192
10998,5.0,,,,55.0,,,,,44,note_on,,0.0,55.0,0.0,20876,54.36458333333333,192
10999,5.0,,,,53.0,,,,,4,note_on,,112.0,53.0,112.0,20880,54.375,192
11000,5.0,,,,53.0,,,,,44,note_on,,0.0,53.0,0.0,20924,54.48958333333333,192
11001,5.0,,,,55.0,,,,,4,note_on,,112.0,55.0,112.0,20928,54.5,192
11002,5.0,,,,55.0,,,,,44,note_on,,0.0,55.0,0.0,20972,54.61458333333333,192
11003,5.0,,,,53.0,,,,,4,note_on,,112.0,53.0,112.0,20976,54.625,192
11004,5.0,,,,53.0,,,,,44,note_on,,0.0,53.0,0.0,21020,54.73958333333333,192
11005,5.0,,,,55.0,,,,,4,note_on,,112.0,55.0,112.0,21024,54.75,192
11006,5.0,,,,55.0,,,,,44,note_on,,0.0,55.0,0.0,21068,54.86458333333333,192
11007,5.0,,,,53.0,,,,,4,note_on,,112.0,53.0,112.0,21072,54.875,192
11008,5.0,,,,53.0,,,,,44,note_on,,0.0,53.0,0.0,21116,54.98958333333333,192
11009,5.0,,,,55.0,,,,,52,note_on,,112.0,55.0,112.0,21168,55.125,192
11010,5.0,,,,55.0,,,,,44,note_on,,0.0,55.0,0.0,21212,55.23958333333333,192
11011,5.0,,,,55.0,,,,,4,note_on,,112.0,55.0,112.0,21216,55.25,192
11012,5.0,,,,55.0,,,,,44,note_on,,0.0,55.0,0.0,21260,55.36458333333333,192
11013,5.0,,,,53.0,,,,,4,note_on,,112.0,53.0,112.0,21264,55.375,192
11014,5.0,,,,53.0,,,,,44,note_on,,0.0,53.0,0.0,21308,55.48958333333333,192
11015,5.0,,,,55.0,,,,,4,note_on,,112.0,55.0,112.0,21312,55.5,192
11016,5.0,,,,55.0,,,,,44,note_on,,0.0,55.0,0.0,21356,55.61458333333333,192
11017,5.0,,,,53.0,,,,,4,note_on,,112.0,53.0,112.0,21360,55.625,192
11018,5.0,,,,53.0,,,,,44,note_on,,0.0,53.0,0.0,21404,55.73958333333333,192
11019,5.0,,,,55.0,,,,,4,note_on,,112.0,55.0,112.0,21408,55.75,192
11020,5.0,,,,55.0,,,,,44,note_on,,0.0,55.0,0.0,21452,55.86458333333333,192
11021,5.0,,,,53.0,,,,,4,note_on,,112.0,53.0,112.0,21456,55.875,192
11022,5.0,,,,53.0,,,,,44,note_on,,0.0,53.0,0.0,21500,55.98958333333333,192
11023,5.0,,,,55.0,,,,,4,note_on,,112.0,55.0,112.0,21504,56.0,192
11024,5.0,,,,55.0,,,,,44,note_on,,0.0,55.0,0.0,21548,56.11458333333333,192
11025,5.0,,,,53.0,,,,,4,note_on,,112.0,53.0,112.0,21552,56.125,192
11026,5.0,,,,53.0,,,,,44,note_on,,0.0,53.0,0.0,21596,56.23958333333333,192
11027,5.0,,,,55.0,,,,,4,note_on,,112.0,55.0,112.0,21600,56.25,192
11028,5.0,,,,55.0,,,,,44,note_on,,0.0,55.0,0.0,21644,56.36458333333333,192
11029,5.0,,,,53.0,,,,,4,note_on,,112.0,53.0,112.0,21648,56.375,192
11030,5.0,,,,53.0,,,,,44,note_on,,0.0,53.0,0.0,21692,56.48958333333333,192
11031,5.0,,,,55.0,,,,,4,note_on,,112.0,55.0,112.0,21696,56.5,192
11032,5.0,,,,55.0,,,,,44,note_on,,0.0,55.0,0.0,21740,56.61458333333333,192
11033,5.0,,,,53.0,,,,,4,note_on,,112.0,53.0,112.0,21744,56.625,192
11034,5.0,,,,53.0,,,,,44,note_on,,0.0,53.0,0.0,21788,56.73958333333333,192
11035,5.0,,,,55.0,,,,,4,note_on,,112.0,55.0,112.0,21792,56.75,192
11036,5.0,,,,55.0,,,,,44,note_on,,0.0,55.0,0.0,21836,56.86458333333333,192
11037,5.0,,,,53.0,,,,,4,note_on,,112.0,53.0,112.0,21840,56.875,192
11038,5.0,,,,53.0,,,,,44,note_on,,0.0,53.0,0.0,21884,56.98958333333333,192
11039,5.0,,,,55.0,,,,,52,note_on,,112.0,55.0,112.0,21936,57.125,192
11040,5.0,,,,55.0,,,,,44,note_on,,0.0,55.0,0.0,21980,57.23958333333333,192
11041,5.0,,,,55.0,,,,,4,note_on,,112.0,55.0,112.0,21984,57.25,192
11042,5.0,,,,55.0,,,,,44,note_on,,0.0,55.0,0.0,22028,57.36458333333333,192
11043,5.0,,,,53.0,,,,,4,note_on,,112.0,53.0,112.0,22032,57.375,192
11044,5.0,,,,53.0,,,,,44,note_on,,0.0,53.0,0.0,22076,57.48958333333333,192
11045,5.0,,,,55.0,,,,,4,note_on,,112.0,55.0,112.0,22080,57.5,192
11046,5.0,,,,55.0,,,,,44,note_on,,0.0,55.0,0.0,22124,57.61458333333333,192
11047,5.0,,,,53.0,,,,,4,note_on,,112.0,53.0,112.0,22128,57.625,192
11048,5.0,,,,53.0,,,,,44,note_on,,0.0,53.0,0.0,22172,57.73958333333333,192
11049,5.0,,,,55.0,,,,,4,note_on,,112.0,55.0,112.0,22176,57.75,192
11050,5.0,,,,55.0,,,,,44,note_on,,0.0,55.0,0.0,22220,57.86458333333333,192
11051,5.0,,,,53.0,,,,,4,note_on,,112.0,53.0,112.0,22224,57.875,192
11052,5.0,,,,53.0,,,,,44,note_on,,0.0,53.0,0.0,22268,57.98958333333333,192
11053,5.0,,,,55.0,,,,,4,note_on,,112.0,55.0,112.0,22272,58.0,192
11054,5.0,,,,55.0,,,,,44,note_on,,0.0,55.0,0.0,22316,58.11458333333333,192
11055,5.0,,,,53.0,,,,,4,note_on,,112.0,53.0,112.0,22320,58.125,192
11056,5.0,,,,53.0,,,,,44,note_on,,0.0,53.0,0.0,22364,58.23958333333333,192
11057,5.0,,,,55.0,,,,,4,note_on,,112.0,55.0,112.0,22368,58.25,192
11058,5.0,,,,55.0,,,,,44,note_on,,0.0,55.0,0.0,22412,58.36458333333333,192
11059,5.0,,,,53.0,,,,,4,note_on,,112.0,53.0,112.0,22416,58.375,192
11060,5.0,,,,53.0,,,,,44,note_on,,0.0,53.0,0.0,22460,58.48958333333333,192
11061,5.0,,,,55.0,,,,,4,note_on,,112.0,55.0,112.0,22464,58.5,192
11062,5.0,,,,55.0,,,,,44,note_on,,0.0,55.0,0.0,22508,58.61458333333333,192
11063,5.0,,,,53.0,,,,,4,note_on,,112.0,53.0,112.0,22512,58.625,192
11064,5.0,,,,53.0,,,,,44,note_on,,0.0,53.0,0.0,22556,58.73958333333333,192
11065,5.0,,,,55.0,,,,,4,note_on,,112.0,55.0,112.0,22560,58.75,192
11066,5.0,,,,55.0,,,,,44,note_on,,0.0,55.0,0.0,22604,58.86458333333333,192
11067,5.0,,,,53.0,,,,,4,note_on,,112.0,53.0,112.0,22608,58.875,192
11068,5.0,,,,53.0,,,,,44,note_on,,0.0,53.0,0.0,22652,58.98958333333333,192
11069,5.0,,,,55.0,,,,,52,note_on,,112.0,55.0,112.0,22704,59.125,192
11070,5.0,,,,55.0,,,,,44,note_on,,0.0,55.0,0.0,22748,59.23958333333333,192
11071,5.0,,,,55.0,,,,,4,note_on,,112.0,55.0,112.0,22752,59.25,192
11072,5.0,,,,55.0,,,,,44,note_on,,0.0,55.0,0.0,22796,59.36458333333333,192
11073,5.0,,,,53.0,,,,,4,note_on,,112.0,53.0,112.0,22800,59.375,192
11074,5.0,,,,53.0,,,,,44,note_on,,0.0,53.0,0.0,22844,59.48958333333333,192
11075,5.0,,,,55.0,,,,,4,note_on,,112.0,55.0,112.0,22848,59.5,192
11076,5.0,,,,55.0,,,,,44,note_on,,0.0,55.0,0.0,22892,59.61458333333333,192
11077,5.0,,,,53.0,,,,,4,note_on,,112.0,53.0,112.0,22896,59.625,192
11078,5.0,,,,53.0,,,,,44,note_on,,0.0,53.0,0.0,22940,59.73958333333333,192
11079,5.0,,,,55.0,,,,,4,note_on,,112.0,55.0,112.0,22944,59.75,192
11080,5.0,,,,55.0,,,,,44,note_on,,0.0,55.0,0.0,22988,59.86458333333333,192
11081,5.0,,,,53.0,,,,,4,note_on,,112.0,53.0,112.0,22992,59.875,192
11082,5.0,,,,53.0,,,,,44,note_on,,0.0,53.0,0.0,23036,59.98958333333333,192
11083,5.0,,,,55.0,,,,,4,note_on,,112.0,55.0,112.0,23040,60.0,192
11084,5.0,,,,55.0,,,,,44,note_on,,0.0,55.0,0.0,23084,60.11458333333333,192
11085,5.0,,,,53.0,,,,,4,note_on,,112.0,53.0,112.0,23088,60.125,192
11086,5.0,,,,53.0,,,,,44,note_on,,0.0,53.0,0.0,23132,60.23958333333333,192
11087,5.0,,,,55.0,,,,,4,note_on,,112.0,55.0,112.0,23136,60.25,192
11088,5.0,,,,55.0,,,,,44,note_on,,0.0,55.0,0.0,23180,60.36458333333333,192
11089,5.0,,,,53.0,,,,,4,note_on,,112.0,53.0,112.0,23184,60.375,192
11090,5.0,,,,53.0,,,,,44,note_on,,0.0,53.0,0.0,23228,60.48958333333333,192
11091,5.0,,,,55.0,,,,,4,note_on,,112.0,55.0,112.0,23232,60.5,192
11092,5.0,,,,55.0,,,,,44,note_on,,0.0,55.0,0.0,23276,60.61458333333333,192
11093,5.0,,,,53.0,,,,,4,note_on,,112.0,53.0,112.0,23280,60.625,192
11094,5.0,,,,53.0,,,,,44,note_on,,0.0,53.0,0.0,23324,60.73958333333333,192
11095,5.0,,,,55.0,,,,,4,note_on,,112.0,55.0,112.0,23328,60.75,192
11096,5.0,,,,55.0,,,,,44,note_on,,0.0,55.0,0.0,23372,60.86458333333333,192
11097,5.0,,,,53.0,,,,,4,note_on,,112.0,53.0,112.0,23376,60.875,192
11098,5.0,,,,53.0,,,,,44,note_on,,0.0,53.0,0.0,23420,60.98958333333333,192
11099,5.0,,,,55.0,,,,,52,note_on,,112.0,55.0,112.0,23472,61.125,192
11100,5.0,,,,55.0,,,,,44,note_on,,0.0,55.0,0.0,23516,61.23958333333333,192
11101,5.0,,,,55.0,,,,,4,note_on,,112.0,55.0,112.0,23520,61.25,192
11102,5.0,,,,55.0,,,,,44,note_on,,0.0,55.0,0.0,23564,61.36458333333333,192
11103,5.0,,,,53.0,,,,,4,note_on,,112.0,53.0,112.0,23568,61.375,192
11104,5.0,,,,53.0,,,,,44,note_on,,0.0,53.0,0.0,23612,61.48958333333333,192
11105,5.0,,,,55.0,,,,,4,note_on,,112.0,55.0,112.0,23616,61.5,192
11106,5.0,,,,55.0,,,,,44,note_on,,0.0,55.0,0.0,23660,61.61458333333333,192
11107,5.0,,,,53.0,,,,,4,note_on,,112.0,53.0,112.0,23664,61.625,192
11108,5.0,,,,53.0,,,,,44,note_on,,0.0,53.0,0.0,23708,61.73958333333333,192
11109,5.0,,,,55.0,,,,,4,note_on,,112.0,55.0,112.0,23712,61.75,192
11110,5.0,,,,55.0,,,,,44,note_on,,0.0,55.0,0.0,23756,61.86458333333333,192
11111,5.0,,,,53.0,,,,,4,note_on,,112.0,53.0,112.0,23760,61.875,192
11112,5.0,,,,53.0,,,,,44,note_on,,0.0,53.0,0.0,23804,61.98958333333333,192
11113,5.0,,,,55.0,,,,,4,note_on,,112.0,55.0,112.0,23808,62.0,192
11114,5.0,,,,55.0,,,,,44,note_on,,0.0,55.0,0.0,23852,62.11458333333333,192
11115,5.0,,,,53.0,,,,,4,note_on,,112.0,53.0,112.0,23856,62.125,192
11116,5.0,,,,53.0,,,,,44,note_on,,0.0,53.0,0.0,23900,62.23958333333333,192
11117,5.0,,,,55.0,,,,,4,note_on,,112.0,55.0,112.0,23904,62.25,192
11118,5.0,,,,55.0,,,,,44,note_on,,0.0,55.0,0.0,23948,62.36458333333333,192
11119,5.0,,,,53.0,,,,,4,note_on,,112.0,53.0,112.0,23952,62.375,192
11120,5.0,,,,53.0,,,,,44,note_on,,0.0,53.0,0.0,23996,62.48958333333333,192
11121,5.0,,,,55.0,,,,,4,note_on,,112.0,55.0,112.0,24000,62.5,192
11122,5.0,,,,55.0,,,,,44,note_on,,0.0,55.0,0.0,24044,62.61458333333333,192
11123,5.0,,,,53.0,,,,,4,note_on,,112.0,53.0,112.0,24048,62.625,192
11124,5.0,,,,53.0,,,,,44,note_on,,0.0,53.0,0.0,24092,62.73958333333333,192
11125,5.0,,,,55.0,,,,,4,note_on,,112.0,55.0,112.0,24096,62.75,192
11126,5.0,,,,55.0,,,,,44,note_on,,0.0,55.0,0.0,24140,62.86458333333333,192
11127,5.0,,,,53.0,,,,,4,note_on,,112.0,53.0,112.0,24144,62.875,192
11128,5.0,,,,53.0,,,,,44,note_on,,0.0,53.0,0.0,24188,62.98958333333333,192
11129,5.0,,,,55.0,,,,,52,note_on,,112.0,55.0,112.0,24240,63.125,192
11130,5.0,,,,55.0,,,,,44,note_on,,0.0,55.0,0.0,24284,63.23958333333333,192
11131,5.0,,,,55.0,,,,,4,note_on,,112.0,55.0,112.0,24288,63.25,192
11132,5.0,,,,55.0,,,,,44,note_on,,0.0,55.0,0.0,24332,63.36458333333333,192
11133,5.0,,,,53.0,,,,,4,note_on,,112.0,53.0,112.0,24336,63.375,192
11134,5.0,,,,53.0,,,,,44,note_on,,0.0,53.0,0.0,24380,63.48958333333333,192
11135,5.0,,,,55.0,,,,,4,note_on,,112.0,55.0,112.0,24384,63.5,192
11136,5.0,,,,55.0,,,,,44,note_on,,0.0,55.0,0.0,24428,63.61458333333333,192
11137,5.0,,,,53.0,,,,,4,note_on,,112.0,53.0,112.0,24432,63.625,192
11138,5.0,,,,53.0,,,,,44,note_on,,0.0,53.0,0.0,24476,63.73958333333333,192
11139,5.0,,,,55.0,,,,,4,note_on,,112.0,55.0,112.0,24480,63.75,192
11140,5.0,,,,55.0,,,,,44,note_on,,0.0,55.0,0.0,24524,63.86458333333333,192
11141,5.0,,,,53.0,,,,,4,note_on,,112.0,53.0,112.0,24528,63.875,192
11142,5.0,,,,53.0,,,,,44,note_on,,0.0,53.0,0.0,24572,63.98958333333333,192
11143,5.0,,,,55.0,,,,,4,note_on,,112.0,55.0,112.0,24576,64.0,192
11144,5.0,,,,55.0,,,,,44,note_on,,0.0,55.0,0.0,24620,64.11458333333333,192
11145,5.0,,,,53.0,,,,,4,note_on,,112.0,53.0,112.0,24624,64.125,192
11146,5.0,,,,53.0,,,,,44,note_on,,0.0,53.0,0.0,24668,64.23958333333333,192
11147,5.0,,,,55.0,,,,,4,note_on,,112.0,55.0,112.0,24672,64.25,192
11148,5.0,,,,55.0,,,,,44,note_on,,0.0,55.0,0.0,24716,64.36458333333333,192
11149,5.0,,,,53.0,,,,,4,note_on,,112.0,53.0,112.0,24720,64.375,192
11150,5.0,,,,53.0,,,,,44,note_on,,0.0,53.0,0.0,24764,64.48958333333333,192
11151,5.0,,,,55.0,,,,,4,note_on,,112.0,55.0,112.0,24768,64.5,192
11152,5.0,,,,55.0,,,,,44,note_on,,0.0,55.0,0.0,24812,64.61458333333333,192
11153,5.0,,,,53.0,,,,,4,note_on,,112.0,53.0,112.0,24816,64.625,192
11154,5.0,,,,53.0,,,,,44,note_on,,0.0,53.0,0.0,24860,64.73958333333333,192
11155,5.0,,,,55.0,,,,,4,note_on,,112.0,55.0,112.0,24864,64.75,192
11156,5.0,,,,55.0,,,,,44,note_on,,0.0,55.0,0.0,24908,64.86458333333333,192
11157,5.0,,,,53.0,,,,,4,note_on,,112.0,53.0,112.0,24912,64.875,192
11158,5.0,,,,53.0,,,,,44,note_on,,0.0,53.0,0.0,24956,64.98958333333333,192
11159,5.0,,,,55.0,,,,,52,note_on,,112.0,55.0,112.0,25008,65.125,192
11160,5.0,,,,55.0,,,,,44,note_on,,0.0,55.0,0.0,25052,65.23958333333333,192
11161,5.0,,,,55.0,,,,,4,note_on,,112.0,55.0,112.0,25056,65.25,192
11162,5.0,,,,55.0,,,,,44,note_on,,0.0,55.0,0.0,25100,65.36458333333333,192
11163,5.0,,,,53.0,,,,,4,note_on,,112.0,53.0,112.0,25104,65.375,192
11164,5.0,,,,53.0,,,,,44,note_on,,0.0,53.0,0.0,25148,65.48958333333333,192
11165,5.0,,,,55.0,,,,,4,note_on,,112.0,55.0,112.0,25152,65.5,192
11166,5.0,,,,55.0,,,,,44,note_on,,0.0,55.0,0.0,25196,65.61458333333333,192
11167,5.0,,,,53.0,,,,,4,note_on,,112.0,53.0,112.0,25200,65.625,192
11168,5.0,,,,53.0,,,,,44,note_on,,0.0,53.0,0.0,25244,65.73958333333333,192
11169,5.0,,,,55.0,,,,,4,note_on,,112.0,55.0,112.0,25248,65.75,192
11170,5.0,,,,55.0,,,,,44,note_on,,0.0,55.0,0.0,25292,65.86458333333333,192
11171,5.0,,,,53.0,,,,,4,note_on,,112.0,53.0,112.0,25296,65.875,192
11172,5.0,,,,53.0,,,,,44,note_on,,0.0,53.0,0.0,25340,65.98958333333333,192
11173,5.0,,,,55.0,,,,,3076,note_on,,112.0,55.0,112.0,28416,74.0,192
11174,5.0,,,,55.0,,,,,44,note_on,,0.0,55.0,0.0,28460,74.11458333333333,192
11175,5.0,,,,53.0,,,,,4,note_on,,112.0,53.0,112.0,28464,74.125,192
11176,5.0,,,,53.0,,,,,44,note_on,,0.0,53.0,0.0,28508,74.23958333333333,192
11177,5.0,,,,55.0,,,,,4,note_on,,112.0,55.0,112.0,28512,74.25,192
11178,5.0,,,,55.0,,,,,44,note_on,,0.0,55.0,0.0,28556,74.36458333333333,192
11179,5.0,,,,53.0,,,,,4,note_on,,112.0,53.0,112.0,28560,74.375,192
11180,5.0,,,,53.0,,,,,44,note_on,,0.0,53.0,0.0,28604,74.48958333333333,192
11181,5.0,,,,55.0,,,,,4,note_on,,112.0,55.0,112.0,28608,74.5,192
11182,5.0,,,,55.0,,,,,44,note_on,,0.0,55.0,0.0,28652,74.61458333333333,192
11183,5.0,,,,53.0,,,,,4,note_on,,112.0,53.0,112.0,28656,74.625,192
11184,5.0,,,,53.0,,,,,44,note_on,,0.0,53.0,0.0,28700,74.73958333333333,192
11185,5.0,,,,55.0,,,,,4,note_on,,112.0,55.0,112.0,28704,74.75,192
11186,5.0,,,,55.0,,,,,44,note_on,,0.0,55.0,0.0,28748,74.86458333333333,192
11187,5.0,,,,53.0,,,,,4,note_on,,112.0,53.0,112.0,28752,74.875,192
11188,5.0,,,,53.0,,,,,44,note_on,,0.0,53.0,0.0,28796,74.98958333333333,192
11189,5.0,,,,55.0,,,,,52,note_on,,112.0,55.0,112.0,28848,75.125,192
11190,5.0,,,,55.0,,,,,44,note_on,,0.0,55.0,0.0,28892,75.23958333333333,192
11191,5.0,,,,55.0,,,,,4,note_on,,112.0,55.0,112.0,28896,75.25,192
11192,5.0,,,,55.0,,,,,44,note_on,,0.0,55.0,0.0,28940,75.36458333333333,192
11193,5.0,,,,53.0,,,,,4,note_on,,112.0,53.0,112.0,28944,75.375,192
11194,5.0,,,,53.0,,,,,44,note_on,,0.0,53.0,0.0,28988,75.48958333333333,192
11195,5.0,,,,55.0,,,,,4,note_on,,112.0,55.0,112.0,28992,75.5,192
11196,5.0,,,,55.0,,,,,44,note_on,,0.0,55.0,0.0,29036,75.61458333333333,192
11197,5.0,,,,53.0,,,,,4,note_on,,112.0,53.0,112.0,29040,75.625,192
11198,5.0,,,,53.0,,,,,44,note_on,,0.0,53.0,0.0,29084,75.73958333333333,192
11199,5.0,,,,55.0,,,,,4,note_on,,112.0,55.0,112.0,29088,75.75,192
11200,5.0,,,,55.0,,,,,44,note_on,,0.0,55.0,0.0,29132,75.86458333333333,192
11201,5.0,,,,53.0,,,,,4,note_on,,112.0,53.0,112.0,29136,75.875,192
11202,5.0,,,,53.0,,,,,44,note_on,,0.0,53.0,0.0,29180,75.98958333333333,192
11203,5.0,,,,55.0,,,,,4,note_on,,112.0,55.0,112.0,29184,76.0,192
11204,5.0,,,,55.0,,,,,44,note_on,,0.0,55.0,0.0,29228,76.11458333333333,192
11205,5.0,,,,53.0,,,,,4,note_on,,112.0,53.0,112.0,29232,76.125,192
11206,5.0,,,,53.0,,,,,44,note_on,,0.0,53.0,0.0,29276,76.23958333333333,192
11207,5.0,,,,55.0,,,,,4,note_on,,112.0,55.0,112.0,29280,76.25,192
11208,5.0,,,,55.0,,,,,44,note_on,,0.0,55.0,0.0,29324,76.36458333333333,192
11209,5.0,,,,53.0,,,,,4,note_on,,112.0,53.0,112.0,29328,76.375,192
11210,5.0,,,,53.0,,,,,44,note_on,,0.0,53.0,0.0,29372,76.48958333333333,192
11211,5.0,,,,55.0,,,,,4,note_on,,112.0,55.0,112.0,29376,76.5,192
11212,5.0,,,,55.0,,,,,44,note_on,,0.0,55.0,0.0,29420,76.61458333333333,192
11213,5.0,,,,53.0,,,,,4,note_on,,112.0,53.0,112.0,29424,76.625,192
11214,5.0,,,,53.0,,,,,44,note_on,,0.0,53.0,0.0,29468,76.73958333333333,192
11215,5.0,,,,55.0,,,,,4,note_on,,112.0,55.0,112.0,29472,76.75,192
11216,5.0,,,,55.0,,,,,44,note_on,,0.0,55.0,0.0,29516,76.86458333333333,192
11217,5.0,,,,53.0,,,,,4,note_on,,112.0,53.0,112.0,29520,76.875,192
11218,5.0,,,,53.0,,,,,44,note_on,,0.0,53.0,0.0,29564,76.98958333333333,192
11219,5.0,,,,55.0,,,,,52,note_on,,112.0,55.0,112.0,29616,77.125,192
11220,5.0,,,,55.0,,,,,44,note_on,,0.0,55.0,0.0,29660,77.23958333333333,192
11221,5.0,,,,55.0,,,,,4,note_on,,112.0,55.0,112.0,29664,77.25,192
11222,5.0,,,,55.0,,,,,44,note_on,,0.0,55.0,0.0,29708,77.36458333333333,192
11223,5.0,,,,53.0,,,,,4,note_on,,112.0,53.0,112.0,29712,77.375,192
11224,5.0,,,,53.0,,,,,44,note_on,,0.0,53.0,0.0,29756,77.48958333333333,192
11225,5.0,,,,55.0,,,,,4,note_on,,112.0,55.0,112.0,29760,77.5,192
11226,5.0,,,,55.0,,,,,44,note_on,,0.0,55.0,0.0,29804,77.61458333333333,192
11227,5.0,,,,53.0,,,,,4,note_on,,112.0,53.0,112.0,29808,77.625,192
11228,5.0,,,,53.0,,,,,44,note_on,,0.0,53.0,0.0,29852,77.73958333333333,192
11229,5.0,,,,55.0,,,,,4,note_on,,112.0,55.0,112.0,29856,77.75,192
11230,5.0,,,,55.0,,,,,44,note_on,,0.0,55.0,0.0,29900,77.86458333333333,192
11231,5.0,,,,53.0,,,,,4,note_on,,112.0,53.0,112.0,29904,77.875,192
11232,5.0,,,,53.0,,,,,44,note_on,,0.0,53.0,0.0,29948,77.98958333333333,192
11233,5.0,,,,55.0,,,,,4,note_on,,112.0,55.0,112.0,29952,78.0,192
11234,5.0,,,,55.0,,,,,44,note_on,,0.0,55.0,0.0,29996,78.11458333333333,192
11235,5.0,,,,53.0,,,,,4,note_on,,112.0,53.0,112.0,30000,78.125,192
11236,5.0,,,,53.0,,,,,44,note_on,,0.0,53.0,0.0,30044,78.23958333333333,192
11237,5.0,,,,55.0,,,,,4,note_on,,112.0,55.0,112.0,30048,78.25,192
11238,5.0,,,,55.0,,,,,44,note_on,,0.0,55.0,0.0,30092,78.36458333333333,192
11239,5.0,,,,53.0,,,,,4,note_on,,112.0,53.0,112.0,30096,78.375,192
11240,5.0,,,,53.0,,,,,44,note_on,,0.0,53.0,0.0,30140,78.48958333333333,192
11241,5.0,,,,55.0,,,,,4,note_on,,112.0,55.0,112.0,30144,78.5,192
11242,5.0,,,,55.0,,,,,44,note_on,,0.0,55.0,0.0,30188,78.61458333333333,192
11243,5.0,,,,53.0,,,,,4,note_on,,112.0,53.0,112.0,30192,78.625,192
11244,5.0,,,,53.0,,,,,44,note_on,,0.0,53.0,0.0,30236,78.73958333333333,192
11245,5.0,,,,55.0,,,,,4,note_on,,112.0,55.0,112.0,30240,78.75,192
11246,5.0,,,,55.0,,,,,44,note_on,,0.0,55.0,0.0,30284,78.86458333333333,192
11247,5.0,,,,53.0,,,,,4,note_on,,112.0,53.0,112.0,30288,78.875,192
11248,5.0,,,,53.0,,,,,44,note_on,,0.0,53.0,0.0,30332,78.98958333333333,192
11249,5.0,,,,55.0,,,,,52,note_on,,112.0,55.0,112.0,30384,79.125,192
11250,5.0,,,,55.0,,,,,44,note_on,,0.0,55.0,0.0,30428,79.23958333333333,192
11251,5.0,,,,55.0,,,,,4,note_on,,112.0,55.0,112.0,30432,79.25,192
11252,5.0,,,,55.0,,,,,44,note_on,,0.0,55.0,0.0,30476,79.36458333333333,192
11253,5.0,,,,53.0,,,,,4,note_on,,112.0,53.0,112.0,30480,79.375,192
11254,5.0,,,,53.0,,,,,44,note_on,,0.0,53.0,0.0,30524,79.48958333333333,192
11255,5.0,,,,55.0,,,,,4,note_on,,112.0,55.0,112.0,30528,79.5,192
11256,5.0,,,,55.0,,,,,44,note_on,,0.0,55.0,0.0,30572,79.61458333333333,192
11257,5.0,,,,53.0,,,,,4,note_on,,112.0,53.0,112.0,30576,79.625,192
11258,5.0,,,,53.0,,,,,44,note_on,,0.0,53.0,0.0,30620,79.73958333333333,192
11259,5.0,,,,55.0,,,,,4,note_on,,112.0,55.0,112.0,30624,79.75,192
11260,5.0,,,,55.0,,,,,44,note_on,,0.0,55.0,0.0,30668,79.86458333333333,192
11261,5.0,,,,53.0,,,,,4,note_on,,112.0,53.0,112.0,30672,79.875,192
11262,5.0,,,,53.0,,,,,44,note_on,,0.0,53.0,0.0,30716,79.98958333333333,192
11263,5.0,,,,55.0,,,,,4,note_on,,112.0,55.0,112.0,30720,80.0,192
11264,5.0,,,,55.0,,,,,44,note_on,,0.0,55.0,0.0,30764,80.11458333333333,192
11265,5.0,,,,53.0,,,,,4,note_on,,112.0,53.0,112.0,30768,80.125,192
11266,5.0,,,,53.0,,,,,44,note_on,,0.0,53.0,0.0,30812,80.23958333333333,192
11267,5.0,,,,55.0,,,,,4,note_on,,112.0,55.0,112.0,30816,80.25,192
11268,5.0,,,,55.0,,,,,44,note_on,,0.0,55.0,0.0,30860,80.36458333333333,192
11269,5.0,,,,53.0,,,,,4,note_on,,112.0,53.0,112.0,30864,80.375,192
11270,5.0,,,,53.0,,,,,44,note_on,,0.0,53.0,0.0,30908,80.48958333333333,192
11271,5.0,,,,55.0,,,,,4,note_on,,112.0,55.0,112.0,30912,80.5,192
11272,5.0,,,,55.0,,,,,44,note_on,,0.0,55.0,0.0,30956,80.61458333333333,192
11273,5.0,,,,53.0,,,,,4,note_on,,112.0,53.0,112.0,30960,80.625,192
11274,5.0,,,,53.0,,,,,44,note_on,,0.0,53.0,0.0,31004,80.73958333333333,192
11275,5.0,,,,55.0,,,,,4,note_on,,112.0,55.0,112.0,31008,80.75,192
11276,5.0,,,,55.0,,,,,44,note_on,,0.0,55.0,0.0,31052,80.86458333333333,192
11277,5.0,,,,53.0,,,,,4,note_on,,112.0,53.0,112.0,31056,80.875,192
11278,5.0,,,,53.0,,,,,44,note_on,,0.0,53.0,0.0,31100,80.98958333333333,192
11279,5.0,,,,55.0,,,,,52,note_on,,112.0,55.0,112.0,31152,81.125,192
11280,5.0,,,,55.0,,,,,44,note_on,,0.0,55.0,0.0,31196,81.23958333333333,192
11281,5.0,,,,55.0,,,,,4,note_on,,112.0,55.0,112.0,31200,81.25,192
11282,5.0,,,,55.0,,,,,44,note_on,,0.0,55.0,0.0,31244,81.36458333333333,192
11283,5.0,,,,53.0,,,,,4,note_on,,112.0,53.0,112.0,31248,81.375,192
11284,5.0,,,,53.0,,,,,44,note_on,,0.0,53.0,0.0,31292,81.48958333333333,192
11285,5.0,,,,55.0,,,,,4,note_on,,112.0,55.0,112.0,31296,81.5,192
11286,5.0,,,,55.0,,,,,44,note_on,,0.0,55.0,0.0,31340,81.61458333333333,192
11287,5.0,,,,53.0,,,,,4,note_on,,112.0,53.0,112.0,31344,81.625,192
11288,5.0,,,,53.0,,,,,44,note_on,,0.0,53.0,0.0,31388,81.73958333333333,192
11289,5.0,,,,55.0,,,,,4,note_on,,112.0,55.0,112.0,31392,81.75,192
11290,5.0,,,,55.0,,,,,44,note_on,,0.0,55.0,0.0,31436,81.86458333333333,192
11291,5.0,,,,53.0,,,,,4,note_on,,112.0,53.0,112.0,31440,81.875,192
11292,5.0,,,,53.0,,,,,44,note_on,,0.0,53.0,0.0,31484,81.98958333333333,192
11293,5.0,,,,55.0,,,,,4,note_on,,112.0,55.0,112.0,31488,82.0,192
11294,5.0,,,,55.0,,,,,44,note_on,,0.0,55.0,0.0,31532,82.11458333333333,192
11295,5.0,,,,53.0,,,,,4,note_on,,112.0,53.0,112.0,31536,82.125,192
11296,5.0,,,,53.0,,,,,44,note_on,,0.0,53.0,0.0,31580,82.23958333333333,192
11297,5.0,,,,55.0,,,,,4,note_on,,112.0,55.0,112.0,31584,82.25,192
11298,5.0,,,,55.0,,,,,44,note_on,,0.0,55.0,0.0,31628,82.36458333333333,192
11299,5.0,,,,53.0,,,,,4,note_on,,112.0,53.0,112.0,31632,82.375,192
11300,5.0,,,,53.0,,,,,44,note_on,,0.0,53.0,0.0,31676,82.48958333333333,192
11301,5.0,,,,55.0,,,,,4,note_on,,112.0,55.0,112.0,31680,82.5,192
11302,5.0,,,,55.0,,,,,44,note_on,,0.0,55.0,0.0,31724,82.61458333333333,192
11303,5.0,,,,53.0,,,,,4,note_on,,112.0,53.0,112.0,31728,82.625,192
11304,5.0,,,,53.0,,,,,44,note_on,,0.0,53.0,0.0,31772,82.73958333333333,192
11305,5.0,,,,55.0,,,,,4,note_on,,112.0,55.0,112.0,31776,82.75,192
11306,5.0,,,,55.0,,,,,44,note_on,,0.0,55.0,0.0,31820,82.86458333333333,192
11307,5.0,,,,53.0,,,,,4,note_on,,112.0,53.0,112.0,31824,82.875,192
11308,5.0,,,,53.0,,,,,44,note_on,,0.0,53.0,0.0,31868,82.98958333333333,192
11309,5.0,,,,55.0,,,,,52,note_on,,112.0,55.0,112.0,31920,83.125,192
11310,5.0,,,,55.0,,,,,44,note_on,,0.0,55.0,0.0,31964,83.23958333333333,192
11311,5.0,,,,55.0,,,,,4,note_on,,112.0,55.0,112.0,31968,83.25,192
11312,5.0,,,,55.0,,,,,44,note_on,,0.0,55.0,0.0,32012,83.36458333333333,192
11313,5.0,,,,53.0,,,,,4,note_on,,112.0,53.0,112.0,32016,83.375,192
11314,5.0,,,,53.0,,,,,44,note_on,,0.0,53.0,0.0,32060,83.48958333333333,192
11315,5.0,,,,55.0,,,,,4,note_on,,112.0,55.0,112.0,32064,83.5,192
11316,5.0,,,,55.0,,,,,44,note_on,,0.0,55.0,0.0,32108,83.61458333333333,192
11317,5.0,,,,53.0,,,,,4,note_on,,112.0,53.0,112.0,32112,83.625,192
11318,5.0,,,,53.0,,,,,44,note_on,,0.0,53.0,0.0,32156,83.73958333333333,192
11319,5.0,,,,55.0,,,,,4,note_on,,112.0,55.0,112.0,32160,83.75,192
11320,5.0,,,,55.0,,,,,44,note_on,,0.0,55.0,0.0,32204,83.86458333333333,192
11321,5.0,,,,53.0,,,,,4,note_on,,112.0,53.0,112.0,32208,83.875,192
11322,5.0,,,,53.0,,,,,44,note_on,,0.0,53.0,0.0,32252,83.98958333333333,192
11323,5.0,,,,55.0,,,,,4,note_on,,112.0,55.0,112.0,32256,84.0,192
11324,5.0,,,,55.0,,,,,44,note_on,,0.0,55.0,0.0,32300,84.11458333333333,192
11325,5.0,,,,53.0,,,,,4,note_on,,112.0,53.0,112.0,32304,84.125,192
11326,5.0,,,,53.0,,,,,44,note_on,,0.0,53.0,0.0,32348,84.23958333333333,192
11327,5.0,,,,55.0,,,,,4,note_on,,112.0,55.0,112.0,32352,84.25,192
11328,5.0,,,,55.0,,,,,44,note_on,,0.0,55.0,0.0,32396,84.36458333333333,192
11329,5.0,,,,53.0,,,,,4,note_on,,112.0,53.0,112.0,32400,84.375,192
11330,5.0,,,,53.0,,,,,44,note_on,,0.0,53.0,0.0,32444,84.48958333333333,192
11331,5.0,,,,55.0,,,,,4,note_on,,112.0,55.0,112.0,32448,84.5,192
11332,5.0,,,,55.0,,,,,44,note_on,,0.0,55.0,0.0,32492,84.61458333333333,192
11333,5.0,,,,53.0,,,,,4,note_on,,112.0,53.0,112.0,32496,84.625,192
11334,5.0,,,,53.0,,,,,44,note_on,,0.0,53.0,0.0,32540,84.73958333333333,192
11335,5.0,,,,55.0,,,,,4,note_on,,112.0,55.0,112.0,32544,84.75,192
11336,5.0,,,,55.0,,,,,44,note_on,,0.0,55.0,0.0,32588,84.86458333333333,192
11337,5.0,,,,53.0,,,,,4,note_on,,112.0,53.0,112.0,32592,84.875,192
11338,5.0,,,,53.0,,,,,44,note_on,,0.0,53.0,0.0,32636,84.98958333333333,192
11339,5.0,,,,55.0,,,,,52,note_on,,112.0,55.0,112.0,32688,85.125,192
11340,5.0,,,,55.0,,,,,44,note_on,,0.0,55.0,0.0,32732,85.23958333333333,192
11341,5.0,,,,55.0,,,,,4,note_on,,112.0,55.0,112.0,32736,85.25,192
11342,5.0,,,,55.0,,,,,44,note_on,,0.0,55.0,0.0,32780,85.36458333333333,192
11343,5.0,,,,53.0,,,,,4,note_on,,112.0,53.0,112.0,32784,85.375,192
11344,5.0,,,,53.0,,,,,44,note_on,,0.0,53.0,0.0,32828,85.48958333333333,192
11345,5.0,,,,55.0,,,,,4,note_on,,112.0,55.0,112.0,32832,85.5,192
11346,5.0,,,,55.0,,,,,44,note_on,,0.0,55.0,0.0,32876,85.61458333333333,192
11347,5.0,,,,53.0,,,,,4,note_on,,112.0,53.0,112.0,32880,85.625,192
11348,5.0,,,,53.0,,,,,44,note_on,,0.0,53.0,0.0,32924,85.73958333333333,192
11349,5.0,,,,55.0,,,,,4,note_on,,112.0,55.0,112.0,32928,85.75,192
11350,5.0,,,,55.0,,,,,44,note_on,,0.0,55.0,0.0,32972,85.86458333333333,192
11351,5.0,,,,53.0,,,,,4,note_on,,112.0,53.0,112.0,32976,85.875,192
11352,5.0,,,,53.0,,,,,44,note_on,,0.0,53.0,0.0,33020,85.98958333333333,192
11353,5.0,,,,55.0,,,,,4,note_on,,112.0,55.0,112.0,33024,86.0,192
11354,5.0,,,,55.0,,,,,44,note_on,,0.0,55.0,0.0,33068,86.11458333333333,192
11355,5.0,,,,53.0,,,,,4,note_on,,112.0,53.0,112.0,33072,86.125,192
11356,5.0,,,,53.0,,,,,44,note_on,,0.0,53.0,0.0,33116,86.23958333333333,192
11357,5.0,,,,55.0,,,,,4,note_on,,112.0,55.0,112.0,33120,86.25,192
11358,5.0,,,,55.0,,,,,44,note_on,,0.0,55.0,0.0,33164,86.36458333333333,192
11359,5.0,,,,53.0,,,,,4,note_on,,112.0,53.0,112.0,33168,86.375,192
11360,5.0,,,,53.0,,,,,44,note_on,,0.0,53.0,0.0,33212,86.48958333333333,192
11361,5.0,,,,55.0,,,,,4,note_on,,112.0,55.0,112.0,33216,86.5,192
11362,5.0,,,,55.0,,,,,44,note_on,,0.0,55.0,0.0,33260,86.61458333333333,192
11363,5.0,,,,53.0,,,,,4,note_on,,112.0,53.0,112.0,33264,86.625,192
11364,5.0,,,,53.0,,,,,44,note_on,,0.0,53.0,0.0,33308,86.73958333333333,192
11365,5.0,,,,55.0,,,,,4,note_on,,112.0,55.0,112.0,33312,86.75,192
11366,5.0,,,,55.0,,,,,44,note_on,,0.0,55.0,0.0,33356,86.86458333333333,192
11367,5.0,,,,53.0,,,,,4,note_on,,112.0,53.0,112.0,33360,86.875,192
11368,5.0,,,,53.0,,,,,44,note_on,,0.0,53.0,0.0,33404,86.98958333333333,192
11369,5.0,,,,55.0,,,,,52,note_on,,112.0,55.0,112.0,33456,87.125,192
11370,5.0,,,,55.0,,,,,44,note_on,,0.0,55.0,0.0,33500,87.23958333333333,192
11371,5.0,,,,55.0,,,,,4,note_on,,112.0,55.0,112.0,33504,87.25,192
11372,5.0,,,,55.0,,,,,44,note_on,,0.0,55.0,0.0,33548,87.36458333333333,192
11373,5.0,,,,53.0,,,,,4,note_on,,112.0,53.0,112.0,33552,87.375,192
11374,5.0,,,,53.0,,,,,44,note_on,,0.0,53.0,0.0,33596,87.48958333333333,192
11375,5.0,,,,55.0,,,,,4,note_on,,112.0,55.0,112.0,33600,87.5,192
11376,5.0,,,,55.0,,,,,44,note_on,,0.0,55.0,0.0,33644,87.61458333333333,192
11377,5.0,,,,53.0,,,,,4,note_on,,112.0,53.0,112.0,33648,87.625,192
11378,5.0,,,,53.0,,,,,44,note_on,,0.0,53.0,0.0,33692,87.73958333333333,192
11379,5.0,,,,55.0,,,,,4,note_on,,112.0,55.0,112.0,33696,87.75,192
11380,5.0,,,,55.0,,,,,44,note_on,,0.0,55.0,0.0,33740,87.86458333333333,192
11381,5.0,,,,53.0,,,,,4,note_on,,112.0,53.0,112.0,33744,87.875,192
11382,5.0,,,,53.0,,,,,44,note_on,,0.0,53.0,0.0,33788,87.98958333333333,192
11383,5.0,,,,55.0,,,,,4,note_on,,112.0,55.0,112.0,33792,88.0,192
11384,5.0,,,,55.0,,,,,44,note_on,,0.0,55.0,0.0,33836,88.11458333333333,192
11385,5.0,,,,53.0,,,,,4,note_on,,112.0,53.0,112.0,33840,88.125,192
11386,5.0,,,,53.0,,,,,44,note_on,,0.0,53.0,0.0,33884,88.23958333333333,192
11387,5.0,,,,55.0,,,,,4,note_on,,112.0,55.0,112.0,33888,88.25,192
11388,5.0,,,,55.0,,,,,44,note_on,,0.0,55.0,0.0,33932,88.36458333333333,192
11389,5.0,,,,53.0,,,,,4,note_on,,112.0,53.0,112.0,33936,88.375,192
11390,5.0,,,,53.0,,,,,44,note_on,,0.0,53.0,0.0,33980,88.48958333333333,192
11391,5.0,,,,55.0,,,,,4,note_on,,112.0,55.0,112.0,33984,88.5,192
11392,5.0,,,,55.0,,,,,44,note_on,,0.0,55.0,0.0,34028,88.61458333333333,192
11393,5.0,,,,53.0,,,,,4,note_on,,112.0,53.0,112.0,34032,88.625,192
11394,5.0,,,,53.0,,,,,44,note_on,,0.0,53.0,0.0,34076,88.73958333333333,192
11395,5.0,,,,55.0,,,,,4,note_on,,112.0,55.0,112.0,34080,88.75,192
11396,5.0,,,,55.0,,,,,44,note_on,,0.0,55.0,0.0,34124,88.86458333333333,192
11397,5.0,,,,53.0,,,,,4,note_on,,112.0,53.0,112.0,34128,88.875,192
11398,5.0,,,,53.0,,,,,44,note_on,,0.0,53.0,0.0,34172,88.98958333333333,192
11399,5.0,,,,55.0,,,,,52,note_on,,112.0,55.0,112.0,34224,89.125,192
11400,5.0,,,,55.0,,,,,44,note_on,,0.0,55.0,0.0,34268,89.23958333333333,192
11401,5.0,,,,55.0,,,,,4,note_on,,112.0,55.0,112.0,34272,89.25,192
11402,5.0,,,,55.0,,,,,44,note_on,,0.0,55.0,0.0,34316,89.36458333333333,192
11403,5.0,,,,53.0,,,,,4,note_on,,112.0,53.0,112.0,34320,89.375,192
11404,5.0,,,,53.0,,,,,44,note_on,,0.0,53.0,0.0,34364,89.48958333333333,192
11405,5.0,,,,55.0,,,,,4,note_on,,112.0,55.0,112.0,34368,89.5,192
11406,5.0,,,,55.0,,,,,44,note_on,,0.0,55.0,0.0,34412,89.61458333333333,192
11407,5.0,,,,53.0,,,,,4,note_on,,112.0,53.0,112.0,34416,89.625,192
11408,5.0,,,,53.0,,,,,44,note_on,,0.0,53.0,0.0,34460,89.73958333333333,192
11409,5.0,,,,55.0,,,,,4,note_on,,112.0,55.0,112.0,34464,89.75,192
11410,5.0,,,,55.0,,,,,44,note_on,,0.0,55.0,0.0,34508,89.86458333333333,192
11411,5.0,,,,53.0,,,,,4,note_on,,112.0,53.0,112.0,34512,89.875,192
11412,5.0,,,,53.0,,,,,44,note_on,,0.0,53.0,0.0,34556,89.98958333333333,192
11413,5.0,,,,55.0,,,,,4,note_on,,112.0,55.0,112.0,34560,90.0,192
11414,5.0,,,,55.0,,,,,44,note_on,,0.0,55.0,0.0,34604,90.11458333333333,192
11415,5.0,,,,53.0,,,,,4,note_on,,112.0,53.0,112.0,34608,90.125,192
11416,5.0,,,,53.0,,,,,44,note_on,,0.0,53.0,0.0,34652,90.23958333333333,192
11417,5.0,,,,55.0,,,,,4,note_on,,112.0,55.0,112.0,34656,90.25,192
11418,5.0,,,,55.0,,,,,44,note_on,,0.0,55.0,0.0,34700,90.36458333333333,192
11419,5.0,,,,53.0,,,,,4,note_on,,112.0,53.0,112.0,34704,90.375,192
11420,5.0,,,,53.0,,,,,44,note_on,,0.0,53.0,0.0,34748,90.48958333333333,192
11421,5.0,,,,55.0,,,,,4,note_on,,112.0,55.0,112.0,34752,90.5,192
11422,5.0,,,,55.0,,,,,44,note_on,,0.0,55.0,0.0,34796,90.61458333333333,192
11423,5.0,,,,53.0,,,,,4,note_on,,112.0,53.0,112.0,34800,90.625,192
11424,5.0,,,,53.0,,,,,44,note_on,,0.0,53.0,0.0,34844,90.73958333333333,192
11425,5.0,,,,55.0,,,,,4,note_on,,112.0,55.0,112.0,34848,90.75,192
11426,5.0,,,,55.0,,,,,44,note_on,,0.0,55.0,0.0,34892,90.86458333333333,192
11427,5.0,,,,53.0,,,,,4,note_on,,112.0,53.0,112.0,34896,90.875,192
11428,5.0,,,,53.0,,,,,44,note_on,,0.0,53.0,0.0,34940,90.98958333333333,192
11429,5.0,,,,55.0,,,,,52,note_on,,112.0,55.0,112.0,34992,91.125,192
11430,5.0,,,,55.0,,,,,44,note_on,,0.0,55.0,0.0,35036,91.23958333333333,192
11431,5.0,,,,55.0,,,,,4,note_on,,112.0,55.0,112.0,35040,91.25,192
11432,5.0,,,,55.0,,,,,44,note_on,,0.0,55.0,0.0,35084,91.36458333333333,192
11433,5.0,,,,53.0,,,,,4,note_on,,112.0,53.0,112.0,35088,91.375,192
11434,5.0,,,,53.0,,,,,44,note_on,,0.0,53.0,0.0,35132,91.48958333333333,192
11435,5.0,,,,55.0,,,,,4,note_on,,112.0,55.0,112.0,35136,91.5,192
11436,5.0,,,,55.0,,,,,44,note_on,,0.0,55.0,0.0,35180,91.61458333333333,192
11437,5.0,,,,53.0,,,,,4,note_on,,112.0,53.0,112.0,35184,91.625,192
11438,5.0,,,,53.0,,,,,44,note_on,,0.0,53.0,0.0,35228,91.73958333333333,192
11439,5.0,,,,55.0,,,,,4,note_on,,112.0,55.0,112.0,35232,91.75,192
11440,5.0,,,,55.0,,,,,44,note_on,,0.0,55.0,0.0,35276,91.86458333333333,192
11441,5.0,,,,53.0,,,,,4,note_on,,112.0,53.0,112.0,35280,91.875,192
11442,5.0,,,,53.0,,,,,44,note_on,,0.0,53.0,0.0,35324,91.98958333333333,192
11443,5.0,,,,55.0,,,,,4,note_on,,112.0,55.0,112.0,35328,92.0,192
11444,5.0,,,,55.0,,,,,44,note_on,,0.0,55.0,0.0,35372,92.11458333333333,192
11445,5.0,,,,53.0,,,,,4,note_on,,112.0,53.0,112.0,35376,92.125,192
11446,5.0,,,,53.0,,,,,44,note_on,,0.0,53.0,0.0,35420,92.23958333333333,192
11447,5.0,,,,55.0,,,,,4,note_on,,112.0,55.0,112.0,35424,92.25,192
11448,5.0,,,,55.0,,,,,44,note_on,,0.0,55.0,0.0,35468,92.36458333333333,192
11449,5.0,,,,53.0,,,,,4,note_on,,112.0,53.0,112.0,35472,92.375,192
11450,5.0,,,,53.0,,,,,44,note_on,,0.0,53.0,0.0,35516,92.48958333333333,192
11451,5.0,,,,55.0,,,,,4,note_on,,112.0,55.0,112.0,35520,92.5,192
11452,5.0,,,,55.0,,,,,44,note_on,,0.0,55.0,0.0,35564,92.61458333333333,192
11453,5.0,,,,53.0,,,,,4,note_on,,112.0,53.0,112.0,35568,92.625,192
11454,5.0,,,,53.0,,,,,44,note_on,,0.0,53.0,0.0,35612,92.73958333333333,192
11455,5.0,,,,55.0,,,,,4,note_on,,112.0,55.0,112.0,35616,92.75,192
11456,5.0,,,,55.0,,,,,44,note_on,,0.0,55.0,0.0,35660,92.86458333333333,192
11457,5.0,,,,53.0,,,,,4,note_on,,112.0,53.0,112.0,35664,92.875,192
11458,5.0,,,,53.0,,,,,44,note_on,,0.0,53.0,0.0,35708,92.98958333333333,192
11459,5.0,,,,55.0,,,,,52,note_on,,112.0,55.0,112.0,35760,93.125,192
11460,5.0,,,,55.0,,,,,44,note_on,,0.0,55.0,0.0,35804,93.23958333333333,192
11461,5.0,,,,55.0,,,,,4,note_on,,112.0,55.0,112.0,35808,93.25,192
11462,5.0,,,,55.0,,,,,44,note_on,,0.0,55.0,0.0,35852,93.36458333333333,192
11463,5.0,,,,53.0,,,,,4,note_on,,112.0,53.0,112.0,35856,93.375,192
11464,5.0,,,,53.0,,,,,44,note_on,,0.0,53.0,0.0,35900,93.48958333333333,192
11465,5.0,,,,55.0,,,,,4,note_on,,112.0,55.0,112.0,35904,93.5,192
11466,5.0,,,,55.0,,,,,44,note_on,,0.0,55.0,0.0,35948,93.61458333333333,192
11467,5.0,,,,53.0,,,,,4,note_on,,112.0,53.0,112.0,35952,93.625,192
11468,5.0,,,,53.0,,,,,44,note_on,,0.0,53.0,0.0,35996,93.73958333333333,192
11469,5.0,,,,55.0,,,,,4,note_on,,112.0,55.0,112.0,36000,93.75,192
11470,5.0,,,,55.0,,,,,44,note_on,,0.0,55.0,0.0,36044,93.86458333333333,192
11471,5.0,,,,53.0,,,,,4,note_on,,112.0,53.0,112.0,36048,93.875,192
11472,5.0,,,,53.0,,,,,44,note_on,,0.0,53.0,0.0,36092,93.98958333333333,192
11473,5.0,,,,55.0,,,,,4,note_on,,112.0,55.0,112.0,36096,94.0,192
11474,5.0,,,,55.0,,,,,44,note_on,,0.0,55.0,0.0,36140,94.11458333333333,192
11475,5.0,,,,53.0,,,,,4,note_on,,112.0,53.0,112.0,36144,94.125,192
11476,5.0,,,,53.0,,,,,44,note_on,,0.0,53.0,0.0,36188,94.23958333333333,192
11477,5.0,,,,55.0,,,,,4,note_on,,112.0,55.0,112.0,36192,94.25,192
11478,5.0,,,,55.0,,,,,44,note_on,,0.0,55.0,0.0,36236,94.36458333333333,192
11479,5.0,,,,53.0,,,,,4,note_on,,112.0,53.0,112.0,36240,94.375,192
11480,5.0,,,,53.0,,,,,44,note_on,,0.0,53.0,0.0,36284,94.48958333333333,192
11481,5.0,,,,55.0,,,,,4,note_on,,112.0,55.0,112.0,36288,94.5,192
11482,5.0,,,,55.0,,,,,44,note_on,,0.0,55.0,0.0,36332,94.61458333333333,192
11483,5.0,,,,53.0,,,,,4,note_on,,112.0,53.0,112.0,36336,94.625,192
11484,5.0,,,,53.0,,,,,44,note_on,,0.0,53.0,0.0,36380,94.73958333333333,192
11485,5.0,,,,55.0,,,,,4,note_on,,112.0,55.0,112.0,36384,94.75,192
11486,5.0,,,,55.0,,,,,44,note_on,,0.0,55.0,0.0,36428,94.86458333333333,192
11487,5.0,,,,53.0,,,,,4,note_on,,112.0,53.0,112.0,36432,94.875,192
11488,5.0,,,,53.0,,,,,44,note_on,,0.0,53.0,0.0,36476,94.98958333333333,192
11489,5.0,,,,55.0,,,,,52,note_on,,112.0,55.0,112.0,36528,95.125,192
11490,5.0,,,,55.0,,,,,44,note_on,,0.0,55.0,0.0,36572,95.23958333333333,192
11491,5.0,,,,55.0,,,,,4,note_on,,112.0,55.0,112.0,36576,95.25,192
11492,5.0,,,,55.0,,,,,44,note_on,,0.0,55.0,0.0,36620,95.36458333333333,192
11493,5.0,,,,53.0,,,,,4,note_on,,112.0,53.0,112.0,36624,95.375,192
11494,5.0,,,,53.0,,,,,44,note_on,,0.0,53.0,0.0,36668,95.48958333333333,192
11495,5.0,,,,55.0,,,,,4,note_on,,112.0,55.0,112.0,36672,95.5,192
11496,5.0,,,,55.0,,,,,44,note_on,,0.0,55.0,0.0,36716,95.61458333333333,192
11497,5.0,,,,53.0,,,,,4,note_on,,112.0,53.0,112.0,36720,95.625,192
11498,5.0,,,,53.0,,,,,44,note_on,,0.0,53.0,0.0,36764,95.73958333333333,192
11499,5.0,,,,55.0,,,,,4,note_on,,112.0,55.0,112.0,36768,95.75,192
11500,5.0,,,,55.0,,,,,44,note_on,,0.0,55.0,0.0,36812,95.86458333333333,192
11501,5.0,,,,53.0,,,,,4,note_on,,112.0,53.0,112.0,36816,95.875,192
11502,5.0,,,,53.0,,,,,44,note_on,,0.0,53.0,0.0,36860,95.98958333333333,192
11503,5.0,,,,55.0,,,,,772,note_on,,112.0,55.0,112.0,37632,98.0,192
11504,5.0,,,,55.0,,,,,44,note_on,,0.0,55.0,0.0,37676,98.11458333333333,192
11505,5.0,,,,53.0,,,,,4,note_on,,112.0,53.0,112.0,37680,98.125,192
11506,5.0,,,,53.0,,,,,44,note_on,,0.0,53.0,0.0,37724,98.23958333333333,192
11507,5.0,,,,55.0,,,,,4,note_on,,112.0,55.0,112.0,37728,98.25,192
11508,5.0,,,,55.0,,,,,44,note_on,,0.0,55.0,0.0,37772,98.36458333333333,192
11509,5.0,,,,53.0,,,,,4,note_on,,112.0,53.0,112.0,37776,98.375,192
11510,5.0,,,,53.0,,,,,44,note_on,,0.0,53.0,0.0,37820,98.48958333333333,192
11511,5.0,,,,55.0,,,,,4,note_on,,112.0,55.0,112.0,37824,98.5,192
11512,5.0,,,,55.0,,,,,44,note_on,,0.0,55.0,0.0,37868,98.61458333333333,192
11513,5.0,,,,53.0,,,,,4,note_on,,112.0,53.0,112.0,37872,98.625,192
11514,5.0,,,,53.0,,,,,44,note_on,,0.0,53.0,0.0,37916,98.73958333333333,192
11515,5.0,,,,55.0,,,,,4,note_on,,112.0,55.0,112.0,37920,98.75,192
11516,5.0,,,,55.0,,,,,44,note_on,,0.0,55.0,0.0,37964,98.86458333333333,192
11517,5.0,,,,53.0,,,,,4,note_on,,112.0,53.0,112.0,37968,98.875,192
11518,5.0,,,,53.0,,,,,44,note_on,,0.0,53.0,0.0,38012,98.98958333333333,192
11519,5.0,,,,55.0,,,,,52,note_on,,112.0,55.0,112.0,38064,99.125,192
11520,5.0,,,,55.0,,,,,44,note_on,,0.0,55.0,0.0,38108,99.23958333333333,192
11521,5.0,,,,55.0,,,,,4,note_on,,112.0,55.0,112.0,38112,99.25,192
11522,5.0,,,,55.0,,,,,44,note_on,,0.0,55.0,0.0,38156,99.36458333333333,192
11523,5.0,,,,53.0,,,,,4,note_on,,112.0,53.0,112.0,38160,99.375,192
11524,5.0,,,,53.0,,,,,44,note_on,,0.0,53.0,0.0,38204,99.48958333333333,192
11525,5.0,,,,55.0,,,,,4,note_on,,112.0,55.0,112.0,38208,99.5,192
11526,5.0,,,,55.0,,,,,44,note_on,,0.0,55.0,0.0,38252,99.61458333333333,192
11527,5.0,,,,53.0,,,,,4,note_on,,112.0,53.0,112.0,38256,99.625,192
11528,5.0,,,,53.0,,,,,44,note_on,,0.0,53.0,0.0,38300,99.73958333333333,192
11529,5.0,,,,55.0,,,,,4,note_on,,112.0,55.0,112.0,38304,99.75,192
11530,5.0,,,,55.0,,,,,44,note_on,,0.0,55.0,0.0,38348,99.86458333333333,192
11531,5.0,,,,53.0,,,,,4,note_on,,112.0,53.0,112.0,38352,99.875,192
11532,5.0,,,,53.0,,,,,44,note_on,,0.0,53.0,0.0,38396,99.98958333333333,192
11533,5.0,,,,55.0,,,,,4,note_on,,112.0,55.0,112.0,38400,100.0,192
11534,5.0,,,,55.0,,,,,44,note_on,,0.0,55.0,0.0,38444,100.11458333333333,192
11535,5.0,,,,53.0,,,,,4,note_on,,112.0,53.0,112.0,38448,100.125,192
11536,5.0,,,,53.0,,,,,44,note_on,,0.0,53.0,0.0,38492,100.23958333333333,192
11537,5.0,,,,55.0,,,,,4,note_on,,112.0,55.0,112.0,38496,100.25,192
11538,5.0,,,,55.0,,,,,44,note_on,,0.0,55.0,0.0,38540,100.36458333333333,192
11539,5.0,,,,53.0,,,,,4,note_on,,112.0,53.0,112.0,38544,100.375,192
11540,5.0,,,,53.0,,,,,44,note_on,,0.0,53.0,0.0,38588,100.48958333333333,192
11541,5.0,,,,55.0,,,,,4,note_on,,112.0,55.0,112.0,38592,100.5,192
11542,5.0,,,,55.0,,,,,44,note_on,,0.0,55.0,0.0,38636,100.61458333333333,192
11543,5.0,,,,53.0,,,,,4,note_on,,112.0,53.0,112.0,38640,100.625,192
11544,5.0,,,,53.0,,,,,44,note_on,,0.0,53.0,0.0,38684,100.73958333333333,192
11545,5.0,,,,55.0,,,,,4,note_on,,112.0,55.0,112.0,38688,100.75,192
11546,5.0,,,,55.0,,,,,44,note_on,,0.0,55.0,0.0,38732,100.86458333333333,192
11547,5.0,,,,53.0,,,,,4,note_on,,112.0,53.0,112.0,38736,100.875,192
11548,5.0,,,,53.0,,,,,44,note_on,,0.0,53.0,0.0,38780,100.98958333333333,192
11549,5.0,,,,55.0,,,,,52,note_on,,112.0,55.0,112.0,38832,101.125,192
11550,5.0,,,,55.0,,,,,44,note_on,,0.0,55.0,0.0,38876,101.23958333333333,192
11551,5.0,,,,55.0,,,,,4,note_on,,112.0,55.0,112.0,38880,101.25,192
11552,5.0,,,,55.0,,,,,44,note_on,,0.0,55.0,0.0,38924,101.36458333333333,192
11553,5.0,,,,53.0,,,,,4,note_on,,112.0,53.0,112.0,38928,101.375,192
11554,5.0,,,,53.0,,,,,44,note_on,,0.0,53.0,0.0,38972,101.48958333333333,192
11555,5.0,,,,55.0,,,,,4,note_on,,112.0,55.0,112.0,38976,101.5,192
11556,5.0,,,,55.0,,,,,44,note_on,,0.0,55.0,0.0,39020,101.61458333333333,192
11557,5.0,,,,53.0,,,,,4,note_on,,112.0,53.0,112.0,39024,101.625,192
11558,5.0,,,,53.0,,,,,44,note_on,,0.0,53.0,0.0,39068,101.73958333333333,192
11559,5.0,,,,55.0,,,,,4,note_on,,112.0,55.0,112.0,39072,101.75,192
11560,5.0,,,,55.0,,,,,44,note_on,,0.0,55.0,0.0,39116,101.86458333333333,192
11561,5.0,,,,53.0,,,,,4,note_on,,112.0,53.0,112.0,39120,101.875,192
11562,5.0,,,,53.0,,,,,44,note_on,,0.0,53.0,0.0,39164,101.98958333333333,192
11563,5.0,,,,55.0,,,,,4,note_on,,112.0,55.0,112.0,39168,102.0,192
11564,5.0,,,,55.0,,,,,44,note_on,,0.0,55.0,0.0,39212,102.11458333333333,192
11565,5.0,,,,53.0,,,,,4,note_on,,112.0,53.0,112.0,39216,102.125,192
11566,5.0,,,,53.0,,,,,44,note_on,,0.0,53.0,0.0,39260,102.23958333333333,192
11567,5.0,,,,55.0,,,,,4,note_on,,112.0,55.0,112.0,39264,102.25,192
11568,5.0,,,,55.0,,,,,44,note_on,,0.0,55.0,0.0,39308,102.36458333333333,192
11569,5.0,,,,53.0,,,,,4,note_on,,112.0,53.0,112.0,39312,102.375,192
11570,5.0,,,,53.0,,,,,44,note_on,,0.0,53.0,0.0,39356,102.48958333333333,192
11571,5.0,,,,55.0,,,,,4,note_on,,112.0,55.0,112.0,39360,102.5,192
11572,5.0,,,,55.0,,,,,44,note_on,,0.0,55.0,0.0,39404,102.61458333333333,192
11573,5.0,,,,53.0,,,,,4,note_on,,112.0,53.0,112.0,39408,102.625,192
11574,5.0,,,,53.0,,,,,44,note_on,,0.0,53.0,0.0,39452,102.73958333333333,192
11575,5.0,,,,55.0,,,,,4,note_on,,112.0,55.0,112.0,39456,102.75,192
11576,5.0,,,,55.0,,,,,44,note_on,,0.0,55.0,0.0,39500,102.86458333333333,192
11577,5.0,,,,53.0,,,,,4,note_on,,112.0,53.0,112.0,39504,102.875,192
11578,5.0,,,,53.0,,,,,44,note_on,,0.0,53.0,0.0,39548,102.98958333333333,192
11579,5.0,,,,55.0,,,,,52,note_on,,112.0,55.0,112.0,39600,103.125,192
11580,5.0,,,,55.0,,,,,44,note_on,,0.0,55.0,0.0,39644,103.23958333333333,192
11581,5.0,,,,55.0,,,,,4,note_on,,112.0,55.0,112.0,39648,103.25,192
11582,5.0,,,,55.0,,,,,44,note_on,,0.0,55.0,0.0,39692,103.36458333333333,192
11583,5.0,,,,53.0,,,,,4,note_on,,112.0,53.0,112.0,39696,103.375,192
11584,5.0,,,,53.0,,,,,44,note_on,,0.0,53.0,0.0,39740,103.48958333333333,192
11585,5.0,,,,55.0,,,,,4,note_on,,112.0,55.0,112.0,39744,103.5,192
11586,5.0,,,,55.0,,,,,44,note_on,,0.0,55.0,0.0,39788,103.61458333333333,192
11587,5.0,,,,53.0,,,,,4,note_on,,112.0,53.0,112.0,39792,103.625,192
11588,5.0,,,,53.0,,,,,44,note_on,,0.0,53.0,0.0,39836,103.73958333333333,192
11589,5.0,,,,55.0,,,,,4,note_on,,112.0,55.0,112.0,39840,103.75,192
11590,5.0,,,,55.0,,,,,44,note_on,,0.0,55.0,0.0,39884,103.86458333333333,192
11591,5.0,,,,53.0,,,,,4,note_on,,112.0,53.0,112.0,39888,103.875,192
11592,5.0,,,,53.0,,,,,44,note_on,,0.0,53.0,0.0,39932,103.98958333333333,192
11593,5.0,,,,55.0,,,,,4,note_on,,112.0,55.0,112.0,39936,104.0,192
11594,5.0,,,,55.0,,,,,44,note_on,,0.0,55.0,0.0,39980,104.11458333333333,192
11595,5.0,,,,53.0,,,,,4,note_on,,112.0,53.0,112.0,39984,104.125,192
11596,5.0,,,,53.0,,,,,44,note_on,,0.0,53.0,0.0,40028,104.23958333333333,192
11597,5.0,,,,55.0,,,,,4,note_on,,112.0,55.0,112.0,40032,104.25,192
11598,5.0,,,,55.0,,,,,44,note_on,,0.0,55.0,0.0,40076,104.36458333333333,192
11599,5.0,,,,53.0,,,,,4,note_on,,112.0,53.0,112.0,40080,104.375,192
11600,5.0,,,,53.0,,,,,44,note_on,,0.0,53.0,0.0,40124,104.48958333333333,192
11601,5.0,,,,55.0,,,,,4,note_on,,112.0,55.0,112.0,40128,104.5,192
11602,5.0,,,,55.0,,,,,44,note_on,,0.0,55.0,0.0,40172,104.61458333333333,192
11603,5.0,,,,53.0,,,,,4,note_on,,112.0,53.0,112.0,40176,104.625,192
11604,5.0,,,,53.0,,,,,44,note_on,,0.0,53.0,0.0,40220,104.73958333333333,192
11605,5.0,,,,55.0,,,,,4,note_on,,112.0,55.0,112.0,40224,104.75,192
11606,5.0,,,,55.0,,,,,44,note_on,,0.0,55.0,0.0,40268,104.86458333333333,192
11607,5.0,,,,53.0,,,,,4,note_on,,112.0,53.0,112.0,40272,104.875,192
11608,5.0,,,,53.0,,,,,44,note_on,,0.0,53.0,0.0,40316,104.98958333333333,192
11609,5.0,,,,55.0,,,,,52,note_on,,112.0,55.0,112.0,40368,105.125,192
11610,5.0,,,,55.0,,,,,44,note_on,,0.0,55.0,0.0,40412,105.23958333333333,192
11611,5.0,,,,55.0,,,,,4,note_on,,112.0,55.0,112.0,40416,105.25,192
11612,5.0,,,,55.0,,,,,44,note_on,,0.0,55.0,0.0,40460,105.36458333333333,192
11613,5.0,,,,53.0,,,,,4,note_on,,112.0,53.0,112.0,40464,105.375,192
11614,5.0,,,,53.0,,,,,44,note_on,,0.0,53.0,0.0,40508,105.48958333333333,192
11615,5.0,,,,55.0,,,,,4,note_on,,112.0,55.0,112.0,40512,105.5,192
11616,5.0,,,,55.0,,,,,44,note_on,,0.0,55.0,0.0,40556,105.61458333333333,192
11617,5.0,,,,53.0,,,,,4,note_on,,112.0,53.0,112.0,40560,105.625,192
11618,5.0,,,,53.0,,,,,44,note_on,,0.0,53.0,0.0,40604,105.73958333333333,192
11619,5.0,,,,55.0,,,,,4,note_on,,112.0,55.0,112.0,40608,105.75,192
11620,5.0,,,,55.0,,,,,44,note_on,,0.0,55.0,0.0,40652,105.86458333333333,192
11621,5.0,,,,53.0,,,,,4,note_on,,112.0,53.0,112.0,40656,105.875,192
11622,5.0,,,,53.0,,,,,44,note_on,,0.0,53.0,0.0,40700,105.98958333333333,192
11623,5.0,,,,55.0,,,,,4,note_on,,112.0,55.0,112.0,40704,106.0,192
11624,5.0,,,,55.0,,,,,44,note_on,,0.0,55.0,0.0,40748,106.11458333333333,192
11625,5.0,,,,53.0,,,,,4,note_on,,112.0,53.0,112.0,40752,106.125,192
11626,5.0,,,,53.0,,,,,44,note_on,,0.0,53.0,0.0,40796,106.23958333333333,192
11627,5.0,,,,55.0,,,,,4,note_on,,112.0,55.0,112.0,40800,106.25,192
11628,5.0,,,,55.0,,,,,44,note_on,,0.0,55.0,0.0,40844,106.36458333333333,192
11629,5.0,,,,53.0,,,,,4,note_on,,112.0,53.0,112.0,40848,106.375,192
11630,5.0,,,,53.0,,,,,44,note_on,,0.0,53.0,0.0,40892,106.48958333333333,192
11631,5.0,,,,55.0,,,,,4,note_on,,112.0,55.0,112.0,40896,106.5,192
11632,5.0,,,,55.0,,,,,44,note_on,,0.0,55.0,0.0,40940,106.61458333333333,192
11633,5.0,,,,53.0,,,,,4,note_on,,112.0,53.0,112.0,40944,106.625,192
11634,5.0,,,,53.0,,,,,44,note_on,,0.0,53.0,0.0,40988,106.73958333333333,192
11635,5.0,,,,55.0,,,,,4,note_on,,112.0,55.0,112.0,40992,106.75,192
11636,5.0,,,,55.0,,,,,44,note_on,,0.0,55.0,0.0,41036,106.86458333333333,192
11637,5.0,,,,53.0,,,,,4,note_on,,112.0,53.0,112.0,41040,106.875,192
11638,5.0,,,,53.0,,,,,44,note_on,,0.0,53.0,0.0,41084,106.98958333333333,192
11639,5.0,,,,55.0,,,,,52,note_on,,112.0,55.0,112.0,41136,107.125,192
11640,5.0,,,,55.0,,,,,44,note_on,,0.0,55.0,0.0,41180,107.23958333333333,192
11641,5.0,,,,55.0,,,,,4,note_on,,112.0,55.0,112.0,41184,107.25,192
11642,5.0,,,,55.0,,,,,44,note_on,,0.0,55.0,0.0,41228,107.36458333333333,192
11643,5.0,,,,53.0,,,,,4,note_on,,112.0,53.0,112.0,41232,107.375,192
11644,5.0,,,,53.0,,,,,44,note_on,,0.0,53.0,0.0,41276,107.48958333333333,192
11645,5.0,,,,55.0,,,,,4,note_on,,112.0,55.0,112.0,41280,107.5,192
11646,5.0,,,,55.0,,,,,44,note_on,,0.0,55.0,0.0,41324,107.61458333333333,192
11647,5.0,,,,53.0,,,,,4,note_on,,112.0,53.0,112.0,41328,107.625,192
11648,5.0,,,,53.0,,,,,44,note_on,,0.0,53.0,0.0,41372,107.73958333333333,192
11649,5.0,,,,55.0,,,,,4,note_on,,112.0,55.0,112.0,41376,107.75,192
11650,5.0,,,,55.0,,,,,44,note_on,,0.0,55.0,0.0,41420,107.86458333333333,192
11651,5.0,,,,53.0,,,,,4,note_on,,112.0,53.0,112.0,41424,107.875,192
11652,5.0,,,,53.0,,,,,44,note_on,,0.0,53.0,0.0,41468,107.98958333333333,192
11653,5.0,,,,55.0,,,,,4,note_on,,112.0,55.0,112.0,41472,108.0,192
11654,5.0,,,,55.0,,,,,44,note_on,,0.0,55.0,0.0,41516,108.11458333333333,192
11655,5.0,,,,53.0,,,,,4,note_on,,112.0,53.0,112.0,41520,108.125,192
11656,5.0,,,,53.0,,,,,44,note_on,,0.0,53.0,0.0,41564,108.23958333333333,192
11657,5.0,,,,55.0,,,,,4,note_on,,112.0,55.0,112.0,41568,108.25,192
11658,5.0,,,,55.0,,,,,44,note_on,,0.0,55.0,0.0,41612,108.36458333333333,192
11659,5.0,,,,53.0,,,,,4,note_on,,112.0,53.0,112.0,41616,108.375,192
11660,5.0,,,,53.0,,,,,44,note_on,,0.0,53.0,0.0,41660,108.48958333333333,192
11661,5.0,,,,55.0,,,,,4,note_on,,112.0,55.0,112.0,41664,108.5,192
11662,5.0,,,,55.0,,,,,44,note_on,,0.0,55.0,0.0,41708,108.61458333333333,192
11663,5.0,,,,53.0,,,,,4,note_on,,112.0,53.0,112.0,41712,108.625,192
11664,5.0,,,,53.0,,,,,44,note_on,,0.0,53.0,0.0,41756,108.73958333333333,192
11665,5.0,,,,55.0,,,,,4,note_on,,112.0,55.0,112.0,41760,108.75,192
11666,5.0,,,,55.0,,,,,44,note_on,,0.0,55.0,0.0,41804,108.86458333333333,192
11667,5.0,,,,53.0,,,,,4,note_on,,112.0,53.0,112.0,41808,108.875,192
11668,5.0,,,,53.0,,,,,44,note_on,,0.0,53.0,0.0,41852,108.98958333333333,192
11669,5.0,,,,55.0,,,,,52,note_on,,112.0,55.0,112.0,41904,109.125,192
11670,5.0,,,,55.0,,,,,44,note_on,,0.0,55.0,0.0,41948,109.23958333333333,192
11671,5.0,,,,55.0,,,,,4,note_on,,112.0,55.0,112.0,41952,109.25,192
11672,5.0,,,,55.0,,,,,44,note_on,,0.0,55.0,0.0,41996,109.36458333333333,192
11673,5.0,,,,53.0,,,,,4,note_on,,112.0,53.0,112.0,42000,109.375,192
11674,5.0,,,,53.0,,,,,44,note_on,,0.0,53.0,0.0,42044,109.48958333333333,192
11675,5.0,,,,55.0,,,,,4,note_on,,112.0,55.0,112.0,42048,109.5,192
11676,5.0,,,,55.0,,,,,44,note_on,,0.0,55.0,0.0,42092,109.61458333333333,192
11677,5.0,,,,53.0,,,,,4,note_on,,112.0,53.0,112.0,42096,109.625,192
11678,5.0,,,,53.0,,,,,44,note_on,,0.0,53.0,0.0,42140,109.73958333333333,192
11679,5.0,,,,55.0,,,,,4,note_on,,112.0,55.0,112.0,42144,109.75,192
11680,5.0,,,,55.0,,,,,44,note_on,,0.0,55.0,0.0,42188,109.86458333333333,192
11681,5.0,,,,53.0,,,,,4,note_on,,112.0,53.0,112.0,42192,109.875,192
11682,5.0,,,,53.0,,,,,44,note_on,,0.0,53.0,0.0,42236,109.98958333333333,192
11683,5.0,,,,55.0,,,,,4,note_on,,112.0,55.0,112.0,42240,110.0,192
11684,5.0,,,,55.0,,,,,44,note_on,,0.0,55.0,0.0,42284,110.11458333333333,192
11685,5.0,,,,53.0,,,,,4,note_on,,112.0,53.0,112.0,42288,110.125,192
11686,5.0,,,,53.0,,,,,44,note_on,,0.0,53.0,0.0,42332,110.23958333333333,192
11687,5.0,,,,55.0,,,,,4,note_on,,112.0,55.0,112.0,42336,110.25,192
11688,5.0,,,,55.0,,,,,44,note_on,,0.0,55.0,0.0,42380,110.36458333333333,192
11689,5.0,,,,53.0,,,,,4,note_on,,112.0,53.0,112.0,42384,110.375,192
11690,5.0,,,,53.0,,,,,44,note_on,,0.0,53.0,0.0,42428,110.48958333333333,192
11691,5.0,,,,55.0,,,,,4,note_on,,112.0,55.0,112.0,42432,110.5,192
11692,5.0,,,,55.0,,,,,44,note_on,,0.0,55.0,0.0,42476,110.61458333333333,192
11693,5.0,,,,53.0,,,,,4,note_on,,112.0,53.0,112.0,42480,110.625,192
11694,5.0,,,,53.0,,,,,44,note_on,,0.0,53.0,0.0,42524,110.73958333333333,192
11695,5.0,,,,55.0,,,,,4,note_on,,112.0,55.0,112.0,42528,110.75,192
11696,5.0,,,,55.0,,,,,44,note_on,,0.0,55.0,0.0,42572,110.86458333333333,192
11697,5.0,,,,53.0,,,,,4,note_on,,112.0,53.0,112.0,42576,110.875,192
11698,5.0,,,,53.0,,,,,44,note_on,,0.0,53.0,0.0,42620,110.98958333333333,192
11699,5.0,,,,55.0,,,,,52,note_on,,112.0,55.0,112.0,42672,111.125,192
11700,5.0,,,,55.0,,,,,44,note_on,,0.0,55.0,0.0,42716,111.23958333333333,192
11701,5.0,,,,55.0,,,,,4,note_on,,112.0,55.0,112.0,42720,111.25,192
11702,5.0,,,,55.0,,,,,44,note_on,,0.0,55.0,0.0,42764,111.36458333333333,192
11703,5.0,,,,53.0,,,,,4,note_on,,112.0,53.0,112.0,42768,111.375,192
11704,5.0,,,,53.0,,,,,44,note_on,,0.0,53.0,0.0,42812,111.48958333333333,192
11705,5.0,,,,55.0,,,,,4,note_on,,112.0,55.0,112.0,42816,111.5,192
11706,5.0,,,,55.0,,,,,44,note_on,,0.0,55.0,0.0,42860,111.61458333333333,192
11707,5.0,,,,53.0,,,,,4,note_on,,112.0,53.0,112.0,42864,111.625,192
11708,5.0,,,,53.0,,,,,44,note_on,,0.0,53.0,0.0,42908,111.73958333333333,192
11709,5.0,,,,55.0,,,,,4,note_on,,112.0,55.0,112.0,42912,111.75,192
11710,5.0,,,,55.0,,,,,44,note_on,,0.0,55.0,0.0,42956,111.86458333333333,192
11711,5.0,,,,53.0,,,,,4,note_on,,112.0,53.0,112.0,42960,111.875,192
11712,5.0,,,,53.0,,,,,44,note_on,,0.0,53.0,0.0,43004,111.98958333333333,192
11713,5.0,,,,55.0,,,,,4,note_on,,112.0,55.0,112.0,43008,112.0,192
11714,5.0,,,,55.0,,,,,44,note_on,,0.0,55.0,0.0,43052,112.11458333333333,192
11715,5.0,,,,53.0,,,,,4,note_on,,112.0,53.0,112.0,43056,112.125,192
11716,5.0,,,,53.0,,,,,44,note_on,,0.0,53.0,0.0,43100,112.23958333333333,192
11717,5.0,,,,55.0,,,,,4,note_on,,112.0,55.0,112.0,43104,112.25,192
11718,5.0,,,,55.0,,,,,44,note_on,,0.0,55.0,0.0,43148,112.36458333333333,192
11719,5.0,,,,53.0,,,,,4,note_on,,112.0,53.0,112.0,43152,112.375,192
11720,5.0,,,,53.0,,,,,44,note_on,,0.0,53.0,0.0,43196,112.48958333333333,192
11721,5.0,,,,55.0,,,,,4,note_on,,112.0,55.0,112.0,43200,112.5,192
11722,5.0,,,,55.0,,,,,44,note_on,,0.0,55.0,0.0,43244,112.61458333333333,192
11723,5.0,,,,53.0,,,,,4,note_on,,112.0,53.0,112.0,43248,112.625,192
11724,5.0,,,,53.0,,,,,44,note_on,,0.0,53.0,0.0,43292,112.73958333333333,192
11725,5.0,,,,55.0,,,,,4,note_on,,112.0,55.0,112.0,43296,112.75,192
11726,5.0,,,,55.0,,,,,44,note_on,,0.0,55.0,0.0,43340,112.86458333333333,192
11727,5.0,,,,53.0,,,,,4,note_on,,112.0,53.0,112.0,43344,112.875,192
11728,5.0,,,,53.0,,,,,44,note_on,,0.0,53.0,0.0,43388,112.98958333333333,192
11729,5.0,,,,55.0,,,,,52,note_on,,112.0,55.0,112.0,43440,113.125,192
11730,5.0,,,,55.0,,,,,44,note_on,,0.0,55.0,0.0,43484,113.23958333333333,192
11731,5.0,,,,55.0,,,,,4,note_on,,112.0,55.0,112.0,43488,113.25,192
11732,5.0,,,,55.0,,,,,44,note_on,,0.0,55.0,0.0,43532,113.36458333333333,192
11733,5.0,,,,53.0,,,,,4,note_on,,112.0,53.0,112.0,43536,113.375,192
11734,5.0,,,,53.0,,,,,44,note_on,,0.0,53.0,0.0,43580,113.48958333333333,192
11735,5.0,,,,55.0,,,,,4,note_on,,112.0,55.0,112.0,43584,113.5,192
11736,5.0,,,,55.0,,,,,44,note_on,,0.0,55.0,0.0,43628,113.61458333333333,192
11737,5.0,,,,53.0,,,,,4,note_on,,112.0,53.0,112.0,43632,113.625,192
11738,5.0,,,,53.0,,,,,44,note_on,,0.0,53.0,0.0,43676,113.73958333333333,192
11739,5.0,,,,55.0,,,,,4,note_on,,112.0,55.0,112.0,43680,113.75,192
11740,5.0,,,,55.0,,,,,44,note_on,,0.0,55.0,0.0,43724,113.86458333333333,192
11741,5.0,,,,53.0,,,,,4,note_on,,112.0,53.0,112.0,43728,113.875,192
11742,5.0,,,,53.0,,,,,44,note_on,,0.0,53.0,0.0,43772,113.98958333333333,192
11743,5.0,,,,55.0,,,,,6148,note_on,,112.0,55.0,112.0,49920,130.0,192
11744,5.0,,,,55.0,,,,,44,note_on,,0.0,55.0,0.0,49964,130.11458333333331,192
11745,5.0,,,,53.0,,,,,4,note_on,,112.0,53.0,112.0,49968,130.125,192
11746,5.0,,,,53.0,,,,,44,note_on,,0.0,53.0,0.0,50012,130.23958333333331,192
11747,5.0,,,,55.0,,,,,4,note_on,,112.0,55.0,112.0,50016,130.25,192
11748,5.0,,,,55.0,,,,,44,note_on,,0.0,55.0,0.0,50060,130.36458333333331,192
11749,5.0,,,,53.0,,,,,4,note_on,,112.0,53.0,112.0,50064,130.375,192
11750,5.0,,,,53.0,,,,,44,note_on,,0.0,53.0,0.0,50108,130.48958333333331,192
11751,5.0,,,,55.0,,,,,4,note_on,,112.0,55.0,112.0,50112,130.5,192
11752,5.0,,,,55.0,,,,,44,note_on,,0.0,55.0,0.0,50156,130.61458333333331,192
11753,5.0,,,,53.0,,,,,4,note_on,,112.0,53.0,112.0,50160,130.625,192
11754,5.0,,,,53.0,,,,,44,note_on,,0.0,53.0,0.0,50204,130.73958333333331,192
11755,5.0,,,,55.0,,,,,4,note_on,,112.0,55.0,112.0,50208,130.75,192
11756,5.0,,,,55.0,,,,,44,note_on,,0.0,55.0,0.0,50252,130.86458333333331,192
11757,5.0,,,,53.0,,,,,4,note_on,,112.0,53.0,112.0,50256,130.875,192
11758,5.0,,,,53.0,,,,,44,note_on,,0.0,53.0,0.0,50300,130.98958333333331,192
11759,5.0,,,,55.0,,,,,52,note_on,,112.0,55.0,112.0,50352,131.125,192
11760,5.0,,,,55.0,,,,,44,note_on,,0.0,55.0,0.0,50396,131.23958333333331,192
11761,5.0,,,,55.0,,,,,4,note_on,,112.0,55.0,112.0,50400,131.25,192
11762,5.0,,,,55.0,,,,,44,note_on,,0.0,55.0,0.0,50444,131.36458333333331,192
11763,5.0,,,,53.0,,,,,4,note_on,,112.0,53.0,112.0,50448,131.375,192
11764,5.0,,,,53.0,,,,,44,note_on,,0.0,53.0,0.0,50492,131.48958333333331,192
11765,5.0,,,,55.0,,,,,4,note_on,,112.0,55.0,112.0,50496,131.5,192
11766,5.0,,,,55.0,,,,,44,note_on,,0.0,55.0,0.0,50540,131.61458333333331,192
11767,5.0,,,,53.0,,,,,4,note_on,,112.0,53.0,112.0,50544,131.625,192
11768,5.0,,,,53.0,,,,,44,note_on,,0.0,53.0,0.0,50588,131.73958333333331,192
11769,5.0,,,,55.0,,,,,4,note_on,,112.0,55.0,112.0,50592,131.75,192
11770,5.0,,,,55.0,,,,,44,note_on,,0.0,55.0,0.0,50636,131.86458333333331,192
11771,5.0,,,,53.0,,,,,4,note_on,,112.0,53.0,112.0,50640,131.875,192
11772,5.0,,,,53.0,,,,,44,note_on,,0.0,53.0,0.0,50684,131.98958333333331,192
11773,5.0,,,,55.0,,,,,4,note_on,,112.0,55.0,112.0,50688,132.0,192
11774,5.0,,,,55.0,,,,,44,note_on,,0.0,55.0,0.0,50732,132.11458333333331,192
11775,5.0,,,,53.0,,,,,4,note_on,,112.0,53.0,112.0,50736,132.125,192
11776,5.0,,,,53.0,,,,,44,note_on,,0.0,53.0,0.0,50780,132.23958333333331,192
11777,5.0,,,,55.0,,,,,4,note_on,,112.0,55.0,112.0,50784,132.25,192
11778,5.0,,,,55.0,,,,,44,note_on,,0.0,55.0,0.0,50828,132.36458333333331,192
11779,5.0,,,,53.0,,,,,4,note_on,,112.0,53.0,112.0,50832,132.375,192
11780,5.0,,,,53.0,,,,,44,note_on,,0.0,53.0,0.0,50876,132.48958333333331,192
11781,5.0,,,,55.0,,,,,4,note_on,,112.0,55.0,112.0,50880,132.5,192
11782,5.0,,,,55.0,,,,,44,note_on,,0.0,55.0,0.0,50924,132.61458333333331,192
11783,5.0,,,,53.0,,,,,4,note_on,,112.0,53.0,112.0,50928,132.625,192
11784,5.0,,,,53.0,,,,,44,note_on,,0.0,53.0,0.0,50972,132.73958333333331,192
11785,5.0,,,,55.0,,,,,4,note_on,,112.0,55.0,112.0,50976,132.75,192
11786,5.0,,,,55.0,,,,,44,note_on,,0.0,55.0,0.0,51020,132.86458333333331,192
11787,5.0,,,,53.0,,,,,4,note_on,,112.0,53.0,112.0,51024,132.875,192
11788,5.0,,,,53.0,,,,,44,note_on,,0.0,53.0,0.0,51068,132.98958333333331,192
11789,5.0,,,,55.0,,,,,52,note_on,,112.0,55.0,112.0,51120,133.125,192
11790,5.0,,,,55.0,,,,,44,note_on,,0.0,55.0,0.0,51164,133.23958333333331,192
11791,5.0,,,,55.0,,,,,4,note_on,,112.0,55.0,112.0,51168,133.25,192
11792,5.0,,,,55.0,,,,,44,note_on,,0.0,55.0,0.0,51212,133.36458333333331,192
11793,5.0,,,,53.0,,,,,4,note_on,,112.0,53.0,112.0,51216,133.375,192
11794,5.0,,,,53.0,,,,,44,note_on,,0.0,53.0,0.0,51260,133.48958333333331,192
11795,5.0,,,,55.0,,,,,4,note_on,,112.0,55.0,112.0,51264,133.5,192
11796,5.0,,,,55.0,,,,,44,note_on,,0.0,55.0,0.0,51308,133.61458333333331,192
11797,5.0,,,,53.0,,,,,4,note_on,,112.0,53.0,112.0,51312,133.625,192
11798,5.0,,,,53.0,,,,,44,note_on,,0.0,53.0,0.0,51356,133.73958333333331,192
11799,5.0,,,,55.0,,,,,4,note_on,,112.0,55.0,112.0,51360,133.75,192
11800,5.0,,,,55.0,,,,,44,note_on,,0.0,55.0,0.0,51404,133.86458333333331,192
11801,5.0,,,,53.0,,,,,4,note_on,,112.0,53.0,112.0,51408,133.875,192
11802,5.0,,,,53.0,,,,,44,note_on,,0.0,53.0,0.0,51452,133.98958333333331,192
11803,5.0,,,,55.0,,,,,4,note_on,,112.0,55.0,112.0,51456,134.0,192
11804,5.0,,,,55.0,,,,,44,note_on,,0.0,55.0,0.0,51500,134.11458333333331,192
11805,5.0,,,,53.0,,,,,4,note_on,,112.0,53.0,112.0,51504,134.125,192
11806,5.0,,,,53.0,,,,,44,note_on,,0.0,53.0,0.0,51548,134.23958333333331,192
11807,5.0,,,,55.0,,,,,4,note_on,,112.0,55.0,112.0,51552,134.25,192
11808,5.0,,,,55.0,,,,,44,note_on,,0.0,55.0,0.0,51596,134.36458333333331,192
11809,5.0,,,,53.0,,,,,4,note_on,,112.0,53.0,112.0,51600,134.375,192
11810,5.0,,,,53.0,,,,,44,note_on,,0.0,53.0,0.0,51644,134.48958333333331,192
11811,5.0,,,,55.0,,,,,4,note_on,,112.0,55.0,112.0,51648,134.5,192
11812,5.0,,,,55.0,,,,,44,note_on,,0.0,55.0,0.0,51692,134.61458333333331,192
11813,5.0,,,,53.0,,,,,4,note_on,,112.0,53.0,112.0,51696,134.625,192
11814,5.0,,,,53.0,,,,,44,note_on,,0.0,53.0,0.0,51740,134.73958333333331,192
11815,5.0,,,,55.0,,,,,4,note_on,,112.0,55.0,112.0,51744,134.75,192
11816,5.0,,,,55.0,,,,,44,note_on,,0.0,55.0,0.0,51788,134.86458333333331,192
11817,5.0,,,,53.0,,,,,4,note_on,,112.0,53.0,112.0,51792,134.875,192
11818,5.0,,,,53.0,,,,,44,note_on,,0.0,53.0,0.0,51836,134.98958333333331,192
11819,5.0,,,,55.0,,,,,52,note_on,,112.0,55.0,112.0,51888,135.125,192
11820,5.0,,,,55.0,,,,,44,note_on,,0.0,55.0,0.0,51932,135.23958333333331,192
11821,5.0,,,,55.0,,,,,4,note_on,,112.0,55.0,112.0,51936,135.25,192
11822,5.0,,,,55.0,,,,,44,note_on,,0.0,55.0,0.0,51980,135.36458333333331,192
11823,5.0,,,,53.0,,,,,4,note_on,,112.0,53.0,112.0,51984,135.375,192
11824,5.0,,,,53.0,,,,,44,note_on,,0.0,53.0,0.0,52028,135.48958333333331,192
11825,5.0,,,,55.0,,,,,4,note_on,,112.0,55.0,112.0,52032,135.5,192
11826,5.0,,,,55.0,,,,,44,note_on,,0.0,55.0,0.0,52076,135.61458333333331,192
11827,5.0,,,,53.0,,,,,4,note_on,,112.0,53.0,112.0,52080,135.625,192
11828,5.0,,,,53.0,,,,,44,note_on,,0.0,53.0,0.0,52124,135.73958333333331,192
11829,5.0,,,,55.0,,,,,4,note_on,,112.0,55.0,112.0,52128,135.75,192
11830,5.0,,,,55.0,,,,,44,note_on,,0.0,55.0,0.0,52172,135.86458333333331,192
11831,5.0,,,,53.0,,,,,4,note_on,,112.0,53.0,112.0,52176,135.875,192
11832,5.0,,,,53.0,,,,,44,note_on,,0.0,53.0,0.0,52220,135.98958333333331,192
11833,5.0,,,,55.0,,,,,4,note_on,,112.0,55.0,112.0,52224,136.0,192
11834,5.0,,,,55.0,,,,,44,note_on,,0.0,55.0,0.0,52268,136.11458333333331,192
11835,5.0,,,,53.0,,,,,4,note_on,,112.0,53.0,112.0,52272,136.125,192
11836,5.0,,,,53.0,,,,,44,note_on,,0.0,53.0,0.0,52316,136.23958333333331,192
11837,5.0,,,,55.0,,,,,4,note_on,,112.0,55.0,112.0,52320,136.25,192
11838,5.0,,,,55.0,,,,,44,note_on,,0.0,55.0,0.0,52364,136.36458333333331,192
11839,5.0,,,,53.0,,,,,4,note_on,,112.0,53.0,112.0,52368,136.375,192
11840,5.0,,,,53.0,,,,,44,note_on,,0.0,53.0,0.0,52412,136.48958333333331,192
11841,5.0,,,,55.0,,,,,4,note_on,,112.0,55.0,112.0,52416,136.5,192
11842,5.0,,,,55.0,,,,,44,note_on,,0.0,55.0,0.0,52460,136.61458333333331,192
11843,5.0,,,,53.0,,,,,4,note_on,,112.0,53.0,112.0,52464,136.625,192
11844,5.0,,,,53.0,,,,,44,note_on,,0.0,53.0,0.0,52508,136.73958333333331,192
11845,5.0,,,,55.0,,,,,4,note_on,,112.0,55.0,112.0,52512,136.75,192
11846,5.0,,,,55.0,,,,,44,note_on,,0.0,55.0,0.0,52556,136.86458333333331,192
11847,5.0,,,,53.0,,,,,4,note_on,,112.0,53.0,112.0,52560,136.875,192
11848,5.0,,,,53.0,,,,,44,note_on,,0.0,53.0,0.0,52604,136.98958333333331,192
11849,5.0,,,,55.0,,,,,52,note_on,,112.0,55.0,112.0,52656,137.125,192
11850,5.0,,,,55.0,,,,,44,note_on,,0.0,55.0,0.0,52700,137.23958333333331,192
11851,5.0,,,,55.0,,,,,4,note_on,,112.0,55.0,112.0,52704,137.25,192
11852,5.0,,,,55.0,,,,,44,note_on,,0.0,55.0,0.0,52748,137.36458333333331,192
11853,5.0,,,,53.0,,,,,4,note_on,,112.0,53.0,112.0,52752,137.375,192
11854,5.0,,,,53.0,,,,,44,note_on,,0.0,53.0,0.0,52796,137.48958333333331,192
11855,5.0,,,,55.0,,,,,4,note_on,,112.0,55.0,112.0,52800,137.5,192
11856,5.0,,,,55.0,,,,,44,note_on,,0.0,55.0,0.0,52844,137.61458333333331,192
11857,5.0,,,,53.0,,,,,4,note_on,,112.0,53.0,112.0,52848,137.625,192
11858,5.0,,,,53.0,,,,,44,note_on,,0.0,53.0,0.0,52892,137.73958333333331,192
11859,5.0,,,,55.0,,,,,4,note_on,,112.0,55.0,112.0,52896,137.75,192
11860,5.0,,,,55.0,,,,,44,note_on,,0.0,55.0,0.0,52940,137.86458333333331,192
11861,5.0,,,,53.0,,,,,4,note_on,,112.0,53.0,112.0,52944,137.875,192
11862,5.0,,,,53.0,,,,,44,note_on,,0.0,53.0,0.0,52988,137.98958333333331,192
11863,5.0,,,,55.0,,,,,4,note_on,,112.0,55.0,112.0,52992,138.0,192
11864,5.0,,,,55.0,,,,,44,note_on,,0.0,55.0,0.0,53036,138.11458333333331,192
11865,5.0,,,,53.0,,,,,4,note_on,,112.0,53.0,112.0,53040,138.125,192
11866,5.0,,,,53.0,,,,,44,note_on,,0.0,53.0,0.0,53084,138.23958333333331,192
11867,5.0,,,,55.0,,,,,4,note_on,,112.0,55.0,112.0,53088,138.25,192
11868,5.0,,,,55.0,,,,,44,note_on,,0.0,55.0,0.0,53132,138.36458333333331,192
11869,5.0,,,,53.0,,,,,4,note_on,,112.0,53.0,112.0,53136,138.375,192
11870,5.0,,,,53.0,,,,,44,note_on,,0.0,53.0,0.0,53180,138.48958333333331,192
11871,5.0,,,,55.0,,,,,4,note_on,,112.0,55.0,112.0,53184,138.5,192
11872,5.0,,,,55.0,,,,,44,note_on,,0.0,55.0,0.0,53228,138.61458333333331,192
11873,5.0,,,,53.0,,,,,4,note_on,,112.0,53.0,112.0,53232,138.625,192
11874,5.0,,,,53.0,,,,,44,note_on,,0.0,53.0,0.0,53276,138.73958333333331,192
11875,5.0,,,,55.0,,,,,4,note_on,,112.0,55.0,112.0,53280,138.75,192
11876,5.0,,,,55.0,,,,,44,note_on,,0.0,55.0,0.0,53324,138.86458333333331,192
11877,5.0,,,,53.0,,,,,4,note_on,,112.0,53.0,112.0,53328,138.875,192
11878,5.0,,,,53.0,,,,,44,note_on,,0.0,53.0,0.0,53372,138.98958333333331,192
11879,5.0,,,,55.0,,,,,52,note_on,,112.0,55.0,112.0,53424,139.125,192
11880,5.0,,,,55.0,,,,,44,note_on,,0.0,55.0,0.0,53468,139.23958333333331,192
11881,5.0,,,,55.0,,,,,4,note_on,,112.0,55.0,112.0,53472,139.25,192
11882,5.0,,,,55.0,,,,,44,note_on,,0.0,55.0,0.0,53516,139.36458333333331,192
11883,5.0,,,,53.0,,,,,4,note_on,,112.0,53.0,112.0,53520,139.375,192
11884,5.0,,,,53.0,,,,,44,note_on,,0.0,53.0,0.0,53564,139.48958333333331,192
11885,5.0,,,,55.0,,,,,4,note_on,,112.0,55.0,112.0,53568,139.5,192
11886,5.0,,,,55.0,,,,,44,note_on,,0.0,55.0,0.0,53612,139.61458333333331,192
11887,5.0,,,,53.0,,,,,4,note_on,,112.0,53.0,112.0,53616,139.625,192
11888,5.0,,,,53.0,,,,,44,note_on,,0.0,53.0,0.0,53660,139.73958333333331,192
11889,5.0,,,,55.0,,,,,4,note_on,,112.0,55.0,112.0,53664,139.75,192
11890,5.0,,,,55.0,,,,,44,note_on,,0.0,55.0,0.0,53708,139.86458333333331,192
11891,5.0,,,,53.0,,,,,4,note_on,,112.0,53.0,112.0,53712,139.875,192
11892,5.0,,,,53.0,,,,,44,note_on,,0.0,53.0,0.0,53756,139.98958333333331,192
11893,5.0,,,,55.0,,,,,4,note_on,,112.0,55.0,112.0,53760,140.0,192
11894,5.0,,,,55.0,,,,,44,note_on,,0.0,55.0,0.0,53804,140.11458333333331,192
11895,5.0,,,,53.0,,,,,4,note_on,,112.0,53.0,112.0,53808,140.125,192
11896,5.0,,,,53.0,,,,,44,note_on,,0.0,53.0,0.0,53852,140.23958333333331,192
11897,5.0,,,,55.0,,,,,4,note_on,,112.0,55.0,112.0,53856,140.25,192
11898,5.0,,,,55.0,,,,,44,note_on,,0.0,55.0,0.0,53900,140.36458333333331,192
11899,5.0,,,,53.0,,,,,4,note_on,,112.0,53.0,112.0,53904,140.375,192
11900,5.0,,,,53.0,,,,,44,note_on,,0.0,53.0,0.0,53948,140.48958333333331,192
11901,5.0,,,,55.0,,,,,4,note_on,,112.0,55.0,112.0,53952,140.5,192
11902,5.0,,,,55.0,,,,,44,note_on,,0.0,55.0,0.0,53996,140.61458333333331,192
11903,5.0,,,,53.0,,,,,4,note_on,,112.0,53.0,112.0,54000,140.625,192
11904,5.0,,,,53.0,,,,,44,note_on,,0.0,53.0,0.0,54044,140.73958333333331,192
11905,5.0,,,,55.0,,,,,4,note_on,,112.0,55.0,112.0,54048,140.75,192
11906,5.0,,,,55.0,,,,,44,note_on,,0.0,55.0,0.0,54092,140.86458333333331,192
11907,5.0,,,,53.0,,,,,4,note_on,,112.0,53.0,112.0,54096,140.875,192
11908,5.0,,,,53.0,,,,,44,note_on,,0.0,53.0,0.0,54140,140.98958333333331,192
11909,5.0,,,,55.0,,,,,52,note_on,,112.0,55.0,112.0,54192,141.125,192
11910,5.0,,,,55.0,,,,,44,note_on,,0.0,55.0,0.0,54236,141.23958333333331,192
11911,5.0,,,,55.0,,,,,4,note_on,,112.0,55.0,112.0,54240,141.25,192
11912,5.0,,,,55.0,,,,,44,note_on,,0.0,55.0,0.0,54284,141.36458333333331,192
11913,5.0,,,,53.0,,,,,4,note_on,,112.0,53.0,112.0,54288,141.375,192
11914,5.0,,,,53.0,,,,,44,note_on,,0.0,53.0,0.0,54332,141.48958333333331,192
11915,5.0,,,,55.0,,,,,4,note_on,,112.0,55.0,112.0,54336,141.5,192
11916,5.0,,,,55.0,,,,,44,note_on,,0.0,55.0,0.0,54380,141.61458333333331,192
11917,5.0,,,,53.0,,,,,4,note_on,,112.0,53.0,112.0,54384,141.625,192
11918,5.0,,,,53.0,,,,,44,note_on,,0.0,53.0,0.0,54428,141.73958333333331,192
11919,5.0,,,,55.0,,,,,4,note_on,,112.0,55.0,112.0,54432,141.75,192
11920,5.0,,,,55.0,,,,,44,note_on,,0.0,55.0,0.0,54476,141.86458333333331,192
11921,5.0,,,,53.0,,,,,4,note_on,,112.0,53.0,112.0,54480,141.875,192
11922,5.0,,,,53.0,,,,,44,note_on,,0.0,53.0,0.0,54524,141.98958333333331,192
11923,5.0,,,,55.0,,,,,4,note_on,,112.0,55.0,112.0,54528,142.0,192
11924,5.0,,,,55.0,,,,,44,note_on,,0.0,55.0,0.0,54572,142.11458333333331,192
11925,5.0,,,,53.0,,,,,4,note_on,,112.0,53.0,112.0,54576,142.125,192
11926,5.0,,,,53.0,,,,,44,note_on,,0.0,53.0,0.0,54620,142.23958333333331,192
11927,5.0,,,,55.0,,,,,4,note_on,,112.0,55.0,112.0,54624,142.25,192
11928,5.0,,,,55.0,,,,,44,note_on,,0.0,55.0,0.0,54668,142.36458333333331,192
11929,5.0,,,,53.0,,,,,4,note_on,,112.0,53.0,112.0,54672,142.375,192
11930,5.0,,,,53.0,,,,,44,note_on,,0.0,53.0,0.0,54716,142.48958333333331,192
11931,5.0,,,,55.0,,,,,4,note_on,,112.0,55.0,112.0,54720,142.5,192
11932,5.0,,,,55.0,,,,,44,note_on,,0.0,55.0,0.0,54764,142.61458333333331,192
11933,5.0,,,,53.0,,,,,4,note_on,,112.0,53.0,112.0,54768,142.625,192
11934,5.0,,,,53.0,,,,,44,note_on,,0.0,53.0,0.0,54812,142.73958333333331,192
11935,5.0,,,,55.0,,,,,4,note_on,,112.0,55.0,112.0,54816,142.75,192
11936,5.0,,,,55.0,,,,,44,note_on,,0.0,55.0,0.0,54860,142.86458333333331,192
11937,5.0,,,,53.0,,,,,4,note_on,,112.0,53.0,112.0,54864,142.875,192
11938,5.0,,,,53.0,,,,,44,note_on,,0.0,53.0,0.0,54908,142.98958333333331,192
11939,5.0,,,,55.0,,,,,52,note_on,,112.0,55.0,112.0,54960,143.125,192
11940,5.0,,,,55.0,,,,,44,note_on,,0.0,55.0,0.0,55004,143.23958333333331,192
11941,5.0,,,,55.0,,,,,4,note_on,,112.0,55.0,112.0,55008,143.25,192
11942,5.0,,,,55.0,,,,,44,note_on,,0.0,55.0,0.0,55052,143.36458333333331,192
11943,5.0,,,,53.0,,,,,4,note_on,,112.0,53.0,112.0,55056,143.375,192
11944,5.0,,,,53.0,,,,,44,note_on,,0.0,53.0,0.0,55100,143.48958333333331,192
11945,5.0,,,,55.0,,,,,4,note_on,,112.0,55.0,112.0,55104,143.5,192
11946,5.0,,,,55.0,,,,,44,note_on,,0.0,55.0,0.0,55148,143.61458333333331,192
11947,5.0,,,,53.0,,,,,4,note_on,,112.0,53.0,112.0,55152,143.625,192
11948,5.0,,,,53.0,,,,,44,note_on,,0.0,53.0,0.0,55196,143.73958333333331,192
11949,5.0,,,,55.0,,,,,4,note_on,,112.0,55.0,112.0,55200,143.75,192
11950,5.0,,,,55.0,,,,,44,note_on,,0.0,55.0,0.0,55244,143.86458333333331,192
11951,5.0,,,,53.0,,,,,4,note_on,,112.0,53.0,112.0,55248,143.875,192
11952,5.0,,,,53.0,,,,,44,note_on,,0.0,53.0,0.0,55292,143.98958333333331,192
11953,5.0,,,,55.0,,,,,4,note_on,,112.0,55.0,112.0,55296,144.0,192
11954,5.0,,,,55.0,,,,,44,note_on,,0.0,55.0,0.0,55340,144.11458333333331,192
11955,5.0,,,,53.0,,,,,4,note_on,,112.0,53.0,112.0,55344,144.125,192
11956,5.0,,,,53.0,,,,,44,note_on,,0.0,53.0,0.0,55388,144.23958333333331,192
11957,5.0,,,,55.0,,,,,4,note_on,,112.0,55.0,112.0,55392,144.25,192
11958,5.0,,,,55.0,,,,,44,note_on,,0.0,55.0,0.0,55436,144.36458333333331,192
11959,5.0,,,,53.0,,,,,4,note_on,,112.0,53.0,112.0,55440,144.375,192
11960,5.0,,,,53.0,,,,,44,note_on,,0.0,53.0,0.0,55484,144.48958333333331,192
11961,5.0,,,,55.0,,,,,4,note_on,,112.0,55.0,112.0,55488,144.5,192
11962,5.0,,,,55.0,,,,,44,note_on,,0.0,55.0,0.0,55532,144.61458333333331,192
11963,5.0,,,,53.0,,,,,4,note_on,,112.0,53.0,112.0,55536,144.625,192
11964,5.0,,,,53.0,,,,,44,note_on,,0.0,53.0,0.0,55580,144.73958333333331,192
11965,5.0,,,,55.0,,,,,4,note_on,,112.0,55.0,112.0,55584,144.75,192
11966,5.0,,,,55.0,,,,,44,note_on,,0.0,55.0,0.0,55628,144.86458333333331,192
11967,5.0,,,,53.0,,,,,4,note_on,,112.0,53.0,112.0,55632,144.875,192
11968,5.0,,,,53.0,,,,,44,note_on,,0.0,53.0,0.0,55676,144.98958333333331,192
11969,5.0,,,,55.0,,,,,52,note_on,,112.0,55.0,112.0,55728,145.125,192
11970,5.0,,,,55.0,,,,,44,note_on,,0.0,55.0,0.0,55772,145.23958333333331,192
11971,5.0,,,,55.0,,,,,4,note_on,,112.0,55.0,112.0,55776,145.25,192
11972,5.0,,,,55.0,,,,,44,note_on,,0.0,55.0,0.0,55820,145.36458333333331,192
11973,5.0,,,,53.0,,,,,4,note_on,,112.0,53.0,112.0,55824,145.375,192
11974,5.0,,,,53.0,,,,,44,note_on,,0.0,53.0,0.0,55868,145.48958333333331,192
11975,5.0,,,,55.0,,,,,4,note_on,,112.0,55.0,112.0,55872,145.5,192
11976,5.0,,,,55.0,,,,,44,note_on,,0.0,55.0,0.0,55916,145.61458333333331,192
11977,5.0,,,,53.0,,,,,4,note_on,,112.0,53.0,112.0,55920,145.625,192
11978,5.0,,,,53.0,,,,,44,note_on,,0.0,53.0,0.0,55964,145.73958333333331,192
11979,5.0,,,,55.0,,,,,4,note_on,,112.0,55.0,112.0,55968,145.75,192
11980,5.0,,,,55.0,,,,,44,note_on,,0.0,55.0,0.0,56012,145.86458333333331,192
11981,5.0,,,,53.0,,,,,4,note_on,,112.0,53.0,112.0,56016,145.875,192
11982,5.0,,,,53.0,,,,,44,note_on,,0.0,53.0,0.0,56060,145.98958333333331,192
11983,5.0,,,,55.0,,,,,4,note_on,,112.0,55.0,112.0,56064,146.0,192
11984,5.0,,,,55.0,,,,,44,note_on,,0.0,55.0,0.0,56108,146.11458333333331,192
11985,5.0,,,,53.0,,,,,4,note_on,,112.0,53.0,112.0,56112,146.125,192
11986,5.0,,,,53.0,,,,,44,note_on,,0.0,53.0,0.0,56156,146.23958333333331,192
11987,5.0,,,,55.0,,,,,4,note_on,,112.0,55.0,112.0,56160,146.25,192
11988,5.0,,,,55.0,,,,,44,note_on,,0.0,55.0,0.0,56204,146.36458333333331,192
11989,5.0,,,,53.0,,,,,4,note_on,,112.0,53.0,112.0,56208,146.375,192
11990,5.0,,,,53.0,,,,,44,note_on,,0.0,53.0,0.0,56252,146.48958333333331,192
11991,5.0,,,,55.0,,,,,4,note_on,,112.0,55.0,112.0,56256,146.5,192
11992,5.0,,,,55.0,,,,,44,note_on,,0.0,55.0,0.0,56300,146.61458333333331,192
11993,5.0,,,,53.0,,,,,4,note_on,,112.0,53.0,112.0,56304,146.625,192
11994,5.0,,,,53.0,,,,,44,note_on,,0.0,53.0,0.0,56348,146.73958333333331,192
11995,5.0,,,,55.0,,,,,4,note_on,,112.0,55.0,112.0,56352,146.75,192
11996,5.0,,,,55.0,,,,,44,note_on,,0.0,55.0,0.0,56396,146.86458333333331,192
11997,5.0,,,,53.0,,,,,4,note_on,,112.0,53.0,112.0,56400,146.875,192
11998,5.0,,,,53.0,,,,,44,note_on,,0.0,53.0,0.0,56444,146.98958333333331,192
11999,5.0,,,,55.0,,,,,52,note_on,,112.0,55.0,112.0,56496,147.125,192
12000,5.0,,,,55.0,,,,,44,note_on,,0.0,55.0,0.0,56540,147.23958333333331,192
12001,5.0,,,,55.0,,,,,4,note_on,,112.0,55.0,112.0,56544,147.25,192
12002,5.0,,,,55.0,,,,,44,note_on,,0.0,55.0,0.0,56588,147.36458333333331,192
12003,5.0,,,,53.0,,,,,4,note_on,,112.0,53.0,112.0,56592,147.375,192
12004,5.0,,,,53.0,,,,,44,note_on,,0.0,53.0,0.0,56636,147.48958333333331,192
12005,5.0,,,,55.0,,,,,4,note_on,,112.0,55.0,112.0,56640,147.5,192
12006,5.0,,,,55.0,,,,,44,note_on,,0.0,55.0,0.0,56684,147.61458333333331,192
12007,5.0,,,,53.0,,,,,4,note_on,,112.0,53.0,112.0,56688,147.625,192
12008,5.0,,,,53.0,,,,,44,note_on,,0.0,53.0,0.0,56732,147.73958333333331,192
12009,5.0,,,,55.0,,,,,4,note_on,,112.0,55.0,112.0,56736,147.75,192
12010,5.0,,,,55.0,,,,,44,note_on,,0.0,55.0,0.0,56780,147.86458333333331,192
12011,5.0,,,,53.0,,,,,4,note_on,,112.0,53.0,112.0,56784,147.875,192
12012,5.0,,,,53.0,,,,,44,note_on,,0.0,53.0,0.0,56828,147.98958333333331,192
12013,5.0,,,,55.0,,,,,4,note_on,,112.0,55.0,112.0,56832,148.0,192
12014,5.0,,,,55.0,,,,,44,note_on,,0.0,55.0,0.0,56876,148.11458333333331,192
12015,5.0,,,,53.0,,,,,4,note_on,,112.0,53.0,112.0,56880,148.125,192
12016,5.0,,,,53.0,,,,,44,note_on,,0.0,53.0,0.0,56924,148.23958333333331,192
12017,5.0,,,,55.0,,,,,4,note_on,,112.0,55.0,112.0,56928,148.25,192
12018,5.0,,,,55.0,,,,,44,note_on,,0.0,55.0,0.0,56972,148.36458333333331,192
12019,5.0,,,,53.0,,,,,4,note_on,,112.0,53.0,112.0,56976,148.375,192
12020,5.0,,,,53.0,,,,,44,note_on,,0.0,53.0,0.0,57020,148.48958333333331,192
12021,5.0,,,,55.0,,,,,4,note_on,,112.0,55.0,112.0,57024,148.5,192
12022,5.0,,,,55.0,,,,,44,note_on,,0.0,55.0,0.0,57068,148.61458333333331,192
12023,5.0,,,,53.0,,,,,4,note_on,,112.0,53.0,112.0,57072,148.625,192
12024,5.0,,,,53.0,,,,,44,note_on,,0.0,53.0,0.0,57116,148.73958333333331,192
12025,5.0,,,,55.0,,,,,4,note_on,,112.0,55.0,112.0,57120,148.75,192
12026,5.0,,,,55.0,,,,,44,note_on,,0.0,55.0,0.0,57164,148.86458333333331,192
12027,5.0,,,,53.0,,,,,4,note_on,,112.0,53.0,112.0,57168,148.875,192
12028,5.0,,,,53.0,,,,,44,note_on,,0.0,53.0,0.0,57212,148.98958333333331,192
12029,5.0,,,,55.0,,,,,52,note_on,,112.0,55.0,112.0,57264,149.125,192
12030,5.0,,,,55.0,,,,,44,note_on,,0.0,55.0,0.0,57308,149.23958333333331,192
12031,5.0,,,,55.0,,,,,4,note_on,,112.0,55.0,112.0,57312,149.25,192
12032,5.0,,,,55.0,,,,,44,note_on,,0.0,55.0,0.0,57356,149.36458333333331,192
12033,5.0,,,,53.0,,,,,4,note_on,,112.0,53.0,112.0,57360,149.375,192
12034,5.0,,,,53.0,,,,,44,note_on,,0.0,53.0,0.0,57404,149.48958333333331,192
12035,5.0,,,,55.0,,,,,4,note_on,,112.0,55.0,112.0,57408,149.5,192
12036,5.0,,,,55.0,,,,,44,note_on,,0.0,55.0,0.0,57452,149.61458333333331,192
12037,5.0,,,,53.0,,,,,4,note_on,,112.0,53.0,112.0,57456,149.625,192
12038,5.0,,,,53.0,,,,,44,note_on,,0.0,53.0,0.0,57500,149.73958333333331,192
12039,5.0,,,,55.0,,,,,4,note_on,,112.0,55.0,112.0,57504,149.75,192
12040,5.0,,,,55.0,,,,,44,note_on,,0.0,55.0,0.0,57548,149.86458333333331,192
12041,5.0,,,,53.0,,,,,4,note_on,,112.0,53.0,112.0,57552,149.875,192
12042,5.0,,,,53.0,,,,,44,note_on,,0.0,53.0,0.0,57596,149.98958333333331,192
12043,5.0,,,,55.0,,,,,4,note_on,,112.0,55.0,112.0,57600,150.0,192
12044,5.0,,,,55.0,,,,,44,note_on,,0.0,55.0,0.0,57644,150.11458333333331,192
12045,5.0,,,,53.0,,,,,4,note_on,,112.0,53.0,112.0,57648,150.125,192
12046,5.0,,,,53.0,,,,,44,note_on,,0.0,53.0,0.0,57692,150.23958333333331,192
12047,5.0,,,,55.0,,,,,4,note_on,,112.0,55.0,112.0,57696,150.25,192
12048,5.0,,,,55.0,,,,,44,note_on,,0.0,55.0,0.0,57740,150.36458333333331,192
12049,5.0,,,,53.0,,,,,4,note_on,,112.0,53.0,112.0,57744,150.375,192
12050,5.0,,,,53.0,,,,,44,note_on,,0.0,53.0,0.0,57788,150.48958333333331,192
12051,5.0,,,,55.0,,,,,4,note_on,,112.0,55.0,112.0,57792,150.5,192
12052,5.0,,,,55.0,,,,,44,note_on,,0.0,55.0,0.0,57836,150.61458333333331,192
12053,5.0,,,,53.0,,,,,4,note_on,,112.0,53.0,112.0,57840,150.625,192
12054,5.0,,,,53.0,,,,,44,note_on,,0.0,53.0,0.0,57884,150.73958333333331,192
12055,5.0,,,,55.0,,,,,4,note_on,,112.0,55.0,112.0,57888,150.75,192
12056,5.0,,,,55.0,,,,,44,note_on,,0.0,55.0,0.0,57932,150.86458333333331,192
12057,5.0,,,,53.0,,,,,4,note_on,,112.0,53.0,112.0,57936,150.875,192
12058,5.0,,,,53.0,,,,,44,note_on,,0.0,53.0,0.0,57980,150.98958333333331,192
12059,5.0,,,,55.0,,,,,52,note_on,,112.0,55.0,112.0,58032,151.125,192
12060,5.0,,,,55.0,,,,,44,note_on,,0.0,55.0,0.0,58076,151.23958333333331,192
12061,5.0,,,,55.0,,,,,4,note_on,,112.0,55.0,112.0,58080,151.25,192
12062,5.0,,,,55.0,,,,,44,note_on,,0.0,55.0,0.0,58124,151.36458333333331,192
12063,5.0,,,,53.0,,,,,4,note_on,,112.0,53.0,112.0,58128,151.375,192
12064,5.0,,,,53.0,,,,,44,note_on,,0.0,53.0,0.0,58172,151.48958333333331,192
12065,5.0,,,,55.0,,,,,4,note_on,,112.0,55.0,112.0,58176,151.5,192
12066,5.0,,,,55.0,,,,,44,note_on,,0.0,55.0,0.0,58220,151.61458333333331,192
12067,5.0,,,,53.0,,,,,4,note_on,,112.0,53.0,112.0,58224,151.625,192
12068,5.0,,,,53.0,,,,,44,note_on,,0.0,53.0,0.0,58268,151.73958333333331,192
12069,5.0,,,,55.0,,,,,4,note_on,,112.0,55.0,112.0,58272,151.75,192
12070,5.0,,,,55.0,,,,,44,note_on,,0.0,55.0,0.0,58316,151.86458333333331,192
12071,5.0,,,,53.0,,,,,4,note_on,,112.0,53.0,112.0,58320,151.875,192
12072,5.0,,,,53.0,,,,,44,note_on,,0.0,53.0,0.0,58364,151.98958333333331,192
12073,5.0,,,,55.0,,,,,4,note_on,,112.0,55.0,112.0,58368,152.0,192
12074,5.0,,,,55.0,,,,,44,note_on,,0.0,55.0,0.0,58412,152.11458333333331,192
12075,5.0,,,,53.0,,,,,4,note_on,,112.0,53.0,112.0,58416,152.125,192
12076,5.0,,,,53.0,,,,,44,note_on,,0.0,53.0,0.0,58460,152.23958333333331,192
12077,5.0,,,,55.0,,,,,4,note_on,,112.0,55.0,112.0,58464,152.25,192
12078,5.0,,,,55.0,,,,,44,note_on,,0.0,55.0,0.0,58508,152.36458333333331,192
12079,5.0,,,,53.0,,,,,4,note_on,,112.0,53.0,112.0,58512,152.375,192
12080,5.0,,,,53.0,,,,,44,note_on,,0.0,53.0,0.0,58556,152.48958333333331,192
12081,5.0,,,,55.0,,,,,4,note_on,,112.0,55.0,112.0,58560,152.5,192
12082,5.0,,,,55.0,,,,,44,note_on,,0.0,55.0,0.0,58604,152.61458333333331,192
12083,5.0,,,,53.0,,,,,4,note_on,,112.0,53.0,112.0,58608,152.625,192
12084,5.0,,,,53.0,,,,,44,note_on,,0.0,53.0,0.0,58652,152.73958333333331,192
12085,5.0,,,,55.0,,,,,4,note_on,,112.0,55.0,112.0,58656,152.75,192
12086,5.0,,,,55.0,,,,,44,note_on,,0.0,55.0,0.0,58700,152.86458333333331,192
12087,5.0,,,,53.0,,,,,4,note_on,,112.0,53.0,112.0,58704,152.875,192
12088,5.0,,,,53.0,,,,,44,note_on,,0.0,53.0,0.0,58748,152.98958333333331,192
12089,5.0,,,,55.0,,,,,52,note_on,,112.0,55.0,112.0,58800,153.125,192
12090,5.0,,,,55.0,,,,,44,note_on,,0.0,55.0,0.0,58844,153.23958333333331,192
12091,5.0,,,,55.0,,,,,4,note_on,,112.0,55.0,112.0,58848,153.25,192
12092,5.0,,,,55.0,,,,,44,note_on,,0.0,55.0,0.0,58892,153.36458333333331,192
12093,5.0,,,,53.0,,,,,4,note_on,,112.0,53.0,112.0,58896,153.375,192
12094,5.0,,,,53.0,,,,,44,note_on,,0.0,53.0,0.0,58940,153.48958333333331,192
12095,5.0,,,,55.0,,,,,4,note_on,,112.0,55.0,112.0,58944,153.5,192
12096,5.0,,,,55.0,,,,,44,note_on,,0.0,55.0,0.0,58988,153.61458333333331,192
12097,5.0,,,,53.0,,,,,4,note_on,,112.0,53.0,112.0,58992,153.625,192
12098,5.0,,,,53.0,,,,,44,note_on,,0.0,53.0,0.0,59036,153.73958333333331,192
12099,5.0,,,,55.0,,,,,4,note_on,,112.0,55.0,112.0,59040,153.75,192
12100,5.0,,,,55.0,,,,,44,note_on,,0.0,55.0,0.0,59084,153.86458333333331,192
12101,5.0,,,,53.0,,,,,4,note_on,,112.0,53.0,112.0,59088,153.875,192
12102,5.0,,,,53.0,,,,,44,note_on,,0.0,53.0,0.0,59132,153.98958333333331,192
12103,5.0,,,,55.0,,,,,4,note_on,,112.0,55.0,112.0,59136,154.0,192
12104,5.0,,,,55.0,,,,,44,note_on,,0.0,55.0,0.0,59180,154.11458333333331,192
12105,5.0,,,,53.0,,,,,4,note_on,,112.0,53.0,112.0,59184,154.125,192
12106,5.0,,,,53.0,,,,,44,note_on,,0.0,53.0,0.0,59228,154.23958333333331,192
12107,5.0,,,,55.0,,,,,4,note_on,,112.0,55.0,112.0,59232,154.25,192
12108,5.0,,,,55.0,,,,,44,note_on,,0.0,55.0,0.0,59276,154.36458333333331,192
12109,5.0,,,,53.0,,,,,4,note_on,,112.0,53.0,112.0,59280,154.375,192
12110,5.0,,,,53.0,,,,,44,note_on,,0.0,53.0,0.0,59324,154.48958333333331,192
12111,5.0,,,,55.0,,,,,4,note_on,,112.0,55.0,112.0,59328,154.5,192
12112,5.0,,,,55.0,,,,,44,note_on,,0.0,55.0,0.0,59372,154.61458333333331,192
12113,5.0,,,,53.0,,,,,4,note_on,,112.0,53.0,112.0,59376,154.625,192
12114,5.0,,,,53.0,,,,,44,note_on,,0.0,53.0,0.0,59420,154.73958333333331,192
12115,5.0,,,,55.0,,,,,4,note_on,,112.0,55.0,112.0,59424,154.75,192
12116,5.0,,,,55.0,,,,,44,note_on,,0.0,55.0,0.0,59468,154.86458333333331,192
12117,5.0,,,,53.0,,,,,4,note_on,,112.0,53.0,112.0,59472,154.875,192
12118,5.0,,,,53.0,,,,,44,note_on,,0.0,53.0,0.0,59516,154.98958333333331,192
12119,5.0,,,,55.0,,,,,52,note_on,,112.0,55.0,112.0,59568,155.125,192
12120,5.0,,,,55.0,,,,,44,note_on,,0.0,55.0,0.0,59612,155.23958333333331,192
12121,5.0,,,,55.0,,,,,4,note_on,,112.0,55.0,112.0,59616,155.25,192
12122,5.0,,,,55.0,,,,,44,note_on,,0.0,55.0,0.0,59660,155.36458333333331,192
12123,5.0,,,,53.0,,,,,4,note_on,,112.0,53.0,112.0,59664,155.375,192
12124,5.0,,,,53.0,,,,,44,note_on,,0.0,53.0,0.0,59708,155.48958333333331,192
12125,5.0,,,,55.0,,,,,4,note_on,,112.0,55.0,112.0,59712,155.5,192
12126,5.0,,,,55.0,,,,,44,note_on,,0.0,55.0,0.0,59756,155.61458333333331,192
12127,5.0,,,,53.0,,,,,4,note_on,,112.0,53.0,112.0,59760,155.625,192
12128,5.0,,,,53.0,,,,,44,note_on,,0.0,53.0,0.0,59804,155.73958333333331,192
12129,5.0,,,,55.0,,,,,4,note_on,,112.0,55.0,112.0,59808,155.75,192
12130,5.0,,,,55.0,,,,,44,note_on,,0.0,55.0,0.0,59852,155.86458333333331,192
12131,5.0,,,,53.0,,,,,4,note_on,,112.0,53.0,112.0,59856,155.875,192
12132,5.0,,,,53.0,,,,,44,note_on,,0.0,53.0,0.0,59900,155.98958333333331,192
12133,5.0,,,,55.0,,,,,4,note_on,,112.0,55.0,112.0,59904,156.0,192
12134,5.0,,,,55.0,,,,,44,note_on,,0.0,55.0,0.0,59948,156.11458333333331,192
12135,5.0,,,,53.0,,,,,4,note_on,,112.0,53.0,112.0,59952,156.125,192
12136,5.0,,,,53.0,,,,,44,note_on,,0.0,53.0,0.0,59996,156.23958333333331,192
12137,5.0,,,,55.0,,,,,4,note_on,,112.0,55.0,112.0,60000,156.25,192
12138,5.0,,,,55.0,,,,,44,note_on,,0.0,55.0,0.0,60044,156.36458333333331,192
12139,5.0,,,,53.0,,,,,4,note_on,,112.0,53.0,112.0,60048,156.375,192
12140,5.0,,,,53.0,,,,,44,note_on,,0.0,53.0,0.0,60092,156.48958333333331,192
12141,5.0,,,,55.0,,,,,4,note_on,,112.0,55.0,112.0,60096,156.5,192
12142,5.0,,,,55.0,,,,,44,note_on,,0.0,55.0,0.0,60140,156.61458333333331,192
12143,5.0,,,,53.0,,,,,4,note_on,,112.0,53.0,112.0,60144,156.625,192
12144,5.0,,,,53.0,,,,,44,note_on,,0.0,53.0,0.0,60188,156.73958333333331,192
12145,5.0,,,,55.0,,,,,4,note_on,,112.0,55.0,112.0,60192,156.75,192
12146,5.0,,,,55.0,,,,,44,note_on,,0.0,55.0,0.0,60236,156.86458333333331,192
12147,5.0,,,,53.0,,,,,4,note_on,,112.0,53.0,112.0,60240,156.875,192
12148,5.0,,,,53.0,,,,,44,note_on,,0.0,53.0,0.0,60284,156.98958333333331,192
12149,5.0,,,,55.0,,,,,52,note_on,,112.0,55.0,112.0,60336,157.125,192
12150,5.0,,,,55.0,,,,,44,note_on,,0.0,55.0,0.0,60380,157.23958333333331,192
12151,5.0,,,,55.0,,,,,4,note_on,,112.0,55.0,112.0,60384,157.25,192
12152,5.0,,,,55.0,,,,,44,note_on,,0.0,55.0,0.0,60428,157.36458333333331,192
12153,5.0,,,,53.0,,,,,4,note_on,,112.0,53.0,112.0,60432,157.375,192
12154,5.0,,,,53.0,,,,,44,note_on,,0.0,53.0,0.0,60476,157.48958333333331,192
12155,5.0,,,,55.0,,,,,4,note_on,,112.0,55.0,112.0,60480,157.5,192
12156,5.0,,,,55.0,,,,,44,note_on,,0.0,55.0,0.0,60524,157.61458333333331,192
12157,5.0,,,,53.0,,,,,4,note_on,,112.0,53.0,112.0,60528,157.625,192
12158,5.0,,,,53.0,,,,,44,note_on,,0.0,53.0,0.0,60572,157.73958333333331,192
12159,5.0,,,,55.0,,,,,4,note_on,,112.0,55.0,112.0,60576,157.75,192
12160,5.0,,,,55.0,,,,,44,note_on,,0.0,55.0,0.0,60620,157.86458333333331,192
12161,5.0,,,,53.0,,,,,4,note_on,,112.0,53.0,112.0,60624,157.875,192
12162,5.0,,,,53.0,,,,,44,note_on,,0.0,53.0,0.0,60668,157.98958333333331,192
12163,5.0,,,,55.0,,,,,4,note_on,,112.0,55.0,112.0,60672,158.0,192
12164,5.0,,,,55.0,,,,,44,note_on,,0.0,55.0,0.0,60716,158.11458333333331,192
12165,5.0,,,,53.0,,,,,4,note_on,,112.0,53.0,112.0,60720,158.125,192
12166,5.0,,,,53.0,,,,,44,note_on,,0.0,53.0,0.0,60764,158.23958333333331,192
12167,5.0,,,,55.0,,,,,4,note_on,,112.0,55.0,112.0,60768,158.25,192
12168,5.0,,,,55.0,,,,,44,note_on,,0.0,55.0,0.0,60812,158.36458333333331,192
12169,5.0,,,,53.0,,,,,4,note_on,,112.0,53.0,112.0,60816,158.375,192
12170,5.0,,,,53.0,,,,,44,note_on,,0.0,53.0,0.0,60860,158.48958333333331,192
12171,5.0,,,,55.0,,,,,4,note_on,,112.0,55.0,112.0,60864,158.5,192
12172,5.0,,,,55.0,,,,,44,note_on,,0.0,55.0,0.0,60908,158.61458333333331,192
12173,5.0,,,,53.0,,,,,4,note_on,,112.0,53.0,112.0,60912,158.625,192
12174,5.0,,,,53.0,,,,,44,note_on,,0.0,53.0,0.0,60956,158.73958333333331,192
12175,5.0,,,,55.0,,,,,4,note_on,,112.0,55.0,112.0,60960,158.75,192
12176,5.0,,,,55.0,,,,,44,note_on,,0.0,55.0,0.0,61004,158.86458333333331,192
12177,5.0,,,,53.0,,,,,4,note_on,,112.0,53.0,112.0,61008,158.875,192
12178,5.0,,,,53.0,,,,,44,note_on,,0.0,53.0,0.0,61052,158.98958333333331,192
12179,5.0,,,,55.0,,,,,52,note_on,,112.0,55.0,112.0,61104,159.125,192
12180,5.0,,,,55.0,,,,,44,note_on,,0.0,55.0,0.0,61148,159.23958333333331,192
12181,5.0,,,,55.0,,,,,4,note_on,,112.0,55.0,112.0,61152,159.25,192
12182,5.0,,,,55.0,,,,,44,note_on,,0.0,55.0,0.0,61196,159.36458333333331,192
12183,5.0,,,,53.0,,,,,4,note_on,,112.0,53.0,112.0,61200,159.375,192
12184,5.0,,,,53.0,,,,,44,note_on,,0.0,53.0,0.0,61244,159.48958333333331,192
12185,5.0,,,,55.0,,,,,4,note_on,,112.0,55.0,112.0,61248,159.5,192
12186,5.0,,,,55.0,,,,,44,note_on,,0.0,55.0,0.0,61292,159.61458333333331,192
12187,5.0,,,,53.0,,,,,4,note_on,,112.0,53.0,112.0,61296,159.625,192
12188,5.0,,,,53.0,,,,,44,note_on,,0.0,53.0,0.0,61340,159.73958333333331,192
12189,5.0,,,,55.0,,,,,4,note_on,,112.0,55.0,112.0,61344,159.75,192
12190,5.0,,,,55.0,,,,,44,note_on,,0.0,55.0,0.0,61388,159.86458333333331,192
12191,5.0,,,,53.0,,,,,4,note_on,,112.0,53.0,112.0,61392,159.875,192
12192,5.0,,,,53.0,,,,,44,note_on,,0.0,53.0,0.0,61436,159.98958333333331,192
12193,5.0,,,,55.0,,,,,4,note_on,,112.0,55.0,112.0,61440,160.0,192
12194,5.0,,,,55.0,,,,,44,note_on,,0.0,55.0,0.0,61484,160.11458333333331,192
12195,5.0,,,,53.0,,,,,4,note_on,,112.0,53.0,112.0,61488,160.125,192
12196,5.0,,,,53.0,,,,,44,note_on,,0.0,53.0,0.0,61532,160.23958333333331,192
12197,5.0,,,,55.0,,,,,4,note_on,,112.0,55.0,112.0,61536,160.25,192
12198,5.0,,,,55.0,,,,,44,note_on,,0.0,55.0,0.0,61580,160.36458333333331,192
12199,5.0,,,,53.0,,,,,4,note_on,,112.0,53.0,112.0,61584,160.375,192
12200,5.0,,,,53.0,,,,,44,note_on,,0.0,53.0,0.0,61628,160.48958333333331,192
12201,5.0,,,,55.0,,,,,4,note_on,,112.0,55.0,112.0,61632,160.5,192
12202,5.0,,,,55.0,,,,,44,note_on,,0.0,55.0,0.0,61676,160.61458333333331,192
12203,5.0,,,,53.0,,,,,4,note_on,,112.0,53.0,112.0,61680,160.625,192
12204,5.0,,,,53.0,,,,,44,note_on,,0.0,53.0,0.0,61724,160.73958333333331,192
12205,5.0,,,,55.0,,,,,4,note_on,,112.0,55.0,112.0,61728,160.75,192
12206,5.0,,,,55.0,,,,,44,note_on,,0.0,55.0,0.0,61772,160.86458333333331,192
12207,5.0,,,,53.0,,,,,4,note_on,,112.0,53.0,112.0,61776,160.875,192
12208,5.0,,,,53.0,,,,,44,note_on,,0.0,53.0,0.0,61820,160.98958333333331,192
12209,5.0,,,,55.0,,,,,52,note_on,,112.0,55.0,112.0,61872,161.125,192
12210,5.0,,,,55.0,,,,,44,note_on,,0.0,55.0,0.0,61916,161.23958333333331,192
12211,5.0,,,,55.0,,,,,4,note_on,,112.0,55.0,112.0,61920,161.25,192
12212,5.0,,,,55.0,,,,,44,note_on,,0.0,55.0,0.0,61964,161.36458333333331,192
12213,5.0,,,,53.0,,,,,4,note_on,,112.0,53.0,112.0,61968,161.375,192
12214,5.0,,,,53.0,,,,,44,note_on,,0.0,53.0,0.0,62012,161.48958333333331,192
12215,5.0,,,,55.0,,,,,4,note_on,,112.0,55.0,112.0,62016,161.5,192
12216,5.0,,,,55.0,,,,,44,note_on,,0.0,55.0,0.0,62060,161.61458333333331,192
12217,5.0,,,,53.0,,,,,4,note_on,,112.0,53.0,112.0,62064,161.625,192
12218,5.0,,,,53.0,,,,,44,note_on,,0.0,53.0,0.0,62108,161.73958333333331,192
12219,5.0,,,,55.0,,,,,4,note_on,,112.0,55.0,112.0,62112,161.75,192
12220,5.0,,,,55.0,,,,,44,note_on,,0.0,55.0,0.0,62156,161.86458333333331,192
12221,5.0,,,,53.0,,,,,4,note_on,,112.0,53.0,112.0,62160,161.875,192
12222,5.0,,,,53.0,,,,,44,note_on,,0.0,53.0,0.0,62204,161.98958333333331,192
12223,5.0,,,,55.0,,,,,4,note_on,,112.0,55.0,112.0,62208,162.0,192
12224,5.0,,,,55.0,,,,,44,note_on,,0.0,55.0,0.0,62252,162.11458333333331,192
12225,5.0,,,,53.0,,,,,4,note_on,,112.0,53.0,112.0,62256,162.125,192
12226,5.0,,,,53.0,,,,,44,note_on,,0.0,53.0,0.0,62300,162.23958333333331,192
12227,5.0,,,,55.0,,,,,4,note_on,,112.0,55.0,112.0,62304,162.25,192
12228,5.0,,,,55.0,,,,,44,note_on,,0.0,55.0,0.0,62348,162.36458333333331,192
12229,5.0,,,,53.0,,,,,4,note_on,,112.0,53.0,112.0,62352,162.375,192
12230,5.0,,,,53.0,,,,,44,note_on,,0.0,53.0,0.0,62396,162.48958333333331,192
12231,5.0,,,,55.0,,,,,4,note_on,,112.0,55.0,112.0,62400,162.5,192
12232,5.0,,,,55.0,,,,,44,note_on,,0.0,55.0,0.0,62444,162.61458333333331,192
12233,5.0,,,,53.0,,,,,4,note_on,,112.0,53.0,112.0,62448,162.625,192
12234,5.0,,,,53.0,,,,,44,note_on,,0.0,53.0,0.0,62492,162.73958333333331,192
12235,5.0,,,,55.0,,,,,4,note_on,,112.0,55.0,112.0,62496,162.75,192
12236,5.0,,,,55.0,,,,,44,note_on,,0.0,55.0,0.0,62540,162.86458333333331,192
12237,5.0,,,,53.0,,,,,4,note_on,,112.0,53.0,112.0,62544,162.875,192
12238,5.0,,,,53.0,,,,,44,note_on,,0.0,53.0,0.0,62588,162.98958333333331,192
12239,5.0,,,,55.0,,,,,52,note_on,,112.0,55.0,112.0,62640,163.125,192
12240,5.0,,,,55.0,,,,,44,note_on,,0.0,55.0,0.0,62684,163.23958333333331,192
12241,5.0,,,,55.0,,,,,4,note_on,,112.0,55.0,112.0,62688,163.25,192
12242,5.0,,,,55.0,,,,,44,note_on,,0.0,55.0,0.0,62732,163.36458333333331,192
12243,5.0,,,,53.0,,,,,4,note_on,,112.0,53.0,112.0,62736,163.375,192
12244,5.0,,,,53.0,,,,,44,note_on,,0.0,53.0,0.0,62780,163.48958333333331,192
12245,5.0,,,,55.0,,,,,4,note_on,,112.0,55.0,112.0,62784,163.5,192
12246,5.0,,,,55.0,,,,,44,note_on,,0.0,55.0,0.0,62828,163.61458333333331,192
12247,5.0,,,,53.0,,,,,4,note_on,,112.0,53.0,112.0,62832,163.625,192
12248,5.0,,,,53.0,,,,,44,note_on,,0.0,53.0,0.0,62876,163.73958333333331,192
12249,5.0,,,,55.0,,,,,4,note_on,,112.0,55.0,112.0,62880,163.75,192
12250,5.0,,,,55.0,,,,,44,note_on,,0.0,55.0,0.0,62924,163.86458333333331,192
12251,5.0,,,,53.0,,,,,4,note_on,,112.0,53.0,112.0,62928,163.875,192
12252,5.0,,,,53.0,,,,,44,note_on,,0.0,53.0,0.0,62972,163.98958333333331,192
12253,5.0,,,,55.0,,,,,4,note_on,,112.0,55.0,112.0,62976,164.0,192
12254,5.0,,,,55.0,,,,,44,note_on,,0.0,55.0,0.0,63020,164.11458333333331,192
12255,5.0,,,,53.0,,,,,4,note_on,,112.0,53.0,112.0,63024,164.125,192
12256,5.0,,,,53.0,,,,,44,note_on,,0.0,53.0,0.0,63068,164.23958333333331,192
12257,5.0,,,,55.0,,,,,4,note_on,,112.0,55.0,112.0,63072,164.25,192
12258,5.0,,,,55.0,,,,,44,note_on,,0.0,55.0,0.0,63116,164.36458333333331,192
12259,5.0,,,,53.0,,,,,4,note_on,,112.0,53.0,112.0,63120,164.375,192
12260,5.0,,,,53.0,,,,,44,note_on,,0.0,53.0,0.0,63164,164.48958333333331,192
12261,5.0,,,,55.0,,,,,4,note_on,,112.0,55.0,112.0,63168,164.5,192
12262,5.0,,,,55.0,,,,,44,note_on,,0.0,55.0,0.0,63212,164.61458333333331,192
12263,5.0,,,,53.0,,,,,4,note_on,,112.0,53.0,112.0,63216,164.625,192
12264,5.0,,,,53.0,,,,,44,note_on,,0.0,53.0,0.0,63260,164.73958333333331,192
12265,5.0,,,,55.0,,,,,4,note_on,,112.0,55.0,112.0,63264,164.75,192
12266,5.0,,,,55.0,,,,,44,note_on,,0.0,55.0,0.0,63308,164.86458333333331,192
12267,5.0,,,,53.0,,,,,4,note_on,,112.0,53.0,112.0,63312,164.875,192
12268,5.0,,,,53.0,,,,,44,note_on,,0.0,53.0,0.0,63356,164.98958333333331,192
12269,5.0,,,,55.0,,,,,52,note_on,,112.0,55.0,112.0,63408,165.125,192
12270,5.0,,,,55.0,,,,,44,note_on,,0.0,55.0,0.0,63452,165.23958333333331,192
12271,5.0,,,,55.0,,,,,4,note_on,,112.0,55.0,112.0,63456,165.25,192
12272,5.0,,,,55.0,,,,,44,note_on,,0.0,55.0,0.0,63500,165.36458333333331,192
12273,5.0,,,,53.0,,,,,4,note_on,,112.0,53.0,112.0,63504,165.375,192
12274,5.0,,,,53.0,,,,,44,note_on,,0.0,53.0,0.0,63548,165.48958333333331,192
12275,5.0,,,,55.0,,,,,4,note_on,,112.0,55.0,112.0,63552,165.5,192
12276,5.0,,,,55.0,,,,,44,note_on,,0.0,55.0,0.0,63596,165.61458333333331,192
12277,5.0,,,,53.0,,,,,4,note_on,,112.0,53.0,112.0,63600,165.625,192
12278,5.0,,,,53.0,,,,,44,note_on,,0.0,53.0,0.0,63644,165.73958333333331,192
12279,5.0,,,,55.0,,,,,4,note_on,,112.0,55.0,112.0,63648,165.75,192
12280,5.0,,,,55.0,,,,,44,note_on,,0.0,55.0,0.0,63692,165.86458333333331,192
12281,5.0,,,,53.0,,,,,4,note_on,,112.0,53.0,112.0,63696,165.875,192
12282,5.0,,,,53.0,,,,,44,note_on,,0.0,53.0,0.0,63740,165.98958333333331,192
12283,5.0,,,,55.0,,,,,4,note_on,,112.0,55.0,112.0,63744,166.0,192
12284,5.0,,,,55.0,,,,,44,note_on,,0.0,55.0,0.0,63788,166.11458333333331,192
12285,5.0,,,,53.0,,,,,4,note_on,,112.0,53.0,112.0,63792,166.125,192
12286,5.0,,,,53.0,,,,,44,note_on,,0.0,53.0,0.0,63836,166.23958333333331,192
12287,5.0,,,,55.0,,,,,4,note_on,,112.0,55.0,112.0,63840,166.25,192
12288,5.0,,,,55.0,,,,,44,note_on,,0.0,55.0,0.0,63884,166.36458333333331,192
12289,5.0,,,,53.0,,,,,4,note_on,,112.0,53.0,112.0,63888,166.375,192
12290,5.0,,,,53.0,,,,,44,note_on,,0.0,53.0,0.0,63932,166.48958333333331,192
12291,5.0,,,,55.0,,,,,4,note_on,,112.0,55.0,112.0,63936,166.5,192
12292,5.0,,,,55.0,,,,,44,note_on,,0.0,55.0,0.0,63980,166.61458333333331,192
12293,5.0,,,,53.0,,,,,4,note_on,,112.0,53.0,112.0,63984,166.625,192
12294,5.0,,,,53.0,,,,,44,note_on,,0.0,53.0,0.0,64028,166.73958333333331,192
12295,5.0,,,,55.0,,,,,4,note_on,,112.0,55.0,112.0,64032,166.75,192
12296,5.0,,,,55.0,,,,,44,note_on,,0.0,55.0,0.0,64076,166.86458333333331,192
12297,5.0,,,,53.0,,,,,4,note_on,,112.0,53.0,112.0,64080,166.875,192
12298,5.0,,,,53.0,,,,,44,note_on,,0.0,53.0,0.0,64124,166.98958333333331,192
12299,5.0,,,,55.0,,,,,52,note_on,,112.0,55.0,112.0,64176,167.125,192
12300,5.0,,,,55.0,,,,,44,note_on,,0.0,55.0,0.0,64220,167.23958333333331,192
12301,5.0,,,,55.0,,,,,4,note_on,,112.0,55.0,112.0,64224,167.25,192
12302,5.0,,,,55.0,,,,,44,note_on,,0.0,55.0,0.0,64268,167.36458333333331,192
12303,5.0,,,,53.0,,,,,4,note_on,,112.0,53.0,112.0,64272,167.375,192
12304,5.0,,,,53.0,,,,,44,note_on,,0.0,53.0,0.0,64316,167.48958333333331,192
12305,5.0,,,,55.0,,,,,4,note_on,,112.0,55.0,112.0,64320,167.5,192
12306,5.0,,,,55.0,,,,,44,note_on,,0.0,55.0,0.0,64364,167.61458333333331,192
12307,5.0,,,,53.0,,,,,4,note_on,,112.0,53.0,112.0,64368,167.625,192
12308,5.0,,,,53.0,,,,,44,note_on,,0.0,53.0,0.0,64412,167.73958333333331,192
12309,5.0,,,,55.0,,,,,4,note_on,,112.0,55.0,112.0,64416,167.75,192
12310,5.0,,,,55.0,,,,,44,note_on,,0.0,55.0,0.0,64460,167.86458333333331,192
12311,5.0,,,,53.0,,,,,4,note_on,,112.0,53.0,112.0,64464,167.875,192
12312,5.0,,,,53.0,,,,,44,note_on,,0.0,53.0,0.0,64508,167.98958333333331,192
12313,5.0,,,,55.0,,,,,4,note_on,,112.0,55.0,112.0,64512,168.0,192
12314,5.0,,,,55.0,,,,,44,note_on,,0.0,55.0,0.0,64556,168.11458333333331,192
12315,5.0,,,,53.0,,,,,4,note_on,,112.0,53.0,112.0,64560,168.125,192
12316,5.0,,,,53.0,,,,,44,note_on,,0.0,53.0,0.0,64604,168.23958333333331,192
12317,5.0,,,,55.0,,,,,4,note_on,,112.0,55.0,112.0,64608,168.25,192
12318,5.0,,,,55.0,,,,,44,note_on,,0.0,55.0,0.0,64652,168.36458333333331,192
12319,5.0,,,,53.0,,,,,4,note_on,,112.0,53.0,112.0,64656,168.375,192
12320,5.0,,,,53.0,,,,,44,note_on,,0.0,53.0,0.0,64700,168.48958333333331,192
12321,5.0,,,,55.0,,,,,4,note_on,,112.0,55.0,112.0,64704,168.5,192
12322,5.0,,,,55.0,,,,,44,note_on,,0.0,55.0,0.0,64748,168.61458333333331,192
12323,5.0,,,,53.0,,,,,4,note_on,,112.0,53.0,112.0,64752,168.625,192
12324,5.0,,,,53.0,,,,,44,note_on,,0.0,53.0,0.0,64796,168.73958333333331,192
12325,5.0,,,,55.0,,,,,4,note_on,,112.0,55.0,112.0,64800,168.75,192
12326,5.0,,,,55.0,,,,,44,note_on,,0.0,55.0,0.0,64844,168.86458333333331,192
12327,5.0,,,,53.0,,,,,4,note_on,,112.0,53.0,112.0,64848,168.875,192
12328,5.0,,,,53.0,,,,,44,note_on,,0.0,53.0,0.0,64892,168.98958333333331,192
12329,5.0,,,,55.0,,,,,52,note_on,,112.0,55.0,112.0,64944,169.125,192
12330,5.0,,,,55.0,,,,,44,note_on,,0.0,55.0,0.0,64988,169.23958333333331,192
12331,5.0,,,,55.0,,,,,4,note_on,,112.0,55.0,112.0,64992,169.25,192
12332,5.0,,,,55.0,,,,,44,note_on,,0.0,55.0,0.0,65036,169.36458333333331,192
12333,5.0,,,,53.0,,,,,4,note_on,,112.0,53.0,112.0,65040,169.375,192
12334,5.0,,,,53.0,,,,,44,note_on,,0.0,53.0,0.0,65084,169.48958333333331,192
12335,5.0,,,,55.0,,,,,4,note_on,,112.0,55.0,112.0,65088,169.5,192
12336,5.0,,,,55.0,,,,,44,note_on,,0.0,55.0,0.0,65132,169.61458333333331,192
12337,5.0,,,,53.0,,,,,4,note_on,,112.0,53.0,112.0,65136,169.625,192
12338,5.0,,,,53.0,,,,,44,note_on,,0.0,53.0,0.0,65180,169.73958333333331,192
12339,5.0,,,,55.0,,,,,4,note_on,,112.0,55.0,112.0,65184,169.75,192
12340,5.0,,,,55.0,,,,,44,note_on,,0.0,55.0,0.0,65228,169.86458333333331,192
12341,5.0,,,,53.0,,,,,4,note_on,,112.0,53.0,112.0,65232,169.875,192
12342,5.0,,,,53.0,,,,,44,note_on,,0.0,53.0,0.0,65276,169.98958333333331,192
12343,5.0,,,,55.0,,,,,4,note_on,,112.0,55.0,112.0,65280,170.0,192
12344,5.0,,,,55.0,,,,,44,note_on,,0.0,55.0,0.0,65324,170.11458333333331,192
12345,5.0,,,,53.0,,,,,4,note_on,,108.0,53.0,108.0,65328,170.125,192
12346,5.0,,,,53.0,,,,,44,note_on,,0.0,53.0,0.0,65372,170.23958333333331,192
12347,5.0,,,,55.0,,,,,4,note_on,,106.0,55.0,106.0,65376,170.25,192
12348,5.0,,,,55.0,,,,,44,note_on,,0.0,55.0,0.0,65420,170.36458333333331,192
12349,5.0,,,,53.0,,,,,4,note_on,,103.0,53.0,103.0,65424,170.375,192
12350,5.0,,,,53.0,,,,,44,note_on,,0.0,53.0,0.0,65468,170.48958333333331,192
12351,5.0,,,,55.0,,,,,4,note_on,,101.0,55.0,101.0,65472,170.5,192
12352,5.0,,,,55.0,,,,,44,note_on,,0.0,55.0,0.0,65516,170.61458333333331,192
12353,5.0,,,,53.0,,,,,4,note_on,,100.0,53.0,100.0,65520,170.625,192
12354,5.0,,,,53.0,,,,,44,note_on,,0.0,53.0,0.0,65564,170.73958333333331,192
12355,5.0,,,,55.0,,,,,4,note_on,,99.0,55.0,99.0,65568,170.75,192
12356,5.0,,,,55.0,,,,,44,note_on,,0.0,55.0,0.0,65612,170.86458333333331,192
12357,5.0,,,,53.0,,,,,4,note_on,,97.0,53.0,97.0,65616,170.875,192
12358,5.0,,,,53.0,,,,,44,note_on,,0.0,53.0,0.0,65660,170.98958333333331,192
12359,5.0,,,,55.0,,,,,52,note_on,,93.0,55.0,93.0,65712,171.125,192
12360,5.0,,,,55.0,,,,,44,note_on,,0.0,55.0,0.0,65756,171.23958333333331,192
12361,5.0,,,,55.0,,,,,4,note_on,,92.0,55.0,92.0,65760,171.25,192
12362,5.0,,,,55.0,,,,,44,note_on,,0.0,55.0,0.0,65804,171.36458333333331,192
12363,5.0,,,,53.0,,,,,4,note_on,,91.0,53.0,91.0,65808,171.375,192
12364,5.0,,,,53.0,,,,,44,note_on,,0.0,53.0,0.0,65852,171.48958333333331,192
12365,5.0,,,,55.0,,,,,4,note_on,,88.0,55.0,88.0,65856,171.5,192
12366,5.0,,,,55.0,,,,,44,note_on,,0.0,55.0,0.0,65900,171.61458333333331,192
12367,5.0,,,,53.0,,,,,4,note_on,,86.0,53.0,86.0,65904,171.625,192
12368,5.0,,,,53.0,,,,,44,note_on,,0.0,53.0,0.0,65948,171.73958333333331,192
12369,5.0,,,,55.0,,,,,4,note_on,,84.0,55.0,84.0,65952,171.75,192
12370,5.0,,,,55.0,,,,,44,note_on,,0.0,55.0,0.0,65996,171.86458333333331,192
12371,5.0,,,,53.0,,,,,4,note_on,,83.0,53.0,83.0,66000,171.875,192
12372,5.0,,,,53.0,,,,,44,note_on,,0.0,53.0,0.0,66044,171.98958333333331,192
12373,5.0,,,,55.0,,,,,4,note_on,,79.0,55.0,79.0,66048,172.0,192
12374,5.0,,,,55.0,,,,,44,note_on,,0.0,55.0,0.0,66092,172.11458333333331,192
12375,5.0,,,,53.0,,,,,4,note_on,,77.0,53.0,77.0,66096,172.125,192
12376,5.0,,,,53.0,,,,,44,note_on,,0.0,53.0,0.0,66140,172.23958333333331,192
12377,5.0,,,,55.0,,,,,4,note_on,,75.0,55.0,75.0,66144,172.25,192
12378,5.0,,,,55.0,,,,,44,note_on,,0.0,55.0,0.0,66188,172.36458333333331,192
12379,5.0,,,,53.0,,,,,4,note_on,,73.0,53.0,73.0,66192,172.375,192
12380,5.0,,,,53.0,,,,,44,note_on,,0.0,53.0,0.0,66236,172.48958333333331,192
12381,5.0,,,,55.0,,,,,4,note_on,,70.0,55.0,70.0,66240,172.5,192
12382,5.0,,,,55.0,,,,,44,note_on,,0.0,55.0,0.0,66284,172.61458333333331,192
12383,5.0,,,,53.0,,,,,4,note_on,,67.0,53.0,67.0,66288,172.625,192
12384,5.0,,,,53.0,,,,,44,note_on,,0.0,53.0,0.0,66332,172.73958333333331,192
12385,5.0,,,,55.0,,,,,4,note_on,,65.0,55.0,65.0,66336,172.75,192
12386,5.0,,,,55.0,,,,,44,note_on,,0.0,55.0,0.0,66380,172.86458333333331,192
12387,5.0,,,,53.0,,,,,4,note_on,,63.0,53.0,63.0,66384,172.875,192
12388,5.0,,,,53.0,,,,,44,note_on,,0.0,53.0,0.0,66428,172.98958333333331,192
12389,5.0,,,,55.0,,,,,52,note_on,,59.0,55.0,59.0,66480,173.125,192
12390,5.0,,,,55.0,,,,,44,note_on,,0.0,55.0,0.0,66524,173.23958333333331,192
12391,5.0,,,,55.0,,,,,4,note_on,,58.0,55.0,58.0,66528,173.25,192
12392,5.0,,,,55.0,,,,,44,note_on,,0.0,55.0,0.0,66572,173.36458333333331,192
12393,5.0,,,,53.0,,,,,4,note_on,,56.0,53.0,56.0,66576,173.375,192
12394,5.0,,,,53.0,,,,,44,note_on,,0.0,53.0,0.0,66620,173.48958333333331,192
12395,5.0,,,,55.0,,,,,4,note_on,,54.0,55.0,54.0,66624,173.5,192
12396,5.0,,,,55.0,,,,,44,note_on,,0.0,55.0,0.0,66668,173.61458333333331,192
12397,5.0,,,,53.0,,,,,4,note_on,,52.0,53.0,52.0,66672,173.625,192
12398,5.0,,,,53.0,,,,,44,note_on,,0.0,53.0,0.0,66716,173.73958333333331,192
12399,5.0,,,,55.0,,,,,4,note_on,,50.0,55.0,50.0,66720,173.75,192
12400,5.0,,,,55.0,,,,,44,note_on,,0.0,55.0,0.0,66764,173.86458333333331,192
12401,5.0,,,,53.0,,,,,4,note_on,,49.0,53.0,49.0,66768,173.875,192
12402,5.0,,,,53.0,,,,,44,note_on,,0.0,53.0,0.0,66812,173.98958333333331,192
12403,5.0,,,,55.0,,,,,4,note_on,,47.0,55.0,47.0,66816,174.0,192
12404,5.0,,,,55.0,,,,,44,note_on,,0.0,55.0,0.0,66860,174.11458333333331,192
12405,5.0,,,,53.0,,,,,4,note_on,,46.0,53.0,46.0,66864,174.125,192
12406,5.0,,,,53.0,,,,,44,note_on,,0.0,53.0,0.0,66908,174.23958333333331,192
12407,5.0,,,,55.0,,,,,4,note_on,,45.0,55.0,45.0,66912,174.25,192
12408,5.0,,,,55.0,,,,,44,note_on,,0.0,55.0,0.0,66956,174.36458333333331,192
12409,5.0,,,,53.0,,,,,4,note_on,,43.0,53.0,43.0,66960,174.375,192
12410,5.0,,,,53.0,,,,,44,note_on,,0.0,53.0,0.0,67004,174.48958333333331,192
12411,5.0,,,,55.0,,,,,4,note_on,,43.0,55.0,43.0,67008,174.5,192
12412,5.0,,,,55.0,,,,,44,note_on,,0.0,55.0,0.0,67052,174.61458333333331,192
12413,5.0,,,,53.0,,,,,4,note_on,,41.0,53.0,41.0,67056,174.625,192
12414,5.0,,,,53.0,,,,,44,note_on,,0.0,53.0,0.0,67100,174.73958333333331,192
12415,5.0,,,,55.0,,,,,4,note_on,,40.0,55.0,40.0,67104,174.75,192
12416,5.0,,,,55.0,,,,,44,note_on,,0.0,55.0,0.0,67148,174.86458333333331,192
12417,5.0,,,,53.0,,,,,4,note_on,,40.0,53.0,40.0,67152,174.875,192
12418,5.0,,,,53.0,,,,,44,note_on,,0.0,53.0,0.0,67196,174.98958333333331,192
12419,5.0,,,,55.0,,,,,52,note_on,,37.0,55.0,37.0,67248,175.125,192
12420,5.0,,,,55.0,,,,,44,note_on,,0.0,55.0,0.0,67292,175.23958333333331,192
12421,5.0,,,,55.0,,,,,4,note_on,,36.0,55.0,36.0,67296,175.25,192
12422,5.0,,,,55.0,,,,,44,note_on,,0.0,55.0,0.0,67340,175.36458333333331,192
12423,5.0,,,,53.0,,,,,4,note_on,,33.0,53.0,33.0,67344,175.375,192
12424,5.0,,,,53.0,,,,,44,note_on,,0.0,53.0,0.0,67388,175.48958333333331,192
12425,5.0,,,,55.0,,,,,4,note_on,,31.0,55.0,31.0,67392,175.5,192
12426,5.0,,,,55.0,,,,,44,note_on,,0.0,55.0,0.0,67436,175.61458333333331,192
12427,5.0,,,,53.0,,,,,4,note_on,,29.0,53.0,29.0,67440,175.625,192
12428,5.0,,,,53.0,,,,,44,note_on,,0.0,53.0,0.0,67484,175.73958333333331,192
12429,5.0,,,,55.0,,,,,4,note_on,,27.0,55.0,27.0,67488,175.75,192
12430,5.0,,,,55.0,,,,,44,note_on,,0.0,55.0,0.0,67532,175.86458333333331,192
12431,5.0,,,,53.0,,,,,4,note_on,,25.0,53.0,25.0,67536,175.875,192
12432,5.0,,,,53.0,,,,,44,note_on,,0.0,53.0,0.0,67580,175.98958333333331,192
12433,5.0,,,,55.0,,,,,4,note_on,,24.0,55.0,24.0,67584,176.0,192
12434,5.0,,,,55.0,,,,,44,note_on,,0.0,55.0,0.0,67628,176.11458333333331,192
12435,5.0,,,,53.0,,,,,4,note_on,,22.0,53.0,22.0,67632,176.125,192
12436,5.0,,,,53.0,,,,,44,note_on,,0.0,53.0,0.0,67676,176.23958333333331,192
12437,5.0,,,,55.0,,,,,4,note_on,,21.0,55.0,21.0,67680,176.25,192
12438,5.0,,,,55.0,,,,,44,note_on,,0.0,55.0,0.0,67724,176.36458333333331,192
12439,5.0,,,,53.0,,,,,4,note_on,,20.0,53.0,20.0,67728,176.375,192
12440,5.0,,,,53.0,,,,,44,note_on,,0.0,53.0,0.0,67772,176.48958333333331,192
12441,5.0,,,,55.0,,,,,4,note_on,,18.0,55.0,18.0,67776,176.5,192
12442,5.0,,,,55.0,,,,,44,note_on,,0.0,55.0,0.0,67820,176.61458333333331,192
12443,5.0,,,,53.0,,,,,4,note_on,,17.0,53.0,17.0,67824,176.625,192
12444,5.0,,,,53.0,,,,,44,note_on,,0.0,53.0,0.0,67868,176.73958333333331,192
12445,5.0,,,,55.0,,,,,4,note_on,,15.0,55.0,15.0,67872,176.75,192
12446,5.0,,,,55.0,,,,,44,note_on,,0.0,55.0,0.0,67916,176.86458333333331,192
12447,5.0,,,,53.0,,,,,4,note_on,,13.0,53.0,13.0,67920,176.875,192
12448,5.0,,,,53.0,,,,,44,note_on,,0.0,53.0,0.0,67964,176.98958333333331,192
12449,5.0,,,,55.0,,,,,52,note_on,,11.0,55.0,11.0,68016,177.125,192
12450,5.0,,,,55.0,,,,,44,note_on,,0.0,55.0,0.0,68060,177.23958333333331,192
12451,5.0,,,,55.0,,,,,4,note_on,,10.0,55.0,10.0,68064,177.25,192
12452,5.0,,,,55.0,,,,,44,note_on,,0.0,55.0,0.0,68108,177.36458333333331,192
12453,5.0,,,,53.0,,,,,4,note_on,,9.0,53.0,9.0,68112,177.375,192
12454,5.0,,,,53.0,,,,,44,note_on,,0.0,53.0,0.0,68156,177.48958333333331,192
12455,5.0,,,,55.0,,,,,4,note_on,,7.0,55.0,7.0,68160,177.5,192
12456,5.0,,,,55.0,,,,,44,note_on,,0.0,55.0,0.0,68204,177.61458333333331,192
12457,5.0,,,,53.0,,,,,4,note_on,,5.0,53.0,5.0,68208,177.625,192
12458,5.0,,,,53.0,,,,,44,note_on,,0.0,53.0,0.0,68252,177.73958333333331,192
12459,5.0,,,,55.0,,,,,4,note_on,,4.0,55.0,4.0,68256,177.75,192
12460,5.0,,,,55.0,,,,,44,note_on,,0.0,55.0,0.0,68300,177.86458333333331,192
12461,5.0,,,,53.0,,,,,4,note_on,,2.0,53.0,2.0,68304,177.875,192
12462,5.0,,,,53.0,,,,,44,note_on,,0.0,53.0,0.0,68348,177.98958333333331,192
12463,,,,,,,,,,0,end_of_track,,,,,0,0.0,192
12464,11.0,0.0,,,,,,,,0,control_change,0.0,,,,0,0.0,192
12465,11.0,,,,,,119.0,,,0,program_change,,,,,0,0.0,192
12466,,,"(74, 65, 90, 50, 1, 0, 0, 0, 0, 0, 0, 0, 0, 0, 0, 0, 0, 0, 0, 0)",,,,,,,0,sequencer_specific,,,,,0,0.0,192
12467,11.0,7.0,,,,,,,,0,control_change,99.0,,,,0,0.0,192
12468,11.0,10.0,,,,,,,,0,control_change,64.0,,,,0,0.0,192
12469,11.0,91.0,,,,,,,,0,control_change,40.0,,,,0,0.0,192
12470,11.0,93.0,,,,,,,,0,control_change,0.0,,,,0,0.0,192
12471,,,,Reverse Cymbal,,,,,,0,track_name,,,,,0,0.0,192
12472,11.0,,,,,270.0,,,,49536,pitchwheel,,,,,49536,129.0,192
12473,11.0,,,,67.0,,,,,0,note_on,,112.0,67.0,112.0,49536,129.0,192
12474,11.0,,,,,810.0,,,,8,pitchwheel,,,,,49544,129.02083333333331,192
12475,11.0,,,,,900.0,,,,8,pitchwheel,,,,,49552,129.04166666666666,192
12476,11.0,,,,,1080.0,,,,8,pitchwheel,,,,,49560,129.0625,192
12477,11.0,,,,,1260.0,,,,8,pitchwheel,,,,,49568,129.08333333333331,192
12478,11.0,,,,68.0,,,,,0,note_on,,112.0,68.0,112.0,49568,129.08333333333331,192
12479,11.0,,,,,1530.0,,,,8,pitchwheel,,,,,49576,129.10416666666666,192
12480,11.0,,,,,1890.0,,,,8,pitchwheel,,,,,49584,129.125,192
12481,11.0,,,,,2070.0,,,,8,pitchwheel,,,,,49592,129.14583333333331,192
12482,11.0,,,,,2520.0,,,,8,pitchwheel,,,,,49600,129.16666666666666,192
12483,11.0,,,,69.0,,,,,0,note_on,,112.0,69.0,112.0,49600,129.16666666666666,192
12484,11.0,,,,,2790.0,,,,8,pitchwheel,,,,,49608,129.1875,192
12485,11.0,,,,,3060.0,,,,8,pitchwheel,,,,,49616,129.20833333333331,192
12486,11.0,,,,,3240.0,,,,8,pitchwheel,,,,,49624,129.22916666666666,192
12487,11.0,,,,70.0,,,,,8,note_on,,112.0,70.0,112.0,49632,129.25,192
12488,11.0,,,,,3420.0,,,,0,pitchwheel,,,,,49632,129.25,192
12489,11.0,,,,,3510.0,,,,8,pitchwheel,,,,,49640,129.27083333333331,192
12490,11.0,,,,,3690.0,,,,8,pitchwheel,,,,,49648,129.29166666666666,192
12491,11.0,,,,,3870.0,,,,8,pitchwheel,,,,,49656,129.3125,192
12492,11.0,,,,71.0,,,,,8,note_on,,112.0,71.0,112.0,49664,129.33333333333331,192
12493,11.0,,,,,4050.0,,,,8,pitchwheel,,,,,49672,129.35416666666666,192
12494,11.0,,,,,4231.0,,,,8,pitchwheel,,,,,49680,129.375,192
12495,11.0,,,,,4411.0,,,,8,pitchwheel,,,,,49688,129.39583333333331,192
12496,11.0,,,,72.0,,,,,8,note_on,,112.0,72.0,112.0,49696,129.41666666666666,192
12497,11.0,,,,,4501.0,,,,0,pitchwheel,,,,,49696,129.41666666666666,192
12498,11.0,,,,,4591.0,,,,8,pitchwheel,,,,,49704,129.4375,192
12499,11.0,,,,,4771.0,,,,8,pitchwheel,,,,,49712,129.45833333333331,192
12500,11.0,,,,,5041.0,,,,8,pitchwheel,,,,,49720,129.47916666666666,192
12501,11.0,,,,73.0,,,,,8,note_on,,112.0,73.0,112.0,49728,129.5,192
12502,11.0,,,,,5221.0,,,,0,pitchwheel,,,,,49728,129.5,192
12503,11.0,,,,,5401.0,,,,8,pitchwheel,,,,,49736,129.52083333333331,192
12504,11.0,,,,,5581.0,,,,8,pitchwheel,,,,,49744,129.54166666666666,192
12505,11.0,,,,,5761.0,,,,8,pitchwheel,,,,,49752,129.5625,192
12506,11.0,,,,74.0,,,,,8,note_on,,112.0,74.0,112.0,49760,129.58333333333331,192
12507,11.0,,,,,5941.0,,,,0,pitchwheel,,,,,49760,129.58333333333331,192
12508,11.0,,,,,6121.0,,,,16,pitchwheel,,,,,49776,129.625,192
12509,11.0,,,,,6211.0,,,,8,pitchwheel,,,,,49784,129.64583333333331,192
12510,11.0,,,,,6391.0,,,,8,pitchwheel,,,,,49792,129.66666666666666,192
12511,11.0,,,,75.0,,,,,0,note_on,,112.0,75.0,112.0,49792,129.66666666666666,192
12512,11.0,,,,,6571.0,,,,8,pitchwheel,,,,,49800,129.6875,192
12513,11.0,,,,,6751.0,,,,8,pitchwheel,,,,,49808,129.70833333333331,192
12514,11.0,,,,,6841.0,,,,8,pitchwheel,,,,,49816,129.72916666666666,192
12515,11.0,,,,76.0,,,,,8,note_on,,112.0,76.0,112.0,49824,129.75,192
12516,11.0,,,,,7021.0,,,,0,pitchwheel,,,,,49824,129.75,192
12517,11.0,,,,,7111.0,,,,8,pitchwheel,,,,,49832,129.77083333333331,192
12518,11.0,,,,,7381.0,,,,8,pitchwheel,,,,,49840,129.79166666666666,192
12519,11.0,,,,,7471.0,,,,8,pitchwheel,,,,,49848,129.8125,192
12520,11.0,,,,,7651.0,,,,8,pitchwheel,,,,,49856,129.83333333333331,192
12521,11.0,,,,77.0,,,,,0,note_on,,112.0,77.0,112.0,49856,129.83333333333331,192
12522,11.0,,,,,7741.0,,,,8,pitchwheel,,,,,49864,129.85416666666666,192
12523,11.0,,,,,7921.0,,,,8,pitchwheel,,,,,49872,129.875,192
12524,11.0,,,,,8011.0,,,,8,pitchwheel,,,,,49880,129.89583333333331,192
12525,11.0,,,,,8101.0,,,,8,pitchwheel,,,,,49888,129.91666666666666,192
12526,11.0,,,,78.0,,,,,0,note_on,,112.0,78.0,112.0,49888,129.91666666666666,192
12527,11.0,,,,78.0,,,,,28,note_on,,0.0,78.0,0.0,49916,129.98958333333331,192
12528,11.0,,,,67.0,,,,,0,note_on,,0.0,67.0,0.0,49916,129.98958333333331,192
12529,11.0,,,,68.0,,,,,0,note_on,,0.0,68.0,0.0,49916,129.98958333333331,192
12530,11.0,,,,69.0,,,,,0,note_on,,0.0,69.0,0.0,49916,129.98958333333331,192
12531,11.0,,,,71.0,,,,,0,note_on,,0.0,71.0,0.0,49916,129.98958333333331,192
12532,11.0,,,,72.0,,,,,0,note_on,,0.0,72.0,0.0,49916,129.98958333333331,192
12533,11.0,,,,75.0,,,,,0,note_on,,0.0,75.0,0.0,49916,129.98958333333331,192
12534,11.0,,,,74.0,,,,,0,note_on,,0.0,74.0,0.0,49916,129.98958333333331,192
12535,11.0,,,,76.0,,,,,0,note_on,,0.0,76.0,0.0,49916,129.98958333333331,192
12536,11.0,,,,73.0,,,,,4,note_on,,0.0,73.0,0.0,49920,130.0,192
12537,11.0,,,,77.0,,,,,0,note_on,,0.0,77.0,0.0,49920,130.0,192
12538,11.0,,,,,0.0,,,,0,pitchwheel,,,,,49920,130.0,192
12539,11.0,,,,70.0,,,,,0,note_on,,0.0,70.0,0.0,49920,130.0,192
12540,,,,,,,,,,0,end_of_track,,,,,0,0.0,192
12541,,,"(74, 65, 90, 50, 1, 0, 0, 0, 0, 0, 0, 0, 0, 0, 0, 0, 0, 0, 0, 0)",,,,,,,0,sequencer_specific,,,,,0,0.0,192
12542,,,,,,,,,,0,end_of_track,,,,,0,0.0,192
12543,0.0,0.0,,,,,,,,0,control_change,0.0,,,,68300,177.86458333333331,192
12544,,,"(74, 65, 90, 50, 1, 0, 0, 0, 0, 0, 0, 0, 0, 0, 0, 0, 0, 0, 0, 0)",,,,,,,0,sequencer_specific,,,,,0,0.0,192
12545,,,,Sequenced by:,,,,,,0,track_name,,,,,0,0.0,192
12546,,,,,,,,,,0,end_of_track,,,,,0,0.0,192
12547,0.0,0.0,,,,,,,,0,control_change,0.0,,,,68300,177.86458333333331,192
12548,,,"(74, 65, 90, 50, 1, 0, 0, 0, 0, 0, 0, 0, 0, 0, 0, 0, 0, 0, 0, 0)",,,,,,,0,sequencer_specific,,,,,0,0.0,192
12549,,,,David Butterfield,,,,,,0,track_name,,,,,0,0.0,192
12550,,,,,,,,,,0,end_of_track,,,,,0,0.0,192
12551,0.0,0.0,,,,,,,,0,control_change,0.0,,,,68300,177.86458333333331,192
12552,,,"(74, 65, 90, 50, 1, 0, 0, 0, 0, 0, 0, 0, 0, 0, 0, 0, 0, 0, 0, 0)",,,,,,,0,sequencer_specific,,,,,0,0.0,192
12553,,,,Oct 27th 2001,,,,,,0,track_name,,,,,0,0.0,192
12554,,,,,,,,,,0,end_of_track,,,,,0,0.0,192
12555,0.0,0.0,,,,,,,,0,control_change,0.0,,,,68300,177.86458333333331,192
12556,,,"(74, 65, 90, 50, 1, 0, 0, 0, 0, 0, 0, 0, 0, 0, 0, 0, 0, 0, 0, 0)",,,,,,,0,sequencer_specific,,,,,0,0.0,192
12557,,,,Email me at:,,,,,,0,track_name,,,,,0,0.0,192
12558,,,,,,,,,,0,end_of_track,,,,,0,0.0,192
12559,0.0,0.0,,,,,,,,0,control_change,0.0,,,,68300,177.86458333333331,192
12560,,,"(74, 65, 90, 50, 1, 0, 0, 0, 0, 0, 0, 0, 0, 0, 0, 0, 0, 0, 0, 0)",,,,,,,0,sequencer_specific,,,,,0,0.0,192
12561,,,,chopcloud@hotmail.com,,,,,,0,track_name,,,,,0,0.0,192
12562,,,,,,,,,,0,end_of_track,,,,,0,0.0,192
12563,,,"(74, 65, 90, 50, 1, 0, 0, 0, 0, 0, 0, 0, 0, 0, 0, 0, 0, 0, 0, 0)",,,,,,,0,sequencer_specific,,,,,0,0.0,192
12564,,,,,,,,,,0,end_of_track,,,,,0,0.0,192
12565,0.0,0.0,,,,,,,,0,control_change,0.0,,,,68300,177.86458333333331,192
12566,,,"(74, 65, 90, 50, 1, 0, 0, 0, 0, 0, 0, 0, 0, 0, 0, 0, 0, 0, 0, 0)",,,,,,,0,sequencer_specific,,,,,0,0.0,192
12567,,,,I did this using ,,,,,,0,track_name,,,,,0,0.0,192
12568,,,,,,,,,,0,end_of_track,,,,,0,0.0,192
12569,0.0,0.0,,,,,,,,0,control_change,0.0,,,,68300,177.86458333333331,192
12570,,,"(74, 65, 90, 50, 1, 0, 0, 0, 0, 0, 0, 0, 0, 0, 0, 0, 0, 0, 0, 0)",,,,,,,0,sequencer_specific,,,,,0,0.0,192
12571,,,,a SBLive! sound,,,,,,0,track_name,,,,,0,0.0,192
12572,,,,,,,,,,0,end_of_track,,,,,0,0.0,192
12573,0.0,0.0,,,,,,,,0,control_change,0.0,,,,68300,177.86458333333331,192
12574,,,"(74, 65, 90, 50, 1, 0, 0, 0, 0, 0, 0, 0, 0, 0, 0, 0, 0, 0, 0, 0)",,,,,,,0,sequencer_specific,,,,,0,0.0,192
12575,,,,"card, so it will",,,,,,0,track_name,,,,,0,0.0,192
12576,,,,,,,,,,0,end_of_track,,,,,0,0.0,192
12577,0.0,0.0,,,,,,,,0,control_change,0.0,,,,68300,177.86458333333331,192
12578,,,"(74, 65, 90, 50, 1, 0, 0, 0, 0, 0, 0, 0, 0, 0, 0, 0, 0, 0, 0, 0)",,,,,,,0,sequencer_specific,,,,,0,0.0,192
12579,,,,sound best with,,,,,,0,track_name,,,,,0,0.0,192
12580,,,,,,,,,,0,end_of_track,,,,,0,0.0,192
12581,0.0,0.0,,,,,,,,0,control_change,0.0,,,,68300,177.86458333333331,192
12582,,,"(74, 65, 90, 50, 1, 0, 0, 0, 0, 0, 0, 0, 0, 0, 0, 0, 0, 0, 0, 0)",,,,,,,0,sequencer_specific,,,,,0,0.0,192
12583,,,,one of them .. ,,,,,,0,track_name,,,,,0,0.0,192
12584,,,,,,,,,,0,end_of_track,,,,,0,0.0,192
12585,0.0,0.0,,,,,,,,0,control_change,0.0,,,,68300,177.86458333333331,192
12586,,,"(74, 65, 90, 50, 1, 0, 0, 0, 0, 0, 0, 0, 0, 0, 0, 0, 0, 0, 0, 0)",,,,,,,0,sequencer_specific,,,,,0,0.0,192
12587,,,,as well as some,,,,,,0,track_name,,,,,0,0.0,192
12588,,,,,,,,,,0,end_of_track,,,,,0,0.0,192
12589,0.0,0.0,,,,,,,,0,control_change,0.0,,,,68300,177.86458333333331,192
12590,,,"(74, 65, 90, 50, 1, 0, 0, 0, 0, 0, 0, 0, 0, 0, 0, 0, 0, 0, 0, 0)",,,,,,,0,sequencer_specific,,,,,0,0.0,192
12591,,,,kickass sound,,,,,,0,track_name,,,,,0,0.0,192
12592,,,,,,,,,,0,end_of_track,,,,,0,0.0,192
12593,0.0,0.0,,,,,,,,0,control_change,0.0,,,,68300,177.86458333333331,192
12594,,,"(74, 65, 90, 50, 1, 0, 0, 0, 0, 0, 0, 0, 0, 0, 0, 0, 0, 0, 0, 0)",,,,,,,0,sequencer_specific,,,,,0,0.0,192
12595,,,,fonts!,,,,,,0,track_name,,,,,0,0.0,192
12596,,,,,,,,,,0,end_of_track,,,,,0,0.0,192
